<svg xmlns="http://www.w3.org/2000/svg" width="860.238" height="243.744" viewBox="0 0 860.238 243.744">
    <g id="birds-artwork" transform="translate(8.232 -55.488)">
        <line id="Line_15" y1="185.374" x2="660.982" transform="translate(0.035 56.206)" fill="none" stroke="#00195a" stroke-miterlimit="10" stroke-width="1.49"/>
        <line id="Line_16" x1="742.266" y2="208.365" transform="translate(-0.183 61.201)" fill="none" stroke="#00195a" stroke-miterlimit="10" stroke-width="1.49"/>
        <line id="Line_17" x1="859.844" y2="235.718" transform="translate(-8.035 62.796)" fill="none" stroke="#00195a" stroke-miterlimit="10" stroke-width="1.49"/>
        <g id="Group_12100" transform="translate(356.665 94.774)">
            <path id="Path_3876" d="M357.659,116.739c.237.009.349-.151.493-.286a7.66,7.66,0,0,0,1.26-1.444.322.322,0,0,0,0-.417,1.672,1.672,0,0,1-.4-1.006.532.532,0,0,0-.052-.147,1.143,1.143,0,0,0-.133.09,5.816,5.816,0,0,0-1.3,1.8,6.953,6.953,0,0,0-.339.812A.453.453,0,0,0,357.659,116.739Z" transform="translate(-344.372 -92.848)" fill="#00195a"/>
            <path id="Path_3877" d="M359.635,114.918a.948.948,0,0,0,1.285.505c.454-.274.914-.542,1.346-.849a3.816,3.816,0,0,0,1.249-1.346,6.4,6.4,0,0,1,.526-.791c.036-.049.128-.058.194-.085.022.079.08.167.059.233a1.486,1.486,0,0,1-.209.46c-.321.429-.646.859-1,1.259a4.573,4.573,0,0,1-.748.647,5.6,5.6,0,0,0-1.195.973.856.856,0,0,0,.416,1.362,1.771,1.771,0,0,0,1.661-.3,8.68,8.68,0,0,0,2.992-3.187c.038-.084.167-.126.3-.218a1.393,1.393,0,0,1-.022.352,5.209,5.209,0,0,1-1.784,2.26,7.407,7.407,0,0,0-1.458,1.3,1.069,1.069,0,0,0-.078,1.3.768.768,0,0,0,.842.444,2.839,2.839,0,0,0,1.451-.6c.5-.429,1.01-.857,1.495-1.307a5.19,5.19,0,0,0,1.444-1.765c.025-.059.127-.087.194-.129.017.08.071.177.043.235a2.7,2.7,0,0,1-.4.707c-.661.7-1.346,1.381-2.035,2.054a2.509,2.509,0,0,0-.55.734.843.843,0,0,0,.57,1.215,2.425,2.425,0,0,0,1.83-.117,4.668,4.668,0,0,0,1.63-1.365c.564-.708,1.095-1.442,1.643-2.161a1.439,1.439,0,0,1,.208-.187c.043.074.053.115.037.143a5.371,5.371,0,0,1-.473.836c-.7.866-1.422,1.71-2.135,2.563a.575.575,0,0,0-.153.239,2.292,2.292,0,0,0,.1,1.365.437.437,0,0,0,.687.218,9.045,9.045,0,0,0,1.294-.922c.646-.611,1.243-1.275,1.841-1.935a8.914,8.914,0,0,0,1.97-3.592c.329-1.162.631-2.332.974-3.49a6.088,6.088,0,0,1,.464-.992c.025-.049.116-.063.176-.093a1.259,1.259,0,0,1,.039.183.321.321,0,0,1-.03.1q-.338,1.154-.675,2.308c-.238.82-.451,1.648-.713,2.46a10.731,10.731,0,0,1-2.729,4.306c-.38.379-.769.754-1.175,1.1a3.9,3.9,0,0,1-1.62,1.036.677.677,0,0,0-.1.049c-.432.186-.862.378-1.3.556a6.447,6.447,0,0,1-1.64.421c-.868.112-1.738.223-2.6.364a2.409,2.409,0,0,0-1,.376c.017.039.019.067.033.078.479.355.934.745,1.442,1.05a15.318,15.318,0,0,0,1.55.737c.113.051.248.053.359.106a4.414,4.414,0,0,0,2.123.42,1.616,1.616,0,0,1,.35.037c.492.088.983.184,1.476.27.137.025.944.048,1.146.062.286.021.575.021.857.066.535.087,1.065.221,1.6.295a2.711,2.711,0,0,0,1.4-.1c.519-.208,1.051-.39,1.555-.633a15,15,0,0,0,1.766-.959,12.571,12.571,0,0,0,3-2.877c.734-.948,1.4-1.952,2.063-2.951a7.5,7.5,0,0,0,.761-1.419,14.711,14.711,0,0,0,.795-2.777,31.405,31.405,0,0,0,.746-4.482c.033-.993.156-1.984.183-2.977.034-1.236.01-2.474.012-3.711,0-.2,0-.4.009-.594.032-.675.021-1.357.119-2.023a10.3,10.3,0,0,1,.448-1.484.5.5,0,0,0-.517-.092.5.5,0,0,1-.626-.268c-.122-.25-.248-.5-.37-.749a.525.525,0,0,1,.151-.656c.011.008.027.016.033.028a.111.111,0,0,1,.017.061.93.93,0,0,0,.253.829.3.3,0,0,1,.08.154.492.492,0,0,0,.423.395c.51.136,1.019.28,1.532.4.265.064.537.093.806.137a2.781,2.781,0,0,0-.571-.338c-.632-.3-1.266-.593-1.895-.9-.066-.032-.1-.135-.144-.2.1,0,.19,0,.284.009.032,0,.059.042.092.059a.574.574,0,0,0,.631,0,1.971,1.971,0,0,1,.655-.374c.025-.009.04-.039.077-.076a2.124,2.124,0,0,1-.391-.414.335.335,0,0,0-.479-.164c-.164.059-.316.157-.484.206a.685.685,0,0,1-.277-.038c.044-.076.07-.178.136-.224a1.068,1.068,0,0,1,.857-.21c.234.052.32.006.447-.213a1.825,1.825,0,0,0,.094-1.592,3.552,3.552,0,0,0-.989-1.364,3.032,3.032,0,0,0-.829-.68,7.482,7.482,0,0,0-1.587-.457,3.212,3.212,0,0,0-2.034.42,11.88,11.88,0,0,0-2.689,1.875,6.662,6.662,0,0,0-1.825,2.877A18.984,18.984,0,0,1,376,101.785a.344.344,0,0,1-.128.147,8.1,8.1,0,0,1-1.46.621,21.847,21.847,0,0,0-2.929.9,24.325,24.325,0,0,0-4.022,1.928,22.707,22.707,0,0,0-4.279,3.334c-.6.6-1.2,1.2-1.736,1.853-.6.718-1.133,1.488-1.682,2.246-.151.209-.381.4-.349.695A7.791,7.791,0,0,0,359.635,114.918Zm13.231,5.928c-.017.012-.089-.013-.091-.027a.147.147,0,0,1,.027-.114c.125-.094.256-.178.386-.266C373.214,120.471,373,120.746,372.866,120.846Zm.218,1.06c.066-.242.257-.314.462-.455A.518.518,0,0,1,373.084,121.905Zm11.78-12.07a.208.208,0,0,1-.063.089c-.012.012-.038.013-.092.03a1.982,1.982,0,0,1,.013-.236c.073-.419.147-.836.228-1.254a.611.611,0,0,1,.1-.165c.028.052.087.109.08.154C385.049,108.915,384.957,109.375,384.864,109.835Zm.63-8.483-.141,1.1-.072-.006A1.22,1.22,0,0,1,385.494,101.352Zm-.291,3.022a1.474,1.474,0,0,1-.292,1.29Zm-3.477,7.583a1.011,1.011,0,0,1,.275-.928l.073.031Zm1.522.931.329-1.294A1.448,1.448,0,0,1,383.247,112.889Zm1.6-10-.186,1.357-.113-.02a7.469,7.469,0,0,1,.181-1.355Zm-.084-1.068-.338,1.306A1.517,1.517,0,0,1,384.762,101.824Zm-1.23,8.381a1.977,1.977,0,0,1,.3-1.484Zm.228-4.887a2.752,2.752,0,0,1-.742,1.642Zm-.312-1.9a4.666,4.666,0,0,1-.457,1.309A2.337,2.337,0,0,1,383.448,103.419Zm-.477-6.285a.755.755,0,0,1,.643.817c.006.392-.466.636-.777.634a.772.772,0,0,1-.613-.635A.919.919,0,0,1,382.971,97.135Zm-.336,4.9.076.064a3.878,3.878,0,0,1-.932,1.1l-.061-.049ZM381.27,120.7a1.349,1.349,0,0,1-.667,1.041Zm-1.32-14.108a.993.993,0,0,1-.549.954Zm-1.143,16.958-.612.7C378.175,123.987,378.557,123.535,378.807,123.549Zm-2.594-7.826a1.592,1.592,0,0,1-.545,1.35Zm-.88,2.627.867-1.115A1.536,1.536,0,0,1,375.333,118.35Zm1.506-14.619.865-.6C377.676,103.429,377.062,103.834,376.839,103.731Zm.643,2.345,1.3-1.548C378.839,104.838,377.9,105.955,377.482,106.076Zm1.179-4.7.071.032a.641.641,0,0,1-.38.663Zm-.69.206c-.052.4-.849,1.191-1.134,1.172Zm-2.61,1.587a1.676,1.676,0,0,0,.786-.615c.032-.05.114-.065.173-.1,0,.053.024.123,0,.153a2.059,2.059,0,0,1-1.011.71.148.148,0,0,1-.064,0c-.013,0-.025-.014-.068-.044A1.678,1.678,0,0,1,375.36,103.172Zm-1.3,11.223.058.028-.666,1.341-.068-.033A4.354,4.354,0,0,1,374.064,114.4Zm-3.094-1.949-.383.463-.1-.08.388-.459Zm-.22-3.816.049.031a2.205,2.205,0,0,1-.547.861l-.063-.041Zm-.018,7.291a2.636,2.636,0,0,1-1.187,1.255Zm-2.722-1.387a1.52,1.52,0,0,1-.612.761A1.494,1.494,0,0,1,368.011,114.534Zm-2.922-.631-.55.535-.079-.08A2.6,2.6,0,0,1,365.089,113.9Zm-.235-3.962a2.22,2.22,0,0,1-.418.466l-.062-.074Z" transform="translate(-344.296 -93.518)" fill="#00195a"/>
            <path id="Path_3878" d="M351.2,123.015a4.719,4.719,0,0,0,.862-.272,24.282,24.282,0,0,0,2.542-1.18,12.633,12.633,0,0,0,2.108-1.4c.039-.036.073-.079.13-.139-.611-.182-1.174-.385-1.4-1.1-.148.145-.26.253-.37.364a3.784,3.784,0,0,1-.289.3q-1.876,1.546-3.754,3.088a.849.849,0,0,0-.144.243C350.991,122.953,351.108,123.036,351.2,123.015Z" transform="translate(-344.583 -92.663)" fill="#00195a"/>
            <path id="Path_3879" d="M356.032,119.56a1.489,1.489,0,0,0,.842.076c.348-.026.644-.234,1.021-.193a2.853,2.853,0,0,0,1.515-.4.237.237,0,0,0,.12-.178,4.761,4.761,0,0,0-.093-.59c0-.013-.067-.012-.1-.021-.329-.073-.664-.13-.986-.227a.721.721,0,0,1-.487-.843c-.05-.107-.072-.274-.153-.31a.357.357,0,0,0-.5.117c-.183.264-.421.49-.628.738-.3.356-.586.715-.877,1.076a.366.366,0,0,0,.032.534A1.242,1.242,0,0,0,356.032,119.56Z" transform="translate(-344.424 -92.734)" fill="#00195a"/>
            <path id="Path_3880" d="M374.461,126.544c-.364.09-.407.066-.365.307.058.334.1.67.177,1a.818.818,0,0,1-.316.86c-.118.1-.256.174-.377.269a3.294,3.294,0,0,0-.252.25,2.517,2.517,0,0,0,.265.081c.217.035.435.073.654.09a.728.728,0,0,0,.377-.036,2.5,2.5,0,0,1,1.849-.183,8.675,8.675,0,0,0,2.1.244,4.062,4.062,0,0,1,.939.1,1.034,1.034,0,0,0,.87-.177,1.251,1.251,0,0,0-1.16-.745c-.765.017-1.531.031-2.295.069a2.076,2.076,0,0,1-1.525-.472,1.855,1.855,0,0,1-.772-1.446C374.631,126.655,374.642,126.5,374.461,126.544Z" transform="translate(-343.828 -92.407)" fill="#00195a"/>
            <path id="Path_3881" d="M382.1,98.116c-.168-.389-.143-.45.3-.685a.293.293,0,0,0-.406-.081.44.44,0,0,0-.174.521C381.871,98.054,381.949,98.122,382.1,98.116Z" transform="translate(-343.543 -93.391)" fill="#00195a"/>
            <path id="Path_3882" d="M388.579,100.64l.049-.084a1.517,1.517,0,0,0-.142-.191c-.519-.52-1.037-1.042-1.567-1.55a.338.338,0,0,0-.3-.038c-.327.136-.642.3-1.026.485C386.671,99.631,387.547,100.307,388.579,100.64Z" transform="translate(-343.415 -93.342)" fill="#00195a"/>
            <path id="Path_3883" d="M347.289,126.331c.159.088.332.15.482.216a7.749,7.749,0,0,0,1.71-.467c.564-.252,1.14-.48,1.715-.707,1.013-.4,2.042-.766,3.041-1.2a13.1,13.1,0,0,1,2.2-.8,5.289,5.289,0,0,0,.913-.329c.612-.271,1.214-.567,1.825-.84.4-.177.395-.166.377-.587-.005-.137-.061-.179-.186-.182a5.77,5.77,0,0,1-.682-.041,1.165,1.165,0,0,0-.781.171c-1.4.781-2.824,1.53-4.234,2.3a13.843,13.843,0,0,1-4.577,1.561,1.141,1.141,0,0,1-.916-.222.224.224,0,0,0-.2-.02,2.242,2.242,0,0,0-.756.821A.219.219,0,0,0,347.289,126.331Z" transform="translate(-344.708 -92.58)" fill="#00195a"/>
            <path id="Path_3884" d="M372.3,129a1.415,1.415,0,0,1-.458-.922c-.064-.45-.158-.9-.241-1.344a.54.54,0,0,0-.387-.391,2.612,2.612,0,0,0-.478-.092.845.845,0,0,0,.018.125c.224.628.44,1.261.679,1.884.144.375.167.482-.252.829a3.509,3.509,0,0,1-1.363.6,1.988,1.988,0,0,0-1.114.787,1.5,1.5,0,0,0-.143.406,1.6,1.6,0,0,0,.405-.1,4.184,4.184,0,0,1,2.754-.588q.633.1,1.266.188c.233.033.465.071.7.094.542.053,1.084.1,1.627.146.33.031.658.079.989.094.093,0,.19-.081.285-.124-.044-.088-.066-.215-.137-.257a2.461,2.461,0,0,0-.7-.337c-.626-.133-1.261-.231-1.895-.316A2.866,2.866,0,0,1,372.3,129Z" transform="translate(-343.988 -92.417)" fill="#00195a"/>
            <path id="Path_3885" d="M348.609,125.012a3.614,3.614,0,0,0,1.169.019,7.892,7.892,0,0,0,1.316-.509c1-.421,2.008-.81,2.98-1.282.932-.452,1.822-.989,2.73-1.493.294-.162.584-.332.863-.491l-.789-.692c-.6.319-1.284.642-1.926,1.026a20.178,20.178,0,0,1-3.366,1.548,1.322,1.322,0,0,1-1.055.05.273.273,0,0,0-.221.043c-.227.161-.45.332-.666.51q-.527.437-1.044.887C348.41,124.793,348.41,124.989,348.609,125.012Z" transform="translate(-344.665 -92.608)" fill="#00195a"/>
            <path id="Path_3886" d="M364.766,122.189a1.76,1.76,0,0,1-.851-1.125c-.005-.031-.1-.072-.151-.067a1.084,1.084,0,0,0-.228.078,1.752,1.752,0,0,1-1.968-.247c-.43.188-.841.379-1.262.548-.211.085-.442.117-.655.2-.072.027-.177.14-.165.19.051.215.045.467.273.6a1.645,1.645,0,0,0,.357.173,5.171,5.171,0,0,0,1.794.137,14.528,14.528,0,0,0,1.556-.161C363.884,122.443,364.294,122.309,364.766,122.189Z" transform="translate(-344.294 -92.599)" fill="#00195a"/>
            <path id="Path_3887" d="M365.248,118.266a3.483,3.483,0,0,1-.287.2,4.226,4.226,0,0,1-.494.235,1.653,1.653,0,0,1-1.019-.034.37.37,0,0,0-.277.039c-.28.213-.555.437-.813.676a4.742,4.742,0,0,0-.628.669.653.653,0,0,0,.455.985,2.175,2.175,0,0,0,.917-.005,4.3,4.3,0,0,0,2.289-1.418.254.254,0,0,0,.055-.212A1.965,1.965,0,0,1,365.248,118.266Z" transform="translate(-344.222 -92.685)" fill="#00195a"/>
            <path id="Path_3888" d="M356.942,120.242a.732.732,0,0,0,.411.658,2.73,2.73,0,0,0,1.31.352c.088,0,.176.011.264.013a5.533,5.533,0,0,0,2.172-.532c.4-.159.389-.164.378-.59,0-.167-.074-.213-.22-.172a1.314,1.314,0,0,1-1.508-.551.247.247,0,0,0-.219-.06,9.6,9.6,0,0,1-2.365.61C357,119.985,356.939,120.086,356.942,120.242Z" transform="translate(-344.379 -92.649)" fill="#00195a"/>
            <path id="Path_3889" d="M359.931,122.653a.907.907,0,0,0-.473.043c-.6.2-1.187.431-1.78.648-1.064.39-2.13.771-3.19,1.171-.564.213-1.113.468-1.677.683s-1.107.4-1.665.589c-.739.248-1.477.5-2.222.723a3.091,3.091,0,0,0-1.321.76c-.5.5-1.057.938-1.573,1.42-.4.371-.77.768-1.147,1.16-.051.053-.111.175-.089.2a.345.345,0,0,0,.223.107,1.111,1.111,0,0,0,.414-.033c.563-.193,1.123-.4,1.681-.609.158-.059.307-.143.466-.2.7-.254,1.4-.49,2.094-.758.515-.2,1.01-.447,1.522-.654.757-.307,1.528-.579,2.278-.9.568-.243,1.109-.545,1.665-.815.867-.421,1.757-.8,2.6-1.266a24.835,24.835,0,0,1,3-1.392c.278-.109.54-.257.808-.388l-.02-.063C361,122.936,360.467,122.779,359.931,122.653Z" transform="translate(-344.789 -92.538)" fill="#00195a"/>
            <path id="Path_3890" d="M362.724,117.018a.2.2,0,0,0-.141-.129c-.349-.029-.7-.028-1.05-.066a.482.482,0,0,0-.4.12c-.293.246-.584.5-.9.715a1.164,1.164,0,0,0-.259,1.792.86.86,0,0,0,.6.407,1.9,1.9,0,0,0,1.192-.229,3.412,3.412,0,0,0,1.161-1.067.212.212,0,0,0,.018-.189,1.2,1.2,0,0,1-.22-.98A2.147,2.147,0,0,0,362.724,117.018Z" transform="translate(-344.288 -92.734)" fill="#00195a"/>
            <path id="Path_3891" d="M360.485,115.156a3.073,3.073,0,0,0-.642-.211c-.017,0-.046.031-.066.052q-.468.467-.933.935a2.678,2.678,0,0,0-.806,1.058.51.51,0,0,0,0,.331,1.164,1.164,0,0,0,1.7.525,5.64,5.64,0,0,0,.561-.388c.212-.168.411-.355.612-.537.126-.115.135-.218-.009-.344a1.166,1.166,0,0,1-.369-1.036.078.078,0,0,0,0-.022C360.524,115.394,360.55,115.191,360.485,115.156Z" transform="translate(-344.344 -92.797)" fill="#00195a"/>
            <path id="Path_3892" d="M364.118,121.182a1.454,1.454,0,0,0,.638.7,2.921,2.921,0,0,0,2.478.076,15.781,15.781,0,0,0,1.5-.592.824.824,0,0,0,.114-.075,1.969,1.969,0,0,1-.633-1.715c-.283.125-.508.233-.738.326a1.745,1.745,0,0,1-1.728-.134c-.172-.117-.245-.063-.368.043-.361.311-.729.614-1.1.913A.358.358,0,0,0,364.118,121.182Z" transform="translate(-344.139 -92.641)" fill="#00195a"/>
        </g>
        <g id="Group_12101" transform="translate(437.593 148.311)">
            <path id="Path_3893" d="M442.942,161.384c-.156,0-.224-.11-.315-.2a5,5,0,0,1-.784-.99.211.211,0,0,1,.011-.274,1.112,1.112,0,0,0,.3-.649c0-.026.02-.051.038-.1a.647.647,0,0,1,.085.064,3.815,3.815,0,0,1,.8,1.222,4.535,4.535,0,0,1,.2.546C443.331,161.231,443.177,161.386,442.942,161.384Z" transform="translate(-422.452 -144.845)" fill="#00195a"/>
            <path id="Path_3894" d="M442.466,159.226c.03-.19-.115-.326-.208-.468-.338-.516-.667-1.039-1.037-1.531-.335-.444-.709-.862-1.084-1.274a14.982,14.982,0,0,0-2.712-2.328,15.976,15.976,0,0,0-2.586-1.394,14.454,14.454,0,0,0-1.9-.684,5.32,5.32,0,0,1-.941-.455.222.222,0,0,1-.08-.1,12.528,12.528,0,0,1-.85-2.057,4.376,4.376,0,0,0-1.111-1.951,7.8,7.8,0,0,0-1.711-1.318,2.124,2.124,0,0,0-1.326-.34,4.934,4.934,0,0,0-1.058.251,1.98,1.98,0,0,0-.566.422,2.341,2.341,0,0,0-.695.867,1.2,1.2,0,0,0,.012,1.05c.076.148.132.181.287.154a.706.706,0,0,1,.558.165c.041.033.056.1.083.152a.46.46,0,0,1-.184.017c-.109-.037-.206-.106-.312-.151a.22.22,0,0,0-.319.093,1.387,1.387,0,0,1-.271.26c.024.026.033.047.049.053a1.332,1.332,0,0,1,.421.267.378.378,0,0,0,.414.018c.022-.01.04-.035.062-.036.062,0,.125,0,.188,0-.033.044-.057.111-.1.13-.424.182-.851.356-1.276.533a1.832,1.832,0,0,0-.387.2c.179-.021.36-.032.535-.065.341-.066.681-.145,1.021-.218a.326.326,0,0,0,.29-.247.2.2,0,0,1,.057-.1.608.608,0,0,0,.192-.538.081.081,0,0,1,.013-.039c0-.008.014-.012.023-.018a.345.345,0,0,1,.079.436c-.089.161-.179.321-.267.483a.327.327,0,0,1-.421.156.329.329,0,0,0-.343.044,6.787,6.787,0,0,1,.248.991c.043.44.014.889.014,1.334,0,.13-.006.262-.012.392-.037.815-.091,1.628-.108,2.443-.013.654.036,1.311.027,1.965a20.92,20.92,0,0,0,.35,2.973,9.748,9.748,0,0,0,.437,1.853,4.961,4.961,0,0,0,.456.958c.406.679.811,1.359,1.265,2.006a8.311,8.311,0,0,0,1.887,1.988,9.927,9.927,0,0,0,1.133.687c.324.175.668.311,1,.464a1.785,1.785,0,0,0,.917.11c.356-.031.708-.1,1.064-.143.186-.022.377-.013.565-.018.134,0,.666.007.757,0,.328-.042.653-.09.98-.132a1.027,1.027,0,0,1,.232-.013,2.9,2.9,0,0,0,1.411-.21c.074-.031.163-.029.239-.059a9.961,9.961,0,0,0,1.044-.436c.343-.184.656-.428.982-.646.009-.006.012-.025.024-.051a1.579,1.579,0,0,0-.645-.278c-.564-.12-1.133-.221-1.7-.32a4.289,4.289,0,0,1-1.066-.329c-.281-.131-.558-.271-.837-.406a.43.43,0,0,0-.063-.036,2.572,2.572,0,0,1-1.034-.732c-.256-.244-.5-.5-.739-.764a7.056,7.056,0,0,1-1.661-2.919c-.148-.543-.262-1.095-.393-1.641q-.185-.771-.372-1.54a.224.224,0,0,1-.017-.07.963.963,0,0,1,.032-.119c.038.022.1.034.113.067a4.081,4.081,0,0,1,.275.667c.189.773.35,1.553.531,2.328a5.877,5.877,0,0,0,1.184,2.426c.373.453.745.909,1.151,1.331a6.065,6.065,0,0,0,.823.647.287.287,0,0,0,.459-.122,1.508,1.508,0,0,0,.109-.9.385.385,0,0,0-.093-.161c-.442-.584-.893-1.163-1.325-1.754a3.571,3.571,0,0,1-.285-.565c-.009-.019,0-.045.029-.092a.964.964,0,0,1,.131.128c.338.491.664.991,1.013,1.475a3.078,3.078,0,0,0,1.03.949,1.6,1.6,0,0,0,1.2.134.555.555,0,0,0,.412-.781,1.669,1.669,0,0,0-.338-.5c-.433-.464-.862-.933-1.276-1.415a1.775,1.775,0,0,1-.24-.479c-.017-.038.023-.1.036-.152.042.03.11.051.123.091a3.41,3.41,0,0,0,.9,1.206c.3.311.624.609.943.908a1.879,1.879,0,0,0,.935.44.5.5,0,0,0,.569-.267.7.7,0,0,0-.01-.856,4.872,4.872,0,0,0-.919-.9,3.431,3.431,0,0,1-1.1-1.543.9.9,0,0,1,0-.233c.084.065.167.1.19.153a5.712,5.712,0,0,0,1.869,2.191,1.169,1.169,0,0,0,1.084.251.565.565,0,0,0,.316-.885,3.745,3.745,0,0,0-.757-.677,2.993,2.993,0,0,1-.472-.45c-.221-.274-.422-.566-.619-.859a1.019,1.019,0,0,1-.124-.309c-.01-.044.03-.1.046-.152.042.02.1.029.125.062a4.236,4.236,0,0,1,.321.536,2.519,2.519,0,0,0,.78.925c.274.216.568.406.859.6a.623.623,0,0,0,.861-.293A5.047,5.047,0,0,0,442.466,159.226Zm-9.283,4.131c.083.062.166.121.245.187a.1.1,0,0,1,.014.075.076.076,0,0,1-.061.014C433.294,163.563,433.165,163.376,433.183,163.357Zm-.268.654c.13.1.254.153.289.313A.34.34,0,0,1,432.915,164.011Zm-7.218-8.917c0-.03.037-.066.057-.1a.376.376,0,0,1,.061.113c.041.277.077.554.112.832a1.5,1.5,0,0,1,0,.156c-.035-.013-.053-.014-.06-.024a.126.126,0,0,1-.038-.06C425.783,155.705,425.736,155.4,425.7,155.094Zm.089-3.959-.048,0-.058-.728A.8.8,0,0,1,425.786,151.135Zm.143,2.13a.972.972,0,0,1-.151-.858Zm1.7,3.641.049-.019a.665.665,0,0,1,.152.62Zm-1.006.3.176.861A.953.953,0,0,1,426.622,157.21Zm-.485-5.776a4.924,4.924,0,0,1,.076.9l-.074.009-.081-.9Zm.192.178-.182-.869A1,1,0,0,1,426.33,151.612Zm.214,3.7a1.3,1.3,0,0,1,.152.986Zm.591-1.133a1.817,1.817,0,0,1-.437-1.1Zm.088-1.469a3.082,3.082,0,0,1-.26-.876A1.535,1.535,0,0,1,427.223,152.709Zm.716-4.436a.506.506,0,0,1-.423.4c-.2-.008-.509-.184-.492-.441a.5.5,0,0,1,.449-.517A.6.6,0,0,1,427.939,148.272Zm.171,3.439-.042.029a2.572,2.572,0,0,1-.579-.754l.053-.039Zm.152,12.268a.889.889,0,0,1-.406-.706Zm1.235-9.305a.654.654,0,0,1-.331-.645Zm.271,11.03-.38-.478C429.553,165.225,429.789,165.535,429.768,165.705Zm1.888-4.642a1.048,1.048,0,0,1-.316-.906Zm-.356.089.536.762A1.01,1.01,0,0,1,431.3,161.152Zm-.548-9.331.55.424C431.153,152.306,430.762,152.019,430.753,151.821Zm-.757.887.81,1.061C430.536,153.675,429.952,152.911,430,152.708Zm.363-1.6a.42.42,0,0,1-.229-.448l.048-.019Zm.976.5c-.188,0-.688-.545-.71-.807Zm1.078.4c-.03.018-.038.026-.047.027a.1.1,0,0,1-.042,0,1.363,1.363,0,0,1-.643-.5c-.016-.022,0-.067,0-.1.037.023.091.036.111.069a1.1,1.1,0,0,0,.5.429A1.2,1.2,0,0,1,432.413,152Zm.786,8.251-.047.02-.4-.9.038-.017A2.861,2.861,0,0,1,433.2,160.251Zm1.756-2.133.241.314-.065.05-.238-.316Zm.545-1.88-.043.025a1.45,1.45,0,0,1-.332-.584l.033-.019Zm.183,5.085a1.732,1.732,0,0,1-.742-.863Zm1.472-1.171a1,1,0,0,1-.379-.52A.991.991,0,0,1,437.154,160.151Zm1.963-.523-.054.05-.346-.37A1.7,1.7,0,0,1,439.117,159.628Zm.182-2.647-.042.047a1.48,1.48,0,0,1-.26-.319Z" transform="translate(-423.057 -145.312)" fill="#00195a"/>
            <path id="Path_3895" d="M447.074,165.72a3.116,3.116,0,0,1-.558-.206,16,16,0,0,1-1.636-.857,8.349,8.349,0,0,1-1.343-.99c-.026-.026-.047-.054-.083-.1.408-.1.786-.217.957-.678.092.1.163.176.232.251a2.664,2.664,0,0,0,.181.207c.791.717,1.585,1.431,2.374,2.149a.58.58,0,0,1,.088.164C447.214,165.686,447.135,165.737,447.074,165.72Z" transform="translate(-422.396 -144.72)" fill="#00195a"/>
            <path id="Path_3896" d="M443.96,163.291a.974.974,0,0,1-.557.025c-.228-.028-.417-.174-.666-.159a1.884,1.884,0,0,1-.985-.313.156.156,0,0,1-.073-.12,3.325,3.325,0,0,1,.08-.387c0-.008.045-.005.069-.009.218-.038.44-.065.655-.119a.475.475,0,0,0,.347-.541c.036-.069.056-.178.111-.2a.236.236,0,0,1,.325.093c.112.18.262.335.39.505.184.243.364.489.544.735a.243.243,0,0,1-.037.351A.829.829,0,0,1,443.96,163.291Z" transform="translate(-422.456 -144.769)" fill="#00195a"/>
            <path id="Path_3897" d="M431.681,167.311c.236.07.265.056.229.214-.049.217-.09.437-.148.652a.541.541,0,0,0,.182.576c.074.069.163.122.24.189a2.227,2.227,0,0,1,.158.173,1.666,1.666,0,0,1-.177.044c-.144.017-.288.034-.433.039a.491.491,0,0,1-.248-.036,1.65,1.65,0,0,0-1.21-.179,5.7,5.7,0,0,1-1.389.1,2.643,2.643,0,0,0-.62.036.683.683,0,0,1-.567-.144.824.824,0,0,1,.787-.454c.5.034,1.007.068,1.508.117a1.371,1.371,0,0,0,1.018-.263,1.221,1.221,0,0,0,.553-.928C431.564,167.378,431.563,167.276,431.681,167.311Z" transform="translate(-422.927 -144.571)" fill="#00195a"/>
            <path id="Path_3898" d="M427.4,148.361c.124-.251.109-.291-.174-.461a.194.194,0,0,1,.27-.04.29.29,0,0,1,.1.348C427.555,148.326,427.5,148.369,427.4,148.361Z" transform="translate(-422.942 -145.227)" fill="#00195a"/>
            <path id="Path_3899" d="M423.111,149.819l-.029-.057a1.124,1.124,0,0,1,.1-.121c.358-.326.715-.653,1.08-.972a.225.225,0,0,1,.2-.016c.211.1.412.217.66.351C424.4,149.216,423.8,149.633,423.111,149.819Z" transform="translate(-423.082 -145.2)" fill="#00195a"/>
            <path id="Path_3900" d="M449.682,168.031c-.108.053-.223.089-.324.127a5.143,5.143,0,0,1-1.111-.361c-.363-.184-.735-.351-1.106-.52-.654-.295-1.32-.567-1.964-.884a8.635,8.635,0,0,0-1.421-.593,3.535,3.535,0,0,1-.59-.245c-.394-.2-.78-.411-1.175-.611-.254-.128-.254-.122-.229-.4.007-.091.046-.116.128-.115a3.625,3.625,0,0,0,.45-.005.77.77,0,0,1,.51.136c.9.558,1.811,1.1,2.714,1.646a9.138,9.138,0,0,0,2.964,1.17.754.754,0,0,0,.61-.118.144.144,0,0,1,.134-.006,1.471,1.471,0,0,1,.472.564A.145.145,0,0,1,449.682,168.031Z" transform="translate(-422.454 -144.668)" fill="#00195a"/>
            <path id="Path_3901" d="M433.049,168.993a.933.933,0,0,0,.33-.592c.056-.295.132-.585.2-.877a.358.358,0,0,1,.267-.245,1.708,1.708,0,0,1,.317-.046.5.5,0,0,1-.015.081c-.167.407-.33.817-.507,1.22-.105.242-.125.311.141.553a2.32,2.32,0,0,0,.879.438,1.315,1.315,0,0,1,.709.553,1.02,1.02,0,0,1,.081.271.99.99,0,0,1-.264-.08,2.757,2.757,0,0,0-1.793-.473l-.839.084c-.154.016-.309.033-.463.04-.359.018-.717.03-1.076.046-.218.01-.436.031-.653.031-.062,0-.123-.059-.185-.091.032-.056.051-.14.1-.165a1.645,1.645,0,0,1,.473-.2c.417-.068.837-.112,1.257-.149A1.881,1.881,0,0,0,433.049,168.993Z" transform="translate(-422.843 -144.574)" fill="#00195a"/>
            <path id="Path_3902" d="M448.786,167.119a2.361,2.361,0,0,1-.769-.025,5.084,5.084,0,0,1-.851-.375c-.642-.308-1.3-.6-1.922-.937-.6-.327-1.168-.709-1.75-1.068-.188-.117-.373-.237-.552-.351l.541-.43c.389.229.825.463,1.235.736a13.374,13.374,0,0,0,2.167,1.125.874.874,0,0,0,.694.066.176.176,0,0,1,.144.035c.145.114.286.233.422.357.223.2.441.408.661.616C448.925,166.981,448.919,167.11,448.786,167.119Z" transform="translate(-422.413 -144.685)" fill="#00195a"/>
            <path id="Path_3903" d="M438.158,164.749a1.163,1.163,0,0,0,.6-.713c0-.021.068-.044.1-.04a.7.7,0,0,1,.149.059,1.155,1.155,0,0,0,1.3-.1c.276.137.542.276.812.4.136.062.287.091.426.15.047.02.112.1.1.129-.039.141-.044.307-.2.388a1.094,1.094,0,0,1-.24.1,3.436,3.436,0,0,1-1.186.034A9.683,9.683,0,0,1,439,165C438.731,164.943,438.465,164.843,438.158,164.749Z" transform="translate(-422.575 -144.684)" fill="#00195a"/>
            <path id="Path_3904" d="M437.933,162.153a2.133,2.133,0,0,0,.183.14,2.829,2.829,0,0,0,.317.17,1.089,1.089,0,0,0,.672.009.243.243,0,0,1,.181.035c.178.149.351.3.515.47a3.249,3.249,0,0,1,.393.459.431.431,0,0,1-.331.635,1.446,1.446,0,0,1-.6-.032,2.842,2.842,0,0,1-1.462-1,.167.167,0,0,1-.029-.142A1.3,1.3,0,0,0,437.933,162.153Z" transform="translate(-422.588 -144.745)" fill="#00195a"/>
            <path id="Path_3905" d="M443.352,163.713a.485.485,0,0,1-.292.421,1.79,1.79,0,0,1-.873.19c-.058,0-.116,0-.174,0a3.626,3.626,0,0,1-1.413-.419c-.256-.117-.25-.12-.23-.4.008-.11.056-.137.151-.105a.864.864,0,0,0,1.009-.316.165.165,0,0,1,.147-.032,6.309,6.309,0,0,0,1.537.475C443.321,163.541,443.359,163.61,443.352,163.713Z" transform="translate(-422.5 -144.715)" fill="#00195a"/>
            <path id="Path_3906" d="M441.57,165.219a.591.591,0,0,1,.311.043c.386.153.767.32,1.15.482.688.29,1.378.575,2.063.871.365.157.718.342,1.082.5s.716.3,1.077.439c.479.186.957.372,1.44.546a2.045,2.045,0,0,1,.847.541c.314.343.666.65.99.984.249.257.483.53.719.8.031.035.067.118.052.134a.222.222,0,0,1-.15.063.746.746,0,0,1-.272-.034c-.365-.145-.726-.3-1.087-.454-.1-.043-.2-.1-.3-.147-.452-.188-.909-.366-1.355-.563-.333-.147-.651-.327-.981-.479-.488-.225-.988-.429-1.471-.664-.366-.178-.713-.393-1.071-.588-.558-.3-1.132-.582-1.671-.915a16.346,16.346,0,0,0-1.932-1.011c-.18-.08-.347-.186-.52-.28l.016-.041C440.861,165.371,441.215,165.285,441.57,165.219Z" transform="translate(-422.496 -144.642)" fill="#00195a"/>
            <path id="Path_3907" d="M439.621,161.409a.131.131,0,0,1,.1-.081c.231-.008.463,0,.694-.01a.316.316,0,0,1,.259.091c.185.171.369.344.567.5a.768.768,0,0,1,.115,1.189.571.571,0,0,1-.409.249,1.252,1.252,0,0,1-.777-.189,2.246,2.246,0,0,1-.731-.738.138.138,0,0,1-.005-.125.791.791,0,0,0,.176-.638A1.486,1.486,0,0,1,439.621,161.409Z" transform="translate(-422.532 -144.773)" fill="#00195a"/>
            <path id="Path_3908" d="M441.147,160.253a2.1,2.1,0,0,1,.43-.118c.01,0,.029.022.042.036q.291.321.584.645a1.761,1.761,0,0,1,.5.721.327.327,0,0,1-.01.218.767.767,0,0,1-1.137.293,3.844,3.844,0,0,1-.358-.273c-.134-.118-.259-.246-.386-.373-.08-.08-.083-.148.017-.226a.769.769,0,0,0,.276-.67.07.07,0,0,1,0-.014C441.115,160.409,441.1,160.275,441.147,160.253Z" transform="translate(-422.487 -144.813)" fill="#00195a"/>
            <path id="Path_3909" d="M438.605,164.108a.965.965,0,0,1-.442.444,1.925,1.925,0,0,1-1.633-.028,10.351,10.351,0,0,1-.965-.436.614.614,0,0,1-.072-.054,1.3,1.3,0,0,0,.469-1.108c.183.091.327.168.475.237a1.149,1.149,0,0,0,1.142-.034c.117-.071.163-.034.241.04q.341.324.7.635A.237.237,0,0,1,438.605,164.108Z" transform="translate(-422.664 -144.719)" fill="#00195a"/>
        </g>
        <g id="Group_12102" transform="translate(405.164 157.282)">
            <path id="Path_3910" d="M411.569,170.063c-.156,0-.225-.11-.315-.2a5,5,0,0,1-.784-.99.211.211,0,0,1,.011-.274,1.1,1.1,0,0,0,.3-.649.376.376,0,0,1,.039-.1.65.65,0,0,1,.085.064,3.813,3.813,0,0,1,.8,1.222,4.363,4.363,0,0,1,.2.546C411.957,169.91,411.8,170.065,411.569,170.063Z" transform="translate(-391.079 -153.524)" fill="#00195a"/>
            <path id="Path_3911" d="M411.093,167.905c.03-.19-.116-.326-.209-.468-.337-.516-.666-1.039-1.036-1.531-.335-.444-.709-.862-1.084-1.275a15.019,15.019,0,0,0-2.712-2.328,15.979,15.979,0,0,0-2.586-1.394,14.513,14.513,0,0,0-1.9-.684,5.282,5.282,0,0,1-.941-.455.221.221,0,0,1-.08-.1,12.522,12.522,0,0,1-.85-2.057,4.376,4.376,0,0,0-1.111-1.951,7.835,7.835,0,0,0-1.711-1.318,2.124,2.124,0,0,0-1.326-.34,4.919,4.919,0,0,0-1.059.251,2,2,0,0,0-.566.422,2.341,2.341,0,0,0-.695.867,1.2,1.2,0,0,0,.012,1.05c.076.148.132.181.287.154a.7.7,0,0,1,.557.165c.042.033.057.1.084.152a.46.46,0,0,1-.184.017c-.109-.037-.206-.106-.312-.151a.22.22,0,0,0-.319.093,1.385,1.385,0,0,1-.271.26c.023.026.033.047.049.053a1.317,1.317,0,0,1,.42.267.38.38,0,0,0,.415.018c.022-.01.04-.035.062-.036.062,0,.125,0,.188,0-.034.044-.058.111-.1.13-.424.182-.851.356-1.276.533a1.834,1.834,0,0,0-.387.2c.179-.021.359-.032.535-.065.341-.066.681-.145,1.021-.218a.327.327,0,0,0,.29-.247.2.2,0,0,1,.057-.1.611.611,0,0,0,.192-.538.072.072,0,0,1,.013-.039c0-.008.014-.012.023-.018a.345.345,0,0,1,.079.436l-.268.483a.325.325,0,0,1-.42.156.331.331,0,0,0-.344.044,6.658,6.658,0,0,1,.249.991c.043.44.014.889.014,1.334,0,.13-.006.262-.012.392-.037.815-.092,1.628-.108,2.443-.013.654.036,1.311.027,1.965a20.8,20.8,0,0,0,.35,2.974,9.834,9.834,0,0,0,.436,1.852,4.964,4.964,0,0,0,.457.958c.405.679.811,1.359,1.265,2.006a8.29,8.29,0,0,0,1.887,1.988,9.922,9.922,0,0,0,1.133.687c.324.175.668.311,1,.464a1.781,1.781,0,0,0,.916.11c.357-.031.709-.1,1.065-.143.186-.022.376-.013.565-.018.134,0,.666.007.757,0,.327-.042.653-.09.98-.132a1.027,1.027,0,0,1,.232-.013,2.9,2.9,0,0,0,1.411-.21c.074-.031.163-.029.239-.059a9.964,9.964,0,0,0,1.044-.436c.343-.184.656-.428.982-.646.009-.006.011-.025.024-.051a1.579,1.579,0,0,0-.645-.278c-.564-.12-1.133-.221-1.7-.32a4.267,4.267,0,0,1-1.067-.329c-.281-.131-.557-.271-.836-.406a.431.431,0,0,0-.063-.036,2.565,2.565,0,0,1-1.034-.732c-.256-.244-.5-.5-.739-.764a7.056,7.056,0,0,1-1.661-2.919c-.148-.543-.263-1.095-.393-1.641q-.184-.771-.372-1.54a.2.2,0,0,1-.017-.07.814.814,0,0,1,.032-.119c.038.022.1.034.113.067a4.057,4.057,0,0,1,.275.668c.189.772.35,1.552.531,2.327a5.871,5.871,0,0,0,1.184,2.426c.372.453.745.909,1.151,1.331a6,6,0,0,0,.823.647.287.287,0,0,0,.459-.122,1.508,1.508,0,0,0,.109-.9.384.384,0,0,0-.093-.161c-.442-.584-.893-1.163-1.325-1.754a3.582,3.582,0,0,1-.285-.565c-.009-.019,0-.045.029-.092a.968.968,0,0,1,.131.129c.338.49.664.99,1.013,1.474a3.083,3.083,0,0,0,1.03.95,1.6,1.6,0,0,0,1.2.133.555.555,0,0,0,.412-.781,1.669,1.669,0,0,0-.338-.5c-.433-.464-.863-.933-1.276-1.415a1.761,1.761,0,0,1-.24-.479c-.017-.038.023-.1.036-.152.042.03.11.051.123.091a3.42,3.42,0,0,0,.9,1.206c.306.311.625.609.943.908a1.883,1.883,0,0,0,.936.44.5.5,0,0,0,.569-.267.7.7,0,0,0-.01-.856,4.87,4.87,0,0,0-.919-.9,3.431,3.431,0,0,1-1.1-1.543.9.9,0,0,1,0-.233c.084.065.166.1.189.153a5.715,5.715,0,0,0,1.87,2.191,1.168,1.168,0,0,0,1.084.251.565.565,0,0,0,.316-.884,3.746,3.746,0,0,0-.757-.678,3,3,0,0,1-.472-.45c-.221-.274-.422-.566-.619-.859a.984.984,0,0,1-.124-.309c-.011-.044.03-.1.047-.152.042.021.1.029.125.062a4.225,4.225,0,0,1,.321.536,2.51,2.51,0,0,0,.78.925c.274.216.569.406.859.6a.624.624,0,0,0,.861-.294A5.045,5.045,0,0,0,411.093,167.905Zm-9.283,4.131c.082.062.166.121.245.187a.1.1,0,0,1,.014.075.076.076,0,0,1-.061.014C401.921,172.242,401.791,172.055,401.81,172.036Zm-.268.654c.13.1.253.153.289.314A.342.342,0,0,1,401.542,172.69Zm-7.218-8.917c0-.03.036-.066.057-.1a.377.377,0,0,1,.061.113c.041.277.076.554.112.832a1.522,1.522,0,0,1,0,.156c-.036-.013-.053-.014-.061-.023a.155.155,0,0,1-.038-.061C394.41,164.384,394.363,164.08,394.324,163.773Zm.089-3.959-.048,0-.058-.728A.805.805,0,0,1,394.413,159.814Zm.143,2.13a.972.972,0,0,1-.151-.858Zm1.7,3.641.049-.019a.668.668,0,0,1,.152.62Zm-1.006.3.176.861A.953.953,0,0,1,395.249,165.889Zm-.485-5.776a4.923,4.923,0,0,1,.076.9l-.074.009-.081-.9Zm.192.178-.182-.869A1,1,0,0,1,394.957,160.291Zm.214,3.7a1.3,1.3,0,0,1,.151.986Zm.591-1.133a1.812,1.812,0,0,1-.437-1.1Zm.088-1.469a3.072,3.072,0,0,1-.26-.876A1.545,1.545,0,0,1,395.85,161.388Zm.716-4.436a.508.508,0,0,1-.424.4c-.2-.008-.508-.184-.491-.441a.5.5,0,0,1,.449-.517A.6.6,0,0,1,396.566,156.951Zm.171,3.439-.042.03a2.554,2.554,0,0,1-.579-.755l.053-.039Zm.152,12.268a.886.886,0,0,1-.406-.706Zm1.235-9.305a.657.657,0,0,1-.332-.645Zm.271,11.03-.38-.478C398.18,173.9,398.415,174.214,398.394,174.384Zm1.889-4.642a1.048,1.048,0,0,1-.316-.905Zm-.356.089.535.762A1.012,1.012,0,0,1,399.927,169.831Zm-.548-9.331.55.424C399.78,160.985,399.388,160.7,399.38,160.5Zm-.757.887.81,1.061C399.163,162.355,398.578,161.59,398.623,161.387Zm.363-1.6a.424.424,0,0,1-.231-.449l.049-.019Zm.976.5c-.189,0-.688-.545-.71-.807Zm1.078.4c-.03.018-.038.026-.047.027a.1.1,0,0,1-.042,0,1.357,1.357,0,0,1-.643-.5c-.016-.022,0-.067,0-.1.038.023.092.036.112.069a1.1,1.1,0,0,0,.5.429A1.209,1.209,0,0,1,401.04,160.68Zm.786,8.251-.046.02-.4-.9.038-.017A2.882,2.882,0,0,1,401.825,168.931Zm1.756-2.133.241.314-.065.05-.238-.316Zm.545-1.88-.043.025a1.45,1.45,0,0,1-.332-.584l.032-.019Zm.182,5.085a1.73,1.73,0,0,1-.741-.863Zm1.472-1.171a1,1,0,0,1-.379-.52A.981.981,0,0,1,405.78,168.83Zm1.964-.523-.054.05-.346-.37A1.724,1.724,0,0,1,407.744,168.307Zm.182-2.647-.043.047a1.466,1.466,0,0,1-.259-.319Z" transform="translate(-391.684 -153.991)" fill="#00195a"/>
            <path id="Path_3912" d="M415.7,174.4a3.112,3.112,0,0,1-.558-.206,16,16,0,0,1-1.636-.857,8.3,8.3,0,0,1-1.344-.99c-.025-.026-.047-.054-.082-.1.408-.1.786-.217.957-.678.092.1.162.176.232.252s.114.145.181.206q1.186,1.076,2.374,2.149a.546.546,0,0,1,.087.165C415.841,174.365,415.762,174.416,415.7,174.4Z" transform="translate(-391.023 -153.399)" fill="#00195a"/>
            <path id="Path_3913" d="M412.587,171.97a.973.973,0,0,1-.557.025c-.228-.028-.417-.174-.667-.159a1.874,1.874,0,0,1-.984-.313.156.156,0,0,1-.073-.12,3.332,3.332,0,0,1,.08-.387c0-.008.045-.005.068-.009.219-.038.441-.065.656-.119a.476.476,0,0,0,.347-.541c.036-.069.056-.178.11-.2a.237.237,0,0,1,.326.093c.112.18.262.336.39.505.184.243.364.489.543.735a.242.242,0,0,1-.037.351A.8.8,0,0,1,412.587,171.97Z" transform="translate(-391.083 -153.448)" fill="#00195a"/>
            <path id="Path_3914" d="M400.307,175.99c.237.07.266.056.23.214-.049.217-.09.437-.148.652a.539.539,0,0,0,.182.576c.074.069.162.122.24.189a2.234,2.234,0,0,1,.158.173,1.669,1.669,0,0,1-.177.044c-.145.017-.288.034-.434.039a.49.49,0,0,1-.247-.036,1.646,1.646,0,0,0-1.211-.178,5.744,5.744,0,0,1-1.388.094,2.7,2.7,0,0,0-.62.036.683.683,0,0,1-.567-.144.823.823,0,0,1,.787-.454c.5.034,1.006.068,1.508.117a1.373,1.373,0,0,0,1.018-.263,1.224,1.224,0,0,0,.553-.928C400.191,176.057,400.189,175.955,400.307,175.99Z" transform="translate(-391.554 -153.25)" fill="#00195a"/>
            <path id="Path_3915" d="M396.03,157.04c.123-.251.109-.291-.174-.461a.194.194,0,0,1,.27-.04.29.29,0,0,1,.1.348C396.182,157.005,396.127,157.048,396.03,157.04Z" transform="translate(-391.569 -153.906)" fill="#00195a"/>
            <path id="Path_3916" d="M391.738,158.5l-.029-.057a1.121,1.121,0,0,1,.1-.121c.358-.326.715-.653,1.08-.972a.225.225,0,0,1,.2-.016c.211.1.412.217.66.351C393.026,157.895,392.428,158.312,391.738,158.5Z" transform="translate(-391.709 -153.879)" fill="#00195a"/>
            <path id="Path_3917" d="M418.309,176.71c-.107.053-.223.089-.324.127a5.123,5.123,0,0,1-1.111-.361c-.363-.184-.735-.351-1.106-.52-.654-.295-1.32-.567-1.964-.883a8.64,8.64,0,0,0-1.421-.594,3.536,3.536,0,0,1-.59-.245c-.395-.2-.78-.411-1.175-.611-.254-.128-.254-.122-.23-.4.008-.09.047-.116.129-.114a3.838,3.838,0,0,0,.45-.006.77.77,0,0,1,.51.136c.9.558,1.81,1.1,2.714,1.646a9.139,9.139,0,0,0,2.964,1.17.75.75,0,0,0,.61-.118.145.145,0,0,1,.134-.006,1.48,1.48,0,0,1,.472.564A.145.145,0,0,1,418.309,176.71Z" transform="translate(-391.081 -153.347)" fill="#00195a"/>
            <path id="Path_3918" d="M401.676,177.672a.933.933,0,0,0,.33-.592c.056-.294.132-.585.2-.877a.356.356,0,0,1,.267-.245,1.694,1.694,0,0,1,.317-.045.491.491,0,0,1-.016.081c-.167.407-.33.817-.506,1.22-.105.242-.125.311.141.553a2.313,2.313,0,0,0,.879.438,1.308,1.308,0,0,1,.708.553.98.98,0,0,1,.082.272,1.018,1.018,0,0,1-.264-.081,2.758,2.758,0,0,0-1.794-.473l-.838.085c-.155.014-.309.032-.464.039-.358.019-.716.03-1.075.045-.218.01-.436.031-.654.031-.061,0-.122-.059-.184-.09.032-.057.051-.141.1-.165a1.636,1.636,0,0,1,.473-.2c.417-.068.837-.112,1.257-.149A1.881,1.881,0,0,0,401.676,177.672Z" transform="translate(-391.47 -153.253)" fill="#00195a"/>
            <path id="Path_3919" d="M417.413,175.8a2.4,2.4,0,0,1-.77-.026,5.111,5.111,0,0,1-.85-.375c-.643-.308-1.3-.6-1.922-.937-.6-.327-1.168-.709-1.75-1.068-.188-.116-.373-.237-.552-.35l.541-.431c.388.229.825.463,1.235.736a13.294,13.294,0,0,0,2.167,1.125.871.871,0,0,0,.693.066.181.181,0,0,1,.145.035c.145.114.286.233.422.357.223.2.441.409.659.616C417.551,175.66,417.546,175.789,417.413,175.8Z" transform="translate(-391.04 -153.364)" fill="#00195a"/>
            <path id="Path_3920" d="M406.785,173.428a1.158,1.158,0,0,0,.594-.713c0-.021.069-.044.1-.04a.718.718,0,0,1,.149.059,1.153,1.153,0,0,0,1.3-.1c.277.137.542.276.813.4.136.062.287.091.426.15.046.02.112.1.1.129-.039.141-.044.307-.2.388a1.092,1.092,0,0,1-.24.1,3.436,3.436,0,0,1-1.186.034,9.64,9.64,0,0,1-1.018-.155C407.357,173.622,407.092,173.522,406.785,173.428Z" transform="translate(-391.202 -153.363)" fill="#00195a"/>
            <path id="Path_3921" d="M406.559,170.832a2.06,2.06,0,0,0,.184.14,2.829,2.829,0,0,0,.317.17,1.089,1.089,0,0,0,.672.009.243.243,0,0,1,.181.035c.178.149.351.3.515.47a3.17,3.17,0,0,1,.392.459.43.43,0,0,1-.33.635,1.445,1.445,0,0,1-.6-.032,2.842,2.842,0,0,1-1.462-1,.167.167,0,0,1-.029-.142A1.3,1.3,0,0,0,406.559,170.832Z" transform="translate(-391.215 -153.424)" fill="#00195a"/>
            <path id="Path_3922" d="M411.978,172.392a.481.481,0,0,1-.292.421,1.8,1.8,0,0,1-.872.191c-.058,0-.116,0-.175,0a3.626,3.626,0,0,1-1.412-.419c-.256-.117-.251-.12-.23-.4.008-.11.056-.137.151-.105a.865.865,0,0,0,1.009-.315.163.163,0,0,1,.147-.033,6.31,6.31,0,0,0,1.537.475C411.948,172.22,411.986,172.289,411.978,172.392Z" transform="translate(-391.127 -153.394)" fill="#00195a"/>
            <path id="Path_3923" d="M410.2,173.9a.587.587,0,0,1,.31.043c.387.153.768.32,1.151.482.687.29,1.378.575,2.063.871.365.157.717.342,1.082.5s.716.3,1.077.439c.479.186.957.372,1.44.546a2.046,2.046,0,0,1,.847.541c.314.343.666.65.99.984.249.257.483.53.719.8.031.035.066.118.052.134a.223.223,0,0,1-.151.063.748.748,0,0,1-.272-.034c-.364-.145-.726-.3-1.086-.454-.1-.043-.2-.1-.3-.147-.451-.188-.908-.366-1.355-.563-.332-.147-.65-.326-.98-.479-.489-.225-.988-.429-1.472-.664-.365-.178-.712-.393-1.07-.588-.558-.3-1.132-.582-1.671-.915a16.341,16.341,0,0,0-1.932-1.011c-.18-.08-.347-.186-.52-.28l.014-.041C409.488,174.05,409.84,173.964,410.2,173.9Z" transform="translate(-391.123 -153.321)" fill="#00195a"/>
            <path id="Path_3924" d="M408.248,170.088a.131.131,0,0,1,.1-.081c.232-.008.463,0,.694-.01a.317.317,0,0,1,.26.091c.184.171.369.344.567.5a.768.768,0,0,1,.115,1.189.568.568,0,0,1-.409.249,1.252,1.252,0,0,1-.777-.189,2.247,2.247,0,0,1-.731-.738.138.138,0,0,1-.005-.125.79.79,0,0,0,.176-.638A1.384,1.384,0,0,1,408.248,170.088Z" transform="translate(-391.159 -153.452)" fill="#00195a"/>
            <path id="Path_3925" d="M409.774,168.933a2.041,2.041,0,0,1,.429-.119c.011,0,.03.022.042.036.2.215.391.429.585.645a1.761,1.761,0,0,1,.5.721.327.327,0,0,1-.01.218.767.767,0,0,1-1.137.293,3.84,3.84,0,0,1-.358-.273c-.134-.118-.259-.246-.387-.373-.079-.08-.082-.148.018-.226a.769.769,0,0,0,.276-.67.036.036,0,0,1,0-.014C409.741,169.088,409.73,168.954,409.774,168.933Z" transform="translate(-391.114 -153.492)" fill="#00195a"/>
            <path id="Path_3926" d="M407.232,172.787a.965.965,0,0,1-.442.444,1.925,1.925,0,0,1-1.633-.028,10.335,10.335,0,0,1-.965-.436.505.505,0,0,1-.073-.054,1.293,1.293,0,0,0,.47-1.108c.182.091.327.168.475.237a1.149,1.149,0,0,0,1.142-.034c.116-.071.162-.034.241.04q.341.324.7.635A.238.238,0,0,1,407.232,172.787Z" transform="translate(-391.291 -153.398)" fill="#00195a"/>
        </g>
        <g id="Group_12103" transform="translate(248.948 83.816)">
            <path id="Path_3927" d="M247,95.547c.233.4.538.754.807,1.131a17.039,17.039,0,0,0,1.986,2.7c.047.044.024.162.033.246-.068-.013-.159,0-.2-.043-.307-.3-.623-.6-.9-.931-.409-.493-.8-1-1.172-1.524a19.785,19.785,0,0,1-1.174-1.807,2.1,2.1,0,0,0-.648-.786c-.28-.19-.458-.13-.538.2a3.048,3.048,0,0,0,.036,1.492c.145.553.321,1.1.483,1.646a12.013,12.013,0,0,0,2.092,4.207c.687.855,1.4,1.69,2.1,2.536.054.065.1.139.147.208l-.053.055a1.09,1.09,0,0,1-.177-.134c-.27-.308-.532-.622-.8-.931-.462-.53-.951-1.04-1.388-1.59a13.412,13.412,0,0,1-1.75-3.073,1.019,1.019,0,0,0-.455-.6c-.115-.058-.176-.063-.258.018a1,1,0,0,0-.277.784,6.964,6.964,0,0,0,.972,3.184,14.018,14.018,0,0,0,2.073,2.894A10.412,10.412,0,0,0,250.3,107.4a.715.715,0,0,1,.115.1l-.057.069a8.782,8.782,0,0,1-2.712-2.129,17.222,17.222,0,0,1-2.072-2.863,2.512,2.512,0,0,0,0,1.393,7.168,7.168,0,0,0,2.283,3.423c.6.546,1.258,1.023,1.876,1.548a7.4,7.4,0,0,0,1.523,1.05,1.083,1.083,0,0,1,.177.142l-.04.088a1.778,1.778,0,0,1-.324-.1c-.313-.166-.622-.343-.93-.521-.525-.3-1.071-.579-1.568-.924a12.166,12.166,0,0,1-2.275-2.194c-.062-.073-.118-.15-.177-.225l-.062.017a1.071,1.071,0,0,0,0,.3,5.522,5.522,0,0,0,.3.944,11.261,11.261,0,0,0,3.081,3.808,4.269,4.269,0,0,0,.72.408c.318.17.639.334.958.5.007,0,0,.028.005.078a.679.679,0,0,1-.21,0,6.3,6.3,0,0,1-.937-.331,6.909,6.909,0,0,1-2.064-1.663c-.121-.14-.256-.267-.426-.441a1.159,1.159,0,0,0-.007.274,3.223,3.223,0,0,0,.6,1.266,15.968,15.968,0,0,0,2.75,2.578,2.549,2.549,0,0,0,1.927.6.77.77,0,0,1,.223.031l0,.061a.985.985,0,0,1-.2.088,2.078,2.078,0,0,1-1.363-.094,6.153,6.153,0,0,1-1.848-1.259c-.124-.133-.209-.094-.286.042a.687.687,0,0,0,.034.707,2.493,2.493,0,0,0,1.1,1,15.549,15.549,0,0,0,1.674.738,5.814,5.814,0,0,0,1.128.245c.832.126,1.667.232,2.5.347a1.4,1.4,0,0,1,.2.058.154.154,0,0,1-.14.063c-.323-.036-.643-.1-.966-.11s-.631.045-.943.024a8.214,8.214,0,0,1-2.853-.758.908.908,0,0,0-.215-.037.856.856,0,0,0-.016.239,1.061,1.061,0,0,0,.532.7c.106.063.207.137.315.194a4.019,4.019,0,0,0,.871.426,14.487,14.487,0,0,0,1.823.3,6.962,6.962,0,0,0,1.895.017,11.21,11.21,0,0,1,1.294-.076.854.854,0,0,1,.191.036.766.766,0,0,1-.683.33,11.521,11.521,0,0,1-3.69-.172c-.269-.059-.531-.136-.656.22,0,0-.012.006-.024.01l-.2-.118a.833.833,0,0,0,.058.245,2.451,2.451,0,0,0,.524.662,3.584,3.584,0,0,0,1.741.646c.578.032,1.16.044,1.738.022a9.165,9.165,0,0,0,2.889-.62,1.052,1.052,0,0,1,.222-.038.2.2,0,0,1-.112.134c-.429.175-.858.351-1.29.52a3.1,3.1,0,0,1-.892.308c-.63.031-1.263-.034-1.9-.047-.439-.008-.881-.012-1.318.018-.267.019-.33.212-.2.454a.972.972,0,0,0,.73.438,5.62,5.62,0,0,0,4.1-.444,1.31,1.31,0,0,1,.182-.066l.036.071c-.067.047-.131.1-.2.139a4.836,4.836,0,0,1-2.868.746c-.45-.021-.713.282-.993.555a.3.3,0,0,0-.051.174.649.649,0,0,0,.543.685c.575.143,1.163.229,1.748.326a.358.358,0,0,0,.241-.107c.224-.2.428-.423.656-.617,1.032-.876,2.045-1.775,3.112-2.6a12.2,12.2,0,0,1,2.148-1.36,12.912,12.912,0,0,1,4.252-1.155c.284-.03.572-.035.857-.037.2,0,.207.18.239.314a.433.433,0,0,1-.229.1c-.393.008-.787,0-1.179,0a7.871,7.871,0,0,0-1.983.337,8.912,8.912,0,0,0-2.463.987,15.517,15.517,0,0,0-3.423,2.788c-.656.709-1.338,1.4-1.962,2.132a34.471,34.471,0,0,1-3.628,3,7.229,7.229,0,0,1-2.311.713,13.552,13.552,0,0,0-3.071.813,24.527,24.527,0,0,1-2.661.952,14.914,14.914,0,0,0-3.886,1.882.446.446,0,0,0-.17.153.777.777,0,0,0-.018.252c.074,0,.166.033.221,0a14.984,14.984,0,0,1,3.141-1.3,14.424,14.424,0,0,0,3.907-1.79,1.653,1.653,0,0,1,.275-.124l.06.076a1.75,1.75,0,0,1-.246.255,14.3,14.3,0,0,1-3.16,1.589A21.682,21.682,0,0,0,242,131.656a2.581,2.581,0,0,0-1.071,1.08,2.407,2.407,0,0,0-.344,1.188c.013.251.1.291.3.147.315-.224.6-.492.929-.693.989-.6,1.971-1.224,3-1.759a25.737,25.737,0,0,0,3.128-1.879,8.641,8.641,0,0,1,1.167-.755,11.279,11.279,0,0,1,3.171-.921.847.847,0,0,1,.183.012l.008.068c-.068.023-.134.048-.2.067-.61.171-1.222.335-1.831.511a6.626,6.626,0,0,0-2.606,1.419,5.471,5.471,0,0,1-.768.6c-.533.327-1.09.616-1.631.929-.99.572-1.971,1.161-2.968,1.721a5.769,5.769,0,0,0-1.291.851,1.374,1.374,0,0,0-.516.95,5.481,5.481,0,0,0,0,.625.847.847,0,0,0,.566.73c.277.116.373-.154.526-.282a19.631,19.631,0,0,1,1.7-1.425c.994-.652,2.06-1.193,3.074-1.815.908-.557,1.819-1.117,2.667-1.758a9.164,9.164,0,0,1,2.969-1.642c.891-.249,1.806-.413,2.711-.612.033-.007.074.02.113.031a.635.635,0,0,1-.3.17c-.688.179-1.384.331-2.065.533a5.984,5.984,0,0,0-1.419.551c-.966.6-1.874,1.285-2.83,1.9-1.218.778-2.448,1.539-3.7,2.267a13.072,13.072,0,0,0-2.844,2.1,1.6,1.6,0,0,0-.563,1.662,7.847,7.847,0,0,0,.27.9c.151.35.314.38.636.176a2.215,2.215,0,0,0,.315-.236c.327-.306.646-.62.971-.93a16.131,16.131,0,0,1,2.629-2.124,19.942,19.942,0,0,0,3.381-2.771,9.731,9.731,0,0,1,3.131-1.995,2.186,2.186,0,0,1,.285-.077l.026.067c-.065.044-.129.094-.2.132-.485.27-.991.508-1.452.815a15.183,15.183,0,0,0-1.507,1.149c-.6.515-1.126,1.107-1.734,1.605-1.071.874-2.187,1.694-3.271,2.552a14.274,14.274,0,0,0-2.124,1.857.869.869,0,0,0-.26.963.782.782,0,0,0,.469.53c.153.055.308.1.462.153a.555.555,0,0,0,.552-.071,5.762,5.762,0,0,0,.848-.74c.846-1.015,1.648-2.065,2.493-3.079a19.491,19.491,0,0,1,1.77-2.02,31.641,31.641,0,0,1,3.059-2.173c.4-.285.847-.508,1.258-.78.475-.315.924-.675,1.409-.976a5.534,5.534,0,0,1,.912-.389c.052-.02.125.02.189.031a.752.752,0,0,1-.113.176c-.075.065-.175.1-.252.163a10.92,10.92,0,0,1-2.108,1.343,21.008,21.008,0,0,0-4.146,2.948,21.53,21.53,0,0,0-3.127,3.6c-.48.622-.888,1.3-1.335,1.948a.5.5,0,0,0,.014.674.426.426,0,0,0,.567-.076,12.449,12.449,0,0,0,.872-.951c.172-.207.287-.46.452-.673.374-.483.755-.96,1.147-1.427.695-.828,1.373-1.674,2.11-2.463a16.411,16.411,0,0,1,2.929-2.339,9.458,9.458,0,0,1,2-1.223c.492-.179.946-.459,1.431-.658,1.019-.419,2.047-.816,3.074-1.215.063-.025.151.012.227.021-.049.065-.083.161-.148.191-.6.276-1.215.54-1.822.808-.34.151-.679.3-1.018.456a8.573,8.573,0,0,1,2.146-.05c.726.105,1.461.15,2.192.2.824.059,1.649.1,2.475.138a.369.369,0,0,0,.256-.066c.165-.173.29-.108.435.023a1.6,1.6,0,0,0,.832.429.662.662,0,0,0,.186-.029c-.042-.054-.084-.11-.127-.162-.009-.01-.035-.007-.041-.019-.044-.068-.085-.138-.127-.209a.668.668,0,0,1,.232-.086,2.694,2.694,0,0,1,.336.083c.219.038.439.067.658.1l.017-.073a.416.416,0,0,1-.071-.084c-.035-.073-.063-.15-.094-.225.107,0,.239-.05.319,0,.211.12.393.291.6.418.186.114.284.21.116.425a.425.425,0,0,0-.037.327c.009.037.175.042.27.051.268.024.538.032.8.067.208.027.268.18.256.374a.983.983,0,0,1-.67.88.764.764,0,0,0-.505.521,7.478,7.478,0,0,0,.983.048,1.142,1.142,0,0,0,.635-.222,6.471,6.471,0,0,0,.721-.838.663.663,0,0,0-.375-1.14c-.4-.086-.824-.091-1.235-.148a1.579,1.579,0,0,1-.508-.142.4.4,0,0,1-.2-.6.506.506,0,0,1,.106-.11c.034.043.093.082.1.129a.268.268,0,0,0,.271.237,3.987,3.987,0,0,0,2.382-.423c.322-.164.638-.343.959-.51.584-.3,1.178-.579,1.753-.9s1.159-.654,1.71-1.023a12.181,12.181,0,0,0,1.626-1.221,18.563,18.563,0,0,0,2.06-2.255,16.346,16.346,0,0,0,2.484-4.43c.253-.712.564-1.406.877-2.1.257-.569.551-1.12.835-1.676.333-.653.633-1.328,1.021-1.946a8.975,8.975,0,0,1,2.856-2.9,4.561,4.561,0,0,1,3.656-.524c.919.228,1.811.57,2.715.859.073.023.15.035.284.066a4.846,4.846,0,0,0-1.112-1.349,15.9,15.9,0,0,0-1.392-.905l-.005-.043.617.027.033-.06a1.787,1.787,0,0,1-.608-1.044,3.765,3.765,0,0,0-2.98-2.518,7.35,7.35,0,0,0-3.974.332,16.447,16.447,0,0,0-3.655,1.895c-.359.239-.714.487-1.05.758-.481.388-.935.807-1.414,1.2a9.607,9.607,0,0,1-2.273,1.419c-.773.333-1.547.666-2.331.974a12,12,0,0,1-1.173.357c-.108.031-.23.031-.239-.13a.208.208,0,0,1,.21-.25,1.191,1.191,0,0,0,.251-.029c.547-.161,1.1-.295,1.634-.5a9.658,9.658,0,0,0,1.515-.742,10.409,10.409,0,0,0,1.935-1.386.447.447,0,0,0,.146-.338,21.261,21.261,0,0,1,.175-2.61,58.881,58.881,0,0,1,2.008-7.474c.624-1.975,1.28-3.941,1.868-5.928.381-1.289.661-2.608,1-3.91.423-1.64.864-3.275,1.281-4.916a4.066,4.066,0,0,0,.117-1.633c-.027-.166-.1-.311-.279-.321a1.312,1.312,0,0,0-1.175.418c-.243.289-.492.578-.761.843a7.273,7.273,0,0,0-1.616,2.6,25.583,25.583,0,0,0-1.012,3.276,27.784,27.784,0,0,0-.5,2.969,16.553,16.553,0,0,0-.21,4.364c.01.073-.055.156-.086.235a.8.8,0,0,1-.122-.213,14.544,14.544,0,0,1-.024-3.861,29.752,29.752,0,0,1,.52-3.435,15.148,15.148,0,0,1,1.24-3.829,2.356,2.356,0,0,0,.38-.933c.04-.819.125-1.634.182-2.452a7.837,7.837,0,0,0,.018-.948.36.36,0,0,0-.418-.337,1.23,1.23,0,0,0-.56.242,4.982,4.982,0,0,0-.708.795,15.076,15.076,0,0,0-2.213,4.975,26.991,26.991,0,0,0-.517,2.918,15.42,15.42,0,0,0-.05,3.493,20.864,20.864,0,0,0,.991,4.52c.094.31.229.608.334.915.02.058-.014.135-.025.2-.058-.027-.132-.039-.17-.084a1.061,1.061,0,0,1-.23-.336c-.268-.862-.564-1.719-.768-2.6a18.067,18.067,0,0,1-.369-3.755,17.012,17.012,0,0,1,.192-3.283c.139-.789.3-1.576.391-2.372a13.746,13.746,0,0,0-.113-3.028c-.043-.413-.385-.533-.676-.236a3.04,3.04,0,0,0-.573.805,15.085,15.085,0,0,0-1.331,5.112,17.256,17.256,0,0,0,.188,4.115c.139.909.32,1.811.514,2.709.151.7.324,1.4.537,2.084.157.5.4.979.6,1.468.006.014-.016.039-.04.1a1.035,1.035,0,0,1-.178-.18,3.434,3.434,0,0,1-.277-.533,22.8,22.8,0,0,1-1.309-4.918A22.1,22.1,0,0,1,273,89.929a2.478,2.478,0,0,0,.026-1.025,6.017,6.017,0,0,0-.534-1.619c-.246-.412-.46-.409-.748-.027a7.253,7.253,0,0,0-.8,1.739,7.714,7.714,0,0,0-.491,3.532,21.288,21.288,0,0,0,.9,5.125,17.976,17.976,0,0,0,1.3,3.119c.054.1.1.2.144.3-.066.013-.1,0-.111-.017-.359-.631-.767-1.239-1.063-1.9a15.373,15.373,0,0,1-1.007-3.561,22.613,22.613,0,0,1-.365-3.385c-.016-.521,0-1.043-.035-1.563a2.319,2.319,0,0,0-.16-.651c-.092-.249-.235-.259-.4-.058a3.106,3.106,0,0,0-.58,1.228,9.617,9.617,0,0,0-.221,2.943,14.877,14.877,0,0,0,.494,3.411,14.429,14.429,0,0,0,1.973,4.273.5.5,0,0,1,.04.1l-.053.045a4.876,4.876,0,0,1-.6-.6,10.258,10.258,0,0,1-1.114-2.235,16.108,16.108,0,0,1-.921-4.577,8.005,8.005,0,0,0-.078-.8,4.576,4.576,0,0,0-.2-.57c-.063-.19-.1-.389-.173-.576-.115-.3-.333-.354-.6-.16a1.266,1.266,0,0,0-.469.726,7.032,7.032,0,0,0-.2,2.323,20.542,20.542,0,0,0,.707,4.48,14.222,14.222,0,0,0,1.286,3.247c.32.551.708,1.062,1.069,1.6-.144.224-.21.226-.361,0-.034-.052-.068-.1-.1-.154a13.847,13.847,0,0,1-1.513-2.86c-.19-.464-.313-.955-.5-1.423a18.719,18.719,0,0,1-.973-3.789.544.544,0,0,0-.069-.214c-.114-.175-.238-.342-.362-.51a1.77,1.77,0,0,0-.738-.65.294.294,0,0,0-.4.113,1.019,1.019,0,0,0-.131.76,16.436,16.436,0,0,0,1.1,4.372,14.243,14.243,0,0,0,1.569,2.852c.382.532.748,1.077,1.125,1.614.071.1.163.186.233.288.022.032,0,.1-.008.143a.133.133,0,0,1-.1,0,2.815,2.815,0,0,1-.612-.462,14.377,14.377,0,0,1-1.048-1.5c-.3-.5-.528-1.048-.791-1.572a16.294,16.294,0,0,1-.944-2.363,6.025,6.025,0,0,0-.789-1.939c-.184-.242-.336-.316-.6-.172a.6.6,0,0,0-.094.067,1.876,1.876,0,0,0-.457,1.726,12.607,12.607,0,0,0,.589,1.329c.64,1.209,1.3,2.405,1.955,3.609.129.239.247.483.37.725l-.065.044a2.1,2.1,0,0,1-.154-.207q-1.422-2.444-2.838-4.889c-.105-.181-.224-.208-.356-.038a1.815,1.815,0,0,0-.236.448,3.755,3.755,0,0,0-.116,1.762,4.779,4.779,0,0,0,1.453,3.049,9.589,9.589,0,0,1,1.588,1.712c.076.125.145.254.216.381-.072.018-.1.007-.117-.014a7.752,7.752,0,0,0-1.465-1.6,4.894,4.894,0,0,1-1.072-1,6.222,6.222,0,0,0-.54-.723c-.343-.4-.655-.374-.912-.017a2.855,2.855,0,0,0-.647,2,3.126,3.126,0,0,0,.739,1.732c.285.332.643.6.948.918a22.472,22.472,0,0,0,3.125,2.578c.9.647,1.816,1.258,2.721,1.893.645.452,1.278.922,1.926,1.37.181.124.4.191.6.3.447.243.885.5,1.334.738.427.225.864.431,1.3.645l-.014.065a2,2,0,0,1-.471,0,4.77,4.77,0,0,1-1.626-.652q-.828-.554-1.662-1.1c-.827-.542-1.677-1.051-2.48-1.626-.98-.7-1.91-1.472-2.884-2.182a25,25,0,0,1-3.791-3.433c-.622-.687-1.233-1.385-1.844-2.083a15.6,15.6,0,0,1-1.772-2.6c-.4-.7-.733-1.43-1.119-2.133-.312-.567-.679-1.1-.986-1.673a17.128,17.128,0,0,1-1.442-3.284c-.425-1.461-.917-2.9-1.361-4.359-.336-1.1-.634-2.214-.965-3.317a2.167,2.167,0,0,0-.646-1.081c-.247-.209-.419-.179-.567.111a.879.879,0,0,0-.091.307c-.047.4-.091.8-.119,1.2a9.954,9.954,0,0,0,.166,3,22.3,22.3,0,0,0,.716,2.2,13.557,13.557,0,0,0,1.241,2.612c.641,1.047,1.267,2.1,1.9,3.156a.612.612,0,0,1,.041.167l-.058.023c-.064-.083-.13-.165-.191-.25-.516-.712-1.091-1.39-1.533-2.146a23.4,23.4,0,0,1-2.07-4.628,24.969,24.969,0,0,0-1.744-4.6c-.044-.079-.129-.192-.188-.187-.074.005-.162.1-.207.181a4.043,4.043,0,0,0-.444,1.76,14.234,14.234,0,0,0,.9,5.271,9.844,9.844,0,0,0,1.13,2.4c.581.894,1.132,1.808,1.73,2.689.381.561.826,1.079,1.238,1.619a.414.414,0,0,1,.042.132.362.362,0,0,1-.221-.125c-.189-.214-.379-.429-.56-.649a25.741,25.741,0,0,1-1.71-2.13,19.492,19.492,0,0,1-2.059-4.477,7.4,7.4,0,0,0-.63-1.7c-.3-.475-.538-.991-.816-1.482a2.351,2.351,0,0,0-.329-.417c-.131-.141-.273-.122-.351.049a2.01,2.01,0,0,0-.143.464,5.632,5.632,0,0,0,.275,2.764A9.421,9.421,0,0,0,247,95.547Zm40.491,13.571a.879.879,0,0,1,.512.891,1.015,1.015,0,0,1-1.08.529.662.662,0,0,1-.519-.849A.965.965,0,0,1,287.492,109.118Z" transform="translate(-240.579 -82.917)" fill="#00195a"/>
            <path id="Path_3928" d="M265.787,132.966a2.074,2.074,0,0,1,.172-.524.461.461,0,0,0-.252-.646,1.314,1.314,0,0,0-.266-.081c-.455-.089-.91-.177-1.365-.257a2.591,2.591,0,0,1-1.078-.45.787.787,0,0,0-.79.052,1.533,1.533,0,0,0,.157.091c.528.232,1.06.457,1.584.7a.212.212,0,0,1,.068.194c-.019.062-.1.109-.161.153a1.962,1.962,0,0,1-.981.2,1.308,1.308,0,0,0-1.055.651,2.2,2.2,0,0,0,.494-.038,9.95,9.95,0,0,0,1.226-.467c.6-.3,1.018.052,1.341.438a.489.489,0,0,1,.018.426,1.052,1.052,0,0,1-.85.658,1.693,1.693,0,0,0-.963.564c-.036.037-.041.1-.062.157.063.013.132.051.188.035.118-.032.225-.1.343-.136.324-.092.649-.174.976-.255.365-.092.737-.16,1.1-.274a.514.514,0,0,0,.234-.756A.662.662,0,0,1,265.787,132.966Z" transform="translate(-239.864 -81.301)" fill="#00195a"/>
            <path id="Path_3929" d="M263.472,133.888c.343-.175.68-.362,1.017-.549.038-.021.063-.065.117-.121-.042-.052-.073-.119-.125-.145s-.169-.067-.219-.038c-.28.162-.555.335-.819.524a.465.465,0,0,0-.114.25C263.326,133.824,263.444,133.9,263.472,133.888Z" transform="translate(-239.813 -81.23)" fill="#00195a"/>
            <path id="Path_3930" d="M285.969,108.645c-.226-.189-.4-.208-.561-.084s-.183.358-.042.648A.691.691,0,0,1,285.969,108.645Z" transform="translate(-239.075 -82.056)" fill="#00195a"/>
        </g>
        <g id="Group_12104" transform="translate(117.036 171.641)">
            <path id="Path_3931" d="M124.608,183.1c.184.035.29-.076.42-.166a6.008,6.008,0,0,0,1.159-.981.253.253,0,0,0,.051-.326,1.335,1.335,0,0,1-.2-.836.429.429,0,0,0-.023-.121.954.954,0,0,0-.115.055,4.6,4.6,0,0,0-1.232,1.252,5.417,5.417,0,0,0-.363.6A.359.359,0,0,0,124.608,183.1Z" transform="translate(-112.583 -167.452)" fill="#00195a"/>
            <path id="Path_3932" d="M126.439,181.82a.751.751,0,0,0,.947.549c.388-.16.78-.315,1.155-.5a3.029,3.029,0,0,0,1.138-.905,4.946,4.946,0,0,1,.506-.556c.034-.035.108-.031.162-.044.007.064.042.141.019.189a1.186,1.186,0,0,1-.219.336c-.3.3-.608.6-.933.866a3.647,3.647,0,0,1-.664.419,4.409,4.409,0,0,0-1.051.619.679.679,0,0,0,.163,1.117,1.4,1.4,0,0,0,1.337-.04,6.865,6.865,0,0,0,2.723-2.14c.04-.062.147-.08.259-.136a1.125,1.125,0,0,1-.059.275,4.129,4.129,0,0,1-1.665,1.557,5.851,5.851,0,0,0-1.3.847.847.847,0,0,0-.216,1.007.609.609,0,0,0,.608.449,2.25,2.25,0,0,0,1.207-.3c.445-.276.893-.551,1.326-.847a4.1,4.1,0,0,0,1.342-1.209c.026-.044.11-.054.167-.079,0,.064.034.147.006.188a2.139,2.139,0,0,1-.4.507c-.6.47-1.219.922-1.839,1.366a2.01,2.01,0,0,0-.518.511.667.667,0,0,0,.3,1.018,1.92,1.92,0,0,0,1.447.126,3.694,3.694,0,0,0,1.439-.876c.526-.487,1.028-1,1.544-1.5a1.066,1.066,0,0,1,.184-.121c.025.063.028.1.012.116a4.182,4.182,0,0,1-.47.6c-.649.6-1.317,1.17-1.976,1.754a.457.457,0,0,0-.149.168,1.809,1.809,0,0,0-.084,1.081.345.345,0,0,0,.512.253,7.066,7.066,0,0,0,1.124-.569c.579-.4,1.126-.851,1.672-1.3a7.046,7.046,0,0,0,1.969-2.579c.4-.87.772-1.751,1.178-2.617a4.776,4.776,0,0,1,.482-.723c.025-.034.1-.035.149-.052a1.19,1.19,0,0,1,.009.148.256.256,0,0,1-.036.079q-.4.864-.8,1.727c-.284.614-.55,1.237-.852,1.842a8.487,8.487,0,0,1-2.649,3.048c-.343.252-.692.5-1.052.726a3.084,3.084,0,0,1-1.391.618.564.564,0,0,0-.084.027c-.36.094-.719.193-1.082.281a5.079,5.079,0,0,1-1.334.134c-.694-.017-1.387-.032-2.081-.025a1.923,1.923,0,0,0-.827.176c.007.033.006.055.017.065.332.335.643.7,1,.994a12.087,12.087,0,0,0,1.127.762c.082.053.187.071.268.126a3.5,3.5,0,0,0,1.614.581,1.25,1.25,0,0,1,.27.07c.375.128.748.262,1.124.388.1.035.734.15.891.185.221.05.448.085.663.154.41.131.808.3,1.221.421a2.156,2.156,0,0,0,1.1.088c.432-.1.87-.181,1.293-.311a12.082,12.082,0,0,0,1.5-.541,10.012,10.012,0,0,0,2.7-1.9c.687-.655,1.327-1.362,1.967-2.065a6.027,6.027,0,0,0,.764-1.022,11.688,11.688,0,0,0,.953-2.081,24.914,24.914,0,0,0,1.117-3.421c.144-.774.358-1.535.5-2.31.174-.963.3-1.936.451-2.9.025-.155.048-.311.079-.465.105-.525.178-1.061.334-1.57a8.071,8.071,0,0,1,.527-1.109.4.4,0,0,0-.395-.133.393.393,0,0,1-.458-.284c-.066-.211-.134-.421-.2-.632a.418.418,0,0,1,.2-.5c.007.008.019.016.022.026a.1.1,0,0,1,.006.051.733.733,0,0,0,.1.678.238.238,0,0,1,.044.13.389.389,0,0,0,.284.36c.383.169.765.341,1.151.5.2.082.41.136.615.2a2.229,2.229,0,0,0-.406-.333c-.459-.31-.922-.615-1.377-.93-.048-.033-.06-.117-.089-.178.074.013.15.022.222.041.025.006.041.04.065.057a.455.455,0,0,0,.493.079,1.539,1.539,0,0,1,.558-.215c.02,0,.036-.026.069-.051a1.648,1.648,0,0,1-.256-.371.266.266,0,0,0-.356-.186c-.136.027-.267.086-.4.1-.067.009-.142-.04-.213-.063.043-.055.076-.131.133-.16a.846.846,0,0,1,.7-.062c.177.068.25.042.375-.114a1.451,1.451,0,0,0,.264-1.236,2.827,2.827,0,0,0-.614-1.186,2.392,2.392,0,0,0-.569-.632,5.865,5.865,0,0,0-1.188-.547,2.551,2.551,0,0,0-1.642.087,9.4,9.4,0,0,0-2.33,1.149,5.266,5.266,0,0,0-1.772,2.035,15.026,15.026,0,0,1-1.488,2.223.273.273,0,0,1-.118.1,6.441,6.441,0,0,1-1.217.313,17.394,17.394,0,0,0-2.4.357,19.211,19.211,0,0,0-3.379,1.032,18,18,0,0,0-3.748,2.1c-.54.4-1.08.8-1.579,1.245-.553.492-1.065,1.032-1.585,1.56-.144.146-.347.272-.357.5A6.152,6.152,0,0,0,126.439,181.82Zm9.659,6.216c-.014.008-.068-.021-.068-.031a.115.115,0,0,1,.035-.086c.109-.059.221-.11.333-.162C136.414,187.784,136.216,187.974,136.1,188.036Zm.044.857c.081-.182.239-.216.417-.3A.412.412,0,0,1,136.142,188.893Zm10.662-8.054a.166.166,0,0,1-.06.063c-.011.008-.031.005-.076.012a1.592,1.592,0,0,1,.039-.183c.107-.319.215-.638.329-.955.016-.045.065-.079.1-.118.016.044.055.1.043.13C147.058,180.141,146.931,180.491,146.8,180.839Zm1.5-6.569-.241.844-.055-.013A.968.968,0,0,1,148.306,174.27Zm-.587,2.333a1.163,1.163,0,0,1-.381.975Zm-3.625,5.526a.8.8,0,0,1,.326-.695l.054.033Zm1.081.911.41-.975A1.147,1.147,0,0,1,145.175,183.04Zm2.44-7.641-.308,1.041-.086-.028a5.906,5.906,0,0,1,.3-1.04Zm.061-.846-.42.982A1.2,1.2,0,0,1,147.677,174.553Zm-1.96,6.417a1.565,1.565,0,0,1,.412-1.127Zm.76-3.8a2.177,2.177,0,0,1-.776,1.2Zm-.019-1.524a3.685,3.685,0,0,1-.514.971A1.855,1.855,0,0,1,146.458,175.646Zm.374-4.979a.6.6,0,0,1,.406.716c-.041.307-.44.441-.683.4a.612.612,0,0,1-.405-.571A.728.728,0,0,1,146.832,170.667Zm-.846,3.8.052.059a3.066,3.066,0,0,1-.861.753l-.042-.045ZM142.7,188.921c.03.206-.429.729-.646.736Zm.644-11.207a.787.787,0,0,1-.544.681Zm-2.913,13.147-.562.472C139.883,191.129,140.234,190.82,140.429,190.861Zm-1.1-6.439a1.262,1.262,0,0,1-.587.992Zm-1,1.952.812-.77A1.22,1.22,0,0,1,138.326,186.374Zm2.918-11.27.749-.369C141.936,174.967,141.407,175.212,141.244,175.1Zm.224,1.912,1.206-1.057C142.679,176.209,141.81,176.972,141.468,177.016Zm1.482-3.537.053.033a.506.506,0,0,1-.377.473Zm-.564.079c-.088.3-.806.832-1.027.784Zm-2.234.932a1.328,1.328,0,0,0,.688-.389c.031-.034.1-.037.147-.055-.005.041,0,.1-.019.12a1.641,1.641,0,0,1-.877.436.125.125,0,0,1-.051-.007c-.009,0-.017-.014-.049-.042A1.329,1.329,0,0,1,140.153,174.49Zm-2.349,8.637.042.029-.681.971-.05-.034A3.425,3.425,0,0,1,137.8,183.127Zm-2.191-1.895-.356.316-.065-.072.359-.314Zm.281-3.016.034.03a1.742,1.742,0,0,1-.53.61l-.044-.039Zm-.881,5.71a2.09,2.09,0,0,1-1.079.841Zm-1.967-1.411a1.205,1.205,0,0,1-.57.523A1.188,1.188,0,0,1,133.045,182.516Zm-2.213-.841-.5.354-.052-.07A2.059,2.059,0,0,1,130.832,181.674Zm.286-3.131a1.73,1.73,0,0,1-.382.315l-.039-.065Z" transform="translate(-112.51 -167.882)" fill="#00195a"/>
            <path id="Path_3933" d="M118.808,187.235a3.7,3.7,0,0,0,.707-.111,19.083,19.083,0,0,0,2.131-.622,9.928,9.928,0,0,0,1.817-.85c.036-.024.068-.053.12-.093-.458-.215-.874-.44-.967-1.024-.133.1-.234.167-.333.241a3.044,3.044,0,0,1-.263.2q-1.653.986-3.308,1.971c-.06.036-.1.115-.142.174C118.65,187.162,118.732,187.24,118.808,187.235Z" transform="translate(-112.774 -167.322)" fill="#00195a"/>
            <path id="Path_3934" d="M123,185.113a1.187,1.187,0,0,0,.651.16c.275.022.532-.106.823-.03a2.263,2.263,0,0,0,1.234-.135.192.192,0,0,0,.116-.125,4.021,4.021,0,0,0,0-.473c0-.01-.053-.018-.08-.028-.249-.1-.5-.181-.745-.3a.572.572,0,0,1-.281-.718c-.026-.09-.024-.223-.083-.262a.283.283,0,0,0-.4.032c-.175.185-.388.334-.58.5q-.411.366-.815.739a.292.292,0,0,0-.039.423A.985.985,0,0,0,123,185.113Z" transform="translate(-112.635 -167.369)" fill="#00195a"/>
            <path id="Path_3935" d="M136.6,192.778c-.3.027-.327,0-.322.2.006.268,0,.536.02.8a.65.65,0,0,1-.35.637c-.1.063-.221.1-.328.165a2.712,2.712,0,0,0-.226.165,1.914,1.914,0,0,0,.2.1c.165.054.332.109.5.148a.589.589,0,0,0,.3.018,1.984,1.984,0,0,1,1.47.075,6.879,6.879,0,0,0,1.614.441,3.174,3.174,0,0,1,.724.189.823.823,0,0,0,.7-.035.992.992,0,0,0-.82-.721c-.6-.079-1.2-.158-1.806-.219a1.648,1.648,0,0,1-1.138-.551,1.472,1.472,0,0,1-.433-1.225C136.722,192.886,136.748,192.765,136.6,192.778Z" transform="translate(-112.208 -167.044)" fill="#00195a"/>
            <path id="Path_3936" d="M145.954,171.423c-.086-.325-.059-.369.314-.5a.232.232,0,0,0-.308-.111.349.349,0,0,0-.2.388C145.784,171.347,145.838,171.409,145.954,171.423Z" transform="translate(-111.859 -167.785)" fill="#00195a"/>
            <path id="Path_3937" d="M150.732,174.167l.048-.06a1.2,1.2,0,0,0-.088-.165c-.344-.469-.688-.941-1.043-1.4a.267.267,0,0,0-.228-.065c-.272.068-.538.158-.861.257C149.357,173.151,149.963,173.785,150.732,174.167Z" transform="translate(-111.765 -167.728)" fill="#00195a"/>
            <path id="Path_3938" d="M115.351,189.341c.114.087.242.157.351.226a6.177,6.177,0,0,0,1.4-.162c.471-.131.95-.241,1.427-.35.841-.193,1.69-.357,2.524-.577a10.249,10.249,0,0,1,1.815-.364,4.193,4.193,0,0,0,.754-.15c.513-.139,1.018-.3,1.53-.441.332-.091.329-.083.366-.414.012-.109-.027-.147-.124-.165a4.336,4.336,0,0,1-.529-.113.92.92,0,0,0-.634.04c-1.191.446-2.393.863-3.589,1.3a10.968,10.968,0,0,1-3.771.677.905.905,0,0,1-.69-.282.179.179,0,0,0-.157-.04,1.774,1.774,0,0,0-.689.554A.174.174,0,0,0,115.351,189.341Z" transform="translate(-112.885 -167.246)" fill="#00195a"/>
            <path id="Path_3939" d="M134.624,194.437a1.118,1.118,0,0,1-.248-.775c0-.361-.018-.721-.03-1.082a.428.428,0,0,0-.255-.351,2.21,2.21,0,0,0-.364-.129.652.652,0,0,0,0,.1c.1.519.2,1.04.308,1.557.068.311.074.4-.3.619a2.792,2.792,0,0,1-1.14.309,1.575,1.575,0,0,0-.965.483,1.183,1.183,0,0,0-.16.3,1.228,1.228,0,0,0,.33-.032,3.313,3.313,0,0,1,2.227-.133q.484.15.97.3c.178.054.356.112.536.157.419.105.838.2,1.257.308.255.063.507.14.764.191.072.014.158-.04.239-.063-.025-.074-.027-.177-.078-.218a1.952,1.952,0,0,0-.512-.348c-.474-.179-.959-.33-1.446-.472A2.266,2.266,0,0,1,134.624,194.437Z" transform="translate(-112.34 -167.067)" fill="#00195a"/>
            <path id="Path_3940" d="M116.541,188.475a2.861,2.861,0,0,0,.913.153,6.058,6.058,0,0,0,1.092-.242c.83-.21,1.669-.395,2.486-.649.785-.243,1.545-.558,2.316-.843.249-.093.5-.191.734-.283l-.535-.635c-.512.178-1.082.35-1.63.575a16.015,16.015,0,0,1-2.821.812,1.051,1.051,0,0,1-.832-.086.213.213,0,0,0-.179.007c-.2.1-.392.207-.582.32-.31.185-.617.377-.923.57C116.411,188.28,116.388,188.434,116.541,188.475Z" transform="translate(-112.846 -167.273)" fill="#00195a"/>
            <path id="Path_3941" d="M129.519,188.21a1.391,1.391,0,0,1-.533-.982c0-.025-.07-.068-.11-.07a.933.933,0,0,0-.188.033,1.387,1.387,0,0,1-1.512-.427c-.36.1-.7.2-1.053.279-.176.041-.361.038-.537.075-.06.012-.155.088-.152.128.013.175-.02.372.143.5a1.29,1.29,0,0,0,.258.178,4.1,4.1,0,0,0,1.389.32,11.5,11.5,0,0,0,1.237.059C128.8,188.3,129.135,188.248,129.519,188.21Z" transform="translate(-112.543 -167.247)" fill="#00195a"/>
            <path id="Path_3942" d="M130.367,185.189a2.606,2.606,0,0,1-.248.12,3.289,3.289,0,0,1-.414.125,1.308,1.308,0,0,1-.795-.148.293.293,0,0,0-.221,0c-.245.134-.487.276-.717.433a3.785,3.785,0,0,0-.572.449.517.517,0,0,0,.239.826,1.737,1.737,0,0,0,.718.105,3.423,3.423,0,0,0,1.962-.838c.039-.037.083-.12.067-.16A1.564,1.564,0,0,1,130.367,185.189Z" transform="translate(-112.481 -167.3)" fill="#00195a"/>
            <path id="Path_3943" d="M123.622,185.752a.582.582,0,0,0,.244.565,2.161,2.161,0,0,0,.983.431c.069.014.136.03.206.042a4.373,4.373,0,0,0,1.764-.159c.33-.078.324-.083.366-.418.017-.131-.033-.176-.152-.16a1.039,1.039,0,0,1-1.115-.611.194.194,0,0,0-.164-.072,7.591,7.591,0,0,1-1.926.2C123.7,185.558,123.638,185.63,123.622,185.752Z" transform="translate(-112.604 -167.294)" fill="#00195a"/>
            <path id="Path_3944" d="M125.7,187.949a.719.719,0,0,0-.375-.023c-.492.09-.981.2-1.471.3-.88.179-1.76.35-2.639.538-.467.1-.927.235-1.394.336s-.915.183-1.374.264c-.608.106-1.217.212-1.826.3a2.457,2.457,0,0,0-1.126.438c-.452.329-.94.608-1.4.925-.355.244-.695.511-1.037.772-.045.035-.108.124-.093.147a.265.265,0,0,0,.162.11.887.887,0,0,0,.329.024c.464-.084.926-.181,1.388-.277.13-.027.257-.075.389-.1.577-.117,1.157-.217,1.731-.344.426-.094.843-.23,1.268-.332.63-.151,1.266-.272,1.892-.434.473-.123.934-.295,1.4-.44.73-.226,1.472-.418,2.187-.682a19.616,19.616,0,0,1,2.516-.734c.231-.052.454-.137.679-.208l-.008-.052C126.5,188.3,126.106,188.111,125.7,187.949Z" transform="translate(-112.963 -167.208)" fill="#00195a"/>
            <path id="Path_3945" d="M128.538,183.918a.16.16,0,0,0-.1-.118c-.27-.064-.547-.105-.815-.177a.384.384,0,0,0-.328.047c-.258.158-.517.318-.788.453a.923.923,0,0,0-.417,1.374.682.682,0,0,0,.424.391,1.512,1.512,0,0,0,.961-.038,2.713,2.713,0,0,0,1.036-.7.173.173,0,0,0,.036-.147.946.946,0,0,1-.056-.794A1.7,1.7,0,0,0,128.538,183.918Z" transform="translate(-112.526 -167.353)" fill="#00195a"/>
            <path id="Path_3946" d="M127.007,182.193a2.44,2.44,0,0,0-.479-.241c-.011-.005-.039.019-.058.032q-.422.31-.842.622a2.116,2.116,0,0,0-.757.733.4.4,0,0,0-.039.259.922.922,0,0,0,1.271.614,4.685,4.685,0,0,0,.486-.237c.186-.108.365-.229.544-.348.112-.074.131-.155.033-.271A.925.925,0,0,1,127,182.5a.06.06,0,0,0,.005-.017C127.009,182.384,127.054,182.228,127.007,182.193Z" transform="translate(-112.564 -167.409)" fill="#00195a"/>
            <path id="Path_3947" d="M129.132,187.344a1.153,1.153,0,0,0,.417.627,2.31,2.31,0,0,0,1.931.355,12.693,12.693,0,0,0,1.242-.285.66.66,0,0,0,.1-.047,1.554,1.554,0,0,1-.291-1.418c-.237.065-.426.122-.617.167a1.383,1.383,0,0,1-1.338-.31c-.12-.113-.184-.08-.294-.01-.319.2-.644.395-.971.584A.285.285,0,0,0,129.132,187.344Z" transform="translate(-112.419 -167.26)" fill="#00195a"/>
        </g>
        <g id="Group_12105" transform="translate(167.078 159.096)">
            <path id="Path_3948" d="M172.7,171.735c.185.029.288-.086.413-.18a6.06,6.06,0,0,0,1.124-1.021.254.254,0,0,0,.039-.328,1.331,1.331,0,0,1-.225-.829.436.436,0,0,0-.028-.12.937.937,0,0,0-.113.059,4.592,4.592,0,0,0-1.188,1.294,5.5,5.5,0,0,0-.341.608A.359.359,0,0,0,172.7,171.735Z" transform="translate(-161.006 -155.291)" fill="#00195a"/>
            <path id="Path_3949" d="M174.477,170.416a.751.751,0,0,0,.964.516c.382-.175.769-.343,1.137-.546a3.021,3.021,0,0,0,1.1-.945,5.031,5.031,0,0,1,.487-.574c.033-.036.106-.034.16-.05.01.063.048.139.026.188a1.2,1.2,0,0,1-.207.343c-.293.308-.586.617-.9.9a3.676,3.676,0,0,1-.648.441,4.437,4.437,0,0,0-1.03.655.68.68,0,0,0,.2,1.111,1.409,1.409,0,0,0,1.335-.087,6.86,6.86,0,0,0,2.645-2.236c.038-.062.144-.084.255-.144a1.136,1.136,0,0,1-.05.276,4.132,4.132,0,0,1-1.609,1.615,5.854,5.854,0,0,0-1.267.892.845.845,0,0,0-.18,1.013.609.609,0,0,0,.622.428,2.259,2.259,0,0,0,1.2-.34c.435-.293.872-.583,1.3-.893a4.1,4.1,0,0,0,1.3-1.257c.025-.044.109-.057.164-.084.006.063.04.145.013.188a2.141,2.141,0,0,1-.378.52c-.584.491-1.185.963-1.789,1.431a1.992,1.992,0,0,0-.5.528.667.667,0,0,0,.337,1.007,1.92,1.92,0,0,0,1.451.075,3.681,3.681,0,0,0,1.407-.926c.509-.505.992-1.035,1.491-1.55a1.084,1.084,0,0,1,.18-.128c.027.062.031.1.017.116a4.323,4.323,0,0,1-.449.615c-.628.617-1.276,1.216-1.914,1.822a.459.459,0,0,0-.143.174,1.812,1.812,0,0,0-.045,1.083.345.345,0,0,0,.521.235,7.152,7.152,0,0,0,1.1-.607c.564-.422,1.1-.89,1.626-1.355a7.071,7.071,0,0,0,1.878-2.647c.365-.884.709-1.778,1.084-2.658a4.8,4.8,0,0,1,.456-.738c.024-.036.1-.039.147-.058a.9.9,0,0,1,.014.148.261.261,0,0,1-.033.08c-.247.585-.5,1.169-.741,1.754-.263.624-.507,1.256-.787,1.872a8.506,8.506,0,0,1-2.541,3.139c-.334.264-.674.523-1.025.762a3.1,3.1,0,0,1-1.37.667.522.522,0,0,0-.082.03c-.358.107-.713.218-1.072.319a5.146,5.146,0,0,1-1.329.181c-.694.008-1.388.018-2.081.049a1.91,1.91,0,0,0-.82.2c.009.033.008.055.019.065.343.322.667.672,1.039.958a12.1,12.1,0,0,0,1.153.72c.084.051.19.065.273.117a3.486,3.486,0,0,0,1.632.524,1.254,1.254,0,0,1,.273.061c.379.115.757.235,1.136.347.106.032.739.124.9.154.223.041.451.068.668.13.415.117.819.271,1.234.377a2.143,2.143,0,0,0,1.108.049c.428-.116.863-.211,1.282-.356a12.038,12.038,0,0,0,1.477-.593,10.009,10.009,0,0,0,2.628-1.99c.664-.679,1.279-1.409,1.893-2.135a5.965,5.965,0,0,0,.728-1.047,11.724,11.724,0,0,0,.88-2.114,25.045,25.045,0,0,0,1-3.459c.116-.779.3-1.547.416-2.326.14-.97.234-1.946.348-2.919.019-.156.036-.313.061-.468.088-.528.141-1.066.279-1.58a7.913,7.913,0,0,1,.488-1.127.4.4,0,0,0-.4-.12.391.391,0,0,1-.468-.268c-.073-.209-.15-.416-.223-.624a.416.416,0,0,1,.179-.5c.008.008.02.014.023.025a.086.086,0,0,1,.008.05.734.734,0,0,0,.123.675.236.236,0,0,1,.049.129.391.391,0,0,0,.3.349c.39.154.776.313,1.169.458.2.074.415.122.622.182a2.208,2.208,0,0,0-.419-.318c-.469-.294-.943-.583-1.409-.882-.049-.031-.064-.115-.094-.174.074.01.15.017.223.033.025.005.042.038.066.055a.455.455,0,0,0,.5.061,1.546,1.546,0,0,1,.55-.235c.02-.005.035-.027.068-.054a1.662,1.662,0,0,1-.27-.362.266.266,0,0,0-.362-.173c-.135.031-.264.094-.4.118a.553.553,0,0,1-.215-.056c.041-.056.071-.133.127-.164a.848.848,0,0,1,.694-.086c.18.061.252.033.371-.127a1.451,1.451,0,0,0,.22-1.245,2.824,2.824,0,0,0-.654-1.164,2.411,2.411,0,0,0-.59-.611,5.925,5.925,0,0,0-1.207-.5,2.544,2.544,0,0,0-1.638.145,9.409,9.409,0,0,0-2.287,1.23,5.267,5.267,0,0,0-1.7,2.1,14.963,14.963,0,0,1-1.409,2.274.274.274,0,0,1-.114.1,6.437,6.437,0,0,1-1.205.356,17.449,17.449,0,0,0-2.389.441,19.226,19.226,0,0,0-3.34,1.149,17.989,17.989,0,0,0-3.673,2.233c-.525.417-1.05.838-1.535,1.3-.535.512-1.027,1.068-1.528,1.615-.139.151-.337.283-.339.515A6.123,6.123,0,0,0,174.477,170.416Zm9.871,5.872c-.014.008-.069-.019-.069-.029a.116.116,0,0,1,.031-.087c.106-.062.218-.117.328-.174C184.655,176.025,184.464,176.222,184.348,176.288Zm.074.855c.074-.184.232-.224.405-.316A.412.412,0,0,1,184.423,177.143Zm10.372-8.424a.162.162,0,0,1-.058.064c-.01.009-.031.007-.075.016a1.721,1.721,0,0,1,.032-.184c.1-.323.192-.645.295-.965.014-.047.063-.082.1-.122.018.043.059.094.049.129C195.024,168.011,194.909,168.365,194.794,168.718Zm1.27-6.619-.212.853-.055-.011A.966.966,0,0,1,196.065,162.1Zm-.505,2.353a1.167,1.167,0,0,1-.347.988Zm-3.429,5.65a.8.8,0,0,1,.3-.7l.054.03Zm1.113.871.376-.988A1.148,1.148,0,0,1,193.244,170.974Zm2.17-7.721-.271,1.051-.087-.026a5.893,5.893,0,0,1,.267-1.049Zm.031-.848-.386,1A1.205,1.205,0,0,1,195.444,162.4Zm-1.732,6.483a1.566,1.566,0,0,1,.372-1.141Zm.625-3.826a2.177,2.177,0,0,1-.734,1.226Zm-.072-1.522a3.694,3.694,0,0,1-.479.987A1.844,1.844,0,0,1,194.265,163.541Zm.2-4.989a.6.6,0,0,1,.431.7c-.03.309-.424.457-.669.428a.613.613,0,0,1-.425-.555A.729.729,0,0,1,194.464,158.551Zm-.711,3.825.055.058a3.071,3.071,0,0,1-.835.781l-.043-.043Zm-2.777,14.564a1.069,1.069,0,0,1-.62.758Zm.248-11.223a.787.787,0,0,1-.519.7Zm-2.448,13.241-.545.493C188.239,179.245,188.58,178.925,188.775,178.958Zm-1.327-6.4a1.261,1.261,0,0,1-.552,1.013Zm-.931,1.987.784-.8A1.218,1.218,0,0,1,186.517,174.549Zm2.519-11.367.736-.395C189.722,163.02,189.2,163.284,189.036,163.182Zm.291,1.9,1.168-1.1C190.509,164.235,189.666,165.029,189.327,165.086Zm1.357-3.588.054.031a.508.508,0,0,1-.361.487Zm-.562.1c-.076.308-.776.86-1,.82Zm-2.2,1.011a1.327,1.327,0,0,0,.674-.412c.03-.035.1-.04.145-.06,0,.041.008.1-.014.12a1.643,1.643,0,0,1-.86.467.127.127,0,0,1-.052-.006c-.009,0-.017-.013-.05-.04A1.423,1.423,0,0,1,187.924,162.607Zm-2.045,8.715.043.027-.646.994-.052-.032A3.441,3.441,0,0,1,185.879,171.322Zm-2.256-1.816-.344.329-.067-.071.346-.327Zm.175-3.024.035.029a1.747,1.747,0,0,1-.509.628l-.045-.038Zm-.679,5.737a2.087,2.087,0,0,1-1.048.879Zm-2.015-1.34a1.209,1.209,0,0,1-.552.543A1.179,1.179,0,0,1,181.1,170.879Zm-2.242-.763-.483.37-.055-.068A2.035,2.035,0,0,1,178.861,170.116Zm.177-3.14a1.8,1.8,0,0,1-.371.329l-.042-.064Z" transform="translate(-160.936 -155.746)" fill="#00195a"/>
            <path id="Path_3950" d="M167.052,176.076a3.682,3.682,0,0,0,.7-.135,19.119,19.119,0,0,0,2.108-.7,9.975,9.975,0,0,0,1.787-.914c.034-.025.065-.055.116-.1-.465-.2-.89-.41-1-.99-.129.1-.227.176-.324.252a3.055,3.055,0,0,1-.255.21c-1.078.7-2.158,1.388-3.235,2.087a.682.682,0,0,0-.136.178C166.893,176.008,166.977,176.085,167.052,176.076Z" transform="translate(-161.193 -155.157)" fill="#00195a"/>
            <path id="Path_3951" d="M171.165,173.806a1.178,1.178,0,0,0,.656.137c.276.011.528-.125.821-.059a2.259,2.259,0,0,0,1.229-.179.19.19,0,0,0,.111-.129,4.035,4.035,0,0,0-.019-.473c0-.01-.053-.016-.08-.025-.252-.088-.511-.163-.756-.269a.572.572,0,0,1-.307-.709c-.028-.089-.031-.222-.091-.257a.283.283,0,0,0-.4.045c-.168.191-.376.347-.561.524-.266.253-.527.51-.789.767a.291.291,0,0,0-.024.424A.962.962,0,0,0,171.165,173.806Z" transform="translate(-161.056 -155.206)" fill="#00195a"/>
            <path id="Path_3952" d="M185.031,180.986c-.295.037-.327.016-.315.209.016.268.022.536.049.8a.65.65,0,0,1-.328.648c-.1.067-.218.113-.321.177a2.559,2.559,0,0,0-.221.175,1.764,1.764,0,0,0,.2.087c.167.048.336.1.507.131a.584.584,0,0,0,.3.005,1.989,1.989,0,0,1,1.472.025,6.884,6.884,0,0,0,1.628.383,3.208,3.208,0,0,1,.73.163.818.818,0,0,0,.7-.059.99.99,0,0,0-.844-.693c-.6-.057-1.207-.115-1.812-.155a1.651,1.651,0,0,1-1.157-.511,1.471,1.471,0,0,1-.475-1.208C185.155,181.089,185.178,180.967,185.031,180.986Z" transform="translate(-160.618 -154.896)" fill="#00195a"/>
            <path id="Path_3953" d="M193.629,159.314c-.1-.321-.072-.367.3-.513a.232.232,0,0,0-.312-.1.347.347,0,0,0-.185.394C193.455,159.243,193.511,159.3,193.629,159.314Z" transform="translate(-160.297 -155.647)" fill="#00195a"/>
            <path id="Path_3954" d="M198.5,161.89l.045-.062a1.258,1.258,0,0,0-.093-.163c-.362-.457-.721-.915-1.093-1.363a.265.265,0,0,0-.231-.057c-.269.078-.531.178-.852.288C197.09,160.921,197.717,161.533,198.5,161.89Z" transform="translate(-160.201 -155.595)" fill="#00195a"/>
            <path id="Path_3955" d="M163.672,178.309c.118.084.248.149.36.214a6.148,6.148,0,0,0,1.388-.211c.467-.148.942-.274,1.414-.4.834-.222,1.677-.416,2.5-.665a10.31,10.31,0,0,1,1.8-.428,4.275,4.275,0,0,0,.748-.176c.506-.157,1.007-.336,1.513-.5.328-.1.326-.1.35-.428.008-.109-.032-.146-.13-.16a4.411,4.411,0,0,1-.532-.094.919.919,0,0,0-.632.063c-1.174.486-2.361.946-3.54,1.422a10.981,10.981,0,0,1-3.745.809.9.9,0,0,1-.7-.258.178.178,0,0,0-.158-.034,1.78,1.78,0,0,0-.67.578A.174.174,0,0,0,163.672,178.309Z" transform="translate(-161.301 -155.083)" fill="#00195a"/>
            <path id="Path_3956" d="M183.112,182.715a1.116,1.116,0,0,1-.276-.766c-.009-.361-.043-.72-.067-1.08a.428.428,0,0,0-.269-.342,2.117,2.117,0,0,0-.368-.117.608.608,0,0,0,0,.1c.119.515.232,1.033.363,1.545.079.308.088.394-.274.628a2.8,2.8,0,0,1-1.129.349,1.568,1.568,0,0,0-.948.517,1.2,1.2,0,0,0-.15.306,1.181,1.181,0,0,0,.329-.043,3.311,3.311,0,0,1,2.22-.211q.49.133.979.264c.181.048.361.1.543.137.422.091.844.175,1.266.264.257.055.512.122.77.164.073.011.157-.045.237-.071-.027-.073-.032-.176-.085-.216a1.947,1.947,0,0,0-.524-.329c-.48-.162-.971-.3-1.462-.422A2.266,2.266,0,0,1,183.112,182.715Z" transform="translate(-160.749 -154.916)" fill="#00195a"/>
            <path id="Path_3957" d="M164.831,177.4a2.867,2.867,0,0,0,.918.121,6.129,6.129,0,0,0,1.082-.28c.823-.239,1.654-.454,2.462-.736.774-.271,1.525-.613,2.284-.925.246-.1.49-.209.725-.309l-.558-.615c-.505.2-1.069.388-1.609.632a16,16,0,0,1-2.79.912,1.049,1.049,0,0,1-.835-.057.213.213,0,0,0-.178.013q-.292.16-.571.341c-.3.2-.6.4-.9.6C164.7,177.209,164.677,177.363,164.831,177.4Z" transform="translate(-161.263 -155.109)" fill="#00195a"/>
            <path id="Path_3958" d="M177.794,176.671a1.391,1.391,0,0,1-.567-.962c0-.025-.072-.066-.112-.067a.932.932,0,0,0-.187.04,1.388,1.388,0,0,1-1.527-.374c-.356.11-.7.222-1.043.316-.174.048-.359.052-.534.094-.059.014-.152.094-.147.134.02.174-.007.372.159.5a1.331,1.331,0,0,0,.265.168,4.118,4.118,0,0,0,1.4.272,11.507,11.507,0,0,0,1.238.016C177.077,176.79,177.411,176.723,177.794,176.671Z" transform="translate(-160.961 -155.087)" fill="#00195a"/>
            <path id="Path_3959" d="M178.534,173.624a2.362,2.362,0,0,1-.244.128,3.409,3.409,0,0,1-.409.14,1.309,1.309,0,0,1-.8-.12.292.292,0,0,0-.221.006c-.24.143-.477.294-.7.458a3.717,3.717,0,0,0-.555.468.517.517,0,0,0,.268.817,1.706,1.706,0,0,0,.721.08,3.408,3.408,0,0,0,1.931-.907.2.2,0,0,0,.062-.162A1.562,1.562,0,0,1,178.534,173.624Z" transform="translate(-160.901 -155.144)" fill="#00195a"/>
            <path id="Path_3960" d="M171.814,174.424a.579.579,0,0,0,.264.555,2.16,2.16,0,0,0,1,.4c.069.011.137.025.207.034a4.369,4.369,0,0,0,1.757-.22c.328-.089.321-.094.351-.43.011-.132-.039-.175-.158-.155a1.041,1.041,0,0,1-1.136-.572.2.2,0,0,0-.166-.066,7.657,7.657,0,0,1-1.917.264C171.883,174.227,171.825,174.3,171.814,174.424Z" transform="translate(-161.024 -155.133)" fill="#00195a"/>
            <path id="Path_3961" d="M173.966,176.557a.717.717,0,0,0-.377-.008c-.488.106-.973.23-1.46.347-.872.21-1.747.412-2.617.631-.464.116-.919.267-1.382.385s-.908.215-1.364.311c-.6.128-1.207.255-1.814.367a2.457,2.457,0,0,0-1.109.477c-.44.345-.918.642-1.368.975-.346.256-.676.534-1.009.808-.044.036-.1.127-.088.15a.268.268,0,0,0,.165.1.888.888,0,0,0,.33.011c.461-.1.919-.213,1.378-.326.129-.032.254-.085.385-.116.573-.135,1.148-.256,1.718-.4.423-.11.835-.259,1.257-.376.623-.173,1.255-.316,1.875-.5.468-.141.922-.328,1.384-.489.721-.252,1.456-.469,2.162-.76a19.756,19.756,0,0,1,2.489-.822c.228-.06.448-.154.671-.232l-.009-.052C174.777,176.876,174.375,176.7,173.966,176.557Z" transform="translate(-161.376 -155.046)" fill="#00195a"/>
            <path id="Path_3962" d="M176.662,172.416a.159.159,0,0,0-.1-.114c-.272-.055-.55-.086-.821-.148a.379.379,0,0,0-.326.058c-.252.166-.505.336-.771.481a.923.923,0,0,0-.368,1.387.684.684,0,0,0,.437.375,1.506,1.506,0,0,0,.959-.072,2.712,2.712,0,0,0,1.011-.733c.029-.035.051-.119.03-.148a.952.952,0,0,1-.083-.792A1.79,1.79,0,0,0,176.662,172.416Z" transform="translate(-160.947 -155.194)" fill="#00195a"/>
            <path id="Path_3963" d="M175.071,170.746a2.507,2.507,0,0,0-.486-.224c-.012-.005-.039.021-.058.034-.273.217-.547.433-.82.651a2.118,2.118,0,0,0-.731.76.4.4,0,0,0-.03.26.922.922,0,0,0,1.292.569,4.581,4.581,0,0,0,.478-.253c.183-.114.357-.242.531-.368.109-.079.126-.159.024-.272a.92.92,0,0,1-.2-.848.109.109,0,0,0,0-.018C175.079,170.938,175.118,170.78,175.071,170.746Z" transform="translate(-160.986 -155.249)" fill="#00195a"/>
            <path id="Path_3964" d="M177.377,175.819a1.147,1.147,0,0,0,.438.613,2.317,2.317,0,0,0,1.942.286,12.44,12.44,0,0,0,1.231-.33.75.75,0,0,0,.1-.049,1.558,1.558,0,0,1-.341-1.408c-.234.073-.421.137-.611.189a1.383,1.383,0,0,1-1.348-.264c-.124-.107-.186-.072-.293,0-.312.213-.63.418-.95.618A.285.285,0,0,0,177.377,175.819Z" transform="translate(-160.837 -155.105)" fill="#00195a"/>
        </g>
    </g>
</svg>
