<svg xmlns="http://www.w3.org/2000/svg" xmlns:xlink="http://www.w3.org/1999/xlink" width="213.634" height="196.319" viewBox="0 0 213.634 196.319">
    <defs>
        <radialGradient id="radial-gradient" cx="0.5" cy="0.5" r="0.5" gradientUnits="objectBoundingBox">
            <stop offset="0"/>
            <stop offset="1" stop-color="#fff"/>
        </radialGradient>
    </defs>
    <g id="chickens" transform="matrix(0.999, 0.035, -0.035, 0.999, 4.98, -2.005)">
        <ellipse id="Ellipse_7" cx="106.817" cy="27.857" rx="106.817" ry="27.857" transform="translate(0 142.697) rotate(-2)" fill="url(#radial-gradient)" style="mix-blend-mode: multiply;isolation: isolate"/>
        <path id="Path_2200" d="M.294,84.255l2.2.44,117.783,1.366,2.9-1.148,17.43-25.121L138.429,9.749,140.261,0,113.147.066l-3.079,3.511-3.545,2.351-2.7-.588-.551-1.433L105.788.675l-2.6-.584-.957,0-2.173,3.3L95.979,5.47l-1.543.11-.9-2.554L97.8.1l-8.235.02L27.26.344,25.437,2.621l5.339.962L27.392,6.611l-6.524-.737L16.311,4.533,0,17.979Z" transform="translate(51.197 97.678)" fill="#52b9e4" fill-rule="evenodd"/>
        <path id="Path_2201" d="M52.135,68.351h0c.58-.04.992-.066,1.509-.1-.54-.632-.957-.832-1.509.1m2.695-23.76h0c1.1-1.386,1.094-2.472,0-2.949ZM79.992,18.983h0c-.674-.448-1.154-.454-1.6-.106a3,3,0,0,0-1.434,1.943C78.043,20.166,78.917,19.635,79.992,18.983ZM21.055,52.824h0c.934.1,1.569.165,2.355.249.06-.649.114-1.232.2-2.12ZM51.418,39.76h0c.734,1.269,1.32,2.283,2.052,3.546C53.689,41.223,53.138,40.24,51.418,39.76ZM128,31.2h0c1.214-.014,2.44-1.517,2.566-3.346C129.637,29.065,128.857,30.084,128,31.2ZM6.147,9.631h0l-.337.186c.189,1.02.374,2.04.6,3.275.471-.832.8-1.418,1.2-2.126Q6.885,10.3,6.147,9.631ZM128.882,22.1h0a6.909,6.909,0,0,0,2.08-2.517,2.729,2.729,0,0,0-2.172.557C128.822,20.806,128.848,21.4,128.882,22.1Zm-45.93-1.2h0c-1.086-1.337-2.506-1.228-3.76.243C80.452,21.063,81.672,20.984,82.952,20.9ZM66.516,51.081h0a11.722,11.722,0,0,0-3.649.146c.829.606,1.486,1.086,2.217,1.618.386-.431.7-.772,1-1.123C66.2,51.589,66.282,51.432,66.516,51.081ZM83.778,16.586h0c-.009-.826-.314-1.214-.972-1.234a1.479,1.479,0,0,0-1.36,1.349A1.294,1.294,0,0,0,82.8,17.818C83.486,17.777,83.786,17.4,83.778,16.586Zm13.53,50.057h0c-.5.492-.923.9-1.517,1.48h3.343l.089-.217C98.622,67.508,98.019,67.114,97.308,66.643ZM55.678,36.657h0a1.657,1.657,0,0,0-1.406,1.16A1.413,1.413,0,0,0,55.6,39.191c.551.02,1.109-.694,1.089-1.394A1.154,1.154,0,0,0,55.678,36.657ZM1.573,16.738h0c-.563,1.36.023,2.483.306,3.614.083.329.446.589.837,1.072C2.707,18.28,2.507,17.434,1.573,16.738ZM20.966,47.8h0c.174.791-.089,1.56.337,2.209.82-.223,1.523-.411,2.277-.617V47.8Zm13.25,5.135h0c1.443-1,1.686-1.234,2.134-2.063H31.033l-.046.283ZM62.876,68.52h0a23.172,23.172,0,0,0,6.026-.312l-3.237-2.186C64.767,66.828,63.947,67.559,62.876,68.52Zm18.57-45.833h0a20.361,20.361,0,0,0-.506,2.64c-.06.923.666,1.32,1.357.751a5.682,5.682,0,0,0,1.792-3.392ZM14.191,74.323h0a9.43,9.43,0,0,0-3.818-.346c-1.169-.037-2.34-.023-3.509.017a9.432,9.432,0,0,0-3.506.317,1.332,1.332,0,0,0,.791.5C6.633,75.086,13.088,74.863,14.191,74.323Zm91.289-1.08h0c.289.189.394.317.5.32,3.323.091,6.646.183,9.97.234.36.006.874.043,1-.523C115.81,72.715,108.812,72.677,105.48,73.243ZM2.744,68.045h0l.109.326c1.92-.24,3.886.243,5.789-.28l.08-.331c-1.012-.774-2.029-1.549-3.075-2.346C4.607,66.357,3.676,67.2,2.744,68.045ZM105.52,77.366h0a3.524,3.524,0,0,0,.974.294q5.259.018,10.524-.028a3.2,3.2,0,0,0,.906-.354C116.45,76.589,107.326,76.492,105.52,77.366ZM49.512,39.886h0c-.454.177-1.089.237-1.426.589-.78.809-.614,3.229.16,4.083a.875.875,0,0,0,1.429.009A3.767,3.767,0,0,0,49.512,39.886ZM14.322,78.918h0c0-.163,0-.326,0-.486a4.417,4.417,0,0,0-1.137-.311c-3.132.006-6.266.045-9.4.094-.186,0-.371.174-.54.257.16.732.677.692,1.129.7,2.852.046,5.7.091,8.555.091A5.877,5.877,0,0,0,14.322,78.918Zm16.9-10.687h7.715c-1.683-1.052-3.095-1.929-4.529-2.826ZM3.427,82.953h0c.017.714.391.9.917.9q4.355.013,8.7.012a1.3,1.3,0,0,0,1.274-.623C13.054,82.493,5.839,82.31,3.427,82.953Zm101.853-1.36h0a11.814,11.814,0,0,0,1.66.318c2.772.063,5.543.091,8.312.128.657.009,1.314.009,1.972-.011s.792-.366.572-.946c-3.94,0-7.872,0-11.8.015C105.849,81.1,105.706,81.287,105.28,81.592ZM119.3,51.361h0c-.051-.1-.1-.191-.149-.288h-4.2c-.591.911-1.074,1.663-1.592,2.463.84.52,1.626,1.006,2.506,1.549C117.05,53.807,118.176,52.584,119.3,51.361ZM80.683,11.223h0a4.478,4.478,0,0,0-1.534,5c.5-.577.989-1.14,1.477-1.7a5.484,5.484,0,0,1,6.109-1.952,8.594,8.594,0,0,0,1.372.183c-.194-.9-.194-.934-.5-.928-.374.011-.743.108-1.114.123-.949.029-1.206-.254-1.217-1.232a9.569,9.569,0,0,0-.16-1.106c-.814.823-1.449,1.5-2.123,2.129-.772.72-1.263.7-2.04-.031A1.763,1.763,0,0,1,80.683,11.223ZM57.544,41.089h0c1.789-.855,3.183-1.915,3.64-3.875-1.9-.72-1.98-.894-1.394-2.914.171-.6.311-1.2.494-1.9a2.9,2.9,0,0,0-.637.08c-1.552.8-1.6.783-2.312-.831-.037-.086-.057-.18-.1-.266-.309-.654-.674-.442-1.172-.048,1.066,1.443,2.523,2.555,2.663,4.538C58.864,37.731,58,39.291,57.544,41.089ZM48.214,51.53h0c1.723,1.209,3.126,2.195,4.649,3.266,1.154-1.237,2.257-2.415,3.357-3.595-.091-.066-.16-.16-.231-.16-2.16-.026-4.32-.057-6.481-.037C49.186,51,48.863,51.255,48.214,51.53Zm57.977,16.839h0c2.957.3,5.589-.237,8.278-.346a27.436,27.436,0,0,0-4.706-3.429C108.58,65.845,107.5,66.988,106.192,68.368ZM103.6,49.609h0c2.543-.094,4.86-.183,7.3-.274-.031-.674-.057-1.209-.091-1.883l-6.561-.917C104.023,47.615,103.831,48.506,103.6,49.609ZM17.543,55.727h0c-1.534,1.289-3.063,2.574-4.72,3.969.863.712,1.6,1.318,2.446,2.02.84-.889,1.572-1.672,2.317-2.443.732-.752,1.477-1.492,2.149-2.169C18.949,56.613,18.3,56.2,17.543,55.727ZM95.768,52.67h0l1.366-1.763-4.629.206c1.517.949,2.723,1.7,4.015,2.509,1.006-.38,2-1.328,3.486-.814-1.072,1.152-2.857,1.014-3.646,2.512.251.074.449.206.563.154.846-.386,1.689-.783,2.509-1.228a5.655,5.655,0,0,0,2.255-2.043c.974-1.62.629-3.466,1.032-5.175.051-.215-.254-.512-.394-.771-.177.234-.446.443-.509.7-.366,1.446-.68,2.9-1.014,4.355C99.171,51.6,97.828,52.721,95.768,52.67ZM83.024,68.22h0l.134-.4c-1.643-1.206-3.286-2.409-4.663-3.417-1.44,1.386-2.7,2.606-4.009,3.863A64.585,64.585,0,0,0,83.024,68.22ZM19.554,67.037h0c-1.329-1.051-2.609-2.063-3.912-3.095-1.466,1.255-2.863,2.446-4.52,3.863a13.473,13.473,0,0,0,2.132.5c1.309.066,2.626-.04,3.935.04A2.213,2.213,0,0,0,19.554,67.037Zm64.672-11.55h0c1.383-1.437,2.689-2.794,4.172-4.337-.611-.057-.963-.12-1.314-.117-1.723.011-3.449.106-5.169.037a2.2,2.2,0,0,0-2.3,1.323C81.121,53.407,82.621,54.41,84.227,55.487Zm-70.07,7.344h0c-.863-.791-1.643-1.509-2.532-2.326-1.674,1.354-3.286,2.658-5.032,4.066l3.435,2.3Zm28.677,5.123h0a5.616,5.616,0,0,0,1.3.366c1.637.04,3.275,0,4.912.023a1.409,1.409,0,0,0,1.223-.528c.349-.431.737-.829,1.252-1.4-1.489-1.054-2.872-2.035-4.2-2.977C45.768,65,44.368,66.411,42.834,67.954ZM139.9,51.107h0c-2.283,0-4.435.089-6.575-.031a2.532,2.532,0,0,0-2.757,1.7c1.586,1.163,3.157,2.32,4.76,3.5,1.477-1.4,2.915-2.729,4.309-4.106C139.826,51.984,139.795,51.581,139.9,51.107Zm-94.178.8h0a2.727,2.727,0,0,0-2.392-1.06c-.983.049-1.969-.014-2.955.009a1.591,1.591,0,0,0-.923.206c-1.069.886-2.092,1.826-3.235,2.84,1.594,1,3.035,1.912,4.483,2.826C42.422,55.081,44.04,53.527,45.726,51.907ZM90.881,62.328h0c-1.66,1.755-3.249,3.435-4.846,5.121a2.781,2.781,0,0,0,1.983.851c1.494-.017,2.992-.031,4.486-.08a1.732,1.732,0,0,0,1.04-.271c.751-.692,1.417-1.472,2.194-2.3ZM53.432,78.412h0c-1.7-.014-4.346,2.129-4.66,3.678A1.978,1.978,0,0,0,50.209,84.7a6.041,6.041,0,0,0,.649.266,3.432,3.432,0,0,0,3.552-.629c.9-.846,1.589-1.82,1.02-3.206a3.035,3.035,0,0,1-.089-1.386,1.009,1.009,0,0,0-.917-1.18C54.061,78.481,53.683,78.452,53.432,78.412Zm10.541-24.5h0c-1.126-.834-2.123-1.677-3.22-2.36-.954-.591-1.52-.417-2.3.4-.354.372-.714.743-1.083,1.1-.9.871-1.814,1.737-2.775,2.657L59.2,58.842ZM90.69,59.9h0l4.423-5.06c-1.606-1.017-3.092-1.955-4.655-2.943-1.494,1.549-2.943,3.046-4.5,4.66C87.578,57.707,89.1,58.776,90.69,59.9ZM42.345,57.713h0A12.417,12.417,0,0,0,46.8,60.8c1.574-1.632,3.16-3.277,4.8-4.981L47.38,52.838C45.64,54.521,43.991,56.119,42.345,57.713Zm-25.5,4.9h0l4.283,3.08c1.812-1.752,3.515-3.4,5.292-5.121-1.574-.983-3-1.872-4.449-2.774-.277.214-.509.368-.706.557C19.84,59.719,18.423,61.091,16.843,62.614Zm28.734-.266h0c-1.563-1.106-3.043-2.154-4.358-3.083l-4.84,4.9,4.606,2.7A27.073,27.073,0,0,0,45.577,62.348Zm-12.69,2.217h0l-4.729-3c-1.849,1.717-3.592,3.334-5.581,5.178a4.685,4.685,0,0,1,.717.366c1.649,1.255,3.563,1.3,5.5,1.2A1.041,1.041,0,0,0,29.387,68C30.53,66.9,31.653,65.782,32.887,64.565ZM69.151,84.879h0A4.5,4.5,0,0,0,73.134,82a1.316,1.316,0,0,0,.083-.551c-.326-2.429-2.723-4.609-5.409-3.583a1.063,1.063,0,0,0-.8,1,12.467,12.467,0,0,1-.563,2.875A2.026,2.026,0,0,0,66.9,83.93,2.663,2.663,0,0,0,69.151,84.879Zm-5.123,42.167h0a3.72,3.72,0,0,0,3.632-2.272,8.053,8.053,0,0,1,.874-1.555,3,3,0,0,0-.992-4.709,2.3,2.3,0,0,1-.471-.3,5.186,5.186,0,0,0-6.961.511,2.19,2.19,0,0,0-.5,2.412,6.534,6.534,0,0,1,.437,1.743,6.659,6.659,0,0,0,1.392,3.255C62.073,127.071,63.156,126.957,64.027,127.046ZM66.7,54.1h0L71.4,57.556c1.88-1.829,3.643-3.546,5.383-5.238a2.431,2.431,0,0,0-2.509-1.243,12.828,12.828,0,0,1-1.689-.02c-3.483-.083-3.483-.086-5.661,2.586A3.2,3.2,0,0,0,66.7,54.1ZM59.51,61.416h0l-5.375,4.937a24.362,24.362,0,0,0,3.632,1.972,3.9,3.9,0,0,0,2.709-.04,11.071,11.071,0,0,0,3.666-3.429C62.556,63.677,61.093,62.594,59.51,61.416Zm-24.4-6.486h0l-5.5,5.14c1.714,1.049,3.289,2.011,4.923,3.009,1.692-1.74,3.277-3.371,4.992-5.138Zm41.336,8.338h0L71.674,59.95C70.045,61.505,68.479,63,66.8,64.6c1.9,1.32,3.546,2.609,5.689,3.192C73.785,66.314,75.068,64.845,76.443,63.268Zm20.348-7.375h0c-1.583,1.749-3.077,3.395-4.663,5.143l4.938,3.221c1.5-1.737,2.929-3.4,4.463-5.186C99.954,58.016,98.445,57,96.791,55.893Zm1.926,9.318h0c1.429.974,2.737,1.869,4.049,2.755a.978.978,0,0,0,1.386-.157c.917-.934,1.869-1.837,2.777-2.78.437-.454.811-.972,1.266-1.523-1.777-1.148-3.377-2.189-5.072-3.283C101.651,61.891,100.231,63.5,98.717,65.211ZM70.111,58.6h0l-4.552-3.575c-1.646,1.7-3.226,3.332-4.9,5.061l4.658,3.406C66.936,61.836,68.474,60.27,70.111,58.6ZM58.044,60.165h0c-.912-.686-1.612-1.229-2.329-1.746-.746-.54-1.512-1.054-2.349-1.635-1.726,1.789-3.34,3.461-5.026,5.209,1.572,1.1,2.98,2.086,4.478,3.129C54.506,63.522,56.192,61.919,58.044,60.165Zm20.408-6.712h0c-1.869,1.786-3.649,3.489-5.583,5.34l4.7,3.163c1.869-1.8,3.646-3.512,5.481-5.281C81.483,55.578,80.035,54.561,78.452,53.453Zm43.756,5.709h0c1.857-2.108,3.646-4.135,5.506-6.243-.751-.586-1.423-1.172-2.157-1.66a3.978,3.978,0,0,0-3.738.285c-1.44,1.452-2.792,2.989-4.252,4.566Zm7.018-5.109h0c-1.832,2.074-3.58,4.055-5.415,6.129,1.492,1.046,2.82,1.974,4.195,2.94,2.017-1.94,4.175-3.592,5.652-5.9C132.2,56.179,130.8,55.179,129.225,54.053ZM84.592,66.591h0c1.606-1.791,3.189-3.557,4.866-5.426l-4.732-3.386-4.94,5.366C81.235,64.182,82.855,65.345,84.592,66.591Zm31.235.223h0c1.792-2.151,3.486-4.189,5.275-6.335-1.706-.943-3.089-2.215-4.883-2.975-1.769,1.92-3.472,3.769-5.266,5.715ZM5.373,12.82h0a12.361,12.361,0,0,1-.483-1.491,3.724,3.724,0,0,1-.063-1.386c.2-1.017.869-1.306,1.769-.8A3.284,3.284,0,0,1,8.2,11.026c.146.463.3.888.849.783a4.547,4.547,0,0,1,.5-1.469c.269-.328.817-.431,1.146-.586-.494-.963-.994-1.86-1.426-2.789C8.665,5.645,8.122,4.293,7.51,2.973,7.267,2.447,7.027,1.847,6.147,1.8c0,.557,0,1.052,0,1.549-.006.94.014,1.88-.049,2.817a.744.744,0,0,1-.489.543.766.766,0,0,1-.58-.454,14.038,14.038,0,0,1-.28-1.663c-.083-.512-.154-1.023-.26-1.529-.091-.451-.226-.9-.34-1.343l-.354.034c-.226,1.9-.511,3.8-.651,5.712a6.412,6.412,0,0,0,.46,1.88c.023.091.077.2.049.271-.1.24-.174.586-.357.663a.878.878,0,0,1-.743-.169,2.008,2.008,0,0,1-.363-.729c-.189-.455-.371-.909-.56-1.363a8.01,8.01,0,0,0,1.4,7.589c.423-.091.812-.175,1.209-.257C4.284,14.32,4.3,13.351,5.373,12.82Zm130.364,7.807h0c-.111-.1-.22-.2-.331-.3-.44.4-.872.817-1.329,1.2a.762.762,0,0,1-1.134.009c-.4-.431-.063-.755.243-1.072a6.408,6.408,0,0,0,1.3-1.426c.7-1.432,1.274-2.923,1.874-4.4a3.951,3.951,0,0,0,.137-.854c-.1-.071-.206-.143-.311-.211a4.086,4.086,0,0,1-.337.623c-.723.92-1.437,1.854-2.217,2.732-.2.223-.623.24-.946.354-.023-.337-.174-.743-.043-1,.491-.957,1.086-1.866,1.62-2.8a6.373,6.373,0,0,0,.34-.86,2.65,2.65,0,0,0-2.255.806c-1.843,1.343-3.692,2.677-5.575,4.04,1.063.623.9,1.557.211,2.583.346.02.554.094.7.028a3,3,0,0,0,.674-.454,3.382,3.382,0,0,1,2.649-.7.842.842,0,0,1,.811,1.083,4.245,4.245,0,0,1-.714,1.483,9.886,9.886,0,0,1-1.263,1.2c.892,1.043,0,1.92-.269,2.823.354.269.649.489.952.718C133.257,25.236,134.7,23.115,135.737,20.626ZM60.53,84.613h0A5.2,5.2,0,0,0,65.7,78.869a1.969,1.969,0,0,0-.651-1.206,12.3,12.3,0,0,0-2.3-1.545,3.5,3.5,0,0,0-4.426.92,6.885,6.885,0,0,0-1.563,3.543,2.723,2.723,0,0,0,1.383,3.1A14.3,14.3,0,0,0,60.53,84.613Zm40.238,28.3h0a5.779,5.779,0,0,0,.169-.609c.549-4.4.2-8.812.211-13.218a5.343,5.343,0,0,0-.566-2.155,1.543,1.543,0,0,0-2.377-.606,2.8,2.8,0,0,0-1.363,2.295c.009,4.738-.08,9.475-.129,14.213a3.418,3.418,0,0,0,.123.6C98.145,112.887,99.234,111.633,100.768,112.913ZM103,57.69h0c.786-.857,1.52-1.637,2.229-2.44a6.66,6.66,0,0,1,4.18-2.226l-4.669,5.838c1.586,1.06,3.137,2.1,4.74,3.166l5.083-5.552c-.7-.469-1.312-.886-1.932-1.286a1.567,1.567,0,0,0-2.352.206,15.055,15.055,0,0,1-1.1,1.08.969.969,0,0,1-1.543-.16,15.152,15.152,0,0,1,4.1-3.344A1.867,1.867,0,0,0,113,51.278c0-1.123.08-2.246.1-3.369.014-.9-.123-.983-1.174-.86,0,.795.063,1.595-.014,2.38-.117,1.174-.514,2.309-1.8,2.6a19.228,19.228,0,0,0-4.835,2.2,3.626,3.626,0,0,1-.843.223c-.06-1.637,1.709-1.886,2.112-3.094-1.872-.866-2.949-.532-3.549,1.2a4.86,4.86,0,0,1-2.477,2.546,7.57,7.57,0,0,1-.86.357C100.785,56.216,101.8,56.89,103,57.69ZM23.886,111.864h0c.043-.477.091-.8.1-1.126.06-3.277.149-6.552.154-9.83a34.777,34.777,0,0,0-.306-3.766,1.255,1.255,0,0,0-1.169-1.206,2.625,2.625,0,0,0-3.215,2.478,8.345,8.345,0,0,0-.02.846c.009,3.149,0,6.3.037,9.446.017,1.34.143,2.68.229,4.218A4.16,4.16,0,0,1,23.886,111.864ZM138.38,69.009h0l-.089,0c0-1.266.046-2.532-.031-3.792a1.328,1.328,0,0,0-.677-.914c-.206-.1-.646.175-.923.363a6.514,6.514,0,0,0-.811.777c-1.974,1.932-3.906,3.912-5.949,5.775a3.175,3.175,0,0,0-1.183,2.278c-.071,1.826-.109,3.655-.071,5.481.02,1.169.872,1.64,1.934,1.137a4.55,4.55,0,0,0,.906-.654c1.692-1.412,3.389-2.815,5.055-4.255a4.309,4.309,0,0,0,1.714-3.529C138.22,70.792,138.332,69.9,138.38,69.009ZM102.214,101.06h0c.109,1.818.214,3.455.3,5.092.12,2.2.277,4.406.317,6.609a3.5,3.5,0,0,1-1.543,3.275c-.957.617-1.84,1.343-2.98,2.189.7.086,1.069.151,1.434.174a9.3,9.3,0,0,1,4.76,1.514c1.32.88,2.8,1.529,4.195,2.295.571.311,1.06.352,1.4-.2a21.836,21.836,0,0,0-4.063-10.13c-.7-.971-1.3-2.02-1.88-2.937,1.023-2.761,3.049-4.572,4.995-6.6A19.242,19.242,0,0,0,102.214,101.06ZM9.2,102.729h0c0,.143.009.286.014.426,1.446.509,2.886,1.043,4.343,1.517a3.368,3.368,0,0,1,1.986,1.371c-.5.849-1.006,1.689-1.5,2.535a35.866,35.866,0,0,0-4.44,11.2c-.089.46-.194.912.369,1.229,2.243-2.309,5.229-3.252,8.138-4.626.343-5.975.074-12.007.183-18.153C14.485,98.494,11.739,100.4,9.2,102.729ZM87.184,30.891h0c1.689,3.006,3,6.123,5.572,8.572,2.752,2.614,6.121,3.946,9.467,5.395a7.4,7.4,0,0,0,1.932.352c2.14.277,4.283.537,6.424.8a6.217,6.217,0,0,0,3.3-.429c3.023-1.283,5.109-3.695,7.481-6.058-.594.074-1.046.12-1.5.188a26.953,26.953,0,0,1-6.424.694,28.822,28.822,0,0,0-3.1-.066c-3.586.1-6.169-1.712-8.249-4.383-1.546-1.986-.251-5.806,2.172-6.655.026-.009.071.049.151.109-.137.169-.28.335-.409.506-1.963,2.635-1.769,4.727.683,6.892a7.875,7.875,0,0,0,1.823,1.312,8.008,8.008,0,0,0,2.652.788,37.11,37.11,0,0,0,5.492.06c2.523-.189,5.049-.48,7.212-2.055a14.734,14.734,0,0,1,2.226-1.2c1.043-.517,2.117-.974,3.155-1.5a2.905,2.905,0,0,0,1.369-1.84c-.109-.1-.166-.188-.246-.223a2.268,2.268,0,0,0-2.68.62c-.406.391-.774.969-1.537.711,2.212-3.663,2.212-3.663,1.926-4.837-.68.22-1.346.437-2.286.746a2.7,2.7,0,0,1,2.563-1.357c.977.008.794.971,1.072,1.657a4.646,4.646,0,0,0,1.972-3.509c-.786.514-1.34.877-1.883,1.234-.486-.223-.509-.494-.229-.894.543-.769,1.069-1.549,1.557-2.349a3.01,3.01,0,0,0,.2-.889,3.515,3.515,0,0,0-2.929,2.018,2.544,2.544,0,0,1-2.346,1.654c.44-.566.843-1.077,1.237-1.6a.967.967,0,0,0,.086-1.292,1.823,1.823,0,0,0-1.1-.443,9.227,9.227,0,0,0-1.652.194c1.229-1,2.186-.974,3.883.026a3.8,3.8,0,0,0,1.866-3.052c-1.246-.423-2.217.4-3.363.577.057-1.4,1.954-1.637,1.714-3.186a2.941,2.941,0,0,0-.943.014c-1.449.537-2.9,1.074-4.312,1.7a9.99,9.99,0,0,1-6.575.717,15.26,15.26,0,0,1-3.377-1.36,14.059,14.059,0,0,0-5.126-1.406,8.61,8.61,0,0,0-5.758,1.44c-.543.352-1.117.652-1.754,1.02-.177,1.515-1.772,1.431-2.806,2.112.186.357.374.674.514,1.012.386.909.031,1.457-.974,1.457a11.372,11.372,0,0,1-1.466-.209c.249.654.454,1.194.66,1.732a1.3,1.3,0,0,1-1.834.191c-.563-.357-1.177-.634-1.883-1.009,0,.74-.014,1.254.006,1.766.014.44.034.943-.5,1.006a2.119,2.119,0,0,1-1.123-.326,3.962,3.962,0,0,1-.749-.68C87.807,28.559,88.856,30.116,87.184,30.891ZM42.431,27.607h0c-1.554-1.457-3-2.863-4.5-4.212a13.618,13.618,0,0,0-7.912-3.68c-2.94-.283-5.895-.423-8.835-.709a9.987,9.987,0,0,1-6.369-3.552c-1.206-1.306-2.215-2.789-3.312-4.192-.269-.343-.557-.64-1.092-.434-.746,1.092.677,2.171.091,3.4-.963-.686-1.34-1.975-2.717-2.075a3.665,3.665,0,0,0,.28,3.552,2.8,2.8,0,0,1,3.355,1.972c-.517-.423-.843-.723-1.206-.975-.423-.292-.869-.609-1.423-.3-.6.337-.6.883-.5,1.474.094.572.157,1.146.234,1.718a2.35,2.35,0,0,1-1.183-2.429,3.864,3.864,0,0,0-.94-2.937c-.12-.177-.434-.223-.76-.377a7.593,7.593,0,0,0-.1.946c.031.891.069,1.783.143,2.672.043.514-.183.663-.631.652-.3-.591-.589-1.152-1.02-1.989a4.809,4.809,0,0,0-.083,3.941C5.09,19,5.2,18.955,5.833,19.26a2.148,2.148,0,0,1,1.252,2.152c-.5-.52-.994-1.032-1.592-1.654-.974,1.817-.692,3.532-.469,5.292-.717-.472-.717-.472-1.12-1.554-.48-1.289-.886-1.577-2.223-1.56A5.771,5.771,0,0,0,3.4,26.513,9.981,9.981,0,0,1,5.89,30.7a2.971,2.971,0,0,0,.923,1.669,24.209,24.209,0,0,0,11.173,6.258,9.269,9.269,0,0,0,5.941-.331A6.033,6.033,0,0,0,27.9,31.382a11.487,11.487,0,0,1-.006-1.346A2.864,2.864,0,0,1,29.87,32.4a5.275,5.275,0,0,1-1.063,4.118A9.472,9.472,0,0,1,20.8,40.506a18.062,18.062,0,0,1-7.846-2.04,27.552,27.552,0,0,1-7.7-5.626,7.679,7.679,0,0,0-.657-.551,37.558,37.558,0,0,0,1.954,6.206,7.148,7.148,0,0,0,3.709,4.072c1.9.783,3.806,1.572,5.7,2.38,3.655,1.566,7.464,1.628,11.344,1.274a16.539,16.539,0,0,0,6.584-2.249c1.709-.946,3.575-1.606,5.375-2.383a1.414,1.414,0,0,1,.417-.057,1.976,1.976,0,0,0,1.843-1c.32-.592,1.049-.952,1.3-1.766-.746.043-1.44.612-1.866-.311a3.1,3.1,0,0,1,2.026-1.995,1.046,1.046,0,0,0,.886-1.086c-.934-.069-1.986.883-2.735-.534.72-.58,1.42-1.14,2.16-1.737-.62-.477-1.66-.205-1.8-1.22.517-1.169,1.7-.626,2.62-.9-.657-1.163-2.023-1.574-2.38-2.846C41.994,27.939,42.211,27.773,42.431,27.607Zm5.543,56.846h0C45.24,85.43,42.5,86.4,39.762,87.39c-1.452.526-2.889,1.089-4.335,1.632-2.589.969-5.189,1.906-7.764,2.918a2.95,2.95,0,0,0-2.029,3.048,13.311,13.311,0,0,1-.186,1.666,9.507,9.507,0,0,0-.1,1.392c.034.929.194,1.857.183,2.786-.029,2.346-.166,4.689-.171,7.032a35.1,35.1,0,0,0,.271,4.06,2.433,2.433,0,0,0,1.692,2.086c2.126.725,4.272,1.411,6.435,2.026,2.026.574,4.132.906,6.123,1.577a50.316,50.316,0,0,0,8.4,2.312,26.47,26.47,0,0,1,5.309,1.337c1.68.629,3.452,1.02,5.463,1.6-.24-.731-.386-1.2-.546-1.666a2.222,2.222,0,0,1,.757-2.863c.577-.4,1.12-.857,1.657-1.311A5.929,5.929,0,0,1,67.479,117a8.25,8.25,0,0,0,1.383.935,1.984,1.984,0,0,1,1.14,1.34c.149.589.414,1.154.509,1.752a13.648,13.648,0,0,1,.017,1.926c.92-.305,1.714-.563,2.506-.834,3.506-1.206,7-2.431,10.515-3.618,3.023-1.02,6.061-2,9.092-2.986a2.208,2.208,0,0,0,1.589-1.28,16.924,16.924,0,0,0,1.074-3.895c.183-2.1.029-4.223.063-6.335.046-2.866.109-5.729.22-8.592A2.35,2.35,0,0,0,94.353,93.1a59.054,59.054,0,0,0-9.618-4.983c-2.437-.98-4.858-2-7.3-2.983-1.254-.506-2.532-.952-3.8-1.426a5.532,5.532,0,0,1-4.1,2.1,4.175,4.175,0,0,1-4.018-2.317c-2.986,2.843-6.006,2.4-8.981.312C54.718,86.216,52.269,87.179,47.974,84.453ZM31.19,55.67h0c.686-.509,1.372-1.018,2.283-1.689-.631-.277-.992-.437-1.354-.594-.912-.7-1.823-1.4-2.715-2.08-.874.555-1.617,1.023-2.492,1.577.329.112.474.217.571.186a7.1,7.1,0,0,1,4.663.289c.063.294.126.592.209.977-.417.069-.789.254-1.032.149A10.659,10.659,0,0,0,27.6,54c-1.466-.1-1.7-.52-1.614-2.012.077-1.251.017-2.515.017-3.823l-1.149-.286c0,1.106.017,2.131-.006,3.16s-.094,2.037-.149,3.175c-1.334,0-2.546.049-3.752-.017-.817-.046-1-.314-.992-1.2.009-1.363.066-2.723.08-4.086.011-.946,0-.946-1.166-1.035,0,1.972-.077,3.941.023,5.9.094,1.8.946,2.466,2.755,2.423a2.7,2.7,0,0,1,.7-.06c.8.223,1.832.269,2.335.8a14.969,14.969,0,0,0,3.292,2.211c1.072-1.171,2.074-2.266,3.077-3.363A.918.918,0,0,1,31.19,55.67Zm104.6-36.641c1.292.62,1.44.946.949,2.211a13.521,13.521,0,0,1-3.389,4.8,2.3,2.3,0,0,0-.806,1.652,5.175,5.175,0,0,1-1.66,3.189,3.859,3.859,0,0,0-.969,1.614,5.84,5.84,0,0,1-2.455,2.806c-.92.64-1.823,1.309-2.715,1.989a1.33,1.33,0,0,0-.52.646,8.985,8.985,0,0,1-2.952,4.486c-.786.74-1.492,1.58-2.337,2.246a16.96,16.96,0,0,1-3.049,1.975c-.834.4-1.292.854-1.209,1.789a4.855,4.855,0,0,1-.054.78,7.177,7.177,0,0,0,.972.143c2.82,0,5.638-.023,8.458-.012,2.532.009,5.066.092,7.6.074,2.157-.017,4.318-.191,6.472-.168a13.987,13.987,0,0,1,2.877.531c.694.16.92.62.923,1.354.009,3.432.111,6.864.123,10.3q.077,21.156.106,42.316c0,4.606-.137,9.212-.206,13.819a4.782,4.782,0,0,1-1.612,3.477c-3.8,3.644-7.572,7.312-11.433,10.893a48.221,48.221,0,0,1-4.246,3.241,5.023,5.023,0,0,1-.869.4,8.731,8.731,0,0,1-.126-.994q.06-31.1.137-62.2c.006-1.363.089-2.729.054-4.089a2.718,2.718,0,0,1,.969-2.232c.56-.5,1.114-1.008,1.829-1.654-1.34-.963-2.617-1.877-4.06-2.915l-5.478,6.227c1.7.783,3.355.3,4.88.794q-.116,33.89-.237,67.815-59.282,0-118.389-.009c-.969,0-1.937-.145-3.012-.228C.292,135.4.187,134.8.19,134.206q.06-16.219.143-32.44C.381,92.551.464,83.336.5,74.12c.009-1.686-.114-3.372-.206-5.058a2.6,2.6,0,0,1,1.48-2.649,4.309,4.309,0,0,0,1.014-.737c3.04-3.078,6.6-5.552,9.824-8.409,1.443-1.277,2.949-2.48,4.44-3.7a1.44,1.44,0,0,0,.629-1.314c-.12-1.732-.186-3.466-.274-5.24-1.974-.826-3.943-1.592-5.855-2.472a21.415,21.415,0,0,1-5.838-3.88,9.175,9.175,0,0,1-1.752-3.166c-.414-.988-.56-2.086-.912-3.106a12.289,12.289,0,0,1-.612-4.3,2.227,2.227,0,0,0-.126-.957c-.383-.811-1.014-1.429-.82-2.554.134-.76-.554-1.64-.754-2.495a5.01,5.01,0,0,1-.1-3.446c.091-.2-.066-.532-.149-.792a5.3,5.3,0,0,1,.291-4.48c.149-.257.014-.7-.037-1.046-.24-1.666-.523-3.326-.732-5a4.153,4.153,0,0,1,.16-1.391C.435,6.754.624,6.631,2,6.688c.169-1.231.3-2.483.526-3.717A10.556,10.556,0,0,1,3.178.679C3.527-.127,4.073-.21,4.716.4c.32.306.552.56,1.057.5A2.491,2.491,0,0,1,8.442,2.559c.66,1.4,1.272,2.826,1.872,4.255a13.442,13.442,0,0,0,3.672,5.429,6.75,6.75,0,0,1,1.434,1.729,9.688,9.688,0,0,0,4.458,3.543,9.732,9.732,0,0,0,3.309.526c2.755.223,5.526.263,8.261.611a16.5,16.5,0,0,1,8.727,4.292c1.629,1.411,3.377,2.686,5,4.106A8.544,8.544,0,0,0,48.6,29.176c1.126.286,2.272.5,3.412.734a11.159,11.159,0,0,1,1.243.226,2.017,2.017,0,0,0,2.092-.294,1.691,1.691,0,0,1,2.566.5,8.648,8.648,0,0,1,.56,1.066,6.3,6.3,0,0,1,.78-.18A1.843,1.843,0,0,1,61.339,33.5c-.149.734-.391,1.452-.554,2.037.489.526,1.149.926,1.269,1.449a3.4,3.4,0,0,1-.326,2c-.969,2.2-2.9,3.169-4.9,3.74-.614,1.312-1.152,2.555-1.78,3.749a1.781,1.781,0,0,1-.949.726c-.186.063-.74-.295-.726-.4.22-1.414-.994-2.232-1.294-3.692a5.273,5.273,0,0,0-.446.789c-.431,1.534-1.014,2.06-2.38,2.12a2.748,2.748,0,0,1-2.757-1.994,19.938,19.938,0,0,1-.443-2.28c-2.789.74-5.775.746-8.527,1.875a6.592,6.592,0,0,0-1.26.617A19.88,19.88,0,0,1,27.9,47.395c-.137.023-.271.068-.557.143-.051.54-.106,1.129-.169,1.823.423.043.777.108,1.132.111,4.04.034,8.084.1,12.124.074,5.358-.032,10.715-.14,16.073-.217a5.332,5.332,0,0,0,.7-.066,6.457,6.457,0,0,1,3.323.026,2.872,2.872,0,0,0,.98.037c4.232-.005,8.464-.023,12.7-.023q9.717,0,19.433.023c1.829.006,3.657.077,5.489.083,1.066,0,1.177-.117,1.417-1.146a2.835,2.835,0,0,0,.089-.554c.009-.609,0-1.22,0-2-1.1-.546-2.249-1.163-3.437-1.691a10.564,10.564,0,0,1-3.529-2.249c-.866-.9-1.932-1.614-2.866-2.454a14.319,14.319,0,0,1-3.246-4.575c-.966-2.032-1.889-4.089-2.786-6.155a17.687,17.687,0,0,1-.614-2.04c-.411.26-.786.54-1.2.746A2.264,2.264,0,0,1,79.5,25.2a16.383,16.383,0,0,1,.526-2.794A5.1,5.1,0,0,0,77,22.818a1.225,1.225,0,0,1-1.483-.108c-.234-2.089,1.246-3.278,2.506-4.561a6.885,6.885,0,0,1,.691-6.538c.94-1.354,1.746-1.511,3.257-.6.429-.457.857-.957,1.329-1.409,1.346-1.3,2.663-1,3.355.737a3.852,3.852,0,0,0,.18.357c2.752.02,2.675.417,3.092,2.477,1.609,1.418,3.04,2.689,4.486,3.943a8.151,8.151,0,0,0,1.352,1,4.085,4.085,0,0,0,4.032-.077,11.78,11.78,0,0,1,7.8-1.135,15.185,15.185,0,0,1,4.226,1.48,9.5,9.5,0,0,0,8.912.2,8.365,8.365,0,0,1,1.974-.729,13.039,13.039,0,0,0,5.766-2.8c1.089-.823,2.169-1.657,3.269-2.46,1.712-1.251,2.449-1.277,4.215-.194a.415.415,0,0,0,.131,0c1.572-.483,2.032-.1,1.609,1.5-.337,1.266-.849,2.486-1.3,3.717C136.237,18.069,136.023,18.486,135.786,19.029Z" transform="translate(49.724 47.415)" fill="#001d63"/>
        <path id="Path_2202" d="M9.9,1.12a4.8,4.8,0,0,0-2.18,1.089c-.523.543-1.414.283-2.149.057q-2.057-.63-4.12-1.235C1.066.92.669.86,0,.717.44.434.646.189.84.2A8.463,8.463,0,0,1,4.518.946a3,3,0,0,0,2.215.435L4.552.391,4.6.114A6.156,6.156,0,0,1,5.475,0C6.741.017,8.007.051,9.27.094c.577.02,1.074.134.771.912A.919.919,0,0,0,9.9,1.12" transform="translate(70.872 102.079)" fill="#001d63"/>
        <path id="Path_2203" d="M21.6.029c-.066,1.317-.083,1.274-1.1,1.671a4.927,4.927,0,0,0-1.683.975c-1.472,1.449-2.866,2.977-4.332,4.52a4.3,4.3,0,0,0,.326.6c1.746,2.275,3.532,4.517,5.229,6.823a4.059,4.059,0,0,0,3.02,2.063c.054.534.1.988.171,1.652-2.157.125-4.255.266-6.355.36-.983.043-1.974-.057-2.957.011-.909.063-1.437-.254-1.609-1.137.051-.1.071-.22.137-.255,1.4-.708,1.472-.965.554-2.177-.874-1.16-1.763-2.312-2.743-3.595Q7.723,14.433,5.388,17.1a1.691,1.691,0,0,0,.06.286c.214.383.683.832.6,1.132-.186.7-.92.463-1.452.486-1.08.043-2.16.051-3.24.057a3.025,3.025,0,0,1-.969-.1c-.466-.166-.48-.54-.226-.906a.985.985,0,0,1,.446-.337c1.68-.605,2.683-2.012,3.82-3.246,1.432-1.557,2.82-3.149,4.292-4.8C7.506,7.981,6.248,6.352,5.117,4.641A6.258,6.258,0,0,0,1.131,1.614C1.2,1.046,1.271.554,1.339,0h9.324c.626.863-.063,1.323-.589,1.995.88,1.06,1.769,2.126,2.777,3.334a19.933,19.933,0,0,0,2.617-2.937A1.361,1.361,0,0,0,15.6.929a2.592,2.592,0,0,1-.06-.9H21.6" transform="translate(114.609 141.189)" fill="#001d63"/>
        <path id="Path_2204" d="M.794,18.79c-.28-.78-.323-1.28.56-1.626a1.848,1.848,0,0,0,1.166-1.64c.094-1.354.257-2.709.231-4.063-.043-2.249-.337-4.5-.283-6.738.04-1.669-.509-2.7-2.077-3.215A1.851,1.851,0,0,1,0,1.245,1,1,0,0,1,1.174.2c3.283.029,6.569.089,9.852.066,1.92-.014,3.84-.171,5.763-.254.552-.023,1.1,0,1.786,0V8.115c-.371.023-.76.046-1.194.074C17.1,7.2,16.853,6.3,16.585,5.4c-.149-.495-.32-.98-.5-1.463a2.211,2.211,0,0,0-2.323-1.657c-1.077.054-2.16.009-3.232.1-1.034.086-1.486.494-1.512,1.5-.046,1.674.037,3.352.066,4.992,1.966.309,2.746-.034,3.58-1.5.209-.366.309-.794.537-1.143.137-.209.426-.323.886-.646.137,2.821.62,5.307.417,7.838-.009.14-.337.254-.589.431-.294-.62-.546-1.163-.809-1.7-.86-1.766-1.612-2.083-3.586-1.54,0,1.495-.086,2.986.049,4.461.049.506.609,1.009,1.026,1.42a4.541,4.541,0,0,0,1.112.612c.08.466.16.923.251,1.466a12.288,12.288,0,0,1-3.578.194c-1.266.063-2.537.017-3.8.02H.794" transform="translate(82.468 140.858)" fill="#001d63"/>
        <path id="Path_2205" d="M10.51,0V1.455A3.137,3.137,0,0,0,9.067,4.443c.074,3.38.126,6.763.066,10.144a2.736,2.736,0,0,0,1.3,2.709c.551.337.517.392.429,1.363H.554A1,1,0,0,1,.817,17.29,3.664,3.664,0,0,0,1.954,14.5c.057-3.1.126-6.2.137-9.3A4.353,4.353,0,0,0,0,1.646C.031,1.16.063.608.1,0H10.51" transform="translate(102.864 141.194)" fill="#001d63"/>
        <path id="Path_2206" d="M0,8.252V6.167a8.78,8.78,0,0,0,1.729-.891C3.746,3.54,5.712,1.746,7.666,0a1.839,1.839,0,0,1-.494,2.112Q4.283,4.877,1.323,7.564A6.967,6.967,0,0,1,0,8.252" transform="translate(179.192 118.766)" fill="#001d63"/>
        <path id="Path_2207" d="M.288,0A2.034,2.034,0,0,1,.665.14C1,.406,1.3.72.974,1.151a.636.636,0,0,1-.6.043C-.115.9-.1.5.288,0" transform="translate(104.7 84.549)" fill="#001d63"/>
        <path id="Path_2208" d="M1.569.354C1.137.636.894.922.68.905.44.885.226.585,0,.405.2.262.4.025.614,0s.469.16.954.351" transform="translate(131.839 63.513)" fill="#001d63"/>
        <path id="Path_2209" d="M25.621,35.46A16.54,16.54,0,0,0,32.2,33.211c1.709-.946,3.575-1.606,5.375-2.383A1.409,1.409,0,0,1,38,30.771a1.976,1.976,0,0,0,1.843-1c.32-.592,1.049-.952,1.3-1.766-.746.043-1.44.612-1.866-.311A3.1,3.1,0,0,1,41.3,25.7a1.046,1.046,0,0,0,.886-1.086c-.934-.069-1.986.883-2.735-.534l2.16-1.737c-.62-.477-1.66-.205-1.8-1.22.517-1.168,1.7-.626,2.62-.9-.657-1.163-2.023-1.574-2.38-2.846l.7-.528c-1.554-1.457-3-2.863-4.5-4.212a13.617,13.617,0,0,0-7.912-3.68c-2.94-.283-5.895-.423-8.835-.709a9.987,9.987,0,0,1-6.369-3.552C11.929,3.388,10.917,1.9,9.823.5,9.554.159,9.266-.138,8.731.068c-.746,1.091.677,2.171.091,3.4C7.86,2.78,7.483,1.491,6.105,1.39a3.665,3.665,0,0,0,.28,3.552A2.8,2.8,0,0,1,9.74,6.914c-.517-.423-.843-.723-1.206-.975-.423-.291-.869-.609-1.423-.3-.6.338-.6.883-.5,1.474.094.572.157,1.146.234,1.718A2.35,2.35,0,0,1,5.66,6.405a3.864,3.864,0,0,0-.94-2.937c-.12-.177-.434-.223-.76-.377a7.591,7.591,0,0,0-.1.946c.031.891.069,1.783.143,2.672.043.514-.183.663-.631.652L2.353,5.371a4.8,4.8,0,0,0-.083,3.941C3.414,8.24,3.522,8.194,4.157,8.5a2.148,2.148,0,0,1,1.252,2.152L3.816,9c-.974,1.817-.692,3.532-.469,5.292-.717-.472-.717-.472-1.12-1.555-.48-1.289-.886-1.577-2.223-1.56a5.761,5.761,0,0,0,1.72,4.577,9.947,9.947,0,0,1,2.486,4.189,2.991,2.991,0,0,0,.926,1.669,24.21,24.21,0,0,0,11.173,6.258,9.27,9.27,0,0,0,5.941-.332,6.033,6.033,0,0,0,3.978-6.915,11.484,11.484,0,0,1-.006-1.346,2.864,2.864,0,0,1,1.972,2.363,5.275,5.275,0,0,1-1.063,4.118,9.472,9.472,0,0,1-8.009,3.989,18.061,18.061,0,0,1-7.846-2.04,27.512,27.512,0,0,1-7.7-5.626,7.676,7.676,0,0,0-.657-.551,37.553,37.553,0,0,0,1.954,6.206,7.148,7.148,0,0,0,3.709,4.072c1.9.783,3.806,1.572,5.7,2.38,3.655,1.566,7.464,1.628,11.344,1.275" transform="translate(51.4 58.176)" fill="#52b9e4" fill-rule="evenodd"/>
        <path id="Path_2210" d="M7.812,10.086a4.547,4.547,0,0,1,.5-1.469c.269-.328.817-.431,1.146-.586-.5-.963-.994-1.86-1.426-2.789-.612-1.32-1.154-2.672-1.766-3.992C6.026.725,5.786.125,4.906.08c0,.557,0,1.052,0,1.549-.006.94.011,1.88-.049,2.817a.744.744,0,0,1-.489.543.766.766,0,0,1-.58-.455,14.034,14.034,0,0,1-.28-1.663c-.083-.512-.154-1.023-.26-1.529C3.155.892,3.02.446,2.906,0L2.552.034c-.229,1.9-.511,3.8-.651,5.712a6.415,6.415,0,0,0,.46,1.88c.023.091.077.2.049.271-.1.24-.174.586-.357.663a.876.876,0,0,1-.743-.169,2.008,2.008,0,0,1-.363-.729L.386,6.3a8.01,8.01,0,0,0,1.4,7.589l1.209-.257c.049-1.034.063-2,1.137-2.535a12.347,12.347,0,0,1-.483-1.491,3.723,3.723,0,0,1-.063-1.386c.2-1.017.869-1.306,1.769-.8A3.269,3.269,0,0,1,6.961,9.3c.149.463.306.888.852.783" transform="translate(50.965 49.136)" fill="#52b9e4" fill-rule="evenodd"/>
        <path id="Path_2211" d="M1.379,4.686C1.371,1.543,1.171.7.236,0c-.563,1.36.02,2.483.306,3.614.083.329.446.589.837,1.072" transform="translate(51.06 64.152)" fill="#52b9e4" fill-rule="evenodd"/>
        <path id="Path_2212" d="M0,.185.6,3.461,1.8,1.337.337,0Z" transform="translate(55.535 57.045)" fill="#52b9e4" fill-rule="evenodd"/>
        <path id="Path_2213" d="M2.663,4.909C2.8,6.772,1.929,8.332,1.477,10.13c1.786-.855,3.183-1.915,3.64-3.875-1.9-.72-1.98-.894-1.394-2.914.171-.6.311-1.2.494-1.9a2.887,2.887,0,0,0-.637.08c-1.552.8-1.6.783-2.312-.832C1.232.6,1.212.506,1.172.42.863-.235.5-.023,0,.371,1.066,1.814,2.523,2.926,2.663,4.909" transform="translate(105.79 78.374)" fill="#fff" fill-rule="evenodd"/>
        <path id="Path_2214" d="M2.1,4.68A3.767,3.767,0,0,0,1.935,0C1.481.177.846.237.509.589c-.78.809-.614,3.229.16,4.083A.875.875,0,0,0,2.1,4.68" transform="translate(97.3 87.3)" fill="#fff" fill-rule="evenodd"/>
        <path id="Path_2215" d="M0,0V2.949C1.1,1.563,1.094.477,0,0" transform="translate(104.553 89.058)" fill="#ca2a18" fill-rule="evenodd"/>
        <path id="Path_2216" d="M2.052,3.546C2.272,1.463,1.72.48,0,0Z" transform="translate(101.141 87.175)" fill="#ca2a18" fill-rule="evenodd"/>
        <path id="Path_2217" d="M1.371.617c.334.266.637.58.309,1.011a.636.636,0,0,1-.6.043C.591,1.374.6.974.994.477a2.045,2.045,0,0,1,.377.14M0,1.16A1.414,1.414,0,0,0,1.328,2.535c.551.02,1.109-.694,1.089-1.394A1.154,1.154,0,0,0,1.408,0,1.657,1.657,0,0,0,0,1.16Z" transform="translate(103.994 84.071)" fill="#52b9e4" fill-rule="evenodd"/>
        <path id="Path_2218" d="M0,13.09c1.689,3.006,3,6.123,5.572,8.572,2.752,2.614,6.121,3.946,9.467,5.395a7.4,7.4,0,0,0,1.932.352c2.14.277,4.283.537,6.423.8a6.217,6.217,0,0,0,3.3-.429c3.023-1.283,5.109-3.694,7.481-6.058-.594.074-1.046.12-1.5.188a26.952,26.952,0,0,1-6.423.694,28.822,28.822,0,0,0-3.1-.066c-3.586.1-6.169-1.712-8.249-4.383-1.546-1.986-.251-5.806,2.172-6.655.026-.009.071.048.151.108-.137.169-.28.335-.409.506-1.963,2.635-1.769,4.727.683,6.892a7.88,7.88,0,0,0,1.823,1.312,8.007,8.007,0,0,0,2.652.788,37.089,37.089,0,0,0,5.492.06c2.523-.189,5.049-.48,7.212-2.055a14.707,14.707,0,0,1,2.226-1.2c1.043-.517,2.117-.974,3.155-1.5a2.905,2.905,0,0,0,1.369-1.84c-.109-.1-.166-.188-.246-.223a2.273,2.273,0,0,0-2.683.62c-.4.391-.772.968-1.534.711,2.212-3.663,2.212-3.663,1.926-4.837l-2.286.746a2.7,2.7,0,0,1,2.563-1.357c.977.008.794.971,1.072,1.657a4.655,4.655,0,0,0,1.972-3.509L40.33,9.616c-.486-.223-.511-.494-.229-.894.543-.769,1.069-1.549,1.554-2.349a3.005,3.005,0,0,0,.2-.889A3.516,3.516,0,0,0,38.927,7.5a2.544,2.544,0,0,1-2.346,1.654c.44-.566.843-1.077,1.237-1.6A.967.967,0,0,0,37.9,6.266a1.823,1.823,0,0,0-1.1-.443,9.227,9.227,0,0,0-1.652.194c1.229-1,2.186-.974,3.883.026A3.8,3.8,0,0,0,40.9,2.992c-1.246-.423-2.217.4-3.366.577.06-1.4,1.957-1.637,1.717-3.186A2.939,2.939,0,0,0,38.307.4c-1.449.537-2.9,1.074-4.312,1.7a9.991,9.991,0,0,1-6.575.717,15.252,15.252,0,0,1-3.377-1.36A14.059,14.059,0,0,0,18.916.051a8.606,8.606,0,0,0-5.758,1.44c-.543.352-1.117.652-1.754,1.02C11.224,4.027,9.632,3.944,8.6,4.624c.186.357.374.674.514,1.011.386.909.031,1.457-.974,1.457a11.454,11.454,0,0,1-1.469-.209l.663,1.732A1.3,1.3,0,0,1,5.5,8.807C4.935,8.45,4.32,8.173,3.615,7.8c0,.74-.014,1.254.006,1.766.014.44.034.943-.5,1.006A2.113,2.113,0,0,1,2,10.244a3.952,3.952,0,0,1-.749-.68C.623,10.759,1.672,12.316,0,13.09" transform="translate(136.908 65.215)" fill="#52b9e4" fill-rule="evenodd"/>
        <path id="Path_2219" d="M2.566,0,0,3.346C1.214,3.332,2.44,1.829,2.566,0" transform="translate(177.723 75.267)" fill="#52b9e4" fill-rule="evenodd"/>
        <path id="Path_2220" d="M3.755,13.616c2.729-1,4.175-3.118,5.209-5.606l-.331-.3c-.44.4-.872.817-1.329,1.2a.762.762,0,0,1-1.134.009c-.4-.431-.063-.755.243-1.072a6.405,6.405,0,0,0,1.3-1.426c.7-1.431,1.274-2.923,1.872-4.4a3.786,3.786,0,0,0,.14-.854L9.412.955a4.1,4.1,0,0,1-.337.623c-.723.92-1.437,1.854-2.217,2.732-.2.223-.623.24-.946.354-.023-.337-.174-.743-.043-1C6.361,2.706,6.955,1.8,7.489.86A6.371,6.371,0,0,0,7.829,0,2.651,2.651,0,0,0,5.575.806L0,4.846C1.063,5.469.9,6.4.211,7.43c.346.02.554.094.7.028A3,3,0,0,0,1.589,7a3.382,3.382,0,0,1,2.649-.7A.842.842,0,0,1,5.049,7.39a4.242,4.242,0,0,1-.714,1.483,9.87,9.87,0,0,1-1.263,1.2c.892,1.043,0,1.92-.269,2.823Z" transform="translate(176.497 60.032)" fill="#52b9e4" fill-rule="evenodd"/>
        <path id="Path_2221" d="M.089,2.545A6.885,6.885,0,0,0,2.172.028,2.73,2.73,0,0,0,0,.585Z" transform="translate(178.515 66.973)" fill="#52b9e4" fill-rule="evenodd"/>
        <path id="Path_2222" d="M3.76.936C2.675-.4,1.254-.293,0,1.179Z" transform="translate(128.915 67.379)" fill="#ca2a18" fill-rule="evenodd"/>
        <path id="Path_2223" d="M0,2.191,3.032.353C2.357-.1,1.877-.1,1.434.247A3,3,0,0,0,0,2.191" transform="translate(126.684 66.045)" fill="#ca2a18" fill-rule="evenodd"/>
        <path id="Path_2224" d="M2.238,1.1c-.431.283-.674.569-.892.552-.237-.02-.451-.32-.677-.5.2-.143.4-.38.614-.4s.469.16.954.351M0,1.349A1.294,1.294,0,0,0,1.352,2.467c.689-.04.989-.417.98-1.232S2.018.021,1.361,0A1.48,1.48,0,0,0,0,1.349Z" transform="translate(131.169 62.765)" fill="#52b9e4" fill-rule="evenodd"/>
        <path id="Path_2225" d="M6.655,1.334A1.009,1.009,0,0,0,5.738.154C5.375.068,5,.04,4.746,0,3.043-.014.4,2.129.086,3.678A1.978,1.978,0,0,0,1.523,6.289a6.022,6.022,0,0,0,.649.266,3.432,3.432,0,0,0,3.552-.629c.9-.846,1.589-1.817,1.017-3.206a3.075,3.075,0,0,1-.086-1.386" transform="translate(98.41 125.827)" fill="#52b9e4" fill-rule="evenodd"/>
        <path id="Path_2226" d="M1.626,1.346A6.864,6.864,0,0,0,.063,4.889a2.723,2.723,0,0,0,1.383,3.1,14.272,14.272,0,0,0,2.392.934A5.2,5.2,0,0,0,9,3.178a1.97,1.97,0,0,0-.651-1.206A12.315,12.315,0,0,0,6.053.426a3.5,3.5,0,0,0-4.426.92" transform="translate(106.415 123.106)" fill="#52b9e4" fill-rule="evenodd"/>
        <path id="Path_2227" d="M.711,1.263A12.464,12.464,0,0,1,.148,4.137,2.021,2.021,0,0,0,.6,6.323a2.663,2.663,0,0,0,2.249.949A4.5,4.5,0,0,0,6.834,4.394a1.317,1.317,0,0,0,.083-.551C6.591,1.414,4.191-.766,1.508.26a1.063,1.063,0,0,0-.8,1" transform="translate(116.024 125.021)" fill="#52b9e4" fill-rule="evenodd"/>
        <path id="Path_2228" d="M16.936,17.591l.272-10.316.015-3.4L17.159,0,3.364,8.494,15.4,4.376l-8.24,7.353,8.661-3.464L4.89,18.05,15.9,11.815,2.529,25.085l13.19-9.074L0,33.067Z" transform="translate(174.715 148.348)" fill="#52b9e4" fill-rule="evenodd"/>
        <path id="Path_2229" d="M11.538,16.89h0l.037-.148c.58.528,1.152,1.071,1.743,1.589,3.352,2.911,7.5,4.6,11.073,7.163a21.72,21.72,0,0,1,5.223,4.523,11.667,11.667,0,0,0,3.137,2.923c-1.934-2.652-3.575-5.538-6.566-7.261-2.066-1.188-3.975-2.649-6.026-3.875-2.837-1.695-5.743-3.283-8.621-4.915M37.115,46.627c-.734-.254-1.386-.429-1.994-.7-.537-.243-.669-.614-.314-1.212a8.121,8.121,0,0,0,.8-7.352c-.606-1.589-3.249-2.752-4.763-1.269-1.8,1.757-3.763,3.352-5.583,5.095-1.957,1.872-3.932,3.658-6.6,4.5a6.5,6.5,0,0,1-5.7-.571c-2.612-1.557-5.426-2.777-8-4.066a10.659,10.659,0,0,0,1.98-.709,1.3,1.3,0,0,0,.149-2.329C5.818,37,4.472,36.081,3.249,35.023c-1.04-.9-1.957-1.949-2.929-2.929.063-.092.126-.183.189-.272q1.372.334,2.746.666A4.109,4.109,0,0,0,4.4,32.74a3.232,3.232,0,0,0,1.586-.392c.712-.5.686-1.231.166-2.06.663.129,1.329.237,1.983.395.406.1.786.308,1.194.406,1.112.271,2.226.546,3.349.748a2.5,2.5,0,0,0,2.557-.706,1.431,1.431,0,0,0-.511-2.32c-1.572-.732-3.183-1.374-4.746-2.123a12.271,12.271,0,0,1-5.123-4.232,10.137,10.137,0,0,1-.574-1.235c.4.094.6.163.814.192A1.518,1.518,0,0,0,6.846,20.7a1.831,1.831,0,0,0-.029-2.009q-2.8-3.717-5.666-7.384A10.485,10.485,0,0,1,0,9.8a8.476,8.476,0,0,1,1.38.223c.992.32,1.94.78,2.943,1.049a26.764,26.764,0,0,0,3.726.737,1.835,1.835,0,0,0,1.337-.514,1.41,1.41,0,0,0,.069-1.654C8.978,8.6,8.369,8.064,8.438,7.818c.026-.091.871.166,1.017.2,1.446.363,2.909.669,4.312,1.154a13.4,13.4,0,0,1,7.246,5.5c.629.992,1.312,1.952,2.009,2.9a1.556,1.556,0,0,0,.789.592c.371.091.946.14,1.152-.069a1.326,1.326,0,0,0,.251-1.194c-.917-2.052-1.943-4.055-2.895-6.092-.32-.686-.537-1.42-.8-2.132l.249-.14a2.725,2.725,0,0,1,.451.266c.5.452.954.954,1.48,1.374.957.76,2.026.532,2.3-.643a10.121,10.121,0,0,0,.226-3.563c-.18-1.383-.754-2.709-1.063-4.08A8.661,8.661,0,0,1,25.137.069L25.443,0C26.628,1.146,27.834,2.277,29,3.446a20.381,20.381,0,0,0,1.932,2.117,1.864,1.864,0,0,0,2.115.377,2.4,2.4,0,0,0,1.134-1.663,2.781,2.781,0,0,0-.066-1.257,6.429,6.429,0,0,1,2.146,2.166,38.363,38.363,0,0,1,2.232,4.049c1.2,2.355,2.052,4.855,1.506,7.492a41.785,41.785,0,0,1-2.017,6.212c-.86,2.274-1.96,4.463-2.752,6.758a13.07,13.07,0,0,0-.5,3.818,2.5,2.5,0,0,0,.66,1.592,8.13,8.13,0,0,1,2.054,6.238c-.094,1.569-.126,3.14-.191,4.712A4.05,4.05,0,0,1,37.115,46.627Z" transform="translate(57.46 0)" fill="#ca2a18"/>
    </g>
</svg>
