<svg xmlns="http://www.w3.org/2000/svg" width="40.054" height="61.315" viewBox="0 0 40.054 61.315">
    <g id="_"  transform="translate(1264.706 504.058) rotate(176)">
        <path id="Path_791" d="M1229.759,543.474s-3.6,1.748-10.94-1.614l-20.029-9.485s2.554-2.406,4.157-2.556,22.928,9.859,22.928,9.859,3.4,1.777,3.884,3.8" fill="#002677" fill-rule="evenodd"/>
        <path id="Path_792" d="M1224.644,571.756a10.271,10.271,0,0,0-3.8-7.732c-3.842-2.884-19.188-15.078-29.037-17.333-9.864-2.259,30.19,24.335,30.19,24.335s1.492,1.1,2.644.73" fill="#002677" fill-rule="evenodd"/>
        <path id="Path_793" d="M1209.3,588.4s1.524-4.365-12.132-19.922c0,0-9.313-12.9-8.65-6.762S1203.3,588.44,1209.3,588.4" fill="#002677" fill-rule="evenodd"/>
    </g>
</svg>
