<svg xmlns="http://www.w3.org/2000/svg" width="107.243" height="92.998" viewBox="0 0 107.243 92.998">
    <g id="poul-poul" transform="translate(0 0)">
        <path id="Path_2653" d="M-48.373,1024.557c-1.3-.273-1.966.591-2.852.807s-1.782.5-2.665.78c-.861.273-1.843.256-2.618,1.041,1.161,2.064,1.006,4.191.49,6.4-.6,2.564-1.011,5.17-1.511,7.759a4.806,4.806,0,0,1-1.28,3.081,3.608,3.608,0,0,1-1.09.62.957.957,0,0,1-1.206-.608,4.977,4.977,0,0,1-.29-1.245,34.106,34.106,0,0,1-.209-4.9c.209-2.623.662-5.227,1.021-7.835.116-.837.258-1.671.411-2.657-.551-.044-.945-.079-1.339-.1a13.14,13.14,0,0,1-1.9-.121c-1.07-.226-2.038-.585-2.207-1.944-.071-.583-.876-.974-.549-1.856.251-.061.573-.165.906-.216,5-.79,9.92-1.979,14.829-3.192.829-.207,1.683-.31,2.51-.514a5.635,5.635,0,0,1,3.325.531,2.544,2.544,0,0,1,1.262,1.354,5.4,5.4,0,0,1,.394,2.276,13.121,13.121,0,0,1-.514,3.153c-1.122,3.686-1.949,7.442-2.8,11.194a10.956,10.956,0,0,1-1.169,2.953,4.659,4.659,0,0,1-1.538,1.41,1.089,1.089,0,0,1-1.58-.6,3.046,3.046,0,0,1-.217-1.038,31.789,31.789,0,0,1,.133-3.627,82.625,82.625,0,0,1,2.065-11.775,11.281,11.281,0,0,0,.185-1.129" transform="translate(67.968 -996.724)" fill="#001d63"/>
        <path id="Path_2654" d="M-53.931,1023.049l.93.305c.308-.28.669-.6,1.019-.93.726-.687,1.459-1.361,2.166-2.07a2.123,2.123,0,0,1,1.971-.536,11.417,11.417,0,0,1,5.7,2.756,4.529,4.529,0,0,1,1.083,1.8,13.167,13.167,0,0,1,.758,4.4,6.711,6.711,0,0,1-1.651,4.737,17.022,17.022,0,0,1-5.744,4.7c-3.521,1.634-6.2.234-7.474-2.857a6.129,6.129,0,0,0-.9-1.91,1.606,1.606,0,0,1-.256-1,18.741,18.741,0,0,1,1.892-8.684,7.2,7.2,0,0,1,.5-.709m1.892,10.763a5.192,5.192,0,0,0,3.01-1.449,7.092,7.092,0,0,0,2.81-3.416c.317-1.021,1.171-1.981.78-3.194a2.928,2.928,0,0,0-2.21.677q-1.942,1.5-3.817,3.093a1.907,1.907,0,0,0-.664,1.051A5.673,5.673,0,0,0-52.039,1033.813Z" transform="translate(82.464 -996.698)" fill="#001d63"/>
        <path id="Path_2655" d="M-44.959,1043.161a6.884,6.884,0,0,1,1-3.991,20.417,20.417,0,0,1,4.181-5.372,7.514,7.514,0,0,1,6.253-1.775,4.459,4.459,0,0,0-.01-1.011q-1.429-5.817-2.891-11.623a11.219,11.219,0,0,0-.472-1.641,3.681,3.681,0,0,0-.719-.992c-.276-.308-.7-.512-.9-.854a1.773,1.773,0,0,1-.224-1.181c.118-.5.647-.391,1.075-.421a3.954,3.954,0,0,1,3.588,1.885,10.6,10.6,0,0,1,1.755,3.874c.635,2.559,1.184,5.14,1.789,7.7.492,2.082,1.019,4.154,1.526,6.228a7.43,7.43,0,0,0,1.3,2.663c.8,1.093,1.491,2.259,2.23,3.393,1.435,2.2,1.932,4.737,2.537,7.227a1.526,1.526,0,0,1-.834,1.787,1.652,1.652,0,0,1-1.964-.344,35.007,35.007,0,0,1-2.8-4.023,41.384,41.384,0,0,1-1.878-4.3c-.246-.593-.428-1.213-.677-1.8-.519-1.24-.982-1.494-2.328-1.25a4.459,4.459,0,0,0-1.432.413c-1.538.883-3.293,1.393-4.6,2.673a1.978,1.978,0,0,1-.492.406c-1.632.77-3.273,1.526-5.018,2.333" transform="translate(99.038 -1004.71)" fill="#001d63"/>
        <path id="Path_2656" d="M-48.656,1031.945c-.027-2.254-.879-4-.689-6.639a.8.8,0,0,0-.025-.421c-.8-1.5.263-2.562.911-3.677a1.781,1.781,0,0,1,2.771-.352,3.466,3.466,0,0,1,1.243,1.942c.308,1.391.615,2.783.943,4.169a3.633,3.633,0,0,0,.967,2.19,6.363,6.363,0,0,0,1.358-2.422c.335-.787.657-1.58,1-2.365q.554-1.273,1.137-2.532a8.793,8.793,0,0,1,1.213-2.313c.172.251.359.4.369.561.071,1.206.118,2.414.153,3.625a12.834,12.834,0,0,1-.556,4.424,4.757,4.757,0,0,0-.3,1.24,7.958,7.958,0,0,1-1.2,3.381c-2.4,4.587-8.5,4.4-9.3-.812" transform="translate(92.2 -997.065)" fill="#001d63"/>
        <path id="Path_2657" d="M-45.968,1022.67a1.493,1.493,0,0,0,.327-.182.881.881,0,0,0,.256-.364,48.016,48.016,0,0,1,2.293-5.931.544.544,0,0,0-.743-.148,10.949,10.949,0,0,0-1.223.558,6.119,6.119,0,0,0-1.666,1.257,3.367,3.367,0,0,0-.477,3.645c.209.6.773.861,1.233,1.164" transform="translate(95.327 -1002.272)" fill="#001d63"/>
        <path id="Path_2658" d="M-34.06,1034.342c-1.122-.234-1.7.512-2.463.7s-1.54.433-2.3.674a4.6,4.6,0,0,0-2.264.9,7.314,7.314,0,0,1,.423,5.532c-.519,2.215-.874,4.469-1.3,6.7a4.162,4.162,0,0,1-1.107,2.663,3.094,3.094,0,0,1-.942.539.828.828,0,0,1-1.041-.527,4.327,4.327,0,0,1-.251-1.075,29.837,29.837,0,0,1-.182-4.235c.182-2.267.573-4.516.883-6.772.1-.723.224-1.445.357-2.3-.48-.037-.819-.069-1.159-.091a11.046,11.046,0,0,1-1.641-.1c-.923-.194-1.762-.507-1.907-1.681-.062-.5-.755-.842-.475-1.6.217-.054.5-.143.783-.187,4.321-.684,8.574-1.71,12.816-2.758.716-.177,1.454-.268,2.168-.446a4.911,4.911,0,0,1,2.874.458,2.216,2.216,0,0,1,1.09,1.171,4.625,4.625,0,0,1,.34,1.967,11.208,11.208,0,0,1-.443,2.726c-.97,3.187-1.683,6.43-2.417,9.674a9.467,9.467,0,0,1-1.009,2.552,4.069,4.069,0,0,1-1.329,1.221.944.944,0,0,1-1.366-.519,2.639,2.639,0,0,1-.187-.9A27.093,27.093,0,0,1-36,1045.5a71.685,71.685,0,0,1,1.782-10.178,8.883,8.883,0,0,0,.16-.977" transform="translate(92.423 -981.475)" fill="#001d63"/>
        <path id="Path_2659" d="M-38.863,1033.039c.249.081.472.155.8.266.266-.244.578-.519.881-.8.628-.593,1.26-1.176,1.87-1.789a1.841,1.841,0,0,1,1.705-.463,9.871,9.871,0,0,1,4.929,2.382,3.88,3.88,0,0,1,.935,1.553,11.425,11.425,0,0,1,.657,3.807,5.812,5.812,0,0,1-1.427,4.094,14.708,14.708,0,0,1-4.963,4.061c-3.047,1.41-5.355.2-6.46-2.469a5.363,5.363,0,0,0-.775-1.651,1.381,1.381,0,0,1-.221-.869,16.189,16.189,0,0,1,1.636-7.5,6.607,6.607,0,0,1,.428-.615m1.636,9.3a4.49,4.49,0,0,0,2.6-1.255,6.125,6.125,0,0,0,2.429-2.95c.273-.884,1.011-1.713.672-2.759a2.511,2.511,0,0,0-1.907.583q-1.68,1.3-3.3,2.675a1.608,1.608,0,0,0-.576.908A4.9,4.9,0,0,0-37.227,1042.344Z" transform="translate(104.951 -981.453)" fill="#001d63"/>
        <path id="Path_2660" d="M-31.108,1050.423a5.931,5.931,0,0,1,.864-3.448,17.578,17.578,0,0,1,3.612-4.644,6.485,6.485,0,0,1,5.4-1.533,3.846,3.846,0,0,0-.007-.876q-1.233-5.023-2.5-10.042a9.5,9.5,0,0,0-.408-1.42,3.219,3.219,0,0,0-.62-.859c-.239-.263-.605-.441-.773-.736a1.526,1.526,0,0,1-.2-1.021c.106-.431.561-.34.933-.365a3.42,3.42,0,0,1,3.1,1.632,9.159,9.159,0,0,1,1.516,3.347c.546,2.21,1.021,4.439,1.545,6.659.426,1.8.881,3.588,1.317,5.382a6.445,6.445,0,0,0,1.13,2.3c.689.942,1.287,1.954,1.927,2.933a19.391,19.391,0,0,1,2.193,6.246,1.318,1.318,0,0,1-.721,1.543,1.429,1.429,0,0,1-1.7-.3,29.727,29.727,0,0,1-2.419-3.477,35.018,35.018,0,0,1-1.622-3.721c-.217-.512-.372-1.045-.586-1.555-.45-1.073-.849-1.292-2.013-1.083a3.957,3.957,0,0,0-1.238.357c-1.329.763-2.847,1.206-3.977,2.311a1.7,1.7,0,0,1-.426.352c-1.41.665-2.83,1.317-4.336,2.015" transform="translate(119.274 -988.377)" fill="#001d63"/>
        <path id="Path_2661" d="M-34.3,1040.729c-.022-1.949-.758-3.46-.6-5.739a.693.693,0,0,0-.022-.365c-.694-1.294.229-2.214.787-3.174a1.54,1.54,0,0,1,2.4-.305,3.01,3.01,0,0,1,1.073,1.676c.266,1.2.532,2.406.815,3.605a3.129,3.129,0,0,0,.837,1.892,5.589,5.589,0,0,0,1.174-2.094c.288-.679.566-1.366.861-2.042q.48-1.1.984-2.19a7.619,7.619,0,0,1,1.048-2c.148.216.31.347.317.485.062,1.043.1,2.087.133,3.132a11.141,11.141,0,0,1-.48,3.827,4.026,4.026,0,0,0-.261,1.07,6.873,6.873,0,0,1-1.034,2.921c-2.074,3.964-7.35,3.8-8.035-.7" transform="translate(113.364 -981.77)" fill="#001d63"/>
        <path id="Path_2662" d="M-31.981,1032.713a1.221,1.221,0,0,0,.283-.157.8.8,0,0,0,.224-.315,41.3,41.3,0,0,1,1.979-5.126.471.471,0,0,0-.64-.128,9.536,9.536,0,0,0-1.058.485,5.261,5.261,0,0,0-1.44,1.085,2.911,2.911,0,0,0-.413,3.15c.182.517.669.745,1.066,1.006" transform="translate(116.067 -986.269)" fill="#001d63"/>
        <path id="Path_2663" d="M-53.952,1013.4c-.571-.305-1.034.027-1.489.015s-.928.008-1.4.025a2.7,2.7,0,0,0-1.415.157,4.5,4.5,0,0,1-.856,3.179c-.719,1.169-1.356,2.382-2.033,3.573a2.691,2.691,0,0,1-1.13,1.329,1.845,1.845,0,0,1-.62.157.438.438,0,0,1-.468-.455,2.575,2.575,0,0,1,.071-.644,18.844,18.844,0,0,1,.733-2.414c.546-1.248,1.2-2.453,1.816-3.676.2-.391.406-.778.645-1.238-.253-.094-.433-.165-.615-.229a6.01,6.01,0,0,1-.879-.313c-.47-.251-.866-.556-.716-1.24.064-.293-.249-.59.054-.974a4.469,4.469,0,0,1,.465.015c2.5.283,5.035.359,7.565.423.428.01.849.074,1.277.084a2.612,2.612,0,0,1,1.484.7,1.188,1.188,0,0,1,.367.827,2.824,2.824,0,0,1-.2,1.159,7.114,7.114,0,0,1-.78,1.467c-1.157,1.646-2.185,3.361-3.224,5.077a6.186,6.186,0,0,1-1.056,1.28,2.542,2.542,0,0,1-.967.482.5.5,0,0,1-.645-.5,1.507,1.507,0,0,1,.074-.534,16.316,16.316,0,0,1,.677-1.747,45.978,45.978,0,0,1,2.978-5.456c.1-.145.165-.31.281-.527" transform="translate(72.186 -1010.024)" fill="#001d63"/>
        <path id="Path_2664" d="M-56.052,1012.492l.389.273c.194-.094.421-.2.642-.315.46-.239.923-.47,1.376-.719a1.063,1.063,0,0,1,1.026,0,5.16,5.16,0,0,1,2.232,2.1,2.177,2.177,0,0,1,.207,1.021,6.9,6.9,0,0,1-.389,2.244,3.758,3.758,0,0,1-1.587,2.084,9.28,9.28,0,0,1-3.517,1.521,2.346,2.346,0,0,1-3.054-2.385,3.026,3.026,0,0,0-.1-1.051.8.8,0,0,1,.049-.522,10.411,10.411,0,0,1,2.37-3.974c.1-.1.229-.179.354-.281m-.93,5.493a2.7,2.7,0,0,0,1.671-.305,3.951,3.951,0,0,0,1.91-1.287c.325-.455.893-.807.913-1.449a1.462,1.462,0,0,0-1.162.034c-.783.312-1.563.645-2.333,1a1.051,1.051,0,0,0-.492.421A3.059,3.059,0,0,0-56.982,1017.985Z" transform="translate(78.767 -1008.643)" fill="#001d63"/>
        <path id="Path_2665" d="M-53.633,1023.542a3.831,3.831,0,0,1,1.152-1.809,11.322,11.322,0,0,1,2.891-2.057,3.744,3.744,0,0,1,3.261-.03,2.344,2.344,0,0,0,.167-.495q.314-3.019.605-6.041a5.664,5.664,0,0,0,.054-.861,1.723,1.723,0,0,0-.17-.579c-.079-.187-.244-.342-.281-.536a.925.925,0,0,1,.094-.6c.143-.227.374-.106.583-.062a1.79,1.79,0,0,1,1.378,1.4,5.208,5.208,0,0,1,.172,2.119c-.133,1.329-.313,2.658-.46,3.989-.121,1.075-.224,2.156-.337,3.233a3.656,3.656,0,0,0,.167,1.469c.192.637.322,1.3.477,1.949a11.264,11.264,0,0,1-.025,3.854.846.846,0,0,1-.7.758.766.766,0,0,1-.871-.428,16.3,16.3,0,0,1-.642-2.333,19.958,19.958,0,0,1-.157-2.343c-.017-.322,0-.647-.015-.97-.037-.672-.212-.856-.891-.918a2.242,2.242,0,0,0-.748.01,10.917,10.917,0,0,0-2.633.689,1.032,1.032,0,0,1-.3.131c-.906.157-1.811.305-2.773.468" transform="translate(86.391 -1010.398)" fill="#001d63"/>
        <path id="Path_2666" d="M-55.379,1017.7a31.547,31.547,0,0,1,.8-3.322.429.429,0,0,0,.059-.209c-.126-.837.561-1.211,1.056-1.666a.872.872,0,0,1,1.373.2,1.667,1.667,0,0,1,.258,1.11c-.091.719-.182,1.437-.261,2.156a1.787,1.787,0,0,0,.084,1.194,3.6,3.6,0,0,0,1.056-1c.293-.34.578-.682.874-1.016q.48-.546.97-1.083a4.982,4.982,0,0,1,.967-.965c.039.145.1.244.079.322-.172.6-.354,1.191-.544,1.784a7.1,7.1,0,0,1-1.014,2.082,2.658,2.658,0,0,0-.354.561,4.432,4.432,0,0,1-1.139,1.486c-1.917,1.912-4.772,1.006-4.265-1.634" transform="translate(83.754 -1007.695)" fill="#001d63"/>
        <path id="Path_2667" d="M-53.066,1013.661a.747.747,0,0,0,.185-.044.538.538,0,0,0,.185-.143,26.37,26.37,0,0,1,2.092-2.581c-.071-.195-.2-.185-.327-.17a5.841,5.841,0,0,0-.674.108,3.3,3.3,0,0,0-1,.391,1.834,1.834,0,0,0-.844,1.708,1.16,1.16,0,0,0,.386.731" transform="translate(86.656 -1009.933)" fill="#001d63"/>
        <path id="Path_2668" d="M-52.137,1060.861c.209-.2.332-.33.472-.445a17.161,17.161,0,0,0,2.618-3.027,30.265,30.265,0,0,0,2.717-4.2,18.726,18.726,0,0,0,.96-1.843,12.555,12.555,0,0,0,1.272-4.6,2.658,2.658,0,0,0-.086-.453l-.155-.015c-.251.532-.5,1.066-.758,1.592-.605,1.24-1.157,2.515-1.843,3.711-.768,1.344-1.617,2.648-2.51,3.91-.819,1.157-1.732,2.244-2.628,3.344-.293.359-.682.64-.992.989-.167.19-.244.456-.4.662a.493.493,0,0,1-.332.2,11.729,11.729,0,0,1-2.648-.052,20.852,20.852,0,0,0-4.2-.234,1.7,1.7,0,0,1-.352-.1l-.015-.113c.276-.13.559-.248.827-.393a5.156,5.156,0,0,0,1.12-.674c1.238-1.2,2.473-2.414,3.64-3.689,1.339-1.459,2.608-2.985,3.9-4.489.4-.465.733-1,1.174-1.42a18.963,18.963,0,0,1,2.047-1.718c.741-.534,1.543-.984,2.333-1.447a2.18,2.18,0,0,1,.581-.133c.539-.13.687-.5.783-1.038.084-.455-.133-.95.224-1.388.138-.17.039-.522.084-.782a6.325,6.325,0,0,1,.2-.714,1.456,1.456,0,0,0,.113-.372c0-.588-.03-1.174-.047-1.759,0-.081.017-.177-.02-.239-.342-.573-.022-1.11.084-1.656a.345.345,0,0,1,.1-.17c.236-.214.177-.386.032-.66a1.929,1.929,0,0,1-.241-1.056,2.482,2.482,0,0,0-.3-1.494c-.212-.386-.2-.44.2-.537.3-.071.6-.234.869.027a2.339,2.339,0,0,1,.807,1.351,3.566,3.566,0,0,0,.2.622c.012.037.062.074.057.1-.086.652.3,1.233.313,1.85.037,1.986.02,3.972,0,5.958a5.129,5.129,0,0,1-.185.755c-.052.312-.054.632-.108.942a2.79,2.79,0,0,1-.2.743.737.737,0,0,0,.327,1.038,1.066,1.066,0,0,1,.586,1.024c-.022,1.188-.034,2.379-.113,3.565a4.882,4.882,0,0,1-.362,1.3,19.679,19.679,0,0,1-.815,1.986c-.529,1.056-1.073,2.109-1.7,3.108a14.5,14.5,0,0,1-1.447,1.75.733.733,0,0,1-.384.187,25.308,25.308,0,0,1-5.283.293,2.852,2.852,0,0,1-.527-.116" transform="translate(75.618 -975.544)" fill="#ca2a18"/>
        <path id="Path_2669" d="M-61.584,1045.145c.8.1,1.521.194,2.237.283.492.061.982.13,1.474.175q1.8.158,3.6.3c1.334.105,2.665.251,4,.3,1.474.052,2.951.012,4.427.012a1.725,1.725,0,0,1,.359.01.352.352,0,0,1,.209.147c.017.025-.062.133-.113.182a21.308,21.308,0,0,1-3.325,2.628c-.763.482-1.513.991-2.3,1.434-.92.517-1.855,1.014-2.818,1.445a9.025,9.025,0,0,1-1.536.376c-.128.03-.246.106-.377.131a1.06,1.06,0,0,1-.536.049c-.532-.219-1.051-.478-1.565-.741a7.715,7.715,0,0,1-2.412-2.011,20.649,20.649,0,0,1-2.377-3.959.557.557,0,0,1,.162-.526,4.2,4.2,0,0,1,.886-.231" transform="translate(73.216 -959.639)" fill="#ca2a18"/>
        <path id="Path_2670" d="M-52.146,1037.7c.315.148.642.318.984.46a.746.746,0,0,0,.406.052,6.368,6.368,0,0,0,.763-.214c.637-.2,1.267-.43,1.91-.608a8.054,8.054,0,0,1,2.535-.229c.177.007.322.074.3.276-.022.222.017.512-.3.566-.554.1-1.115.165-1.673.244a12.48,12.48,0,0,0-2.476.524c-.31.11-.625.2-.942.3a1.1,1.1,0,0,0-.711.746c-.224.581-.421,1.171-.657,1.747a.848.848,0,0,1-.342.342,6.329,6.329,0,0,1-1.326.736,3.549,3.549,0,0,0-1.011.507c-.335.241-.652,0-.974-.062-.084-.015-.187-.056-.251-.024a2.809,2.809,0,0,1-1.7.035c-.123-.015-.244-.074-.369-.091-.733-.1-1.479-.135-2.2-.3a4.822,4.822,0,0,1-1.336-.6c-.923-.537-1.821-1.115-2.727-1.681a.609.609,0,0,1-.177-.15c-.126-.172-.081-.3.13-.332.5-.076,1-.15,1.506-.212a.764.764,0,0,0,.684-.362c-.281-.014-.527-.027-.773-.047-.4-.035-.8-.089-1.2-.1a2.2,2.2,0,0,0-.576.079.413.413,0,0,1-.512-.226c-.226-.4-.48-.783-.689-1.189a3.286,3.286,0,0,1-.386-.989,2.664,2.664,0,0,0-.342-.825c-.03-.061-.089-.118-.091-.18a10.234,10.234,0,0,1-.234-2.653,8.045,8.045,0,0,1,.3-1.029.569.569,0,0,1,.189-.29,2.706,2.706,0,0,1,.475-.192,3.8,3.8,0,0,1,.13.364c.18.7.327,1.4.541,2.089a7.762,7.762,0,0,0,1.88,2.722,20.414,20.414,0,0,0,1.506,1.592,6.878,6.878,0,0,0,1.494,1.054c.556.278,1.194.384,1.779.608a9.392,9.392,0,0,0,2.783.246,1.931,1.931,0,0,0,.632-.165.8.8,0,0,1,.1-.052c.44-.083.883-.16,1.321-.246.16-.032.315-.087.47-.128.1-.029.207-.047.308-.079.15-.047.3-.106.445-.155.089-.027.185-.037.273-.066s.189-.084.283-.125a2.555,2.555,0,0,0-.3-.074.65.65,0,0,0-.2.035,5.611,5.611,0,0,1-.91.172,29.523,29.523,0,0,1-3.736.227,1.443,1.443,0,0,1-.721-.162,3.922,3.922,0,0,0-.817-.263c-.305-.108-.6-.268-.908-.354a5.08,5.08,0,0,1-1.651-1.006,7.363,7.363,0,0,1-1.1-1.046,1.073,1.073,0,0,1-.194-.62c-.034-.571-.017-1.147-.037-1.723-.025-.632-.071-1.265-.1-1.9-.01-.229.16-.258.293-.15a9.159,9.159,0,0,1,.775.738c.1.1.15.251.249.357a10.467,10.467,0,0,0,1.457,1.685c.308.217.645.4.97.591.2.121.4.244.6.357a1.4,1.4,0,0,0,.219.064c.138.047.276.1.413.15.037.012.066.044.1.049.564.079,1.125.187,1.691.219.684.037,1.376-.04,2.052.032a2.667,2.667,0,0,1,1.59.633c.062.059.059.187.1.315" transform="translate(66.945 -979.256)" fill="#ca2a18"/>
        <path id="Path_2671" d="M-64,1036.443a2.965,2.965,0,0,1-.4-.31,6.92,6.92,0,0,1-1.71-3.292,5.5,5.5,0,0,1-.1-1,.333.333,0,0,1,.224-.236,3.994,3.994,0,0,1,1.043.015c.14.027.261.273.345.443a.914.914,0,0,1,.037.4,13.7,13.7,0,0,0,.507,3.46c.034.158.1.305.145.458l-.084.064" transform="translate(68.013 -979.465)" fill="#ca2a18"/>
        <path id="Path_2672" d="M-21.773,1019.816h0l-.106-.076a9.226,9.226,0,0,0-.731.761c-.29.381-.539.795-.8,1.2-.091.135-.167.283-.251.423a3.849,3.849,0,0,1-.379.6c-.44.473-.91.916-1.358,1.381-.14.14-.221.354-.379.46-.45.3-.938.544-1.39.839-.391.258-.743.578-1.142.824-.514.315-1.051.588-1.585.861-.332.17-.677.312-1.019.46s-.714.281-1.063.438a6.556,6.556,0,0,1-1.619.7c-.049.007-.089.076-.194.175a1.581,1.581,0,0,0,1.075-.047c.514-.207,1.034-.4,1.55-.59.748-.278,1.511-.519,2.244-.837a15.766,15.766,0,0,0,3.568-2.419,4.708,4.708,0,0,0,.795-.77c.436-.568.827-1.171,1.235-1.762.212-.3.428-.6.632-.913.081-.123.126-.273.2-.4.236-.436.48-.869.719-1.3m-8.793,10.606.554-1.063c.037-.067.113-.128.118-.194a.568.568,0,0,0-.052-.359.322.322,0,0,0-.317-.04,8.1,8.1,0,0,0-.79.778c-.258.3-.472.64-.733.938a.472.472,0,0,1-.364.086,4.773,4.773,0,0,1-.568-.153c-.536-.138-1.075-.258-1.609-.406-.249-.071-.349-.362-.231-.7a.385.385,0,0,0-.076-.44c-.325-.386-.3-.512.012-.92s.566-.832.864-1.238a2.463,2.463,0,0,1,.443-.433c.2-.165.423-.3.623-.463.559-.458,1.088-.952,1.673-1.371.342-.246.795-.335,1.152-.566.463-.3,1.068-.273,1.467-.7a4.241,4.241,0,0,1,.381-.3,15.147,15.147,0,0,0,1.4-1.225,12.048,12.048,0,0,0,1.011-1.445q.7-1.041,1.378-2.092a.527.527,0,0,0,.111-.268,1.085,1.085,0,0,1,.212-.837c.032-.039,0-.135-.007-.212-.674.2-.78.167-1.026-.369.359-.1.711-.182,1.056-.283.384-.111.758-.246,1.142-.349a2.992,2.992,0,0,1,.541-.054,2.119,2.119,0,0,1-.121.581,2.2,2.2,0,0,1-.413.445l.062.1c.224-.126.448-.251.726-.409a1.828,1.828,0,0,1-.256.8c-.138.323-.288.642-.4.972-.03.089.052.214.084.322.1-.039.224-.052.285-.123.406-.475.8-.962,1.2-1.447a2.4,2.4,0,0,1,.519-.514,2.085,2.085,0,0,1-.037.216,3.588,3.588,0,0,0-.167,1.851c.042.17.106.187.3.229.514.118.556-.214.706-.536a8.2,8.2,0,0,1,.591-.878,1.251,1.251,0,0,0,.076-.278c.037-.113.086-.219.153-.386a8.1,8.1,0,0,0,.389.856,2.28,2.28,0,0,1,.2,1.221c0,.332.037.662.034.992a.79.79,0,0,1-.111.271c-.1-.047-.236-.067-.3-.145s-.057-.239-.121-.337a.986.986,0,0,0-.258-.207,2.017,2.017,0,0,0-.162.246c-.069.153-.128.31-.185.468-.022.057-.057.143-.032.177.221.315.007.536-.148.773-.054.081-.143.167-.143.253a4.368,4.368,0,0,1-.824,1.91,18.855,18.855,0,0,1-1.166,2.047,9.5,9.5,0,0,1-1.314,1.516,19.245,19.245,0,0,1-1.947,1.634,13.093,13.093,0,0,1-1.58.866c-.4.209-.79.426-1.2.608a6.439,6.439,0,0,1-1.021.349c-.549.135-1.107.231-1.664.344Z" transform="translate(113.803 -1002.59)" fill="#ca2a18"/>
    </g>
</svg>
