<svg xmlns="http://www.w3.org/2000/svg" width="51.285" height="33.362" viewBox="0 0 51.285 33.362">
    <g id="stay-true" transform="translate(-1380.43 -196.073)">
        <path id="Path_2789" d="M1424.208,199.892h-36.273a3.714,3.714,0,0,1-3.438,3.438v18.849a3.713,3.713,0,0,1,3.438,3.436h36.273a3.711,3.711,0,0,1,3.438-3.436V203.33a3.712,3.712,0,0,1-3.438-3.438" fill="#002675" fill-rule="evenodd"/>
        <path id="Path_2790" d="M1380.43,196.073h0v0Zm0,33.362h51.285V196.073H1380.43Zm48.209-6.532h-.268a3.259,3.259,0,0,0-3.254,3.254v.267h-38.092v-.267a3.259,3.259,0,0,0-3.254-3.254h-.267V202.6h.267a3.257,3.257,0,0,0,3.254-3.254v-.267h38.092v.267a3.257,3.257,0,0,0,3.254,3.254h.268Z" fill="#002675" fill-rule="evenodd"/>
        <path id="Path_2791" d="M1398.137,205.506c.087.059.178.115.266.176.115.081.23.165.345.251.215.159.419.334.642.486a1.482,1.482,0,0,1,.326.259,1.257,1.257,0,0,0,.17.136.149.149,0,0,1,.056.173c-.017.064-.038.132-.119.148a.054.054,0,0,0-.028.019,1.06,1.06,0,0,1-.239.208,2.077,2.077,0,0,0-.16.138c-.152.129-.3.265-.461.387-.126.1-.261.179-.393.27-.1.069-.192.138-.285.208-.053.039-.1.075-.156.114a.7.7,0,0,0-.121.117c.032,0,.062,0,.094,0l.332-.01c.027,0,.055-.008.085-.008.158,0,.316,0,.474,0,.024,0,.047.021.069.024a.564.564,0,0,0,.1-.007.805.805,0,0,1,.223-.022,1.74,1.74,0,0,0,.338-.008,2.24,2.24,0,0,1,.295-.011,1.31,1.31,0,0,0,.314-.011c.1-.01.208,0,.311,0s.2-.014.3-.012.188.016.281.023a.065.065,0,0,0,.039,0,1.751,1.751,0,0,1,.409-.025c.032,0,.066,0,.1,0a.155.155,0,0,1,.178.152.592.592,0,0,1,0,.265.12.12,0,0,0,.012.073.158.158,0,0,1-.083.232.1.1,0,0,1-.032.01c-.089.007-.18.015-.269.015a2.452,2.452,0,0,1-.383-.021.287.287,0,0,0-.093,0,3.33,3.33,0,0,1-.506.047c-.095,0-.188.012-.282.015h-.058a.941.941,0,0,0-.257-.015c-.075.018-.156-.029-.225.028a.327.327,0,0,0-.146,0,1.023,1.023,0,0,1-.109.01c-.08,0-.161,0-.245,0-.054,0-.109,0-.164.006-.076,0-.155.012-.232.014-.1,0-.2,0-.3,0s-.219.007-.33.007c-.067,0-.131,0-.2,0-.039,0-.079.008-.115.007l-.77-.039a.9.9,0,0,1-.155-.025.143.143,0,0,1-.124-.161.287.287,0,0,1,.031-.146.184.184,0,0,0,.01-.089.136.136,0,0,1,.052-.14.1.1,0,0,0,.028-.066.212.212,0,0,1,.081-.152c.14-.112.278-.227.416-.344.094-.081.188-.166.285-.248s.19-.153.285-.23c.047-.036.089-.077.134-.115.089-.085.176-.173.267-.255.107-.1.216-.2.324-.292.04-.036.079-.07.121-.109l-.348-.245a7.036,7.036,0,0,1-.561-.449,1.808,1.808,0,0,0-.206-.146c-.026-.019-.052-.038-.081-.061-.131-.111-.271-.214-.411-.313-.109-.077-.216-.148-.328-.221a.292.292,0,0,1-.082-.1.069.069,0,0,1,0-.079,1.225,1.225,0,0,0,.069-.148.253.253,0,0,0-.02-.022c-.1-.049-.1-.124-.065-.234a.135.135,0,0,1,.138-.076c.17.013.344.025.518.033.091,0,.182,0,.275-.006a.542.542,0,0,1,.164-.008c.1.032.191-.015.286-.011a1.481,1.481,0,0,0,.149,0c.051,0,.1-.019.156-.026s.115,0,.172-.008a.838.838,0,0,1,.182-.02c.121.018.237-.016.357-.008h.016c.186,0,.374,0,.56-.006.124-.005.249-.024.373-.035.062,0,.125,0,.186,0,.01,0,.022.009.032.005a.787.787,0,0,1,.324-.011c.136,0,.273.006.409.008.16,0,.322,0,.482,0a.112.112,0,0,1,.131.11.389.389,0,0,0,.05.133.223.223,0,0,1,.023.243c-.016.034,0,.081,0,.121a.123.123,0,0,1-.115.128.831.831,0,0,1-.29,0,.684.684,0,0,0-.15-.01l-.163-.018a1.169,1.169,0,0,0-.144-.008c-.121,0-.245.008-.369.008-.188,0-.378,0-.568,0-.053,0-.108,0-.164,0-.174,0-.346,0-.521.008-.046,0-.092.012-.141.012-.124,0-.251,0-.374,0h-.075l-.553-.008h-.073Z" fill="#fff" fill-rule="evenodd"/>
        <path id="Path_2792" d="M1412.043,205.084h.049c0,.051,0,.1,0,.15a.163.163,0,0,1-.019.047.059.059,0,0,1-.073.04,1.311,1.311,0,0,0-.331.006,1.054,1.054,0,0,1-.308.016c-.028-.007-.061.011-.091.011h-.921c-.1,0-.2-.011-.3-.013-.057,0-.112.01-.166.01-.231.006-.46.008-.686.01-.1,0-.191-.007-.286-.007s-.16.007-.24.013c-.045,0-.09.013-.142.018-.006.111-.013.222-.017.33,0,.063,0,.124-.008.184,0,.029-.006.057,0,.083a1,1,0,0,1-.022.332,1,1,0,0,0-.01.14c.174,0,.342,0,.508,0,.079,0,.158.008.234,0s.126-.018.191-.016a.525.525,0,0,1,.239.016c.006,0,.02,0,.03-.006.081,0,.162,0,.243,0l.067,0c.133-.007.265-.018.4-.02.06,0,.119,0,.182,0a1.142,1.142,0,0,1,.279.012,2.047,2.047,0,0,0,.323,0c.057,0,.114.007.167.011.03.058.058.1.079.154a.119.119,0,0,1,0,.077c-.063.056-.035.123-.025.18.025.156-.028.208-.19.187a.573.573,0,0,0-.13.009c-.089,0-.178,0-.266,0-.173,0-.342,0-.513,0a1.889,1.889,0,0,0-.291.011,2.263,2.263,0,0,1-.233,0l-.325.008c-.06,0-.118,0-.177,0-.226.005-.453.01-.68.017l-.016,0c-.111.009-.109.012-.109.125s-.01.2-.014.3a1.473,1.473,0,0,1,0,.23,1.238,1.238,0,0,1-.039.27c.016.133-.038.264-.014.4.033-.016.071.033.1-.009.037.039.083.017.126.024s.083.006.123.01.085,0,.127,0h.262a1.014,1.014,0,0,1,.123-.006c.114,0,.223.013.334.016.071,0,.144-.009.219-.01.034,0,.071,0,.1,0l.4.01c.145,0,.289,0,.435,0,.115,0,.231-.006.344-.006.289,0,.577,0,.864,0a.382.382,0,0,1,.107.01.213.213,0,0,1,.138.218.288.288,0,0,1-.008.073.08.08,0,0,0,.02.083.4.4,0,0,1,.06.126.109.109,0,0,1-.066.151.337.337,0,0,1-.113.025l-.393.014-.219.005c-.149.007-.3.011-.453.017-.129,0-.261.012-.392.016-.11,0-.217,0-.324.008a3.367,3.367,0,0,1-.512-.006,3.866,3.866,0,0,0-.4,0c-.172.006-.344.01-.518,0-.132-.006-.262,0-.395,0-.17,0-.34,0-.508-.008a.486.486,0,0,1-.16-.067.16.16,0,0,0-.056-.157.132.132,0,0,1-.049-.14,4.015,4.015,0,0,0,.01-.5c0-.12,0-.24,0-.362.006-.142.022-.283.033-.425,0-.028,0-.057,0-.085,0-.168,0-.336,0-.505a1.12,1.12,0,0,0-.006-.141c-.035-.22,0-.442-.012-.661s-.019-.416-.027-.624c-.006-.1-.012-.211-.02-.315a1.672,1.672,0,0,0-.03-.191.148.148,0,0,1,.066-.166c.023-.016.073-.012.063-.063a.223.223,0,0,0,.045-.007.954.954,0,0,1,.356-.094c.141-.018.287-.028.433-.034.1,0,.21,0,.318,0a3.264,3.264,0,0,0,.342,0,3.35,3.35,0,0,1,.459,0c.156.006.314.01.469.013.069,0,.138,0,.207,0a.732.732,0,0,1,.148.012.4.4,0,0,0,.167-.01,1.13,1.13,0,0,1,.175-.008l.417-.012c.054,0,.107,0,.162,0,.089,0,.176,0,.265,0a.351.351,0,0,1,.259.136.19.19,0,0,1,.042.19.775.775,0,0,0-.012.1" fill="#fff" fill-rule="evenodd"/>
        <path id="Path_2793" d="M1404.311,205.466a.654.654,0,0,0-.073-.011c-.1,0-.2.011-.3.016s-.2,0-.3,0a4.1,4.1,0,0,0-.415.016,1.892,1.892,0,0,1-.475-.032c-.091-.013-.184-.023-.275-.031-.028,0-.057.006-.085.008-.045,0-.088.008-.132.008-.083,0-.109-.028-.109-.111,0-.041.006-.081.006-.124a.075.075,0,0,0-.006-.038.277.277,0,0,1,.041-.293c.052-.009.095-.019.143-.025a1.807,1.807,0,0,1,.206-.016c.132,0,.268,0,.4.007a1.769,1.769,0,0,0,.206,0c.167,0,.33,0,.494-.007.043,0,.084,0,.126,0,.17-.006.338-.016.506-.018.053,0,.107.03.155.022a.758.758,0,0,1,.151-.012c.046,0,.093-.019.139-.02.19-.009.381-.017.569-.021a1.514,1.514,0,0,1,.188.025.191.191,0,0,0,.024,0,2.476,2.476,0,0,1,.5-.018c.067,0,.133-.007.2-.009l.317-.006c.1,0,.2-.014.308-.009a.53.53,0,0,1,.139.043c.025.011.047.025.076.039a.086.086,0,0,0,.014.051.16.16,0,0,1,.04.153.832.832,0,0,0,0,.14v.011c0,.139-.069.2-.2.165a.246.246,0,0,0-.12,0,1.758,1.758,0,0,0-.263.037,1.161,1.161,0,0,1-.257,0c-.1,0-.212.012-.315.014a1.155,1.155,0,0,1-.167-.022.1.1,0,0,0-.034,0,2.649,2.649,0,0,1-.577.02,1.173,1.173,0,0,0-.131.015c-.006.085-.01.17-.02.253a.786.786,0,0,0-.013.194,1.431,1.431,0,0,1-.008.237.257.257,0,0,0,.01.116.236.236,0,0,1,.009.1c0,.117,0,.234.006.349.008.161.02.322.024.482,0,.1-.008.194-.012.29a.374.374,0,0,0,0,.067.618.618,0,0,1,0,.192,1.237,1.237,0,0,0,0,.322,1.294,1.294,0,0,1,0,.214c.008.1-.016.191,0,.288,0,.044-.023.093.026.125-.034.042,0,.093-.014.14a.512.512,0,0,0-.01.148c0,.024-.014.06.028.066,0,.047.008.1-.014.14a.31.31,0,0,1-.281.125,1.49,1.49,0,0,1-.306-.02c-.087-.018-.107-.04-.115-.127a3.288,3.288,0,0,1,.008-.62c.016-.205,0-.413.014-.617s-.012-.4,0-.6a3.559,3.559,0,0,0-.006-.411c0-.144.006-.285,0-.429s-.014-.318-.026-.478c-.008-.113-.025-.226-.033-.341a1.666,1.666,0,0,1,.006-.171" fill="#fff" fill-rule="evenodd"/>
        <path id="Path_2794" d="M1413.142,204.683c.063-.033.142,0,.2-.055a.048.048,0,0,1,.038-.008.507.507,0,0,0,.181-.024.085.085,0,0,1,.063.016,1.133,1.133,0,0,1,.109.087.108.108,0,0,1,.022.062,1.113,1.113,0,0,1,.016.14c.01.182.018.363.027.543.011.226.032.453.028.678s.043.439.043.66c0,.174.008.345-.011.518s-.01.352-.024.527c-.01.112,0,.223,0,.335s0,.238-.006.358c0,.089,0,.18-.006.268a.951.951,0,0,1-.051.208c-.016.045-.081.058-.132.042a.711.711,0,0,0-.27-.046.175.175,0,0,0-.039,0,.2.2,0,0,1-.263-.143,2.178,2.178,0,0,1-.016-.3c0-.129,0-.257,0-.386s.011-.252.015-.377c.006-.18.012-.358.02-.535,0-.1.012-.191.016-.288s0-.173,0-.259c0-.118.007-.233.008-.351a.772.772,0,0,1,.011-.167c.009-.035-.061-.053-.011-.086-.016-.034.02-.066,0-.1s0-.073,0-.107c-.007-.066-.017-.131-.021-.2,0-.05.006-.1.008-.151,0-.1.005-.19,0-.283-.006-.059-.014-.118-.018-.178a1.232,1.232,0,0,1,.065-.4" fill="#fff" fill-rule="evenodd"/>
        <path id="Path_2795" d="M1413.9,204l.012-.01c0-.04.022-.075.026-.113a.509.509,0,0,0-.014-.12c0-.006-.006-.013,0-.014.034-.059.016-.128.03-.188a.193.193,0,0,1,.156-.117,2.9,2.9,0,0,1,.3-.049.228.228,0,0,1,.237.1.121.121,0,0,1-.019.179.166.166,0,0,0-.03.149.439.439,0,0,1-.028.184.211.211,0,0,1-.168.125,1.657,1.657,0,0,1-.191.041.123.123,0,0,0-.046.014c-.032.028-.057.027-.083-.01a.038.038,0,0,0-.02-.012.176.176,0,0,1-.124-.124.161.161,0,0,0-.03-.038" fill="#fff" fill-rule="evenodd"/>
        <path id="Path_2796" d="M1412.314,204.216a.258.258,0,0,1-.1-.239,1.548,1.548,0,0,0-.013-.289.122.122,0,0,1,.158-.156.34.34,0,0,0,.219-.01.527.527,0,0,1,.121-.028.187.187,0,0,1,.186.19c0,.063-.014.126-.018.191a.89.89,0,0,0,0,.125.15.15,0,0,1-.048.132c-.009.006-.014.018-.023.018a1.561,1.561,0,0,1-.192.028.25.25,0,0,0-.164.045.09.09,0,0,1-.125-.007" fill="#fff" fill-rule="evenodd"/>
        <path id="Path_2797" d="M1413.163,219.691h0a1.271,1.271,0,0,1-.3.206.584.584,0,0,0-.21.155,1.055,1.055,0,0,1-.274.216l-.012,0a1.256,1.256,0,0,1-.6.312.058.058,0,0,0-.04.03.7.7,0,0,1-.45.209c-.157.028-.311.081-.469.108-.213.039-.427.073-.64.094a3.665,3.665,0,0,1-.491.014c-.171,0-.34-.018-.508-.036-.2-.023-.4-.045-.6-.082a5.534,5.534,0,0,1-.642-.161,3.516,3.516,0,0,1-.427-.186c-.16-.08-.318-.164-.473-.251-.057-.034-.11-.077-.167-.118s-.139-.107-.21-.16c-.014-.009-.036-.016-.041-.028-.034-.1-.137-.116-.194-.188a.871.871,0,0,0-.188-.2c-.059-.038-.051-.1-.089-.139-.067-.069-.1-.176-.2-.218a.683.683,0,0,0-.125-.229,1.274,1.274,0,0,1-.125-.264.619.619,0,0,0-.154-.206.573.573,0,0,1-.13-.3.751.751,0,0,1-.016-.438c-.077-.131.012-.261,0-.393a.061.061,0,0,1,0-.025,2.367,2.367,0,0,0,.116-.55c.073-.055.054-.144.08-.217.007-.02-.014-.052-.007-.073s.044-.023.054-.042a.139.139,0,0,0,.02-.1c-.016-.039,0-.052.021-.073a.151.151,0,0,0,.032-.054.869.869,0,0,1,.206-.409c.008-.015.027-.031.024-.043-.013-.088.076-.119.1-.186a1.027,1.027,0,0,1,.125-.2c.017-.027.071-.045.071-.066,0-.06.032-.046.067-.06s.028-.093.091-.1a1.035,1.035,0,0,1,.342-.3c.152-.1.285-.223.441-.31a4.806,4.806,0,0,1,.585-.276c.178-.073.366-.129.553-.185a1.251,1.251,0,0,1,.234-.043c.217-.019.432-.033.648-.045.194-.012.388-.022.585-.024.174,0,.348,0,.52.012s.344.049.514.071c.069.01.136.014.2.026a.368.368,0,0,1,.176.059.786.786,0,0,0,.373.153,2.648,2.648,0,0,1,.5.189,4.08,4.08,0,0,1,.635.316,1.349,1.349,0,0,1,.213.16,3.009,3.009,0,0,1,.354.414,2.222,2.222,0,0,1,.3.534c.037.116.114.215.16.326a2.015,2.015,0,0,1,.2.721c0,.206.026.41.036.617a.333.333,0,0,1-.008.1,3.054,3.054,0,0,1-.3,1.005c-.061.1-.081.23-.134.341a2.448,2.448,0,0,1-.36.591m-5.947-3.914c-.112.144-.214.257-.295.384a2.681,2.681,0,0,0-.188.4,4.194,4.194,0,0,0-.186.566,3.072,3.072,0,0,0-.043.913,1.163,1.163,0,0,0,.486.886,4.5,4.5,0,0,0,.686.409,2.266,2.266,0,0,0,.364.178,2.411,2.411,0,0,0,.812.182c.293-.008.589.024.884.02a8.3,8.3,0,0,0,1.055-.064,3.252,3.252,0,0,0,1.02-.375,1.377,1.377,0,0,0,.558-.611,2.521,2.521,0,0,0,.288-.73c.026-.156.06-.308.1-.462a.824.824,0,0,0-.026-.486c-.033-.082-.073-.162-.1-.246a2.648,2.648,0,0,0-.207-.464,1.136,1.136,0,0,0-.419-.468,2.615,2.615,0,0,1-.239-.146,4.783,4.783,0,0,0-.566-.254c-.009,0-.019,0-.027,0-.091-.015-.184-.034-.275-.05a.82.82,0,0,0-.388-.019.36.36,0,0,1-.163,0c-.073-.01-.137-.028-.154-.121a.171.171,0,0,0-.084-.116.685.685,0,0,0-.276-.038,1.028,1.028,0,0,1-.487,0,.191.191,0,0,0-.075,0c-.049,0-.093.012-.142.012a3.343,3.343,0,0,0-.712.067,1.261,1.261,0,0,0-.379.121c-.1.057-.22.069-.315.129C1407.538,215.52,1407.368,215.66,1407.216,215.777Z" fill="#fff" fill-rule="evenodd"/>
        <path id="Path_2798" d="M1397.292,218.821h0c-.01.123-.025.24-.031.358-.008.139-.008.279-.018.417-.006.075-.034.145-.036.218,0,.144.006.288.006.431,0,.088-.006.173-.006.259,0,.067,0,.136.008.2a.218.218,0,0,1-.065.21.231.231,0,0,1-.184.081c-.081-.009-.168,0-.251-.011a.223.223,0,0,0-.156.018c-.127.067-.336-.1-.33-.253.01-.251.018-.5.031-.749.02-.385.046-.768.062-1.153.007-.145,0-.295,0-.441,0-.059.016-.117.016-.176,0-.162-.008-.324-.008-.484,0-.132.008-.263.016-.393,0-.1.015-.2.019-.292.01-.173.02-.345.024-.519,0-.136,0-.272,0-.4s-.006-.241-.008-.362c0-.292-.014-.583-.01-.876,0-.211.018-.423.032-.634.012-.122.075-.166.221-.184.1-.012.2-.031.3-.037a1.437,1.437,0,0,1,.341,0,2.25,2.25,0,0,0,.67.015,3.275,3.275,0,0,1,.634.006c.146.014.291.008.439.014s.312.018.467.022c.11,0,.219,0,.328,0a1.714,1.714,0,0,1,.19.011c.15.016.3.03.45.048.178.025.358.018.534.056a3.194,3.194,0,0,0,.427.033c.306.026.609.093.911.142.061.009.117.022.176.03a.486.486,0,0,1,.208.089c.081.055.182.081.269.128a1.156,1.156,0,0,1,.441.406,4.809,4.809,0,0,1,.3.484,1.771,1.771,0,0,1,.243.6,1.851,1.851,0,0,1-.139,1.1c-.064.112-.12.224-.173.339a1.653,1.653,0,0,1-.473.564,1.474,1.474,0,0,1-.348.192,3.56,3.56,0,0,1-.862.255c-.176.026-.361.026-.537.06a5.81,5.81,0,0,1-.816.1c-.125.008-.248.007-.372.008-.009,0-.018,0-.026,0a3.017,3.017,0,0,1-.759.035c-.055,0-.107.015-.164.019-.2.008-.413.009-.619.019-.128.006-.251.027-.379.031-.151,0-.3,0-.457-.007s-.318-.009-.477-.015a.2.2,0,0,1-.057-.014m1.754-1.04c.047-.011.037.045.091.034.092-.023.193.006.284-.017a1.623,1.623,0,0,1,.269-.02.34.34,0,0,0,.065-.008.5.5,0,0,1,.168-.04c.22.026.439-.022.663-.018a4.269,4.269,0,0,0,1.067-.143,1.836,1.836,0,0,0,.666-.3,1.231,1.231,0,0,0,.528-.737.574.574,0,0,0-.014-.334c-.041-.112-.091-.219-.138-.328a.532.532,0,0,0-.265-.281c-.113-.054-.23-.1-.35-.146a.7.7,0,0,0-.188-.069c-.257-.032-.514-.055-.769-.081-.107-.008-.219-.008-.328-.019a3.867,3.867,0,0,0-.577-.06,3.8,3.8,0,0,1-.524-.03c-.115-.011-.233-.031-.35-.039s-.225,0-.338-.006c-.338-.015-.676-.041-1.014-.05-.18-.006-.362.014-.542.022a.452.452,0,0,0-.015.085c0,.285.015.573.006.858-.011.435-.038.87-.056,1.3-.006.145-.008.294-.012.436a.481.481,0,0,0,.05.016c.2-.006.4-.013.6-.023.03,0,.06-.032.091-.028.145.012.293.035.439.049s.309.02.465.03c.008,0,.014-.006.022-.01S1399.044,217.8,1399.046,217.781Z" fill="#fff" fill-rule="evenodd"/>
        <path id="Path_2799" d="M1423.245,214.144a.85.85,0,0,1,.122-.059.16.16,0,0,1,.232.1.291.291,0,0,1-.109.354,4.535,4.535,0,0,0-.372.362c-.168.175-.322.361-.486.537-.213.229-.435.449-.644.682-.18.2-.4.356-.593.54-.232.223-.471.442-.7.676-.172.182-.315.388-.482.576a3.118,3.118,0,0,1-.37.365.386.386,0,0,0-.122.33c0,.209,0,.415.017.622.028.335-.008.67,0,1.006a1.544,1.544,0,0,1-.128.607.2.2,0,0,0-.024.083.259.259,0,0,1-.239.271c-.164.026-.328.038-.492.061a.735.735,0,0,0-.133.03.265.265,0,0,1-.324-.221c0-.045-.016-.089-.024-.133a.177.177,0,0,1-.012-.063c.022-.262.04-.52.069-.781.01-.1.038-.205.052-.308.006-.042-.022-.089.026-.125.015-.013.015-.049.012-.073-.008-.126-.021-.249-.032-.374,0-.011,0-.029,0-.033-.144-.1-.208-.263-.338-.37a1.71,1.71,0,0,1-.277-.346,3.119,3.119,0,0,0-.4-.48,4.843,4.843,0,0,1-.451-.512c-.109-.135-.223-.269-.334-.4-.01-.014-.024-.024-.032-.038a5.935,5.935,0,0,0-.51-.621c-.257-.294-.5-.6-.755-.9-.15-.174-.312-.337-.466-.506-.046-.05-.083-.108-.131-.158a.917.917,0,0,0-.14-.125.274.274,0,0,1-.136-.354c.021-.065.041-.13.059-.187a.571.571,0,0,1,.413-.061c.119.014.247,0,.366.019s.231-.034.342.008a.424.424,0,0,1,.191.123c.163.194.335.383.5.577s.337.393.5.591c.14.166.27.338.409.5.067.074.154.129.221.205.192.213.378.432.566.649.118.133.233.267.353.4.09.1.186.2.281.293.045.047.081.028.111-.018.071-.1.144-.208.221-.31.048-.066.107-.129.162-.194.078-.093.156-.19.234-.284s.158-.178.239-.263c.215-.223.428-.441.638-.661.131-.136.253-.274.386-.407.09-.089.191-.17.282-.257.065-.06.121-.132.186-.191.194-.169.377-.351.558-.535a4.768,4.768,0,0,1,.407-.343c.035-.026.095-.056.123-.042a1.243,1.243,0,0,0,.367.038,1.751,1.751,0,0,0,.383.014c.093-.006.145.056.216.11" fill="#fff" fill-rule="evenodd"/>
        <path id="Path_2800" d="M1395.188,214.121c.126.052.155.18.2.294a.763.763,0,0,1,.012.226,2.131,2.131,0,0,1-.012.277.18.18,0,0,1-.075.109.5.5,0,0,1-.332.063,1.87,1.87,0,0,0-.494-.026,4.938,4.938,0,0,0-.732.036,7.366,7.366,0,0,1-.8.013c-.141.007-.279.024-.421.038-.091.008-.184.02-.279.028.012.093.03.213.045.334.03.252.062.505.084.759.015.16.008.322.017.482a10.023,10.023,0,0,1-.039,1.068c-.008.174,0,.348-.014.523a6.223,6.223,0,0,1-.043.894c0,.012,0,.027,0,.038a3.438,3.438,0,0,1-.065.693,3.485,3.485,0,0,0-.032.479c-.011.152-.013.3-.031.454a.206.206,0,0,1-.095.127,1.153,1.153,0,0,1-.247.1.159.159,0,0,1-.1-.009.38.38,0,0,0-.271-.053c-.107.023-.162-.045-.217-.1a.247.247,0,0,1-.073-.2,1.281,1.281,0,0,0-.01-.215c.014,0,.032,0,.047-.006a2.676,2.676,0,0,1,.008-.431.785.785,0,0,0,0-.382c0-.006-.007-.018,0-.024.1-.134.026-.294.064-.437.008-.038-.021-.083-.034-.122.01-.008.038-.023.038-.037a1.542,1.542,0,0,0-.005-.236c-.012-.094.044-.2-.025-.282.093-.121.029-.259.043-.388,0-.038-.047-.081.01-.115-.012-.015-.024-.032-.032-.043a.526.526,0,0,0,.046-.141c0-.108-.016-.215-.026-.322a1.254,1.254,0,0,1,.024-.163.67.67,0,0,0,.006-.19c-.02-.208-.049-.418-.066-.627a.246.246,0,0,1,.005-.144.345.345,0,0,0,.008-.151c-.01-.2-.026-.4-.04-.606a.925.925,0,0,1,.006-.2,1.98,1.98,0,0,0,0-.288c-.046-.006-.077-.01-.109-.012-.249-.008-.5-.017-.749-.021-.283-.008-.565-.01-.85-.016-.233-.008-.464-.019-.7-.026a1.859,1.859,0,0,0-.644.046.214.214,0,0,1-.239-.1.6.6,0,0,1-.05-.39,1.639,1.639,0,0,0,.016-.351.3.3,0,0,1,.05-.2.12.12,0,0,1,.124-.067c.293.028.587-.006.876.013.4.028.787-.043,1.182-.043.192,0,.389.013.583.013a7.971,7.971,0,0,0,.874-.011,1.405,1.405,0,0,1,.205,0,7.335,7.335,0,0,0,.971-.024,5.332,5.332,0,0,1,.593,0c.12,0,.241.006.358.01a7.692,7.692,0,0,1,.855.077.849.849,0,0,0,.388-.032.124.124,0,0,1,.057,0l.155.036" fill="#fff" fill-rule="evenodd"/>
    </g>
</svg>
