<svg xmlns="http://www.w3.org/2000/svg" width="1733.582" height="1159.766" viewBox="0 0 1733.582 1159.766">
    <g id="up" transform="translate(-1426.749 197.795)">
        <path id="Path_1747" d="M634.849,787.754c-.068.058-.135.12-.2.178.068-.058.135-.12.2-.178" transform="translate(2191.814 -209.782)" fill="#002677" fill-rule="evenodd"/>
        <path id="Path_1748" d="M635.8,787.534q-.577.592-1.11,1.053c.36-.307.721-.654,1.11-1.053" transform="translate(2191.975 -210.619)" fill="#002677" fill-rule="evenodd"/>
        <path id="Path_1749" d="M1027.783,1406.534c-1.351-1.856-2.64-3.759-4.067-5.557-9.524-11.961-17.995-25.023-28.9-35.547-12.658-12.206-18.99-26.84-22.773-43.128-1.649-7.105-2.024-14.5-3.206-23.518-1.452,2.8-3.01,4.409-2.986,5.985.14,8.841.582,17.687,1.082,26.523.24,4.216.851,8.413,1.346,13.173-1.716-.428-3.091-.432-3.235-.86-3.817-11.038-11.644-19.317-19.033-27.893-4.408-5.11-8.735-10.293-13.317-15.24-24.36-26.331-49.162-52.253-73.084-78.968-22.278-24.879-43.6-50.609-65.43-75.887-15.009-17.384-30.341-34.489-45.239-51.969-47.364-55.57-93.7-111.963-138.01-170.037A417.6,417.6,0,0,1,548,807.708c-11.427-32.643-23.932-64.993-29.729-99.328-.245-1.452-.447-2.913-.726-4.74,7.533,9.889,14.447,19.591,22,28.758,16.865,20.461,36.893,36.884,62.416,45.349A136.569,136.569,0,0,0,627,783.07c6.37.841,10.053,2.793,12.754,9.389a513.527,513.527,0,0,0,41.936,80.651c13.178,20.745,28.014,40.2,42.946,59.681,55.277,72.123,114.64,140.8,174.841,208.786,49.417,55.815,100.689,109.9,152.74,163.278,47.594,48.815,98.251,94.29,149.25,139.423,7.327,6.485,15.485,12.043,23.269,18.018a25.025,25.025,0,0,1,10.149,17.846c.668,6.307-2.115,9.476-7.091,11.091-4.077,1.091-8.033.875-12.178.384-9.7-1.144-19.643-2.043-28.893-4.933-47.455-14.822-92.227-35.1-130.986-67-2.029-1.673-4.149-3.822-5.057-6.2-5.356-14.009-10.586-28.076-15.427-42.268-6.668-19.552-8.634-39.278.029-59.041-.563-.274-1.12-.538-1.678-.807-1.558,2.3-3.62,4.4-4.6,6.918-4.894,12.649-8.452,25.662-6.836,39.393,1.389,11.855,3.341,23.653,5.134,35.46.64,4.183,1.548,8.327,2.332,12.485l-1.851.909" transform="translate(1745.93 -530.049)" fill="#002677"/>
        <path id="Path_1750" d="M707.732,729.173c-5.865-2.2-10.73-4.024-15.6-5.846-.37.731-.745,1.457-1.12,2.187,4.629,3.3,9,7.081,13.985,9.721,3.533,1.88,4.644,4.154,5.043,7.812,2.144,19.485,4.351,38.965,6.807,58.412,4.827,38.3,11.375,76.266,21.071,113.707,5.51,21.249,5.3,42.748.491,64.479-3.957,17.869-11.106,33.787-23.288,47.124-26.629,29.143-65.382,36.677-100.819,15.4a145.083,145.083,0,0,1-42.071-37.869C553.3,979,538.555,951.531,531.08,920.743c-3.014-12.408-3.341-25.461-4.985-38.21-2.154-16.672-4.409-33.34-6.6-50.008-.76-5.76-1.562-11.514-2.111-17.293-.832-8.841-1.726-17.687-2.11-26.557q-2.12-48.669-3.88-97.362c-.4-11.009-.351-22.038-.563-33.057a19.838,19.838,0,0,1,4.312-13.6c3.783-4.716,6.716-10.115,9.769-14.822,20.129,29.191,39.9,58.936,77.853,69.262.5,3.865,1.115,7.735,1.466,11.634,2.726,30.821,5.24,61.667,8.183,92.473,1.192,12.485,3.259,24.889,5,37.321s3.918,24.812,5.284,37.287c1.524,14.11,5.409,27.586,9.293,41.148,10.735,37.518,25.148,73.613,41.35,109.04,1.062,2.327,2.533,4.471,3.812,6.7.707-.2,1.418-.389,2.13-.587-.365-3.437-.3-6.985-1.178-10.283-2.375-8.87-4.788-17.759-7.832-26.413-18.552-52.71-34.124-106.194-41.874-161.668-2.038-14.552-2.966-29.263-4.25-43.917q-3.656-41.667-7.1-83.343a47.253,47.253,0,0,1,.288-5.966c8.317-.971,16.413-2.2,24.562-2.8,10.759-.793,19.932-4.711,28.557-11.249,12.841-9.74,23.129-21.653,33.34-36.9,1.38,27.177,2.635,52.051,3.933,77.594" transform="translate(1720.373 -811.044)" fill="#002677"/>
        <path id="Path_1751" d="M703.058,1066.155a33.011,33.011,0,0,0,5.99,17.725c7.293,10.884,17.355,18.913,27.172,27.273,6.524,5.548,12.947,11.269,18.961,17.355,10.461,10.6,14.033,24.4,15.374,38.508,1.779,18.672-2.26,36.874-9.99,53.69-4.4,9.572-11.49,18.115-18.355,26.288-13.2,15.687-26.951,30.888-36.84,49.373a26.23,26.23,0,0,1,1.163-4.183c11.466-24.739,8.567-48.205-5.981-70.776-4.759-7.38-9.11-15.023-14.922-22.244.812,3,1.312,6.139,2.5,8.99a153.627,153.627,0,0,0,7.384,15.793c10.37,18.658,8.783,37.758,2.332,56.988a93.087,93.087,0,0,1-28.73,41.874c-22.672,19.245-44.71,39.35-68.349,57.339-24.36,18.538-49.768,35.874-78.3,47.806-2.5,1.038-5.106,1.779-8.341,2.894-2.865-11.139,1.019-22.591-2.654-33.009-.635,0-1.274.019-1.913.019-.365,2.231-.913,4.442-1.067,6.687-.211,3.058-.034,6.135-.183,9.2-.837,16.951-7.481,23.956-24.182,24.288a65.038,65.038,0,0,1-19.855-2.389c-8.6-2.586-12.759-11.586-2.365-18.456,5.375-3.553,10.923-6.822,16.331-10.317a1094.263,1094.263,0,0,0,120.929-90.078c37.393-32.138,63.142-71.719,76.531-118.948A332.715,332.715,0,0,0,688.1,1091.423c-.889-19.274-1.062-38.686-3.558-57.777-4.442-34.013-10.163-67.873-15.8-101.722S656.886,864.335,651,830.542c-2.317-13.273-4.567-26.566-6.519-39.9-.6-4.1-.086-8.375-.086-12.432,38.186-6.725,71.9-31.008,88.271-78.958,2.034,8.682,3.586,15.812,5.375,22.874q7.442,29.4,15.038,58.748c14.2,55.219,27.787,110.587,34.028,167.4,2.846,25.889,4.538,51.912,6.793,77.863.606,6.951,1.365,13.894,2.163,21.946-2.658-.914-4.187-1.524-5.764-1.966-10.586-2.971-21.048-6.5-31.8-8.682-9.336-1.9-18.485-3.774-26.538-9.312,4.134,6.99,10.817,10.158,18.124,12.2,7.673,2.154,15.456,3.9,23.134,6.019a57.994,57.994,0,0,1,10.341,3.716c9.009,4.49,13.836,11.139,12.793,22.043-1.913,20.115-2.923,40.326-4.4,60.484-.26,3.61-.937,7.187-1.63,12.336-1.322-2.25-2.2-3.135-2.38-4.14-2.375-13.148-10.8-21.975-21.735-28.08a330.641,330.641,0,0,0-34.821-16.452c-11.932-4.956-18.908-14.134-24.211-25.167-.86-1.8-1.529-3.692-2.288-5.538-.606.2-1.221.409-1.832.611" transform="translate(1510.732 -546.748)" fill="#002677"/>
        <path id="Path_1752" d="M472.05,637.37c2.726-2.26,5.067-4.2,7.7-6.38,19.74,24.562,45.9,37.922,76.752,44.109.211,3.947.822,7.572.529,11.13-1.985,23.321-.625,46.508,1.813,69.728,1.942,18.586,2.558,37.316,4.591,55.887,3.981,36.22,8.226,72.4,17.307,107.857,3.644,14.206,5.548,28.859,8.153,43.33,2.586,14.331,8.38,27.509,14.427,40.6.437.966,1.375,1.707,3.264,3.971.909-7.149-.707-12.293-1.933-17.442-3.471-14.605-7.658-29.076-10.37-43.816-3.159-17.148-5.072-34.528-7.485-51.806-1.827-13.043-4.063-26.052-5.308-39.153-2.635-27.446-4.63-54.955-7.1-82.415-2.308-25.663-4.144-51.335-3.591-77.127.216-9.884,4.235-14.327,14.5-15.836,11.177-1.644,22.341-3.394,33.5-5.168,12.25-1.947,23.836-5.615,33.854-13.307,1.63-1.245,3.519-2.149,6.13-3.721a87.746,87.746,0,0,1,1.125,8.774c.505,27.6,1,55.191,1.226,82.79.029,3.212-1.317,6.524-2.452,9.635-3.14,8.625-6.591,17.139-9.706,25.773-.668,1.841-.447,4.01-.75,7.2,8.043-5.3,8.293-14.432,14.668-21.408,1.063,11.442,1.865,21.427,2.933,31.384,2.221,20.7,4.327,41.417,6.942,62.06,2.769,21.865,5.947,43.537,4.808,65.825-1.5,29.264-12.85,54.07-33.436,73.5-31.484,29.706-75.031,34.686-111.3,6.048-12.86-10.149-23.023-22.884-32.754-35.941a30.548,30.548,0,0,1-3.553-6.423c-11.625-27.523-20.384-55.854-23.09-85.757-1.832-20.134-4.259-40.282-4.639-60.459-.572-30.571.188-61.171.788-91.752.539-27.581,1.62-55.147,2.447-82.718.091-3.048.01-6.1.01-8.966" transform="translate(1559.593 -806.665)" fill="#002677"/>
        <path id="Path_1753" d="M545.179,760.711c25.73-11.187,48.018-25.3,62.031-51.118,1.875,3.163,2.971,4.8,3.861,6.548,2.514,4.909,4.846,9.918,7.418,14.8,13.144,24.932,25.687,50.21,39.734,74.622C669.521,825.2,682,844.247,695.154,862.7c16.721,23.432,34.614,46.032,52.095,68.925Q761.462,950.236,776,968.6c3.995,5.019,8.567,9.572,12.8,14.4,1.307,1.495,2.365,3.212,4.134,5.654-17.86,4.918-36.494,1.788-52.339,12.23,3.009-.293,6.057-.38,9.029-.908a114.208,114.208,0,0,1,49.224,1.644,20.13,20.13,0,0,1,8.533,4.577,199.692,199.692,0,0,1,14.37,15.466c17.264,20.312,34.273,40.835,51.613,61.084q51.741,60.452,103.7,120.731c4.182,4.884,7.923,10.154,11.711,15.36,1.154,1.586,1.769,3.563,3.509,7.192-16.663-8.529-31.83-15.432-49.743-16.081,1.966,4.976,6.082,5.615,9.543,6.971,9.682,3.808,19.533,7.221,29.119,11.255,7.745,3.264,13.6,8.851,19.086,15.379,23.365,27.8,43.027,58.19,62.142,88.877,16.855,27.062,32.22,55.042,48.181,82.651,1.481,2.553,5.447,9.038,4.567,9.836-1.144,1.043-4.735-2.038-5.952-3.034-13.73-11.25-27.783-22.148-41.008-33.975q-31.542-28.211-62.118-57.512c-11.73-11.216-22.562-23.369-33.864-35.042-10.663-11.014-21.591-21.778-32.066-32.965-8.366-8.937-16.106-18.456-24.37-27.494-3.49-3.822-7.86-6.832-11.384-10.62q-23.177-24.922-46.08-50.09c-22.566-24.648-45.383-49.075-67.536-74.084-16.461-18.581-32.009-37.97-48.037-56.936-7.908-9.355-16.11-18.47-23.956-27.879-6.865-8.231-13.336-16.778-20.11-25.081-12.216-14.966-24.59-29.807-36.782-44.792q-39.489-48.547-74.377-100.506c-15.139-22.418-27.523-46.388-38.8-70.921-1.841-4.009-2.351-8.63-3.558-13.283" transform="translate(1851.163 -507.383)" fill="#002677"/>
        <path id="Path_1754" d="M653.973,703.7c6.009-.75,11.216-1.077,16.273-2.125s10.288-2.14,14.87-4.389a205.684,205.684,0,0,0,43.157-27.84c1.318-1.12,2.861-1.981,5.265-3.611.76,5.961,1.375,10.976,2.053,15.98,4.163,30.951,8.658,61.859,12.432,92.857,3.519,28.835,10.019,57.359,8.74,86.733-.519,11.889.706,23.845.5,35.763-.419,23.99-10.735,44.379-24.312,63.363-4.774,6.673-8.923,13.827-16.3,18.442-33.172,20.774-67.5,21.326-99.574-1.995-16.476-11.985-26.6-28.384-29.23-49.066-1.159-9.106-3.212-18.091-4.8-27.143q-4.355-24.879-8.63-49.777c-1.961-11.48-4.2-22.927-5.644-34.479-3.865-30.98-8.019-61.94-10.817-93.026-2.081-23.143-2.178-46.469-3.274-69.709-.245-5.173-1.211-10.317-1.4-15.485a42.7,42.7,0,0,1,1.418-11.807c8.495,18.73,19.3,35.585,33.4,50.315,14.466,15.106,33.932,19.932,52.835,25.754.966,11.706,1.625,22.985,2.87,34.2,4.389,39.566,7.1,79.444,14.086,118.554C663.574,887,671.752,918.62,683.65,948.96q5.1,13.016,10.26,26.008c.591-.135,1.178-.264,1.769-.394.183-1.327.731-2.716.495-3.962-3.38-18.033-6.211-36.109-11.374-53.859a622.947,622.947,0,0,1-21.735-113.549c-2.706-27.73-6.125-55.388-9.014-83.1-.534-5.1-.077-10.307-.077-16.4" transform="translate(1881.936 -824.184)" fill="#002677"/>
        <path id="Path_1755" d="M645.642,924.316c-5.909,6.524-10.125,12.8-15.855,17.043-5.519,4.1-12.615,6.077-18.994,9.028a32.485,32.485,0,0,0-16.019,15.822c-1,2.067-2.317,3.99-3.817,6.552-.731-1.543-1.4-2.327-1.423-3.115-.226-11.615-.2-23.24-.572-34.845a51.254,51.254,0,0,1,4.206-22.379c1.293-3,2.5-6.024,3.755-9.038.764-1.841.409-3.836-1.567-1-2.923,4.2-6.1,8.221-8.985,12.11-5.317-30.081-11.846-59.849-18.716-89.569-8.682-37.576-16.682-75.324-24.951-113a16.119,16.119,0,0,1-.125-6.567c21.5,27.23,47.619,46.138,83.507,48.71,2.25,11.932,4.457,23,6.432,34.11,8.134,45.811,15.841,91.7,24.432,137.438,6.5,34.667,10.937,69.56,14.009,104.674,2.548,29.129.745,58.094-1.313,87.161A279.448,279.448,0,0,1,659,1176.043a214.557,214.557,0,0,1-38.354,73.646c-20.86,26.417-45.474,48.763-72.248,68.973-17.105,12.918-33.537,26.754-50.835,39.407-11.086,8.105-23.191,14.831-34.907,22.062-1.437.885-3.322,1.048-5.918,1.813.236-2.452-.067-4.318.606-5.721,5.8-12.177,12.182-23.826,21.225-34.2,18.12-20.793,36.456-41.561,52.58-63.873,31.662-43.82,56.147-88.8,67.56-148.9a264.836,264.836,0,0,0,3.635-70.421c-1.75-22.3-3.2-44.619-4.745-66.926-1.365-19.754,6.341-33.567,25.451-40.946,12.451-4.807,18.187-12.221,22.6-26.643" transform="translate(1514.409 -523.492)" fill="#002677"/>
        <path id="Path_1756" d="M642.677,728.578c2.36,6.812,3.966,13.086,6.639,18.874,10.529,22.773,21.1,45.542,32.2,68.046,20.105,40.734,48.657,75.637,76.978,110.717,20.778,25.734,43.172,50.118,62.157,77.4,11.793,16.947,22.663,34.23,31.427,52.8a96.644,96.644,0,0,1,6.98,22.716c2.168,11.178-7.389,26.523-18.2,30.124-7.106,2.36-14.283,1.394-19.976-3.37a199.747,199.747,0,0,1-21.23-20.235c-20.317-22.889-40.556-45.874-60.219-69.325-40.186-47.941-78.584-97.276-112.6-149.836-10.293-15.9-18.971-32.864-28.014-49.542-10.375-19.115-19.971-38.653-30.6-57.618-6.841-12.206-10.182-24.336-6.043-38.191,2.163-7.25,3.178-14.841,4.788-22.629,9.284,6.057,18.456,11.36,26.85,17.7,11.317,8.552,24.215,11.36,37.826,12.34,3.341.231,6.721.029,11.029.029" transform="translate(1909.01 -549.592)" fill="#002677"/>
        <path id="Path_1757" d="M579.338,760.521c44.739-5.423,69.382-31.936,84.92-70.5a39.37,39.37,0,0,1,1.952,6.12c4.687,30.826,13.36,60.517,27.442,88.31,7.879,15.538,17.643,30.133,26.715,45.061,8.432,13.879,16.879,27.758,25.658,41.422s17.341,27.5,27.124,40.407a281.478,281.478,0,0,1,33.018,56.113c7.24,16.307,8.884,33.662,8.442,51.219-.491,19.586-4.947,38.191-14.745,55.417-2.336,4.115-3.428,8.947-5.673,15.028-5.466-8.99-10.548-16.572-14.846-24.567-9.495-17.629-21.028-33.773-33.528-49.378-31.061-38.778-61.791-77.815-92.578-116.8-18.932-23.97-32.638-51.09-46.648-78.007-5.235-10.057-10.519-20.105-15.24-30.4-4.173-9.1-7.6-18.528-12.014-29.442" transform="translate(1981.224 -581.892)" fill="#002677"/>
        <path id="Path_1758" d="M594.546,648.505c3,2.351,5.293,3.779,7.135,5.649a74.507,74.507,0,0,0,42.7,21.639c4.115.649,8.052,2.452,12.168,3.755,1.039,12.538,1.591,24.461,3.125,36.254,2.485,19.139,6.072,38.143,8.4,57.3,3.99,32.836,7.365,65.748,11.014,98.627.125,1.192.452,2.36,1.024,5.3,1.341-2.74,2.37-4.024,2.6-5.432,2.336-14.634,2.067-29.283.591-44.008-2.168-21.634-3.49-43.364-5.932-64.964-2.149-18.86-5.649-37.566-7.986-56.407-1.043-8.471-.658-17.12-1.014-25.682-.164-3.966,1.6-5.88,5.365-7.327,9.682-3.735,19.658-7.2,28.537-12.432,7.5-4.423,13.865-10.932,20.288-16.98,4.2-3.952,7.625-8.731,12.442-14.37a78.531,78.531,0,0,1,.875,7.86c-.019,17.783-.649,35.585-.1,53.349.875,27.859,2.558,55.69,3.837,83.54.63,13.764,1.457,27.533,1.586,41.3.154,17.057-4.476,33.393-9.5,49.455-1.414,4.514-5.87,8.62-9.87,11.682-12.586,9.62-26.239,16.817-42.768,16.937-16.456.12-30.975-5.235-42.633-16.408-6.735-6.466-11.879-14.759-16.917-22.749-2.13-3.394-2.582-8.072-3.072-12.25-2.24-19.148-4.125-38.34-6.322-57.493C605.569,745.1,595.9,706.239,594.267,666.3c-.221-5.308-2.909-10.6.279-17.793" transform="translate(2033.235 -812.628)" fill="#002677"/>
        <path id="Path_1759" d="M527.126,737.44c4.457,6.9,9.1,13.687,13.322,20.73,14.24,23.735,31.124,45.513,48.681,66.839,15.009,18.22,29.34,36.994,44.388,55.181,16.4,19.821,52.594,63.651,69.358,83.18,9.37,10.922,19.081,21.552,28.441,32.489a35.54,35.54,0,0,1,5.74,9.307c2.063,4.961-2.447,14.105-7.73,13.576-85.363-33.653-142.308-11.764-194.253,44.787-1.692,1.308-5.514,2.726-6.062,2.1-1.591-1.827-2.966-4.774-2.721-7.1.928-8.827,2.755-17.552,3.822-26.369,2.981-24.653,12.293-81.329,11.668-106.227-.707-27.864-.991-55.767-2.856-83.56-1.514-22.581-4.923-45.037-7.827-67.508-1.6-12.341-3.875-24.59-5.846-36.883.625-.178,1.25-.36,1.875-.543" transform="translate(1775.286 -401.354)" fill="#002677"/>
        <path id="Path_1760" d="M693,837.972c2.827-5.639.385-9.11-.991-12.605-8.754-22.235-17.985-44.287-26.287-66.69-5.832-15.73-10.428-31.912-15.822-48.643,3.053,0,5.057-.058,7.062.01,16.692.543,32.292-2.375,45.287-13.913a15.416,15.416,0,0,1,4.014-2.159,36.236,36.236,0,0,1,3.562-1.158c2.452,11.014,4.947,21.605,7.139,32.263,4.649,22.586,12.658,44.109,20.23,65.8,5.341,15.3,10.312,30.764,14.572,46.393,1.548,5.683.914,12.077.649,18.12-.625,14.389-2.178,28.7-6.7,42.465-3.529,10.745-6.87,21.6-11.245,32-4.735,11.274-19.764,13.009-27.807,3.914A287.548,287.548,0,0,1,673.354,887.7c-10.163-17.471-21.2-34.432-31.4-51.888-17.912-30.667-30.576-63.43-36.994-98.4-2.933-15.942-4.755-32.1-6.812-48.181-.36-2.8.591-5.764,1.009-9.3a17.653,17.653,0,0,1,2.918,2.264c8.379,11.23,19.672,18.317,32.758,22.625,3.9,1.284,5.9,3.038,6.909,7.293,9.769,41.417,26.244,80.267,45.82,117.886,1.313,2.514,3.2,4.731,5.433,7.966" transform="translate(2052.548 -620.291)" fill="#002677"/>
        <path id="Path_1761" d="M510.227,743.22s-14.6,25.427-34.028,26.3c0,0-8.865,22.547-14.182,43.422-3.3,12.947-10.163,37.575,4.822,44.686,14.3,6.788,27.422-9.144,36.561-20.821,8.605-10.995,20.528-31.619,25.345-51.234,0,0-22.552-17.023-18.519-42.355" transform="translate(1517.512 -379.347)" fill="#002677" fill-rule="evenodd"/>
        <path id="Path_1762" d="M512.464,749.069c-8.024,8.217-18.461,16.524-28.148,16.956,0,0-3.937,12.615-8.163,33.446-2.572,12.663-10.5,54.441,8.163,59.883,15.956,4.659,25.667-13.615,30.725-23.336,1.693-3.255,3.731-6.832,5.938-10.774-1.337-25.129-4.644-51.008-8.514-76.176" transform="translate(1573.562 -357.076)" fill="#002677" fill-rule="evenodd"/>
        <path id="Path_1763" d="M500.1,739.8s-17.091,24.278-36.489,23.624a223.053,223.053,0,0,0-14.74,38.114c-2.625,9.735-12.009,40.917,5.072,47.041,13.456,4.822,31.316-16.86,39.864-29.143,7.029-10.091,13.9-23.73,19.22-42.11,0,0-21.163-12.956-12.927-37.527" transform="translate(1465.662 -392.383)" fill="#002677" fill-rule="evenodd"/>
        <path id="Path_1764" d="M492.316,735.7s-20.442,21.918-39.547,18.831a170.108,170.108,0,0,0-10.86,19.572c-8.8,18.648-20.216,60.666-2.034,63.849,20.543,3.6,41.667-23.884,59.791-63.392,0,0-17.086-19.668-7.351-38.859" transform="translate(1413.369 -407.976)" fill="#002677" fill-rule="evenodd"/>
        <path id="Path_1765" d="M465.928,718.928s-29.259,20.533-44.45,12.019c0,0-40.234,51.5-22.293,65.839,13.668,10.927,41.085-8.442,63.613-40.21,0,0-9.346-14.961,3.13-37.648" transform="translate(1277.739 -471.839)" fill="#002677" fill-rule="evenodd"/>
        <path id="Path_1766" d="M473.3,726.214s-21.571,20.23-39.912,12.552c0,0-41.83,58.724-22.485,71.093,17.706,11.312,49.114-16.139,69.57-49.286,0,0-18.177-10.923-7.173-34.36" transform="translate(1320.44 -444.098)" fill="#002677" fill-rule="evenodd"/>
        <path id="Path_1767" d="M480.462,731.866s-18.937,18.384-35.681,11.644c0,0-42.052,66.94-21.6,79.117,13.769,8.192,46.018-20.168,64.959-55.82,0,0-14.389-11.4-7.682-34.941" transform="translate(1365.302 -422.577)" fill="#002677" fill-rule="evenodd"/>
        <path id="Path_1768" d="M442.653,706.3s-16.36,10.9-31.36,5.476c0,0-54.748,46.224-32.484,60.71,0,0,31.917,12.317,66.325-32.98,0,0-8.913-19.014-2.481-33.205" transform="translate(1197.431 -519.92)" fill="#002677" fill-rule="evenodd"/>
        <path id="Path_1769" d="M452.19,713.165s-19.769,11.75-33.97,7.173c0,0-51.753,46.9-29.484,61.383,0,0,32.946,9.158,67.344-36.143,0,0-12.206-15.024-3.889-32.412" transform="translate(1234.311 -493.781)" fill="#002677" fill-rule="evenodd"/>
        <path id="Path_1770" d="M435.943,697.779s-17.514,10.317-31.667,3.3c0,0-54.109,43.393-35.071,58.685,7.884,6.332,38.177,1.2,64.132-27.182,0,0-9.98-15.153,2.606-34.8" transform="translate(1165.681 -552.364)" fill="#002677" fill-rule="evenodd"/>
        <path id="Path_1771" d="M429,690.376s-19.422,9-33.638,2.212c0,0-15.538,10.894-25.331,25.23-7.4,10.836-15.346,24.711-10.221,31.494,8.351,11.038,41.148-1.144,65.041-27.98,0,0-9-17.264,4.149-30.956" transform="translate(1139.154 -580.552)" fill="#002677" fill-rule="evenodd"/>
        <path id="Path_1772" d="M423.026,682.987s-19.086,8.086-31.951,1.063c0,0-24.619,18.1-33.417,32.042-13.307,21.081-4.413,27.456,3.019,28.158,8.033.755,30.427-5.476,55.945-29.172,0,0-7.548-20.086,6.4-32.09" transform="translate(1111.08 -608.686)" fill="#002677" fill-rule="evenodd"/>
        <path id="Path_1773" d="M421.356,675.4s-19.5,7.009-31.96-.716c0,0-32.581,22.687-41.705,36.422-10.774,16.221,2.053,22.922,6.865,23.413,11.971,1.216,31.826-5.192,58.623-27.432,0,0-6.418-20.475,8.178-31.686" transform="translate(1083.252 -640.303)" fill="#002677" fill-rule="evenodd"/>
        <path id="Path_1774" d="M494.954,728.726s-15.24,20.043-31.739,20.812c0,0-17.129,54.45,9.341,59.864,0,0,26.624,4.394,37.749-49.561,0,0-17.653-11.038-15.351-31.114" transform="translate(1518.328 -434.533)" fill="#002677" fill-rule="evenodd"/>
        <path id="Path_1775" d="M498.7,731.086s-8.183,19.35-24.273,23.076c0,0-6.942,28.514-2.2,46.859,6.231,24.1,27.893,20.932,34.667,10.644,3.216-4.88,5.827-11.894,7.673-21.23q-1.8-10.688-3.562-21.023c-.668-3.933-2.159-10.428-4.082-18.259-4.586-4.716-8.8-11.466-8.221-20.067" transform="translate(1567.081 -425.547)" fill="#002677" fill-rule="evenodd"/>
        <path id="Path_1776" d="M491.242,725.507s-16.091,19.8-32.5,18.288c0,0-30.071,51.7-1.923,61.464,0,0,25.73,4.827,45.133-47.143,0,0-17.86-15.749-10.711-32.609" transform="translate(1468.927 -446.789)" fill="#002677" fill-rule="evenodd"/>
        <path id="Path_1777" d="M487.228,721.081s-17.293,19.028-33.547,16.75c0,0-38.821,51.1-10.721,60.469,13.855,4.62,37.682-16.792,50.7-44.248,0,0-14.625-16.447-6.428-32.97" transform="translate(1423.092 -463.642)" fill="#002677" fill-rule="evenodd"/>
        <path id="Path_1778" d="M473.6,715.92s-17.663,19.134-33.821,16.879c0,0-34.768,51.844-6.019,57.426,15,2.914,29.835-12.725,45.508-41.239,0,0-11.548-10.283-5.668-33.066" transform="translate(1383.594 -483.292)" fill="#002677" fill-rule="evenodd"/>
        <path id="Path_1779" d="M464.7,710.381s-18.571,18.437-34.576,15.533c0,0-34.412,46.739-10.557,59.108,13.663,7.086,33.552-6.1,50.21-37.912,0,0-15.033-15.567-5.077-36.73" transform="translate(1340.815 -504.382)" fill="#002677" fill-rule="evenodd"/>
        <path id="Path_1780" d="M456.328,704.391s-20.365,17.293-35.84,13.307c0,0-29.071,33.6-18.485,51.19,5.149,8.548,28.893,12.74,56.71-27.994,0,0-12.36-15.317-2.385-36.5" transform="translate(1297.18 -527.189)" fill="#002677" fill-rule="evenodd"/>
        <path id="Path_1781" d="M451.878,698.8s-18.475,13.8-34.72,5.567c0,0-44.374,42.8-20.951,58.633,0,0,18.98,14.389,54.436-32.206,0,0-11.086-17.067,1.236-31.994" transform="translate(1257.958 -548.47)" fill="#002677" fill-rule="evenodd"/>
        <path id="Path_1782" d="M446.4,691.319s-20.725,12.822-35.595,7.264c0,0-46.335,40.628-23.365,57.113,0,0,18.567,14.918,55.33-30.667,0,0-9.1-19.134,3.63-33.71" transform="translate(1226.251 -576.961)" fill="#002677" fill-rule="evenodd"/>
        <path id="Path_1783" d="M436.134,684.894s-18.918,8.8-31.148,1.428c0,0-45.739,36.874-26.715,53.08,0,0,16.9,14.076,53.421-24.812,0,0-8.115-17.326,4.442-29.7" transform="translate(1198.022 -601.424)" fill="#002677" fill-rule="evenodd"/>
        <path id="Path_1784" d="M430.2,679.123s-13.985,4.495-26.523-1.837c0,0-51.681,37.379-33.244,54.248,0,0,18.023,15.754,55.9-21.812,0,0-6.8-19.264,3.865-30.6" transform="translate(1170.663 -630.389)" fill="#002677" fill-rule="evenodd"/>
        <path id="Path_1785" d="M491.871,716.177s-12.35,18.422-26.662,18.413c0,0-22.11,43.167,3.024,49.378,0,0,20.942,6.24,33.585-40.273,0,0-14.788-12.365-9.947-27.518" transform="translate(1512.45 -482.313)" fill="#002677" fill-rule="evenodd"/>
        <path id="Path_1786" d="M497.985,719.158c-4.346,5.644-12.855,14.793-22.7,15.24,0,0-20.081,44.153,5.312,49.181,0,0,16.014,3.971,27.081-25.85-4.327-16.528-8.274-31.619-9.586-38.042Z" transform="translate(1556.339 -470.963)" fill="#002677" fill-rule="evenodd"/>
        <path id="Path_1787" d="M484.089,712.284s-13.168,18.043-27.437,17.581c0,0-24.066,42.527.7,49.561,0,0,19.422,9.894,34.2-36.326,0,0-13-15.779-7.461-30.816" transform="translate(1474.147 -497.137)" fill="#002677" fill-rule="evenodd"/>
        <path id="Path_1788" d="M478.6,708.282s-15.105,16.846-29.172,15.1c0,0-26.129,37.5-7.437,48.772,10.6,6.394,27.153-2.154,41.955-35.215,0,0-12.553-14.125-5.346-28.653" transform="translate(1432.629 -512.374)" fill="#002677" fill-rule="evenodd"/>
        <path id="Path_1789" d="M469.769,703.461s-18.293,15.668-32.235,13.269c0,0-26.162,38.22-5.99,49.2,10.865,5.914,23.571-3.375,41.96-33.537,0,0-11.721-14.721-3.735-28.927" transform="translate(1389.413 -530.73)" fill="#002677" fill-rule="evenodd"/>
        <path id="Path_1790" d="M464.406,697.986s-19.192,13.5-32.682,10.182c0,0-32.994,39.018-11.278,50.955,0,0,18.4,13.057,45.21-29.73,0,0-10.677-17.62-1.25-31.407" transform="translate(1348.065 -551.576)" fill="#002677" fill-rule="evenodd"/>
        <path id="Path_1791" d="M458.1,692.359s-16.182,13.221-32.715,6.264c0,0-36.432,38.653-15.451,51.441,0,0,18.605,13.432,47.469-28.47,0,0-9.38-15.773.7-29.235" transform="translate(1311.425 -573.001)" fill="#002677" fill-rule="evenodd"/>
        <path id="Path_1792" d="M453.136,686.34s-21.312,12.177-34.177,7.182c0,0-37.561,33.5-17.783,48.094,0,0,15.951,13.168,48.417-26.018,0,0-7.683-16.74,3.543-29.259" transform="translate(1280.963 -595.918)" fill="#002677" fill-rule="evenodd"/>
        <path id="Path_1793" d="M446.6,679.418s-17.475,8.865-30.1,3.293c0,0-43.4,34.1-24.3,49.58,0,0,16.072,15.173,50.272-22.5,0,0-7.649-18.365,4.134-30.369" transform="translate(1250.154 -622.274)" fill="#002677" fill-rule="evenodd"/>
        <path id="Path_1794" d="M442.547,672.744s-16.115,7.62-28.316,1.168c0,0-47.657,30.927-29.7,47.715,0,0,16.461,15.769,53.248-19.389,0,0-7.836-18.355,4.769-29.494" transform="translate(1224.089 -647.686)" fill="#002677" fill-rule="evenodd"/>
        <path id="Path_1795" d="M487.371,704.9s-10.783,16.278-23.167,16.49c0,0-19.394,38.056,2.293,43.123,0,0,18.033,5.173,29.283-35.7,0,0-12.692-10.591-8.408-23.912" transform="translate(1512.47 -525.239)" fill="#002677" fill-rule="evenodd"/>
        <path id="Path_1796" d="M494.521,707.68s-9.937,16.807-22.3,17.653c0,0-17.418,38.994,4.5,42.946,0,0,15.144,3.514,24.754-27.1-1.212-5.961-2.3-11.346-3.264-16.369-2.957-4.192-5.543-10.192-3.7-17.134" transform="translate(1548.4 -514.666)" fill="#002677" fill-rule="evenodd"/>
        <path id="Path_1797" d="M484.589,701.545s-16.509,13.846-28.759,12.389c0,0-21.206,36.023-.529,43.974,0,0,17.052,7.577,34.1-31.489,0,0-10.98-12.23-4.817-24.874" transform="translate(1474.475 -538.025)" fill="#002677" fill-rule="evenodd"/>
        <path id="Path_1798" d="M480.314,696.753s-17.937,14.783-31.133,12.456c0,0-27.283,37.773-5.514,47.7,0,0,18.639,10.533,40.494-31.34,0,0-11.634-15.283-3.846-28.811" transform="translate(1432.567 -556.271)" fill="#002677" fill-rule="evenodd"/>
        <path id="Path_1799" d="M474.219,692.1s-20.389,15.687-32.533,12.355c0,0-29.5,32.907-10.029,44.2,0,0,17.918,11.649,42.734-26.1,0,0-8.884-18.331-.173-30.451" transform="translate(1393.611 -573.969)" fill="#002677" fill-rule="evenodd"/>
        <path id="Path_1800" d="M464.915,687.364s-17.177,11.7-28.6,7.966c0,0-32.629,30.2-14.74,41.941,0,0,16.389,12.2,42.648-23.283,0,0-7.13-12.879.7-26.624" transform="translate(1360.114 -592.02)" fill="#002677" fill-rule="evenodd"/>
        <path id="Path_1801" d="M456.8,682.406s-17.2,9.471-27.494,4.692c0,0-32.254,25.576-16.759,38.566,0,0,13,12.6,41.47-17.682,0,0-7.014-15.956,2.783-25.576" transform="translate(1330.126 -610.897)" fill="#002677" fill-rule="evenodd"/>
        <path id="Path_1802" d="M453.868,675.952s-18.9,9.048-30.028,3.879c0,0-35.619,27.879-18.865,41.917,0,0,13.836,13.966,44.614-18.773,0,0-6.312-16.61,4.279-27.023" transform="translate(1300.27 -635.471)" fill="#002677" fill-rule="evenodd"/>
        <path id="Path_1803" d="M488.1,695.4s-12.639,11.947-23.518,10.971c0,0-19.451,33.172-.961,39.681,0,0,15.3,6.259,29.379-28.749,0,0-10.043-10.538-4.9-21.9" transform="translate(1510.264 -561.434)" fill="#002677" fill-rule="evenodd"/>
        <path id="Path_1804" d="M489.183,697.911c-2.4,3.495-9.721,13.043-18.221,13.543,0,0-15.278,32.965,3.11,36.489,0,0,12.49,3.053,21.052-22.134q-.274-2.632-.519-5.365a67.137,67.137,0,0,0-1.351-8.644c-2.255-3.14-4.375-7.605-3.716-12.812Z" transform="translate(1545.907 -551.861)" fill="#002677" fill-rule="evenodd"/>
        <path id="Path_1805" d="M485.992,690.693s-16.759,16.817-28.013,14.62c0,0-23.062,30.3-4.562,39.152,0,0,16.851,9.428,36.229-26.1,0,0-10.966-10.091-3.654-27.672" transform="translate(1474.413 -579.345)" fill="#002677" fill-rule="evenodd"/>
        <path id="Path_1806" d="M478.148,687.034s-14.331,12.476-25.5,9.716c0,0-28.268,30.547-10.216,40.369,0,0,15.942,9.884,37.652-25.182,0,0-9.586-13.615-1.933-24.9" transform="translate(1436.994 -593.276)" fill="#002677" fill-rule="evenodd"/>
        <path id="Path_1807" d="M471.447,683.182s-14.918,10.2-25.158,6.36c0,0-30.076,25.72-14.125,37.008,0,0,12.913,10.192,37.335-20.533,0,0-6.524-13.014,1.947-22.836" transform="translate(1403.096 -607.943)" fill="#002677" fill-rule="evenodd"/>
        <path id="Path_1808" d="M468.931,678.4s-16.73,9.216-27.124,4.134c0,0-34.258,24.009-18.62,37.5,0,0,12.552,12.043,41.369-17.807,0,0-5.538-14.355,4.375-23.831" transform="translate(1371.107 -626.15)" fill="#002677" fill-rule="evenodd"/>
        <path id="Path_1809" d="M484.868,681.57s-12.745,12.269-23.538,10.153c0,0-26.643,31.821-8.86,40.325,0,0,16.547,5.851,34.758-27.908,0,0-8.846-11.668-2.36-22.571" transform="translate(1474.878 -614.081)" fill="#002677" fill-rule="evenodd"/>
        <path id="Path_1810" d="M481.069,677.874s-14.476,10.307-24.884,6.605c0,0-30.143,28.119-13.74,39.191,0,0,14.548,7.827,37.633-23.019,0,0-7.062-12.9.99-22.778" transform="translate(1441.394 -628.153)" fill="#002677" fill-rule="evenodd"/>
        <path id="Path_1811" d="M475.482,673.754s-17.134,11.836-26.884,5.053c0,0-29.845,27.7-13.918,39.321,0,0,16.211,7.721,40.311-22.138,0,0-7.88-12.7.49-22.235" transform="translate(1412.622 -643.84)" fill="#002677" fill-rule="evenodd"/>
        <path id="Path_1812" d="M486.631,685.469s-9.812,12.091-20.422,11.081c0,0-20.99,31.081-3.029,37.576,0,0,14.851,6.225,29.187-28.066,0,0-9.36-8.457-5.735-20.591" transform="translate(1511.281 -599.234)" fill="#002677" fill-rule="evenodd"/>
        <path id="Path_1813" d="M487.663,675.315s-11.12,13.048-21.73,12.038c0,0-20.985,31.081-3.024,37.576,0,0,14.85,6.226,29.186-28.071,0,0-9.639-10.409-4.432-21.543" transform="translate(1510.245 -637.896)" fill="#002677" fill-rule="evenodd"/>
        <path id="Path_1814" d="M484.371,672.168s-12.793,12.317-23.629,10.187c0,0-24.816,29.889-6.966,38.427,0,0,14.668,7.937,32.96-25.951,0,0-8.875-11.716-2.365-22.663" transform="translate(1478.553 -649.879)" fill="#002677" fill-rule="evenodd"/>
        <path id="Path_1815" d="M475.79,679.937a13.043,13.043,0,0,1-1.836.057s-20.9,35.489-2.625,41.032c0,0,4.057.5,9.673-3.163-1.87-10.466-3.649-22.9-5.211-37.926" transform="translate(1541.439 -620.299)" fill="#002677" fill-rule="evenodd"/>
        <path id="Path_1816" d="M481.893,689.514c-3.139,2.38-6.808,4.26-10.62,4.341,0,0-17.192,33.1,1.308,37.465,0,0,8.606,2.495,17.235-11.12a281.033,281.033,0,0,1-7.923-30.687" transform="translate(1542.092 -583.834)" fill="#002677" fill-rule="evenodd"/>
        <path id="Path_1817" d="M639.1,750.782c15.547,21.576,43.729,67.2,17.764,83.94,0,0-11.735,2.971-27.989-6.524,6.351-20.692,13.5-51.436,10.225-77.416" transform="translate(2169.834 -350.554)" fill="#002677" fill-rule="evenodd"/>
        <path id="Path_1818" d="M633.412,738.069s23.965,26.418,45.964,17.529c0,0,54.984,67.666,22.076,87.16,0,0-29.263,13.062-70.834-60.108,0,0,17.379-21.014,2.793-44.58" transform="translate(2176.479 -398.959)" fill="#002677" fill-rule="evenodd"/>
        <path id="Path_1819" d="M642.171,730.932s26.422,19.73,46.34,13c0,0,42.648,45.672,40.97,73.973-.673,11.447-11.067,19.749-28.686,14.375-13.8-4.211-33.811-17.7-57.935-54.075,0,0,13.129-26.341-.688-47.272" transform="translate(2220.463 -426.133)" fill="#002677" fill-rule="evenodd"/>
        <path id="Path_1820" d="M652.732,723.349s26.417,25.869,50.888,16.413c0,0,5.99,5.7,13.225,14.187,12.375,14.519,28.143,37.129,24.345,53.522-1.755,7.581-10.5,13.312-23.326,10.682-13.677-2.8-35.052-15.028-62.2-51.657,0,0,13.74-22.3-2.928-43.147" transform="translate(2260.674 -455.006)" fill="#002677" fill-rule="evenodd"/>
        <path id="Path_1821" d="M663.28,715.054s20.86,13.937,38.148,4.755c0,0,15.1,16.754,21.461,24.7,12.144,15.153,27.119,33.8,24.543,48.941-1.2,6.995-9.2,13.509-22,10.639-12.427-2.789-27.138-12.312-57.3-40.652,0,0,13.49-28.24-4.855-48.378" transform="translate(2300.836 -486.589)" fill="#002677" fill-rule="evenodd"/>
        <path id="Path_1822" d="M671.609,706.77s13.341,9.336,29.884-.807c0,0,26.9,21.124,33.96,28.629,12.1,12.841,23.182,27.316,19.639,39.979-1.928,6.933-9.2,10.942-21.163,9.1-12.75-1.966-36.561-13.663-57.248-34.441,0,0,13.326-21.879-5.072-42.46" transform="translate(2332.549 -521.203)" fill="#002677" fill-rule="evenodd"/>
        <path id="Path_1823" d="M677.969,700.078s15.7,5.284,28.6-4.663c0,0,61.753,43.907,51.8,66.262-6.408,14.389-33.518,13.553-73.776-23.475,0,0,6.75-17.61-6.615-38.124" transform="translate(2356.765 -561.365)" fill="#002677" fill-rule="evenodd"/>
        <path id="Path_1824" d="M682.824,690.545s16.187,5.658,29.576-4.6c0,0,33.667,20.768,43.936,40.244,1.736,3.312,6.784,14.855,1.712,20.995-4.957,6.014-15.384,4.711-24.566,2-9.528-2.8-23.677-11.447-41.729-26.278,0,0,4.082-17.908-8.928-32.364" transform="translate(2375.25 -597.423)" fill="#002677" fill-rule="evenodd"/>
        <path id="Path_1825" d="M688.247,681.975s16.72,3.942,27.643-6c0,0,27.36,15.1,41.335,31.11,3.659,4.2,10.389,15.754,5.476,23.494-3.635,5.726-14.125,6.245-21.615,5.062-10.293-1.62-24.552-7.144-43.518-21,0,0,3.88-19.49-9.322-32.667" transform="translate(2395.898 -635.384)" fill="#002677" fill-rule="evenodd"/>
        <path id="Path_1826" d="M636.656,734.716c8.019,15.836,14.264,35.523,2.75,45.287-5.788-9.4-11.841-18.336-13.586-24.5a10.135,10.135,0,0,1,1.639-8.961c1.87-2.4,5.322-6.178,9.2-11.822" transform="translate(2156.677 -411.726)" fill="#002677" fill-rule="evenodd"/>
        <path id="Path_1827" d="M642.626,723.092c4.644,1.322,9.355,1.731,13.663.467,0,0,47.143,52.94,19.951,70.526,0,0-17.259,12.62-47.08-26.538a109.5,109.5,0,0,0,8.206-22.2c1.692-6.634,3.582-14.379,5.26-22.259" transform="translate(2170.923 -455.984)" fill="#002677" fill-rule="evenodd"/>
        <path id="Path_1828" d="M637.231,712.776s24.3,20.778,41.205,15.12c0,0,48.878,51.441,22.466,70.022,0,0-21.432,17.009-60.906-42.854,0,0,10.956-23.076-2.764-42.287" transform="translate(2201.653 -495.263)" fill="#002677" fill-rule="evenodd"/>
        <path id="Path_1829" d="M648.591,706.516s19.028,12.668,33.35,6.235c0,0,16.62,18.6,27.845,35.316s14.423,34.975,4.639,40.859c-5.605,3.365-13.528,5.98-32.1-6.466-10.745-7.2-21.663-18.211-34.22-38.768,0,0,13.072-18.163.491-37.177" transform="translate(2243.041 -519.098)" fill="#002677" fill-rule="evenodd"/>
        <path id="Path_1830" d="M656.96,700.492S674,709.064,686.492,698.7a128.7,128.7,0,0,1,23.153,24.071c12.408,16.605,22.12,39.076,12.673,47.3-6.986,6.086-29.013,9.716-64.777-36.941,0,0,7.106-17.605-.581-32.643" transform="translate(2276.771 -548.843)" fill="#002677" fill-rule="evenodd"/>
        <path id="Path_1831" d="M661.536,689.159s22.071,7.927,35.244,1.519c0,0,21.432,17.264,33.354,34.845,14.081,20.778,8.019,41.782-11.971,36.34-9.255-2.519-24.167-11-45.7-36.417,0,0,3.057-20.884-10.927-36.287" transform="translate(2294.195 -585.186)" fill="#002677" fill-rule="evenodd"/>
        <path id="Path_1832" d="M667.773,682.618s21.754,6.211,34.393-1.476c0,0,19.192,16.624,29.547,32.282,1.721,2.606,14.345,21.187,7.173,29.331-5.014,5.682-18.139,3.452-25.215.418-8.495-3.625-20.086-11.8-35.441-28.662a37.988,37.988,0,0,0-10.456-31.893" transform="translate(2317.943 -615.71)" fill="#002677" fill-rule="evenodd"/>
        <path id="Path_1833" d="M673.68,672.884s18.932,8.125,30.268.226c0,0,25.61,17.158,35.1,32.172,11.216,17.735,2.053,25.773-4.495,26.663-9.144,1.24-24.4-.139-51.176-24.826,0,0,4.827-21.759-9.7-34.235" transform="translate(2340.434 -647.152)" fill="#002677" fill-rule="evenodd"/>
        <path id="Path_1834" d="M631.054,707.523c.255-.048.514-.1.769-.163,0,0,38.912,46.821,15.293,60.618,0,0-3.192,2.125-9.033,1.048a128.494,128.494,0,0,0,2.038-20.533c-.072-14.874-3.7-25.6-9.067-40.97" transform="translate(2178.135 -515.885)" fill="#002677" fill-rule="evenodd"/>
        <path id="Path_1835" d="M635.678,698.5s15.975,12.481,30.133,7.76c0,0,42.427,44.671,23.471,62.238,0,0-13.317,15.413-54.9-28.34,0,0,17.6-16.057,1.293-41.658" transform="translate(2190.817 -549.607)" fill="#002677" fill-rule="evenodd"/>
        <path id="Path_1836" d="M641.684,690.714s21.331,12.24,34.922,6.3c0,0,46.8,45.21,26.509,62.854,0,0-17.394,15.841-56.152-33.114,0,0,5.759-21.778-5.278-36.042" transform="translate(2218.607 -579.265)" fill="#002677" fill-rule="evenodd"/>
        <path id="Path_1837" d="M648.008,683.177s19.927,13.091,33.326,6.706c0,0,46.282,45.008,30.753,61.229,0,0-15.163,16.322-55.046-31.518,0,0,4.644-21.153-9.034-36.417" transform="translate(2242.688 -607.962)" fill="#002677" fill-rule="evenodd"/>
        <path id="Path_1838" d="M654.311,675.34s18.514,9.894,29.413,1.524c0,0,47.263,41.287,31.167,59.2,0,0-12.745,16-51.633-24.667,0,0,4.235-20.841-8.947-36.061" transform="translate(2266.686 -637.802)" fill="#002677" fill-rule="evenodd"/>
        <path id="Path_1839" d="M626.675,693.265a19.148,19.148,0,0,0,7.5-.6s42.585,43.268,23.461,56.69c0,0-5.673,2.163-14.764,0-2.827-8.514-5.918-18.509-9.091-30.821-2.269-8.8-4.7-17.254-7.11-25.268" transform="translate(2161.461 -571.82)" fill="#002677" fill-rule="evenodd"/>
        <path id="Path_1840" d="M630.857,685.864s13.24,7.235,25.317,2.745c0,0,34.2,37.739,22.22,52.455-7.168,8.8-28.985-2.255-44.162-23.177,0,0,7.663-17.87-3.375-32.023" transform="translate(2177.385 -597.73)" fill="#002677" fill-rule="evenodd"/>
        <path id="Path_1841" d="M635.855,678.211s18.769,7.846,30.34,2.12c0,0,39.1,38.254,27.249,52.667-8.605,10.456-31.412-3.476-50.6-22.446,0,0,5.034-19.23-6.985-32.34" transform="translate(2196.414 -626.87)" fill="#002677" fill-rule="evenodd"/>
        <path id="Path_1842" d="M641.355,670.022s20.254,12.36,31.537,6.024c0,0,43.427,34.874,27.167,52.013,0,0-14.24,12.432-50.8-27,0,0,4.581-18.5-7.9-31.038" transform="translate(2217.355 -658.05)" fill="#002677" fill-rule="evenodd"/>
        <path id="Path_1843" d="M623.422,681.646a12.4,12.4,0,0,0,3.476-.841s42.479,36.864,26.936,49.96c0,0-6.923,1.8-17.514-1.322-6.043-19.624-11.427-36.1-12.9-47.8" transform="translate(2149.075 -616.993)" fill="#002677" fill-rule="evenodd"/>
        <path id="Path_1844" d="M627.315,674.779c5.466,1.923,12.389,3.279,17.216.423,0,0,16.2,10.182,24.033,23.061,4.7,7.726,5.769,18.793.284,22.566-6.13,4.216-17.437,1.524-43.4-24.643a32.678,32.678,0,0,0-.264-13.634c.74-2.351,1.457-4.937,2.13-7.774" transform="translate(2155.788 -639.938)" fill="#002677" fill-rule="evenodd"/>
    </g>
</svg>
