<svg xmlns="http://www.w3.org/2000/svg" width="1004.31" height="1208.354" viewBox="0 0 1004.31 1208.354">
    <g id="down" transform="translate(-1976.217 -1260.184)">
        <path id="Path_1845" d="M516.417,1668.309A511.942,511.942,0,0,1,547.3,1566.665c17.45-41.082,37.113-80.845,64.583-116.64,50.492-65.788,103.358-129.586,157.327-192.509,1.366-1.594,2.379-3.5,4.667-6.922l6.875,20.476c.885-2.9,1.513-3.859,1.394-4.7-2.56-17.665,6.2-31.048,16.984-43.293,23.474-26.661,47.523-52.818,70.882-79.579,9.349-10.709,17.689-22.322,26.071-33.831,2.8-3.839,4.249-8.659,6.432-12.964a9.768,9.768,0,0,1,4.52-4.6c-.6,5.4-1.142,10.8-1.812,16.195-1.2,9.62.052,18.7,5.181,27.151,6.061,9.981,9.077,21.1,11.67,32.361.509,2.227,1.261,4.4,1.908,6.589l1.851-.085c.238-2.8,1.013-5.671.633-8.392-1.28-9.277-1.889-18.84-4.7-27.679-8.216-25.824-1.632-48.261,15.462-67.6,17.665-19.986,36.752-38.722,55.188-58.028,23.312-24.416,49.041-46.048,76.092-66.168a138.04,138.04,0,0,1,11.865-8.44c35.153-20.728,71.63-38.541,111.56-48.084a91.28,91.28,0,0,1,25.215-2.421c12.526.595,15.985,6.893,10.633,18.307A32.069,32.069,0,0,1,1218.9,917c-56.106,44.274-108.158,93.086-158.373,143.754-44.659,45.054-88.076,91.378-130.984,138.107Q823.249,1314.622,726.062,1438.2c-1.28,1.637-2.75,3.12-5.362,6.056-1.194-21.076-7.65-39.425-11.861-58.327l-2.179.4c.87,5.847,1.632,11.7,2.635,17.522.88,5.081,1.523,10.281,3.159,15.133,4.458,13.245.338,25.815-2.588,38.445-.571,2.474-2.821,4.582-4.358,6.813-12.536,18.254-25.458,36.257-37.48,54.845-6.228,9.629-10.885,20.281-16.223,30.5s-10.719,20.4-15.909,30.691c-1.67,3.312-3.944,5.224-7.693,5.381-19.729.848-37.408,8.188-53.285,19.087A189.359,189.359,0,0,0,544,1631.386c-9.049,9.682-16.133,21.19-24.073,31.9-.876,1.184-1.694,2.421-3.511,5.019" transform="translate(1750.318 372.77)" fill="#002677"/>
        <path id="Path_1846" d="M524.74,1457.232c-4.372-6.457-8.411-11.775-11.689-17.518a20.954,20.954,0,0,1-2.978-10.167c.623-37.922.847-75.878,2.679-113.743,1.1-22.622,4.848-45.125,7.417-67.68,2.227-19.573,4.9-39.108,6.6-58.727a162.731,162.731,0,0,1,17.831-60.7,292.058,292.058,0,0,1,27.4-43.936c8.939-11.689,19.334-23.116,31.323-31.452,24.3-16.9,50.734-23.027,79.841-10.124,23.831,10.557,39.364,27.722,47.142,52.062,9.215,28.873,10.543,57.918,2.417,87.591a583.2,583.2,0,0,0-16.742,89.3c-2.655,23.8-5.994,47.528-8.749,71.32-.495,4.358-1.751,7.008-5.933,9.068-4.715,2.327-8.759,6-13.1,9.092.409.742.809,1.48,1.209,2.217,4.843-1.812,9.681-3.621,15.362-5.747-1.218,24.944-2.417,49.535-3.7,75.72-2.065-2.479-3.4-3.834-4.444-5.395-8.573-12.746-19.349-23.269-31.723-32.332a44.667,44.667,0,0,0-22.636-8.573c-8.7-.847-17.36-1.96-27.052-3.073,0-2.413-.162-4.719.029-6.994q2.191-26.76,4.5-53.5c3.23-37.47,5.233-75.15,13.435-111.955,5.733-25.738,13.1-51.124,20.353-76.5,4.163-14.563,9.662-28.749,14.368-43.165q4.089-12.531,7.507-25.277c.9-3.4.932-7.041,1.408-10.966-4.634.158-4.776,3.531-5.723,5.676-13.721,31.077-27,62.277-37.147,94.827a418.44,418.44,0,0,0-16.571,79.042c-2.845,25.905-7.022,51.662-9.915,77.572-2.155,19.282-3.192,38.692-4.743,58.051-.437,5.4-.961,10.809-1.451,16.342a69.688,69.688,0,0,1-7.193,2.645c-13.454,3.316-24.32,11.061-33.65,20.776-13.421,13.968-27.613,27.432-35.686,46.22" transform="translate(1726.473 932.075)" fill="#002677"/>
        <path id="Path_1847" d="M727.15,1628.9c-13.835-41.928-43.955-65.754-86.616-76.873,1.475-8.34,3.168-17.131,4.558-25.967,3.635-23.06,6.732-46.21,10.766-69.2,6.76-38.526,14.234-76.924,21.128-115.427,7.736-43.2,9.844-86.834,7.893-130.575a300.71,300.71,0,0,0-15.338-82A234.306,234.306,0,0,0,600.9,1025.426a995.872,995.872,0,0,0-131.517-97.482,74.16,74.16,0,0,1-10.428-7.279c-4.967-4.443-4.915-10.428.89-13.645,5.114-2.831,11.366-5.152,17.046-5.019a117.288,117.288,0,0,1,27.7,4.272c19.178,5.219,36.581,14.644,53.308,25.172,11.29,7.108,22.008,15.12,33.17,22.427a27.883,27.883,0,0,1,12.274,16.261c1.132,3.987,2.969,7.769,4.8,12.432,4.339-4.615-.419-9.192,1.727-13.616,2.612,1.955,5.086,3.63,7.36,5.538q24.392,20.5,48.717,41.105c19.235,16.347,28.493,37.223,28.036,62.448a180.816,180.816,0,0,1-6.261,45.782,11.369,11.369,0,0,0-.362,5.433c5.542-8.373,9.491-17.427,13.121-26.732,3.8-9.753,6.542-19.82,5.909-30.106-.509-8.259-2.379-16.442-3.3-24.944-.2-1.917-.818-3.882-.443-5.809.385-2.008,1.775,1.927,2.317,3.054,6.955,14.354,16.456,26.909,27.456,38.313,18.278,18.921,24.292,48.6,13.473,72.6-3.435,7.636-8.773,14.53-13.9,21.261-8.083,10.609-16.884,20.662-25.015,31.229-3.05,3.958-5.081,8.7-7.574,13.078.466.38.923.756,1.385,1.132a9.093,9.093,0,0,0,2.15-1.784c9.558-15.452,22.118-27.774,36.823-38.531,17.151-12.536,27.532-29.583,28.036-51.634a18.76,18.76,0,0,1,2.721-8.949,41.937,41.937,0,0,1,1.77,5.514c2.579,14.258,6.87,28.241,5.7,43.079a43.131,43.131,0,0,1-5.818,18.83c-8.626,14.9-21.09,25.677-35.472,34.568-13.25,8.188-25.767,17.208-34.683,30.334-4.072,5.99-7.9,12.084-8.587,20.786,5.952-8.264,10.957-15.657,16.433-22.693,7.816-10.043,18.426-16.594,29.534-22.356,6.185-3.211,12.513-6.137,18.807-9.135,10.347-4.929,19.054-11.8,25.534-21.347.623-.933,1.422-1.751,3.454-4.2,1.094,12.969,2.165,24.04,2.911,35.139.452,6.656.3,13.354.571,20.025.894,21.87-8.354,38.674-25.7,51.367-8.806,6.446-17.489,12.969-23.183,22.8,8.435-5.942,17.089-11.6,25.243-17.907,8.026-6.218,15.548-13.083,22.845-19.287,0,9.5.8,20.005-.152,30.358-3.05,32.908-6,65.863-10.41,98.6-4.781,35.472-12.922,70.288-23.026,104.7-10.495,35.748-19.444,71.948-29.154,108.277" transform="translate(1520.865 427.56)" fill="#002677"/>
        <path id="Path_1848" d="M485.217,1433.665c-6.056-2.7-7.974-6.931-8.14-13.544-.894-35.781-2.731-71.539-3.554-107.316-.4-17.565.694-35.158,1.118-52.738,0-.3.062-.6.062-.908.014-9.758-.319-19.53.109-29.274.852-19.025-4.434-37.051-8.587-57.28,4.6,4.253,8.211,7.417,11.613,10.795a153.619,153.619,0,0,1,10.571,11.209c6.109,7.412,13.7,12.826,22.047,17.308a47.754,47.754,0,0,0,5.443,1.922c-9.306-11.032-16.994-21.114-25.71-30.21-7.245-7.56-8.825-15.3-6.97-25.506,3.73-20.523,11.8-39.463,19.178-58.7,18.44-26.642,38.76-51.077,73.028-57.366,15.548-2.855,30.8-1.194,44.987,6.542a46.852,46.852,0,0,0,5.69,2.826,61.487,61.487,0,0,1,28.417,21.908,201.143,201.143,0,0,0,13.2,16.19c4.472,4.934,6.789,10.718,8.1,17.013,4.8,23.016,6.618,46.272,3.973,69.655-2.65,23.474-6.147,46.857-9.111,70.3-1.1,8.711-1.8,17.484-2.593,26.233-2.612,28.721-4.4,57.461-4.02,86.339.2,15.728-.728,31.476-1.161,48.122-2.374-.956-3.9-1.194-4.933-2.032-14.13-11.427-31.124-14.306-48.394-16.484-7.793-.985-15.6-1.96-23.312-3.354-6.251-1.128-11.185-7.6-11.252-14a653.535,653.535,0,0,1,3.078-71.81c2.669-26.86,4.325-53.822,6.594-80.721.69-8.15,1.917-16.261,2.954-24.383,2.436-18.939,4.239-37.993,7.545-56.785,3.2-18.193,7.978-36.11,12.013-54.16,1.489-6.675,2.845-13.373,4.263-20.062-.671-.248-1.346-.49-2.022-.738a37.872,37.872,0,0,0-3.249,4.625c-8.43,16.684-12.984,34.568-16.418,52.828-3.53,18.759-7.769,37.394-10.923,56.215-3.611,21.514-6.818,43.113-9.358,64.764-2.545,21.68-4.334,43.456-5.937,65.226-1.4,19.039-2.188,38.126-3.012,57.209-.209,4.825.552,9.682.714,14.53.133,3.877.029,7.769.029,12.175-30.591,6.242-56.676,19.158-76.073,43.441" transform="translate(1561.721 948.918)" fill="#002677"/>
        <path id="Path_1849" d="M737,1382c-25.662-20.333-49.578-42.08-84.579-42.76,0-5.938-.476-11.338.076-16.637,2.845-27.428,5.557-54.883,9.092-82.229,2.836-21.919,5.985-43.855,10.428-65.493,4.934-24.021,11.756-47.652,17.232-71.568a165.574,165.574,0,0,0,3.844-32.561c-.838.962-2.008,1.789-2.455,2.9-11.751,29.3-22.227,58.98-28.236,90.1-2.117,10.976-5.828,21.666-7.636,32.68-2.745,16.737-4.676,33.617-6.565,50.473-2.536,22.594-4.814,45.211-6.979,67.838-.8,8.4-.971,16.851-1.48,26.3-44.121,6.542-68.484,35.8-84.993,75.254-2.2-5.124-2.907-9.025-1.827-13.606,1.023-4.372,1.023-9.011,1.218-13.54,1.137-26.038,1.523-52.128,3.488-78.1,1.579-20.828,4.824-41.543,7.74-62.247,3.811-27.014,7.593-54.041,12.2-80.925,3.939-22.96,6.994-46.272,15.924-68.009,6.8-16.547,15.99-31.4,34.8-37.1,4.9-1.485,9.51-3.925,14.244-5.962,21.114-9.1,41.076-5.695,61.182,4.154,24.2,11.856,34.792,33.312,43.018,56.872,8.449,24.206,8.23,49.531,8.773,74.6.8,37.332-2.179,74.532-6.86,111.569-2.964,23.421-6.295,46.8-9.539,70.188-.314,2.288-1.194,4.491-2.108,7.816" transform="translate(1885.614 989.307)" fill="#002677"/>
        <path id="Path_1850" d="M1005.545,932.675a93.487,93.487,0,0,1-44.188,39.259c7.779.485,14.549-2.4,22.165-4.577-3.383,4.391-6.565,8.949-10.171,13.145q-32.057,37.287-64.27,74.436c-22.589,26.166-45.467,52.095-67.6,78.642-14.411,17.294-30.824,31.7-51.324,41.119a59.53,59.53,0,0,1-13.754,4.524c-14.292,2.688-28.669,4.877-43,7.365-4.33.751-8.6,1.87-12.9,2.821.119.586.233,1.166.352,1.751,4.848-.291,9.691-.681,14.548-.852,12.1-.423,24.23-.3,36.281-1.3,6.2-.518,12.332-2.726,18.335-4.667,4.544-1.465,8.773-4.149,14.787-2.112-1.874,1.76-3.325,3.068-4.715,4.438-6.456,6.385-13.521,12.279-19.23,19.277-17.622,21.619-34.288,44.022-52.128,65.445-21.609,25.938-40.482,53.832-59.251,81.73-13,19.33-23.607,40.277-35.039,60.63-9.458,16.841-18.568,33.883-28.493,52.052-14.244-24.84-35.976-39.678-61.557-50.1,4.929-10.029,9.091-19.472,14.077-28.464,9.982-18.026,19.491-36.423,30.886-53.541,14.772-22.2,31.181-43.3,46.909-64.869,31.3-42.937,66.587-82.647,100.446-123.515,17.408-21.019,34.535-42.3,52.561-62.79,21.832-24.815,44.459-48.931,66.777-73.323,15.153-16.561,30.5-32.951,45.477-49.659,4.681-5.214,10.286-7.179,16.884-7.331,4.244-.09,8.511-.2,12.746.038,25.667,1.451,49.226-5.295,71.3-18.012,1-.571,2.055-1.042,3.092-1.561" transform="translate(1855.439 542.838)" fill="#002677"/>
        <path id="Path_1851" d="M539.24,1022.564c3.787-.771,6.989-1.432,10.191-2.079.1-.552.2-1.094.3-1.637-3.207-.562-6.4-1.375-9.624-1.627-3.944-.309-6.437-2.169-8.939-5.233-18.05-22.07-36.138-44.112-54.65-65.792-8.816-10.324-14.829-21.971-20.148-35.22-2.017-5.019,4.705-.595,5.9.1,7.588,4.4,15.357,8.606,22.422,13.759,19.829,14.449,39.392,29.249,58.965,44.05,18.378,13.9,36.381,28.26,52.5,44.811,24.344,25,45.025,52.537,56.957,85.683,7.5,20.828,13.2,42.2,14.368,64.521,1.08,20.572,2.6,41.134,3.283,61.72a232.441,232.441,0,0,1-1.237,31.619c-2.688,25.928-5.381,51.881-9.13,77.672-2.921,20.067-7.536,39.882-11.209,59.845-4.758,25.914-9.115,51.9-14.044,77.781-3.5,18.392-7.669,36.661-11.7,55.73-35.144,3.207-61.534,21.018-83.247,47.832a29.142,29.142,0,0,1,.357-3.944c5.029-21.847,9.929-43.727,15.2-65.511,8.916-36.8,19.863-73.147,24.739-110.851a45.019,45.019,0,0,1,.913-5.367c.585-2.25,1.394-4.448,2.4-7.569,10.433,6.575,17.246,15.548,23.926,26.3,1.432-7.807-3.016-12.084-5.871-16.8-2.493-4.13-5.671-7.831-8.416-11.818-5.7-8.278-5.885-17.736-4.877-27.113,2.464-22.87,5.538-45.672,8.05-68.532,3.3-30.158,6.951-60.321,5.7-90.755-.795-19.454-4.287-38.55-9.406-57.271-9.439-34.449-23.564-66.853-43.455-96.659-3.668-5.5-6.665-11.452-10.229-17.641" transform="translate(1523.293 452.42)" fill="#002677"/>
        <path id="Path_1852" d="M641.565,1344.164c-29.007,1.07-34.193,2.945-75.064,30.643-1.646-8.216-3.259-16.123-4.791-24.05-.29-1.479.1-3.159-.443-4.505-3.425-8.554-1.485-16.261,2.7-24.083,14.021-26.185,26.542-53.251,41.862-78.637,30.11-49.9,64.983-96.6,101.378-142.055,25.748-32.156,52.99-63.123,79.674-94.527A239.656,239.656,0,0,1,804.2,988.3a112.6,112.6,0,0,1,15.676-12.179c13.707-9.044,28.122-6.475,35.682,12.032,2.664,6.509,3.368,13.264.909,20.381-6.794,19.682-16.894,37.7-28.488,54.717-11.932,17.517-24.454,34.816-38.436,50.7-24.72,28.079-45.629,58.969-68.275,88.576-22.694,29.663-43.193,60.786-60.2,94.046-6.323,12.356-10.871,25.62-16.166,38.494-1.251,3.049-2.274,6.2-3.33,9.1" transform="translate(1912.236 687.124)" fill="#002677"/>
        <path id="Path_1853" d="M578.9,1302.265c2.855-14.125,10.257-27,16.727-40.311,27.142-55.886,65.254-104.28,103.781-152.407,8.725-10.9,17.308-21.937,26.385-32.537,22.988-26.814,43.636-55.225,60.43-86.359,1.389-2.574,3.211-4.919,5.662-8.63,6.446,16.038,12.912,30.6,18.031,45.615,2.07,6.113,1.813,13.249,1.542,19.872-.742,17.47.395,35.182-6.58,51.948-2.355,5.685-5.509,10.038-11.361,12.112-5.985,2.127-12.018,4.144-18.036,6.195a19.8,19.8,0,0,0-5.571,2.526c8.8,2.8,16.885-1.337,27.18-2.9-4.149,6.984-7.232,12.959-11.152,18.321-1.346,1.842-4.724,2.408-7.293,3.1-5.614,1.508-11.3,2.725-16.965,4.058.09.637.181,1.275.262,1.907h17.37c-1.865,3.126-2.874,5.038-4.091,6.8-20.148,29.211-41.1,57.9-60.216,87.758-14.187,22.169-27.456,45.063-36.481,70.121-6.708,18.621-12.089,37.508-15.124,57.062-.352,2.246-1.1,4.425-1.832,7.327-6.78-11.532-12.845-22.2-19.244-32.66-6.789-11.076-15.514-20.4-27.646-25.52-11.375-4.791-23.122-8.706-35.777-13.4" transform="translate(1985.115 728.257)" fill="#002677"/>
        <path id="Path_1854" d="M728.391,1331.048c-15.376-23.669-37.3-37.865-65.145-44.94.523-12.608.3-24.74,1.7-36.685,2.531-21.666,6.984-43.137,8.906-64.836,2.479-28.051,6.732-56.062,4.71-84.375a41.227,41.227,0,0,0-2.864-12.736c-8.273,64.189-16.552,128.373-25.025,194.136-1.6.637-4.786,2.669-8.192,3.14-17.079,2.341-31.923,9.144-44.426,21.057-.59.561-1.513.78-3.7,1.86.324-4.943.423-9,.871-13.007,2.912-26.809,5.738-53.632,8.911-80.411,3.459-29.235,6.332-58.489,5.4-87.991a16.577,16.577,0,0,1,.5-5.41c7.959-25.115,26.086-47.085,56.111-50.568,23.112-2.673,41.847,7.242,57.614,23.441a13.056,13.056,0,0,1,2.964,5.533c4.553,16.689,8.787,33.474,8.973,50.906.081,7.85-.537,15.7-.942,23.555-1.732,33.293-3.668,66.577-5.181,99.88-.452,9.976.285,20,.371,30.006.081,8.72.014,17.441.014,26.161Z" transform="translate(2043.166 1058.272)" fill="#002677"/>
        <path id="Path_1855" d="M577.289,1238.725c-4.472-25.053-1.6-49.773-2.736-74.279-.152-3.354-1.047-6.68-1.656-10.367-6,1.671-5.823,5.628-6,9.106-.895,16.651-1.8,33.307-2.355,49.973-.252,7.565.238,15.162.495,22.746.033,1.013.029,1.955-.029,2.821H471.087c-.038-.432-.067-.885-.086-1.351-.495-12.422-.471-24.911-1.817-37.247-1.518-13.858,1.894-26.024,10.6-36.447,18.412-22.023,39.635-40.016,69.227-44.973,22.86-3.84,45.748-5.129,68.313,1.255,20.253,5.728,35.287,18.507,45.106,37.037a83.794,83.794,0,0,1,9.32,35.877c.619,15.191.333,30.42.224,45.848Z" transform="translate(1571.526 1229.813)" fill="#002677"/>
        <path id="Path_1856" d="M710.326,1265.323c-16.9-13.33-35.382-21.375-57.737-17.008,4.915-22.494,12.313-43.2,20.238-63.723,6.561-16.975,13.683-33.735,20.414-50.644,1.4-3.511,2.165-7.269,3.454-11.7-5.552.361-6.408,4.006-7.626,6.694-10.239,22.646-21.029,45.087-30.163,68.176-6.328,15.995-10.205,32.95-15.429,49.4-.633,1.994-2.488,4.467-4.32,5.067-16.1,5.247-29.425,14.12-40.087,28.545-.5-4.582-1.613-9.182-1.413-13.73.547-12.1.466-24.4,2.75-36.205,6.58-34.044,16.375-67.123,34.4-97.2,11.366-18.988,22.537-38.094,34.173-56.919,7.308-11.851,14.9-23.569,23.145-34.787A100.744,100.744,0,0,1,708.48,1024.4c5.072-4.263,11.661-4.743,18.188-3.606,4.372.761,6.841,3.806,8.331,7.622,3.387,8.749,6.751,17.517,9.815,26.385,6.294,18.2,8.663,37.237,9.315,56.263.3,8.777-2.817,17.921-5.609,26.5-6.456,19.891-13.854,39.473-20.491,59.3a381.437,381.437,0,0,0-15.586,65.307c-.072.527-.633.99-2.117,3.149" transform="translate(2055.494 871.971)" fill="#002677"/>
        <path id="Path_1857" d="M524.888,1259.88a45.925,45.925,0,0,1,.433-4.934,887.846,887.846,0,0,0,15-131.789c1.246-31.808,2.4-63.746-1.489-95.512-2.136-17.45-6.736-49.155-9-66.586a6.388,6.388,0,0,1-.209-2.688c.685-1.894,1.251-4.543,2.679-5.248,1.337-.656,4.125.271,5.561,1.4,20.158,31.072,51.667,56.824,126.779,56.9,23.174-.485,41.79-9.653,56.81-13.811,2.36-.195,6.17.471,6.922,1.941.866,1.722-.185,5.343-1.637,7.15-7.6,9.453-29.026,33.712-36.814,43.013-21.414,25.6-42.9,51.129-64.113,76.891-16.97,20.615-33.64,41.486-50.325,62.338-16.523,20.653-31.071,42.671-44.849,65.217-1.332,2.188-2.969,4.182-4.468,6.266-.423-.181-.851-.362-1.28-.543" transform="translate(1782.148 618.853)" fill="#002677"/>
        <path id="Path_1858" d="M518.824,1254.544c0-2.422.015-4.786.086-7.15.571-19.136.457-38.227-4.425-56.906a13.543,13.543,0,0,1,1.385-11.218c13.916-23.259,31.7-43.245,54.474-57.675a64.713,64.713,0,0,1,47.142-9.163,4.4,4.4,0,0,0,.88.209c15.562-.5,26.989,7.7,37.308,17.969C667.221,1142.1,676.5,1155,680.6,1171.15a106.837,106.837,0,0,0,5.457,16.275c3.744,8.626,3.968,17.674,4,26.756.033,8.792-.024,17.6-.561,26.376-.286,4.7-.762,9.391-1.275,13.987H598.68a21.2,21.2,0,0,1-.162-2.75c.4-30.011,1.175-60.006,1.917-90.008.067-2.7.833-5.381,1.185-8.083.4-3.174.29-6.551-3.435-7.379s-5.514,1.946-6.061,5.228c-1.185,7.165-2.8,14.334-3.1,21.557-1.109,26.661-1.765,53.332-2.56,80-.014.476-.024.957-.033,1.432Z" transform="translate(1740.766 1213.993)" fill="#002677"/>
        <path id="Path_1859" d="M652.3,1122.907c-7.579,40.12-5.752,81.121-9.744,122.316H553.217c1.7-12.136.257-24.334.338-36.509a38.646,38.646,0,0,1,2.469-14.021c7.7-18.9,17.465-36.623,30.553-52.5,13.316-16.166,30.667-24.244,50.882-26.957a213.631,213.631,0,0,1,21.58-1.45c12.36-.4,21.766,7.165,31.533,12.931,15.514,9.153,29.729,19.962,36.895,37.622,6.023,14.858,8.335,30.348,8.6,46.205.038,2.074-1.385,4.572-2.864,6.2-3.478,3.792-7.426,7.155-11.123,10.747-1.884,1.841-3.644,3.806-6.294,6.594,9.206,1.693,13.464-4.748,19.886-8.6a70.137,70.137,0,0,1-.409,19.738H654.358c.218-28.517.661-57.038,1.056-85.559.152-10.628.462-21.247.566-31.871a22.767,22.767,0,0,0-1-4.89c-.89,0-1.784,0-2.674,0" transform="translate(1888.596 1223.314)" fill="#002677"/>
        <path id="Path_1860" d="M654.434,1232.758c.038-23.459-.595-46.453-6.851-68.994-3.654,13.231-2.255,26.766-3.235,40.092-.7,9.52-1.151,19.058-1.627,28.9H598.837a226.116,226.116,0,0,0-2.122-58.807,79.968,79.968,0,0,0-3.069-13.255c-1.551-4.539-.428-7.993,2.07-11.846,18.607-28.707,51.338-37.356,80.288-28.36,22.137,6.88,38.412,20.543,50.359,39.373a60.172,60.172,0,0,1,9.006,26.338c1.232,15.429.623,31.01.428,46.557Z" transform="translate(2037.845 1235.779)" fill="#002677"/>
        <path id="Path_1861" d="M816.281,898.395c-3.492,6.342-6.87,12.76-10.509,19.02-19.8,34.074-38.469,68.818-61.691,100.822-16.842,23.207-39.059,40.054-64.3,52.3q-25.7,12.46-57.262,10.324c3.549-4.268,6.332-8.064,9.553-11.432q20.446-21.352,41.12-42.485c15.438-15.852,30.481-32.123,46.519-47.342,22.651-21.49,45.905-42.352,69.212-63.128,8.031-7.155,17.013-13.245,25.562-19.824.6.58,1.194,1.161,1.794,1.746" transform="translate(2149.008 407.469)" fill="#002677"/>
    </g>
</svg>
