<svg xmlns="http://www.w3.org/2000/svg" width="96.525" height="104.539" viewBox="0 0 96.525 104.539">
    <g id="icon" transform="translate(0 0)">
        <path id="Path_2543" d="M287.621,1056.871a4.574,4.574,0,0,1-.163-1.324q-.159-7.3-.318-14.585a3.707,3.707,0,0,1,2.683-4.428c22.283-10.312,45.043-19.6,67.057-30.486a20.684,20.684,0,0,1,6.331-2.324,6.805,6.805,0,0,1,6.165,2.026c1.23,1.493,1.493,3.536,1.648,5.463a88.725,88.725,0,0,1,.218,12.708c-.02.4-13.834,6.251-16.672,7.532-5.64,2.551-11.241,5.554-16.958,7.933-11.375,4.735-22.819,9.991-34.063,15.038-3.133,1.4-6.222,2.889-9.332,4.34-2.006.931-5.738.676-6.595-1.892" transform="translate(-286.424 -1002.622)" fill="#52b9e4"/>
        <path id="Path_2544" d="M375.748,1031.244a4.894,4.894,0,0,0-3.15-4.285,3.533,3.533,0,0,1-1.444-.757,3.98,3.98,0,0,1-.593-2.012,4.634,4.634,0,0,0-5.391-3.511c-.734-2.213-1.849-4.735-4.121-5.256a6.982,6.982,0,0,0-4.259.874l-69.031,30.331a10.5,10.5,0,0,0-3.528,2.141c-.9.937-.7,2.3-.734,3.594-.029.92-.522,1.777-.08,2.585a5.419,5.419,0,0,0,5.646,2.645c-.972,1.476.3,3.491,1.874,4.3s3.431.989,4.912,1.943a10.373,10.373,0,0,0,2.227,1.419c1.542.5,3.19-.476,4.8-.332,1.135.1,2.178.757,3.313.8a6.358,6.358,0,0,0,2.852-.834q13.847-6.573,27.689-13.144l27.694-13.144c2.416-1.146,4.987-2.823,7.555-3.568,1.955-.568,3.795-1.31,3.769-3.789" transform="translate(-279.622 -980.824)" fill="#52b9e4"/>
        <path id="Path_2545" d="M283.361,1038.128c.315-.522.731-.616,1.462-.926,1.866-.8,3.666-1.416,5.655-2.448-.355-1.548-.59-3.491-.969-5.153-.192-.843,1.029-2.579,3-2.255,2.2.364,2.837,2.892,3.138,5.133,9.6-3.534,18.7-8.395,27.752-12.493-.034-.186-.212-.805-.246-.995a2.72,2.72,0,0,0-1.2-.04c-1.914.685-4.015,1-5.58,2.39a.869.869,0,0,1-.837.229c-1.253-.5-.014-1.559.616-2.15,2.072-1.935,4.394-3.646,5.741-6.268a10.92,10.92,0,0,0,1.608-5.924,2.7,2.7,0,0,1,.413-1.6c.444-.668,1.129-.768,1.866-.1.714.651,1.445,1.281,2.4,2.124l-1.229.573c-.4.332-.327,1.487-.284,2.238a30.829,30.829,0,0,1,.441,3.468c-.077,1.5-.725,2.227-.682,4.617,5.987-2.671,11.779-5.531,17.586-8.122-.29-1.588-.562-2.883-.757-4.181a2.75,2.75,0,0,1,2.465-2.889,3.342,3.342,0,0,1,2.955,2.9c.034.5.052,1.255.052,2.121,1.235-.473,2.175-1.046,3.093-1.479,2.032-.963,4.035-1.972,6.033-2.992a5.356,5.356,0,0,1,4.614-.189,30.349,30.349,0,0,0,3.029.834c1.674.456,2.112.957,2.244,2.614.063.734.049,1.47.129,2.2.284,2.56.519,5.228.662,7.775.152,2.7.235,5.279.235,7.951-5.9,2.66-11.5,4.975-17.116,7.781.344,2.574.556,5.471.929,8.266,3.021-1.069,7.87-3.4,11.533-4.485.894.714,3.74,2.909,4.554,3.439a8.124,8.124,0,0,1,.017,2.58,18.714,18.714,0,0,1,2.041-.756,20.824,20.824,0,0,1,3.605,2.981,15.481,15.481,0,0,0,.353,3.239c.837.384,2.4,1.281,3.542,1.82a1.99,1.99,0,0,1,1.187,1.857c.066,1.015.169,1.378.2,2.4.029.986.011,1.992-.894,2.436-1.691.832-7.862,4.064-9.69,5.024-.676.353-2.476,1.244-2.906,1.536a19.113,19.113,0,0,0,4.2,12.524c1.261,1.4,2.422,1.949,3.729.828a2.1,2.1,0,0,1,2.594-.318,2.579,2.579,0,0,1,.943,1.883,7,7,0,0,1-.166,1.917c-.186,1.258-.8,1.582-2.1,1.863-1.751.37-3.026-.338-4.331-1.574a19.484,19.484,0,0,1-4.29-5.634,69.7,69.7,0,0,1-3.628-8.372,2.032,2.032,0,0,0-.957-1.281c-5.153,2.422-10.246,4.821-15.348,7.205-2.645,1.238-5.291,2.468-7.962,3.651-4.677,2.072-22.55,9.905-24.2,10.733-.332,4.133,3.055,12.885,6.317,16.749a22.307,22.307,0,0,1,3.141-1.413,2.253,2.253,0,0,1,2.614,1.336,1.987,1.987,0,0,1-.249,2.6,5.67,5.67,0,0,1-3.482,1.918c-1.175.057-2.665-.92-3.723-2.049a29.369,29.369,0,0,1-6-9.415c-.96-2.439-1.651-5.242-2.485-7.89a1.252,1.252,0,0,0-.484.152,5.744,5.744,0,0,1-.742.324,27.152,27.152,0,0,1-2.625-.782c-.424-.161-1.227-.5-1.6-.309a19.656,19.656,0,0,1-2.571.926,19.677,19.677,0,0,1-3.929-1.656c-.33-.186-.645-.4-1.218-.751-1.121,5.153-.7,9.976-1.8,15.124-1.657.146-2.915.137-3.866-1.453,1.654-2.471,1.94-5.159,2.241-8.151.2-2,.14-4.391.43-6.638-.737-.473-1.929-1.238-2.737-1.748-.095-1.092.149-2.2.057-3.285-.427.112-.851.255-1.25.381a17.079,17.079,0,0,1-2.631-1.347c-.611-.387-1.224-.619-1.866-1.043.155-2.379.556-4.953.817-7.245,2.605-1.4,4.761-2.379,7.423-3.812-.347-2.76-.5-4.626-.954-7.861a20.294,20.294,0,0,1-2.046.88,15.681,15.681,0,0,1-2.66.714,6.6,6.6,0,0,1-2.476-1.052c-.911-.539-1.791-.989-2.837-1.516-.04-.092-.218-.3-.215-.5.089-5.594.238-11.289-.02-16.915a5.382,5.382,0,0,1,.184-2.78m4.113,12.353c-.02-1.026-.083-2.067-.115-3.1l-2.946-.963c-.014,1.76-.034,3.674-.049,5.42l3.13.9C287.488,1052,287.488,1051.249,287.474,1050.481Zm-3.1-11.484c.049.748,0,1.4.029,2.106.026.636.032,1.743.026,3.067l2.846.986c-.043-1.075-.06-2.147-.118-3.221a12.066,12.066,0,0,0-.186-1.8A11.617,11.617,0,0,0,284.373,1039Zm6.451-10.026a1.975,1.975,0,0,0,.562,1.588,1.873,1.873,0,0,0,2.3-1.129C294.014,1027.739,291.065,1028.255,290.824,1028.971Zm34.673-10.985-1.267.619c.112.169-.006.757.106.928.43-.195,1.118-.5,1.519-.734C325.764,1018.648,325.589,1018.138,325.5,1017.986Zm20.486-13.705c-.6-.046-1.909.476-1.771,1.6.212,1.72,3.545,1.548,3.545.037C347.758,1005.1,346.549,1004.323,345.984,1004.28Zm20.762,8.054c-.33.129-.94.39-1.175.5-4.1,1.955-8.145,4-12.3,5.844-5.053,2.241-10.217,4.268-15.282,6.489-2.436,1.063-15.236,6.712-19.171,8.515-9.707,4.437-19.343,9-29,13.528a1.778,1.778,0,0,0-.39.312v4.858c4.141-1.972,8.025-3.872,11.957-5.684q12.717-5.859,25.476-11.636c5.7-2.568,11.456-5.033,17.179-7.561,3.279-1.445,6.535-2.938,9.822-4.371,3.858-1.677,9.154-3.915,13-5.62A38.359,38.359,0,0,0,366.746,1012.334Zm-54.736,74.1c3.239-1.61,6.52-2.94,9.822-4.408,4.147-1.843,10.484-4.637,15.709-7.042,6.188-2.843,12.189-6.033,18.4-8.827,5.417-2.436,19.976-9.5,21.811-10.518.728-.41.934-1.634.272-2.789a9.781,9.781,0,0,0-1.086.5c-5.03,2.556-10.421,4.9-15.442,7.477-1.121.57-20.111,9.192-22.739,10.349-1.4.619-9.859,4.305-12.625,5.638-5.268,2.536-10.974,5.2-15.508,7.394l-.086,1.287c-.057.533-.092.865-.183,1.749C311.159,1086.845,311.589,1086.639,312.01,1086.429Zm-1.565-3.757a11.883,11.883,0,0,0,2.058-.932c2.187-.957,4.121-2,6.271-3.021.633-.3,1.261-.619,1.9-.908,3.462-1.542,6.993-2.955,10.375-4.643s13.161-5.944,14.548-6.615c.631-.307,25.276-11.6,30.366-14.393.5-.278,1.178-.608,1.72-.917a12.436,12.436,0,0,0-2.559-1.516,5.319,5.319,0,0,0-1.539.74c-4.826,2.488-21.5,10.366-25.006,11.8-3.752,1.539-33.017,15.554-37.015,17.253-.714.3-3.178,1.462-4.193,1.863A7.485,7.485,0,0,0,310.445,1082.672Zm-4.64,4.024a20.736,20.736,0,0,0,3.585,1.207l.556-3.852c-.992-.53-2.416-1.155-3.568-1.676A15.455,15.455,0,0,0,305.805,1086.7Zm-1.169.012a27.613,27.613,0,0,1,.373-3.763,6.408,6.408,0,0,0-1.273.565,32.753,32.753,0,0,0-.59,3.846C303.753,1087.12,304.189,1086.914,304.636,1086.708Zm-.708-5.013c.519-.261,2.961-1.476,3.511-1.731.02.023,3.689-1.554,4.892-2.112,5.222-2.416,10.421-4.878,15.617-7.337,3.293-1.559,38.118-17.875,42.532-20.174.992-.521,2.439-1.155,3.356-1.777a16.112,16.112,0,0,0-.4-2.393c-1.009.4-2.875,1.27-3.757,1.688-3.64,1.731-7.526,3.35-11.157,5.073-2.436,1.152-12.88,6-24.6,11.364-13.619,6.234-27.964,13.072-30.331,13.989-1.009.392-2.531,1.292-3.626,1.837.685.418,1.233.734,1.6,1C303.025,1082.153,303.4,1081.967,303.928,1081.695Zm-5.07,4.058c.178.312.7.507,1.129.694.59.255,1.516.653,2.278.94.2-1.284.461-2.7.674-3.927-1.218-.831-2.2-1.146-3.3-1.9-.269,1.129-.5,2.015-.688,2.912C298.844,1084.939,298.666,1085.409,298.858,1085.753Zm.212-6.9q2.154-1.1,4.359-2.09c6.721-3.027,13.476-5.984,20.171-9.057,5.615-2.574,20.469-9.564,22.361-10.329,1.161-.467,14.754-6.735,20.38-9.438,2.109-1.012,4.316-1.846,6.621-2.814-1.009-.717-1.734-1.232-2.677-1.9-.464.269-36.628,16.746-50.528,22.98-10.619,4.758-24.805,10.753-25.657,11.166.659.545,2.906,1.918,3.3,2.339C297.915,1079.505,298.342,1079.224,299.07,1078.849Zm-1.161,5.17a17.224,17.224,0,0,0,.625-3.282,3.848,3.848,0,0,0-.805.35c-.29,1.376-.453,2.361-.668,3.393C297.431,1084.274,297.651,1084.151,297.909,1084.019Zm-2.152.61c.358-1.267.674-2.5.972-3.574-1-.691-2.387-1.843-3.726-2.771-.172,1.837-.175,3.078-.335,4.562C293.745,1083.337,294.662,1084.128,295.757,1084.63Zm-4.09-5.855c.12-.055.424-.135.427-.2a11.089,11.089,0,0,1,.189-1.628c.688-.461,1.662-.814,2.519-1.264.931-.484,37.955-16.81,39.508-17.546,3.924-1.869,20.658-8.91,22.361-9.727,3.221-1.55,7.959-3.872,11.189-5.408.083-.588-.009-1.64-.206-1.53-5.506,3.006-22.587,10.444-23.321,10.736-3.244,1.3-32.828,14.634-37.706,16.752-4.141,1.8-8.266,3.643-12.43,5.405-.886.378-1.608.743-2.2,1.032A10.591,10.591,0,0,0,291.667,1078.774Zm-4.348-3.44c-.169.872-.241,1.522-.332,1.978a14.066,14.066,0,0,0,1.94,1.017,15.3,15.3,0,0,0,1.565.714c.135-1.381.287-2.5.456-3.74-1.146-.851-2.25-1.717-3.37-2.548C287.38,1073.673,287.451,1074.659,287.319,1075.335Zm.694-3.725c.651.521,2.608,1.8,3.551,2.433,1.275-.726,4.746-2.313,6.1-2.9,5.1-2.2,10.232-4.351,15.336-6.552,3.164-1.361,21.874-9.762,24.585-10.931,4.589-1.969,21.659-9.286,25.542-11.092,1.1-.51,2.579-1.339,3.935-2.043-1.187-.8-2.419-1.978-3.184-2.5-12.361,4.861-24.788,10.435-36.88,15.935C314.059,1059.85,300.368,1065.789,288.013,1071.609Zm59.929-28.569c-.183-2.605-.5-5.33-.7-8.2-2.379,1.058-4.554,2.009-6.718,2.987-4.147,1.871-8.277,3.777-12.441,5.62-2.562,1.132-13.92,6.257-17.039,7.684-3.577,1.639-12.315,5.956-13.083,6.308.224,2.511.439,4.933.674,7.6C315.137,1057.631,331.536,1050.4,347.942,1043.04Zm-58.456,16.526c.992-.444,3.178-1.318,3.806-1.614,8.263-3.88,33.252-15.542,38.087-17.8,7.644-3.56,32.039-14.433,35.84-16.067a11.713,11.713,0,0,0-.195-2.834,14.2,14.2,0,0,0-.112-1.571c-13.1,5.707-26.4,11.143-39.1,17.162s-26.015,10.9-38.531,17.577C289.377,1055.889,289.363,1057.786,289.486,1059.566Zm-.209-14.542a2.081,2.081,0,0,0,.86-.315q2.988-1.3,5.953-2.646,8.731-3.955,17.451-7.927,17.725-8.1,35.45-16.2c1.786-.814,3.637-1.493,5.437-2.284,3.15-1.376,6.277-2.8,9.421-4.19,2.817-1.247,3.3-1.106,2.522-4.577-.026-.115-.166-.215-.266-.341-3.107,1.275-6.254,2.482-9.32,3.849-3.264,1.462-25.688,11.249-33.756,14.832-3.264,1.444-19.211,8.721-24.45,10.925-2.9,1.218-6.715,3.181-9.9,4.4C288.876,1041.9,289.033,1043.342,289.277,1045.024Zm35.284-22.1c6.1-2.726,12.226-5.383,18.322-8.111,1.917-.854,16.245-6.95,21.7-9.381-.745-.129-4.167-1.1-4.72-.974-1.453.324-2.075.974-3.4,1.582-4.27,1.952-42.5,19.8-46.341,21.455-2.319,1-23.676,10.123-24.874,10.6,1.229.444,2.095.911,2.986,1.266C292.871,1037.34,322.637,1023.789,324.561,1022.927Zm-40.11,34.5a2.27,2.27,0,0,0,1.158,1.032c.255.1,1.642.783,1.831.662.12-.075.057-.8.057-1.1,0-1.287.009-2.519.006-3.746l-3.147-.882A32.633,32.633,0,0,0,284.45,1057.431Z" transform="translate(-283.093 -1003.291)" fill="#001d63"/>
    </g>
</svg>
