<svg xmlns="http://www.w3.org/2000/svg" width="566.64" height="566.638" viewBox="0 0 566.64 566.638">
    <g id="centered-rhombus_2"  transform="translate(-172.217 -49.12)">
        <g id="Group_12158" transform="translate(172.217 49.12)">
            <g id="Group_12157">
                <g id="Group_12156">
                    <path id="Path_4442" d="M455.53,615.758c-27.1,0-53.519-8.747-72.536-23.972-74.166-60.231-126.521-112.548-186.6-186.541-15.355-19.169-24.178-45.717-24.178-72.806s8.733-53.526,23.96-72.521C256.4,185.738,308.717,133.391,382.731,73.3c19.146-15.339,45.725-24.176,72.8-24.176s53.51,8.724,72.528,23.951C602.269,133.323,654.6,185.663,714.665,259.648c15.347,19.146,24.192,45.7,24.192,72.792s-8.732,53.518-23.973,72.528c-60.193,74.151-112.5,126.5-186.547,186.608-19.161,15.339-45.725,24.183-72.806,24.183Z" transform="translate(-172.217 -49.12)" fill="#fff"/>
                </g>
            </g>
            <path id="Path_4443" d="M453.827,600.249c-24.1,0-47.474-7.681-64.151-21.037-73.218-59.435-124.868-111.09-184.151-184.13-13.463-16.765-21.2-40.251-21.2-64.345,0-24.109,7.666-47.474,21.014-64.141,59.428-73.2,111.068-124.861,184.138-184.175,16.788-13.455,40.265-21.2,64.352-21.2,24.116,0,47.473,7.674,64.171,21.038,73.2,59.442,124.838,111.075,184.145,184.129,13.463,16.788,21.189,40.259,21.189,64.353s-7.675,47.466-21.023,64.149C642.919,468.045,591.286,519.7,518.2,579.046c-16.788,13.44-40.258,21.2-64.374,21.2Z" transform="translate(-170.514 -47.418)" fill="#f2f2f2"/>
            <path id="Path_4444" d="M451.833,582.066c-18.011,0-35.919-5.655-47.866-15.154-75.534-61.323-128.826-114.583-189.959-189.866v-.016c-9.705-12.1-15.517-30.162-15.517-48.289s5.725-36.076,15.281-48.016h-.016c61.3-75.447,114.536-128.7,189.787-189.818,12.1-9.713,30.17-15.5,48.29-15.5,18.019,0,35.863,5.616,47.8,15.077,75.6,61.384,128.89,114.662,190.022,189.959,9.722,12.112,15.51,30.17,15.51,48.3,0,18.064-5.663,35.934-15.148,47.85l.047-.048-.047.048a.532.532,0,0,1-.119.148c-61.243,75.432-114.456,128.678-189.739,189.818-12.127,9.721-30.185,15.509-48.329,15.509Z" transform="translate(-168.52 -45.421)" fill="#fff"/>
        </g>
        <g id="Group_12159" transform="translate(516.115 98.882)">
            <path id="Path_4445" d="M534.3,149.077c-.309,4.46-.625,8.617-.782,13.05-.129,3.651.185,4.1-3.289,6.428-3.989,2.676-5.459-1.331-4.8-4.581.027-.138.068-8.3-.069-8.818-.5-1.872,1.274-9.79,2.571-11.891.785-1.27,1.188-1.008,2.927-1.475,3.634-.973,3.452-.5,6.708-.8,2.425-.221,4.792-1.541,7.215-1.47,2.043.058,4.5,1.783,5.837-.485.854-1.452.444-1.808,2.324-3.438,1.4-1.214,3.48-4.435,5-5.195a8.409,8.409,0,0,1,2.822-1.211c2.609-.582,4.606-2.1,7.247-1.111.686.254,5.078-.787,5.822-1.926.526-.8,1.266-.812,1.894-2.819.984-3.155.452-3.626,2.509-6.884.935-1.482,1.58-3.323,3.038-4.926.679-.748,2.318-2.779,3.283-3.116a18.011,18.011,0,0,1,3.171-1.383c3.31-.889,5.353.46,5.844,3.844.407,2.81-7.306,3.98-6.447,8.433.315,1.646-1.177,12.425-1.77,14.427-.811,2.727.21,2.317,1.968,4.409,1.856,2.214,4.184,9.56,4.038,12.216-.333,6.061-.4,9.2-4.338,14.09-1.647,2.041-3.465,2.441-5.988,2.973-1.146.242-4.028-2.2-4.445-3.76-1.093-4.08-1.031-6.426-6.261-5.363-2.466.5-7.821,2.889-10.137,3.962-.137.062-2.724,1.069-2.562.751,1.81-3.558,6.03-4.079,5.989-6.047-.051-2.481-1.981-3.711-4.06-5.011-3.5-2.194-11.331.333-15.084.937-3.781.606-7.636-1.664-10.706-3.623-.144-.09.529-.2.528-.183" transform="translate(-466.433 -90.771)" fill="#52b9e4" fill-rule="evenodd"/>
            <path id="Path_4446" d="M494.356,152.872c.582,5.174,1.716,7.782,2.726,12.476.478,2.216-1.7,6.915-3.477,6.145-2.824-1.23-4.794-5.012-5.679-7.838-1.186-3.787-2.949-5.125-4.2-8.222-1.8-4.429-2.885-10.308-4.618-14.42-.583-1.383-1.1-5.425.235-6.731,2.408-2.354,2.053-3.146,5.572-4.088,4.635-1.242,3.041-.068,5.877-.391,1.776-.205,5.717-1.832,7.7-1.907,1.729-.066,1.646-.561,3.589.18,2.578.983,4.669,3.223,6.673,3.6.911.172,4.9-1.158,5.7-1.7,2.288-1.518,7.76-2.931,10.6-3.369,3.017-.465,3.494,3.463,4.556,5.254.8,1.345,1.056,7.743-.319,8.558a44.719,44.719,0,0,1-4.94,1.98c-1.924,1.351,2.124,2.553-3.2,2.061-2.774-.253-9.234,2.247-12.084,2.852-2.434.513-4.4-.083-6.7,3.048-.536.73-6.664,1.045-7.041,1.5,0,0-1,.773-.978,1.013" transform="translate(-473.016 -87.983)" fill="#52b9e4" fill-rule="evenodd"/>
            <path id="Path_4447" d="M588.281,137.517h0c.436,5.372,2.206,4.378,2.206,4.378,1.1-.384,2.2.61,2.11,1.207s2.311,3.525,2.311,3.525l4.4.757,1.843-1.74c.7-.791.544-2.67,1.037-3.625a22.241,22.241,0,0,0,2-5.311c.861-4.473-3.408-8.319-3.408-8.319-.287-.284-2.463-2.24-6.484-1.51s-6.435,5.27-6.01,10.638m2.862-4.321c1.913-4.2,4.4-3.272,4.4-3.272,4.935,7,3.678,3.362,3.678,3.362-2.1-4.157-.675-3.718-.675-3.718s2.572.25,3.29,5.416a7.3,7.3,0,0,1,0,2.369c-.091.362-1.323,3.443-1.323,3.443,0,3.136-1.848,4.079-1.848,4.079l-3.021-.727a19.247,19.247,0,0,0-2.426-3.882S589.24,137.39,591.143,133.2Z" transform="translate(-457.574 -87.962)" fill="#102756" fill-rule="evenodd"/>
            <path id="Path_4448" d="M587.19,162.211h0s-.809,5.786,4.209,6.266,5.089-10.03,5.089-10.03c.066-4.231-4.091-4.117-4.091-4.117-5.109-.318-5.207,7.881-5.207,7.881m2.661-3.855c.647-.716,4.746-3.122,4.678,1.136l-.5,5.137a2.065,2.065,0,0,1-1.341,1.736,3.123,3.123,0,0,1-3.573-2.181C588.814,162.637,589.212,159.064,589.851,158.357Z" transform="translate(-457.728 -84.078)" fill="#102756" fill-rule="evenodd"/>
            <path id="Path_4449" d="M537.065,102.143s1,1.816-.549,5.7l-4.384,10.617s-1.312-1.259-1.433-2.085,4.5-12.126,4.5-12.126.829-1.807,1.862-2.11" transform="translate(-465.671 -91.42)" fill="#102756" fill-rule="evenodd"/>
            <path id="Path_4450" d="M531.166,94.328a5.936,5.936,0,0,1,1.379,4.429c-.358,2.507-1.547,12.793-4.286,17.168s2.215-20.376,2.215-20.376.148-.964.691-1.222" transform="translate(-466.13 -92.52)" fill="#102756" fill-rule="evenodd"/>
            <path id="Path_4451" d="M525.226,92.743s1.89,1.47.326,12.085c0,0-.423,8.236-1.863,5.378s-1.085-15.8,1.536-17.463" transform="translate(-466.775 -92.743)" fill="#102756" fill-rule="evenodd"/>
            <path id="Path_4452" d="M568.172,132.1l-1.8,1.118c-.047.463.413,1.263.974,1.084s.83-2.2.83-2.2" transform="translate(-460.652 -87.204)" fill="#fff" fill-rule="evenodd"/>
            <path id="Path_4453" d="M553.309,152.419s1.987,1.835,2.564-1.952c0,0-.021-.959-.485-.047s-.931-1.619-1.573-1.6c0,0-3.422.872-.506,3.6" transform="translate(-462.654 -84.852)" fill="#fff" fill-rule="evenodd"/>
            <path id="Path_4454" d="M540.188,157.007c-.089.548.268.787.642.708s.277-.115.674-.578-.062-.364-.154-.671a3.189,3.189,0,0,1-.128-.679.069.069,0,0,1,0,.021.442.442,0,0,1-.022-.1c-.035-.168-.075-.04-.267-.024s-.06.035-.363.374-.3.4-.379.948" transform="translate(-464.337 -83.895)" fill="#fff" fill-rule="evenodd"/>
            <path id="Path_4455" d="M542.6,169.17c.235,1.452,1.118,1.793,1.759,1.653s.862-.919.325-1.595a1.824,1.824,0,0,1-.413-1.335s-1.9-.184-1.671,1.276" transform="translate(-463.998 -82.169)" fill="#fff" fill-rule="evenodd"/>
            <path id="Path_4456" d="M529.807,179.331a2.49,2.49,0,0,0,.662,2.317c1.01.738,2.315.94,2.975-.3s.314-.948-.1-1.4a1.227,1.227,0,0,1-.245-1.555c.311-.73.432-1.266-.232-1.344,0,0-4.144-.372-3.056,2.285" transform="translate(-465.822 -80.882)" fill="#fff" fill-rule="evenodd"/>
            <path id="Path_4457" d="M512.616,183.43c.05.509.049.535.287.849s.138.386.478.559a4.442,4.442,0,0,0,.662.262s-.026.129.44-.076.221.038.554-.258.505-.342.521-.521a.737.737,0,0,0-.065-.524c-.1-.141-.126-.04-.233-.181a.6.6,0,0,1-.143-.226l-.1-.311c-.043.153-.336.481-.384.449s-.323-.245-.554-.435a1.752,1.752,0,0,0-.909-.352c-.143.027-.2-.018-.342.181s-.266.076-.214.584" transform="translate(-468.217 -80.09)" fill="#fff" fill-rule="evenodd"/>
            <path id="Path_4458" d="M504.209,175.923a1.149,1.149,0,0,0,.345.892c.274.31.324.086.542.052s.2-.08.486-.282.17-.488.33-.762.006-.367-.076-.994-.367-.489-.475-.72a1.13,1.13,0,0,1-.505.31c-.359.12-.253.024-.325.283s0,.171-.046.469a4.244,4.244,0,0,1-.275.751" transform="translate(-469.4 -81.293)" fill="#fff" fill-rule="evenodd"/>
            <path id="Path_4459" d="M553.309,152.419s1.987,1.835,2.564-1.952c0,0-.021-.959-.485-.047s-.931-1.619-1.573-1.6c0,0-3.422.872-.506,3.6" transform="translate(-462.654 -84.852)" fill="#102756" fill-rule="evenodd"/>
            <path id="Path_4460" d="M540.188,157.007c-.089.548.268.787.642.708s.277-.115.674-.578-.062-.364-.154-.671a3.189,3.189,0,0,1-.128-.679.069.069,0,0,1,0,.021.442.442,0,0,1-.022-.1c-.035-.168-.075-.04-.267-.024s-.06.035-.363.374-.3.4-.379.948" transform="translate(-464.337 -83.895)" fill="#102756" fill-rule="evenodd"/>
            <path id="Path_4461" d="M542.6,169.17c.235,1.452,1.118,1.793,1.759,1.653s.862-.919.325-1.595a1.824,1.824,0,0,1-.413-1.335s-1.9-.184-1.671,1.276" transform="translate(-463.998 -82.169)" fill="#102756" fill-rule="evenodd"/>
            <path id="Path_4462" d="M512.616,183.43c.05.509.049.535.287.849s.138.386.478.559a4.442,4.442,0,0,0,.662.262s-.026.129.44-.076.221.038.554-.258.505-.342.521-.521a.737.737,0,0,0-.065-.524c-.1-.141-.126-.04-.233-.181a.6.6,0,0,1-.143-.226l-.1-.311c-.043.153-.336.481-.384.449s-.323-.245-.554-.435a1.752,1.752,0,0,0-.909-.352c-.143.027-.2-.018-.342.181s-.266.076-.214.584" transform="translate(-468.217 -80.09)" fill="#102756" fill-rule="evenodd"/>
            <path id="Path_4463" d="M504.209,175.923a1.149,1.149,0,0,0,.345.892c.274.31.324.086.542.052s.2-.08.486-.282.17-.488.33-.762.006-.367-.076-.994-.367-.489-.475-.72a1.13,1.13,0,0,1-.505.31c-.359.12-.253.024-.325.283s0,.171-.046.469a4.244,4.244,0,0,1-.275.751" transform="translate(-469.4 -81.293)" fill="#102756" fill-rule="evenodd"/>
            <path id="Path_4464" d="M504.854,174.419c-.359.121-.253.023-.324.287s0,.167-.047.464a4.258,4.258,0,0,1-.275.752,1.137,1.137,0,0,0,.349.891c.27.315.322.091.537.054s.2-.081.486-.283.17-.488.329-.762.007-.366-.075-.992-.367-.489-.475-.721a1.064,1.064,0,0,1-.505.31" transform="translate(-469.4 -81.293)" fill="#102756" fill-rule="evenodd"/>
            <path id="Path_4465" d="M515.122,183.314l-.1-.31c-.044.151-.338.481-.387.445a6.406,6.406,0,0,1-.548-.435,1.86,1.86,0,0,0-.913-.35c-.148.032-.2-.016-.348.184s-.261.075-.213.586.051.53.29.84.133.387.477.561a3.926,3.926,0,0,0,.658.265s-.022.128.441-.074.225.035.557-.262.5-.338.522-.524a.741.741,0,0,0-.07-.518c-.1-.144-.125-.042-.234-.185a.568.568,0,0,1-.135-.222" transform="translate(-468.217 -80.09)" fill="#102756" fill-rule="evenodd"/>
            <path id="Path_4466" d="M601.019,109.659h0c-2.482-4.336-9.045-.592-9.045-.592a36.351,36.351,0,0,0-12.657-8.122c-16.847-5.745-22.3-4.2-23.83-1.735-1.2,1.912-15.675,30.755-19.754,38.365-2.019,3.773-2.552,12.721-2.852,18.556l-3.8,23.959-1.008,16.054s-.921,4.417.2,5.923a4.894,4.894,0,0,0,3.348,1.608s-.168,1.638-2.982.041-2.7-5.259-2.7-5.259-.251-18.865,3.357-34.907,4.7-18.5,1.592-27.856-9.836-18.645-9.836-18.645L510.923,102.73a8.993,8.993,0,0,0-2.461-4.8c-1.963-1.918-4.582-2.287-6.4-2.478-6.537-.675-15.459,3.52-20.25,8.18-5.369,5.23-7.829,8.626-8.1,12.991a15.739,15.739,0,0,0,1.508,6.608s2.969,37.266,16.189,50.82l27.382,38.417c3.547.039,7.65-1.729,10.877-3.516a48.812,48.812,0,0,0,5.567-3.576c7.9,5.789,21.89,6.038,21.89,6.038,4.278-5.2,25.831-44.9,25.831-44.9l.083.157c2.079,4.278,5.1,3.707,5.1,3.707,5.167.287,6.747-3.647,6.747-3.647,4.436-6.831,4.337-10.723,4.337-10.723,2.1-4.549-1.868-11.894-1.868-11.894,2.341-4.583-3.779-6.636-3.779-6.636.945-6.346,1.768-19.1,2.091-18.126a2.907,2.907,0,0,0,.655-1.467c3.22-1.024,6.84-4.485,4.7-8.235m-118.507-3.9h0c7.371-6.38,12.849-8.082,17.337-8.387,4.822-.33,6.811,1.685,7.561,2.889.9,1.436,1.287,4.067-1.579,8.663a29.244,29.244,0,0,1-8.981,9.895,22.049,22.049,0,0,1-12.972,4.233c-3.011-.056-5.49-.406-6.875-2.151C474.64,117.935,475.312,111.992,482.512,105.756Zm28.937,80.976h0a1.917,1.917,0,0,1-.269,1.19,6.375,6.375,0,0,1-1.453,1.283,3,3,0,0,1-.817.267,7.5,7.5,0,0,1-1.452-.586,1.33,1.33,0,0,1-.283-1.02,4,4,0,0,1,.141-1.441,6.2,6.2,0,0,0,.228-1.538c.05-.325.009-.384.537-.675s.4-.422.725-.448l.734-.07a5.065,5.065,0,0,1,1.181.958c.138.2.458.867.458.867A3.493,3.493,0,0,1,511.449,186.733Zm-10.475-11.927h0c2.879,1.564,10.768,4.987,10.768,4.987s8.53,4.685,10.806,1.038,4.224-15.188,5.621-19.9-2.182-5.409-2.182-5.409-8.914-2.578-11.354-3.158a8.959,8.959,0,0,0-4.992.649l-1.611-2.042,4.883-2.194s17.155-6.569,17.022-8.788-2.066-6.529-2.3-7.1-.162.558-.632.918-.391-.335-.391-.335a2.731,2.731,0,0,0-2.975-2.165c-2.684-.034-9.244,4.434-11.379,5.457s-3.29,1.461-7.477-2.091-8.955-.664-8.955-.664c-3.585,3.064-5.677,1.668-5.677,1.668-4.663-3.128-6.679,1.526-7.093,2.066a5.3,5.3,0,0,1-1.148.989.945.945,0,0,1-.893-.177,1.219,1.219,0,0,1-.368-.57c3.5-7.393,7.765-5.72,8.807-5.183s2.545,1.295,3.7.007,9.654-3.876,12.937-.47,5.134,2.4,5.134,2.4c1.336-.522,3.491-1.758,5.731-2.932,3.432-1.808,5.739-3.144,7.628-2.3,2.208,1,1.639-.047,1.639-.047a26.263,26.263,0,0,0-1.645-3.364c-4.38-7.824-14.455-21.279-14.455-21.279s-.354-.546-.34-.03a17.1,17.1,0,0,1-.737,2.624s-9.348,20.738-30.275,17.7c-1.229-.185-.721,1.263-.737,1.389s.78,5.838,3,17.512c.809,4.235,3.412,11.447,5.437,16.7,1.425,3.705,7.131,12.711,9.141,11.26,2.107-1.527-2.692-6.936-4.55-11.611-.473-1.181-2.734-5.093-.505-5.052a76.04,76.04,0,0,0,9.873-.957c1.34-.3,4.378-.7,2.253,1.719s-3.5,12.679-3.734,13.812S499.129,173.8,500.973,174.805Zm21.014,21.974h0s-.443,3.95-4.092.793c0,0-3.266-3.347.134-4.094C518.029,193.478,522.347,193.723,521.988,196.779Zm35.253-95.993h0s.208-4.748,16.773.564c0,0,7.61,1.826,16.53,8.58l.116.116-.147.2s-4.492,3.772-5.1,7.15c0,0-18.752-4.607-27.668-13.718A4.1,4.1,0,0,1,557.24,100.786Zm-14.131,90.55h0a3.59,3.59,0,0,1-2.382,3.479,3.358,3.358,0,0,1-3.695-1.278,4.011,4.011,0,0,1-.571-3.853,4.7,4.7,0,0,1,2.641-2.248,2.775,2.775,0,0,1,3.219,1.036A5.35,5.35,0,0,1,543.109,191.337Zm12.246-10.124h0c-.183.472-2.125.681-2.873.608s-.574-.2-.909-.548-.293-.568-.527-1.37.081-1.156.481-2.043.443-.408.963-1.016a2.527,2.527,0,0,1,3.055.931A2.885,2.885,0,0,1,555.355,181.213Zm-3.6-16.8h0c.443.062.5-.6.367-.857s-.285-.691-.937-.57c0,0-3.827-.351-2.035,4.037,0,0,.773,1.915,2.725-1.262,0,0,.219-.34-.312-.559A.407.407,0,0,1,551.755,164.417Zm29.38.456h0l-7.151,12.94-8.612-4.491s-2.58-1.792-1.606,3.508c.983,5.316,3.306,14.528,3.306,14.528l-2.057,3.527-4.748-20.333s-.761-1.965,3.145-3.82,13.211-6.638,13.211-6.638S583.322,160.561,581.135,164.873Zm-19.65-7.174h0c.149,1.717.9,3.267,2.758,3.448s3.973-1.052,3.617-2.734a6.075,6.075,0,0,0-2.9-3.861C563.342,153.607,561.293,155.46,561.485,157.7Zm35.546-9.285h0c-1.5-5.817-2.385-6.914-3.618-8.835,0,0-.335,10.065-8.815,24.371,0,0,5,11.7,11-3.643C595.6,160.307,598.538,154.23,597.031,148.414Zm-7.662-1.576h0c-1.111.835-6.232,2.711-11.023,2.894s-34.258-1.579-34.258-1.579-2.74-.461-4.229-.759l-1.953,13.338c-.2,1.389-.531,5.681-2.111,5.575-1.873-.115-1.165-4.028-1.165-4.028,1.217-6.752,1.281-20.885,3.986-24.921,2.142-3.188,17.055-32.2,17.055-32.2,7.846,9.554,28.353,14.577,28.353,14.577l-3.042,6.517a5.768,5.768,0,0,1-.412.829c-.438.686-2.662,1.493-2.662,1.493l-1.712.05c-5.963.308-8.05.664-11.7,2.958-3.5,2.2-7.194,7.361-8.139,8.747l-.307.358a5.815,5.815,0,0,0-1.628-.446,11.909,11.909,0,0,0-10.441,2.316,1.619,1.619,0,0,0-.448,2.239c.228.327.688.341,1.437-.427a11.789,11.789,0,0,1,5.847-2.424,6.739,6.739,0,0,1,3.642.619s-.8,3.226,2.4,3.177.869-3.768.869-3.768,5-6.836,8.471-9.113c3.889-2.556,10.016-2.633,10.415-2.685a13.666,13.666,0,0,0-5.648,6.71c-2.993,8.257-.242,5.713.013,4.41a28.327,28.327,0,0,1,2.386-5.439,17.317,17.317,0,0,1,3.008-3.567c2.043-1.631,3.8-2.815,3.8-2.815l-.614,8.48c-.074,1.226.249,1.7.813,1.522s.826-2.2.826-2.2l1.422-10.034,3.493-6.88.148.041c5.114,1.27,7.3-.039,7.3-.039C591.35,142.883,590.484,146,589.369,146.837Zm4.44-29.517h0c2.579-2.213-2.1-5.984-2.1-5.984a12.217,12.217,0,0,0-4.7,6.446S591.229,119.533,593.808,117.32Zm2.554-1s.809-2.842-3.141-5.931c0,0,5.232-2.529,6.442.51S596.847,115.98,596.363,116.318Z" transform="translate(-473.692 -92.371)" fill="#102756" fill-rule="evenodd"/>
            <path id="Path_4467" d="M555.874,150.467s-.026-.956-.485-.046-.93-1.62-1.573-1.6c0,0-3.421.87-.507,3.6,0,0,1.987,1.835,2.564-1.952" transform="translate(-462.654 -84.852)" fill="#102756" fill-rule="evenodd"/>
            <path id="Path_4468" d="M532.562,177.292a2.34,2.34,0,0,0-2.765,2.01,2.051,2.051,0,0,0,.662,2.318c1.011.738,2.32.94,2.97-.3s.59-3.548-.867-4.024" transform="translate(-465.812 -80.855)" fill="#102756" fill-rule="evenodd"/>
            <path id="Path_4469" d="M541.219,155.787l0,.019a.283.283,0,0,1-.026-.1c-.035-.168-.072-.04-.268-.024s-.056.035-.358.372-.3.4-.382.95.269.787.642.708.278-.122.673-.578c.4-.476-.058-.365-.155-.67a3.6,3.6,0,0,1-.128-.68" transform="translate(-464.337 -83.895)" fill="#102756" fill-rule="evenodd"/>
            <path id="Path_4470" d="M544.274,167.894s-1.9-.184-1.671,1.276,1.124,1.792,1.758,1.653.867-.922.325-1.594a1.829,1.829,0,0,1-.412-1.336" transform="translate(-463.998 -82.169)" fill="#102756" fill-rule="evenodd"/>
            <path id="Path_4471" d="M497.823,164.031l24.844-13.269s-1,19.5-6.083,20.577-18.76-7.309-18.76-7.309" transform="translate(-470.297 -84.579)" fill="#102756" fill-rule="evenodd"/>
            <path id="Path_4472" d="M593.8,164.3l.5-5.137c.068-4.258-4.031-1.853-4.678-1.136s-1.037,4.28-.732,5.828a3.123,3.123,0,0,0,3.573,2.181A2.065,2.065,0,0,0,593.8,164.3" transform="translate(-457.497 -83.744)" fill="#52b9e4" fill-rule="evenodd"/>
            <path id="Path_4473" d="M595.345,143.8l3.021.727s1.851-.943,1.848-4.079c0,0,1.232-3.081,1.323-3.443a7.305,7.305,0,0,0,0-2.369c-.717-5.166-3.29-5.416-3.29-5.416s-1.421-.439.675,3.718c0,0,1.257,3.639-3.678-3.362,0,0-2.487-.932-4.4,3.272s2.072,7.071,2.072,7.071a19.248,19.248,0,0,1,2.426,3.882" transform="translate(-457.279 -87.612)" fill="#52b9e4" fill-rule="evenodd"/>
        </g>
        <path id="Path_4474" d="M431.887,448.495l.151.148c.014.007.1.07.116.076,3.94,1.434.054-2.781.55-4.846,16.293-3.877,9.649-17.217,4.551-16.845-3.679,4.987.759,11.771-4.063,14.63-.464-8.057.671-12.776-2.7-20.73-1-2.346-2.281-3.274-3.238-5.909,3.789,1.943,12.6,8.4,15.923,4.183,3.221-4.088,3.424-11.748-2.862-9.405-5.413,4.815-9.49,3.065-18.637-.762-3.862-1.616-12.933-6.729-16.272-7.384,11.174,1.426,13.125-15.52-1.945-7.863-5.226,2.653-5.462,3.023-12.639,3.2-4.753.12-10.27.573-13.267,2.737a.5.5,0,0,1,.009-.275,1.054,1.054,0,0,0,.014-.271c.041-1.17-.086-1.443-1.238-1.984-3.208,5.4-10.39,10.53-14.751,15.822-4.05,4.915-18.083,23.567-9.643,25.638,3.278.639,6.093-1.689,6.1-5.653,0-3.373-2.362-6.36-.7-9.231,4-6.909,12.526.275,17.875-3.556,1.915-4.347-1.673-7.4-5.863-6.3-3.223.845-6.066,3.606-8.9,4.442,2.47-4.186,6.156-7.776,11.144-8.382,5.905-.716,12.38,6.945,15.444,4.093,1.732-1.083,1.173-3.845.618-5.234-2.2-5.5-11.559-4.879-15.5-3.283,2.356-1.881,4.513-3.938,7.98-4.241,14.894-1.3,10.606,18.979,21.385,17.834,2.442-4.4,1.175-10.491-1.027-13.4-2.812-3.715-7.874-5.574-13.036-6.841,6.688-2.161,16.421,3.327,18.366,9.7,1.849,6.057-.066,20.074,4.38,20.714,3.1.449,3.715-4.481,3.612-6.617-.317-6.487-4.008-13.285-7.994-18.221l-1.135-1.681c9.794,3.105,17,8.214,22.066,14.707a19.88,19.88,0,0,1,4.571,10.845,86.068,86.068,0,0,1,.165,13.555c-8.222-2.694-.386-10.062-5.043-13.563-6.736-5.067-8.139,7-.136,12.814,1.5,1.085,3.659,1.587,5.023,2.767-.655,3.48-3.369,2.477-2.561,4.126,1.263,1.135-.11.019.8.246.035.007.162.03.193.039l.519.145c-.8,2.48-2.761,9.471-4.506,10.847-3.626,2.861-6.337-2.4-9.788-2.145-6.632.5-3.027,10.673,3.745,7.3l3.98-2.22c-1.233,3.032-5.429,6.565-5.588,8.6,2.888.317,5.213-5.167,7.187-7.4.541,3.768-1.845,5.767.222,11.154,1.884,4.905,6.663-.041,5.308-4-1.13-3.308-4.475-4.454-3.723-9.361.407-2.652,3.71-8.976,4.766-12.776" transform="translate(24.917 48.22)" fill="#102756" fill-rule="evenodd"/>
        <g id="Group_12160" transform="translate(275.856 227.575)">
            <path id="Path_4475" d="M263.071,238.819s3.1-1.417,9.3,1.6l16.886,8.505s-2.228,2-3.6,2.094-19.351-8.884-19.351-8.884-2.864-1.587-3.234-3.318" transform="translate(-263.071 -200.928)" fill="#102756" fill-rule="evenodd"/>
            <path id="Path_4476" d="M267.41,217.731a8.762,8.762,0,0,0,3.078,6.673c3.217,2.54,16.053,13.259,24.407,15.386s-25.245-21.382-25.245-21.382-1.25-.967-2.239-.678" transform="translate(-262.461 -203.856)" fill="#102756" fill-rule="evenodd"/>
            <path id="Path_4477" d="M279.2,205.561s-1.391,3.693,9.935,17.244c0,0,7.676,11.2,7.238,5.948s-12.062-23.105-17.172-23.192" transform="translate(-260.81 -205.561)" fill="#102756" fill-rule="evenodd"/>
        </g>
        <g id="Group_12161" transform="translate(219.895 316.092)">
            <path id="Path_4478" d="M306,403.6c5.4.379,12.218-.8,20.625-4.336,19.218-11.367,28.888-23.328,37.928-36.639,1.153-3.9,2.268-7.647,3.261-10.969-11.831,17.849-20.853,33.2-45.2,47.608A52.009,52.009,0,0,1,306,403.6m9.418-16.907c-1.786-2.108-4.147-6.841,4.491-11.8H315.9c-9.954,5.717-5.3,11.132-3.759,12.573A13.565,13.565,0,0,0,315.422,386.693ZM405.254,322.7l-4.052.079c-9.961,21.588-20.329,55.266-23.834,78h4.014C384.894,378.017,395.281,344.285,405.254,322.7Z" transform="translate(-201.068 -277.595)" fill="#52b9e4" fill-rule="evenodd"/>
            <path id="Path_4479" d="M401.32,388.551c.091.025.185.05.282.072l-.282.043Zm4.056-18.621a16.574,16.574,0,0,0-8.083,12.448,6.745,6.745,0,0,0,1.865,5.011,17.092,17.092,0,0,1-3.194.606c-2.97-1.74-2.685-5.617-2.685-5.617,1.155-8.8,7.475-12.685,12.1-14.367Zm5.009-2.257c-.492.156-1.013.338-1.551.549V367.03c.959-.2,1.551-.253,1.551-.253Zm10.157-10.432v-5.762a25.872,25.872,0,0,0-4-.167V354.2h-.016v3.045l-.049.8h2.653c21.394,0,13.034,38.3-17.842,40.144.3.022.591.044.9.062,33.413.656,43.06-40.206,20.96-40.206h-2.652Z" transform="translate(-188.788 -273.57)" fill="#52b9e4" fill-rule="evenodd"/>
            <path id="Path_4480" d="M408.364,370.223v-3.446s-15.247,1.436-17.107,15.6c0,0-.744,10.143,12.737,4.976,0,0,9.947-4.784,10.134-12.249,0,0-.559-5.455-3.534-4.881Zm6.14-12.983v-5.762s-24.344-3.62-35.02,21.844c0,0-10.025,23.452,16.664,24.927,33.413.657,43.06-40.2,20.96-40.2h-2.652Z" transform="translate(-190.988 -273.57)" fill="#102756" fill-rule="evenodd"/>
            <path id="Path_4481" d="M521.611,396.993h4.014L545.23,351.7h-4.015Zm-15.866-.489c.542-.236,1.089-.5,1.637-.8l-.156-2.66a20.692,20.692,0,0,1-3.842,2.651h2.361Zm-10.662,1.881c.388.089.781.17,1.192.233a24.211,24.211,0,0,0,6.168-.94l-.086-1.459A25.856,25.856,0,0,1,495.082,398.384Zm15.409-35.4c-9.547,3.493-17.731,18.383-12.489,22.263.486-.068,1-.164,1.546-.293a8.887,8.887,0,0,0,1.63-.57c-3.241-4.775,4.031-17.527,12.732-21.163a2.379,2.379,0,0,0,.643-.679A27.843,27.843,0,0,0,510.491,362.983Zm7.593-11.7a36.93,36.93,0,0,0-3.788.54c2.174,5.125,3.829,7.529,4.08,8.728.722-1.688,1.347-3.235,1.857-4.546C519.607,354.742,518.877,353.191,518.083,351.283Z" transform="translate(-174.462 -273.573)" fill="#52b9e4" fill-rule="evenodd"/>
            <path id="Path_4482" d="M512.1,351.283c-31.442,2.767-43.929,43.89-21.809,47.334,0,0,8.469.115,14.965-5.569l.232,3.945h14.154L539.242,351.7H524.856S514.3,382.956,502.582,385.74c-17.277,4.081-3.677-22.488,9.282-23.667,7.247-.659,4.767.122.232-10.79" transform="translate(-176.71 -273.573)" fill="#102756" fill-rule="evenodd"/>
            <path id="Path_4483" d="M400.087,322.7l-27.96.544s-41.413,71.544-60.706,64.593c0,0-8.3-6.267,3.325-12.946h-19.9c-17.945,0-15.856,42.252,26.612,24.373,29.232-17.291,36.374-35.954,52.806-58.657H375c-3.031,10.082-16.807,55.483-16.769,60.176h17.986c3.512-22.766,13.9-56.5,23.872-78.083" transform="translate(-204.138 -277.595)" fill="#102756" fill-rule="evenodd"/>
            <path id="Path_4484" d="M468.547,400.333l.655-.858-4.656.86Z" transform="translate(-178.758 -266.791)" fill="#769198" fill-rule="evenodd"/>
            <path id="Path_4485" d="M453.107,358.789l4.023-.035-2.529,9.911-5.21,4.682ZM455,387.346l-6.286,4.376s-2.349,8.455-2.016,8.894h-4.014c-.337-.439,2.013-8.894,2.013-8.894l9.1-6.331A17.537,17.537,0,0,1,455,387.346Zm30.98,20.843L471.63,410.83l-.115-.717,10.449-1.923c-4-11.926-6.48-22.1-13.889-33.294l43.638-44.776-4.569-3.435-.013-.008-.152-.114,0,0-2.154-1.669,1.827.023h2.153v.007l6.918,5.2-43.637,44.776C479.5,386.091,481.98,396.263,485.978,408.189Z" transform="translate(-181.84 -277.287)" fill="#52b9e4" fill-rule="evenodd"/>
            <path id="Path_4486" d="M480.184,408.1l-14.347,2.641-.456-2.819c-7.244-27.3-10.947-24.3-10.947-24.3l-11.516,8.013s-2.349,8.455-2.013,8.894H425.286l12.089-41.739,13.962-.123L446.1,379.2l56.52-53.7,6.92,5.2-43.24,44.11c7.408,11.2,9.892,21.368,13.887,33.294" transform="translate(-184.283 -277.201)" fill="#102756" fill-rule="evenodd"/>
            <path id="Path_4487" d="M561.255,357.159s-5.8-2.911-6.845-2.871-3.015,1.278-4.291,3.529S523.6,402.4,523.6,402.4l13.69,4.928,23.036-38.766s2.32-2.409,2.437,2.109l.115,4.521v24.989H577.5V334.959c.587-12.121-18.836-5.315-26.8-4.077v7.192s14.039-7.615,13.807,3.647-1.161,15.359-1.161,15.359Z" transform="translate(-170.448 -276.868)" fill="#102756" fill-rule="evenodd"/>
            <path id="Path_4488" d="M556.761,338.052a26.241,26.241,0,0,1,3.2-1.4,4.327,4.327,0,0,0-1.1-.574,23.9,23.9,0,0,0-5.965,1.972Zm22.745,62.132h4.013V334.959c.3-6.249-4.712-7.468-10.734-7.011,4.065.392,6.953,2.227,6.721,7.011ZM539.33,407.31l3.983.022,16.565-27.877V375.2l-.063-2.39Zm21.425-52.973a1.779,1.779,0,0,0-.274-.048H557.05c.962.415,2.307,1.035,3.5,1.59C560.611,355.477,560.682,354.967,560.755,354.337Z" transform="translate(-168.235 -276.868)" fill="#52b9e4" fill-rule="evenodd"/>
            <path id="Path_4489" d="M415.38,347.679h4.015l9.877-14.173h-4.016Z" transform="translate(-185.677 -276.074)" fill="#52b9e4" fill-rule="evenodd"/>
            <path id="Path_4490" d="M412.422,347.68l9.877-14.173h-11.44L406.4,347.68Z" transform="translate(-186.94 -276.074)" fill="#102756" fill-rule="evenodd"/>
            <path id="Path_4491" d="M235.781,328.474v19.26h-2.218v-19.26Zm9.371-5.718h2.216v4.885h-2.216Z" transform="translate(-211.262 -277.587)" fill="#52b9e4" fill-rule="evenodd"/>
            <path id="Path_4492" d="M214.013,322.756h32.411v4.884H234.835v20.093H225.6V327.641h-11.59Z" transform="translate(-214.013 -277.587)" fill="#102756" fill-rule="evenodd"/>
            <path id="Path_4493" d="M323.575,322.756h2.216l5.688,8.048-1.073,1.62Zm12.015,14.786v10.192h-2.216V337.542h.081l9.836-14.786h2.216l-9.835,14.786h-.082Z" transform="translate(-198.596 -277.587)" fill="#52b9e4" fill-rule="evenodd"/>
            <path id="Path_4494" d="M333.2,337.542v10.192h-8.945V337.542h-.081l-9.837-14.785H323.4l8.069,11.417,7.583-11.417h4.066l-9.837,14.785H333.2Z" transform="translate(-199.896 -277.587)" fill="#102756" fill-rule="evenodd"/>
            <path id="Path_4495" d="M258.694,337.672v-9.218c-.794.018-1.551.059-2.216.091v9.036c.665.031,1.421.072,2.216.091m.035,6.414v3.74h-2.216v-3.74ZM272.376,322.9c5.751.39,10.285,4.79,10.285,10.162s-4.542,9.779-10.3,10.165a12.759,12.759,0,0,0,2.688-1.426,9.775,9.775,0,0,0,.006-17.474A12.761,12.761,0,0,0,272.376,322.9Z" transform="translate(-208.037 -277.567)" fill="#52b9e4" fill-rule="evenodd"/>
            <path id="Path_4496" d="M269.524,333.066c0,6.768-9.524,5.3-13.278,5.3v-10.6c3.754,0,13.278-1.467,13.278,5.3m-21.91-10.192h21.749v0c6.016.13,10.849,4.64,10.849,10.188,0,5.628-4.978,10.191-11.117,10.191-.177,0-.353,0-.528-.01v.01H256.281v4.574h-8.667Z" transform="translate(-209.285 -277.57)" fill="#102756" fill-rule="evenodd"/>
            <path id="Path_4497" d="M297.806,342.5a7.583,7.583,0,0,1,0-14.017,8.627,8.627,0,0,0-3.962,1.075,7.452,7.452,0,0,0,0,11.869,8.612,8.612,0,0,0,3.957,1.073m7.109-19.892c8.631,1.1,15.18,6.447,15.18,12.882s-6.549,11.785-15.18,12.884a23.206,23.206,0,0,0,6.355-2.848l.006-.006c4.036-2.4,6.6-6,6.6-10.03s-2.567-7.629-6.6-10.029l-.006,0A23.188,23.188,0,0,0,304.915,322.605Z" transform="translate(-203.194 -277.608)" fill="#52b9e4" fill-rule="evenodd"/>
            <path id="Path_4498" d="M299.343,327.671c4.7,0,8.512,3.51,8.512,7.841s-3.811,7.844-8.512,7.844-8.51-3.512-8.51-7.844,3.809-7.841,8.51-7.841m0-5.247c10.2,0,18.467,5.86,18.467,13.089S309.542,348.6,299.343,348.6s-18.465-5.861-18.465-13.091S289.145,322.424,299.343,322.424Z" transform="translate(-204.604 -277.634)" fill="#102756" fill-rule="evenodd"/>
            <path id="Path_4499" d="M375.156,310.395a1.81,1.81,0,0,0,.245,1.14,2.47,2.47,0,0,0,1.081,1.12c.957.471,2.165.185,3.382.043.248-.033.548.238.351.489a7.7,7.7,0,0,0-.665.767c-.27.536-.351,1.141.229,1.5a2.693,2.693,0,0,0,1.021.276,20.321,20.321,0,0,0,2.073.073.325.325,0,0,1,.06.638,6.48,6.48,0,0,1-2.247.071,25.473,25.473,0,0,1-2.307,2.933c-.674.813-1.015,1.346-1.616,2.211.749.02,1.365.033,1.691.035,2.812.019,10.816.14,11.827.113a22.262,22.262,0,0,0,10.9-3.634c3.768-2.684,7.417-8.923,7.4-16.018a75.3,75.3,0,0,0-.472-9.607.951.951,0,0,1,.72-.811c1.146-.035,1.6,1.18,2.216,1.8.494.5.484.835.829.95.168.058.565.074.359-1.511-.1-.821-1.012-5.382-2.872-7.453a7.22,7.22,0,0,0-5.592-2.343c-2.451.175-4.5,1.88-5.107,5.332-.533,3.057-1.12,6.235-3.254,8.209a103.682,103.682,0,0,1-8.894,7.031,6.02,6.02,0,0,0,.343,1.548,5.728,5.728,0,0,0,2.62,2.6.311.311,0,0,1-.1.554,1.608,1.608,0,0,0-.626,2.672,5.039,5.039,0,0,0,1.188.876.329.329,0,0,1-.1.594c-1.137.221-1.418.941-.956,2.116a4.226,4.226,0,0,0,1.085,1.483c.306.285-.162.708-.468.437a4.4,4.4,0,0,1-1.583-3.134,1.63,1.63,0,0,1,1.127-1.311,2.757,2.757,0,0,1-1.363-2.073,2.226,2.226,0,0,1,1.027-1.981,5.579,5.579,0,0,1-2.189-2.239,5.038,5.038,0,0,1-.419-1.854c-.769.533-1.511,1.032-2.22,1.469-.008.188-.029.374-.041.565-.1,1.594.733,2.364,1.931,3.276.2.153.206.56-.1.606-2.31.339-.443,2.563.562,2.928a.35.35,0,0,1-.12.679.47.47,0,0,0-.5.3c-.1.242.169.77.169.77.111.208.227.411.346.618a14.368,14.368,0,0,0,.873,1.295c.258.352-.241.82-.5.468-.71-.956-2.35-3.057-1.23-3.862-1.415-.968-2.008-2.875-.356-3.645a3.924,3.924,0,0,1-1.543-2.082,4.606,4.606,0,0,1-.03-1.583c-.145.087-.294.172-.432.254-3.2,1.856-5.851,3.226-7.766,4.307" transform="translate(-191.341 -283.159)" fill="#102756" fill-rule="evenodd"/>
            <path id="Path_4500" d="M373.384,317.265c-.212.237-.424.492-.632.736,1.032,0,2.008,0,2.855.008a28.827,28.827,0,0,1,1.943-2.632c.846-1.008,2.051-1.834,2.81-2.911a2.5,2.5,0,0,1-1.011-.522,1.384,1.384,0,0,1-.529-1.006,45.492,45.492,0,0,1-3.13,3.759c-.76.865-1.539,1.711-2.305,2.569" transform="translate(-191.676 -279.25)" fill="#102756" fill-rule="evenodd"/>
            <path id="Path_4501" d="M377.287,309.866c-2.632,2.635-4.942,5.634-7.533,8.325.736-.009,1.483-.019,2.219-.023.351-.4.749-.775,1.108-1.158.729-.779,1.45-1.566,2.178-2.349,1.37-1.457,2.946-2.794,4.161-4.379l0,0c.073-.156.152-.317.238-.476a4.446,4.446,0,0,1-2.374.063" transform="translate(-192.097 -279.41)" fill="#102756" fill-rule="evenodd"/>
            <path id="Path_4502" d="M369.624,314.549c-1.318,1.248-2.547,2.638-3.884,3.9.876-.023,1.964-.041,3.146-.062a76.855,76.855,0,0,1,8.669-8.448,2.794,2.794,0,0,1-.607-.326,3.028,3.028,0,0,1-.933-1.075c-.007.01-.009.018-.016.022-2.09,2.036-4.261,3.982-6.375,5.988" transform="translate(-192.662 -279.587)" fill="#102756" fill-rule="evenodd"/>
            <path id="Path_4503" d="M361.853,318.088c.151.362,1.684.626,2.368.586.07,0,.277-.009.587-.017,3.739-3.511,7.45-7.012,11.506-10.179a.2.2,0,0,1,.119-.036,9.17,9.17,0,0,1-.4-1.108c-.274.165-.526.318-.762.464-1.9,1.2-11.972,8.391-12.568,8.79s-1,1.137-.85,1.5" transform="translate(-193.214 -279.757)" fill="#102756" fill-rule="evenodd"/>
        </g>
        <g id="Group_12162" transform="translate(606.458 284.208)">
            <path id="Path_4504" d="M576.309,263.2s-2.1,1.023-6.4-.945l-11.723-5.552a6.287,6.287,0,0,1,2.433-1.5c.94-.09,13.421,5.771,13.421,5.771s1.992,1.04,2.273,2.222" transform="translate(-552.146 -255.208)" fill="#102756" fill-rule="evenodd"/>
            <path id="Path_4505" d="M573.932,278.548a6.01,6.01,0,0,0-2.222-4.525c-2.248-1.688-11.232-8.826-17-10.146s17.672,14.244,17.672,14.244a2.131,2.131,0,0,0,1.547.427" transform="translate(-552.763 -253.999)" fill="#102756" fill-rule="evenodd"/>
            <path id="Path_4506" d="M565.075,287.312s.892-2.555-7.1-11.66c0,0-5.451-7.552-5.064-3.958s8.658,15.646,12.165,15.619" transform="translate(-552.891 -253.025)" fill="#102756" fill-rule="evenodd"/>
        </g>
        <g id="Group_12163" transform="translate(543.311 292.609)">
            <path id="Path_4507" d="M514.923,287.638h0c.1-.048.211-.095.317-.141a1.253,1.253,0,0,1,.236-1.442,1.922,1.922,0,0,0,.336-.943,4.5,4.5,0,0,0-1.759-4.16c-.22-.2-.429-.3-.649.008-.16.227-.317.43-.007.664,1.449,1.085,1.3,2.535.754,3.955-.235.608-.209.925.267,1.314a3.13,3.13,0,0,1,.5.746m-7.036,26.814h0a4.184,4.184,0,0,0-1.522-.917,12.505,12.505,0,0,1-4.36-2.737c-1.434-1.626-2.612-3.311-2.406-5.629.027-.319.132-.749-.471-1.016a8.6,8.6,0,0,0,1.259,6.371C502.167,313.076,504.487,314.631,507.887,314.452Zm-3.233-47.624h0c-.046-.3-.219-.307-.338-.387-.214-.143-.516-.289-.4-.6a.725.725,0,0,1,.81-.485,2.384,2.384,0,0,1,.639.2,3.972,3.972,0,0,1,2.391,2.248,3.37,3.37,0,0,0,.5.878,6.861,6.861,0,0,1,1.177,2.546c.327,1.313.592,2.648,1.008,3.933a7.955,7.955,0,0,1-.8,7.015c-.216.347-.058.505.25.55a1.4,1.4,0,0,0,1.489-1.08,2.195,2.195,0,0,1,.528-1.337,3.212,3.212,0,0,0,.913-2.787,20.279,20.279,0,0,0-4.186-11.34c-.261-.363-.619-.657-.9-1.007a3.236,3.236,0,0,0-3.714-1.1,1.421,1.421,0,0,0-1.105,1.386c.021.635.092,1.268.141,1.907A2.637,2.637,0,0,0,504.654,266.828Zm5.935,30.145h0a24.823,24.823,0,0,0-3.164.08.738.738,0,0,0-.609.238,14.509,14.509,0,0,1-2.048,1.592c-.647.544-1.435,1.028-1.718,1.864-.878,2.583-1.075,5.141.362,7.642a7.077,7.077,0,0,0,3.572,3.282,12.559,12.559,0,0,0,3.853.84,6.726,6.726,0,0,0,4.149-.8c.751-.476,1.716-.63,2.163-1.541.047-.1.259-.143.4-.163a1,1,0,0,0,.7-.525c1.2-1.827,2.031-3.832,1.3-5.977a9.454,9.454,0,0,0-4.323-5.594c-.1-.054-.214-.072-.318-.119A13.766,13.766,0,0,0,510.59,296.973Zm-3.476-6.274h0c-.282-.008-.607-.095-.694.31-.021.089.011.262.066.285.268.109.485-.059.7-.193a.734.734,0,0,0,.143-.159c.327-.066.671-.319.982-.146,1.241.687,2.658.345,3.955.718.607.176.678-.014.646-.663-.041-.865-.6-1.669-.279-2.577.051-.144-.112-.31-.259-.314-1.138-.026-1.948-.949-3.048-1.1a.868.868,0,0,1-.833-.642c-.189-.763-.408-1.524-.671-2.268a1.626,1.626,0,0,1,.187-1.5,7.09,7.09,0,0,1,1.486-1.833c.26-.209.222-.452.013-.681a.407.407,0,0,0-.674.043,2.149,2.149,0,0,1-.783.745,3.308,3.308,0,0,0-1.883,3.1,5.366,5.366,0,0,0,1.1,3.264,1.518,1.518,0,0,0,.641.619c1.2.423,2.126,1.446,3.474,1.529.034,0,.063.1.1.17a1.282,1.282,0,0,1-1.314.447,7.857,7.857,0,0,1-1.662-.3c-.621-.233-.913,0-1.125.521C507.3,290.286,507.2,290.491,507.114,290.7Zm3.436-6.033h0l2.518.428c.052-.867.42-1.724-.64-2.329a5.522,5.522,0,0,1-1.88,1.708c-.651-.01-1.349.087-1.619-.942a4.158,4.158,0,0,0-.189,1.717.343.343,0,0,0,.177.376c.228.111.346-.06.452-.2A1.684,1.684,0,0,1,510.55,284.665Zm4.265-7.463a.99.99,0,0,0-.338.918.228.228,0,0,1-.013.112c-.351.81-.131,1.321.632,1.846,2.364,1.626,2.357,4.749,1.649,6.518a4.111,4.111,0,0,1-1.006,1.492c-.237.221-.46.51-.164.768,1.386,1.2.535,2.454.115,3.729a20.343,20.343,0,0,1,3.828,2.689,10.921,10.921,0,0,1,2,2.583,12.543,12.543,0,0,1,1.514,2.758,11.357,11.357,0,0,1-1.777,10.187c-.273.363-.564.711-.83,1.076a11.751,11.751,0,0,1-8.322,4.891,10.355,10.355,0,0,1-4.145-.21,19.421,19.421,0,0,1-4.832-1.524,9.428,9.428,0,0,1-3.289-3.5,35.238,35.238,0,0,1-1.633-3.594,7.329,7.329,0,0,1-.666-3.293,21.494,21.494,0,0,1,1.015-5.657,3.773,3.773,0,0,1,.392-.811,17.528,17.528,0,0,1,4.03-4.7c.323-.256.579-.6.908-.848a1.079,1.079,0,0,0,.425-.982,5.306,5.306,0,0,1,1.491-4.021.624.624,0,0,0,.135-.806,6.165,6.165,0,0,0-.772-1.614,1.873,1.873,0,0,1-.287-1.817c.172-.66.188-.917-.123-1.008l.459-1.24,1.672-1.589,2.13-1,.921-.8-.076-.518c0-.06,0-.124,0-.192a7.787,7.787,0,0,0-.314-1.938V275.1a9.023,9.023,0,0,0-.762-1.81c-.066-.123-.132-.245-.2-.37l-.528-1.348a11.888,11.888,0,0,0-.534-1.36l-.022-.046-.029-.062-1.224-2.642-.5.229a.56.56,0,0,0-.222.074c-.1.054-.193.112-.286.175l-1.935.946-2.117-.616a.523.523,0,0,0,.4-.7c-.254-1.012.242-2.008.064-3.024a.937.937,0,0,1,.252-.61,3.144,3.144,0,0,1,2.594-1.361,5.855,5.855,0,0,1,3.406,1.351,1.754,1.754,0,0,0,1.011.4h0l1.469,2.115,1.527,2.174,1.756,4.418.629,2.544Z" transform="translate(-497.533 -262.573)" fill="#102756"/>
            <path id="Path_4508" d="M506.018,287.231l.212.244a.734.734,0,0,1-.143.159c-.212.133-.429.3-.7.192-.056-.022-.088-.2-.067-.284.087-.4.411-.318.694-.31" transform="translate(-496.437 -259.105)" fill="#7a7d7e"/>
            <path id="Path_4509" d="M510.028,297.046h0c-.916.073-1.787.08-2.636.226a3.156,3.156,0,0,0-2.47,2.974,4.2,4.2,0,0,0,4.376,3.671,16.289,16.289,0,0,0,2.633-.6,3.159,3.159,0,0,0,2.091-2.064,2.236,2.236,0,0,0-.34-2.234,6.306,6.306,0,0,0-3.654-1.972m-1.335,8.673c-1.4-.329-2.715-.639-3.485-1.956a11.089,11.089,0,0,0-.689-.891,3.911,3.911,0,0,1-.505-4.246,4.728,4.728,0,0,1,4.7-3.039,7.163,7.163,0,0,1,3.355.706,5.767,5.767,0,0,1,2.792,3.519,4.275,4.275,0,0,1-1.549,4.425A8.8,8.8,0,0,1,508.694,305.719Z" transform="translate(-496.678 -257.927)" fill="#102756"/>
            <path id="Path_4510" d="M508.709,298.817c.1.014.283.034.468.066,1.035.173,1.295.472,1.2,1.368-.106.989-.571,1.4-1.546,1.345a2.89,2.89,0,0,1-.87-.173,1.582,1.582,0,0,1-1.035-1.675c.159-.638.8-.994,1.786-.931" transform="translate(-496.216 -257.473)" fill="#102756"/>
            <path id="Path_4511" d="M509.994,292.735a24.823,24.823,0,0,0-3.164.08.738.738,0,0,0-.609.238c-.776.931-3.294,2.067-3.766,3.456-.878,2.583-1.075,5.141.362,7.642,1.659,2.892,4.216,3.94,7.425,4.121a6.726,6.726,0,0,0,4.149-.8c.751-.476,1.716-.63,2.163-1.541.127-.26.606.059,1.1-.688,1.2-1.827,2.031-3.832,1.3-5.977a9.064,9.064,0,0,0-4.642-5.713,13.766,13.766,0,0,0-4.311-.818m2.337,3.966a5.767,5.767,0,0,1,2.792,3.519,4.276,4.276,0,0,1-1.549,4.425,8.8,8.8,0,0,1-4.622,1.482c-1.4-.329-2.715-.639-3.485-1.956a11.089,11.089,0,0,0-.689-.891,3.911,3.911,0,0,1-.505-4.246,4.728,4.728,0,0,1,4.7-3.039A7.163,7.163,0,0,1,512.331,296.7Z" transform="translate(-496.937 -258.335)" fill="#52b9e4" fill-rule="evenodd"/>
            <path id="Path_4512" d="M509.781,275.01c1.751,5.418-1.988,7.355-.552,7.565a1.4,1.4,0,0,0,1.489-1.08c.375-2.278,1.538-1.063,1.441-4.124a20.279,20.279,0,0,0-4.186-11.34c-.261-.363-.619-.657-.9-1.007-1.743-2.151-4.878-1.341-4.82.29.021.635.092,1.268.141,1.907a2.637,2.637,0,0,0,1.6-.554c-.078-.5-.938-.453-.738-.982.49-1.3,3.261.363,3.84,1.968.343.954,1.145,1.278,1.68,3.424.327,1.313.592,2.648,1.008,3.933" transform="translate(-496.87 -262.411)" fill="#7a7d7e" fill-rule="evenodd"/>
            <path id="Path_4513" d="M506.982,278.6c-3.47,1.588-1.279,6.583-.14,6.987,1.2.423,2.126,1.446,3.474,1.529.034,0,.063.1.1.17a1.282,1.282,0,0,1-1.314.447,7.857,7.857,0,0,1-1.662-.3c-.911-.34-1.045.333-1.391,1.142l.212.244c.327-.066.671-.319.982-.146,1.241.687,2.658.345,3.955.718,1.51.437-.07-2.009.366-3.24.051-.144-.112-.31-.259-.314-1.138-.026-1.948-.949-3.048-1.1-1.039-.141-.811-.939-1.5-2.91-.424-1.21.951-2.753,1.673-3.333.5-.406-.209-1.194-.662-.638a2.149,2.149,0,0,1-.783.745" transform="translate(-496.467 -260.449)" fill="#7a7d7e" fill-rule="evenodd"/>
            <path id="Path_4514" d="M511.46,279.376c1.449,1.085,1.3,2.535.754,3.955-.235.608-.209.925.267,1.314a3.13,3.13,0,0,1,.5.746l.317-.141c-.5-1.028.387-1.119.573-2.385a4.5,4.5,0,0,0-1.759-4.16c-.577-.521-1.065.365-.656.672" transform="translate(-495.595 -260.325)" fill="#7a7d7e" fill-rule="evenodd"/>
        </g>
        <g id="Group_12164" transform="translate(626.778 245.949)">
            <path id="Path_4515" d="M570.7,221.668s4.334,20.763,13.794,28.045c0,0,13.422,14.365,14.338,18.421,0,0,.232,1.486-1.683-.168,0,0-11.4-9.882-17.155-10.289,0,0,2.924,11.81,20.652,14.889,0,0,1.845.172,2.772,4.35s6.608,21.037,7.443,24.662c0,0,.2,1.42-1.281-.641a73.473,73.473,0,0,0-23.065-20.653s12.552,25.119,23.389,24.861a.93.93,0,0,1,1.256.8,127.662,127.662,0,0,1,3.785,29.588s-.111,1.383-.7-.071c-.959-2.377-10.042-18.265-17.6-20.81,0,0,3.544,18.079,16.9,23.608a3.043,3.043,0,0,1,1.888,2.625c-.049,1.389-1.043,14.357-1.274,15.777a4.5,4.5,0,0,1,3.176.432s2.254-20.618.509-35.282a4.814,4.814,0,0,1-.057-1.923,39.964,39.964,0,0,0,4.307-9.486,49.206,49.206,0,0,0,1.282-21.141,59.215,59.215,0,0,0-5.942,23.646s-.22,2.629-.813.116c0,0-2.488-15.661-3.492-17.848,0,0,8.545-13.549,2.021-35.484,0,0-6.939,9.125-3.145,31.548,0,0,.019,2.034-.728-.2s-5.083-13.564-5.914-17.86a11.642,11.642,0,0,1,.218-3.713c.453-2.005.336-15.935-13.32-31.539,0,0-.869,6.239,7.781,22.935,0,0,1.8,4.232,1.932,6.123,0,0,.206,1.9-1.237-.449a72.672,72.672,0,0,0-5.35-7.7s-6.888-7.121-8.32-9.263l-.883-1.4s-.3-13.889-15.482-26.509" transform="translate(-570.704 -221.668)" fill="#102756" fill-rule="evenodd"/>
            <path id="Path_4516" d="M584.468,247.147l-11.805-22.3s3.08,16.007,11.805,22.3" transform="translate(-570.428 -221.221)" fill="#52b9e4" fill-rule="evenodd"/>
            <path id="Path_4517" d="M580.059,254.12l16.056,11.71s-10.9-1.659-16.056-11.71" transform="translate(-569.388 -217.101)" fill="#52b9e4" fill-rule="evenodd"/>
            <path id="Path_4518" d="M587.337,276.083,606.5,295.247s-6.6,2.032-19.165-19.164" transform="translate(-568.363 -214.011)" fill="#52b9e4" fill-rule="evenodd"/>
            <path id="Path_4519" d="M594.952,304.866,610,324.815s-9.842-2.316-15.047-19.949" transform="translate(-567.292 -209.961)" fill="#52b9e4" fill-rule="evenodd"/>
        </g>
        <g id="Group_12166" transform="translate(320.145 244.484)">
            <path id="Path_4520" d="M471.553,258.143a2.662,2.662,0,0,1,1.354,2.5,6.326,6.326,0,0,1-1.348,2.826,50.492,50.492,0,0,1-4.343,5.641q-2.351,2.647-4.979,5.145c-.556.505-1.557,1.448-2.988,2.843s-3.016,2.909-4.743,4.555-3.426,3.167-5.084,4.563a14.44,14.44,0,0,1-4.078,2.657c-.484.161-.946.332-1.392.513a3.163,3.163,0,0,1-1.364.236c-3-.029-5.019-.947-6.2-2.879a14.072,14.072,0,0,1-2.078-6.127,36.046,36.046,0,0,1,.982-13.957q.953-3.751,1.835-7.6t1.889-7.575a17.3,17.3,0,0,1,1.486-3.706,38.826,38.826,0,0,1,2.13-3.476c.491-.86,1-1.287,1.533-1.286a3.583,3.583,0,0,1,2.02,1.023,11.46,11.46,0,0,1,2.691,3.241,5.32,5.32,0,0,1,.276,4.046q-.346,1.579-.7,3.158a22.119,22.119,0,0,1-.805,2.686q-.732,2.146-1.64,5.216c-.614,2.049-1.193,4.229-1.759,6.539s-1,4.528-1.312,6.657a27.445,27.445,0,0,0-.319,5.658,4.587,4.587,0,0,0,1.492,3.518l.6.281c.373.078,1.222-.65,2.568-2.167s2.767-3.191,4.27-5.02,2.887-3.565,4.159-5.21,2.027-2.6,2.261-2.879q.407-.539,1.343-1.555t2.027-2.175q1.09-1.153,1.958-2.127c.577-.65.987-1.109,1.229-1.384a18.512,18.512,0,0,1,1.354-1.319,21.588,21.588,0,0,1,2.084-1.677,11.874,11.874,0,0,1,2.1-1.213A1.78,1.78,0,0,1,471.553,258.143Z" transform="translate(-283.301 -217.199)" fill="#102756"/>
            <path id="Path_4521" d="M347.535,276.891c.748-.358,1.493-1.646,2.308-3.865s1.618-4.59,2.418-7.122,1.491-4.895,2.046-7.1.879-3.478.922-3.829c.353-.917.733-1.411,1.133-1.478a.963.963,0,0,1,.984.415,4.865,4.865,0,0,1,.641,1.177,1.5,1.5,0,0,1,.146.938q-.613,1.892-1.24,3.924t-1.161,3.931q-.4,1.874-.827,3.756t-1.035,3.812q-.405,1.5-.916,3.03a20.215,20.215,0,0,1-1.281,3,6.218,6.218,0,0,1-2.39,2.632,9.226,9.226,0,0,1-6.029,1.78,10.229,10.229,0,0,1-5.7-2.453,20.773,20.773,0,0,1-4.372-4.766,38.823,38.823,0,0,1-3-5.6q-1.244-2.784-2.28-5.637a21.587,21.587,0,0,1-1.259-5.987q-.347-2.553-.684-5.173t-.475-5.238a5.981,5.981,0,0,1,.431-1.668,11.053,11.053,0,0,0,.568-1.84,8.122,8.122,0,0,0,.938-.357,1.752,1.752,0,0,1,.816-.185q1.381-.022,2.885-.2a10.078,10.078,0,0,1,2.94.094,9.222,9.222,0,0,1,2.6.875,2.886,2.886,0,0,1,1.5,1.965q.424,1.721.851,3.439t1.006,3.4a5.859,5.859,0,0,0,.7,1.521,11.332,11.332,0,0,1,1.175,3.487,33.236,33.236,0,0,0,1,4.967q.683,2.44,1.3,4.891a21.68,21.68,0,0,1,.789,2.868q.284,1.43.657,2.9.378.95.692,1.913t.559,1.945ZM339,220.406q-.7,2.876-1.14,5.385t-.947,4.974c-.018.44-.051.817-.094,1.13a5.113,5.113,0,0,1-.286,1.048,4.522,4.522,0,0,1-1.591,2.884,8.538,8.538,0,0,1-3.849.777,11.391,11.391,0,0,1-2.854-.366,10.169,10.169,0,0,1-2.64-1.059,6.263,6.263,0,0,1-1.978-1.772,4.12,4.12,0,0,1-.809-2.4,32.574,32.574,0,0,1,.4-4.361,14.374,14.374,0,0,1,1.448-4.259,4.083,4.083,0,0,1,1.348-1.7,5.833,5.833,0,0,1,2.523-.175,15.572,15.572,0,0,0,2.667.079q1.3-.074,2.6-.135,1.472-.1,2.693-.062C337.305,220.422,338.142,220.424,339,220.406Z" transform="translate(-298.952 -220.384)" fill="#102756"/>
            <path id="Path_4522" d="M424.137,240.908a4.8,4.8,0,0,1,5.008-.948q2.493,1.013,4.761,2.107a2.315,2.315,0,0,1,.822.96,2.9,2.9,0,0,1,.351,1.257,4.33,4.33,0,0,1-.443,3.18,117.747,117.747,0,0,0-7.467,17.788,16.258,16.258,0,0,0-.57,4.361,7.6,7.6,0,0,0,.781,3.91,14.932,14.932,0,0,0,6.26-4.5q1.872-2.134,3.659-4.287t3.823-4.348a9.486,9.486,0,0,1,1.458-1.3c.573-.424,1.1-.79,1.58-1.1,2.23-1.127,3.969-.349,5.052,2.281q-2.154,2.1-4.14,4.429t-4.214,4.579c-.757.8-1.737,1.825-2.925,3.1a33.138,33.138,0,0,1-3.772,3.474,13.788,13.788,0,0,1-4.153,2.292,4.541,4.541,0,0,1-4.168-.608q-1.033-.6-2.143-1.214A23.153,23.153,0,0,1,421.566,275a13.784,13.784,0,0,1-5.79-9.54,3.1,3.1,0,0,1-.146-1.093,2,2,0,0,0-.183-.958,2.439,2.439,0,0,0-.516-.535,3.2,3.2,0,0,0-.584.864,3.382,3.382,0,0,1-.578.864q-1.665,1.908-3.1,3.8t-3.107,3.694c-2.218,2.4-4.228,3.654-6.147,3.742a18.17,18.17,0,0,1-6.964-1.424,9.964,9.964,0,0,1-4.784-3.807,17.552,17.552,0,0,1-2.369-5.746,23.56,23.56,0,0,1,3.269-18.737,26.535,26.535,0,0,1,5.1-5.966,22.738,22.738,0,0,1,7.342-4.2,15.733,15.733,0,0,1,5.155-.887,23.971,23.971,0,0,1,5.777.607,25.291,25.291,0,0,1,5.592,2.009A17.812,17.812,0,0,1,424.137,240.908Zm-24.278,29.418a.864.864,0,0,1,.542.351,10.743,10.743,0,0,0,.956-.493,3.763,3.763,0,0,0,.834-.647q1.595-1.72,3.234-3.34a42.654,42.654,0,0,0,3.047-3.33q2.277-3.1,4.458-6.184t4.735-6.209a.759.759,0,0,0-.421-.021.384.384,0,0,1-.259.015q-.334-1.975-.7-3.948a19.314,19.314,0,0,0-.368-1.976,12.224,12.224,0,0,0-.724-2.04,2,2,0,0,0-1.114-1.055,1.635,1.635,0,0,0-1.553.277q-2.235,1.564-4.222,3.2a8.326,8.326,0,0,0-2.731,4.326,23.408,23.408,0,0,1-1.037,2.985q-.643,1.513-1.175,2.967a29.106,29.106,0,0,0-2.115,5.977q-.739,3.1-1.3,6.229-.091.684-.117,1.445A12.893,12.893,0,0,0,399.859,270.326Z" transform="translate(-289.973 -218.318)" fill="#102756"/>
            <path id="Path_4523" d="M353.259,235.405c.1-.534.611-1.029,1.533-1.475a6.481,6.481,0,0,1,2.447-.714c.35-.044,1.249-.173,2.693-.366s3.2-.4,5.262-.613,4.239-.394,6.527-.548c5.052-.37,11.739-1.814,14.61,1.857,1.525,1.953,1.371,4.255,1.183,6.433-.885,10.059-2.194,20.1-3.67,30.109a2.8,2.8,0,0,1-.449,1.347c-.934,1.226-3.188.959-4.9.572a3.059,3.059,0,0,1-1.362-.548c-.583-.528-.4-1.346-.2-2.044,1.709-5.933,1.774-12.059,1.778-18.126q.024-7.652.1-15.306a.592.592,0,0,0-.246-.586,1.584,1.584,0,0,0-.765-.123c-6.363-.043-15.651.841-15.855,5.633-.253,5.274.941,10.678,1.408,15.905.345,4.124-.423,10.011,2.331,13.6a.8.8,0,0,1,.148.411c.418,1.278.449,2.148.111,2.613a4.651,4.651,0,0,1-2.689,1.122,7.919,7.919,0,0,1-4.007-.455,3.48,3.48,0,0,1-2.537-2.425,2.449,2.449,0,0,0-.241-.828,10.941,10.941,0,0,1-1.043-3.732q-.462-2.871-.9-6.7t-.723-8.117q-.289-4.288-.443-7.945t-.177-6.163A17.878,17.878,0,0,1,353.259,235.405Z" transform="translate(-294.68 -218.876)" fill="#102756" stroke="#102756" stroke-miterlimit="10" stroke-width="1.138"/>
            <g id="Group_12165" transform="translate(0 23.509)">
                <path id="Path_4524" d="M303.164,250.072c-.36.364-.877.97-.877.97-.071.01-1.425,9.611,1.359,11.917,2.916,2.409,10.41,3.488,13.755-.236-6.543.884-11.206,9.625-11.307,14.5-.178,5.994,8.395,14.487,8.32,14.533q3.7-.442,7.345-.689c7.2-4.455,13.914-8.439,17.642-16.177.846-1.758.98-4.153-.724-5.147-4.51,3.115-9.572,8.651-14.851,10.341-3,.94-7.114-.422-6.895-3.373a6.652,6.652,0,0,1,1.041-2.622q2.238-3.9,4.719-7.735c.986-1.529,2.056-3.248,1.652-4.831-.948-3.862-8.811-2.28-10.937-5.537-1.152-1.807.075-4.4,1.811-6.372,1.758-2.125,9.328-8.641,2.818-8.615C314.695,240.968,306.28,246.8,303.164,250.072Z" transform="translate(-301.896 -240.993)" fill="#102756"/>
            </g>
        </g>
        <g id="Group_12168" transform="translate(339.492 148.091)">
            <g id="Group_12167" transform="translate(74.042 30.565)">
                <path id="Path_4525" d="M406.29,192.863c2.657,3.637,3.671,7.554-.249,12.558-2.56,3.268-6.1,4.693-9.485,6.845-3.977,2.529-2.892,3.923-6.607-.849a1.649,1.649,0,0,1-.351-.619c-.128-.564.343-1.07.776-1.453,3.254-2.884,7.015-6.255,6.764-10.6a13.35,13.35,0,0,0-2.231-5.769c-3.962-6.779-13.021-12.007-10.793-21.034,1.68-6.81,8.045-10.679,14.611-8.792,5.671,1.63,7.832,8.324.319,7.183-2.536-.384-4.671,2.334-4.686,4.9C394.321,182.391,402.226,187.3,406.29,192.863Z" transform="translate(-383.765 -162.676)" fill="#102756"/>
            </g>
            <path id="Path_4526" d="M469.2,204.333q1.246-.275,3.181-3.527t3.8-7.053q1.868-3.8,3.181-7.192t1.452-3.941c.46-.922.875-1.385,1.245-1.385a.893.893,0,0,1,.829.624,6.17,6.17,0,0,1,.416,1.383,1.916,1.916,0,0,1,0,1.037q-.83,1.939-1.729,4.011t-1.729,4.012q-.695,1.939-1.451,3.873t-1.729,3.872q-.695,1.525-1.522,3.043a19.8,19.8,0,0,1-1.937,2.905,6.247,6.247,0,0,1-3.042,2.212,8.8,8.8,0,0,1-6.57.208,10.08,10.08,0,0,1-4.91-4.356,21.946,21.946,0,0,1-2.7-6.431,45.073,45.073,0,0,1-1.038-6.847q-.279-3.319-.345-6.639a29.21,29.21,0,0,1,.622-6.638q.414-2.767.83-5.6t.967-5.6a7.205,7.205,0,0,1,.761-1.59,12.024,12.024,0,0,0,.9-1.728,4.858,4.858,0,0,0,.83-.07,1.128,1.128,0,0,1,.691.07,17.464,17.464,0,0,0,2.351.691,7.54,7.54,0,0,1,2.351.968,8.479,8.479,0,0,1,1.937,1.659,3.7,3.7,0,0,1,.829,2.49v3.874q0,1.939.139,3.873a7.68,7.68,0,0,0,.276,1.8,15.021,15.021,0,0,1,.277,4.011,43.56,43.56,0,0,0-.208,5.531q.068,2.77.07,5.532a26.407,26.407,0,0,1,.068,3.251c-.047,1.062-.068,2.143-.068,3.251.09.739.16,1.475.206,2.213s.07,1.475.07,2.212Z" transform="translate(-299.756 -132.082)" fill="#102756"/>
            <path id="Path_4527" d="M363.7,205.6q-.946-3.436-1.736-6.769-1.721-8.477-3.219-16.765t-3.218-16.764q-1.187-5.821-2.434-11.8-.147-.7-.293-1.4-1.1-5.265-2.14-10.4-1.03-4.173-4.238-5.4t-6.71,1.174a15.05,15.05,0,0,0-5.245,5.067,26,26,0,0,0-3,6.928q-1.93,7.606-3.859,15.215t-3.537,15.25c-1.881,8.935-3.862,18-5.047,27.085-.306,2.35-.395,5.142,1.45,6.629,1.253,1.008,3,1.054,4.608,1.052l38.359-.048C367.721,214.643,364.374,208.045,363.7,205.6Zm-13.286-1.664c-.027.026-.056.052-.084.076-1.162,1-4.67-.164-6.074-.294a38.5,38.5,0,0,0-7.883-.068c-2.9.329-4.847.509-5.2-3.3a14.669,14.669,0,0,1,.462-4.331c2.729-13.066,5.6-26.062,10.3-38.517.261-.692.835-1.539,1.525-1.268.47.184.6.777.654,1.278.273,2.391.483,4.789.822,7.169,1.324,9.272,4.578,18.157,5.745,27.455C350.976,194.508,352.421,201.98,350.415,203.941Z" transform="translate(-318.857 -135.882)" fill="#102756"/>
            <path id="Path_4528" d="M369.5,165.988c-.358.177-.9.5-.9.5s-4.131,8.042-3.029,11.364c1.165,3.511,6.407,7.79,10.177,5.62-5.165-1.709-11.617,4.014-13.708,8.249-2.58,5.225.494,16.85.494,16.85l6.509,2.713c8.035-.908,15.6-2.321,21.065-8.611,1.242-1.429,1.973-3.7.772-5.159-4.651,1.653-10.775,5.129-15.847,4.565-2.875-.319-5.691-3.342-4.411-5.936a6.476,6.476,0,0,1,1.773-1.963l6.308-5.3c1.257-1.055,2.609-2.285,2.753-3.92.347-3.928-6.066-5.4-6.579-9.308-.279-2.13,1.386-4.031,3.181-5.212,1.912-1.257,8.94-4.808,4.307-7.05C380.034,162.266,372.66,164.431,369.5,165.988Z" transform="translate(-312.926 -132.055)" fill="#102756"/>
            <path id="Path_4529" d="M452.566,194.834c-.018.016,1.8,4.332,1.708,4.987-.256,1.8-2.333,3.827-3.427,5.326a36.465,36.465,0,0,1-2.675,3.361,17.2,17.2,0,0,1-1.458,1.653,16.9,16.9,0,0,0-1.46,1.652,1.831,1.831,0,0,1-.729.57,6.724,6.724,0,0,1-.852.341q-4.865.342-7.417-1.652a10.886,10.886,0,0,1-3.647-5.754,13.518,13.518,0,0,1-.243-3.248q0-2.449.06-5.81t.243-7.18q.181-3.814.365-7.177t.3-5.983c.087-1.907.572-3.248-1.541-3.584-1.862-.3-6.183,2.074-8.012,2.688l-1.117-3.846c-.108-.373-.2-.826.094-1.1a1.237,1.237,0,0,1,.6-.251c2.365-.53,33.331-11.814,33.81-8.147q.12.914.3,2.051a12.976,12.976,0,0,1,.183,2.044c0,2.645-1.784,1.26-3.355,1.388-2.911.237-6.19,1.736-8.95,2.613a3.755,3.755,0,0,0-1.991,1.128,3.314,3.314,0,0,0-.469,1.692l-1.929,21.594c-.27,3.027-.968,7.258.505,10.114,2.13,4.125,5.963-1.453,7.059-3.472C449.679,198.71,450.677,196.423,452.566,194.834Z" transform="translate(-304.264 -132.355)" fill="#102756" stroke="#102756" stroke-miterlimit="10" stroke-width="1.258"/>
        </g>
        <g id="Group_12169" transform="translate(531.255 256.681)">
            <path id="Path_4530" d="M515.539,238.629a2.306,2.306,0,0,0,1.144.562c.522.125,1.043.234,1.566.327a14.858,14.858,0,0,1,1.567.374,3.027,3.027,0,0,1,1.264.7,1.342,1.342,0,0,1,.3.7,4.715,4.715,0,0,0,.181.8,66.3,66.3,0,0,1,.3,9.322,38.706,38.706,0,0,1-1.507,9.231,31.761,31.761,0,0,1-1.929,5.293,37.127,37.127,0,0,1-2.77,4.92,12.488,12.488,0,0,1-6.146,4.919,18.849,18.849,0,0,1-8.193.8,13.4,13.4,0,0,1-8.315-3.327,20.607,20.607,0,0,1-4.82-7.261,9.282,9.282,0,0,1-1.085-3.842,31.876,31.876,0,0,1-.06-5.2,45.024,45.024,0,0,1,.664-5.339,18.5,18.5,0,0,1,1.2-4.17q1.085-2.248,2.229-4.451a31.751,31.751,0,0,1,2.591-4.169A18.661,18.661,0,0,1,497.1,235.3a17.24,17.24,0,0,1,4.58-2.577,22.856,22.856,0,0,1,5.481-1.5,16.988,16.988,0,0,1,5.6.187,5.28,5.28,0,0,1,4.338,3.092,2.426,2.426,0,0,1,.18,1.686A4.445,4.445,0,0,1,515.539,238.629Zm-17.591,20.613a44.442,44.442,0,0,0,.722,6.841,10.521,10.521,0,0,0,3.253,5.715,5.719,5.719,0,0,0,3.675,1.827,4.529,4.529,0,0,0,3.674-1.64,16.1,16.1,0,0,0,2.41-3.466c.483-.938.922-1.889,1.325-2.857s.8-1.922,1.2-2.86q.24-.748.481-1.451a8.874,8.874,0,0,0,.363-1.453q.238-2.248.481-4.5t.483-4.4a29.885,29.885,0,0,0,.12-4.591,9.3,9.3,0,0,0-1.446-4.4,2.3,2.3,0,0,1-.6-1.4,2.418,2.418,0,0,1,.241-1.125,3.673,3.673,0,0,1,.724-.937,3.557,3.557,0,0,0-1.748-3.655,5.656,5.656,0,0,0-4.4-.656,11.811,11.811,0,0,0-4.881,2.483,10.532,10.532,0,0,0-2.951,4.263,40.836,40.836,0,0,0-2.289,9.136Q498.185,254.744,497.948,259.241Z" transform="translate(-486.964 -231.076)" fill="#102756"/>
            <path id="Path_4531" d="M535.058,269.882q1.21-.243,3.091-3.126t3.7-6.252q1.814-3.371,3.091-6.374t1.412-3.5q.671-1.223,1.209-1.225a.862.862,0,0,1,.807.551,5.083,5.083,0,0,1,.4,1.227,1.53,1.53,0,0,1,0,.918q-.8,1.718-1.679,3.556t-1.681,3.554q-.673,1.72-1.41,3.432t-1.681,3.432q-.672,1.352-1.477,2.7a17.559,17.559,0,0,1-1.882,2.575A6.076,6.076,0,0,1,536,273.314a9.316,9.316,0,0,1-6.385.185,9.575,9.575,0,0,1-4.772-3.861,18.556,18.556,0,0,1-2.621-5.7,36.681,36.681,0,0,1-1.008-6.069q-.269-2.943-.335-5.885a23.774,23.774,0,0,1,.6-5.884q.4-2.452.806-4.964t.941-4.966a6.041,6.041,0,0,1,.739-1.409,10.357,10.357,0,0,0,.874-1.533,5.189,5.189,0,0,0,.807-.062,1.206,1.206,0,0,1,.672.062,18.4,18.4,0,0,0,2.286.614,7.7,7.7,0,0,1,2.285.858,8.089,8.089,0,0,1,1.882,1.47,3.1,3.1,0,0,1,.807,2.206v3.434q0,1.718.134,3.432a6.283,6.283,0,0,0,.269,1.595,12.162,12.162,0,0,1,.268,3.554,35.447,35.447,0,0,0-.2,4.9q.065,2.455.067,4.9a20.934,20.934,0,0,1,.066,2.881c-.047.941-.066,1.9-.066,2.88.088.656.155,1.307.2,1.962s.066,1.307.066,1.961Z" transform="translate(-482.193 -230.785)" fill="#102756"/>
        </g>
    </g>
</svg>
