<svg id="Group_12111" xmlns="http://www.w3.org/2000/svg" width="166.094" height="160.718" viewBox="0 0 166.094 160.718">
    <path id="Path_4063" d="M408.2,348.9l2.539.566,136.238,4.57,3.387-1.254,20.8-28.623-1.256-57.953,2.367-11.234-31.372-.612-3.651,3.984-4.161,2.631-3.109-.749-.6-1.672,2.994-3.676-3-.742-1.108-.022-2.6,3.764-4.77,2.3-1.788.088-.977-2.978,5.011-3.273-9.528-.186L441.533,252.5l-2.167,2.588,6.153,1.248-3.992,3.418L434,258.74l-5.238-1.668-19.213,15.143Z" transform="translate(-406.384 -193.322)" fill="#6bc4e8" fill-rule="evenodd"/>
    <path id="Path_4064" d="M469.512,317.668h0c.672-.031,1.149-.051,1.747-.078-.606-.747-1.083-.989-1.747.078m3.721-27.421h0c1.31-1.575,1.329-2.83.074-3.409ZM503,261.26h0c-.766-.536-1.325-.555-1.845-.164a3.491,3.491,0,0,0-1.708,2.212Zm-69.05,37.658h0c1.079.137,1.814.231,2.721.344.086-.747.164-1.423.281-2.447Zm35.465-14.349h0l2.283,4.159C472,286.323,471.384,285.17,469.41,284.568Zm88.821-7.958h0c1.4.016,2.861-1.693,3.053-3.807C560.178,274.186,559.252,275.343,558.232,276.61ZM417.8,248.564h0l-.395.207c.192,1.184.379,2.369.61,3.8.567-.95.966-1.622,1.446-2.427Q418.632,249.355,417.8,248.564ZM559.483,266.11h0a7.992,7.992,0,0,0,2.47-2.861,3.151,3.151,0,0,0-2.525.59C559.443,264.606,559.459,265.29,559.483,266.11Zm-53.11-2.556h0c-1.223-1.575-2.869-1.485-4.354.184C503.476,263.675,504.887,263.617,506.373,263.554Zm-19.783,34.5h0a13.54,13.54,0,0,0-4.226.074l2.521,1.927c.461-.489.833-.872,1.188-1.274A8.33,8.33,0,0,0,486.59,298.054Zm20.846-39.476h0c.012-.954-.332-1.407-1.09-1.45a1.72,1.72,0,0,0-1.61,1.528,1.5,1.5,0,0,0,1.54,1.325C507.068,259.954,507.424,259.524,507.436,258.578Zm14.385,58.262h0c-.594.555-1.091,1.016-1.794,1.673l3.87.082.106-.246Zm-47.4-35.751h0a1.918,1.918,0,0,0-1.657,1.309,1.635,1.635,0,0,0,1.5,1.622c.641.035,1.3-.778,1.3-1.587A1.335,1.335,0,0,0,474.418,281.089Zm-62.092-24.419h0c-.688,1.56-.039,2.873.258,4.19.086.383.5.692.946,1.259C413.6,258.48,413.388,257.5,412.325,256.671ZM433.973,293.1h0c.184.922-.145,1.8.332,2.564.958-.238,1.775-.438,2.65-.657l.039-1.841Zm15.2,6.278h0c1.693-1.118,1.978-1.388,2.517-2.334l-6.149-.133-.062.324C446.7,297.94,447.911,298.648,449.174,299.379Zm32.76,18.759h0a26.962,26.962,0,0,0,6.981-.207l-3.69-2.611C484.166,316.226,483.2,317.055,481.934,318.138Zm22.648-52.559h0a23.9,23.9,0,0,0-.653,3.041c-.09,1.071.739,1.544,1.556.907a6.6,6.6,0,0,0,2.158-3.881Zm-79.119,58.039h0c-1.646-.715-3.057-.426-4.413-.5s-2.7-.086-4.057-.07-2.72-.246-4.065.281a1.547,1.547,0,0,0,.9.594C416.7,324.31,424.169,324.212,425.463,323.618Zm105.645,1.067h0c.328.223.446.375.575.383,3.842.188,7.681.379,11.527.524.418.016,1.009.07,1.165-.582C543.073,324.333,534.974,324.114,531.108,324.685Zm-118.732-8.623h0l.117.379c2.228-.231,4.491.379,6.708-.18l.1-.379c-1.157-.919-2.31-1.841-3.5-2.791C414.573,314.154,413.474,315.108,412.376,316.062Zm118.673,13.4h0a4.148,4.148,0,0,0,1.118.363q6.086.153,12.176.235a3.615,3.615,0,0,0,1.059-.391C543.714,328.836,533.16,328.488,531.049,329.458ZM467.2,284.67h0c-.531.192-1.27.246-1.665.645-.922.915-.793,3.721.082,4.726a1.011,1.011,0,0,0,1.653.047A4.365,4.365,0,0,0,467.2,284.67Zm-41.708,44.264h0c.008-.188.012-.375.02-.563a5.207,5.207,0,0,0-1.31-.387c-3.624-.07-7.251-.106-10.874-.133-.219,0-.438.2-.633.285.168.852.766.821,1.286.84,3.3.125,6.6.25,9.9.324A6.685,6.685,0,0,0,425.494,328.934ZM445.328,317h0l8.924.2c-1.923-1.259-3.53-2.31-5.171-3.381C447.833,314.87,446.7,315.835,445.328,317Zm-32.541,16.323h0c0,.829.434,1.052,1.04,1.067,3.358.082,6.715.168,10.069.234a1.5,1.5,0,0,0,1.489-.688C423.938,333.038,415.593,332.643,412.786,333.324Zm117.88,1.016h0a13.348,13.348,0,0,0,1.911.407c3.205.145,6.411.25,9.612.359.762.027,1.524.047,2.283.039s.926-.406.684-1.079c-4.558-.1-9.108-.207-13.658-.285C531.335,333.777,531.167,334,530.666,334.34Zm16.992-34.621h0l-.168-.34-4.855-.106c-.708,1.04-1.286,1.9-1.9,2.811.958.622,1.857,1.2,2.861,1.853C544.984,302.49,546.321,301.1,547.658,299.719ZM503.992,252.3h0a5.169,5.169,0,0,0-1.9,5.742c.594-.653,1.169-1.294,1.751-1.923,1.951-2.119,4.249-3.045,7.114-2.1a10.421,10.421,0,0,0,1.583.246c-.2-1.052-.2-1.091-.555-1.087-.43,0-.86.106-1.29.109-1.1.012-1.388-.321-1.376-1.454a11.835,11.835,0,0,0-.16-1.282c-.962.93-1.712,1.7-2.51,2.408-.911.817-1.477.782-2.361-.09A2.063,2.063,0,0,1,503.992,252.3Zm-27.53,33.964h0c2.091-.942,3.733-2.134,4.311-4.394-2.185-.88-2.271-1.083-1.54-3.4.215-.688.391-1.384.618-2.189a3.31,3.31,0,0,0-.735.078c-1.818.883-1.872.864-2.654-1.024-.043-.1-.063-.207-.106-.309-.34-.762-.77-.528-1.356-.086,1.2,1.7,2.857,3.022,2.967,5.32C478.072,282.414,477.029,284.2,476.462,286.265ZM465.4,298.109h0c1.962,1.442,3.561,2.619,5.293,3.893,1.372-1.4,2.674-2.732,3.979-4.069-.1-.082-.184-.192-.266-.2-2.5-.082-5-.176-7.493-.207A5.617,5.617,0,0,0,465.4,298.109Zm66.654,20.956h0c3.412.418,6.469-.133,9.585-.192a31.611,31.611,0,0,0-5.359-4.089C534.88,316.2,533.6,317.5,532.058,319.064Zm-2.529-21.772h0c2.947-.043,5.633-.086,8.463-.133-.024-.778-.039-1.4-.059-2.177-2.568-.418-5.007-.813-7.571-1.231C530.072,294.993,529.83,296.025,529.529,297.292Zm-99.719,4.894h0c-1.806,1.454-3.608,2.9-5.558,4.472.977.844,1.814,1.567,2.775,2.4,1-1,1.861-1.9,2.744-2.767.864-.852,1.747-1.689,2.541-2.455Zm90.584-1.552h0l1.626-2.005c-1.849.043-3.42.078-5.363.121,1.732,1.134,3.108,2.037,4.581,3,1.173-.41,2.353-1.485,4.054-.852-1.266,1.306-3.33,1.1-4.28,2.814.285.094.512.25.645.192.989-.426,1.974-.864,2.932-1.356a6.5,6.5,0,0,0,2.662-2.31c1.169-1.845.817-3.991,1.329-5.957.063-.246-.286-.6-.442-.9-.207.266-.524.5-.606.8-.457,1.661-.86,3.342-1.282,5.011C524.357,299.481,522.774,300.747,520.394,300.634ZM505.255,318.3h0l.164-.461c-1.872-1.435-3.741-2.869-5.308-4.073-1.7,1.571-3.193,2.947-4.738,4.37A74.35,74.35,0,0,0,505.255,318.3Zm-73.4-2.979h0c-1.513-1.251-2.963-2.455-4.448-3.678-1.728,1.411-3.373,2.756-5.328,4.351a15.6,15.6,0,0,0,2.455.637c1.513.109,3.041.023,4.55.145A2.556,2.556,0,0,0,431.85,315.323ZM506.971,303.6h0c1.634-1.626,3.178-3.166,4.937-4.914-.707-.082-1.114-.164-1.521-.168-1.993-.031-3.991.035-5.981-.086a2.545,2.545,0,0,0-2.7,1.47C503.429,301.114,505.137,302.314,506.971,303.6Zm-81.258,6.719h0c-.977-.938-1.865-1.79-2.873-2.756-1.97,1.524-3.87,2.99-5.922,4.577,1.4.981,2.588,1.814,3.913,2.744C422.484,313.337,424.06,311.864,425.713,310.32Zm33.049,6.653h0a6.492,6.492,0,0,0,1.489.457c1.892.09,3.788.086,5.683.152a1.646,1.646,0,0,0,1.431-.582c.41-.489.872-.938,1.481-1.583-1.7-1.259-3.272-2.431-4.784-3.553C462.234,313.631,460.576,315.229,458.763,316.973ZM571.5,299.946h0c-2.642-.059-5.132-.012-7.607-.2a2.933,2.933,0,0,0-3.233,1.9c1.8,1.388,3.592,2.767,5.418,4.171,1.747-1.583,3.44-3.088,5.089-4.644C571.385,300.958,571.358,300.493,571.5,299.946Zm-108.983-1.462h0a3.159,3.159,0,0,0-2.74-1.29c-1.137.031-2.279-.066-3.416-.066a1.853,1.853,0,0,0-1.075.215c-1.259,1-2.467,2.06-3.815,3.2l5.117,3.389C458.614,302.068,460.522,300.313,462.515,298.484Zm51.98,13.2h0c-1.966,1.986-3.846,3.889-5.738,5.8a3.222,3.222,0,0,0,2.271,1.036c1.732.016,3.463.039,5.195.02a2.014,2.014,0,0,0,1.212-.285c.883-.782,1.677-1.665,2.6-2.6C518.17,314.319,516.418,313.064,514.5,311.684Zm-43.74,17.66h0c-1.966-.059-5.078,2.349-5.48,4.136-.356,1.575.059,2.377,1.595,3.057a6.888,6.888,0,0,0,.743.324,3.958,3.958,0,0,0,4.124-.637c1.063-.954,1.888-2.064,1.263-3.682a3.574,3.574,0,0,1-.066-1.607,1.165,1.165,0,0,0-1.032-1.388C471.482,329.438,471.048,329.4,470.755,329.344Zm12.821-28.077h0c-1.282-1-2.416-2-3.667-2.814-1.09-.711-1.747-.52-2.67.4-.422.422-.848.844-1.286,1.251-1.063.985-2.138,1.962-3.272,3,1.814,1.294,3.51,2.5,5.246,3.737C479.839,304.957,481.641,303.174,483.576,301.267Zm30.759,7.607h0c1.763-1.931,3.459-3.788,5.246-5.746-1.833-1.216-3.53-2.338-5.312-3.522-1.767,1.755-3.483,3.451-5.328,5.281C510.79,306.255,512.517,307.529,514.335,308.874Zm-55.881-3.76h0a14.405,14.405,0,0,0,5.078,3.678c1.861-1.845,3.741-3.709,5.684-5.641-1.657-1.22-3.245-2.392-4.812-3.549C462.351,301.505,460.4,303.307,458.454,305.113Zm-29.629,5.023h0c1.735,1.306,3.279,2.466,4.878,3.674,2.142-1.982,4.151-3.846,6.25-5.793-1.794-1.177-3.42-2.24-5.074-3.323-.324.242-.6.414-.833.625C432.366,306.864,430.693,308.412,428.825,310.136Zm33.253.422h0c-1.779-1.321-3.467-2.572-4.96-3.678-1.915,1.853-3.8,3.674-5.726,5.543,1.653,1.02,3.444,2.126,5.261,3.244A31.4,31.4,0,0,0,462.077,310.558ZM447.341,312.8h0c-1.931-1.286-3.67-2.439-5.4-3.592-2.181,1.943-4.241,3.768-6.587,5.852a5.658,5.658,0,0,1,.821.442c1.876,1.493,4.089,1.591,6.332,1.528a1.193,1.193,0,0,0,.692-.344C444.55,315.444,445.883,314.178,447.341,312.8Zm41.438,24.423h0A5.2,5.2,0,0,0,493.462,334a1.51,1.51,0,0,0,.109-.637c-.313-2.818-3.033-5.4-6.168-4.28a1.224,1.224,0,0,0-.946,1.138,14.3,14.3,0,0,1-.723,3.311,2.337,2.337,0,0,0,.469,2.541A3.086,3.086,0,0,0,488.779,337.225Zm-7,48.654h0a4.293,4.293,0,0,0,4.257-2.537,9.667,9.667,0,0,1,1.055-1.775,3.477,3.477,0,0,0-1.028-5.472,2.594,2.594,0,0,1-.539-.36c-1.833-1.865-6.086-1.892-8.068.414a2.54,2.54,0,0,0-.637,2.779,7.637,7.637,0,0,1,.461,2.025,7.7,7.7,0,0,0,1.528,3.8C479.523,385.863,480.773,385.753,481.782,385.878Zm4.945-84.326h0c1.786,1.372,3.534,2.721,5.347,4.116l6.36-5.926a2.814,2.814,0,0,0-2.869-1.5,14.9,14.9,0,0,1-1.954-.063c-4.03-.188-4.03-.188-6.618,2.846A3.755,3.755,0,0,0,486.727,301.552Zm-8.506,8.283h0l-6.344,5.574a28.147,28.147,0,0,0,4.151,2.373,4.529,4.529,0,0,0,3.135.023,12.785,12.785,0,0,0,4.331-3.874Zm-28.07-8.127h0c-2.22,1.986-4.272,3.819-6.493,5.809l5.621,3.608c2-1.974,3.874-3.819,5.906-5.82C453.431,304.054,451.859,302.932,450.151,301.709Zm47.614,10.7h0c-1.923-1.4-3.655-2.666-5.433-3.96-1.923,1.755-3.776,3.448-5.75,5.254,2.166,1.575,4.038,3.107,6.5,3.839C494.615,315.863,496.135,314.194,497.765,312.407ZM521.5,304.39h0c-1.876,1.982-3.647,3.85-5.527,5.832,1.97,1.349,3.745,2.56,5.633,3.85,1.775-1.974,3.471-3.858,5.292-5.887C525.1,306.923,523.38,305.715,521.5,304.39Zm1.99,10.832h0c1.63,1.161,3.119,2.228,4.616,3.287a1.129,1.129,0,0,0,1.606-.148c1.087-1.055,2.208-2.076,3.284-3.147.516-.512.962-1.1,1.5-1.728-2.029-1.376-3.854-2.619-5.785-3.929C526.965,311.449,525.28,313.275,523.486,315.222Zm-32.928-8.377h0c-1.7-1.4-3.409-2.8-5.175-4.253-1.95,1.927-3.819,3.772-5.8,5.73,1.872,1.435,3.569,2.732,5.3,4.057C486.8,310.507,488.619,308.733,490.557,306.845Zm-14,1.5h0c-1.04-.813-1.833-1.462-2.65-2.08-.852-.641-1.724-1.255-2.677-1.947-2.044,2.025-3.956,3.917-5.949,5.9l5.1,3.733Zm23.778-7.247h0c-2.2,2.021-4.308,3.948-6.594,6.039l5.359,3.78,6.477-5.973C503.793,303.636,502.139,302.424,500.337,301.1Zm50.479,7.716h0c2.2-2.388,4.327-4.691,6.532-7.083-.856-.7-1.614-1.391-2.455-1.974-.934-.649-3.506-.559-4.331.235-1.7,1.642-3.307,3.385-5.035,5.175C547.361,306.431,549.046,307.6,550.817,308.815Zm8.252-5.73h0l-6.422,6.954,4.781,3.506c2.385-2.193,4.921-4.05,6.688-6.68C562.457,305.621,560.862,304.425,559.068,303.085Zm-51.957,13.372h0c1.9-2.033,3.78-4.034,5.766-6.156-1.845-1.38-3.6-2.693-5.39-4.034-2.009,2.087-3.932,4.089-5.852,6.082C503.285,313.588,505.13,314.971,507.111,316.457Zm36.13,1.048h0c2.126-2.439,4.14-4.753,6.266-7.192-1.954-1.134-3.522-2.638-5.574-3.565-2.1,2.177-4.116,4.272-6.239,6.481C539.579,314.682,541.326,316.027,543.241,317.5ZM416.82,252.234h0a14.974,14.974,0,0,1-.524-1.736,4.367,4.367,0,0,1-.035-1.607c.258-1.173,1.04-1.489,2.068-.883a3.765,3.765,0,0,1,1.81,2.22c.16.539.332,1.04.965.926a5.236,5.236,0,0,1,.618-1.685c.321-.375.958-.477,1.341-.649-.547-1.126-1.106-2.177-1.579-3.26-.676-1.544-1.267-3.123-1.943-4.667-.266-.614-.532-1.313-1.548-1.392-.012.645-.023,1.22-.039,1.794-.031,1.087-.035,2.177-.129,3.26a.859.859,0,0,1-.578.614.892.892,0,0,1-.661-.539,15.811,15.811,0,0,1-.281-1.931c-.082-.594-.152-1.188-.262-1.775-.1-.528-.239-1.044-.36-1.564l-.41.031c-.313,2.193-.688,4.386-.9,6.59a7.4,7.4,0,0,0,.485,2.189c.023.106.086.234.047.317-.117.274-.215.672-.43.758a1,1,0,0,1-.852-.219,2.3,2.3,0,0,1-.4-.852c-.207-.528-.407-1.059-.614-1.587a9.271,9.271,0,0,0,1.427,8.815c.493-.094.946-.18,1.407-.266C415.523,253.942,415.562,252.82,416.82,252.234Zm150.628,12.344h0l-.371-.36c-.524.453-1.032.923-1.571,1.356a.882.882,0,0,1-1.313-.02c-.453-.508-.055-.876.309-1.231a7.5,7.5,0,0,0,1.54-1.618c.848-1.638,1.548-3.35,2.279-5.046a4.491,4.491,0,0,0,.184-.985c-.117-.082-.235-.168-.356-.25a4.722,4.722,0,0,1-.407.711c-.86,1.048-1.708,2.111-2.635,3.1-.234.254-.727.266-1.1.387-.016-.391-.184-.864-.024-1.157.59-1.1,1.3-2.13,1.943-3.2a7.669,7.669,0,0,0,.418-.989,3.084,3.084,0,0,0-2.631.876c-2.166,1.509-4.339,3.006-6.551,4.534,1.212.747,1,1.822.18,2.99.4.035.637.125.813.055a3.622,3.622,0,0,0,.79-.508,3.9,3.9,0,0,1,3.08-.743.977.977,0,0,1,.915,1.274,5,5,0,0,1-.864,1.7,11.394,11.394,0,0,1-1.493,1.356c1,1.231-.051,2.224-.383,3.264.4.317.739.578,1.083.852C564.463,269.843,566.19,267.428,567.449,264.578ZM478.811,336.7h0a6.021,6.021,0,0,0,6.125-6.512,2.28,2.28,0,0,0-.723-1.415,14.356,14.356,0,0,0-2.623-1.845,4.05,4.05,0,0,0-5.144.954,7.941,7.941,0,0,0-1.9,4.057,3.151,3.151,0,0,0,1.524,3.62A16.414,16.414,0,0,0,478.811,336.7Zm45.839,33.765h0a6.6,6.6,0,0,0,.207-.7c.747-5.078.457-10.19.583-15.291a6.234,6.234,0,0,0-.6-2.506,1.786,1.786,0,0,0-2.74-.758,3.232,3.232,0,0,0-1.634,2.619c-.11,5.48-.332,10.961-.508,16.441a3.639,3.639,0,0,0,.129.7C521.613,370.364,522.907,368.941,524.651,370.462Zm3.983-63.836h0c.93-.969,1.8-1.857,2.642-2.763a7.658,7.658,0,0,1,4.89-2.47c-1.939,2.318-3.717,4.444-5.551,6.633,1.81,1.266,3.577,2.506,5.406,3.784,2.021-2.111,3.96-4.139,6.02-6.3-.8-.559-1.493-1.055-2.2-1.532a1.809,1.809,0,0,0-2.724.176,17.439,17.439,0,0,1-1.3,1.223,1.123,1.123,0,0,1-1.782-.227,17.589,17.589,0,0,1,4.831-3.76,2.166,2.166,0,0,0,1.5-1.931c.031-1.3.148-2.6.2-3.893.035-1.04-.121-1.141-1.337-1.024-.024.919.031,1.845-.078,2.752-.164,1.356-.653,2.658-2.146,2.959a22.185,22.185,0,0,0-5.652,2.427,4.05,4.05,0,0,1-.981.234c-.023-1.9,2.029-2.138,2.525-3.526-2.146-1.052-3.4-.692-4.14,1.3a5.625,5.625,0,0,1-2.928,2.885,9.273,9.273,0,0,1-1,.391Zm-92.91,60.67h0c.063-.551.129-.926.145-1.3.152-3.792.34-7.579.43-11.371a40.886,40.886,0,0,0-.262-4.366,1.449,1.449,0,0,0-1.317-1.423,3.039,3.039,0,0,0-3.784,2.783,9.086,9.086,0,0,0-.043.977c-.074,3.643-.164,7.286-.2,10.929-.016,1.552.1,3.108.16,4.89C432.4,367.206,433.93,366.647,435.724,367.3ZM569.278,320.62h-.1c.031-1.462.117-2.928.063-4.39a1.547,1.547,0,0,0-.762-1.075c-.234-.117-.75.188-1.079.4a7.782,7.782,0,0,0-.958.88c-2.334,2.185-4.62,4.429-7.028,6.532a3.663,3.663,0,0,0-1.427,2.6c-.129,2.107-.219,4.226-.223,6.34,0,1.353.969,1.919,2.213,1.364a5.264,5.264,0,0,0,1.063-.735c1.994-1.591,3.991-3.17,5.953-4.792a4.986,4.986,0,0,0,2.075-4.042C569.048,322.676,569.2,321.648,569.278,320.62Zm-42.657,36.165h0c.082,2.107.164,4,.223,5.9.082,2.552.211,5.1.2,7.657a4.058,4.058,0,0,1-1.868,3.749c-1.122.688-2.166,1.509-3.506,2.455.813.117,1.235.2,1.657.239a10.775,10.775,0,0,1,5.473,1.872c1.5,1.051,3.193,1.841,4.792,2.764.653.375,1.22.434,1.622-.2a25.279,25.279,0,0,0-4.444-11.824c-.79-1.141-1.45-2.373-2.1-3.448,1.255-3.166,3.643-5.211,5.945-7.513A22.309,22.309,0,0,0,526.621,356.785Zm-107.654-.43h0c0,.164,0,.328,0,.493,1.661.625,3.315,1.278,4.992,1.865a3.884,3.884,0,0,1,2.259,1.638c-.6.969-1.208,1.927-1.8,2.893A41.432,41.432,0,0,0,419,376.094c-.117.528-.246,1.047.395,1.431,2.654-2.611,6.133-3.627,9.53-5.148.551-6.9.391-13.888.676-20.995C425.185,351.586,421.961,353.728,418.966,356.355Zm92.05-81.136h0c1.876,3.522,3.311,7.161,6.227,10.061,3.115,3.092,6.981,4.718,10.816,6.477a8.362,8.362,0,0,0,2.228.457c2.467.375,4.941.731,7.411,1.094a7.216,7.216,0,0,0,3.827-.41c3.534-1.411,6-4.147,8.811-6.825-.688.074-1.216.113-1.735.184-2.474.336-4.921.9-7.45.641a33.3,33.3,0,0,0-3.584-.156c-4.155.023-7.1-2.138-9.436-5.281-1.739-2.338-.145-6.723,2.682-7.642.027-.012.082.055.176.125-.164.2-.336.379-.489.578-2.338,3-2.166,5.422.614,7.99a9.073,9.073,0,0,0,2.076,1.563,9.375,9.375,0,0,0,3.049.981,43.183,43.183,0,0,0,6.356.207c2.92-.152,5.852-.426,8.392-2.193a17.214,17.214,0,0,1,2.607-1.333c1.22-.571,2.474-1.075,3.686-1.661a3.323,3.323,0,0,0,1.63-2.091c-.121-.121-.184-.223-.277-.266a2.625,2.625,0,0,0-3.115.653c-.477.438-.919,1.1-1.794.782,2.65-4.182,2.65-4.182,2.349-5.551-.793.238-1.571.473-2.662.805a3.117,3.117,0,0,1,3-1.5c1.13.035.9,1.141,1.2,1.943a5.372,5.372,0,0,0,2.369-4.01c-.918.575-1.567.981-2.208,1.38-.555-.27-.578-.582-.242-1.04.649-.872,1.274-1.763,1.861-2.678a3.4,3.4,0,0,0,.254-1.024,4.077,4.077,0,0,0-3.44,2.259,2.955,2.955,0,0,1-2.756,1.857c.52-.645,1-1.227,1.47-1.818a1.112,1.112,0,0,0,.133-1.489,2.093,2.093,0,0,0-1.266-.543,10.488,10.488,0,0,0-1.915.184c1.446-1.122,2.556-1.071,4.5.125,1.149-.852,2.185-1.79,2.236-3.479-1.435-.524-2.576.4-3.909.582.106-1.622,2.306-1.845,2.064-3.643a3.384,3.384,0,0,0-1.087-.008c-1.693.586-3.385,1.169-5.035,1.857a11.541,11.541,0,0,1-7.626.664,17.5,17.5,0,0,1-3.87-1.657,16.337,16.337,0,0,0-5.9-1.759,9.961,9.961,0,0,0-6.7,1.521c-.637.395-1.313.727-2.056,1.138-.246,1.747-2.087,1.61-3.3,2.369.207.422.418.794.571,1.184.422,1.063,0,1.689-1.165,1.661a12.684,12.684,0,0,1-1.693-.278c.274.762.5,1.4.723,2.021a1.51,1.51,0,0,1-2.126.176c-.645-.426-1.345-.766-2.154-1.216-.02.856-.047,1.45-.039,2.044,0,.508.016,1.091-.6,1.149a2.474,2.474,0,0,1-1.29-.4,4.841,4.841,0,0,1-.852-.805C511.794,272.537,512.967,274.366,511.016,275.218Zm-51.7-4.937h0c-1.759-1.724-3.4-3.389-5.1-4.988a15.782,15.782,0,0,0-9.061-4.456c-3.4-.4-6.809-.637-10.2-1.044a11.566,11.566,0,0,1-7.282-4.272c-1.36-1.54-2.49-3.28-3.725-4.933-.3-.406-.629-.758-1.251-.532-.891,1.243.727,2.529.02,3.932-1.1-.817-1.5-2.318-3.092-2.467a4.252,4.252,0,0,0,.234,4.116c2.056-.141,3.076.45,3.831,2.365-.59-.5-.958-.86-1.368-1.157-.485-.348-.989-.727-1.642-.379-.7.375-.719,1-.621,1.693.1.661.156,1.329.231,1.994a2.722,2.722,0,0,1-1.306-2.842,4.464,4.464,0,0,0-1.016-3.42c-.133-.211-.5-.27-.868-.457a8.748,8.748,0,0,0-.137,1.091c.012,1.032.035,2.068.1,3.1.039.6-.231.762-.747.739-.336-.7-.653-1.349-1.13-2.33a5.561,5.561,0,0,0-.2,4.562c1.349-1.212,1.474-1.263,2.2-.9a2.489,2.489,0,0,1,1.391,2.525c-.563-.618-1.122-1.224-1.8-1.958-1.173,2.08-.887,4.069-.672,6.113-.821-.563-.821-.563-1.259-1.829-.524-1.5-.985-1.845-2.533-1.861-.106,2.259.289,3.315,1.876,5.34,1.169,1.5,2.427,2.986,2.767,4.91a3.439,3.439,0,0,0,1.028,1.954,28.03,28.03,0,0,0,12.77,7.525,10.748,10.748,0,0,0,6.88-.235,6.984,6.984,0,0,0,4.777-7.9,13.557,13.557,0,0,1,.027-1.556,3.327,3.327,0,0,1,2.224,2.783,6.1,6.1,0,0,1-1.337,4.738,10.962,10.962,0,0,1-9.366,4.413,20.949,20.949,0,0,1-9.03-2.56,31.826,31.826,0,0,1-8.771-6.708,8.606,8.606,0,0,0-.747-.653,43.607,43.607,0,0,0,2.107,7.231,8.252,8.252,0,0,0,4.186,4.8q3.272,1.431,6.536,2.9c4.19,1.9,8.6,2.072,13.091,1.759A19.137,19.137,0,0,0,449.014,289c2-1.052,4.175-1.771,6.278-2.623a1.631,1.631,0,0,1,.485-.055,2.286,2.286,0,0,0,2.158-1.106c.383-.676,1.239-1.075,1.552-2.009-.864.031-1.681.668-2.15-.41a3.584,3.584,0,0,1,2.392-2.255,1.214,1.214,0,0,0,1.055-1.235c-1.083-.1-2.322.973-3.151-.684.844-.653,1.669-1.286,2.541-1.954-.7-.571-1.911-.285-2.048-1.462.629-1.337,1.982-.68,3.057-.977-.731-1.364-2.3-1.872-2.682-3.35Zm4.972,65.911h0c-3.189,1.063-6.383,2.115-9.573,3.19-1.693.575-3.373,1.188-5.062,1.779-3.018,1.055-6.051,2.072-9.053,3.178a3.413,3.413,0,0,0-2.427,3.475,15.417,15.417,0,0,1-.254,1.923,11.173,11.173,0,0,0-.152,1.607c.016,1.079.176,2.158.141,3.229-.09,2.713-.313,5.422-.375,8.134a40.227,40.227,0,0,0,.211,4.7,2.82,2.82,0,0,0,1.9,2.459c2.447.891,4.91,1.74,7.4,2.506,2.33.715,4.757,1.153,7.044,1.978a58.285,58.285,0,0,0,9.659,2.893,30.462,30.462,0,0,1,6.109,1.681c1.927.77,3.968,1.266,6.282,1.986-.258-.852-.418-1.4-.59-1.939a2.573,2.573,0,0,1,.95-3.3c.676-.453,1.313-.965,1.95-1.478,1.853-1.493,5.734-1.411,7.587.145a9.224,9.224,0,0,0,1.579,1.114,2.31,2.31,0,0,1,1.282,1.579c.156.688.449,1.349.543,2.04a15.984,15.984,0,0,1-.027,2.228c1.071-.328,2-.606,2.92-.9,4.085-1.306,8.162-2.639,12.254-3.921,3.526-1.1,7.063-2.158,10.6-3.221a2.568,2.568,0,0,0,1.868-1.442,20.047,20.047,0,0,0,1.345-4.48c.262-2.419.137-4.882.231-7.325.125-3.315.27-6.629.473-9.936a2.732,2.732,0,0,0-1.368-2.709,68.7,68.7,0,0,0-11-6.008c-2.795-1.192-5.57-2.443-8.365-3.635-1.442-.618-2.908-1.169-4.362-1.747-1.4,1.376-2.846,2.4-4.8,2.322a4.819,4.819,0,0,1-4.585-2.783c-3.53,3.213-7.013,2.627-10.4.133C472.049,338.405,469.188,339.457,464.29,336.193ZM445.6,302.467h0c.805-.571,1.614-1.141,2.685-1.9-.723-.34-1.137-.532-1.552-.723-1.036-.833-2.076-1.661-3.088-2.474-1.028.618-1.9,1.141-2.924,1.759.375.141.543.266.657.231a8.21,8.21,0,0,1,5.386.453c.066.344.133.688.215,1.134-.485.07-.915.274-1.2.149a12.376,12.376,0,0,0-4.3-.665c-1.693-.148-1.958-.641-1.818-2.365.121-1.446.082-2.908.117-4.421-.492-.137-.891-.246-1.325-.364-.027,1.278-.031,2.466-.086,3.655s-.16,2.357-.25,3.67c-1.548-.035-2.947-.008-4.339-.113-.946-.074-1.149-.391-1.118-1.415.047-1.579.145-3.151.2-4.73.039-1.091.02-1.094-1.321-1.227-.051,2.283-.192,4.562-.125,6.833.063,2.083,1.032,2.877,3.123,2.873a3.219,3.219,0,0,1,.809-.051c.922.281,2.115.36,2.682.985a17.3,17.3,0,0,0,3.752,2.642c1.27-1.325,2.459-2.568,3.647-3.815A.891.891,0,0,1,445.6,302.467Zm121.945-39.738c1.477.75,1.642,1.13,1.044,2.58a15.639,15.639,0,0,1-4.042,5.469,2.655,2.655,0,0,0-.977,1.892,5.976,5.976,0,0,1-2,3.647,4.507,4.507,0,0,0-1.161,1.841,6.735,6.735,0,0,1-2.912,3.186c-1.083.719-2.142,1.47-3.193,2.232a1.536,1.536,0,0,0-.614.735,10.424,10.424,0,0,1-3.53,5.117c-.93.837-1.767,1.79-2.764,2.537a19.639,19.639,0,0,1-3.577,2.209c-.977.446-1.517.958-1.442,2.04a6.1,6.1,0,0,1-.082.9,7.892,7.892,0,0,0,1.118.192c3.264.074,6.524.117,9.788.2,2.928.074,5.859.235,8.791.278,2.5.039,5-.109,7.493-.027a16.189,16.189,0,0,1,3.315.688c.8.2,1.051.739,1.032,1.587-.078,3.971-.043,7.943-.117,11.914q-.452,24.485-.95,48.963c-.117,5.332-.395,10.656-.594,15.983a5.515,5.515,0,0,1-1.95,3.983c-4.487,4.116-8.947,8.267-13.5,12.313a58.5,58.5,0,0,1-5,3.643,6.2,6.2,0,0,1-1.016.438,9.743,9.743,0,0,1-.121-1.153q.862-35.983,1.739-71.966c.039-1.575.172-3.154.164-4.73a3.155,3.155,0,0,1,1.181-2.557c.661-.563,1.313-1.137,2.154-1.868-1.524-1.145-2.979-2.24-4.624-3.475-2.13,2.322-4.237,4.612-6.493,7.067,1.943.95,3.874.43,5.629,1.04q-1,39.208-2,78.459-68.583-1.507-136.971-3.018c-1.122-.023-2.24-.215-3.479-.344-.055-.8-.16-1.489-.145-2.177q.481-18.762.989-37.525c.293-10.663.622-21.323.9-31.982.051-1.951-.047-3.909-.113-5.859a3.016,3.016,0,0,1,1.783-3.026,5.048,5.048,0,0,0,1.192-.829c3.6-3.483,7.775-6.254,11.582-9.479,1.7-1.438,3.471-2.795,5.23-4.171a1.655,1.655,0,0,0,.758-1.5c-.094-2.009-.125-4.014-.184-6.07-2.263-1.009-4.519-1.943-6.708-3.01a24.821,24.821,0,0,1-6.661-4.64,10.66,10.66,0,0,1-1.947-3.706c-.449-1.157-.594-2.427-.973-3.616a14.2,14.2,0,0,1-.6-4.992,2.547,2.547,0,0,0-.121-1.106c-.422-.95-1.137-1.681-.883-2.979.172-.876-.6-1.911-.813-2.9-.277-1.313-.684-2.642-.024-3.987.113-.231-.059-.622-.149-.922a6.138,6.138,0,0,1,.45-5.179c.176-.293.031-.805-.016-1.208-.239-1.935-.524-3.862-.723-5.8a4.956,4.956,0,0,1,.223-1.607c.328-1.352.555-1.493,2.138-1.392.227-1.423.414-2.865.7-4.288a12.337,12.337,0,0,1,.817-2.635c.426-.922,1.055-1.008,1.786-.281.36.363.622.661,1.208.606a2.88,2.88,0,0,1,3.049,1.986c.727,1.638,1.4,3.3,2.056,4.972a15.538,15.538,0,0,0,4.112,6.371,7.87,7.87,0,0,1,1.615,2.037,11.225,11.225,0,0,0,5.066,4.214,11.4,11.4,0,0,0,3.819.692c3.178.328,6.383.446,9.538.915a19.083,19.083,0,0,1,9.987,5.191c1.849,1.673,3.842,3.19,5.68,4.874a9.865,9.865,0,0,0,3.917,2.549c1.294.36,2.615.633,3.928.934a13.333,13.333,0,0,1,1.434.293,2.32,2.32,0,0,0,2.424-.285,1.958,1.958,0,0,1,2.959.641,9.718,9.718,0,0,1,.622,1.247,6.559,6.559,0,0,1,.907-.192,2.137,2.137,0,0,1,2.353,2.689c-.192.848-.493,1.669-.7,2.345.555.618,1.306,1.1,1.435,1.7a3.976,3.976,0,0,1-.43,2.306c-1.177,2.521-3.436,3.6-5.766,4.206-.746,1.5-1.4,2.924-2.158,4.288a2.032,2.032,0,0,1-1.114.817c-.219.07-.852-.356-.829-.477.289-1.63-1.1-2.607-1.407-4.3a5.552,5.552,0,0,0-.531.9c-.543,1.763-1.227,2.357-2.814,2.392a3.181,3.181,0,0,1-3.135-2.377,23.276,23.276,0,0,1-.457-2.65c-3.244.786-6.7.715-9.913,1.951a7.551,7.551,0,0,0-1.474.684A23.01,23.01,0,0,1,442,292.808c-.16.023-.313.07-.649.148-.07.625-.149,1.306-.242,2.107.489.063.9.145,1.309.156,4.675.145,9.35.324,14.025.395,6.2.1,12.4.113,18.6.16a6.984,6.984,0,0,0,.809-.059,7.424,7.424,0,0,1,3.846.113,3.4,3.4,0,0,0,1.134.066c4.9.1,9.792.188,14.69.3q11.24.246,22.48.52c2.119.051,4.233.18,6.352.235,1.235.031,1.364-.106,1.669-1.29a3.009,3.009,0,0,0,.113-.641c.027-.7.035-1.411.055-2.314-1.255-.657-2.568-1.4-3.932-2.044a12.156,12.156,0,0,1-4.026-2.689c-.981-1.067-2.193-1.919-3.252-2.916a16.439,16.439,0,0,1-3.639-5.371c-1.067-2.377-2.083-4.781-3.068-7.192a20.727,20.727,0,0,1-.661-2.377c-.481.289-.923.6-1.4.833a2.62,2.62,0,0,1-3.94-2.506,19.078,19.078,0,0,1,.68-3.217,5.876,5.876,0,0,0-3.518.395,1.426,1.426,0,0,1-1.716-.16c-.215-2.424,1.528-3.76,3.018-5.214a7.96,7.96,0,0,1,.966-7.548c1.122-1.54,2.06-1.7,3.784-.606.508-.52,1.016-1.087,1.571-1.6,1.591-1.47,3.111-1.091,3.862.938.059.148.137.289.2.422,3.186.09,3.088.547,3.518,2.943,1.826,1.677,3.448,3.19,5.089,4.675a9.024,9.024,0,0,0,1.54,1.192,4.713,4.713,0,0,0,4.663.016,13.659,13.659,0,0,1,9.057-1.114,17.563,17.563,0,0,1,4.851,1.822,11.006,11.006,0,0,0,10.3.461,9.516,9.516,0,0,1,2.3-.794,15.113,15.113,0,0,0,6.747-3.1c1.278-.923,2.548-1.861,3.842-2.764,2.013-1.4,2.865-1.415,4.882-.117a.5.5,0,0,0,.152,0c1.829-.516,2.353-.063,1.822,1.782-.422,1.454-1.044,2.85-1.6,4.265C568.094,261.627,567.836,262.108,567.547,262.729Z" transform="translate(-407.739 -237.364)" fill="#002675"/>
    <path id="Path_4065" d="M425.9,255.1a5.619,5.619,0,0,0-2.552,1.208c-.618.614-1.642.293-2.486.012q-2.363-.786-4.737-1.532c-.438-.141-.9-.219-1.669-.4.52-.317.762-.6.989-.582a9.836,9.836,0,0,1,4.237.962,3.455,3.455,0,0,0,2.549.559c-.794-.379-1.646-.79-2.5-1.2l.063-.317a6.842,6.842,0,0,1,1.016-.109c1.462.051,2.928.121,4.39.2.664.035,1.239.184.868,1.075a.891.891,0,0,0-.168.125" transform="translate(-388.204 -189.868)" fill="#002675"/>
    <path id="Path_4066" d="M452.486,266.072c-.109,1.521-.129,1.47-1.317,1.9a5.723,5.723,0,0,0-1.974,1.087c-1.739,1.638-3.393,3.37-5.125,5.117a5.445,5.445,0,0,0,.36.708c1.962,2.678,3.971,5.316,5.875,8.029.876,1.243,1.786,2.31,3.444,2.463.051.618.094,1.145.156,1.915-2.5.09-4.929.2-7.36.254-1.141.027-2.283-.113-3.42-.059-1.055.051-1.657-.336-1.833-1.36.063-.113.086-.254.164-.289,1.634-.786,1.724-1.079.7-2.505-.981-1.364-1.982-2.717-3.084-4.229q-3,3.278-5.766,6.3a1.936,1.936,0,0,0,.063.332c.239.449.766.977.668,1.325-.235.8-1.079.512-1.693.524-1.251.023-2.5,0-3.749-.016a3.446,3.446,0,0,1-1.122-.137c-.536-.2-.539-.637-.234-1.056a1.148,1.148,0,0,1,.52-.379c1.962-.657,3.158-2.255,4.507-3.659,1.693-1.763,3.338-3.569,5.085-5.445-1.364-1.982-2.779-3.9-4.042-5.91a7.265,7.265,0,0,0-4.538-3.6c.1-.657.188-1.224.285-1.861l10.785.234c.7,1.012-.106,1.528-.731,2.295l3.127,3.924a22.741,22.741,0,0,0,3.1-3.33,1.571,1.571,0,0,0,.192-1.689,3.074,3.074,0,0,1-.047-1.04l7,.152" transform="translate(-351.62 -155.446)" fill="#002675"/>
    <path id="Path_4067" d="M418.1,286.776c-.3-.911-.34-1.489.688-1.865a2.149,2.149,0,0,0,1.392-1.868c.141-1.568.367-3.131.371-4.7.008-2.6-.278-5.21-.156-7.8.086-1.927-.52-3.143-2.322-3.772a2.039,2.039,0,0,1-.446-.317,1.16,1.16,0,0,1,1.384-1.177c3.8.117,7.595.27,11.4.324,2.224.031,4.448-.1,6.672-.145.641-.016,1.278.023,2.068.039l-.207,9.377c-.43.02-.88.035-1.384.059-.3-1.157-.563-2.2-.852-3.244-.156-.575-.344-1.141-.543-1.7a2.556,2.556,0,0,0-2.642-1.978c-1.251.035-2.5-.043-3.745.031-1.2.074-1.732.536-1.786,1.7-.094,1.935-.043,3.882-.051,5.777,2.267.406,3.178.027,4.179-1.642.25-.418.379-.911.653-1.309.164-.238.5-.36,1.04-.727.09,3.268.586,6.156.285,9.084-.016.16-.4.281-.692.481-.324-.723-.6-1.356-.9-1.986-.95-2.068-1.81-2.451-4.108-1.876-.035,1.732-.176,3.455-.055,5.164.039.586.676,1.18,1.149,1.673a5.241,5.241,0,0,0,1.27.731c.082.539.16,1.075.254,1.7-1.352.438-2.764.1-4.147.133-1.462.039-2.932-.043-4.4-.074-1.407-.027-2.814-.059-4.37-.094" transform="translate(-378.96 -156.172)" fill="#002675"/>
    <path id="Path_4068" d="M435.864,265.708l-.035,1.681a3.624,3.624,0,0,0-1.743,3.42c0,3.913-.031,7.829-.184,11.738a3.163,3.163,0,0,0,1.438,3.166c.629.406.586.469.461,1.591l-11.926-.262a1.155,1.155,0,0,1,.336-1.579,4.24,4.24,0,0,0,1.388-3.2c.145-3.584.3-7.169.395-10.753a5.052,5.052,0,0,0-2.33-4.171c.047-.559.1-1.2.156-1.9l12.043.266" transform="translate(-361.414 -155.688)" fill="#002675"/>
    <path id="Path_4069" d="M446.359,268.7l.051-2.412a10.4,10.4,0,0,0,2.025-.989c2.377-1.954,4.695-3.979,7-5.949a2.118,2.118,0,0,1-.625,2.427c-2.271,2.083-4.581,4.132-6.9,6.16a7.949,7.949,0,0,1-1.548.762" transform="translate(-295.397 -173.412)" fill="#002675"/>
    <path id="Path_4070" d="M429.563,279.193h0a2.491,2.491,0,0,0,2.779-2.119,3.46,3.46,0,0,0-2.439-3.088,3.17,3.17,0,0,0-2.959,2.924c-.02,1.329,1.016,2.232,2.619,2.283m.141,1.04c-2.345-.109-4.006-1.571-4.01-3.409,0-1.7,2.013-4.222,4.312-4a4.41,4.41,0,0,1,3.8,4.155A3.675,3.675,0,0,1,429.7,280.233Z" transform="translate(-355.512 -134.259)" fill="#002675"/>
    <path id="Path_4071" d="M424.931,248.689a1.8,1.8,0,0,1,.43.172c.383.317.727.684.332,1.177a.726.726,0,0,1-.692.035c-.559-.36-.536-.821-.07-1.384" transform="translate(-358.744 -204.42)" fill="#002675"/>
    <path id="Path_4072" d="M434.567,243.076c-.5.313-.794.641-1.044.614-.274-.027-.516-.383-.77-.6.238-.156.469-.43.719-.45s.539.2,1.094.434" transform="translate(-334.975 -222.014)" fill="#002675"/>
    <path id="Path_4073" d="M437.942,282.039a19.137,19.137,0,0,0,7.677-2.431c2-1.052,4.175-1.771,6.278-2.623a1.631,1.631,0,0,1,.485-.055,2.286,2.286,0,0,0,2.158-1.106c.383-.676,1.239-1.075,1.552-2.009-.864.031-1.681.668-2.15-.41a3.576,3.576,0,0,1,2.392-2.255,1.214,1.214,0,0,0,1.055-1.235c-1.083-.1-2.322.973-3.151-.684l2.541-1.954c-.7-.571-1.916-.285-2.048-1.462.629-1.337,1.982-.68,3.057-.977-.731-1.364-2.3-1.872-2.685-3.35l.821-.6c-1.759-1.724-3.4-3.389-5.1-4.988a15.782,15.782,0,0,0-9.061-4.456c-3.4-.4-6.809-.637-10.2-1.044a11.566,11.566,0,0,1-7.282-4.272c-1.36-1.54-2.494-3.28-3.725-4.933-.3-.406-.629-.758-1.251-.532-.891,1.243.727,2.529.02,3.932-1.1-.817-1.5-2.314-3.092-2.467a4.252,4.252,0,0,0,.234,4.116c2.056-.141,3.076.45,3.831,2.365-.59-.5-.958-.86-1.368-1.157-.485-.348-.989-.727-1.642-.379-.7.375-.719,1-.621,1.693.1.661.156,1.329.231,1.994a2.722,2.722,0,0,1-1.306-2.842,4.464,4.464,0,0,0-1.016-3.42c-.133-.211-.5-.27-.868-.457a8.062,8.062,0,0,0-.137,1.091c.012,1.032.035,2.068.1,3.1.035.6-.231.762-.747.739l-1.13-2.33a5.546,5.546,0,0,0-.2,4.562c1.349-1.212,1.474-1.263,2.2-.9a2.489,2.489,0,0,1,1.391,2.525l-1.8-1.958c-1.173,2.08-.887,4.069-.672,6.113-.821-.563-.821-.563-1.259-1.829-.524-1.5-.985-1.845-2.533-1.861-.109,2.259.289,3.315,1.876,5.34,1.169,1.5,2.427,2.986,2.767,4.91a3.439,3.439,0,0,0,1.028,1.954,28.038,28.038,0,0,0,12.766,7.525,10.759,10.759,0,0,0,6.883-.235,6.984,6.984,0,0,0,4.777-7.9,13.557,13.557,0,0,1,.027-1.556,3.327,3.327,0,0,1,2.224,2.783,6.1,6.1,0,0,1-1.337,4.738,10.962,10.962,0,0,1-9.366,4.413,20.949,20.949,0,0,1-9.03-2.56A31.826,31.826,0,0,1,412.769,266a8.606,8.606,0,0,0-.747-.653,43.607,43.607,0,0,0,2.107,7.231,8.252,8.252,0,0,0,4.186,4.8q3.272,1.431,6.536,2.9c4.19,1.9,8.6,2.072,13.091,1.759" transform="translate(-404.344 -227.971)" fill="#6bc4e8" fill-rule="evenodd"/>
    <path id="Path_4074" d="M417.865,249.668a5.236,5.236,0,0,1,.618-1.685c.321-.375.958-.477,1.341-.649-.551-1.126-1.106-2.177-1.579-3.26-.676-1.544-1.267-3.123-1.943-4.667-.266-.614-.532-1.313-1.548-1.392-.012.645-.023,1.22-.039,1.794-.031,1.087-.035,2.177-.129,3.26a.859.859,0,0,1-.578.614.892.892,0,0,1-.661-.539,15.811,15.811,0,0,1-.281-1.931c-.082-.594-.152-1.188-.262-1.775-.1-.528-.239-1.044-.36-1.564l-.41.031c-.313,2.193-.688,4.386-.9,6.59a7.4,7.4,0,0,0,.485,2.189c.023.106.086.234.047.317-.117.274-.215.672-.43.758a1,1,0,0,1-.852-.219,2.3,2.3,0,0,1-.4-.852l-.614-1.587a9.271,9.271,0,0,0,1.427,8.815l1.407-.266c.082-1.2.121-2.318,1.38-2.9a14.974,14.974,0,0,1-.524-1.736,4.367,4.367,0,0,1-.035-1.607c.258-1.173,1.04-1.489,2.068-.883a3.765,3.765,0,0,1,1.81,2.22c.16.539.332,1.04.965.926" transform="translate(-404.5 -235.877)" fill="#6bc4e8" fill-rule="evenodd"/>
    <path id="Path_4075" d="M410.343,247.752c.066-3.639-.141-4.62-1.2-5.449-.688,1.56-.039,2.873.258,4.19.086.383.5.692.946,1.259" transform="translate(-404.553 -222.996)" fill="#6bc4e8" fill-rule="evenodd"/>
    <path id="Path_4076" d="M410.211,240.435l.609,3.8,1.447-2.427-1.661-1.583Z" transform="translate(-400.547 -229.03)" fill="#6bc4e8" fill-rule="evenodd"/>
    <path id="Path_4077" d="M427.913,252.6c.106,2.158-.938,3.94-1.5,6.008,2.091-.942,3.733-2.134,4.311-4.394-2.185-.88-2.271-1.083-1.54-3.4.215-.688.391-1.384.618-2.189a3.31,3.31,0,0,0-.735.078c-1.818.883-1.872.864-2.654-1.024-.043-.1-.063-.207-.106-.309-.34-.762-.77-.528-1.356-.086,1.2,1.7,2.857,3.022,2.967,5.32" transform="translate(-357.685 -209.708)" fill="#fff" fill-rule="evenodd"/>
    <path id="Path_4078" d="M424.73,254.884a4.36,4.36,0,0,0-.067-5.418c-.531.192-1.27.246-1.665.645-.922.915-.793,3.721.082,4.726a1.008,1.008,0,0,0,1.65.047" transform="translate(-365.2 -202.16)" fill="#fff" fill-rule="evenodd"/>
    <path id="Path_4079" d="M424.568,250.021l-.074,3.409c1.31-1.575,1.329-2.83.074-3.409" transform="translate(-358.999 -200.546)" fill="#d64123" fill-rule="evenodd"/>
    <path id="Path_4080" d="M425.8,253.6c.3-2.4-.309-3.557-2.283-4.159Z" transform="translate(-361.844 -202.236)" fill="#d64123" fill-rule="evenodd"/>
    <path id="Path_4081" d="M425.971,249.266c.383.317.727.684.332,1.177a.726.726,0,0,1-.692.035c-.559-.36-.536-.821-.07-1.384a1.878,1.878,0,0,1,.43.172m-1.595.594a1.635,1.635,0,0,0,1.5,1.622c.641.035,1.3-.778,1.3-1.587a1.335,1.335,0,0,0-1.138-1.345A1.918,1.918,0,0,0,424.376,249.86Z" transform="translate(-359.355 -204.825)" fill="#6bc4e8" fill-rule="evenodd"/>
    <path id="Path_4082" d="M434.16,257.982c1.872,3.522,3.311,7.161,6.227,10.061,3.115,3.092,6.981,4.718,10.816,6.477a8.362,8.362,0,0,0,2.228.457c2.467.375,4.941.731,7.411,1.094a7.216,7.216,0,0,0,3.827-.41c3.534-1.411,6-4.147,8.811-6.825-.688.074-1.216.113-1.735.184-2.474.336-4.921.9-7.45.641a33.372,33.372,0,0,0-3.588-.156c-4.151.023-7.095-2.138-9.432-5.281-1.739-2.338-.145-6.723,2.682-7.642.027-.012.082.059.176.125-.164.2-.336.379-.489.578-2.338,3-2.166,5.422.614,7.99a9.073,9.073,0,0,0,2.076,1.563,9.375,9.375,0,0,0,3.049.981,43.183,43.183,0,0,0,6.356.207c2.92-.152,5.852-.426,8.392-2.193a17.214,17.214,0,0,1,2.607-1.333c1.22-.571,2.474-1.075,3.686-1.661a3.323,3.323,0,0,0,1.63-2.091c-.121-.121-.184-.223-.277-.266a2.632,2.632,0,0,0-3.119.653c-.473.438-.919,1.1-1.79.782,2.65-4.182,2.65-4.182,2.349-5.551l-2.662.805a3.117,3.117,0,0,1,3-1.5c1.13.035.9,1.141,1.2,1.943a5.372,5.372,0,0,0,2.369-4.01l-2.208,1.38c-.555-.27-.578-.582-.242-1.04.649-.872,1.274-1.763,1.861-2.678a3.4,3.4,0,0,0,.254-1.024,4.077,4.077,0,0,0-3.44,2.259,2.955,2.955,0,0,1-2.756,1.857c.52-.645,1-1.227,1.47-1.818a1.112,1.112,0,0,0,.133-1.489,2.113,2.113,0,0,0-1.266-.543,10.488,10.488,0,0,0-1.915.184c1.446-1.122,2.556-1.071,4.5.125,1.149-.852,2.185-1.79,2.236-3.479-1.435-.524-2.576.4-3.909.582.106-1.622,2.306-1.845,2.064-3.643a3.384,3.384,0,0,0-1.087-.008c-1.693.586-3.385,1.169-5.035,1.857a11.541,11.541,0,0,1-7.626.664,17.5,17.5,0,0,1-3.87-1.657,16.337,16.337,0,0,0-5.9-1.759,9.956,9.956,0,0,0-6.7,1.521c-.637.395-1.313.727-2.056,1.138-.246,1.747-2.087,1.61-3.3,2.369.207.422.418.794.571,1.184.422,1.063,0,1.689-1.165,1.661a12.684,12.684,0,0,1-1.693-.278l.723,2.021a1.51,1.51,0,0,1-2.126.176c-.645-.426-1.345-.766-2.154-1.216-.02.856-.047,1.45-.039,2.044,0,.508.016,1.091-.6,1.149a2.474,2.474,0,0,1-1.29-.4,4.841,4.841,0,0,1-.852-.805c-.754,1.364.418,3.194-1.532,4.046" transform="translate(-330.882 -220.128)" fill="#6bc4e8" fill-rule="evenodd"/>
    <path id="Path_4083" d="M449.292,246.43l-3.053,3.807c1.4.016,2.861-1.693,3.053-3.807" transform="translate(-295.746 -210.991)" fill="#6bc4e8" fill-rule="evenodd"/>
    <path id="Path_4084" d="M450.085,257.6c3.182-1.087,4.91-3.5,6.168-6.352l-.371-.36c-.524.453-1.032.923-1.571,1.356a.882.882,0,0,1-1.313-.02c-.453-.508-.055-.876.309-1.231a7.594,7.594,0,0,0,1.54-1.618c.848-1.638,1.548-3.35,2.279-5.046a4.491,4.491,0,0,0,.184-.985l-.356-.25a4.722,4.722,0,0,1-.407.711c-.86,1.048-1.708,2.111-2.635,3.1-.234.254-.727.266-1.1.387-.016-.391-.184-.864-.024-1.157.59-1.1,1.3-2.13,1.943-3.2a7.669,7.669,0,0,0,.418-.989,3.084,3.084,0,0,0-2.631.876l-6.551,4.534c1.212.747,1,1.822.18,2.99.4.035.637.125.813.055a3.622,3.622,0,0,0,.79-.508,3.9,3.9,0,0,1,3.08-.743.977.977,0,0,1,.915,1.274,5,5,0,0,1-.864,1.7,11.689,11.689,0,0,1-1.493,1.36c1,1.227-.051,2.22-.383,3.26Z" transform="translate(-296.543 -224.037)" fill="#6bc4e8" fill-rule="evenodd"/>
    <path id="Path_4085" d="M446.6,246.881a7.965,7.965,0,0,0,2.474-2.861,3.151,3.151,0,0,0-2.525.59Z" transform="translate(-294.856 -218.134)" fill="#6bc4e8" fill-rule="evenodd"/>
    <path id="Path_4086" d="M436.212,244.9c-1.223-1.575-2.869-1.485-4.354.184Z" transform="translate(-337.578 -218.712)" fill="#d64123" fill-rule="evenodd"/>
    <path id="Path_4087" d="M431.2,245.847l3.553-2.048c-.766-.536-1.325-.555-1.845-.164a3.491,3.491,0,0,0-1.708,2.212" transform="translate(-339.495 -219.903)" fill="#d64123" fill-rule="evenodd"/>
    <path id="Path_4088" d="M435.149,243.719c-.5.313-.794.641-1.044.614-.274-.027-.516-.383-.77-.6.238-.156.469-.43.719-.45s.539.2,1.094.434m-2.6.231a1.5,1.5,0,0,0,1.54,1.325c.794-.027,1.149-.457,1.161-1.4s-.332-1.407-1.09-1.45A1.72,1.72,0,0,0,432.554,243.95Z" transform="translate(-335.557 -222.657)" fill="#6bc4e8" fill-rule="evenodd"/>
    <path id="Path_4089" d="M430.206,262.487a1.165,1.165,0,0,0-1.032-1.388c-.418-.109-.852-.152-1.145-.2-1.966-.059-5.082,2.349-5.484,4.136-.352,1.575.063,2.377,1.6,3.057a6.566,6.566,0,0,0,.743.324,3.958,3.958,0,0,0,4.124-.637c1.063-.954,1.888-2.064,1.263-3.682a3.519,3.519,0,0,1-.066-1.607" transform="translate(-365.012 -168.915)" fill="#6bc4e8" fill-rule="evenodd"/>
    <path id="Path_4090" d="M426.8,261.629a7.941,7.941,0,0,0-1.9,4.057,3.151,3.151,0,0,0,1.524,3.62,16.414,16.414,0,0,0,2.74,1.141,6.021,6.021,0,0,0,6.125-6.512,2.28,2.28,0,0,0-.723-1.415,14.356,14.356,0,0,0-2.623-1.845,4.05,4.05,0,0,0-5.144.954" transform="translate(-358.09 -171.114)" fill="#6bc4e8" fill-rule="evenodd"/>
    <path id="Path_4091" d="M428.558,262.164a14.3,14.3,0,0,1-.723,3.311,2.337,2.337,0,0,0,.469,2.541,3.086,3.086,0,0,0,2.576,1.157,5.2,5.2,0,0,0,4.683-3.229,1.51,1.51,0,0,0,.109-.637c-.313-2.818-3.037-5.4-6.168-4.28a1.224,1.224,0,0,0-.946,1.138" transform="translate(-349.84 -169.312)" fill="#6bc4e8" fill-rule="evenodd"/>
    <path id="Path_4092" d="M428.972,273.111a3.17,3.17,0,0,0-2.959,2.924c-.02,1.329,1.016,2.232,2.619,2.283a2.491,2.491,0,0,0,2.779-2.119,3.46,3.46,0,0,0-2.439-3.088" transform="translate(-354.581 -133.384)" fill="#6bc4e8" fill-rule="evenodd"/>
    <path id="Path_4093" d="M435.816,279.607a3.477,3.477,0,0,0-1.028-5.472,2.594,2.594,0,0,1-.539-.36c-1.833-1.865-6.086-1.892-8.068.414a2.54,2.54,0,0,0-.637,2.779,7.637,7.637,0,0,1,.461,2.025,7.7,7.7,0,0,0,1.528,3.8c.711,1.106,1.962,1,2.971,1.122a4.293,4.293,0,0,0,4.257-2.537,9.667,9.667,0,0,1,1.055-1.775m-1.067-1.485a3.675,3.675,0,0,1-4.1,3.256c-2.349-.109-4.006-1.571-4.01-3.409,0-1.7,2.009-4.222,4.312-4A4.41,4.41,0,0,1,434.748,278.122Z" transform="translate(-356.46 -135.404)" fill="#6bc4e8" fill-rule="evenodd"/>
    <path id="Path_4094" d="M464.668,288.484l.577-11.928.1-3.938.023-4.481L449.2,277.614l14.028-4.459-9.72,8.3,10.109-3.788-12.893,11.044,12.9-6.934L447.81,296.789,463.3,286.624l-18.62,19.334Z" transform="translate(-300.279 -147.849)" fill="#6bc4e8" fill-rule="evenodd"/>
</svg>
