<svg xmlns="http://www.w3.org/2000/svg" width="72.225" height="98.424" viewBox="0 0 72.225 98.424">
    <g id="icon" transform="translate(-146.765 -940.803)">
        <rect id="Rectangle_1438" width="18.294" height="8.853" transform="translate(174.964 966.158)" fill="#52b9e4"/>
        <path id="Path_2389" d="M177.545,978.68c-.121-.191.187-2.784.183-3.455-.014-1.7.509-3.727-.114-5.419-.308-.834-.292-1.031.765-1.335.678-.194,3.661-.474,3.887-1.281.36-1.281-1.028-1.431-1.973-2.041-2.621-1.686-3.824-1.4-6.578-1.4a9.468,9.468,0,0,1-1.7.482c-.444,0-1.078-.7-1.377-.482-2.419,1.748-1.251.426-4.8.426a2.542,2.542,0,0,0-2.794,1.662c-.215.5.6.868,1.1,1.3,1.662,1.422,7.322,1.155,7.838,1.87,1.075,1.489.863,1.116.65,2.913-.065.538-.175,5.94-.089,6.186a7.409,7.409,0,0,1,.325,2.71c-.173.563-.166,2.789-.292,3.68a1.886,1.886,0,0,0,0,.465c-.117.568-.019,1.933-.131,2.739-.14,1,.089,2.684-.1,3.866a16.2,16.2,0,0,1-.224,2.088c-.005.016-.1,1.291-.166,1.59-.056.255.147.848-.309.246-.255-.335-.617-1.964-1.627-1.672-.43.124.136.83-.549.337-.412-.3-1.877-.862-1.877.267,0,.979.55.945.987,2,.079.19-.615.828-.395,1.419.329.879.585,1.08.882,1.763.1.245-1.372.919.608,2.429.51.388.554.232.793.975a4.774,4.774,0,0,1,.584,1.049c.211.772.432,1.131.005,1.826-.126.206-1.475.346-1.5.365-.377.3,0,.463.322.6.79.339,3.729.3,4.766.362.7.044,2.808.171,3.326-.152.115-.073.71-.358.724-.444.433-.15,1.229.246,1.325.093.191-.309,12.852.54,13.991-.328.1-.081-4.212-2.008-4.241-2.09-.11-.32-2.226-.056-4.482-.171-3.063-.159-6.316-1.7-6.326-1.927a13.605,13.605,0,0,0-.255-2.754c-.107-.406.112-2.3.112-2.96,0-1.484-.2-3.469.491-4.8a3.628,3.628,0,0,0-.189-3.832c-1-1.269-.5-2.932-.641-4.5-.087-.966.2-2.717-.493-3.273a1.926,1.926,0,0,1-.446-1.4" transform="translate(12.145 17.122)" fill="#52b9e4" fill-rule="evenodd"/>
        <path id="Path_2390" d="M185.407,957.406h0c-.2,0-.3,0-.405,0-1.922,0-3.843,0-5.765-.014q-2.267-.013-4.535-.047c-1.337-.021-2.672-.058-4.009-.084-.648-.014-1.3-.031-1.945-.021a4.939,4.939,0,0,0-.764.135c.028,2.667-.054,5.265.107,7.932,1.961.031,3.836.07,5.711.089s3.761-.021,5.639.028,3.731.171,5.681.266c-.107-2.8.482-5.491.285-8.283m-9.365,14.8c0-1.145-.012-2.221.005-3.3.01-.647.089-1.291.1-1.938a2.973,2.973,0,0,0-.157-.877c-.033-.11-.2-.18-.412-.353a6.239,6.239,0,0,0-.148.827c-.045,1.662-.075,3.322-.115,4.984-.01.386-.04.771-.061,1.166a1.106,1.106,0,0,1-.283.073,37.845,37.845,0,0,0-5.678.292,7.292,7.292,0,0,0-3.032.858,1.354,1.354,0,0,1-.62.148c-1.035.014-2.069.007-3.112.007a1.806,1.806,0,0,1-.115-.495c.189-1.8.119-3.612.178-5.419.04-1.229.005-2.459,0-3.688,0-.606.068-.743.676-.771.708-.033,1.421.044,2.132.047.554,0,1.111-.026,1.665-.057.093-.005.178-.1.3-.177a.935.935,0,0,0-.82-.313c-1.012-.031-2.027-.023-3.041-.04-.232,0-.463-.059-.7-.065-.839-.021-1.678-.019-2.518-.046-1.159-.035-2.316-.089-3.541-.136a12.142,12.142,0,0,0,.075-1.344,4.875,4.875,0,0,1,.739-2.691c1.031-1.868,1.964-3.79,3-5.814.285-.01.708-.038,1.129-.038.624,0,1.249.007,1.873.033.818.035,1.636.091,2.454.142.388.024.774.061,1.16.086.762.045.952.239.956.987,0,.772,0,1.545,0,2.3.559.15.619.122.634-.309.025-.711.033-1.424.052-2.137.018-.629.093-.683.724-.683.8,0,1.6,0,2.4-.051a21.827,21.827,0,0,1,4.456.133c.276.038.561,0,.841.019,1.2.066,2.4.14,3.654.213v2.368c.168.012.308.025.53.04.01-.255.028-.482.023-.708-.007-.453-.028-.907-.042-1.36a.441.441,0,0,1,.479-.491c1.136-.056,2.272-.126,3.408-.143.82-.014,1.639.072,2.457.066,1.036-.007,2.071-.072,3.105-.094a13.8,13.8,0,0,1,1.421.035,1.518,1.518,0,0,1,1.477,1.686c-.049,2.331-.093,4.664-.15,7a8.162,8.162,0,0,1-.149,1c-.806.051-1.554.108-2.3.138a7.188,7.188,0,0,0-1.65.269,4.618,4.618,0,0,1-1.393-.028c-.575-.03-1.15-.065-1.756-.1v.638c.309,0,.584-.005.86,0,.62.012,1.008.309,1.028.909.049,1.616.054,3.233.068,4.851.007.8-.049,1.6.01,2.394a2.052,2.052,0,0,1-.259,1.386,10.812,10.812,0,0,0-3.023-.767,1.935,1.935,0,0,0-.386-.031,40.493,40.493,0,0,1-4.2-.1,4.426,4.426,0,0,1-2.336-.442A3.323,3.323,0,0,0,176.042,972.208Z" transform="translate(7.457 9.156)" fill="#001d63"/>
        <path id="Path_2391" d="M155.749,952.947c-.414-.351-.734-.636-1.07-.9-.4-.318-.818-.624-1.229-.931-.052-.039-.117-.058-.171-.093-.575-.36-.626-.554-.206-1.071a5.13,5.13,0,0,1,.907-.919c.849-.627,1.73-1.215,2.6-1.809.945-.643,1.907-1.267,2.847-1.919a13.16,13.16,0,0,1,3.474-1.852,21.123,21.123,0,0,1,2.445-.582,2.407,2.407,0,0,1,.825.113c.231.044.458.107.7.164.135-.2.25-.377.376-.55a1.9,1.9,0,0,1,1.162-.765c.862-.191,1.716-.418,2.585-.561.786-.131,1.59-.147,2.378-.255a32.025,32.025,0,0,1,7.684.058,33.451,33.451,0,0,1,4.281.645,7.84,7.84,0,0,1,2.539,1.248.532.532,0,0,1,.243.669c-.035.1-.04.213-.077.314a52.243,52.243,0,0,0-1.316,5.068,13.553,13.553,0,0,1-.889,2.5,1.61,1.61,0,0,1-1.693.911c-1.959-.1-3.923-.117-5.886-.129-.949-.005-1.9.08-2.847.115a3.008,3.008,0,0,1-.71-.042,1.61,1.61,0,0,1-1.337-.963c-.5-1.193-1.057-2.366-1.639-3.523-.662-1.309-1.361-2.6-2.073-3.885a1.248,1.248,0,0,0-1.7-.6,6.15,6.15,0,0,0-1.111.508c-1.76,1.052-3.546,2.069-5.253,3.205-1.344.895-2.614,1.908-3.866,2.934a6.1,6.1,0,0,0-1.98,2.9" transform="translate(4.509 0)" fill="#001d63"/>
        <path id="Path_2392" d="M175.666,942.1a8.631,8.631,0,0,1,1.354.4q2.472,1.119,4.909,2.317a27.672,27.672,0,0,1,2.613,1.417c.909.573,1.767,1.23,2.628,1.875a3.522,3.522,0,0,1,.61.666,1.166,1.166,0,0,1-.033,1.786c-.678.781-1.372,1.55-2.088,2.3a37.752,37.752,0,0,0-3.278,3.574c-.367.5-.571.533-1.1.224-.668-.395-1.283-.886-1.966-1.248-1.641-.861-3.315-1.657-4.961-2.509-.666-.346-1.3-.752-1.931-1.162a.849.849,0,0,1-.308-1.127c.549-1.564,1.056-3.146,1.578-4.72.026-.082.04-.168.065-.25.29-1.014.58-2.029.877-3.041.079-.274.51-.507,1.029-.494" transform="translate(18.886 0.967)" fill="#001d63"/>
        <path id="Path_2393" d="M184.942,946.6a3.633,3.633,0,0,1,1.7,1.274,26.137,26.137,0,0,1,2.752,4.285c-.627.031-1.194-.666-1.823-.086.484.18.9.343,1.319.488a2.792,2.792,0,0,1,1.6,1.5c.725,1.445,1.506,2.862,2.221,4.313a10.425,10.425,0,0,1,.592,1.707c.136.463.086.545-.4.692-1.094.329-2.193.638-3.292.947-1.515.426-3.037.825-4.545,1.279a.778.778,0,0,1-.958-.276c-.185-.24-.377-.472-.55-.72-1.153-1.669-2.288-3.35-3.46-5.005-.486-.687-1.069-1.3-1.578-1.971a9.714,9.714,0,0,1-.591-1c2.492-2.412,4.774-4.881,7.018-7.427" transform="translate(23.293 4.336)" fill="#001d63"/>
        <path id="Path_2394" d="M171.377,950.443a2.461,2.461,0,0,1-.343.664,12.815,12.815,0,0,1-1.414,1.218c-1.019.729-2.05,1.44-3.107,2.108a10.977,10.977,0,0,0-2.329,2.015c-.173.194-.334.4-.523.575a1.179,1.179,0,0,1-1.63.063c-1.615-1.225-3.229-2.454-4.86-3.656-.589-.435-1.225-.806-1.84-1.206-.564-.367-.6-.491-.3-1.108a5.389,5.389,0,0,1,1.51-1.919c1.19-.93,2.361-1.894,3.626-2.712,1.845-1.194,3.769-2.268,5.655-3.4.22-.133.409-.314.62-.46a.545.545,0,0,1,.809.058c.128.11.271.2.395.316a1.158,1.158,0,0,1,.267.311c.928,1.922,1.845,3.85,2.77,5.774.056.115.161.206.217.32.166.339.318.683.481,1.038" transform="translate(6.038 1.248)" fill="#001d63"/>
        <path id="Path_2395" d="M157.375,948.028c.495.346.926.627,1.335.938q2.755,2.094,5.5,4.206c.17.131.332.276.495.418.486.419.472.416.28,1.042a32.463,32.463,0,0,1-2.836,6.225c-.377.676-.713,1.381-1.143,2.022-.409.612-.68.659-1.381.454-2.027-.591-4.054-1.187-6.083-1.772-.414-.119-.841-.194-1.26-.29a6.19,6.19,0,0,1-.692-.168.759.759,0,0,1-.6-.982,3.383,3.383,0,0,1,.271-.862c.959-2.052,1.891-4.117,2.917-6.136.535-1.054,1.239-2.022,1.873-3.025.425-.673.856-1.34,1.325-2.071" transform="translate(3.141 5.401)" fill="#001d63"/>
        <path id="Path_2396" d="M149.948,970.995a20.467,20.467,0,0,1-.276-2.036c-.066-2-.082-4.013-.117-6.019,0-.107,0-.215,0-.323.023-.543.066-.594.6-.594s1.08.021,1.618.023l12.689.051a8.07,8.07,0,0,1,.968.04c.474.059.643.238.526.694a7.475,7.475,0,0,1-.694,2c-.8,1.326-1.721,2.583-2.6,3.86-.294.427-.626.825-.923,1.248a2.123,2.123,0,0,1-1.889.987c-3.02-.014-6.041.042-9.061.072-.236,0-.47,0-.837,0" transform="translate(2.084 15.863)" fill="#001d63"/>
        <path id="Path_2397" d="M154.86,971.138c1.489,0,2.978-.005,4.469,0a1.161,1.161,0,0,1,1.321,1.305c-.03,2.525-.086,5.05-.133,7.574a2.872,2.872,0,0,1-.033.388,1.244,1.244,0,0,1-1.436,1.229c-2.634.009-5.269-.012-7.9.052-1.04.026-1.492-.318-1.632-1.454-.128-1.047-.147-2.108-.192-3.163-.035-.841-.052-1.683-.044-2.523.007-.9.018-1.811.093-2.711.052-.615.339-.795.956-.792,1.512.005,3.022,0,4.533,0v.091" transform="translate(1.877 22.607)" fill="#001d63"/>
        <path id="Path_2398" d="M160.291,993.645h-10.9a4.617,4.617,0,0,1-.086-.716c.044-1.942.1-3.885.157-5.826.028-.926.061-1.854.11-2.78.017-.318.093-.633.147-.979.206-.01.4-.028.585-.028q4.31,0,8.619.009h.194c1.325,0,1.844.557,1.8,1.961-.079,2.5-.287,4.991-.449,7.485a8.031,8.031,0,0,1-.171.875" transform="translate(1.895 31.78)" fill="#001d63"/>
        <path id="Path_2399" d="M173.782,979.414l-1.276-.212-.6-2.471-.108.016V979l-.851-.267c-.128-.9-.252-1.783-.377-2.669l-.149,0c-.045.753-.091,1.5-.143,2.352a10.174,10.174,0,0,1-1.066-.481.623.623,0,0,1-.191-.44c-.031-.432-.009-.865-.04-1.295a4.414,4.414,0,0,0-.232-1.134c-.259.8-.073,1.637-.267,2.509a4.533,4.533,0,0,1-1.164-.715.6.6,0,0,1-.133-.407c-.019-.453,0-.907-.024-1.359a7.949,7.949,0,0,0-.194-1.393,8.668,8.668,0,0,0-.316,2.688,2.853,2.853,0,0,1-1.194-.666c-.093-.065-.115-.267-.121-.409-.019-.411,0-.821-.021-1.23a7.537,7.537,0,0,0-.145-.828,5.219,5.219,0,0,0-.358,1.786c-.5-.577-1-1.026-1.029-1.781a3.223,3.223,0,0,0-.365-1.522c-.063.351-.1.589-.147.827-.409-.827-1.019-1.592-.612-2.677l-.388.178a13.233,13.233,0,0,1-.154-3.7c2.967,2,6.241,2.452,9.632,2.377.012-.049.024-.1.038-.147a3.521,3.521,0,0,0-.433-.108c-1.412-.171-2.831-.3-4.236-.512a10.212,10.212,0,0,1-4.088-1.54c-.091-.059-.18-.119-.267-.183-.526-.393-.47-.909.164-1.136a8.26,8.26,0,0,1,1.276-.245.993.993,0,0,0,.839.984,20.343,20.343,0,0,0,2.436.638c.933.168,1.882.255,2.828.336s1.884.108,2.894.163c-.031-.28-.051-.46-.072-.662l-2.024-.367.01-.147h1.531l-.587-.654a1.993,1.993,0,0,1,1.866,1.529,15.534,15.534,0,0,1,.28,4.189c-.026,1.186-.073,2.373-.133,3.56-.086,1.636-.19,3.27-.292,4.97" transform="translate(11.416 17.995)" fill="#ca2a18"/>
        <path id="Path_2400" d="M182.276,970.616c3.361-.049,6.6.388,9.935.119a5.136,5.136,0,0,1,.129.8c.014,2.094.035,4.187,0,6.281-.017,1.1-.142,2.2-.21,3.292-.021.32-.184.444-.489.482a21.4,21.4,0,0,1-4.514.159,21.4,21.4,0,0,0-2.193.054c-.641.014-1.288.061-1.926.012-.509-.037-.589-.159-.585-.668.005-1.057.04-2.113.068-3.17a43.931,43.931,0,0,0-.208-5.362c-.065-.657-.01-1.326-.01-2" transform="translate(26.531 22.283)" fill="#001d63"/>
        <path id="Path_2401" d="M154.551,987.353h-4.145c-.15,0-.3.007-.453-.007-.432-.044-.521-.121-.519-.571,0-.626.054-1.251.059-1.877.014-1.79.005-3.579.024-5.368.005-.538.058-1.077.108-1.613.045-.481.157-.582.666-.584,1.015,0,2.031.009,3.044.018q2.687.018,5.375.044a3.347,3.347,0,0,1,.577.051c.683.126.825.3.862.979.114,2.09.236,4.178.337,6.269a4.248,4.248,0,0,1-.189,1.789,1.219,1.219,0,0,1-1.277.865c-1.491-.014-2.98,0-4.47,0v.01" transform="translate(1.995 27.306)" fill="#001d63"/>
        <path id="Path_2402" d="M168.191,979.317h0l.15-.053c-.122-.69-.222-1.387-.383-2.069a1.032,1.032,0,0,0-.412-.542.5.5,0,0,0-.844.419,1.616,1.616,0,0,0,.15.732,4.908,4.908,0,0,0,1.339,1.512m-6.637-7.9c.175-.016.322-.04.47-.04,1.035,0,2.071.009,3.107,0a1.594,1.594,0,0,1,.956.315,23.438,23.438,0,0,0,5.837,3.021,14.689,14.689,0,0,0,1.828.365c.145.026.292.046.425.066a2.907,2.907,0,0,1,.234,1.522c-.065,1.354-.066,2.712-.073,4.07,0,.526-.217.774-.79.767-1.919-.021-3.836-.066-5.755-.082-1.573-.014-3.147,0-4.722,0-.259,0-.516-.016-.776-.019a.591.591,0,0,1-.624-.538,14.209,14.209,0,0,1-.243-1.854c-.047-1.381-.03-2.761-.059-4.142-.01-.58-.089-1.16-.1-1.741A4.041,4.041,0,0,1,161.554,971.414Z" transform="translate(10.839 22.853)" fill="#001d63"/>
        <path id="Path_2403" d="M167.478,947.385a5.007,5.007,0,0,0,3.345.582,14.415,14.415,0,0,1,2.754.26,3.758,3.758,0,0,1,.641.194c.031.086.063.126.059.164-.142,2.567.038,5.134.007,7.7,0,.231-.021.461-.037.778a8.961,8.961,0,0,1-1.117.016,43.623,43.623,0,0,0-5.756.016c-.884.016-1.769-.028-2.653-.051-.991-.026-1.984-.093-2.974-.082-.566.007-.919-.14-.958-.848-.056-1.013-.047-2.029-.077-3.044a.761.761,0,0,1,.364-.648c.806-.615,1.606-1.237,2.431-1.826s1.685-1.132,2.518-1.711a3.35,3.35,0,0,0,1.452-1.5" transform="translate(10.427 4.92)" fill="#001d63"/>
        <path id="Path_2404" d="M183.48,970.451c-.523-1.2-1.045-2.356-1.534-3.528-.6-1.45-1.174-2.917-1.765-4.376-.129-.32-.094-.484.232-.612a2.344,2.344,0,0,1,.814-.171c.582-.007,1.162.037,1.744.065.215.01.43.049.645.052,1.529.035,3.058.084,4.587.087,1.012,0,2.025-.086,3.037-.089.8,0,1.59.059,2.373.093a29.305,29.305,0,0,1-.051,8.287c-.643.045-1.309.058-1.964.149a20.629,20.629,0,0,1-4.063.051c-1.138-.066-2.284-.009-3.427-.007h-.629" transform="translate(24.928 15.669)" fill="#001d63"/>
        <path id="Path_2405" d="M160.718,966.309c-1.129,0-2.163,0-3.2,0q-2.755,0-5.51.014c-.474,0-.949.037-1.423.063-.514.028-.8-.142-.849-.655a9.057,9.057,0,0,1-.059-2.256c.308-1.915.718-3.817,1.11-5.718a11.125,11.125,0,0,1,.407-1.3c.26-.769.564-.917,1.375-.673.97.294,1.938.6,2.91.893,1.547.472,3.1.933,4.643,1.415,1.464.458,1.555.752,1.326,2.027-.168.933-.356,1.863-.481,2.8-.1.769-.126,1.548-.182,2.322-.023.32-.04.638-.068,1.059" transform="translate(2.137 11.121)" fill="#001d63"/>
        <path id="Path_2406" d="M192.437,966.162a5.542,5.542,0,0,1-1.045-.01,10.375,10.375,0,0,0-3.28-.035,13.461,13.461,0,0,1-1.613.091c-1.337-.014-2.674-.059-4.033-.093a1.464,1.464,0,0,1-.266-.959,48.068,48.068,0,0,0-.51-6.833,3.389,3.389,0,0,1-.021-.58.547.547,0,0,1,.456-.547q3.258-.831,6.511-1.673c.439-.112.877-.225,1.316-.334a1.068,1.068,0,0,1,1.057.313,2.547,2.547,0,0,1,.741,1.677c.136,1.286.288,2.572.4,3.86.119,1.4.2,2.8.287,4.2.017.276,0,.554,0,.925" transform="translate(26.089 10.727)" fill="#001d63"/>
        <path id="Path_2407" d="M180.77,989.619c1.47,0,2.938.005,4.406,0,.388,0,.776-.056,1.164-.056.453,0,.535.1.495.535-.026.28-.08.556-.114.833a1.379,1.379,0,0,0-.01.388,20.074,20.074,0,0,1-.147,3.86c-.019.5.021.994,0,1.489a.834.834,0,0,1-.855.933c-.512.054-1.035.04-1.552.051-1.879.04-3.755.087-5.632.115-.842.012-1.685.005-2.525-.026a1.818,1.818,0,0,1-1.894-1.942c-.016-1.468-.007-2.936.007-4.4a7.063,7.063,0,0,1,.119-1.029c.094-.592.294-.771.9-.774,1.877-.009,3.757,0,5.634,0v.031" transform="translate(20.433 36.447)" fill="#001d63"/>
        <path id="Path_2408" d="M182.662,986.528c-2.195.047-4.411.11-6.627.135-1.078.012-2.155-.045-3.233-.08-.456-.016-.683-.246-.7-.738-.026-.711-.026-1.424-.042-2.135-.016-.669-.031-1.339-.065-2.006a1.843,1.843,0,0,0-.135-.559,5.739,5.739,0,0,1-.315-2.3c.425.549.323,1.318.755,1.884.381-.166.376-.481.351-.772-.044-.537-.124-1.069-.19-1.6-.028-.231-.061-.46-.1-.729.426-.03.809-.051,1.188-.086a35.843,35.843,0,0,1,5.216-.177,25.517,25.517,0,0,0,2.78-.058,1.253,1.253,0,0,1,1.127.493.844.844,0,0,1,.206.442q.139,3.327.246,6.653a2.55,2.55,0,0,1-.465,1.634" transform="translate(18.518 27.286)" fill="#001d63"/>
        <path id="Path_2409" d="M179.059,999.832a4.691,4.691,0,0,1-1.931.447c-3.3-.023-6.606-.014-9.91-.016-.15,0-.3.005-.453,0-.47-.021-.568-.093-.584-.578-.023-.755-.026-1.512,0-2.265.035-1.057.11-2.113.159-3.168s.433-1.442,1.471-1.44q5.117.016,10.234.031c.844,0,.9.089,1.187.881a6.513,6.513,0,0,1,.129,2.621c-.051,1.16-.2,2.317-.3,3.49" transform="translate(14.501 38.876)" fill="#001d63"/>
        <path id="Path_2410" d="M191.721,987.279c-2.494.038-4.842,0-7.189-.173-.449-.033-.9,0-1.356-.009-.587-.007-.722-.124-.736-.715-.014-.538.021-1.078.012-1.618-.03-1.81-.072-3.621-.107-5.431-.007-.367-.007-.732.007-1.1a.633.633,0,0,1,.545-.683,1.283,1.283,0,0,1,.257-.033c1.443-.033,2.885-.072,4.329-.094,1.23-.017,2.461-.014,3.689-.019h.781c.35,1.41.161,2.836.376,4.344-.44-.334-.785-.594-1.127-.856l-.112.091a2.81,2.81,0,0,0,.2.419,3.633,3.633,0,0,0,.512.667,1.753,1.753,0,0,1,.463,1.655c-.066.556-.038,1.124-.124,1.676-.1.624-.273,1.235-.419,1.879" transform="translate(26.594 27.361)" fill="#001d63"/>
        <path id="Path_2411" d="M149.293,989.513c.239-.014.386-.032.535-.03q4.891.021,9.783.045c.108,0,.215,0,.323,0,.631.014.751.117.743.765-.03,1.962-.063,3.927-.122,5.888a1.945,1.945,0,0,1-1.931,1.847q-2.813-.037-5.624-.122c-.536-.016-1.071-.124-1.608-.166a7.188,7.188,0,0,0-1.1-.019c-.521.038-.828-.138-.9-.661a13.053,13.053,0,0,1-.086-1.548q-.039-2.456-.056-4.916c0-.356.024-.713.038-1.085" transform="translate(1.861 36.39)" fill="#001d63"/>
        <path id="Path_2412" d="M184.783,967.46c-.042.944-.1,1.868-.117,2.793a7.859,7.859,0,0,0,.1,1.61c.2,1.036-.14,2.046.009,3.123a89.956,89.956,0,0,1-10.412,0,.924.924,0,0,1-.04-.958,17.2,17.2,0,0,0,1.534-7.28,4.762,4.762,0,0,1,.281-1.2h7.029a5.7,5.7,0,0,0,.612,1.166,5,5,0,0,0,1.007.741" transform="translate(20.513 18.501)" fill="#001d63"/>
        <path id="Path_2413" d="M174.284,982.333h0a3.428,3.428,0,0,0-.243-.723c-.072-.128-.306-.164-.468-.243-.063.142-.2.3-.18.425a5.114,5.114,0,0,0,.274,1.042c.033.087.246.156.369.145.084-.009.17-.161.224-.264a1.341,1.341,0,0,0,.024-.381m-5.5-1.127h0l.124-.119c-.147-.327-.28-.662-.447-.98a6.78,6.78,0,0,0-.6-.986.6.6,0,0,0-.477-.206.434.434,0,0,0-.344.54,1.47,1.47,0,0,0,.37.71C167.836,980.545,168.32,980.861,168.78,981.205Zm2.731-3.516v2.946c.243.016.423.026.671.04-.045-1.028-.089-2.006-.133-3.011h3.86c0,.966.061,1.893-.012,2.807-.178,2.176-.245,4.351-.238,6.532a2.154,2.154,0,0,0,.694,1.665,1.3,1.3,0,0,1,.122.173.611.611,0,0,1-.811-.229,11.573,11.573,0,0,1-.914-1.622c-.248-.57-.379-1.19-.582-1.781a2.883,2.883,0,0,0-.358-.755.657.657,0,0,0-.479-.232c-.253.014-.246.266-.225.458.035.339.093.675.156,1.106-.344-.529-.624-.984-.926-1.421a1.263,1.263,0,0,0-1.115-.638,2.063,2.063,0,0,1-.984-.432,11.634,11.634,0,0,0-2.863-1.484,12.494,12.494,0,0,0-4.477-.451,15.735,15.735,0,0,0-3.675.7,1.139,1.139,0,0,1-.238.017,3.275,3.275,0,0,1-.052-.42c0-1.166.007-2.331.014-3.5,0-.108,0-.215.014-.323a.428.428,0,0,1,.5-.453c.6.017,1.209.005,1.814.019,1.143.026,2.284.07,3.429.087.495.007.989-.037,1.485-.059A35.632,35.632,0,0,1,171.511,977.689Z" transform="translate(9.095 27.352)" fill="#001d63"/>
        <path id="Path_2414" d="M189.051,994.367c-.035-.084-.107-.171-.093-.241.128-.692-.362-1.059-.8-1.386-.758-.564-1.571-1.057-2.366-1.571-.669-.433-1.346-.86-2.022-1.281a3.834,3.834,0,0,0-.732-.411c-.538-.192-.662-.54-.629-1.091.077-1.354.079-2.716.114-4.074.023-.858.217-1.07,1.069-1.08.582-.009,1.164.038,1.748.056,1.681.049,3.364.093,5.045.145.512.016,1.024.056,1.58.087.024.764.068,1.452.065,2.139q-.016,3.853-.065,7.705a1.537,1.537,0,0,1-.166.68.633.633,0,0,1-.43.307c-.753.031-1.506.014-2.315.014" transform="translate(26.641 31.717)" fill="#001d63"/>
        <path id="Path_2415" d="M164.375,981.406c-2.777.012-5.548.024-8.373-.145.051-.418.122-.774.133-1.134.058-2,.1-4.005.145-6.008.016-.732.005-1.464.023-2.2.012-.526.094-.6.606-.6q3.172.034,6.344.079a1.918,1.918,0,0,1,.386.03c.538.114.7.313.771.869a53.327,53.327,0,0,1,.248,6.908c0,.577-.077,1.155-.133,1.732a2.431,2.431,0,0,1-.15.463" transform="translate(6.905 22.817)" fill="#001d63"/>
        <path id="Path_2416" d="M159.35,989.739l11.294.108c.068.566.173,1.1.189,1.627.042,1.489.068,2.978.056,4.467-.005.563-.409.867-.989.891-1.229.051-2.457.142-3.687.15-1.487.009-2.976-.049-4.465-.081-.475-.009-.951-.01-1.424-.04a1.274,1.274,0,0,1-1.16-1.176c-.007-1.209.021-2.419.04-3.628q.016-.842.058-1.683c.01-.2.056-.407.089-.636" transform="translate(9.268 36.582)" fill="#001d63"/>
        <path id="Path_2417" d="M168.921,948.188c.734.119,1.423.175,2.08.351.619.168,1.19.493,1.8.692a23.882,23.882,0,0,1,6.1,2.932c.535.364,1.089.7,1.637,1.04a1.455,1.455,0,0,1,.734,1.412c-.023.409.005.82-.007,1.229-.016.53-.168.717-.7.717-.991,0-1.98-.063-2.971-.075-.862-.009-1.725-.005-2.586.026a20.038,20.038,0,0,1-4.641-.148,1.961,1.961,0,0,0-.514.019c-.57.045-.8-.147-.811-.715-.021-1.166-.017-2.331-.045-3.5-.024-1.035-.086-2.069-.117-3.1-.01-.294.024-.589.04-.881" transform="translate(16.531 5.52)" fill="#001d63"/>
        <path id="Path_2418" d="M183.226,971.319c.021.339.047.594.051.847.024,1.358.042,2.714.063,4.072.014.905.023,1.811.051,2.716.019.582.059,1.162.115,1.74.049.5-.028.633-.524.635-1.333.007-2.669,0-4-.005-.495,0-.991-.021-1.485-.021a1.144,1.144,0,0,1-1.1-1.028c-.047-2.391-.093-4.783-.1-7.174a2.446,2.446,0,0,1,.4-1.463.671.671,0,0,1,.648-.316c.647.033,1.293.087,1.938.084,1.078-.009,2.155-.058,3.231-.087.211-.005.425,0,.722,0" transform="translate(22.07 22.81)" fill="#001d63"/>
        <path id="Path_2419" d="M171.321,974.467c.505-.281,1.008-.523,1.47-.827a16.99,16.99,0,0,0,1.77-1.295,3.385,3.385,0,0,1,3.264-.914,4.46,4.46,0,0,0,.514.049.85.85,0,0,1,.827.832c.068.986.119,1.976.128,2.964.014,1.445-.016,2.891-.03,4.334a5.361,5.361,0,0,1-.023.582c-.112.937-.365,1.035-1.141,1.028-1.657-.016-3.313.026-4.97.021a3.876,3.876,0,0,1-.841-.2,60,60,0,0,1-.968-6.574" transform="translate(18.357 22.808)" fill="#001d63"/>
        <path id="Path_2420" d="M183.4,963.036c-.185.026-.344.063-.505.07-.818.031-1.636.038-2.453.087-.528.031-.7.21-.654.748a3.888,3.888,0,0,0,.3,1.178c.55,1.265,1.139,2.513,1.713,3.77.1.211.189.428.288.657-.089.049-.138.1-.189.1-1.81.063-3.621.135-5.431.171-1.077.023-1.236-.156-1.225-1.228.019-2.05.056-4.1.073-6.144a8.21,8.21,0,0,0-.084-1.225,1.536,1.536,0,0,1,1.625-1.9c1.208-.04,2.417-.044,3.624-.079.647-.019,1.29-.075,1.936-.1s.792.1.865.75a18.93,18.93,0,0,1,.114,3.149" transform="translate(21.262 13.702)" fill="#001d63"/>
        <path id="Path_2421" d="M154.926,967.484c1.554,0,3.107.026,4.659-.012a.876.876,0,0,1,.975.937c-.056,1.443-.117,2.887-.2,4.327-.03.481-.25.638-.788.641-1.272.009-2.546,0-3.818.009-1.748.019-3.493.052-5.241.079a2.612,2.612,0,0,1-.453-.005c-.3-.047-.51-.173-.529-.533-.049-.881-.156-1.758-.18-2.639a20.445,20.445,0,0,1,.086-2.067c.059-.769.149-.832.9-.83q2.3,0,4.594,0v.094" transform="translate(1.928 19.875)" fill="#001d63"/>
        <path id="Path_2422" d="M181.287,999.032c-2.094,0-4.189,0-6.282-.005a1.7,1.7,0,0,1-.629-.108.609.609,0,0,1-.423-.708c.11-.834.119-1.685.287-2.506s.467-1.145,1.309-1.118c.993.033,1.985.084,2.978.082,1.316,0,2.632-.052,3.948-.073.863-.012,1.727-.007,2.59-.012a2.511,2.511,0,0,0,.709-.033,2.552,2.552,0,0,1,1.4.108c.353.08.692.225,1.038.341a1.16,1.16,0,0,1,.685,1.077,21.671,21.671,0,0,1-.421,2.553c-.093.388-.514.465-.9.463-1.1-.009-2.2-.01-3.3-.012-.993,0-1.987,0-2.98,0v-.047" transform="translate(20.318 40.13)" fill="#001d63"/>
        <path id="Path_2423" d="M166.464,989.8c.334,0,.633,0,.931,0,.972-.012,1.943-.039,2.913-.042,1.145-.007,2.291.021,3.436,0,1.618-.026,3.236-.089,4.855-.124.6-.012.613.016.626.61.024,1.078.054,2.156.077,3.235a.94.94,0,0,1-.8,1.085,2.883,2.883,0,0,1-.76.117q-5.022.021-10.047.016a2.621,2.621,0,0,1-.874-.187.692.692,0,0,1-.5-.624,17.236,17.236,0,0,1,.035-3.749c.016-.082.049-.162.1-.337" transform="translate(14.558 36.503)" fill="#001d63"/>
        <path id="Path_2424" d="M158.643,975.251c-.038-.47-.091-.895-.1-1.321-.065-2.158-.131-4.318-.163-6.478a16.991,16.991,0,0,1,.15-1.8c.03-.316.243-.369.51-.35,1.01.072,2.022.152,3.034.208.774.042,1.548.051,2.326.075a12.5,12.5,0,0,0-.054,4.119,9.786,9.786,0,0,0,1.41,3.726c.236.385.489.76.741,1.132.308.456.2.746-.367.773-.732.035-1.468,0-2.2-.011q-2.3-.018-4.6-.038c-.21,0-.419-.019-.682-.031" transform="translate(8.68 18.309)" fill="#001d63"/>
        <path id="Path_2425" d="M189.064,989.339c0,.384.009.682,0,.979-.051,1.337-.11,2.676-.161,4.012-.044,1.12-.077,2.242-.126,3.364-.017.423-.115.519-.524.587a2.233,2.233,0,0,1-.323.018c-1.47.026-2.938.059-4.406.072a12.407,12.407,0,0,1-1.417-.086.607.607,0,0,1-.554-.811,6.3,6.3,0,0,0,.08-.771c.035-.624.047-1.248.091-1.872.093-1.354.2-2.71.3-4.065a3.509,3.509,0,0,1,.042-.451c.1-.516.2-.633.744-.708a13.681,13.681,0,0,1,1.414-.119c1.316-.045,2.634-.075,3.949-.112.255-.007.512-.023.891-.039" transform="translate(25.99 36.283)" fill="#001d63"/>
        <path id="Path_2426" d="M151.7,952.339c-.253-.322-.5-.15-.8-.154a4,4,0,0,1,.227-.531q1.009-1.657,2.034-3.307c.171-.273.393-.514.568-.785a2.426,2.426,0,0,1,1.351-.832.326.326,0,0,1,.243.018,12.851,12.851,0,0,1,1.449.833c.519.379.979.841,1.52,1.314-2.843,3.628-4.441,7.96-6.487,12.083a.185.185,0,0,1-.107-.04c-.839-.744-1.665-1.5-2.515-2.237a1.708,1.708,0,0,1-.467-1.658,4.164,4.164,0,0,1,.343-1.176c.412-.926.872-1.83,1.3-2.749a.8.8,0,0,1,.54-.412c.266-.093.516-.234.8-.367" transform="translate(1.432 4.419)" fill="#001d63"/>
        <path id="Path_2427" d="M174.705,964.689a4.691,4.691,0,0,1,3.128.68,1,1,0,0,1,.066,1.783,12.239,12.239,0,0,1-2.1.979c-.706.253-1.456.386-2.186.573-.206.052-.409.114-.692.192a.929.929,0,0,0,.827.152,9.722,9.722,0,0,0,3.762-1.1,3.815,3.815,0,0,1,.467-.22,3.447,3.447,0,0,1,.4-.1c.245.635-.1,1.2-.117,1.786s-.091,1.153-.145,1.8c-.161-.079-.246-.122-.428-.21a11.13,11.13,0,0,1-.014,1.494,3.946,3.946,0,0,1-.517,1.388c-.07-.32-.14-.64-.238-1.083a2.959,2.959,0,0,0-.252,1.466,3.335,3.335,0,0,1-1.035,2.308V974.6l-.142-.025a1.154,1.154,0,0,0-.129.29c-.1.619-.171,1.239-.269,1.856a1.215,1.215,0,0,1-.858.958,8.057,8.057,0,0,0,.143-2.144.993.993,0,0,0-.3.657c-.107.44-.182.888-.294,1.326a1.544,1.544,0,0,1-1.417,1.237c-.028-.236-.068-.468-.084-.7-.054-.839-.131-1.68-.145-2.52a49.763,49.763,0,0,0-.545-6.508,5.466,5.466,0,0,0-.884-2.275,9.793,9.793,0,0,1-.876-1.466,3.4,3.4,0,0,1,.683.4,10.1,10.1,0,0,1,1.047,1.143.6.6,0,0,0,.645.294c1.141-.22,2.286-.428,3.425-.659.267-.056.568-.133.633-.472a.726.726,0,0,0-.428-.8c-.334-.183-.7-.315-1.125-.5" transform="translate(17.239 17.805)" fill="#ca2a18"/>
        <path id="Path_2428" d="M164.88,999.289c-1.51,0-3.018,0-4.528,0a4.219,4.219,0,0,1-.772-.06c-.4-.08-.5-.225-.516-.622-.037-1.054-.04-2.109-.115-3.16a1.327,1.327,0,0,1,.627-1.257.825.825,0,0,1,.47-.145c1.4.061,2.8.1,4.194.225a31.86,31.86,0,0,0,4.325-.082c.495-.023.991-.045,1.485-.031.75.023.977.32.947,1.059-.04,1.012-.04,2.025-.056,3.039-.012.823-.245,1.073-1.08,1.08-1.66.01-3.322,0-4.982,0v-.049" transform="translate(9.105 39.799)" fill="#001d63"/>
        <path id="Path_2429" d="M191.788,967.061a5.874,5.874,0,0,1,.18.956c.028,1.185.023,2.371.028,3.556a.906.906,0,0,1-.031.19c-.173.781-.273.909-1.07.93-1.419.035-2.84.021-4.259.026l-3.036,0H182.57a37.362,37.362,0,0,1-.336-5.68c1.662.066,3.245.177,4.83.178,1.562,0,3.125-.1,4.724-.161" transform="translate(26.515 19.616)" fill="#001d63"/>
        <path id="Path_2430" d="M172.564,992.2a.99.99,0,0,1-.421-.945c-.012-.989-.026-1.98-.059-2.969q-.079-2.168-.189-4.336a1.143,1.143,0,0,1,.2-.793.65.65,0,0,1,.6-.3c1.919.079,3.839.143,5.758.215.741.028,1.019.3,1.052,1.094.059,1.424.093,2.85.131,4.274.012.428,0,.856,0,1.335l-6.936.262a10.719,10.719,0,0,0,.131,1.514.575.575,0,0,1-.269.648Z" transform="translate(18.783 31.433)" fill="#001d63"/>
        <path id="Path_2431" d="M173.026,986.328h0a1.448,1.448,0,0,0-1.679-.3c-.266.142-.278.364-.03.559a1.317,1.317,0,0,0,1.709-.257m-16.588.3.676-.816c-.26-.037-.449.475-.86.53-.266-.909.58-1.014.966-1.487l-.935.315a.366.366,0,0,1,.239-.566c.491-.155.991-.279,1.487-.418.412-.115.832-.21,1.236-.351a6.935,6.935,0,0,1,4.248-.377,6.593,6.593,0,0,0,2.375.182,5.345,5.345,0,0,1,2.721.374,13.665,13.665,0,0,0,3.441.839,9.275,9.275,0,0,1,1.6.489.557.557,0,0,1,.332.348c.086.718.587.937,1.185,1.085a3.108,3.108,0,0,1,1.795.951,1.6,1.6,0,0,1,.093.168c-.271-.081-.5-.154-.732-.215-.211-.054-.444-.112-.578.129a.468.468,0,0,0,.136.635,1.556,1.556,0,0,1,.159.2,2.341,2.341,0,0,1-1.12-.29,8.053,8.053,0,0,0-3.923-.933,2.671,2.671,0,0,1-1.236-.308,5.273,5.273,0,0,0-3.638-.51,2.473,2.473,0,0,1-1.4-.107,4.9,4.9,0,0,0-2.307-.066,1.647,1.647,0,0,0-.44.1,3.025,3.025,0,0,1-1.964.038,3.99,3.99,0,0,0-2.485.066,4.58,4.58,0,0,0-.584.276C156.728,987.019,156.6,986.954,156.438,986.632Z" transform="translate(7.056 31.746)" fill="#001d63"/>
        <path id="Path_2432" d="M167.718,983.656h0c.124-.224.182-.285.168-.311a.189.189,0,0,0-.138-.091c-.044,0-.128.056-.126.086a1.551,1.551,0,0,0,.1.316m-2.653-.414h0l.054-.14-.325-.086-.031.1C164.865,983.158,164.964,983.2,165.066,983.241Zm4.1-.346h0c-.066-.087-.112-.149-.161-.211l-.161.126a.977.977,0,0,0,.15.176C169.008,983,169.081,982.939,169.162,982.9Zm1.643,1.693h0l.014-.173h-.351l-.009.117Zm-10.938-1.816h0c.224.275.36.259.634,0Zm4.121.881h0c-.2-.114-.36-.248-.537.049C163.648,983.878,163.809,983.949,163.987,983.654Zm1.924.538h0c.019-.077.038-.155.059-.234-.215-.037-.409-.248-.793.079Zm4.537-.7h0a1.627,1.627,0,0,0,1.316,1.008.546.546,0,0,0,.594-.446C171.552,983.329,171.077,983.186,170.448,983.491Zm6.922,4.47c-.482-.311-.975-.608-1.447-.937a1.916,1.916,0,0,0-1.22-.517.991.991,0,0,1-.414-.161,10.024,10.024,0,0,0-2.279-.7,16.768,16.768,0,0,1-2.854-.816,6.519,6.519,0,0,0-3.3-.386,4.97,4.97,0,0,1-1.791-.129,8.6,8.6,0,0,0-3.977.091.7.7,0,0,0-.294.129,3.113,3.113,0,0,1-1.692.55,12.513,12.513,0,0,0-1.562.426c-.093-.512.477-.582.708-1.035-.28.135-.465.22-.647.311-.15.075-.332.232-.435.005-.044-.1.068-.322.173-.416.236-.211.514-.377.753-.61a2.434,2.434,0,0,0-1.29.577,1.308,1.308,0,0,1,1.412-1.1,2.118,2.118,0,0,0,.788-.231,4.133,4.133,0,0,0,.718-.437,2.836,2.836,0,0,1,1.962-.51,4.1,4.1,0,0,0,1.774-.234,2.636,2.636,0,0,1,2.373.047,2.227,2.227,0,0,0,1.644.143,3.142,3.142,0,0,1,1.961.222,3.552,3.552,0,0,0,1.76.323,2.814,2.814,0,0,1,1.837.5c.507.325,1.028.628,1.606.977.1.757.771,1.146,1.349,1.623.781.645,1.55,1.305,2.321,1.963a1.2,1.2,0,0,1,.154.2Z" transform="translate(6.754 30.476)" fill="#001d63"/>
        <path id="Path_2433" d="M152.762,956.72a29.655,29.655,0,0,0-2.165,10.013,1.5,1.5,0,0,1-.238-.189c-.968-1.188-1.922-2.387-2.9-3.568a1.037,1.037,0,0,1-.3-.813,14.207,14.207,0,0,1,.206-1.859,53.046,53.046,0,0,1,1.533-5.617c.166-.449.322-.9.814-1.07l3.051,3.1" transform="translate(0.289 9.579)" fill="#001d63"/>
        <path id="Path_2434" d="M150.637,988.33a1.857,1.857,0,0,1-.271-.173q-1.426-1.363-2.847-2.733a1.813,1.813,0,0,1-.61-1.251c-.044-1.1-.1-2.2-.119-3.3q-.026-2.008.021-4.016c.014-.571.122-1.141.2-1.84a44.388,44.388,0,0,0,4.042,4.109,42.752,42.752,0,0,0-.255,5.8c-.009.951-.07,1.9-.11,2.848-.007.166-.03.329-.052.556" transform="translate(0.011 25.578)" fill="#001d63"/>
        <path id="Path_2435" d="M150.8,982.755c-.283-.274-.467-.449-.647-.629-.818-.828-1.609-1.686-2.462-2.476a2.57,2.57,0,0,1-.858-1.886c-.058-2.5-.063-5-.07-7.5a10.2,10.2,0,0,1,.157-1.281c.213.086.37.1.458.191q1.575,1.58,3.123,3.184a.637.637,0,0,1,.143.451,53,53,0,0,0,0,7.3c.031.835.1,1.669.156,2.649" transform="translate(0 21.064)" fill="#001d63"/>
        <path id="Path_2436" d="M156.366,985.643c.68.586,1.37,1.162,2.039,1.758.869.776,1.72,1.571,2.581,2.354a.968.968,0,0,0,.678.316c1.618.014,3.236.06,4.855.087.951.016,1.9.01,2.85.033.776.018,1.55.06,2.326.1a.457.457,0,0,1,.3.084,5.411,5.411,0,0,1,1.314,1.917c-.4,0-.734,0-1.071,0-2.268-.009-4.535-.025-6.8-.026-1.382,0-2.765.005-4.147.031a1.5,1.5,0,0,1-1.113-.405c-1.239-1.138-2.49-2.261-3.731-3.4a.548.548,0,0,1-.206-.309c-.016-.83-.009-1.662-.009-2.492l.14-.051" transform="translate(7.072 33.52)" fill="#001d63"/>
        <path id="Path_2437" d="M166.127,986.4h0c.185.224.185.224.454.183-.1-.192-.22-.308-.454-.183m1.707-.288h0l-.582-.084C167.4,986.441,167.553,986.411,167.834,986.109Zm-.778.86h0l.018.164c.185.093.363.147.538-.164Zm5.718.276h0c-.136-.292-.285-.383-.542-.136A.327.327,0,0,0,172.775,987.245Zm-14.014.376c-.157-.129-.29-.238-.505-.416l.865-.341c-.43-.276-.792.012-1.216.035-.122-.11-.276-.252-.516-.47l1.279-.332-.012-.1c-.442.033-.888.053-1.328.1-.341.04-.339.058-.643-.349.287-.084.542-.185.806-.234a6.2,6.2,0,0,1,2.567.019,4.412,4.412,0,0,0,1.34.016c.514-.045,1.021-.163,1.533-.238a2.426,2.426,0,0,1,1.333.155,2.755,2.755,0,0,0,1.657.121,4.2,4.2,0,0,1,3.067.418,3.176,3.176,0,0,0,1.805.428,6.177,6.177,0,0,1,3.181.731,4.483,4.483,0,0,0,1.854.529,1.228,1.228,0,0,1,.844.529.368.368,0,0,1,.084.292,2.01,2.01,0,0,1-.675,1.349.784.784,0,0,1-1.047-.019,4.275,4.275,0,0,0-3.03-1.255,1.823,1.823,0,0,1-.9-.313,3.79,3.79,0,0,0-2.927-.472,5.111,5.111,0,0,1-2.366-.028,5.559,5.559,0,0,0-2.447-.014,2.844,2.844,0,0,1-1.823-.248A2.994,2.994,0,0,0,158.761,987.621Z" transform="translate(7.416 33.251)" fill="#001d63"/>
        <path id="Path_2438" d="M147.352,959.11a.636.636,0,0,1,.147.112c.954,1.279,1.9,2.566,2.864,3.839a2.688,2.688,0,0,1,.528,2.019c-.131,1.37-.089,2.758-.086,4.138,0,1.033.056,2.066.091,3.181a4.044,4.044,0,0,1-.439-.192,1.2,1.2,0,0,1-.243-.213c-.891-.907-1.77-1.828-2.677-2.719a2.433,2.433,0,0,1-.7-1.812c-.007-1.685.04-3.367.052-5.052,0-.388-.04-.776-.07-1.162a2.989,2.989,0,0,1,.536-2.137" transform="translate(0.028 13.685)" fill="#001d63"/>
        <path id="Path_2439" d="M147.03,981.174a2.727,2.727,0,0,1,.294.2q1.444,1.436,2.883,2.88c.122.121.234.253.358.372a.54.54,0,0,1,.149.517c-.089.813-.161,1.629-.184,2.445-.061,2.263-.1,4.526-.143,6.9a3.328,3.328,0,0,1-.428-.3c-.879-.89-1.749-1.791-2.632-2.677a1.06,1.06,0,0,1-.362-.729c-.026-.732-.1-1.463-.089-2.193.01-1.166.082-2.329.1-3.5.007-.473-.093-.947-.082-1.419.016-.8.082-1.592.135-2.508" transform="translate(0.083 30.179)" fill="#001d63"/>
        <path id="Path_2440" d="M161.722,969.556a5.911,5.911,0,0,1-2.02-.372c.248-.475.447-.923.708-1.331a6.826,6.826,0,0,0,.968-2.448,3.009,3.009,0,0,0,.066-.7c-.026-.517-.3-.741-.813-.806a25.383,25.383,0,0,0-3.873-.161c-.1,0-.208-.018-.344-.03a7.089,7.089,0,0,1,0-2.132c.091-.659.238-1.311.367-1.964.089-.458.161-.517.582-.512,1.333.018,2.669.033,4,.056.746.014.989.231.973.952-.054,2.349-.131,4.7-.2,7.044a4.988,4.988,0,0,0-.005.647,2.9,2.9,0,0,1-.411,1.762" transform="translate(7.152 13.674)" fill="#001d63"/>
        <path id="Path_2441" d="M178.048,994.151c-.1.36-.346.477-.72.482q-2.915.047-5.828.129c-1.014.03-2.027.1-3.041.149-.173.009-.346.012-.517.017a1.347,1.347,0,0,1-1.47-.776,7.753,7.753,0,0,0-.888-1.218,25.134,25.134,0,0,1,2.586.063c.858-.087,1.714-.19,2.574-.266s1.711-.119,2.641-.182c.047-3.471-.241-6.919.26-10.379a1.975,1.975,0,0,1,.162.421,11.416,11.416,0,0,1,.142,1.288c.065,1.879.107,3.756.168,5.634.031.993.08,1.984.122,2.971.535.119.6.1.619-.379.03-.884,0-1.77.009-2.656.009-.944.035-1.889.122-2.84a3.164,3.164,0,0,1,.327,1.377c.065.514.129,1.029.171,1.545.038.495.059.993.072,1.489s0,.987,0,1.552c.3.016.573.012.842.054a.912.912,0,0,1,.516.192c.395.421.751.879,1.127,1.332" transform="translate(14.068 30.924)" fill="#001d63"/>
        <path id="Path_2442" d="M156.41,987.522c.954.9,1.872,1.776,2.8,2.639a7.559,7.559,0,0,0,1.05.856,1.159,1.159,0,0,1,.608,1.063c-.012.753-.037,1.508-.047,2.261s-.01,1.512-.024,2.267a4.148,4.148,0,0,1-.065.835c-.121.533-.439.619-.823.241-.339-.332-.676-.664-1-1.007-.832-.877-1.648-1.768-2.487-2.637a1.155,1.155,0,0,1-.334-.867c-.005-.776-.051-1.552-.08-2.328a.559.559,0,0,1-.01-.192,15.3,15.3,0,0,0,.341-3.011.428.428,0,0,1,.07-.121" transform="translate(6.898 34.924)" fill="#001d63"/>
        <path id="Path_2443" d="M181.848,977.407c.369,1.562.182,8.17-.26,9.059-1-.1-2.052.189-3.07-.182.033-.811.1-1.562.087-2.31-.024-1.035-.122-2.067-.176-3.1-.019-.323,0-.647,0-.97,0-.449.009-.9.023-1.349a2.362,2.362,0,0,1,.073-.759.663.663,0,0,1,.449-.374c.965-.033,1.931-.016,2.875-.016" transform="translate(23.663 27.36)" fill="#001d63"/>
        <path id="Path_2444" d="M176.6,982.944h6.5a1.2,1.2,0,0,1,.131.374c-.019,1.248-.052,2.5-.084,3.8-.313-.091-.573-.177-.839-.243a2.459,2.459,0,0,0-.566-.1c-.753-.007-1.5.005-2.256.012a1.151,1.151,0,0,0-.259.009c-.757.166-.958.1-.767,1.019a14.505,14.505,0,0,1,.149,1.805,4.085,4.085,0,0,1-1.777.086c-.014-2.233-.239-4.435-.229-6.758" transform="translate(22.3 31.502)" fill="#001d63"/>
        <path id="Path_2445" d="M156.14,983.666a1.382,1.382,0,0,1,.664-.889c.926-.629,1.88-1.22,2.85-1.782a2.419,2.419,0,0,1,.879-.175c.64-.086,1.281-.17,1.924-.231a10.237,10.237,0,0,1,1.157-.042c.73.011,1.463.073,2.191.054a5.322,5.322,0,0,1,2.352.318,2.355,2.355,0,0,0,1,.206,4.06,4.06,0,0,1,2.4.846,2.568,2.568,0,0,0,.559.322,2.691,2.691,0,0,1,1.354.837.13.13,0,0,0,.049.044c.963.364,1.335,1.3,1.936,2.011.439.517.8,1.1,1.213,1.69-.176.143-.377.007-.514-.129a12.293,12.293,0,0,1-.938-1.059,8.876,8.876,0,0,1-.477-.771,1.129,1.129,0,0,0-1.1-.65,1.06,1.06,0,0,1-.542-.182c-.376-.211-.737-.447-1.1-.682a3.043,3.043,0,0,0-1.828-.55,3.973,3.973,0,0,1-1.891-.336,3.39,3.39,0,0,0-2.039-.157,2.422,2.422,0,0,1-1.746-.255,2.165,2.165,0,0,0-1.456-.177,8.489,8.489,0,0,0-1.508.353,1.814,1.814,0,0,1-1.068.1,2.124,2.124,0,0,0-1.734.334,3.823,3.823,0,0,1-2.59.947" transform="translate(7.008 29.709)" fill="#001d63"/>
        <path id="Path_2446" d="M159.168,975.353c-.818,0-1.573.012-2.326,0-.643-.014-.8-.234-.781-.87.051-1.444.1-2.891.1-4.336a2.294,2.294,0,0,1,.568-1.587c.723-.855,1.372-1.774,2.052-2.667l.475-.627c.038.456.058.765.093,1.073s.112.594.122.893c.047,1.251.1,2.5.1,3.754,0,1.141-.045,2.284-.108,3.425a4.315,4.315,0,0,1-.294.945" transform="translate(6.948 18.284)" fill="#001d63"/>
        <path id="Path_2447" d="M156.247,985.016c-.038-.372-.091-.659-.1-.947-.021-1.29-.023-2.581-.049-3.871-.009-.409-.11-.816-.1-1.221a8.477,8.477,0,0,1,.154-1.274.478.478,0,0,1,.559-.413c.991.037,1.982.056,2.973.1.62.026.83.276.823.883-.017,1.206-.033,2.414-.024,3.619a.728.728,0,0,1-.5.781,13.891,13.891,0,0,0-3.738,2.345" transform="translate(6.903 27.274)" fill="#001d63"/>
        <path id="Path_2448" d="M189.456,990.02c.045,1.1.15,2.116.114,3.123-.051,1.379-.217,2.751-.313,4.126a.79.79,0,0,1-.758.816,12.778,12.778,0,0,1-1.866.03.564.564,0,0,1-.5-.592c-.023-.474-.026-.947-.019-1.421.021-1.789.052-3.579.073-5.369,0-.426.225-.779.589-.779.858,0,1.718.04,2.679.066" transform="translate(29.413 36.742)" fill="#001d63"/>
        <path id="Path_2449" d="M183.067,982.46c-.241-.112-.491-.217-.73-.343-.362-.189-.706-.414-1.075-.585a.672.672,0,0,1-.447-.7c0-1.185,0-2.371-.042-3.556-.044-1.314-.161-2.627-.192-3.941-.017-.772.068-1.55.107-2.324a1.25,1.25,0,0,1,.54-.937l1.723.659c.04,3.89.079,7.777.117,11.723" transform="translate(25.277 21.884)" fill="#001d63"/>
        <path id="Path_2450" d="M150.3,998.1c-.236-.266-.486-.517-.7-.8-.727-.938-1.433-1.894-2.162-2.833a2.882,2.882,0,0,1-.659-1.914c.04-1.512.035-3.025.061-4.537a5.779,5.779,0,0,1,.143-.8,3.574,3.574,0,0,1,.337.278c.958,1.056,1.907,2.118,2.873,3.167a.949.949,0,0,1,.274.739c-.01.841.079,1.681.072,2.523-.01,1.372-.066,2.744-.1,4.117l-.135.06" transform="translate(0.005 34.696)" fill="#001d63"/>
        <path id="Path_2451" d="M172.275,988.232c1.573-.01,3.146-.018,4.718-.031,1.056-.009,2.109-.032,3.165-.037q2.265-.016,4.531-.009a.657.657,0,0,1,.409.135c.547.482,1.076.986,1.713,1.575a3.124,3.124,0,0,1-.662.218c-.453.031-.905.021-1.36.023l-7.7.016c-.862,0-1.723-.012-2.583.005a.914.914,0,0,1-.755-.4c-.463-.523-.977-1-1.47-1.5h0" transform="translate(19.07 35.396)" fill="#001d63"/>
        <path id="Path_2452" d="M185.284,998.867c-.538,0-1.078.007-1.616,0-.764-.012-1.043-.341-.947-1.108.077-.62.159-1.239.252-1.856.1-.674.367-.945,1.038-.985.945-.058,1.893-.075,2.838-.108.28-.009.559,0,.839-.019.6-.037.856.2.863.815.009.54.009,1.078.014,1.618a1.578,1.578,0,0,1-1.6,1.644c-.561.016-1.122,0-1.683,0v0" transform="translate(26.865 40.354)" fill="#001d63"/>
        <path id="Path_2453" d="M147.079,965.095c.185.163.334.278.465.411.968.973,1.931,1.952,2.9,2.924a.574.574,0,0,1,.227.559,16.944,16.944,0,0,0-.107,5.078c.012.121,0,.243,0,.451a3.657,3.657,0,0,1-.358-.271c-1.038-1.033-2.066-2.074-3.111-3.1a.955.955,0,0,1-.315-.739c.014-1.1.014-2.2.04-3.294.012-.536.068-1.071.117-1.606a2.271,2.271,0,0,1,.138-.414" transform="translate(0.014 18.159)" fill="#001d63"/>
        <path id="Path_2454" d="M156.181,991.551c.622.664,1.2,1.292,1.791,1.907.509.53,1.012,1.066,1.55,1.564a3.594,3.594,0,0,1,1.089,2.672c.016.474-.052.949-.051,1.423a1.342,1.342,0,0,1-.267.842c-.274.379-.4.435-.781.2a1.551,1.551,0,0,1-.449-.364q-1.46-1.976-2.892-3.976a.861.861,0,0,1-.15-.477c.021-1.185.059-2.37.1-3.556a1.325,1.325,0,0,1,.065-.24" transform="translate(6.919 37.936)" fill="#001d63"/>
        <path id="Path_2455" d="M180.822,961.719c.19.571.334,1.034.5,1.491.423,1.152.841,2.3,1.291,3.446.421,1.061.881,2.1,1.325,3.156.082.192.166.383.3.694a7.4,7.4,0,0,1-2.6-.993,1.386,1.386,0,0,1-.348-.533c-.8-1.672-1.58-3.35-2.37-5.024-.176-.369-.384-.725-.536-1.1a8.477,8.477,0,0,1-.264-.987,12.821,12.821,0,0,1,2.7-.145" transform="translate(23.439 15.608)" fill="#001d63"/>
        <path id="Path_2456" d="M173.1,989.049l-1.057-.07a1.949,1.949,0,0,0-.573-.035,8.493,8.493,0,0,1-2.936.005c-.449-.044-.905-.035-1.358-.04-1.379-.016-2.759-.023-4.138-.038-.734-.009-1.466-.025-2.2-.042a1.856,1.856,0,0,1-1.592-.868l.381-.208c-.037-.051-.061-.107-.077-.1-.168.021-.334.051-.554.087-.259-.215-.55-.46-.888-.739a1.824,1.824,0,0,1,1.721-.217,6.979,6.979,0,0,0,3.679.372,2.769,2.769,0,0,1,1.089.1,5.711,5.711,0,0,0,2.815.059,2.785,2.785,0,0,1,2.223.4,2.7,2.7,0,0,0,1.533.433,2.538,2.538,0,0,1,1.931.91" transform="translate(8.482 34.273)" fill="#001d63"/>
        <path id="Path_2457" d="M183.007,987.357c-.627-.323-1.216-.586-1.76-.919a1.328,1.328,0,0,1-.514-1.3c.072-1.332.245-2.66.287-3.991.026-.9-.1-1.805-.156-2.707-.028-.444-.051-.886-.082-1.489l2.225,1.358v9.052" transform="translate(25.389 27.018)" fill="#001d63"/>
        <path id="Path_2458" d="M180.632,965.108c-.22-2.8-.446-5.653-.664-8.507-.005-.072.072-.147.126-.253l2.16.407c.292,2.752.37,5.527.568,8.353h-2.19" transform="translate(24.821 11.62)" fill="#001d63"/>
        <path id="Path_2459" d="M184.49,960c-.741-.138-1.395-.239-2.034-.395a.833.833,0,0,1-.409-.384c-.5-.806-.979-1.622-1.459-2.438a26.208,26.208,0,0,0-3.429-4.526c-.184-.2-.334-.425-.528-.673l1.7-.407c2.13,2.854,4.243,5.692,6.164,8.823" transform="translate(22.326 7.757)" fill="#001d63"/>
        <path id="Path_2460" d="M178.7,954.456c.585,1.129,1.153,2.184,1.678,3.261a3.216,3.216,0,0,1,.269,1.059c.1,1.022.17,2.048.253,3.118-.582.054-1.09.127-1.6.142-.83.021-1.076-.236-1.068-1.066.014-1.443.04-2.885.049-4.329,0-.409-.059-.818-.052-1.225.007-.344-.042-.739.472-.959" transform="translate(23.522 10.206)" fill="#001d63"/>
        <path id="Path_2461" d="M179.954,988.149c.468,0,.937.009,1.4,0,.559-.01,1.118-.051,1.676-.049,1.139,0,2.279.026,3.418.044a2.234,2.234,0,0,0,.32.035c1.258-.14,1.931.82,2.8,1.4l-.028.159c-.587.051-1.174.128-1.762.15-.926.033-1.852.021-2.779.047-.73.019-1.459.091-2.19.1a1.961,1.961,0,0,1-1.566-.594,14.585,14.585,0,0,0-1.309-1.139l.01-.145" transform="translate(24.803 35.355)" fill="#001d63"/>
        <path id="Path_2462" d="M187.787,989.71q-1.376,0-2.754,0c-.063,0-.154.007-.184-.028-.482-.589-1.267-.641-1.852-1.052s-1.253-.757-1.868-1.153-1.208-.83-1.819-1.235c-.35-.233-.716-.439-1.188-.725.229-.035.323-.058.421-.063.687-.036,1.375-.059,2.062-.112a1.3,1.3,0,0,1,.863.178q1.266.831,2.537,1.657c.523.341,1.04.69,1.571,1.017.75.46,1.508.9,2.263,1.353l-.052.166" transform="translate(23.44 33.287)" fill="#001d63"/>
        <path id="Path_2463" d="M182.438,953.483c-.652.121-1.157.208-1.658.311a.775.775,0,0,1-.645-.218c-.818-.6-1.613-1.234-2.476-1.756a23.111,23.111,0,0,0-6.277-2.688c-.187-.047-.376-.1-.557-.162a2.664,2.664,0,0,1-.358-.21c.266-.074.447-.108.619-.175a2.547,2.547,0,0,0,1.311-.778c.075-.1.245-.145.393-.229a6.473,6.473,0,0,0,2.6,1.912c1.513.781,3.036,1.545,4.526,2.368.823.454,1.589,1.017,2.522,1.625" transform="translate(17.718 5.064)" fill="#001d63"/>
        <path id="Path_2464" d="M183.02,989.209c-.783-.543-1.454-1-2.109-1.475a.548.548,0,0,1-.152-.393q0-2.068.038-4.14a3.218,3.218,0,0,1,.133-.568l2.247,1.188c-.051,1.741-.1,3.481-.157,5.388" transform="translate(25.412 31.27)" fill="#001d63"/>
        <path id="Path_2465" d="M180.739,966.763l1.989.568c.038,1.73.075,3.441.115,5.237a6.526,6.526,0,0,1-1.884-.935.754.754,0,0,1-.276-.475c-.047-1.27-.068-2.543-.084-3.813a2.8,2.8,0,0,1,.14-.582" transform="translate(25.293 19.406)" fill="#001d63"/>
        <path id="Path_2466" d="M178.226,987.843c-.082-.69-.168-1.41-.273-2.294,1.008.741,1.882,1.421,2.8,2.043s1.88,1.192,2.826,1.886c-.39.005-.778.012-1.167.019a2.681,2.681,0,0,1-1.475-.3,14.584,14.584,0,0,1-1.97-1.063,2.88,2.88,0,0,0-.739-.292" transform="translate(23.315 33.449)" fill="#001d63"/>
        <path id="Path_2467" d="M170.413,967.07a46.386,46.386,0,0,1,.867,9.819,3.679,3.679,0,0,1-.093.594l-.168.019a3.859,3.859,0,0,1-.248-.692c-.1-.661-.206-1.323-.243-1.989-.117-2.134-.208-4.269-.3-6.4-.019-.447,0-.9,0-1.347l.187,0" transform="translate(17.533 19.635)" fill="#fff"/>
        <path id="Path_2468" d="M163.154,980.237h0a.443.443,0,0,0-.589.075c.248.169.418.162.589-.075m7.911,2.473a4.54,4.54,0,0,1-1.917-.879,3.513,3.513,0,0,0-2.153-.774,1.477,1.477,0,0,1-.627-.122,6.88,6.88,0,0,0-3.755-.3,2.11,2.11,0,0,1-.706.033,5.616,5.616,0,0,0-2.548.224.731.731,0,0,1-.369,0,12.452,12.452,0,0,1,7.563-.626C168.137,980.648,170.7,982.065,171.066,982.71Z" transform="translate(9.139 29.26)" fill="#001d63"/>
        <path id="Path_2469" d="M159.172,953.94a2.422,2.422,0,0,1,.009-.654c.19-.585.421-1.157.65-1.774l1.333-.5a.993.993,0,0,1,.114.311c.017.666.026,1.333.021,2-.005.615-.2.816-.818.8-.4-.014-.8-.107-1.309-.178" transform="translate(9.261 7.629)" fill="#001d63"/>
        <path id="Path_2470" d="M170.189,979.733c-.456-.987-.722-7.649-.43-8.89a1.711,1.711,0,0,1,.267.881c.07,1.4.135,2.8.173,4.2.03,1.057.016,2.115.017,3.172,0,.212-.017.425-.028.636" transform="translate(17.098 22.456)" fill="#fff"/>
        <path id="Path_2471" d="M176.431,951.629c.689.828,1.284,1.545,1.938,2.333-.687.164-1.227-.117-1.821-.065-.023-.746-.463-1.388-.117-2.268" transform="translate(22.078 8.093)" fill="#001d63"/>
        <path id="Path_2472" d="M172.021,947.956c-.339.128-.68.259-1.021.381a.506.506,0,0,1-.248.044,5.464,5.464,0,0,1-1.949-.7l3.236.156-.019.115" transform="translate(16.475 5.144)" fill="#001d63"/>
        <path id="Path_2473" d="M174,965.4a7.789,7.789,0,0,1-2.745.2c.5-.585,1.412-.449,2.745-.2" transform="translate(18.308 18.227)" fill="#fff"/>
        <path id="Path_2474" d="M170.193,964.743c.8-.059,1.622-.349,2.361.217a4.128,4.128,0,0,1-2.361-.217" transform="translate(17.514 17.801)" fill="#fff"/>
        <path id="Path_2475" d="M164.655,965.071a5.127,5.127,0,0,1,2.368-.145,3.821,3.821,0,0,1-2.368.145" transform="translate(13.374 17.969)" fill="#fff"/>
        <path id="Path_2476" d="M168.784,958.03c.426.428-.012,1.026.453,1.48.023-.288.03-.489.058-.689.024-.175.072-.348.121-.573.51.33.091.793.341,1.132.55-.292.159-.868.391-1.283.068.031.175.045.2.1a1.244,1.244,0,0,1-.32,1.454c-.364.206-.365.486-.388.807-.014.19.08.439-.234.531-.252-.2-.129-.484-.143-.72a.664.664,0,0,0-.25-.545c-.47-.388-.538-.947-.227-1.693" transform="translate(16.319 12.877)" fill="#001d63"/>
        <path id="Path_2477" d="M167.744,958.953h0l-.124-.023c-.2.5-.395,1-.62,1.569.39-.03.682-.051,1.038-.079-.1-.519-.2-.994-.294-1.468m-.145-1.036a14.694,14.694,0,0,1,.984,2.831h-2.067C166.873,959.809,167.205,958.942,167.6,957.917Z" transform="translate(14.764 12.792)" fill="#001d63"/>
        <path id="Path_2478" d="M170.988,959.608h0l-.208-.7-.3.762.512-.061m.746,1.274c-.682-.082-.484-.612-.743-.89h-.582c-.246.246-.168.722-.643.874a1.144,1.144,0,0,1-.012-.337c.239-.715.482-1.43.744-2.136.042-.114.189-.19.287-.283a1.044,1.044,0,0,1,.213.285C171.243,959.187,171.47,959.984,171.734,960.882Z" transform="translate(17.177 12.937)" fill="#001d63"/>
        <path id="Path_2479" d="M165.239,956.483h-.792c0,.222,0,.428,0,.633,0,.409.023.82.009,1.229a.474.474,0,0,1-.225.321,14.821,14.821,0,0,1-.166-2.417c.453-.026.869-.065,1.286-.061a.351.351,0,0,1,.253.232,11.576,11.576,0,0,1,.021,2.235c-.545-.3-.285-.729-.332-1.059-.049-.351-.037-.711-.054-1.113" transform="translate(12.933 11.5)" fill="#001d63"/>
        <path id="Path_2480" d="M171.309,958.7c-.414-.309-.031-.786-.274-1.174l-.647-.03c-.012.227-.019.412-.033.6s-.038.362-.068.638c-.5-.362-.278-.8-.318-1.157a11.606,11.606,0,0,1-.01-1.263c.577.089.222.582.5.856l.619.063c.049-.337.094-.636.156-1.047a3.562,3.562,0,0,1,.077,2.515" transform="translate(17.329 11.502)" fill="#001d63"/>
        <path id="Path_2481" d="M165.448,956.273c.414.278.009.75.3,1.1l.64-.128c.035-.348.065-.661.108-1.1.363.474.213.914.276,1.3a1.689,1.689,0,0,1-.119,1.2c-.336-.3-.136-.645-.3-.958H165.7c-.037.325-.072.646-.117,1.052a3.274,3.274,0,0,1-.135-2.459" transform="translate(13.836 11.462)" fill="#001d63"/>
        <path id="Path_2482" d="M168.317,957.639h-.584c-.059.318-.117.624-.192,1.033-.128-.134-.241-.2-.241-.264-.007-.666,0-1.332.017-2,0-.045.077-.089.19-.212.08.418.147.762.213,1.11h.584c.031-.381.063-.736.094-1.12.292.327.377,1.057.294,2.268-.33-.016-.33-.016-.376-.82" transform="translate(15.349 11.502)" fill="#001d63"/>
        <path id="Path_2483" d="M166.907,958.292c-.348.016-.7.031-1.12.052.042.281.077.522.119.807h.837l.023.136-.846.229v.8c.351.026.664.051.991.077-.271.466-.318.376-1.361.182-.121-.774.044-1.582-.077-2.408a2.211,2.211,0,0,1,1.428-.019l.007.14" transform="translate(13.984 12.887)" fill="#001d63"/>
        <path id="Path_2484" d="M171.064,960.764a1.217,1.217,0,0,1,.028-.236,4.013,4.013,0,0,0,.376-1.157,3.578,3.578,0,0,0-.407-1.127,4.5,4.5,0,0,1,1.751-.094c-.194.327-.425.231-.613.251-.206.019-.412.026-.647.042a1.7,1.7,0,0,1,0,1.886.779.779,0,0,0-.028.225c.391.028.772.056,1.277.091a2.2,2.2,0,0,1-1.735.119" transform="translate(18.163 12.933)" fill="#001d63"/>
        <path id="Path_2485" d="M171.538,956.547c.014.33.367.563.178.93a5.659,5.659,0,0,0-.285.862l.928.1c-.4.344-.82.255-1.325.175a5.047,5.047,0,0,1,.171-.739,1.231,1.231,0,0,0-.082-1.332c-.033-.044-.019-.122-.033-.219a2.44,2.44,0,0,1,1.419-.1c-.26.416-.673.1-.972.328" transform="translate(18.143 11.483)" fill="#001d63"/>
        <path id="Path_2486" d="M169.56,956.5l-.718-.124a2.217,2.217,0,0,1,1.72-.018l-.51.145c-.273.683.124,1.442-.234,2.115-.01.017-.079,0-.161,0-.19-.683.051-1.4-.1-2.12" transform="translate(16.504 11.508)" fill="#001d63"/>
        <path id="Path_2487" d="M168.157,958.039a1.583,1.583,0,0,1,.159.43c.031.748.044,1.5.052,2.244,0,.023-.1.049-.154.073a4.238,4.238,0,0,1-.058-2.747" transform="translate(15.84 12.884)" fill="#001d63"/>
        <path id="Path_2488" d="M166.808,956.617v1.868l-.1.047c-.075-.1-.211-.2-.213-.3-.021-.64-.01-1.279-.01-1.989l1.167-.065c-.211.439-.622.159-.842.437" transform="translate(14.738 11.495)" fill="#001d63"/>
        <path id="Path_2489" d="M165.927,959.536a2.568,2.568,0,0,1-1.762.1,1.99,1.99,0,0,1,1.762-.1" transform="translate(13.007 13.892)" fill="#001d63"/>
        <path id="Path_2490" d="M165.843,958.3a4.112,4.112,0,0,1-1.709.037,1.509,1.509,0,0,1,1.709-.037" transform="translate(12.984 12.893)" fill="#001d63"/>
        <path id="Path_2491" d="M164.323,958.8h1.164a1.144,1.144,0,0,1-1.162.168l0-.168" transform="translate(13.125 13.455)" fill="#001d63"/>
        <path id="Path_2492" d="M165.442,980.437c-.147-.327-.28-.662-.447-.98a6.662,6.662,0,0,0-.6-.984.6.6,0,0,0-.477-.208.434.434,0,0,0-.344.54,1.47,1.47,0,0,0,.37.71c.426.381.91.7,1.37,1.041Z" transform="translate(12.557 28.001)" fill="#52b9e4" fill-rule="evenodd"/>
        <path id="Path_2493" d="M167.208,980.091a5.115,5.115,0,0,0,.274,1.042c.033.087.246.156.369.145.084-.009.17-.161.224-.264a1.34,1.34,0,0,0,.024-.381,3.464,3.464,0,0,0-.243-.723c-.072-.128-.306-.164-.468-.243-.063.141-.2.3-.18.425" transform="translate(15.281 29.052)" fill="#52b9e4" fill-rule="evenodd"/>
        <path id="Path_2494" d="M164.527,975.6a4.907,4.907,0,0,0,1.339,1.512l.15-.053c-.122-.69-.222-1.386-.383-2.069a1.032,1.032,0,0,0-.412-.542.5.5,0,0,0-.844.419,1.616,1.616,0,0,0,.15.732" transform="translate(13.165 25.054)" fill="#52b9e4" fill-rule="evenodd"/>
        <path id="Path_2495" d="M166.092,983.3c-.806-.725-1.281-.869-1.91-.563a1.627,1.627,0,0,0,1.316,1.008.546.546,0,0,0,.594-.446" transform="translate(13.02 31.233)" fill="#52b9e4" fill-rule="evenodd"/>
        <path id="Path_2496" d="M166.637,985.214a1.448,1.448,0,0,0-1.679-.3c-.266.142-.278.364-.03.559a1.317,1.317,0,0,0,1.709-.257" transform="translate(13.445 32.861)" fill="#52b9e4" fill-rule="evenodd"/>
        <path id="Path_2497" d="M166.124,986.525c-.136-.292-.285-.383-.542-.136a.327.327,0,0,0,.542.136" transform="translate(14.067 33.971)" fill="#52b9e4" fill-rule="evenodd"/>
        <path id="Path_2498" d="M162.638,986.412c.185.093.363.147.538-.164h-.556Z" transform="translate(11.852 33.972)" fill="#52b9e4" fill-rule="evenodd"/>
        <path id="Path_2499" d="M162.732,985.708c.147.416.3.386.582.084Z" transform="translate(11.936 33.568)" fill="#52b9e4" fill-rule="evenodd"/>
        <path id="Path_2500" d="M162.543,986.127c-.1-.192-.22-.308-.456-.183.187.224.187.224.456.183" transform="translate(11.454 33.706)" fill="#52b9e4" fill-rule="evenodd"/>
        <path id="Path_2501" d="M161.166,983.059l.734.155.059-.234c-.215-.037-.409-.248-.793.079" transform="translate(10.765 31.454)" fill="#52b9e4" fill-rule="evenodd"/>
        <path id="Path_2502" d="M160.178,982.868c.2.175.358.246.537-.049-.2-.114-.36-.248-.537.049" transform="translate(10.027 31.311)" fill="#52b9e4" fill-rule="evenodd"/>
        <path id="Path_2503" d="M160.929,982.5l.3.125.054-.14-.326-.086Z" transform="translate(10.589 31.094)" fill="#52b9e4" fill-rule="evenodd"/>
        <path id="Path_2504" d="M162.565,982.62a1.547,1.547,0,0,0,.1.316c.124-.224.182-.285.168-.311a.188.188,0,0,0-.138-.091c-.044,0-.128.056-.126.086" transform="translate(11.811 31.196)" fill="#52b9e4" fill-rule="evenodd"/>
        <path id="Path_2505" d="M163.262,982.334a.924.924,0,0,0,.15.176c.017.012.091-.047.171-.091l-.161-.211Z" transform="translate(12.332 30.952)" fill="#52b9e4" fill-rule="evenodd"/>
        <path id="Path_2506" d="M164.548,983.2H164.2l-.008.117.346.057Z" transform="translate(13.025 31.692)" fill="#52b9e4" fill-rule="evenodd"/>
        <path id="Path_2507" d="M158.127,982.259c.224.275.36.259.634,0Z" transform="translate(8.494 30.99)" fill="#52b9e4" fill-rule="evenodd"/>
        <path id="Path_2508" d="M161.036,980.22c.248.169.418.162.589-.075-.227-.1-.4-.128-.589.075" transform="translate(10.668 29.352)" fill="#52b9e4" fill-rule="evenodd"/>
        <path id="Path_2509" d="M162.59,970.066a10.156,10.156,0,0,1-.419-1.342,8.408,8.408,0,0,1,.3-2.052c.019.907.112,2.487.122,3.394" transform="translate(11.517 19.338)" fill="#fff" fill-rule="evenodd"/>
        <path id="Path_2510" d="M163.6,971.8a5.863,5.863,0,0,1-.844-1.643,5.532,5.532,0,0,1,.161-2.06,16.364,16.364,0,0,0,.683,3.7" transform="translate(11.93 20.403)" fill="#fff" fill-rule="evenodd"/>
    </g>
</svg>
