<svg xmlns="http://www.w3.org/2000/svg" width="92.466" height="60.15" viewBox="0 0 92.466 60.15">
    <g id="icon" transform="translate(-337.897 -754.991)">
        <path id="Path_3104" d="M411.507,756.877h-65.4a6.694,6.694,0,0,1-6.2,6.2v33.987a6.694,6.694,0,0,1,6.2,6.2h65.4a6.693,6.693,0,0,1,6.2-6.2V763.077a6.694,6.694,0,0,1-6.2-6.2" transform="translate(5.322 4.996)" fill="#001d63" fill-rule="evenodd"/>
        <path id="Path_3105" d="M337.9,754.991h0v0Zm0,60.15h92.466v-60.15H337.9Zm86.92-11.775h-.482a5.871,5.871,0,0,0-5.864,5.864v.485H349.789v-.485a5.877,5.877,0,0,0-5.871-5.864h-.482v-36.6h.482a5.876,5.876,0,0,0,5.871-5.868v-.482h68.682v.482a5.87,5.87,0,0,0,5.864,5.868h.482Z" transform="translate(0 0)" fill="#001d63" fill-rule="evenodd"/>
        <path id="Path_3106" d="M348.341,760.641c.157.106.321.2.478.318.208.146.416.3.624.452.387.285.755.6,1.157.876a2.54,2.54,0,0,1,.587.467,2.189,2.189,0,0,0,.307.244.274.274,0,0,1,.1.314c-.033.113-.069.237-.215.266a.078.078,0,0,0-.051.033,1.848,1.848,0,0,1-.431.376,3.049,3.049,0,0,0-.288.248c-.274.233-.544.478-.832.7-.226.179-.471.325-.708.485-.175.128-.347.252-.515.376l-.281.208a1.334,1.334,0,0,0-.219.212,1.354,1.354,0,0,0,.172-.007c.2,0,.4-.011.6-.018.047,0,.1-.011.153-.011.284,0,.569-.007.854,0,.044,0,.084.036.124.044a1.008,1.008,0,0,0,.183-.015,1.491,1.491,0,0,1,.4-.036,3.408,3.408,0,0,0,.609-.018,5.2,5.2,0,0,1,.533-.018,2.249,2.249,0,0,0,.566-.018c.186-.018.376,0,.562,0s.361-.026.544-.022.339.026.507.04a.092.092,0,0,0,.069,0,3.117,3.117,0,0,1,.737-.044c.058,0,.12-.007.179-.007a.277.277,0,0,1,.321.274,1.056,1.056,0,0,1,0,.478.219.219,0,0,0,.022.131.287.287,0,0,1-.15.42.37.37,0,0,1-.058.018c-.161.011-.325.026-.485.026a4.389,4.389,0,0,1-.69-.04.852.852,0,0,0-.168.007,5.5,5.5,0,0,1-.912.087c-.171,0-.339.018-.507.026h-.106a1.686,1.686,0,0,0-.463-.026c-.135.033-.281-.055-.405.051a.533.533,0,0,0-.263,0,1.854,1.854,0,0,1-.2.015h-.441c-.1,0-.2.007-.3.011-.139.007-.281.026-.42.026-.182.007-.365,0-.547,0s-.394.014-.595.014c-.12,0-.237-.007-.361-.007-.069,0-.142.011-.208.011-.463-.022-.923-.047-1.387-.069a1.779,1.779,0,0,1-.281-.047.256.256,0,0,1-.223-.288.525.525,0,0,1,.055-.263.341.341,0,0,0,.018-.164.237.237,0,0,1,.095-.248.2.2,0,0,0,.051-.12.374.374,0,0,1,.146-.274c.252-.2.5-.412.748-.62.172-.15.339-.3.515-.449s.343-.277.515-.413c.084-.066.161-.138.241-.208.161-.157.318-.314.482-.463.193-.175.39-.35.584-.526l.219-.193c-.219-.157-.423-.3-.628-.445a11.737,11.737,0,0,1-1.011-.806,2.955,2.955,0,0,0-.372-.263c-.047-.037-.095-.07-.146-.113-.237-.2-.489-.387-.741-.562-.2-.139-.39-.27-.591-.4a.481.481,0,0,1-.15-.186.122.122,0,0,1,.007-.139c.051-.087.084-.182.124-.27l-.037-.037c-.172-.087-.172-.226-.117-.423a.247.247,0,0,1,.248-.139c.306.026.62.047.934.062.164.008.328-.007.5-.011a1.029,1.029,0,0,1,.3-.014c.179.058.343-.026.515-.018.088,0,.182.007.27,0s.186-.033.281-.044.208-.007.31-.018a1.468,1.468,0,0,1,.328-.033,6.238,6.238,0,0,0,.642-.018h.029c.336,0,.675.007,1.011-.007.223-.011.449-.044.671-.062a3.33,3.33,0,0,1,.336,0c.018,0,.04.014.058.007a1.371,1.371,0,0,1,.584-.018c.244.007.493.011.737.011.288.007.58.007.868.007a.2.2,0,0,1,.237.2.7.7,0,0,0,.091.237.407.407,0,0,1,.04.438c-.029.062,0,.149,0,.219a.218.218,0,0,1-.208.23,1.478,1.478,0,0,1-.522,0,1.137,1.137,0,0,0-.27-.018q-.153-.022-.3-.033a2.027,2.027,0,0,0-.259-.015c-.219,0-.442.015-.664.015-.339.007-.682.007-1.025.007-.095,0-.193-.007-.3-.007-.314,0-.624.007-.938.011-.084,0-.168.026-.255.026-.223,0-.453,0-.675,0h-.135c-.328-.007-.664-.014-1-.014h-.131Z" transform="translate(21.481 11.358)" fill="#fff" fill-rule="evenodd"/>
        <path id="Path_3107" d="M359.258,760.029h.088c0,.091,0,.179-.007.27a.266.266,0,0,1-.033.084.106.106,0,0,1-.131.073,2.35,2.35,0,0,0-.6.011,1.871,1.871,0,0,1-.555.029c-.051-.011-.109.018-.164.018h-.847c-.27,0-.544,0-.814,0-.183,0-.361-.018-.544-.022-.1,0-.2.018-.3.018-.416.011-.828.014-1.237.018-.172,0-.343-.015-.514-.015-.146,0-.288.015-.434.026-.08.007-.161.022-.255.033-.011.2-.022.4-.029.595,0,.113-.007.223-.015.332,0,.051-.011.1-.007.15a1.827,1.827,0,0,1-.04.6,1.782,1.782,0,0,0-.018.252c.314,0,.617,0,.916.007.142,0,.285.014.423.007.113,0,.226-.033.343-.029a.957.957,0,0,1,.431.029l.055-.011c.146,0,.292,0,.438-.007l.12,0c.241-.011.478-.033.723-.037.109,0,.215,0,.328,0a2.116,2.116,0,0,1,.5.022,3.887,3.887,0,0,0,.584.007c.1,0,.2.011.3.018.055.106.106.186.142.277a.2.2,0,0,1,0,.139c-.113.1-.062.223-.044.325.044.281-.051.376-.343.336a1.023,1.023,0,0,0-.234.018c-.161,0-.321,0-.482-.007-.31,0-.617-.007-.923-.007a3.645,3.645,0,0,0-.525.018,4.061,4.061,0,0,1-.42,0c-.2,0-.39.011-.588.014-.106,0-.212,0-.317,0-.409.007-.817.018-1.226.029l-.029,0c-.2.018-.2.022-.2.226,0,.179-.018.354-.026.533a2.623,2.623,0,0,1,.007.416,2.189,2.189,0,0,1-.069.485c.029.241-.069.478-.026.73.058-.029.128.058.186-.018.066.073.15.033.226.044s.15.011.223.018.153,0,.23.007l.226,0c.084,0,.16,0,.244,0s.15-.014.223-.011c.2.007.4.026.6.029.128,0,.259-.014.394-.018.062,0,.128.007.19.007.237.007.474.015.711.018.263,0,.522,0,.785-.007.208,0,.416-.011.62-.011.522-.007,1.04-.007,1.558-.007a.683.683,0,0,1,.193.018.387.387,0,0,1,.248.394.522.522,0,0,1-.015.131.144.144,0,0,0,.036.15.721.721,0,0,1,.11.226.2.2,0,0,1-.12.274.632.632,0,0,1-.2.044c-.237.011-.471.018-.708.026l-.394.011c-.27.011-.544.018-.817.029-.234.007-.471.022-.708.029-.2.007-.39,0-.584.015a6.538,6.538,0,0,1-.923-.011,6.845,6.845,0,0,0-.726,0c-.31.011-.62.018-.934,0-.237-.011-.471,0-.712,0-.307,0-.613.007-.916-.014a.89.89,0,0,1-.288-.121.288.288,0,0,0-.1-.284.237.237,0,0,1-.088-.252,7.5,7.5,0,0,0,.018-.905c0-.215,0-.434.007-.653.011-.255.04-.511.058-.766,0-.051,0-.1,0-.153,0-.3.007-.606.007-.909a2.011,2.011,0,0,0-.011-.256c-.062-.4,0-.8-.022-1.193-.022-.376-.033-.748-.047-1.124-.011-.19-.022-.38-.036-.569a2.652,2.652,0,0,0-.055-.343.27.27,0,0,1,.12-.3c.04-.029.131-.022.113-.113a.283.283,0,0,0,.08-.014,1.708,1.708,0,0,1,.642-.168c.255-.033.518-.051.781-.062.186-.007.38.007.573.007a5.8,5.8,0,0,0,.617-.007,6.284,6.284,0,0,1,.828.007c.281.011.566.018.847.026.124,0,.248,0,.372,0a1.283,1.283,0,0,1,.266.022.718.718,0,0,0,.3-.018,2.224,2.224,0,0,1,.314-.015l.752-.022c.1,0,.193,0,.292.007.16,0,.317.007.478.007a.633.633,0,0,1,.467.245.345.345,0,0,1,.077.343,1.419,1.419,0,0,0-.022.19" transform="translate(35.637 11.207)" fill="#fff" fill-rule="evenodd"/>
        <path id="Path_3108" d="M352.563,760.555a.972.972,0,0,0-.131-.022c-.183.007-.361.022-.544.029s-.358,0-.54,0c-.248,0-.5,0-.748.029a3.374,3.374,0,0,1-.857-.059c-.164-.022-.332-.04-.5-.055-.051,0-.1.011-.153.014-.08.007-.157.015-.237.015-.15,0-.2-.051-.2-.2,0-.073.011-.146.011-.223a.14.14,0,0,0-.011-.069.5.5,0,0,1,.073-.529c.095-.014.172-.033.259-.044a3.187,3.187,0,0,1,.372-.029c.237,0,.482,0,.723.011a3.236,3.236,0,0,0,.372,0c.3-.007.595-.007.89-.011.077,0,.15,0,.226-.007.307-.011.609-.029.912-.033.095,0,.193.055.281.04a1.345,1.345,0,0,1,.27-.022c.084,0,.168-.033.252-.037.343-.014.686-.029,1.025-.036a2.686,2.686,0,0,1,.339.044h.044a4.687,4.687,0,0,1,.9-.033c.12,0,.241-.011.361-.015l.573-.011c.186-.008.368-.026.555-.018a.95.95,0,0,1,.252.081c.044.018.084.044.135.069a.184.184,0,0,0,.026.091.289.289,0,0,1,.073.278,1.451,1.451,0,0,0,.007.252v.018c.007.252-.124.368-.361.3a.438.438,0,0,0-.215-.007,3.335,3.335,0,0,0-.474.066,1.975,1.975,0,0,1-.463,0c-.19,0-.383.022-.569.026a2.026,2.026,0,0,1-.3-.04.182.182,0,0,0-.062,0,4.941,4.941,0,0,1-1.04.036,1.749,1.749,0,0,0-.237.026c-.011.153-.018.306-.036.456a1.4,1.4,0,0,0-.022.35,2.75,2.75,0,0,1-.015.427.448.448,0,0,0,.018.208.45.45,0,0,1,.015.186c0,.212,0,.423.011.631.015.288.036.58.044.869,0,.172-.015.35-.022.522a.665.665,0,0,0,.007.12,1.108,1.108,0,0,1,0,.347,2.209,2.209,0,0,0,0,.58,2.277,2.277,0,0,1-.007.387c.015.172-.029.343,0,.518.007.081-.04.168.047.226-.062.077,0,.168-.026.252a.921.921,0,0,0-.018.266c0,.044-.026.11.051.12-.007.084.015.186-.026.252a.558.558,0,0,1-.507.226,2.779,2.779,0,0,1-.551-.036c-.157-.033-.193-.073-.208-.23a6.015,6.015,0,0,1,.015-1.116c.029-.369.007-.744.026-1.113s-.022-.716.007-1.073a6.31,6.31,0,0,0-.011-.741c0-.259.011-.514,0-.774-.011-.288-.026-.573-.047-.861-.015-.2-.044-.409-.058-.617a2.994,2.994,0,0,1,.011-.306" transform="translate(28.393 11.371)" fill="#fff" fill-rule="evenodd"/>
        <path id="Path_3109" d="M354.184,759.361c.113-.058.255,0,.365-.1a.087.087,0,0,1,.069-.015.9.9,0,0,0,.325-.044.147.147,0,0,1,.113.029,1.614,1.614,0,0,1,.2.157.194.194,0,0,1,.04.113,2,2,0,0,1,.029.252c.018.328.033.653.047.978.022.409.058.817.051,1.223s.077.792.077,1.19c0,.314.015.624-.018.934s-.018.635-.044.952c-.018.2,0,.4,0,.6s-.007.43-.011.646c0,.161.007.325-.011.482a1.663,1.663,0,0,1-.091.376c-.029.08-.146.106-.237.077a1.308,1.308,0,0,0-.489-.084.439.439,0,0,0-.069.011.354.354,0,0,1-.474-.259,3.866,3.866,0,0,1-.029-.544c-.007-.233-.007-.463,0-.7s.018-.453.025-.679c.011-.325.022-.646.037-.967.007-.172.022-.343.029-.518,0-.153,0-.31,0-.467.007-.212.011-.42.015-.631a1.38,1.38,0,0,1,.018-.3c.018-.062-.109-.095-.018-.153-.029-.062.036-.12.007-.19s0-.132,0-.194c-.011-.12-.029-.237-.037-.354,0-.091.011-.182.015-.274,0-.172.007-.343-.007-.511-.011-.106-.025-.212-.033-.321a2.251,2.251,0,0,1,.117-.719" transform="translate(42.692 11.153)" fill="#fff" fill-rule="evenodd"/>
        <path id="Path_3110" d="M354.436,759.71l.022-.018c-.007-.073.04-.135.047-.2a.892.892,0,0,0-.026-.215l-.007-.026c.062-.106.029-.23.055-.339a.349.349,0,0,1,.281-.212c.175-.04.354-.062.533-.087a.41.41,0,0,1,.427.186.215.215,0,0,1-.033.321.3.3,0,0,0-.055.27.785.785,0,0,1-.051.332.378.378,0,0,1-.3.226,3.354,3.354,0,0,1-.343.073.225.225,0,0,0-.084.026c-.058.051-.1.047-.15-.018l-.036-.022a.319.319,0,0,1-.223-.223.259.259,0,0,0-.055-.069" transform="translate(43.812 9.567)" fill="#fff" fill-rule="evenodd"/>
        <path id="Path_3111" d="M353.805,759.96a.472.472,0,0,1-.182-.43,2.765,2.765,0,0,0-.022-.522.22.22,0,0,1,.285-.281.6.6,0,0,0,.394-.018.946.946,0,0,1,.219-.051.339.339,0,0,1,.336.343c0,.117-.026.226-.033.343a1.608,1.608,0,0,0,0,.23.262.262,0,0,1-.088.233c-.015.015-.026.033-.04.033a2.819,2.819,0,0,1-.347.051.477.477,0,0,0-.3.081.164.164,0,0,1-.226-.011" transform="translate(41.579 9.711)" fill="#fff" fill-rule="evenodd"/>
        <path id="Path_3112" d="M364.285,774.037h0a2.252,2.252,0,0,1-.536.372,1.01,1.01,0,0,0-.376.277,1.953,1.953,0,0,1-.5.39l-.022.007a2.261,2.261,0,0,1-1.087.562.107.107,0,0,0-.073.055,1.248,1.248,0,0,1-.81.376c-.285.051-.562.146-.843.193-.387.073-.774.132-1.157.172a6.516,6.516,0,0,1-.883.026c-.31-.007-.617-.033-.919-.066-.365-.044-.726-.081-1.087-.146a10.085,10.085,0,0,1-1.153-.292,7.315,7.315,0,0,1-.774-.336c-.285-.146-.573-.3-.85-.452-.106-.062-.2-.139-.3-.212-.128-.095-.252-.193-.376-.288-.029-.018-.069-.029-.077-.051-.062-.172-.248-.208-.35-.339a1.443,1.443,0,0,0-.339-.358c-.106-.069-.091-.179-.161-.252-.117-.124-.172-.318-.35-.394a1.19,1.19,0,0,0-.223-.412,2.273,2.273,0,0,1-.23-.474,1.049,1.049,0,0,0-.277-.372,1.055,1.055,0,0,1-.234-.54,1.393,1.393,0,0,1-.029-.792c-.135-.237.022-.471,0-.708l0-.044a4.036,4.036,0,0,0,.2-.993c.131-.1.1-.263.146-.394.015-.033-.026-.091-.015-.131s.08-.04.1-.077a.241.241,0,0,0,.036-.172c-.029-.069,0-.095.04-.131a.3.3,0,0,0,.055-.1,1.577,1.577,0,0,1,.372-.737c.015-.026.051-.055.044-.077-.022-.161.139-.215.186-.336a1.9,1.9,0,0,1,.223-.369c.033-.051.128-.081.128-.117,0-.11.058-.084.12-.11s.055-.168.164-.179a1.864,1.864,0,0,1,.617-.551c.277-.172.518-.4.8-.558a9.06,9.06,0,0,1,1.058-.5c.317-.131.657-.23.993-.332a2.458,2.458,0,0,1,.423-.077c.394-.033.781-.058,1.168-.08.354-.022.7-.044,1.058-.044.31,0,.624,0,.934.022s.62.088.927.128c.124.018.248.025.365.047a.684.684,0,0,1,.318.106,1.461,1.461,0,0,0,.671.277,4.571,4.571,0,0,1,.9.339,7.644,7.644,0,0,1,1.149.569,2.276,2.276,0,0,1,.38.289,5.137,5.137,0,0,1,.639.748,3.869,3.869,0,0,1,.551.96c.069.212.208.391.292.588a3.643,3.643,0,0,1,.358,1.3c.007.372.047.737.066,1.113a.5.5,0,0,1-.015.179,5.473,5.473,0,0,1-.533,1.81c-.113.19-.146.416-.245.617a4.28,4.28,0,0,1-.649,1.065m-10.721-7.061c-.2.263-.387.467-.533.7a4.518,4.518,0,0,0-.339.723,7.755,7.755,0,0,0-.332,1.022,5.408,5.408,0,0,0-.077,1.646,2.094,2.094,0,0,0,.872,1.6,8.589,8.589,0,0,0,1.237.737,4.2,4.2,0,0,0,.657.321,4.421,4.421,0,0,0,1.463.329c.529-.015,1.062.044,1.595.037a15.125,15.125,0,0,0,1.9-.117,5.811,5.811,0,0,0,1.839-.675,2.477,2.477,0,0,0,1.007-1.1,4.569,4.569,0,0,0,.518-1.317c.047-.281.109-.558.175-.832a1.493,1.493,0,0,0-.044-.876c-.062-.15-.131-.3-.179-.445a4.958,4.958,0,0,0-.376-.836,2.084,2.084,0,0,0-.752-.847,3.685,3.685,0,0,1-.434-.263,8.745,8.745,0,0,0-1.018-.456l-.047-.007c-.168-.026-.332-.062-.5-.088a1.451,1.451,0,0,0-.7-.036.627.627,0,0,1-.3,0c-.131-.018-.248-.051-.277-.219a.31.31,0,0,0-.153-.208,1.251,1.251,0,0,0-.5-.069,1.885,1.885,0,0,1-.879,0,.317.317,0,0,0-.131.007c-.091.008-.172.022-.255.022a6.082,6.082,0,0,0-1.288.12,2.29,2.29,0,0,0-.682.219c-.175.1-.394.124-.569.233C354.144,766.513,353.838,766.768,353.564,766.976Z" transform="translate(32.627 23.538)" fill="#fff" fill-rule="evenodd"/>
        <path id="Path_3113" d="M347.619,772.493h0c-.018.219-.044.43-.055.646-.015.248-.015.5-.033.748-.011.139-.062.263-.066.394-.007.263.011.522.011.777,0,.161-.011.314-.011.471,0,.117,0,.241.015.361a.4.4,0,0,1-.117.38.408.408,0,0,1-.332.146c-.146-.015-.3.007-.453-.018a.4.4,0,0,0-.281.029c-.23.12-.606-.175-.595-.456.018-.449.033-.9.055-1.35.036-.693.084-1.383.113-2.076.011-.263-.007-.533-.007-.8,0-.106.029-.212.029-.317,0-.3-.015-.584-.015-.872,0-.237.015-.475.029-.712.007-.175.026-.35.033-.525.018-.314.037-.62.044-.934.007-.248,0-.493-.007-.73,0-.219-.011-.438-.015-.657-.007-.526-.026-1.051-.018-1.576,0-.383.033-.763.058-1.146.022-.219.135-.3.4-.332.182-.018.361-.055.547-.062a2.31,2.31,0,0,1,.617.007,4.2,4.2,0,0,0,1.208.025,5.986,5.986,0,0,1,1.142.011c.263.026.525.015.792.026s.562.033.843.036c.2.008.394,0,.591,0a2.743,2.743,0,0,1,.343.022c.27.029.54.055.81.088.321.044.646.029.963.1a5.419,5.419,0,0,0,.77.062c.551.044,1.1.168,1.642.255.109.015.212.04.317.051a.935.935,0,0,1,.376.164c.146.1.328.142.485.23a2.076,2.076,0,0,1,.8.733,8.651,8.651,0,0,1,.544.869,3.237,3.237,0,0,1,.438,1.076,3.3,3.3,0,0,1-.252,1.989c-.113.2-.215.405-.31.613a3,3,0,0,1-.854,1.018,2.633,2.633,0,0,1-.628.347,6.415,6.415,0,0,1-1.554.46c-.317.047-.65.047-.967.109a10.6,10.6,0,0,1-1.47.179c-.226.015-.449.015-.671.015a.107.107,0,0,1-.047,0,5.382,5.382,0,0,1-1.368.062c-.1,0-.193.029-.3.036-.369.015-.744.015-1.117.033-.23.011-.452.051-.682.055-.274.007-.547,0-.825-.011s-.573-.014-.861-.026a.378.378,0,0,1-.1-.025m3.164-1.876c.084-.018.066.081.164.062.164-.044.347.011.511-.033a3.086,3.086,0,0,1,.485-.036.4.4,0,0,0,.117-.011.957.957,0,0,1,.3-.077,10.881,10.881,0,0,0,1.2-.029,7.7,7.7,0,0,0,1.923-.259,3.257,3.257,0,0,0,1.2-.536,2.21,2.21,0,0,0,.952-1.328,1.035,1.035,0,0,0-.026-.606c-.073-.2-.164-.394-.248-.588a.969.969,0,0,0-.478-.507c-.2-.1-.416-.183-.631-.263a1.088,1.088,0,0,0-.339-.124c-.464-.058-.927-.1-1.387-.146-.193-.018-.394-.018-.591-.036a6.647,6.647,0,0,0-1.04-.106,7.414,7.414,0,0,1-.945-.055c-.208-.022-.42-.058-.631-.069s-.405,0-.609-.015c-.609-.026-1.219-.073-1.828-.088-.325-.011-.653.026-.978.04a.959.959,0,0,0-.026.153c0,.515.026,1.033.011,1.547-.022.781-.069,1.569-.1,2.346-.011.263-.015.529-.022.788.051.011.069.029.091.029.358-.011.719-.026,1.077-.044.055,0,.109-.055.164-.047.263.022.529.062.792.088s.558.037.839.055c.015,0,.026-.011.04-.018Z" transform="translate(20.678 23.513)" fill="#fff" fill-rule="evenodd"/>
        <path id="Path_3114" d="M370.49,764.136a1.334,1.334,0,0,1,.219-.106.288.288,0,0,1,.42.182.525.525,0,0,1-.2.639,8.026,8.026,0,0,0-.671.649c-.3.317-.58.649-.876.971-.383.412-.785.81-1.16,1.23-.325.365-.719.642-1.069.974-.42.4-.85.8-1.255,1.215-.31.332-.569.7-.868,1.04a5.67,5.67,0,0,1-.668.657.692.692,0,0,0-.219.595c0,.38,0,.752.029,1.124.051.6-.015,1.208.007,1.814a2.792,2.792,0,0,1-.23,1.095.354.354,0,0,0-.044.15.467.467,0,0,1-.431.489c-.3.044-.591.069-.887.109a1.3,1.3,0,0,0-.241.055.476.476,0,0,1-.584-.4c-.007-.084-.029-.161-.044-.241a.311.311,0,0,1-.022-.113c.04-.475.073-.938.124-1.409.018-.186.069-.368.095-.555.011-.077-.04-.164.047-.226a.192.192,0,0,0,.022-.132c-.015-.226-.04-.449-.058-.675l0-.058c-.259-.179-.376-.474-.609-.668a3.055,3.055,0,0,1-.5-.624,5.648,5.648,0,0,0-.719-.865,8.81,8.81,0,0,1-.814-.923c-.2-.244-.4-.485-.6-.726a.907.907,0,0,1-.058-.069,10.778,10.778,0,0,0-.92-1.12c-.463-.529-.9-1.084-1.361-1.613-.27-.314-.562-.609-.839-.916-.084-.087-.15-.193-.237-.281a1.463,1.463,0,0,0-.252-.226.494.494,0,0,1-.245-.638c.037-.117.073-.234.106-.336a1.045,1.045,0,0,1,.744-.113c.215.025.445,0,.66.037s.416-.062.617.014a.76.76,0,0,1,.343.219c.3.35.606.693.909,1.044s.606.708.9,1.065c.252.3.485.606.737.9.121.132.277.234.4.369.347.383.682.777,1.022,1.171.212.237.42.482.635.719.164.182.336.354.507.525.08.088.146.051.2-.029.128-.19.259-.376.4-.558.088-.12.193-.233.292-.35.142-.168.281-.343.423-.515s.285-.317.43-.474c.387-.4.77-.8,1.149-1.19.237-.248.456-.493.7-.734.161-.161.343-.31.507-.463.117-.109.219-.241.336-.347.35-.3.679-.631,1.007-.963a8.547,8.547,0,0,1,.733-.621c.062-.044.172-.1.223-.073a2.275,2.275,0,0,0,.66.069,3.117,3.117,0,0,0,.69.022c.168-.011.263.1.39.2" transform="translate(44.602 23.437)" fill="#fff" fill-rule="evenodd"/>
        <path id="Path_3115" d="M354.738,764.042c.226.095.277.325.354.533a1.345,1.345,0,0,1,.022.4,3.811,3.811,0,0,1-.022.5.31.31,0,0,1-.135.2.907.907,0,0,1-.6.113,3.331,3.331,0,0,0-.89-.047,8.812,8.812,0,0,0-1.321.066,13.555,13.555,0,0,1-1.438.026c-.255.011-.5.04-.759.066-.164.015-.332.036-.5.051.022.168.055.383.08.6.055.456.113.912.153,1.369.026.288.015.58.029.868a17.859,17.859,0,0,1-.069,1.927c-.015.314,0,.628-.026.945a11.34,11.34,0,0,1-.077,1.609.411.411,0,0,0,0,.069,5.981,5.981,0,0,1-.117,1.248,6.748,6.748,0,0,0-.058.865c-.018.274-.022.551-.055.821a.369.369,0,0,1-.172.226,2.041,2.041,0,0,1-.445.175.3.3,0,0,1-.179-.014.691.691,0,0,0-.489-.1c-.193.044-.292-.08-.39-.186a.439.439,0,0,1-.131-.361,2.283,2.283,0,0,0-.018-.387l.084-.011a5.012,5.012,0,0,1,.015-.777,1.422,1.422,0,0,0,0-.69l0-.04c.19-.245.047-.533.117-.788.015-.069-.04-.153-.062-.223.018-.015.069-.04.069-.066a2.774,2.774,0,0,0-.011-.427c-.022-.168.08-.35-.044-.507.168-.219.051-.467.077-.7.007-.069-.084-.146.018-.208l-.058-.077a.909.909,0,0,0,.084-.256c0-.193-.029-.387-.047-.58a2.6,2.6,0,0,1,.044-.292,1.192,1.192,0,0,0,.011-.343c-.036-.376-.088-.755-.12-1.128a.462.462,0,0,1,.011-.263.672.672,0,0,0,.015-.27c-.018-.369-.047-.73-.073-1.095a1.615,1.615,0,0,1,.011-.35,3.522,3.522,0,0,0,0-.518,1.689,1.689,0,0,0-.2-.026c-.449-.015-.9-.029-1.35-.036-.511-.014-1.018-.018-1.533-.029-.42-.015-.836-.033-1.259-.047a3.356,3.356,0,0,0-1.16.084.384.384,0,0,1-.431-.186,1.1,1.1,0,0,1-.091-.7,2.8,2.8,0,0,0,.029-.631.549.549,0,0,1,.091-.361.212.212,0,0,1,.223-.121c.529.051,1.058-.011,1.58.026.715.047,1.419-.077,2.131-.077.347-.008.7.018,1.051.018a14.219,14.219,0,0,0,1.576-.018,2.461,2.461,0,0,1,.369.007,13.4,13.4,0,0,0,1.752-.044,9.525,9.525,0,0,1,1.069,0c.215,0,.434.011.646.018a14.454,14.454,0,0,1,1.54.139,1.474,1.474,0,0,0,.7-.059.2.2,0,0,1,.1.007l.281.062" transform="translate(9.767 23.488)" fill="#fff" fill-rule="evenodd"/>
    </g>
</svg>
