<svg xmlns="http://www.w3.org/2000/svg" width="50.65" height="114.66" viewBox="0 0 50.65 114.66">
    <g id="icon" transform="matrix(1, -0.017, 0.017, 1, 172.199, -1009.944)">
        <path id="Path_2371" d="M-185.664,1017.94a2.044,2.044,0,0,1,1.463-.191,6.542,6.542,0,0,0,1.482.195,5.614,5.614,0,0,1,.928-.08,2.713,2.713,0,0,1,.646.187,22.259,22.259,0,0,0,5.751.764c.366.03.805.126.909.477.119.4-.31.769-.706.925a6.819,6.819,0,0,1-1.683.356l-1.448.179a5.409,5.409,0,0,1-1.156.061,17.186,17.186,0,0,1-2.429-.745,9.284,9.284,0,0,1-1.445-.33c-.315-.131-3.194-1.218-2.311-1.8" transform="translate(0.708 1.532)" fill="#52b9e4"/>
        <path id="Path_2372" d="M-145.227,1120.958a6.444,6.444,0,0,1-1.034,0c-.1-.007-1.226-.208-1.3-.217s-.431-.1-.531-.114c-.017-.394.306-7.794.267-8.211-.021-.212.23-7.346.245-7.729.016-.4.1-1.9.113-2.243.04-1.335.077-2.671.12-4.006,0-.157.175-6.643.164-6.991-.014-.4.1-5.1.116-5.288a.526.526,0,0,1,.047-.252c.069-.1.173,0,.2-.107.05-.191.062-2.1.076-2.765,0-.27-.091-3.05-.144-3.831-.031-.46-.023-3.266-.008-3.867.014-.558.041-1.116.056-1.674.013-.5.022-.991.022-1.486,0-.293.2-4.945.2-5.093.032-.976.171-4.156.175-4.381s.1-1.928.08-2.239c-.056-.863.058-3.83.075-4.449.014-.523.033-1.048.073-1.571.09-1.216,0-7.264.014-7.621.021-.479.018-.96.024-1.439.007-.514.015-1.027.014-1.539,0-.6-.016-1.2-.013-1.8,0-.27.046-.541.051-.81.014-.871-.061-4-.056-4.161.01-.392.035-.785.024-1.175-.009-.338-.187-1.766-.245-2.142q-.1-.669-.226-1.332c-.106-.561-.644-3.923-.834-4.471a12.805,12.805,0,0,0-.754-1.706,9.7,9.7,0,0,0-.966-1.25c-.451-.393-.9-.783-1.382-1.145a12.147,12.147,0,0,0-2.08-.921c-.336-.107-.678-.2-1.022-.276-.566-.125-1.134-.235-1.7-.345-.194-.037-.394-.049-.59-.076-.4-.054-2.256-.257-2.789-.328-.425-.057-5.442-.641-5.484-.649-.256-.046-1.831-.258-1.925-.268-.283-.033-.566-.078-.85-.1a.511.511,0,0,0-.528.326.365.365,0,0,1-.381.253c-.583,0-1.168.013-1.753.022-.566.007-1.13.013-1.7.025a1.486,1.486,0,0,0-.363.049q-1.272.347-2.54.709c-.115.033-1.633.276-3.013.383a14.182,14.182,0,0,1-2.181.011c-.265-.038-.53-.084-.792-.139-.16-.033-1.495-.578-2.021-.767-.4-.142-.78-.311-1.178-.451a3.667,3.667,0,0,0-1.147-.193c-.249,0-.8.024-1.412-.017a5.645,5.645,0,0,1-2.353-.477,14.288,14.288,0,0,1-1.375-1.284,1.418,1.418,0,0,1,.215-1.5c.12-.153.217-.326.339-.476a4.419,4.419,0,0,1,.955-.88,12.862,12.862,0,0,1,2.016-1.035,10.8,10.8,0,0,1,2.1-.437,13.32,13.32,0,0,1,1.809-.037c.346.01,1.181.015,1.959.1.724.081,1.4.24,1.589.264s.664,0,.7-.273c.02-.139.025-.279.035-.419a.544.544,0,0,0-.28-.6c-.308-.166-.573-.4-.867-.595a3.123,3.123,0,0,1-.769-.88,2.311,2.311,0,0,1-.311-.9,2.951,2.951,0,0,0-.1-.98,6.178,6.178,0,0,0-.4-1.143.379.379,0,0,0-.345-.226,1.271,1.271,0,0,1-.7-.274c.2-.148.378-.3.574-.419a.293.293,0,0,0,.154-.224.629.629,0,0,1,.062-.174.907.907,0,0,1,.86-.589,1.06,1.06,0,0,1,.953.735,4.812,4.812,0,0,0,.691,1.567,2.122,2.122,0,0,0,.949.8c-.094.148-.184.278-.263.412a1.149,1.149,0,0,0,.233,1.528,1.714,1.714,0,0,0,1.3.457c.392-.035.784-.062,1.174-.1.321-.028.642-.063.962-.088a.309.309,0,0,1,.165.055,3.56,3.56,0,0,0,.945.4c.091.024.763.322,1.031.4.327.092.638.237.973.366-.077.238-.134.444-.353.562a3.307,3.307,0,0,0-.275.205c-.18.122-.364.238-.517.339-.335-.281-.63-.54-.938-.782a3.558,3.558,0,0,0-.561-.358,1.271,1.271,0,0,0-1.016-.044,4.383,4.383,0,0,1-1.7.265c-.031.56-.047,1.1-.065,1.685.355.122.7.248,1.051.361s.721.232,1.089.327,1.711.528,2.043.622c.389.111.781.216,1.176.305.136.031,1.884.361,3.548.552,1.52.175,2.971.214,3.07.219.713.031,3.105.222,3.14.227.419.051,6.212.51,6.333.524.343.042,2.952.3,3.478.424a12.833,12.833,0,0,1,2.33.862,8.644,8.644,0,0,1,1.315.864,11.5,11.5,0,0,1,1.375,1.164,9.572,9.572,0,0,1,.993,1.186c.151.218.3.439.43.67.277.484.551.97.808,1.465a14.375,14.375,0,0,1,.478,1.492c.043.175.415,1.808.575,2.444.046.184.082.371.109.56.1.651.21,1.3.282,1.957.06.543.062,1.094.108,1.64.044.517.122,2.666.13,3.014.01.5.055,1,.079,1.508.02.391.037.781.046,1.172.014.609.02,1.219.032,1.829.014.7.053,1.393.04,2.089-.015.836-.081,1.674-.109,2.512-.012.331.076,4.074.074,4.637,0,.646-.041,1.292-.048,1.938-.01.931.043,3.763.021,4.251-.022.514-.014,1.029-.01,1.543,0,.828.017,1.656.02,2.485,0,.372,0,1.727,0,2.032,0,.226-.03,6.358-.02,6.521.007.1,0,.21,0,.313-.02.8.046,7.032.053,7.344s.058,2.257.058,2.345c0,.758,0,1.518.01,2.275.013.7.054,2.977.045,3.422,0,.1.006.191.009.287.008.2.081.278.286.274.182,0,.365-.022.542-.032a.421.421,0,0,1,.164.371c-.015.331-.051,5.72-.039,6.059.028.773.028,2.75.033,3.408,0,.135,0,.214,0,.218.108.168.047.356.045.536-.008.541-.017,2.994,0,3.679.012.589-.1,6.579-.077,7.145.025.739-.2,8.937-.221,9.634q-.022.812-.033,1.625c-.006.426-.047,1.96-.067,2.3a1.015,1.015,0,0,0,0,.205c.03.217-.084.364-.3.35-.151-.009-.444.2-.478.2a.832.832,0,0,1-.506-.214.383.383,0,0,1-.048-.219,26.229,26.229,0,0,0-.366-3.132c-.091-.009-.138.069-.149.156-.02.182-.033.365-.053.549-.066.627-.13,1.254-.2,1.879-.029.26-.068.521-.122.778a.512.512,0,0,1-.154.237c-.077.075-.221.02-.264-.1-.055-.163-.093-.333-.138-.5-.113-.408-.224-.816-.339-1.223-.025-.089-.047-.195-.168-.2a.27.27,0,0,0-.258.195.665.665,0,0,0-.045.281c0,.261.022.523.031.783,0,.085-.006.173-.01.3m-.555-43.9c.245.021.278-.627.287-.8.014-.252,0-.506.009-.758q.085-1.832.18-3.664c.02-.376.187-2.133.235-2.636q.04-.4.088-.807c.014-.121.3-3.022.365-3.3.122-.549.27-1.094.422-1.635a5.08,5.08,0,0,1,.742-1.6,1.1,1.1,0,0,0,.283-.948c0-.147.021-.295.03-.443,0-.034-.1-5.773-.107-6.434-.007-.854.007-11.632-.038-12.562-.013-.26-.01-.522-.016-.782-.006-.288-.015-.575-.02-.862,0-.374,0-.749-.009-1.125,0-.243-.052-1.68-.053-1.705-.016-.444-.089-2.707-.1-2.862-.021-.339-.07-1.495-.2-2.548-.078-.62-.4-2.419-.716-3.675a12.342,12.342,0,0,0-.429-1.271,6.431,6.431,0,0,0-.727-1.583,6.527,6.527,0,0,0-.657-.885c-.411-.492-.822-.987-1.265-1.449a9.856,9.856,0,0,0-.922-.767.9.9,0,0,0-.114-.06,11.909,11.909,0,0,0-1.3-.751,17.488,17.488,0,0,0-2.51-.744c-.442-.078-.885-.159-1.33-.228-.393-.06-.789-.1-1.183-.159-.575-.078-4.632-.528-5.144-.56-.146-.009-.294-.018-.441-.025-.469-.02-4.508-.341-4.654-.346-.353-.012-1-.018-1.355-.031a.379.379,0,0,0-.08.006.286.286,0,0,0-.275.273,2.776,2.776,0,0,0-.014.392c0,.255.067.338.319.4.151.035.31.039.463.068.552.1,2.4.316,2.67.347.092.01,4.043.448,4.43.494.334.04,2.157.241,2.45.272.15.016,1.746.231,3.066.546a9.252,9.252,0,0,1,1.863.656,13.433,13.433,0,0,1,1.677.872,8,8,0,0,1,1.064.931,6.953,6.953,0,0,1,1.724,2.215c.077.16.169.315.237.479.1.244.181.5.273.743a5.542,5.542,0,0,1,.365,1.289c.073.629.462,3.059.521,3.654.068.683.092,1.371.13,2.058.015.27.174,2.156.19,2.46s.1,2.365.1,2.512c-.009.675-.033,1.35-.038,2.026-.006.75-.03,3.175-.025,3.637s-.114,2.73-.128,3.392c-.014.634.021,2.837.006,3.307-.022.635-.056,1.27-.082,1.9-.052,1.265-.1,2.531-.149,3.8-.016.446-.059,8.217-.1,9.76-.006.219-.093,1.954-.088,2.274,0,.207-.013.415-.024.623-.008.145-.031.29-.032.436s.016.311.023.468c0,.086-.077,4.864-.069,4.924C-145.951,1076.377-146.045,1077.038-145.782,1077.054Zm-38.526-58.463v0c.122,0,5.48.159,6.144.229.069.007,2.363.244,4.416.546,1.515.221,2.878.516,3.214.58a7.49,7.49,0,0,0,2.124.161.859.859,0,0,0,.206-.029.232.232,0,0,0,.13-.111,1.337,1.337,0,0,0,.03-.848.2.2,0,0,0-.206-.16,11.928,11.928,0,0,1-1.9-.4c-1.6-.452-3.691-1.158-4.331-1.363-.2-.066-1.678-.53-3.241-.875a30.9,30.9,0,0,0-3.5-.554,17.186,17.186,0,0,0-2.414.01c-.147.007-.295.013-.442.024a9.692,9.692,0,0,0-1.243.113,9.241,9.241,0,0,0-1.554.47,7.011,7.011,0,0,0-1.581.943,3.756,3.756,0,0,0-.407.383.5.5,0,0,0,.326.867,9.028,9.028,0,0,0,1.06.086C-186.841,1018.691-184.553,1018.591-184.309,1018.591Zm10.319,2.43c-.051-.063-.077-.1-.111-.138a3.757,3.757,0,0,0-1.38-.4c-.6-.055-1.988.05-3.43-.082-1.78-.161-3.626-.479-4.077-.539-.326-.043-1.565-.225-1.781-.2a.382.382,0,0,0,.266.512c.668.308,1.394.545,2.073.831a16.007,16.007,0,0,0,3.788.963,9.067,9.067,0,0,0,2.351-.333C-175.761,1021.524-174.135,1021.05-173.99,1021.022Zm27.971,72.877a1.352,1.352,0,0,0,.171-.588c.018-.514.056-1.029.084-1.543,0-.06-.009-.121-.008-.181.007-.344.107-1.187.109-1.265,0-.1-.006-.21.006-.314a16.512,16.512,0,0,0,.107-2.008c0-.27.022-.542.024-.811,0-.182-.052-.225-.236-.218-.086,0-.174,0-.259,0-.232-.01-.268.007-.288.233-.013.144.036.29.03.436-.016.392-.047.785-.07,1.178-.018.3-.047.611-.05.915,0,.418.014.836.031,1.254.03.765.059,1.531.1,2.3A.978.978,0,0,0-146.019,1093.9Zm-31.469-79.639a3.093,3.093,0,0,0-.165,1.112.329.329,0,0,0,.145.244,4.268,4.268,0,0,0,.547.207c.021-.041.04-.063.041-.085.021-.389.044-.779.052-1.168a.2.2,0,0,0-.1-.152C-177.128,1014.355-177.292,1014.316-177.487,1014.259Z" transform="translate(0.095 0)" fill="#001d63"/>
        <path id="Path_2373" d="M-178.724,1010.552c.168.114.316.231.479.32.3.166.6.317.908.471a1.05,1.05,0,0,1,.491.393.4.4,0,0,0,.226.143.379.379,0,0,1,.233.174c-.224,0-.437-.011-.649,0a8.119,8.119,0,0,0-.931.1.828.828,0,0,1-.964-.446l-.013-.022a.821.821,0,0,1,.22-1.14" transform="translate(1.735 0.444)" fill="#001d63"/>
        <path id="Path_2374" d="M-188.976,1018.22a1.681,1.681,0,0,1-.431-.552,1.191,1.191,0,0,1,.15-1.054,2.758,2.758,0,0,1,.8-.766c2.391-1.647,5.487-1.791,8.293-1.335,4.125.667,7.969,2.476,12.106,3.079a.448.448,0,0,1,.251.091.438.438,0,0,1,.1.245,2.809,2.809,0,0,1,.07.949,1,1,0,0,1-.521.773,1.414,1.414,0,0,1-.6.089l-3.815.016a1,1,0,0,1-.338-.038,1.272,1.272,0,0,1-.312-.195,3.46,3.46,0,0,0-.51-.294,30.374,30.374,0,0,0-6-.787c0-.118-4.184-.1-4.562-.09-.74.026-1.194,0-1.66.606a1.008,1.008,0,0,1-1.125.5,4.274,4.274,0,0,1-1.9-1.233" transform="translate(0.154 1.014)" fill="#001d63"/>
        <path id="Path_2375" d="M-183.086,1034.182c.263.074.516.182.785.234a4.3,4.3,0,0,0,1.057.024,7.267,7.267,0,0,1,3.421.441c.161.075.345.235.263.4a.377.377,0,0,1-.146.133,8.147,8.147,0,0,1-4.122.813,4.962,4.962,0,0,1-1.531-.131,4.784,4.784,0,0,1-2.166-1.287c-.444-.607-.082-.674.529-.726a5.4,5.4,0,0,1,1.912.1" transform="translate(0.725 4.021)" fill="#52b9e4"/>
        <path id="Path_2376" d="M-179.444,1031.282a.734.734,0,0,1-.422-.207.519.519,0,0,0-.544-.075c-.324.135-.637.3-.959.439a1.135,1.135,0,0,1-.343.109.828.828,0,0,1-.667-.076c-.009-.08-.033-.539-.147-.637-.037-.032-.017-.129-.022-.183a3,3,0,0,1,1.5-.375,3.8,3.8,0,0,0,.974-.2c.426-.134.843-.3,1.262-.467a2.847,2.847,0,0,0,.993-.694c.156-.158.324-.3.481-.459a2.415,2.415,0,0,0,.468-.606,1.154,1.154,0,0,1,.7-.49.467.467,0,0,1,.317.058.843.843,0,0,1,.467.486,3,3,0,0,0,.283.479c-.067,0-.13.009-.194.011a3.9,3.9,0,0,0-.418.019.486.486,0,0,0-.424.373c-.113.35-.283.683-.419,1.028-.07.18-.116.37-.182.552a1.254,1.254,0,0,1-.4.584c-.257.2-.519.394-.8.6a2.971,2.971,0,0,0,.008,1.014.354.354,0,0,0,.2.21c.305.136.622.249.931.378.4.167.786.349,1.186.51a6.048,6.048,0,0,0,.833.279c.342.085.693.142,1.043.2.369.058.539-.075.59-.449a.6.6,0,0,0-.183-.629,2.706,2.706,0,0,1-.455-.49,1.623,1.623,0,0,1-.38-.988c-.006-.347-.028-.694-.035-1.042a.178.178,0,0,0-.154-.2c-.157-.04-.31-.1-.462-.157-.062-.023-.12-.055-.195-.091a.716.716,0,0,1,.328-.281.882.882,0,0,0,.363-.372.432.432,0,0,1,.212-.181.61.61,0,0,1,.825.307c.126.233.28.449.408.682.141.255.265.52.4.794-.044.031-.075.058-.111.078a.534.534,0,0,0-.249.733,1.464,1.464,0,0,0,1.012.843,4.508,4.508,0,0,0,1.257.064,3.653,3.653,0,0,0,.672-.129c.1-.024.213-.076.3-.047a6.9,6.9,0,0,0,1.406.237c.083.01.164.036.288.065a3.032,3.032,0,0,1-.654.134c-.292.03-.583.052-.876.077a.887.887,0,0,0-.129.04l1.133.661a.988.988,0,0,1-.592-.033,8.211,8.211,0,0,0-1.785-.323c-.342-.037-.684-.07-1.061-.107-.012.159-.024.295-.031.43s-.009.262-.015.429c.227.03.446.07.666.086.417.029.834.04,1.251.066.112.007,1.738.036,1.935.055.308.032,5.476.656,5.655.674a7.222,7.222,0,0,1,1.558.447,6.821,6.821,0,0,1,1.357.839,7.968,7.968,0,0,1,1.053,1.068,11.774,11.774,0,0,1,1.475,2.591,19.355,19.355,0,0,1,.99,3.412c.05.535.146,1.988.166,2.177,0,.025.116,2.222.144,2.681.009.149.066,3.287.067,3.646,0,.128-.04,3.529-.047,4.022,0,.2.048,3.578.055,3.855.01.478.008.958.012,1.436,0,.044,0,2.807-.018,3.822,0,.2.068.921.077,1.085.012.19.033.379.051.568a.8.8,0,0,1,.013.1c0,.411-.088,6.049-.08,6.128a.785.785,0,0,1,0,.1c-.045,1.042.071,4.837.079,5.021.01.233.067,2.065.067,2.709,0,.341-.013.682-.01,1.023,0,.279.4.272.693.271.012.045.024,20.74.02,20.842a31.17,31.17,0,0,1-.213,3.67c-.109.27-.431.128-.531.116a.616.616,0,0,1-.077-.014l-.407-.129c-.008-.055-.018-.113-.023-.172a9.791,9.791,0,0,0-.343-2.285c-.056-.172-.1-.349-.15-.523a.348.348,0,0,0-.256-.244,1.553,1.553,0,0,0-.039.257c.006.6.024,1.205.024,1.808,0,.374-.022.75-.035,1.128-.273.108-.364.075-.426-.191-.051-.22-.071-.447-.118-.668-.02-.092-.009-.24-.157-.225s-.151.155-.157.269c-.01.235-.016.47-.024.728a2.506,2.506,0,0,1-.789-.008,2.845,2.845,0,0,0-.774-.054,3.214,3.214,0,0,1-.512.022.268.268,0,0,1-.082-.03c.023-.145.089-1.3.12-1.456.121-.612.164-6.8.161-6.97-.008-.565.07-4.292.056-4.728-.029-.871-.056-1.742-.071-2.614-.01-.566-.065-3-.062-3.151.009-.613-.134-5.077-.047-5.136a2.591,2.591,0,0,1,.742-.157c.1-.013.067-.158.058-.288s0-5.273-.007-5.744c-.012-.6,0-3.892.009-4.661.016-.962.059-3.671.074-4.064q.033-.932.043-1.861c0-.5-.01-1-.011-1.493,0-.682.157-12.527.13-13.743-.017-.741-.267-6.472-.306-6.852-.04-.4-.217-1.665-.255-1.906a3.774,3.774,0,0,0-.433-1,8.523,8.523,0,0,0-.936-1.268,7.5,7.5,0,0,0-1.046-.9,9.222,9.222,0,0,0-1.023-.661,6.129,6.129,0,0,0-1.08-.437,19.476,19.476,0,0,0-2.333-.461c-1.526-.227-3.214-.41-3.293-.422-.221-.032-.445-.066-.669-.082-.52-.038-1.039-.076-1.561-.094-.347-.012-.7.009-1.044.017-.052,0-.673,0-.931,0a10.8,10.8,0,0,0-1.617.175,15.486,15.486,0,0,0-1.777.482c-.418.134-1.9.468-2.219.525a3.882,3.882,0,0,0-.509.125,6.423,6.423,0,0,1-1.874.062,11.677,11.677,0,0,1-1.542-.252,2.265,2.265,0,0,1-.938-.411,3.179,3.179,0,0,0-.272-.2,1.535,1.535,0,0,0-.99-.375,17.41,17.41,0,0,1-2.242-.19,1.682,1.682,0,0,1-1.024-.816,3.667,3.667,0,0,1-.373-.867.533.533,0,0,1,.054-.356c.215-.2.718-.683,1.181-1.071a8.463,8.463,0,0,1,.834-.625,4.9,4.9,0,0,1,1.122-.441,19.165,19.165,0,0,1,2.227-.21c.242-.01,2.877.121,3.234.225.084.024.33.146.507.04a.659.659,0,0,0,.241-.537.864.864,0,0,1,.027-.261m21.688,44.426q.052-1.26.1-2.519c.007-.158.022-.316.036-.473l.18-1.882c.047-.506.1-1.01.138-1.516.015-.2.15-.914.181-1.075.022-.113.608-2.7.645-2.785a1.373,1.373,0,0,0,.139-.668c-.013-.251-.041-5.3-.035-5.748.009-.585-.009-1.171-.039-1.755-.039-.784-.035-2.6-.038-2.721-.026-.951-.061-1.9-.077-2.853-.006-.384-.059-4.7-.069-4.893-.04-.688-.082-1.376-.131-2.063-.038-.539-.081-1.078-.137-1.614-.037-.346-.181-1.38-.225-1.544a11.421,11.421,0,0,0-.6-1.659,9.82,9.82,0,0,0-1.253-2.083,6.531,6.531,0,0,0-1.444-1.272,6.542,6.542,0,0,0-1.8-.737,18.186,18.186,0,0,0-2.329-.414c-.3-.028-1.6-.224-2.957-.325-1.607-.121-4.049-.236-4.379-.252-.443-.023-.653.306-.459.731.084,0,.179,0,.273,0,.21,0,.419,0,.627.011.5.028,1.006.067,1.509.091.378.017,1.848.181,3.41.385a25.811,25.811,0,0,1,3.761.83,7.033,7.033,0,0,1,1.618.73,6.625,6.625,0,0,1,1.41,1.12,5.809,5.809,0,0,1,1.17,1.984c.03.133.078.261.107.394.055.263.1.528.152.791a10.374,10.374,0,0,1,.23,1.861c.016.768.068,1.532.1,2.3q.038.875.069,1.75c.01.3.007.611.023.915.031.566.09,1.129.1,1.7.022.811.018,1.622.021,2.435,0,.418-.1,5.754-.091,5.891.028.547.008,9.974,0,10.162-.044,1.313-.085,2.625-.131,3.937-.006.172-.037,1.012-.041,1.21A14.118,14.118,0,0,0-158,1075.7C-157.989,1075.8-157.76,1075.811-157.756,1075.708Zm-15.31-40.342c-.038-.4-.12-.551-.369-.613-.359-.089-.725-.158-1.087-.237-.186-.042-.371-.079-.553-.128q-.614-.161-1.225-.332c-.423-.118-.847-.235-1.267-.363-.1-.029-.731-.266-1.484-.463a29.771,29.771,0,0,0-3.006-.631c-.285-.031-1.8-.112-2.267-.081a5.747,5.747,0,0,0-1.724.309,8,8,0,0,0-1.841,1.064c-.118.107-.209.236-.145.363.07.143.165.31.369.316.5.014,2.376.006,2.809,0,.628,0,1.255.014,1.883,0a11.918,11.918,0,0,1,1.6.173c.3.032.6.095.9.134.353.046.706.079,1.058.124.542.07,1.081.158,1.624.217.62.068,1.243.112,1.866.166.078.007.156.022.234.024.149.007.832.073,1.417.072A10.81,10.81,0,0,0-173.066,1035.366Zm-4.414.844c-.006-.031-.01-.062-.015-.093-.263-.041-.524-.088-.788-.123-.232-.03-.466-.047-.7-.073-.525-.058-5.516-.609-5.777-.657-.2-.032-.422-.051-.438.119-.021.206.576.517,1.327.855a9.215,9.215,0,0,0,2.276.6,11.844,11.844,0,0,0,2.517-.127C-178.629,1036.6-177.567,1036.258-177.48,1036.211Zm19.175,48.194c0,.313-.006.627,0,.94.008.409.053.818.032,1.226-.041.85.078,1.688.089,2.534a8.57,8.57,0,0,1,.044.988c-.021.278.6.664.646.387.05-.328.066-4.717.088-5.088a9.05,9.05,0,0,1,.1-1.062c.065-.357.194-.6.063-.67a2.3,2.3,0,0,0-.648-.09c-.206,0-.38.08-.4.137A2.2,2.2,0,0,0-158.305,1084.4ZM-178.8,1031.4c-.2-.015-.288.057-.305.257a.379.379,0,0,0,.335.438c.215.023.331-.081.356-.318C-178.384,1031.5-178.462,1031.421-178.8,1031.4Zm5.948,2.61.33-.015c.076-.48.068-.525-.12-.6C-172.7,1033.575-172.768,1033.762-172.851,1034.005Z" transform="translate(0.244 3.001)" fill="#001d63"/>
        <path id="Path_2377" d="M-173.264,1031.935a1.758,1.758,0,0,1-.84-.081,1.108,1.108,0,0,1-.578-.589.45.45,0,0,1,.047-.448c.09-.125.194-.144.271-.02a1.917,1.917,0,0,0,.9.641c.212.1.408.242.611.365a.992.992,0,0,1-.41.131" transform="translate(2.4 3.514)" fill="#001d63"/>
        <path id="Path_2378" d="M-159.18,1096.689a10.761,10.761,0,0,1,.52-2.006c.23-.364,1.03-2.042,1.538-2.042s-.646.894-.922,2.079a4.98,4.98,0,0,0-.108,1.969Z" transform="translate(4.767 12.944)" fill="#001d63"/>
        <path id="Path_2379" d="M-188.091,1034.425a.979.979,0,0,1-.28-1.015,1.234,1.234,0,0,1,.439-.456,7.449,7.449,0,0,1,3.917-1.6,9.3,9.3,0,0,1,2.26.272l2.816.576a15.462,15.462,0,0,1,1.9.473,13.691,13.691,0,0,0,3.266,1.082c.4.03.865.032,1.08.362a.76.76,0,0,1-.189.922,1.631,1.631,0,0,1-.938.366,16.293,16.293,0,0,1-3.427-.346c-1.436-.132-2.8-.233-4.23-.4-.776-.089-2.118-.2-2.9-.255a2.451,2.451,0,0,0-.966.091c-.362.093-.474.736-.8.794a2.883,2.883,0,0,1-1.947-.869" transform="translate(0.313 3.611)" fill="#001d63"/>
        <path id="Path_2380" d="M-188.251,1045.694a.3.3,0,0,1-.111-.094.22.22,0,0,1,.106-.279.63.63,0,0,1,.32-.058l1.877-.007a5.826,5.826,0,0,1,.951.049,9.547,9.547,0,0,0,1.03.195c.252.014.509-.027.758.01a.666.666,0,0,1,.573.42,2.834,2.834,0,0,1-1.168.719c-1.686.582-2.965-.12-4.336-.955" transform="translate(0.32 5.728)" fill="#52b9e4"/>
        <path id="Path_2381" d="M-166.1,1079.39c.05.893-.006,3.148,0,3.383.041,1,0,5.864-.043,6.792-.012.28.007.559,0,.839-.012.867-.021,1.733-.045,2.6-.015.526-.063,1.051-.08,1.575a5.748,5.748,0,0,0,.053.594,7.313,7.313,0,0,1-.092,1.979c-.051.15-.966.12-.991.042a6.8,6.8,0,0,1-.189-1.308,2.678,2.678,0,0,0-.1-.4,1.392,1.392,0,0,0-.118.371q-.093.4-.16.8c-.029.18-.039.363-.06.567a2.023,2.023,0,0,1-.264.023,5.636,5.636,0,0,1-1.291-.184.7.7,0,0,1-.133-.34c-.023-.419.062-6.563.056-6.914-.012-.79-.078-7.2-.1-7.626,0-.073-.008-.953-.006-1.02.016-.587.037-1.172.056-1.776a1.747,1.747,0,0,1,.241-.093.51.51,0,0,0,.408-.493q.054-.786.06-1.573c.006-.583-.012-1.165-.021-1.748-.007-.455-.018-.909-.023-1.364,0-.183,0-.366.007-.551.013-.856.021-1.712.038-2.569.015-.734.048-1.47.054-2.2.008-1.11,0-2.218,0-3.328,0-.656-.014-1.31-.02-1.966-.006-.6-.007-1.205-.014-1.809,0-.313-.023-.625-.022-.938,0-.515.016-1.03.024-1.545,0-.2.006-.4.01-.6.008-.41.02-.821.024-1.233,0-.129-.059-1.481-.093-1.975-.029-.416-.114-1.96-.152-2.314-.047-.456-.078-.916-.147-1.368a8.816,8.816,0,0,0-.317-1.329,5.4,5.4,0,0,0-.581-1.225,4.934,4.934,0,0,0-.933-.9,6.286,6.286,0,0,0-1.764-.825c-.408-.133-.839-.2-1.258-.305a17,17,0,0,0-1.762-.276c-.487-.013-.975-.025-1.463-.031-.331,0-.661-.006-.993.013-.417.022-1.425.1-1.512.091a4.173,4.173,0,0,0-1.144.12c-.043.009-1.031.115-1.483.182a9.546,9.546,0,0,0-.979.172,7.15,7.15,0,0,1-1.115.169c-.365.033-.734.036-1.1.035a2.38,2.38,0,0,1-.943-.239c-.244-.107-.48-.232-.716-.356a1.151,1.151,0,0,0-.482-.166c-.3-.017-.588-.052-.883-.063-.373-.014-.54-.033-.914-.029a1.063,1.063,0,0,1-.545-.254c-.131-.169-.476-.771-.332-.967.126-.169.681-.906.782-1.058a2.72,2.72,0,0,1,1.24-.743,6.541,6.541,0,0,1,1.815-.145,11.151,11.151,0,0,1,1.551.2,6.633,6.633,0,0,1,1.367.47,7.147,7.147,0,0,0,.771.333,2.359,2.359,0,0,0,.516.073,1.927,1.927,0,0,0,.028-.368.33.33,0,0,0-.113-.212,1.919,1.919,0,0,1-.732-1.18,1.8,1.8,0,0,0-.478-.843,1.143,1.143,0,0,0-.91-.408.452.452,0,0,1-.106-.024,1.433,1.433,0,0,1,.123-.1c.172-.111.342-.221.516-.326.121-.074.247-.139.37-.209a.577.577,0,0,1,.66.067,6.915,6.915,0,0,1,.527.452c.243.217.483.437.725.653a.1.1,0,0,0,.044.027,2.881,2.881,0,0,1,1.084.622,3.7,3.7,0,0,0,1.238.565,2.3,2.3,0,0,1,.452.186c.228.117.448.25.682.382-.062.144-.126.288-.187.432a.164.164,0,0,1-.194.1,1.682,1.682,0,0,1-.961-.259,1.423,1.423,0,0,0-.5-.243,2.054,2.054,0,0,0-.872.131c-.407.13-.336.45-.328.751.274.075,1.391.262,1.685.289.2.019.4.061.593.068.228.007,2.068.069,3.682.212a23.613,23.613,0,0,1,2.451.343c.522.12,1.03.295,1.542.451.133.039.259.1.389.143a7.774,7.774,0,0,1,2.29,1.319,2.882,2.882,0,0,1,.937,1.456c.173.589.321,1.188.472,1.784a9.639,9.639,0,0,1,.229,1.015c.069.5.1,1,.144,1.507.047.6.1,1.2.124,1.8.017.384,0,.771,0,1.156.007.69.028,1.38.027,2.071,0,.75-.028,1.5-.035,2.25,0,.3.018.591.028.887,0,.078,0,.158,0,.236-.031.779-.029,1.555.015,2.332.025.442-.009.891-.016,1.337-.007.384-.02.769-.02,1.152,0,.8.032,1.592,0,2.389a18.358,18.358,0,0,0,.025,2.015c.028.409-.01.823,0,1.234.009.558.035,1.115.048,1.674,0,.2.056,3.891.063,4.135.008.305.044.611.046.916,0,.212.29.3.52.358m-21.337-35.367c-.149,0-.3,0-.445,0a2.411,2.411,0,0,0-.944.229,2.428,2.428,0,0,0-.7.818c-.1.289.013.443.312.417.485-.044.969-.02,1.459-.08a32.372,32.372,0,0,1,3.581.262c.464.058.931.106,1.4.16.343.04.687.086,1.031.127.258.031.516.071.777.087a9.906,9.906,0,0,1,1.556.121.234.234,0,0,0,.177-.068c.2-.21.128-.416-.152-.471a7.041,7.041,0,0,0-1.152-.208,10.7,10.7,0,0,1-1.7-.2,9.568,9.568,0,0,1-1.238-.377c-.411-.151-.825-.3-1.235-.452a5.762,5.762,0,0,0-1.153-.3A9.134,9.134,0,0,0-187.438,1044.024Zm19.269,15.466c.245.084.288-.222.357-.422a2.635,2.635,0,0,0,.268-1.22.793.793,0,0,1,0-.157,32.284,32.284,0,0,0-.153-4.211c-.058-.655-.089-1.314-.172-1.965a3.535,3.535,0,0,0-.371-1.346c-.115-.2-.215-.41-.339-.6a4.047,4.047,0,0,0-.341-.451.23.23,0,0,0-.305-.025.181.181,0,0,0-.039.237l.038.1a7.429,7.429,0,0,1,.612,2.248c.028.381.121.756.161,1.136.036.328.033.663.056.992.016.226.067.448.07.673.006.375-.02.752-.021,1.129,0,.812.014,1.626.007,2.439,0,.424.014.726.047,1.27C-168.3,1059.343-168.235,1059.4-168.168,1059.49Zm-.5,21.063c0,.2.007.378.006.559,0,.4-.021.8-.016,1.2s.031.782.045,1.174c.015.444.03.888.038,1.333,0,.165,0,.331-.015.5-.031.418-.075.837-.1,1.255-.021.316.007.478.434.364.2-.054.228-.071.219-.284s-.03-.4-.032-.6c-.013-.835.074-1.673.053-2.51-.01-.384.008-.769.02-1.153a6.963,6.963,0,0,1,.06-.969c.037-.2-.045-.4.044-.6.014-.032-.038-.12-.081-.143A.9.9,0,0,0-168.669,1080.553Zm-14.244-34c-.024-.05-.1-.058-.156-.059-.191,0-.383,0-.575.01-.177,0-1.149-.026-2.03-.129-.8-.093-1.513-.263-1.686-.263a.875.875,0,0,0-.353.075,1.11,1.11,0,0,0,.146.1c.027.013.192.144.43.287.221.131.512.271.661.367a1.215,1.215,0,0,0,.849.163c.31-.044.619-.109.929-.163.209-.036.415-.074.623-.1.3-.039.6-.068.906-.107C-183.065,1046.721-182.848,1046.692-182.914,1046.556Zm.893-2.328a2.521,2.521,0,0,0,0,.4c.006.042.1.09.152.094.029,0,.1-.1.1-.134C-181.809,1044.46-181.8,1044.291-182.021,1044.229Z" transform="translate(0 5.068)" fill="#001d63"/>
        <path id="Path_2382" d="M-188.979,1045.744a.953.953,0,0,1-.642-.037.677.677,0,0,1-.239-.779,2.107,2.107,0,0,1,.483-.748,2.037,2.037,0,0,1,.752-.626,1.869,1.869,0,0,1,.673-.084c.573,0,1.144.029,1.716.055a5.186,5.186,0,0,1,1.331.179,7.267,7.267,0,0,1,.785.331,11.329,11.329,0,0,0,3.347.833,6.818,6.818,0,0,1,1.507.266.745.745,0,0,1,.335.2.319.319,0,0,1,.041.37.527.527,0,0,1-.172.142,2.618,2.618,0,0,1-1.356.5,7.793,7.793,0,0,1-.824-.146c-.312-.043-.634,0-.948-.035a5.059,5.059,0,0,1-.78-.168,14.912,14.912,0,0,0-4.194-.477,6.838,6.838,0,0,0-.82-.016c-.331.052-.663.181-1,.242" transform="translate(0.09 5.456)" fill="#001d63"/>
        <path id="Path_2383" d="M-175.508,1076.939a.358.358,0,0,1,.143.013.1.1,0,0,1,.05.07q.019.976.035,1.955c0,.157-.01.314,0,.47.1,1.292.038,2.593.036,3.889,0,1.324-.053,2.648-.08,3.972,0,.042.062.664-.1.848a.344.344,0,0,1-.34.051.436.436,0,0,1-.307-.371,5.608,5.608,0,0,0-.217-.819c-.025-.078-.092-.207-.174-.2-.08.036-.088.245-.082.367.016.294-.024.567-.007.871-.116.122-.267.088-.409.08a1.266,1.266,0,0,1-.524-.065.535.535,0,0,1-.313-.443.793.793,0,0,1,0-.1,17.2,17.2,0,0,0,.014-2.555c-.016-.582.03-1.168.065-1.752.047-.81.123-1.619.164-2.428.054-1.09.085-2.18.129-3.27a.994.994,0,0,1,.1-.543c.046-.054.147-.008.229-.045-.045,0,.083-13.767.084-13.836.008-.279.023-3.251-.053-3.6a1.935,1.935,0,0,0-.568-.9,3.21,3.21,0,0,0-1.475-.886,9.662,9.662,0,0,0-.96-.22c-.584-.1-1.239-.164-1.364-.172-.354-.022-.638-.034-1-.033a1.535,1.535,0,0,1-.483-.038c.028-.281.053-.556.082-.854a.271.271,0,0,1,.092-.029c.724,0,2.7.076,2.968.111.34.046.682.088,1.022.135a6.26,6.26,0,0,1,1.006.328,3.88,3.88,0,0,1,.862.526,4.066,4.066,0,0,1,.66.727,3.307,3.307,0,0,1,.483,1.059c.043.216.068,2.877.069,2.885a13.417,13.417,0,0,1,.032,1.611c.017.189.05.377.055.566.008.251,0,.5,0,.754-.014.706-.039,1.411-.04,2.118,0,.372.031,7.557.045,8.314.007.434.024.869.038,1.3a.9.9,0,0,0,.038.143m-1.378,4.454c.036-.519.076-1.037.106-1.556.009-.157.113-.911.13-1.033a5.527,5.527,0,0,0,.043-.7.258.258,0,0,0-.085-.2c-.266-.166-.478-.047-.492.264,0,.061-.007.122-.007.183.012.712.022,1.425.036,2.136a4.974,4.974,0,0,0,0,.652C-177.112,1081.267-176.907,1081.255-176.886,1081.393Z" transform="translate(1.152 7.419)" fill="#001d63"/>
        <path id="Path_2384" d="M-176.331,1084.215a5.17,5.17,0,0,1,.414-1.671c.289-.339.572-.41.6-.336s-.38.481-.469.917a4.01,4.01,0,0,0,.007,1.09.67.67,0,0,1-.283.046,1.118,1.118,0,0,1-.271-.046" transform="translate(2.155 11.351)" fill="#001d63"/>
        <path id="Path_2385" d="M-187.666,1057.132a.647.647,0,0,1-.273-.187.176.176,0,0,1-.054-.153.183.183,0,0,1,.1-.1,1,1,0,0,1,.746.045,4.768,4.768,0,0,0,1.894.174,3.5,3.5,0,0,1,.5-.04.2.2,0,0,1,.116.03.148.148,0,0,1,.03.18.364.364,0,0,1-.138.142,2.156,2.156,0,0,1-1.085.273,5.021,5.021,0,0,1-.758,0,3.061,3.061,0,0,1-.532-.1,1.255,1.255,0,0,1-.264-.1c-.138-.079-.26-.206-.422-.215Z" transform="translate(0.379 7.461)" fill="#52b9e4"/>
        <path id="Path_2386" d="M-183.447,1057.543a8.987,8.987,0,0,0-1.1.166c-.141.024-.486.1-.838.135a4.329,4.329,0,0,1-.822.024,4.152,4.152,0,0,1-.838-.185,2.064,2.064,0,0,0-1.123-.294c-.3,0-.6-.023-.9-.045a.181.181,0,0,1-.136-.089c-.068-.183-.121-.372-.177-.56a.223.223,0,0,1,.075-.258c.264-.222.515-.461.792-.666a2.724,2.724,0,0,1,.817-.225,7.727,7.727,0,0,1,1.543.037c.554.064,1.852.408,2.144.474.091.021.982.176,1.332.249.3.062.408.066.418.463a.918.918,0,0,1-.158.6.244.244,0,0,1-.138.1c-.3.032-.606.052-.893.074M-187.5,1057l-.024.062a.458.458,0,0,0,.188.152,4.548,4.548,0,0,0,.913.27,4.047,4.047,0,0,0,1.253.028.533.533,0,0,0,.443-.294.82.82,0,0,0-.169-.023c-.172.014-.345.044-.516.052a4.124,4.124,0,0,1-1.406-.181A2.661,2.661,0,0,0-187.5,1057Z" transform="translate(0.166 7.292)" fill="#001d63"/>
    </g>
</svg>
