<svg id="Group_12112" data-name="Group 12112" xmlns="http://www.w3.org/2000/svg" width="41.532" height="62.487" viewBox="0 0 41.532 62.487">
    <path id="Path_4095" d="M539.663,187.071a29.643,29.643,0,0,0,.59-3.369c.711-5.015,1.778-9.975,2.846-14.928l-9.811.2c-2.369.051-4.737.1-7.106.055-2.814-.047-5.625-.227-8.435-.4l-8.045-.5a173.766,173.766,0,0,1,9.667,27.386c3.991.223,7.954-.375,11.938-.477,1.266-.031,2.506.2,3.764.18.5-.008,1.861.039,2.228-.281.391-.344.344-1.8.5-2.381.485-1.872,1.38-3.608,1.869-5.476" transform="translate(-506.883 -142.688)" fill="#6bc4e8"/>
    <path id="Path_4096" d="M519.073,177.823a3.71,3.71,0,0,0-.3-.794c-1.067-1.614-2.142-3.225-3.248-4.816-.512-.743-1.083-1.446-1.657-2.146a2.147,2.147,0,0,0-.6-.344c.035.242-.008.536.114.719.387.567.856,1.083,1.255,1.642,1.274,1.786,2.533,3.588,3.8,5.383.121.172.258.328.391.5l.25-.141" transform="translate(-496.518 -138.025)" fill="#002675"/>
    <path id="Path_4097" d="M517.234,173.606a19.457,19.457,0,0,0-2.9-3.882c-.086-.086-.277-.062-.418-.094l-.086.156q1.56,2.023,3.123,4.038l.277-.219" transform="translate(-494.863 -138.295)" fill="#002675"/>
    <path id="Path_4098" d="M516.5,175.551a14,14,0,0,0-2.478-4.339l-.25.078c0,.156-.059.348.012.465.754,1.251,1.528,2.49,2.3,3.729a.985.985,0,0,0,.227.188Z" transform="translate(-495.116 -133.696)" fill="#002675"/>
    <path id="Path_4099" d="M546.4,188.787c-2.009,8.2-4.014,16.089-6.055,24.423a17.2,17.2,0,0,0,1.8-.012c.027.231.016.688.051.9.18,1.091.051,1.188-1.052,1.286a4.129,4.129,0,0,0-3.526,1.822c-.6,1-1.2,1.993-1.822,2.982a.946.946,0,0,1-.418.352,3.89,3.89,0,0,1-1.872.238c-.543-.031-1.227-.008-1.786-.008,1.036,1.091,1.466,1.595-.168,2.556a2.076,2.076,0,0,0-.512.45.88.88,0,0,1-1.337.043,5.418,5.418,0,0,0-.9-.817,1.328,1.328,0,0,1-.594-1.341c.129-.281.524-.536.759-.821-.641,0-1.259.117-1.849.109-.563,0-1.192.235-1.646-.281a8.714,8.714,0,0,1-.844-1.208,8.5,8.5,0,0,0-4.456-4.042c-.539-.18-1.11-.266-1.728-.414l.133-1.739c.571-.043,1.079-.082,1.642-.129-.1-.3-.2-.586-.3-.868-.61-1.661-1.282-3.3-1.818-4.988-.692-2.181-4.21-13.235-5.406-16.542-.328-.907-.61-1.786-.93-2.736-.954-.016-1.818-.086-2.646-.133-.055-.809-.09-1.3-.137-2.009.927-.293,1.8-.575,2.685-.844a6.417,6.417,0,0,1,1.419-.383c1.4-.094,2.807-.1,4.206-.156.68-.031,1.356-.106,2.033-.16l-.008-.16-5.3-.3c.645-.688,1.227-1.345,1.845-1.962a1.315,1.315,0,0,1,.731-.387c.926-.078,1.857-.078,2.783-.133.676-.035,1.349-.109,2.025-.168l-.008-.215-4.726-.234c.293-.856.516-1.407.829-2.31a2.756,2.756,0,0,0,3.092-1.841,1.062,1.062,0,0,1,1.044-.61c1.532-.051,3.065-.141,4.593-.223a3.835,3.835,0,0,0,.516-.086l-.012-.18c-1.689-.1-3.377-.192-5.2-.3a6.873,6.873,0,0,1,.547-.59,9.578,9.578,0,0,1,1.067-.836,2.571,2.571,0,0,1,1.009-.438c.981-.129,1.974-.176,2.963-.258l0-.133-2.8-.2a11.485,11.485,0,0,1,1.278-1,6.978,6.978,0,0,1,2.009-.321c.012-.555.074-1.255.129-1.657,1.626-.047,1.81-.379,1.138-1.806a1.8,1.8,0,0,1,.078-1.747l.387-.563a7.7,7.7,0,0,0-.414-.665,3.071,3.071,0,0,1-.512-.817,1.72,1.72,0,0,1-.058-1.036,2.036,2.036,0,0,1,3.518-.809,1.78,1.78,0,0,1-.047,2.826c-.148.145-.277.309-.383.43a3.811,3.811,0,0,1,.586,1.251,3.1,3.1,0,0,1-.324,1.435,1.052,1.052,0,0,0,.93,1.54c.25.008.5.031.751.051-.043.641-.078,1.212-.117,1.833.34.023.618.039.891.07a3.006,3.006,0,0,1,1.2.18,7.861,7.861,0,0,1,1.9,1.54c1.356,1.642,2.607,3.373,3.917,5.058a1.156,1.156,0,0,0,.637.414c.715.133,1.443.192,2.138.274.911,3.667,2.646,6.547,6.579,7.646-.035.618-.074,1.27-.113,1.915h-4m-25.978-.641a3.132,3.132,0,0,0,.1.465c.543,2.1,1.141,3.924,1.571,5.984,1.2,5.742,2.627,11.519,3.874,17.258.008.039.012.086.023.125.356,1.153.082,1.384,1.63,1.231,1.6-.16,3.233-.035,4.925-.035q2.475-12.319,4.937-24.6Zm18.118,24.962c.3-1.138.614-2.365.931-3.592.938-3.6,1.865-7.216,2.81-10.82a47.713,47.713,0,0,0,1.778-7.349,21.431,21.431,0,0,1,.567-2.533h-4.268c-1.845,8.037-3.686,16.081-5.57,24.294Zm-25.193-25.032c.285.735.461,1.337.77,1.966,1.61,4.237,3.315,8.142,4.515,12.391.919,3.24,2.044,6.418,3.084,9.624.117.367.285.715.438,1.094h2.111c-.223-.93-.446-1.818-.653-2.709q-1.671-7.194-3.338-14.389c-.117-.5-1.771-5.777-2.478-7.927C516.4,188.146,514.906,188.076,513.346,188.076ZM529.47,163.43c-.008.309.281.84.629.86a.88.88,0,0,0,.973-.516c.086-.254-.395-.938-.8-.946C530.029,162.825,529.478,163.063,529.47,163.43Z" transform="translate(-508.98 -161.614)" fill="#002675"/>
</svg>
