<svg xmlns="http://www.w3.org/2000/svg" width="62.955" height="31.49" viewBox="0 0 62.955 31.49">
    <path  d="M386.649,299.813h0l-.067.1c-.887-.379-1.759-.762-2.67-1.13-5.136-2.072-11.562-3.358-17.058-5.207a40.207,40.207,0,0,1-8.009-3.217,20.19,20.19,0,0,0-4.8-2.072c2.932,1.841,5.394,3.827,10.011,5.093,3.19.872,6.125,1.923,9.287,2.818,4.378,1.239,8.865,2.412,13.31,3.616m-38.936-20.807c1.137.2,2.154.34,3.092.543.833.184,1.024.438.446.821-2.24,1.485-2.951,3.1-1.509,4.859.887,1.083,4.98,1.962,7.4,1.036,2.881-1.1,6.012-2.08,8.924-3.166a40.611,40.611,0,0,1,10.484-2.732,22.609,22.609,0,0,1,8.9.61c4.026,1.141,8.385,2.064,12.368,3.025-.833.1-2.072.168-3.123.391-1.614.34-1.708,1.028-.321,1.544,1.95.723,4.018,1.388,5.895,2.142,1.595.641,2.99,1.372,4.476,2.064l-.3.176-4.272-.555a14.239,14.239,0,0,0-1.79-.215,11.024,11.024,0,0,0-2.5.2c-1.13.3-1.114.793-.332,1.364-1.032-.113-2.068-.211-3.088-.34-.633-.082-1.22-.238-1.853-.321-1.732-.223-3.459-.449-5.215-.629a7.867,7.867,0,0,0-4.022.367c-1.094.516-.778,1.224.715,1.564,2.431.547,4.929,1.04,7.345,1.6a23.531,23.531,0,0,1,7.861,3.018,6.634,6.634,0,0,1,.856.844c-.618-.078-.938-.129-1.263-.16a4.243,4.243,0,0,0-2.764.406c-.543.418-.743.9-.027,1.337,2.834,1.724,5.707,3.432,8.6,5.14a12.545,12.545,0,0,1,1.747,1.051c-.719-.066-1.474-.094-2.154-.2-1.536-.254-3.006-.6-4.566-.817-1.9-.27-3.846-.489-5.8-.637a5.516,5.516,0,0,0-2.111.289c-.688.274-.579.684-.168,1.1.711.711,1.642,1.087,1.528,1.251a12.175,12.175,0,0,1-1.587-.176c-2.244-.3-4.527-.563-6.7-.942-4.659-.809-8.521-2.06-11.136-3.952-.95-.684-1.982-1.349-3.037-2.009a3.271,3.271,0,0,0-1.212-.426,5.335,5.335,0,0,0-1.806,0c-.395.16-.645.571-.438.786,1.364,1.4,2.893,2.775,4.312,4.171a14.109,14.109,0,0,1,1.173,1.45l-.391.082a6.846,6.846,0,0,1-.7-.2c-.762-.32-1.458-.672-2.263-.973-1.474-.543-3.151-.434-3.627.336a3.084,3.084,0,0,0-.481,2.361,18.32,18.32,0,0,0,1.513,2.756c.184.395,0,.813-.019,1.22l-.481.035c-1.818-.813-3.659-1.614-5.441-2.439a31.3,31.3,0,0,0-2.943-1.485,6.174,6.174,0,0,0-3.3-.332,2.685,2.685,0,0,0-1.833,1.059c-.207.383-.023.555.059.84a10.138,10.138,0,0,1-3.28-1.528,31.166,31.166,0,0,1-3.346-2.779c-1.786-1.618-3.033-3.315-2.083-5.046a21.246,21.246,0,0,1,3.381-4.054c1.427-1.481,3.229-2.893,4.55-4.386a4.384,4.384,0,0,0,.926-2.521c.047-.352-.414-.8-.977-1.083-2.467-1.259-3.3-2.67-2.99-4.233.2-1.04.313-2.087.469-3.127C347.494,279.291,347.584,279.205,347.713,279.006Z" transform="translate(-341.792 -279.006)" fill="#d64123"/>
</svg>
