<svg xmlns="http://www.w3.org/2000/svg" xmlns:xlink="http://www.w3.org/1999/xlink" width="198.073" height="104.148" viewBox="0 0 198.073 104.148">
    <defs>
        <filter id="Path_554" x="0" y="0" width="104.147" height="104.148" filterUnits="userSpaceOnUse">
            <feOffset />
            <feGaussianBlur stdDeviation="3" result="blur"/>
            <feFlood flood-opacity="0.29"/>
            <feComposite operator="in" in2="blur"/>
            <feComposite in="SourceGraphic"/>
        </filter>
    </defs>
    <g id="fix-btn" transform="translate(9 9)">
        <rect id="Rectangle_1482"  width="135" height="52" rx="5" transform="translate(54.073 15.843)" fill="#fff"/>
        <text id="Συλλεκτικές_συσκευασίες_" transform="translate(131.372 39.073)" fill="#002677" font-size="16" font-family="SegoeUI, Segoe UI"><tspan x="-41.625" y="0">Συλλεκτικές</tspan><tspan x="-46.758" y="15.8">συσκευασίες </tspan></text>
        <g id="rhombus" transform="translate(-110.221 -79.47)">
            <g transform="matrix(1, 0, 0, 1, 101.22, 70.47)" filter="url(#Path_554)">
                <path id="Path_554-2"  d="M153.294,165.618a17.879,17.879,0,0,1-11.029-3.645,179.689,179.689,0,0,1-28.368-28.36,18.509,18.509,0,0,1-.034-22.095,179.662,179.662,0,0,1,28.364-28.372,18.507,18.507,0,0,1,22.093-.034,179.587,179.587,0,0,1,28.371,28.366,18.5,18.5,0,0,1,.034,22.094,179.474,179.474,0,0,1-28.361,28.37,17.969,17.969,0,0,1-11.069,3.677Z" transform="translate(-101.22 -70.47)" fill="#002677"/>
            </g>
            <path id="Path_555"  d="M154.545,164.77a15.8,15.8,0,0,1-9.753-3.2,177.05,177.05,0,0,1-28-27.994,16.463,16.463,0,0,1-.028-19.534,177.062,177.062,0,0,1,27.993-28,16.471,16.471,0,0,1,19.541-.025,177.353,177.353,0,0,1,28,27.993,16.473,16.473,0,0,1,.026,19.537,177.249,177.249,0,0,1-27.992,28,15.871,15.871,0,0,1-9.786,3.223Z" transform="translate(-1.251 -1.252)" fill="#fff"/>
            <path id="Path_556"  d="M157.053,163.072a11.471,11.471,0,0,1-6.947-2.2,174.607,174.607,0,0,1-27.572-27.556v0a12.05,12.05,0,0,1-.034-13.977h0a174.879,174.879,0,0,1,27.546-27.55,12.069,12.069,0,0,1,13.947-.061,174.741,174.741,0,0,1,27.579,27.57,12.054,12.054,0,0,1,.053,13.955l.007-.007-.007.007a.065.065,0,0,1-.018.022,174.432,174.432,0,0,1-27.539,27.549,11.515,11.515,0,0,1-7.013,2.251Z" transform="translate(-3.76 -3.761)" fill="#fff"/>
        </g>
        <g id="beer" transform="translate(-191.938 -719.505)">
            <path id="Path_835"  d="M37.394,20.8a5.028,5.028,0,0,1-1.822,2.089,18.787,18.787,0,0,1-3.853,1.82c-1.251.452-2.522.85-3.789,1.253q-2.73.864-5.464,1.7c-2.885.888-5.771,1.778-8.667,2.632a13.846,13.846,0,0,1-2.878.633c-.541.04-1.108-.37-1.672-.551A4.68,4.68,0,0,0,8.089,30.1c-1.607-.1-3.152-.125-4.262-1.7a25.757,25.757,0,0,1-2.761-6.031A19.607,19.607,0,0,1,0,15.472a8.642,8.642,0,0,1,.845-3.08,1.45,1.45,0,0,1,.909-.773c.754-.061,1.03-.543,1.328-1.1.534-.989,1.052-1.991,1.663-2.932A3.22,3.22,0,0,1,6.653,6.268c2.759-.832,5.461-1.853,8.211-2.717a38.937,38.937,0,0,1,4.3-.993c2.265-.436,4.127-1.192,6.223-1.637,1.82-.386,5.18-1.19,6.326-.831a16.292,16.292,0,0,0,2.3.88,3.317,3.317,0,0,0,1.483-.2c.681-.274,1.827.38,2.358.733A7.735,7.735,0,0,1,40.53,5.692c.808,2.49,2.077,6.063,1.785,8.218a7.589,7.589,0,0,1-1.03,3.4c-.384.459-3.3,2-3.89,3.494m-9.176,3.635q2.431-.864,4.813-1.859a5.347,5.347,0,0,0,2.281-1.258,29.63,29.63,0,0,0,2.237-4.126.881.881,0,0,0-.007-.565c-.574-1.99-1.077-4.007-1.761-5.96-.885-2.52-1.906-5-2.892-7.483a2.647,2.647,0,0,0-3.052-1.707c-2.2.466-4.379,1-6.56,1.534-.806.2-1.609.419-2.391.688-.239.08-.667.223-.74.572s.412.726.651.88c.4.253,6.269,3.825,7.909,4.687,1.71.895,2.34,1.911,2.276,2.651a9.766,9.766,0,0,1-1.9,4.206c-.9,1.248-2.084,3.033-3.258,4.386a2.617,2.617,0,0,0-.672,2.2c.049.372.122.74.2,1.134a1.422,1.422,0,0,0,.29.684C25.85,25.28,27.705,24.617,28.218,24.434ZM29.349,11.4c-2.258-1.4-4.616-2.628-6.963-3.874a2.883,2.883,0,0,0-3.651.813c-1.225,1.88-2.4,3.8-3.5,5.752a2.221,2.221,0,0,0,.258,2.691c2.2,2.6,5.192,3.569,8.4,4.049.321.047.815-.328,1.059-.64,1.288-1.644,2.574-3.3,3.759-5.016C29.232,14.408,30.4,12.05,29.349,11.4ZM9.307,28.589c.494.279,1.052.6,1.625.888.59.3.9-.078,1.049-.586a14.245,14.245,0,0,0-.272-7.941c-.609-2.127-1.571-4.155-2.176-6.281A10.124,10.124,0,0,0,6.651,9.83a1.427,1.427,0,0,0-1.974.105c-.445.7-.876,1.415-1.3,2.115a10.174,10.174,0,0,1,.909,1.323c1.965,4.061,3.752,8.19,4.344,12.719.075.546.087,1.1.112,1.733a1.219,1.219,0,0,0,.082.5C8.869,28.411,9.115,28.479,9.307,28.589ZM2.4,13.886a1.823,1.823,0,0,1,.543.665c.5,1.138.974,2.288,1.358,3.466.63,1.939,1.234,3.888,1.74,5.862.342,1.33.478,2.712.747,4.063.035.185.077.468.436.492.326-.012.314-.41.286-.583a45.874,45.874,0,0,0-.972-5.293C5.862,20.2,4.963,17.907,4.129,15.6c-.375-1.04-.785-2.077-1.918-2.368a.719.719,0,0,0-.513,0,.474.474,0,0,0-.227.262c-1.658,3.8,1.19,12.391,4.124,14.445.213.145.5.361.59.3.054-.035-.054-.29-.108-.461-.457-1.541-.815-3.4-1.391-5.246-1.269-4.059-2.742-8.056-2.63-8.445C2.082,13.987,2.2,13.8,2.4,13.886ZM36.075,1.842c2.712,4.169,3.752,8.5,4.644,13.321a7.559,7.559,0,0,0,.248-2.714,21.519,21.519,0,0,0-3.248-9.316A4.81,4.81,0,0,0,36.075,1.842Z" transform="matrix(0.259, -0.966, 0.966, 0.259, 214.592, 779.034)" fill="#001d63" fill-rule="evenodd"/>
        </g>
    </g>
</svg>
