<svg xmlns="http://www.w3.org/2000/svg" xmlns:xlink="http://www.w3.org/1999/xlink" width="156.073" height="104.148" viewBox="0 0 156.073 104.148">
    <defs>
        <filter id="Path_554" x="0" y="0" width="104.147" height="104.148" filterUnits="userSpaceOnUse">
            <feOffset input="SourceAlpha"/>
            <feGaussianBlur stdDeviation="3" result="blur"/>
            <feFlood flood-opacity="0.29"/>
            <feComposite operator="in" in2="blur"/>
            <feComposite in="SourceGraphic"/>
        </filter>
    </defs>
    <g id="fix-btn-gifts" transform="translate(9 9)">
        <rect id="Rectangle_1483" width="88" height="52" rx="5" transform="translate(59.073 16.995)" fill="#fff"/>
        <text id="Δώρα" transform="translate(97.372 47.226)" fill="#002677" font-size="16" font-family="SegoeUI, Segoe UI"><tspan x="0" y="0">Δώρα</tspan></text>
        <g id="rhombus">
            <g transform="matrix(1, 0, 0, 1, -9, -9)" filter="url(#Path_554)">
                <path id="Path_554-2" d="M153.294,165.618a17.879,17.879,0,0,1-11.029-3.645,179.689,179.689,0,0,1-28.368-28.36,18.509,18.509,0,0,1-.034-22.095,179.662,179.662,0,0,1,28.364-28.372,18.507,18.507,0,0,1,22.093-.034,179.587,179.587,0,0,1,28.371,28.366,18.5,18.5,0,0,1,.034,22.094,179.474,179.474,0,0,1-28.361,28.37,17.969,17.969,0,0,1-11.069,3.677Z" transform="translate(-101.22 -70.47)" fill="#002677"/>
            </g>
            <path id="Path_555" d="M154.545,164.77a15.8,15.8,0,0,1-9.753-3.2,177.05,177.05,0,0,1-28-27.994,16.463,16.463,0,0,1-.028-19.534,177.062,177.062,0,0,1,27.993-28,16.471,16.471,0,0,1,19.541-.025,177.353,177.353,0,0,1,28,27.993,16.473,16.473,0,0,1,.026,19.537,177.249,177.249,0,0,1-27.992,28,15.871,15.871,0,0,1-9.786,3.223Z" transform="translate(-111.472 -80.722)" fill="#fff"/>
            <path id="Path_556" d="M157.053,163.072a11.471,11.471,0,0,1-6.947-2.2,174.606,174.606,0,0,1-27.572-27.556v0a12.05,12.05,0,0,1-.034-13.977h0a174.879,174.879,0,0,1,27.546-27.55,12.069,12.069,0,0,1,13.947-.061,174.741,174.741,0,0,1,27.579,27.57,12.053,12.053,0,0,1,.053,13.955l.007-.007-.007.007a.065.065,0,0,1-.018.022,174.432,174.432,0,0,1-27.539,27.549,11.515,11.515,0,0,1-7.013,2.251Z" transform="translate(-113.981 -83.231)" fill="#fff"/>
        </g>
        <g id="gift" transform="translate(-6.877 23.067)">
            <path id="Path_3965" d="M65.139,242.453l-3.8-1.383a1.1,1.1,0,0,0-.4-.07H36.607a1.161,1.161,0,0,0-1.172,1.172v16.489a3.512,3.512,0,0,0,3.517,3.517H62.4a3.512,3.512,0,0,0,3.517-3.517V243.554A1.163,1.163,0,0,0,65.139,242.453Z" transform="translate(-2.722 -222.165)" fill="#00195a"/>
            <path id="Path_3966" d="M245.674,243.554v15.106a3.512,3.512,0,0,1-3.517,3.517H230.435V241H240.7a1.1,1.1,0,0,1,.4.07l3.8,1.383A1.163,1.163,0,0,1,245.674,243.554Z" transform="translate(-182.483 -222.165)" fill="#00195a"/>
            <path id="Path_3967" d="M178.367,7.642a4.746,4.746,0,0,0-3.212-3.4,4.671,4.671,0,0,0-4.548.985l-2.72,2.391-.539-3.587A4.749,4.749,0,0,0,164.465.351a4.451,4.451,0,0,0-.914-.258,4.662,4.662,0,0,0-3.7.821,4.733,4.733,0,0,0,1.172,8.3l2.532.914,3.118,1.149h.023l5.416,1.993a5.03,5.03,0,0,0,1.641.281,4.777,4.777,0,0,0,4.619-5.908Z" transform="translate(-115.598 0)" fill="#52b9e4"/>
            <path id="Path_3968" d="M67.2,64.772l-1.594,4.408a1.187,1.187,0,0,1-1.1.75,1.1,1.1,0,0,1-.4-.07L51.984,65.452l-1.1-3.634-2.931.656-2.579.586L33.252,58.653a1.193,1.193,0,0,1-.7-1.5l1.618-4.407a3.495,3.495,0,0,1,4.5-2.11l9.284,3.376.633.234s2.532,4.6,2.6,4.6c.047,0,1.055-.563,2.04-1.1s1.969-1.1,1.969-1.1l9.894,3.61a3.554,3.554,0,0,1,1.993,1.829A3.47,3.47,0,0,1,67.2,64.772Z" transform="translate(0 -46.477)" fill="#00195a"/>
            <path id="Path_3969" d="M249.683,107.16l-1.594,4.408a1.187,1.187,0,0,1-1.1.75,1.1,1.1,0,0,1-.4-.07l-12.121-4.408-1.1-3.634-2.931.656V96.4l.633.234s2.532,4.6,2.6,4.6c.047,0,1.055-.563,2.04-1.1s1.969-1.1,1.969-1.1l9.894,3.61a3.554,3.554,0,0,1,1.993,1.829A3.47,3.47,0,0,1,249.683,107.16Z" transform="translate(-182.483 -88.865)" fill="#00195a"/>
            <g id="Group_12107" transform="translate(44.435 7.768)">
                <path id="Path_3970" d="M185.435,241v21.178h7.033V241Z" transform="translate(-185.435 -229.933)" fill="#52b9e4"/>
                <path id="Path_3971" d="M200.647,99.4l-.633,1.735-2.579,7.08,2.579.938,2.931,1.055,1.1.4,3.212-8.815Z" transform="translate(-196.497 -99.398)" fill="#52b9e4"/>
            </g>
        </g>
    </g>
</svg>
