<svg xmlns="http://www.w3.org/2000/svg" xmlns:xlink="http://www.w3.org/1999/xlink" width="174.073" height="104.148" viewBox="0 0 174.073 104.148">
    <defs>
        <filter id="Path_554" x="0" y="0" width="104.147" height="104.148" filterUnits="userSpaceOnUse">
            <feOffset />
            <feGaussianBlur stdDeviation="3" result="blur"/>
            <feFlood flood-opacity="0.29"/>
            <feComposite operator="in" in2="blur"/>
            <feComposite in="SourceGraphic"/>
        </filter>
    </defs>
    <g id="fix-btn-park" transform="translate(9 9)">
        <rect id="Rectangle_1484"  width="104" height="52" rx="5" transform="translate(61.073 15.147)" fill="#fff"/>
        <text id="Πάρκο_ΦΙΞ_" transform="translate(98.372 38.378)" fill="#002677" font-size="16" font-family="SegoeUI, Segoe UI"><tspan x="0" y="0">Πάρκο</tspan><tspan x="0" y="15.8">ΦΙΞ!</tspan></text>
        <g id="rhombus">
            <g transform="matrix(1, 0, 0, 1, -9, -9)" filter="url(#Path_554)">
                <path id="Path_554-2"  d="M153.294,165.618a17.879,17.879,0,0,1-11.029-3.645,179.689,179.689,0,0,1-28.368-28.36,18.509,18.509,0,0,1-.034-22.095,179.662,179.662,0,0,1,28.364-28.372,18.507,18.507,0,0,1,22.093-.034,179.587,179.587,0,0,1,28.371,28.366,18.5,18.5,0,0,1,.034,22.094,179.474,179.474,0,0,1-28.361,28.37,17.969,17.969,0,0,1-11.069,3.677Z" transform="translate(-101.22 -70.47)" fill="#002677"/>
            </g>
            <path id="Path_555"  d="M154.545,164.77a15.8,15.8,0,0,1-9.753-3.2,177.05,177.05,0,0,1-28-27.994,16.463,16.463,0,0,1-.028-19.534,177.062,177.062,0,0,1,27.993-28,16.471,16.471,0,0,1,19.541-.025,177.353,177.353,0,0,1,28,27.993,16.473,16.473,0,0,1,.026,19.537,177.249,177.249,0,0,1-27.992,28,15.871,15.871,0,0,1-9.786,3.223Z" transform="translate(-111.472 -80.722)" fill="#fff"/>
            <path id="Path_556"  d="M157.053,163.072a11.471,11.471,0,0,1-6.947-2.2,174.606,174.606,0,0,1-27.572-27.556v0a12.05,12.05,0,0,1-.034-13.977h0a174.879,174.879,0,0,1,27.546-27.55,12.069,12.069,0,0,1,13.947-.061,174.741,174.741,0,0,1,27.579,27.57,12.053,12.053,0,0,1,.053,13.955l.007-.007-.007.007a.065.065,0,0,1-.018.022,174.432,174.432,0,0,1-27.539,27.549,11.515,11.515,0,0,1-7.013,2.251Z" transform="translate(-113.981 -83.231)" fill="#002677"/>
        </g>
        <path id="close" d="M15.461,3.151,10.614,8l4.845,4.845a1.847,1.847,0,0,1-2.613,2.61L8,10.606l-4.85,4.845a1.847,1.847,0,1,1-2.613-2.61L5.391,8,.546,3.151A1.845,1.845,0,1,1,3.154.541L8,5.388,12.851.544a1.845,1.845,0,0,1,2.61,2.608Z" transform="translate(51.069 35.379) rotate(90)" fill="#fff"/>
    </g>
</svg>
