<svg id="arrow" xmlns="http://www.w3.org/2000/svg" width="12.552" height="11.275" viewBox="0 0 12.552 11.275">
    <path id="Path_1964" d="M342.809,178.679l-4.591-4.59a1.08,1.08,0,0,0-1.527,0l-.579.58a1.07,1.07,0,0,0-.316.763,1.048,1.048,0,0,0,.316.754l1.725,1.716h-6.193a1.091,1.091,0,0,0-1.073,1.1v.821a1.072,1.072,0,0,0,.986,1.068.235.235,0,0,0,.05.008h6.324l-1.726,1.728a1.085,1.085,0,0,0,0,1.529l.58.58a1.08,1.08,0,0,0,1.527,0l4.5-4.5a1.122,1.122,0,0,0,0-1.556Z" transform="translate(-330.571 -173.773)" fill="#bc3713"/>
</svg>
