<svg xmlns="http://www.w3.org/2000/svg" width="774.391" height="242.532" viewBox="0 0 774.391 242.532">
    <g id="topLeft" transform="translate(0.208 0.669)">
        <line id="Line_1" x1="587.104" y1="184.55" transform="translate(173.586 0)" fill="none" stroke="#fff" stroke-miterlimit="10" stroke-width="1.401"/>
        <line id="Line_2" x2="667.985" y2="212.647" transform="translate(99.762 1.995)" fill="none" stroke="#fff" stroke-miterlimit="10" stroke-width="1.401"/>
        <line id="Line_3" x2="773.975" y2="241.194" transform="translate(0 0)" fill="none" stroke="#fff" stroke-miterlimit="10" stroke-width="1.401"/>
        <g id="Group_11789" transform="translate(407.64 43.368)">
            <path id="Path_366" d="M656.178,64c-.215,0-.312-.148-.438-.276a6.881,6.881,0,0,1-1.1-1.352.291.291,0,0,1,.011-.378,1.527,1.527,0,0,0,.4-.9.477.477,0,0,1,.051-.132.982.982,0,0,1,.118.087,5.282,5.282,0,0,1,1.126,1.672,6.215,6.215,0,0,1,.283.749C656.711,63.786,656.5,64,656.178,64Z" transform="translate(-627.69 -41.477)" fill="#fff"/>
            <path id="Path_367" d="M682.222,61.676a.862.862,0,0,1-1.184.419c-.4-.263-.813-.521-1.2-.813a3.48,3.48,0,0,1-1.092-1.263,5.891,5.891,0,0,0-.454-.735c-.031-.046-.114-.056-.174-.083-.022.07-.077.15-.06.21a1.343,1.343,0,0,0,.175.424c.279.4.56.8.871,1.175a4.163,4.163,0,0,0,.66.612,5.118,5.118,0,0,1,1.055.921.78.78,0,0,1-.42,1.226,1.61,1.61,0,0,1-1.5-.328,7.868,7.868,0,0,1-2.619-2.99c-.033-.077-.149-.12-.265-.208a1.284,1.284,0,0,0,.009.322,4.739,4.739,0,0,0,1.55,2.109,6.771,6.771,0,0,1,1.285,1.229.972.972,0,0,1,.03,1.181.7.7,0,0,1-.78.379,2.6,2.6,0,0,1-1.3-.592c-.444-.406-.89-.811-1.317-1.235a4.716,4.716,0,0,1-1.257-1.649c-.02-.055-.113-.083-.172-.123-.018.071-.071.157-.047.211a2.448,2.448,0,0,0,.339.655c.579.658,1.18,1.3,1.786,1.93a2.3,2.3,0,0,1,.476.685.766.766,0,0,1-.556,1.085,2.2,2.2,0,0,1-1.659-.163,4.235,4.235,0,0,1-1.438-1.292c-.49-.661-.949-1.345-1.425-2.016a1.275,1.275,0,0,0-.183-.176c-.041.066-.051.1-.038.128a4.861,4.861,0,0,0,.4.775c.606.809,1.239,1.6,1.859,2.4a.526.526,0,0,1,.132.221,2.078,2.078,0,0,1-.134,1.238.4.4,0,0,1-.631.177,8.265,8.265,0,0,1-1.147-.878c-.568-.576-1.09-1.2-1.612-1.817a8.089,8.089,0,0,1-1.677-3.326c-.263-1.066-.5-2.139-.776-3.2a5.436,5.436,0,0,0-.391-.916c-.02-.045-.1-.061-.157-.09a1.4,1.4,0,0,0-.041.164.321.321,0,0,0,.024.1c.18.706.362,1.412.541,2.118.19.753.358,1.512.571,2.258a9.746,9.746,0,0,0,2.345,4c.334.357.675.709,1.033,1.041a3.549,3.549,0,0,0,1.44.991.764.764,0,0,1,.088.048c.386.183.771.37,1.161.546a5.924,5.924,0,0,0,1.478.434c.786.128,1.572.257,2.352.411a2.19,2.19,0,0,1,.9.374c-.016.035-.019.06-.033.07-.445.307-.872.648-1.343.909a13.8,13.8,0,0,1-1.432.62c-.1.043-.226.041-.329.086A3.993,3.993,0,0,1,674,71.97a1.567,1.567,0,0,0-.32.023c-.45.065-.9.137-1.349.2-.126.017-.86.013-1.045.02-.26.009-.523,0-.78.034-.49.061-.975.167-1.465.216a2.467,2.467,0,0,1-1.266-.134c-.466-.206-.944-.388-1.393-.624a13.717,13.717,0,0,1-1.575-.927,11.432,11.432,0,0,1-2.64-2.709c-.637-.884-1.21-1.817-1.783-2.746a6.907,6.907,0,0,1-.646-1.314,13.389,13.389,0,0,1-.635-2.549,28.616,28.616,0,0,1-.538-4.1c0-.9-.079-1.808-.072-2.711.008-1.124.068-2.248.1-3.372.006-.18.012-.361.01-.541-.008-.615.024-1.234-.045-1.842a9.113,9.113,0,0,0-.36-1.362.454.454,0,0,1,.473-.068.451.451,0,0,0,.577-.224c.119-.224.241-.446.361-.669a.48.48,0,0,0-.117-.6c-.011.008-.025.014-.031.024a.108.108,0,0,0-.017.056.845.845,0,0,1-.256.745.272.272,0,0,0-.077.137.449.449,0,0,1-.4.346c-.468.108-.935.223-1.405.319-.242.05-.491.068-.737.1a2.539,2.539,0,0,1,.529-.289c.584-.253,1.17-.5,1.751-.759.06-.027.092-.12.137-.182-.087,0-.173-.006-.259,0-.03,0-.055.037-.086.05a.52.52,0,0,1-.572-.015,1.8,1.8,0,0,0-.585-.361c-.021-.009-.035-.037-.067-.072a1.93,1.93,0,0,0,.368-.365.3.3,0,0,1,.44-.133c.147.058.282.152.432.2a.669.669,0,0,0,.254-.026c-.038-.071-.059-.164-.117-.209a.97.97,0,0,0-.772-.217c-.214.039-.292-.005-.4-.207a1.666,1.666,0,0,1-.035-1.451,3.232,3.232,0,0,1,.942-1.208,2.74,2.74,0,0,1,.775-.592,6.776,6.776,0,0,1,1.455-.366,2.928,2.928,0,0,1,1.836.445,10.82,10.82,0,0,1,2.384,1.789,6.049,6.049,0,0,1,1.569,2.671,17.283,17.283,0,0,0,1.209,2.823.307.307,0,0,0,.112.137,7.293,7.293,0,0,0,1.306.611,20,20,0,0,1,2.635.91,21.99,21.99,0,0,1,3.593,1.878,20.61,20.61,0,0,1,3.784,3.164c.526.562,1.05,1.131,1.52,1.738.519.672.983,1.388,1.457,2.094.131.195.334.38.3.643A6.939,6.939,0,0,1,682.222,61.676Zm-12.21,4.971a.1.1,0,0,0,.084-.021.132.132,0,0,0-.021-.1c-.11-.089-.227-.17-.342-.254C669.709,66.3,669.892,66.552,670.012,66.647Zm-.231.957c-.052-.222-.224-.294-.405-.428A.471.471,0,0,0,669.781,67.6ZM659.456,56.265a.189.189,0,0,0,.054.083c.011.012.034.013.083.031a1.846,1.846,0,0,0-.005-.215c-.053-.383-.107-.765-.169-1.147a.521.521,0,0,0-.087-.154c-.027.047-.082.1-.076.138C659.316,55.423,659.386,55.844,659.456,56.265Zm-.307-7.728.093,1,.066,0A1.11,1.11,0,0,0,659.149,48.537Zm.17,2.755a1.338,1.338,0,0,0,.224,1.181Zm2.922,7a.919.919,0,0,0-.222-.852l-.066.026Zm-1.412.8-.258-1.186A1.317,1.317,0,0,0,660.829,59.091Zm-1.139-9.135.127,1.24.1-.015a6.749,6.749,0,0,0-.122-1.237Zm.11-.967c.09.4.176.79.266,1.2A1.377,1.377,0,0,0,659.8,48.989Zm.855,7.654a1.8,1.8,0,0,0-.227-1.358Zm-.054-4.448a2.5,2.5,0,0,0,.622,1.516Zm.343-1.715a4.267,4.267,0,0,0,.374,1.2A2.117,2.117,0,0,0,660.944,50.48Zm.63-5.7a.685.685,0,0,0-.609.722c-.019.356.4.592.685.6a.7.7,0,0,0,.577-.558A.834.834,0,0,0,661.574,44.783Zm.152,4.463-.072.056a3.514,3.514,0,0,0,.813,1.03l.057-.042Zm.654,17a1.227,1.227,0,0,0,.574.967Zm1.643-12.779a.9.9,0,0,0,.469.884Zm.507,15.447.534.652C665.089,69.335,664.757,68.913,664.53,68.918Zm2.6-7.03a1.452,1.452,0,0,0,.452,1.244Zm.717,2.413-.753-1.04A1.4,1.4,0,0,0,667.85,64.3Zm-.91-13.331-.767-.575C666.189,50.668,666.734,51.057,666.94,50.97Zm-.658,2.11-1.137-1.448C665.088,51.913,665.908,52.958,666.282,53.08Zm-.924-4.3-.066.026a.582.582,0,0,0,.325.614Zm.62.207c.035.362.734,1.11.994,1.1Zm2.323,1.524a1.518,1.518,0,0,1-.694-.583c-.029-.046-.1-.063-.155-.093,0,.047-.025.11,0,.139a1.883,1.883,0,0,0,.9.677.135.135,0,0,0,.06,0c.011,0,.022-.012.063-.037A1.569,1.569,0,0,0,668.3,50.508Zm.825,10.24-.053.024.562,1.239.064-.027A3.944,3.944,0,0,0,669.126,60.748ZM672,59.074l.334.433.089-.069-.338-.43Zm.32-3.461-.045.026a2.013,2.013,0,0,0,.469.8l.059-.035Zm-.213,6.627a2.393,2.393,0,0,0,1.039,1.177Zm2.517-1.176a1.386,1.386,0,0,0,.532.711A1.358,1.358,0,0,0,674.623,61.064Zm2.675-.481.483.5.074-.069A2.382,2.382,0,0,0,677.3,60.583Zm.338-3.593a2.012,2.012,0,0,0,.364.437l.059-.066Z" transform="translate(-655.52 -41.477)" fill="#fff"/>
            <path id="Path_368" d="M653.929,70.085a4.17,4.17,0,0,1-.775-.274,21.927,21.927,0,0,1-2.273-1.153,11.417,11.417,0,0,1-1.871-1.342c-.035-.034-.065-.074-.115-.13.562-.146,1.079-.313,1.308-.952.129.137.228.238.324.343a3.787,3.787,0,0,0,.254.281q1.656,1.462,3.314,2.923a.756.756,0,0,1,.124.226C654.121,70.035,654.012,70.107,653.929,70.085Z" transform="translate(-619.582 -41.477)" fill="#fff"/>
            <path id="Path_369" d="M656.363,66.724a1.35,1.35,0,0,1-.769.043c-.315-.034-.578-.232-.922-.207a2.594,2.594,0,0,1-1.363-.414.215.215,0,0,1-.1-.165,4.227,4.227,0,0,1,.1-.534c0-.012.062-.009.094-.015.3-.057.608-.1.9-.176a.656.656,0,0,0,.469-.751c.048-.1.074-.247.148-.277a.325.325,0,0,1,.45.121c.158.246.367.459.547.691.258.332.511.668.763,1a.334.334,0,0,1-.045.485A1.121,1.121,0,0,1,656.363,66.724Z" transform="translate(-626.44 -41.477)" fill="#fff"/>
            <path id="Path_370" d="M675.648,72.771c.328.093.368.073.322.291-.063.3-.116.605-.192.9a.746.746,0,0,0,.26.792c.1.093.228.165.335.256a3,3,0,0,1,.221.235,2.163,2.163,0,0,1-.243.065c-.2.025-.4.053-.6.061a.676.676,0,0,1-.341-.044,2.273,2.273,0,0,0-1.675-.225,7.9,7.9,0,0,1-1.914.156,3.758,3.758,0,0,0-.856.06.941.941,0,0,1-.785-.187,1.136,1.136,0,0,1,1.077-.641c.7.039,1.39.076,2.083.135a1.888,1.888,0,0,0,1.4-.382,1.686,1.686,0,0,0,.747-1.29C675.489,72.866,675.485,72.725,675.648,72.771Z" transform="translate(-663.244 -41.477)" fill="#fff"/>
            <path id="Path_371" d="M677.361,45.794c.165-.348.144-.4-.249-.632a.266.266,0,0,1,.372-.061.4.4,0,0,1,.142.479C677.569,45.745,677.5,45.8,677.361,45.794Z" transform="translate(-671.232 -41.477)" fill="#fff"/>
            <path id="Path_372" d="M680.777,47.925l-.041-.078a1.372,1.372,0,0,1,.134-.168c.488-.457.975-.915,1.474-1.36a.3.3,0,0,1,.27-.026c.293.134.574.293.918.473C682.543,47.069,681.726,47.656,680.777,47.925Z" transform="translate(-680.736 -41.477)" fill="#fff"/>
            <path id="Path_373" d="M656.516,73.3c-.147.074-.306.125-.445.181A7.091,7.091,0,0,1,654.532,73c-.505-.247-1.021-.472-1.536-.7-.908-.4-1.832-.76-2.726-1.185a11.96,11.96,0,0,0-1.971-.794A4.811,4.811,0,0,1,647.48,70c-.548-.265-1.085-.553-1.632-.821-.355-.173-.354-.163-.325-.545.009-.125.061-.16.175-.16a5.354,5.354,0,0,0,.621-.015,1.054,1.054,0,0,1,.705.179c1.25.754,2.518,1.479,3.775,2.221a12.582,12.582,0,0,0,4.11,1.562,1.041,1.041,0,0,0,.84-.173.2.2,0,0,1,.185-.012,2.025,2.025,0,0,1,.661.77A.2.2,0,0,1,656.516,73.3Z" transform="translate(-618.607 -41.477)" fill="#fff"/>
            <path id="Path_374" d="M669.7,75.063a1.286,1.286,0,0,0,.445-.823c.072-.407.172-.809.262-1.214a.49.49,0,0,1,.363-.342,2.372,2.372,0,0,1,.437-.069.892.892,0,0,1-.02.113c-.224.564-.44,1.132-.677,1.691-.142.337-.167.432.2.761a3.185,3.185,0,0,0,1.221.589,1.8,1.8,0,0,1,.987.75,1.381,1.381,0,0,1,.118.373,1.425,1.425,0,0,1-.366-.106,3.8,3.8,0,0,0-2.484-.62l-1.156.131c-.213.023-.425.05-.639.063-.494.031-.988.053-1.483.082-.3.018-.6.051-.9.054-.085,0-.171-.079-.256-.121.043-.079.066-.194.133-.23a2.227,2.227,0,0,1,.65-.284c.573-.1,1.153-.17,1.732-.228A2.6,2.6,0,0,0,669.7,75.063Z" transform="translate(-655.265 -41.477)" fill="#fff"/>
            <path id="Path_375" d="M654.793,72.034a3.282,3.282,0,0,1-1.062-.021,7.031,7.031,0,0,1-1.18-.5c-.892-.413-1.8-.8-2.668-1.258-.833-.44-1.625-.957-2.434-1.442-.262-.157-.52-.32-.769-.474l.739-.6c.54.31,1.147.624,1.718.993a18.31,18.31,0,0,0,3.01,1.513,1.2,1.2,0,0,0,.957.079.243.243,0,0,1,.2.046c.2.154.4.316.589.484.311.275.617.556.922.838C654.981,71.84,654.975,72.019,654.793,72.034Z" transform="translate(-618.082 -41.477)" fill="#fff"/>
            <path id="Path_376" d="M656.938,68.958a1.6,1.6,0,0,0,.809-1c.005-.029.094-.063.139-.057a.991.991,0,0,1,.205.078,1.6,1.6,0,0,0,1.8-.163c.384.184.752.371,1.129.538.189.083.4.119.589.2.065.027.157.132.145.177-.053.194-.056.424-.267.539a1.557,1.557,0,0,1-.329.146,4.712,4.712,0,0,1-1.636.068,13.093,13.093,0,0,1-1.408-.2C657.732,69.216,657.364,69.081,656.938,68.958Z" transform="translate(-635.158 -41.477)" fill="#fff"/>
            <path id="Path_377" d="M659.119,65.3a3.066,3.066,0,0,0,.255.188,3.924,3.924,0,0,0,.441.229,1.509,1.509,0,0,0,.928,0,.337.337,0,0,1,.25.044c.248.2.491.415.718.641a4.291,4.291,0,0,1,.55.626.594.594,0,0,1-.444.881,1.961,1.961,0,0,1-.833-.033,3.912,3.912,0,0,1-2.035-1.36.228.228,0,0,1-.043-.195A1.794,1.794,0,0,0,659.119,65.3Z" transform="translate(-637.716 -41.477)" fill="#fff"/>
            <path id="Path_378" d="M658.628,67.392a.666.666,0,0,1-.4.585,2.479,2.479,0,0,1-1.2.279c-.08,0-.16.005-.24,0a5.017,5.017,0,0,1-1.957-.552c-.356-.157-.348-.162-.325-.549.009-.151.074-.191.206-.148a1.193,1.193,0,0,0,1.387-.454.226.226,0,0,1,.2-.047,8.707,8.707,0,0,0,2.13.628C658.583,67.156,658.635,67.25,658.628,67.392Z" transform="translate(-629.597 -41.477)" fill="#fff"/>
            <path id="Path_379" d="M644.879,69.6a.837.837,0,0,1,.429.054c.536.206,1.065.429,1.6.645.954.388,1.912.768,2.862,1.165.507.211,1,.46,1.5.673s.994.4,1.495.588c.663.249,1.327.5,2,.727a2.816,2.816,0,0,1,1.177.731c.439.467.931.885,1.384,1.34.349.35.676.723,1.007,1.09.044.049.094.163.074.186a.315.315,0,0,1-.206.09,1,1,0,0,1-.376-.044c-.506-.193-1.007-.4-1.508-.605-.142-.059-.274-.14-.417-.2-.626-.253-1.259-.489-1.88-.754-.461-.2-.9-.438-1.361-.643-.678-.3-1.371-.573-2.043-.889-.507-.239-.991-.53-1.487-.792-.775-.411-1.572-.783-2.323-1.233a22.514,22.514,0,0,0-2.684-1.359c-.249-.108-.482-.251-.722-.379l.02-.056C643.9,69.825,644.388,69.7,644.879,69.6Z" transform="translate(-618.272 -41.477)" fill="#fff"/>
            <path id="Path_380" d="M657.274,64.2a.181.181,0,0,1,.132-.112c.319-.016.639,0,.957-.027a.435.435,0,0,1,.36.121c.258.232.515.468.792.677a1.06,1.06,0,0,1,.18,1.638.783.783,0,0,1-.561.351,1.735,1.735,0,0,1-1.076-.246,3.115,3.115,0,0,1-1.021-1.006c-.027-.044-.038-.143-.01-.172a1.093,1.093,0,0,0,.231-.884A2.02,2.02,0,0,1,657.274,64.2Z" transform="translate(-633.478 -41.477)" fill="#fff"/>
            <path id="Path_381" d="M655.93,62.522a2.807,2.807,0,0,1,.59-.171c.015,0,.041.03.059.049.273.292.547.585.819.879a2.443,2.443,0,0,1,.7.987.461.461,0,0,1-.011.3,1.058,1.058,0,0,1-1.564.424,5.135,5.135,0,0,1-.5-.37c-.188-.16-.363-.335-.54-.508-.11-.108-.115-.2.02-.313a1.058,1.058,0,0,0,.368-.929.059.059,0,0,1,0-.019C655.887,62.737,655.87,62.552,655.93,62.522Z" transform="translate(-629.987 -41.477)" fill="#fff"/>
            <path id="Path_382" d="M665.536,68.02a1.325,1.325,0,0,1-.6.621,2.654,2.654,0,0,1-2.253-.009,14.278,14.278,0,0,1-1.341-.585.76.76,0,0,1-.1-.072,1.789,1.789,0,0,0,.629-1.539c.253.123.454.228.66.32a1.592,1.592,0,0,0,1.575-.068c.159-.1.224-.05.333.05.318.295.643.582.971.864A.328.328,0,0,1,665.536,68.02Z" transform="translate(-643.274 -41.477)" fill="#fff"/>
        </g>
        <g id="Group_11790" transform="translate(346.736 90.584)">
            <path id="Path_383" d="M735.8,103.208c.142,0,.208-.093.293-.175a4.566,4.566,0,0,0,.743-.875.192.192,0,0,0,0-.25,1.007,1.007,0,0,1-.25-.6.3.3,0,0,0-.031-.088.78.78,0,0,0-.08.055,3.49,3.49,0,0,0-.765,1.086,4.187,4.187,0,0,0-.2.489C735.456,103.056,735.59,103.2,735.8,103.208Z" transform="translate(-727.95 -88.693)" fill="#fff"/>
            <path id="Path_384" d="M718.283,100.857c-.021-.174.115-.293.2-.419.322-.458.638-.924.99-1.359.318-.394.671-.761,1.025-1.124a13.6,13.6,0,0,1,2.538-2.03,14.49,14.49,0,0,1,2.394-1.186,13.18,13.18,0,0,1,1.748-.562,4.855,4.855,0,0,0,.87-.384.2.2,0,0,0,.075-.089,11.288,11.288,0,0,0,.837-1.843,3.981,3.981,0,0,1,1.071-1.737,7.09,7.09,0,0,1,1.6-1.144,1.927,1.927,0,0,1,1.216-.267,4.4,4.4,0,0,1,.953.261,1.8,1.8,0,0,1,.5.4,2.124,2.124,0,0,1,.6.81,1.1,1.1,0,0,1-.044.954c-.074.132-.126.16-.266.131a.643.643,0,0,0-.512.132c-.039.029-.054.09-.08.136a.434.434,0,0,0,.167.021c.1-.031.189-.091.287-.127a.2.2,0,0,1,.288.094,1.28,1.28,0,0,0,.238.246c-.022.022-.032.041-.046.046a1.2,1.2,0,0,0-.39.229.343.343,0,0,1-.377,0c-.02-.01-.037-.033-.056-.035-.057,0-.114,0-.171,0,.029.041.049.1.088.121.379.179.762.35,1.142.525a1.662,1.662,0,0,1,.345.2c-.162-.024-.325-.04-.484-.076-.309-.07-.615-.152-.921-.23a.3.3,0,0,1-.257-.234.183.183,0,0,0-.048-.091.554.554,0,0,1-.158-.495.072.072,0,0,0-.011-.036.067.067,0,0,0-.02-.017.317.317,0,0,0-.086.395c.076.149.153.3.228.446a.3.3,0,0,0,.377.155.3.3,0,0,1,.311.052,6.143,6.143,0,0,0-.257.892c-.053.4-.041.808-.055,1.213,0,.118,0,.237,0,.356.008.741.032,1.483.021,2.223-.008.6-.074,1.19-.086,1.785a18.914,18.914,0,0,1-.412,2.691,8.818,8.818,0,0,1-.455,1.67,4.515,4.515,0,0,1-.444.856c-.39.6-.781,1.21-1.213,1.784a7.542,7.542,0,0,1-1.778,1.747,9.146,9.146,0,0,1-1.051.589c-.3.149-.616.262-.926.391a1.632,1.632,0,0,1-.836.07c-.322-.039-.64-.116-.962-.163-.169-.025-.342-.024-.514-.033-.121-.007-.605-.015-.687-.029-.3-.048-.591-.1-.887-.15a.99.99,0,0,0-.21-.02,2.641,2.641,0,0,1-1.275-.234c-.067-.031-.148-.032-.215-.061a9.108,9.108,0,0,1-.935-.43,10.672,10.672,0,0,1-.872-.618c-.009-.006-.01-.022-.02-.046a1.427,1.427,0,0,1,.595-.233c.517-.091,1.036-.165,1.556-.238a3.9,3.9,0,0,0,.979-.265c.26-.11.516-.228.773-.343a.365.365,0,0,1,.059-.03,2.343,2.343,0,0,0,.962-.633c.241-.214.471-.441.695-.671a6.42,6.42,0,0,0,1.6-2.6c.151-.489.272-.986.408-1.479.128-.463.258-.926.387-1.388a.219.219,0,0,0,.017-.063.818.818,0,0,0-.025-.109c-.036.018-.091.028-.105.057a3.6,3.6,0,0,0-.271.6c-.2.7-.367,1.4-.556,2.1a5.327,5.327,0,0,1-1.152,2.167c-.352.4-.705.8-1.087,1.174a5.38,5.38,0,0,1-.769.562.261.261,0,0,1-.413-.125,1.371,1.371,0,0,1-.07-.818.352.352,0,0,1,.089-.144c.421-.517.848-1.028,1.26-1.552a3.282,3.282,0,0,0,.277-.5c.008-.016,0-.041-.024-.084a.883.883,0,0,0-.123.113c-.323.435-.635.879-.967,1.308a2.8,2.8,0,0,1-.966.83,1.45,1.45,0,0,1-1.095.084.5.5,0,0,1-.351-.722,1.52,1.52,0,0,1,.324-.445c.408-.408.813-.821,1.2-1.246a1.6,1.6,0,0,0,.233-.427c.016-.035-.017-.092-.028-.14-.039.026-.1.044-.115.079a3.1,3.1,0,0,1-.852,1.069c-.287.273-.586.533-.885.795a1.71,1.71,0,0,1-.864.371.462.462,0,0,1-.509-.26.641.641,0,0,1,.037-.778,4.451,4.451,0,0,1,.864-.792,3.114,3.114,0,0,0,1.05-1.367.828.828,0,0,0,.011-.212c-.078.057-.155.083-.177.134a5.194,5.194,0,0,1-1.768,1.932,1.064,1.064,0,0,1-.993.195.514.514,0,0,1-.259-.814,3.375,3.375,0,0,1,.708-.592,2.819,2.819,0,0,0,.444-.393c.21-.243.4-.5.59-.762a.906.906,0,0,0,.121-.277c.012-.04-.023-.093-.037-.139-.039.017-.094.023-.115.052a3.983,3.983,0,0,0-.31.478,2.287,2.287,0,0,1-.737.816c-.256.187-.53.351-.8.519a.567.567,0,0,1-.773-.293A4.553,4.553,0,0,1,718.283,100.857Zm8.306,4.045c-.076.053-.154.105-.228.162-.015.011-.018.046-.015.068s.044.023.054.015C726.481,105.086,726.605,104.92,726.589,104.9Zm.223.6c-.121.086-.235.131-.273.277A.312.312,0,0,0,726.812,105.5Zm6.839-7.876c.005-.027-.031-.061-.048-.092a.337.337,0,0,0-.06.1c-.045.25-.086.5-.127.753a1.21,1.21,0,0,0-.006.141c.032-.01.048-.011.055-.019a.125.125,0,0,0,.037-.053C733.554,98.181,733.606,97.9,733.651,97.628Zm.044-3.6.043,0,.075-.66A.727.727,0,0,0,733.7,94.027Zm-.2,1.931a.878.878,0,0,0,.164-.774Zm-1.658,3.255-.044-.018a.609.609,0,0,0-.158.559Zm.9.309-.187.778A.867.867,0,0,0,732.744,99.522Zm.622-5.233a4.439,4.439,0,0,0-.1.813l.067.011.1-.815Zm-.18.155.192-.784A.906.906,0,0,0,733.186,94.444Zm-.311,3.354a1.185,1.185,0,0,0-.168.891Zm-.5-1.048a1.641,1.641,0,0,0,.432-.99Zm-.033-1.338a2.808,2.808,0,0,0,.264-.787A1.394,1.394,0,0,0,732.34,95.412Zm-.512-4.054a.463.463,0,0,0,.372.376c.186,0,.467-.151.46-.386a.452.452,0,0,0-.391-.484A.55.55,0,0,0,731.828,91.358Zm-.263,3.12.037.028a2.309,2.309,0,0,0,.55-.667l-.046-.037Zm-.523,11.144a.806.806,0,0,0,.391-.628Zm-.831-8.494a.6.6,0,0,0,.322-.576Zm-.592,10.015.361-.422C729.83,106.714,729.605,106.988,729.619,107.143Zm-1.57-4.277a.958.958,0,0,0,.316-.813Zm.32.091-.511.675A.918.918,0,0,0,728.369,102.957Zm.791-8.462-.513.368C728.781,94.923,729.146,94.675,729.16,94.495Zm.659.83-.769.938C729.3,96.187,729.853,95.511,729.819,95.325Zm-.279-1.466a.384.384,0,0,0,.223-.4l-.043-.018Zm-.9.421c.171.009.642-.473.67-.711Zm-.992.326c.027.017.033.025.041.026a.085.085,0,0,0,.039,0,1.241,1.241,0,0,0,.6-.433c.015-.019,0-.061,0-.092-.035.019-.084.03-.1.059a1,1,0,0,1-.465.375A.8.8,0,0,0,727.646,94.606Zm-.973,7.473.041.019.389-.808-.035-.016A2.6,2.6,0,0,0,726.673,102.079Zm-1.529-1.994-.229.279.058.046.226-.28Zm-.436-1.725.038.024a1.315,1.315,0,0,0,.32-.521l-.029-.018Zm-.326,4.615a1.584,1.584,0,0,0,.7-.761Zm-1.3-1.111a.909.909,0,0,0,.361-.46A.9.9,0,0,0,723.081,101.864Zm-1.767-.537.047.047.326-.325A1.54,1.54,0,0,0,721.314,101.327Zm-.083-2.411.038.044a1.336,1.336,0,0,0,.246-.283Z" transform="translate(-709.364 -88.693)" fill="#fff"/>
            <path id="Path_385" d="M737.361,107.13a2.8,2.8,0,0,0,.515-.169,14.588,14.588,0,0,0,1.513-.727,7.563,7.563,0,0,0,1.252-.858c.023-.022.044-.048.077-.084-.368-.105-.706-.221-.848-.646-.087.088-.153.154-.218.221a2.451,2.451,0,0,1-.171.182c-.741.627-1.485,1.251-2.225,1.879a.51.51,0,0,0-.085.146C737.235,107.1,737.306,107.144,737.361,107.13Z" transform="translate(-733.453 -88.693)" fill="#fff"/>
            <path id="Path_386" d="M735.734,104.979a.89.89,0,0,0,.506.039c.208-.018.384-.145.61-.123a1.713,1.713,0,0,0,.9-.254.141.141,0,0,0,.071-.107,3.03,3.03,0,0,0-.06-.353c0-.008-.041-.007-.062-.011-.2-.042-.4-.073-.593-.129a.432.432,0,0,1-.3-.5c-.031-.064-.045-.163-.094-.184a.215.215,0,0,0-.3.073c-.107.16-.248.3-.37.448-.175.215-.346.433-.517.651a.22.22,0,0,0,.023.32A.742.742,0,0,0,735.734,104.979Z" transform="translate(-728.864 -88.693)" fill="#fff"/>
            <path id="Path_387" d="M723.2,109.211c-.217.056-.243.043-.216.187.037.2.068.4.114.6a.492.492,0,0,1-.183.518c-.07.06-.152.106-.224.164a1.991,1.991,0,0,0-.149.152,1.341,1.341,0,0,0,.159.046c.13.02.261.041.393.049a.448.448,0,0,0,.226-.024,1.494,1.494,0,0,1,1.106-.124,5.231,5.231,0,0,0,1.258.129,2.464,2.464,0,0,1,.564.052.618.618,0,0,0,.519-.112.75.75,0,0,0-.7-.438c-.458.016-.917.031-1.374.06a1.249,1.249,0,0,1-.917-.271,1.111,1.111,0,0,1-.474-.861C723.3,109.276,723.31,109.183,723.2,109.211Z" transform="translate(-704.877 -88.693)" fill="#fff"/>
            <path id="Path_388" d="M721.608,91.529c-.1-.232-.089-.269.173-.413a.175.175,0,0,0-.244-.046.265.265,0,0,0-.1.314C721.472,91.493,721.52,91.534,721.608,91.529Z" transform="translate(-698.767 -88.693)" fill="#fff"/>
            <path id="Path_389" d="M719.384,93.019l.028-.051a.96.96,0,0,0-.086-.113c-.315-.308-.63-.616-.951-.917a.2.2,0,0,0-.179-.02c-.194.084-.381.184-.61.3C718.233,92.43,718.762,92.828,719.384,93.019Z" transform="translate(-692.562 -88.693)" fill="#fff"/>
            <path id="Path_390" d="M735.679,109.2c.1.051.2.087.29.125a4.63,4.63,0,0,0,1.021-.293c.336-.156.679-.3,1.022-.437.6-.248,1.217-.474,1.812-.741a7.79,7.79,0,0,1,1.31-.5,3.158,3.158,0,0,0,.544-.2c.365-.167.723-.349,1.087-.518.236-.109.235-.1.222-.354,0-.083-.038-.107-.113-.108a3.479,3.479,0,0,1-.409-.019.691.691,0,0,0-.467.108c-.834.479-1.68.939-2.518,1.41a8.307,8.307,0,0,1-2.73.97.686.686,0,0,1-.551-.126.136.136,0,0,0-.122-.01,1.345,1.345,0,0,0-.446.5A.131.131,0,0,0,735.679,109.2Z" transform="translate(-734.163 -88.693)" fill="#fff"/>
            <path id="Path_391" d="M727.127,110.692a.848.848,0,0,1-.281-.548c-.042-.27-.1-.536-.155-.8a.325.325,0,0,0-.235-.231,1.543,1.543,0,0,0-.287-.051.423.423,0,0,0,.012.074c.139.375.274.752.422,1.124.089.224.1.287-.145.5a2.1,2.1,0,0,1-.812.37,1.188,1.188,0,0,0-.661.48.879.879,0,0,0-.083.244.9.9,0,0,0,.242-.064,2.509,2.509,0,0,1,1.645-.374l.76.1c.14.018.28.039.42.051.325.027.651.049.976.075.2.016.395.042.593.048.056,0,.114-.049.17-.076-.027-.053-.041-.129-.084-.153a1.475,1.475,0,0,0-.425-.2c-.375-.075-.756-.128-1.137-.174A1.717,1.717,0,0,1,727.127,110.692Z" transform="translate(-710.174 -88.693)" fill="#fff"/>
            <path id="Path_392" d="M736.807,108.38a2.164,2.164,0,0,0,.7,0,4.654,4.654,0,0,0,.784-.315c.594-.259,1.2-.5,1.776-.791.555-.277,1.084-.607,1.624-.915.174-.1.347-.2.513-.3l-.478-.408c-.36.2-.764.395-1.146.63a12.175,12.175,0,0,1-2,.954.8.8,0,0,1-.632.038.165.165,0,0,0-.132.027q-.2.148-.4.311c-.208.177-.414.358-.618.539C736.686,108.25,736.687,108.368,736.807,108.38Z" transform="translate(-734.484 -88.693)" fill="#fff"/>
            <path id="Path_393" d="M735.4,106.566a1.058,1.058,0,0,1-.518-.667c0-.019-.061-.043-.091-.04a.743.743,0,0,0-.136.049,1.05,1.05,0,0,1-1.181-.133c-.256.116-.5.234-.752.338-.125.053-.264.073-.391.123-.043.016-.105.085-.1.114.032.129.031.28.169.359a1.019,1.019,0,0,0,.214.1,3.123,3.123,0,0,0,1.077.068,8.8,8.8,0,0,0,.93-.109C734.875,106.725,735.12,106.641,735.4,106.566Z" transform="translate(-723.199 -88.693)" fill="#fff"/>
            <path id="Path_394" d="M733.96,104.16a2.011,2.011,0,0,1-.171.12,2.568,2.568,0,0,1-.293.144.993.993,0,0,1-.612-.012.214.214,0,0,0-.165.026c-.166.13-.329.266-.482.411a2.838,2.838,0,0,0-.371.4.391.391,0,0,0,.279.587,1.306,1.306,0,0,0,.55-.01,2.585,2.585,0,0,0,1.36-.867.155.155,0,0,0,.031-.128A1.177,1.177,0,0,1,733.96,104.16Z" transform="translate(-721.457 -88.693)" fill="#fff"/>
            <path id="Path_395" d="M734.269,105.431a.44.44,0,0,0,.252.391,1.628,1.628,0,0,0,.787.2c.053,0,.106.006.159.006a3.3,3.3,0,0,0,1.3-.336c.237-.1.232-.1.222-.356,0-.1-.046-.127-.133-.1a.788.788,0,0,1-.908-.318.142.142,0,0,0-.131-.034,5.809,5.809,0,0,1-1.413.383C734.3,105.276,734.266,105.338,734.269,105.431Z" transform="translate(-726.82 -88.693)" fill="#fff"/>
            <path id="Path_396" d="M743.465,106.922a.534.534,0,0,0-.284.03c-.356.127-.707.267-1.061.4-.634.241-1.27.478-1.9.726-.336.132-.663.289-1,.423s-.66.249-.993.365c-.44.155-.881.309-1.326.451a1.852,1.852,0,0,0-.785.465c-.3.3-.626.57-.931.863-.235.226-.456.467-.679.7-.03.032-.065.106-.051.121a.2.2,0,0,0,.134.062.662.662,0,0,0,.248-.023c.336-.12.669-.249,1-.377.094-.037.183-.089.278-.124.416-.158.836-.3,1.249-.47.307-.123.6-.276.906-.4.451-.19.911-.359,1.358-.557.338-.15.66-.335.991-.5.516-.259,1.047-.493,1.548-.779a14.944,14.944,0,0,1,1.787-.857c.166-.068.321-.159.481-.239l-.012-.038C744.1,107.083,743.787,106.993,743.465,106.922Z" transform="translate(-734.451 -88.693)" fill="#fff"/>
            <path id="Path_397" d="M735.156,103.4a.123.123,0,0,0-.085-.076c-.21-.014-.421-.011-.63-.031a.291.291,0,0,0-.239.075c-.173.149-.346.3-.531.435a.7.7,0,0,0-.142,1.076.515.515,0,0,0,.364.239,1.136,1.136,0,0,0,.712-.147,2.035,2.035,0,0,0,.687-.647.127.127,0,0,0,.009-.114.722.722,0,0,1-.139-.586A1.4,1.4,0,0,0,735.156,103.4Z" transform="translate(-724.214 -88.693)" fill="#fff"/>
            <path id="Path_398" d="M736.025,102.267a1.916,1.916,0,0,0-.387-.121c-.009,0-.027.019-.039.031-.184.189-.369.378-.552.568a1.6,1.6,0,0,0-.474.641.3.3,0,0,0,0,.2.7.7,0,0,0,1.024.3,3.236,3.236,0,0,0,.334-.236c.126-.1.244-.216.363-.327.074-.07.079-.132-.009-.207a.7.7,0,0,1-.229-.617.058.058,0,0,0,0-.013C736.05,102.41,736.064,102.288,736.025,102.267Z" transform="translate(-726.473 -88.693)" fill="#fff"/>
            <path id="Path_399" d="M729.726,105.941a.866.866,0,0,0,.388.418,1.752,1.752,0,0,0,1.484.026c.306-.093.595-.242.892-.366a.546.546,0,0,0,.067-.047,1.175,1.175,0,0,1-.392-1.022c-.168.077-.3.143-.44.2a1.045,1.045,0,0,1-1.036-.067c-.1-.069-.147-.036-.22.029-.214.189-.432.373-.652.555A.214.214,0,0,0,729.726,105.941Z" transform="translate(-717.827 -88.693)" fill="#fff"/>
        </g>
        <g id="Group_11791" transform="translate(375.924 99.754)">
            <path id="Path_400" d="M706.616,112.378c.142,0,.208-.093.293-.175a4.539,4.539,0,0,0,.743-.875.191.191,0,0,0,0-.249,1,1,0,0,1-.249-.6.357.357,0,0,0-.032-.088.63.63,0,0,0-.08.056,3.475,3.475,0,0,0-.765,1.085,4.212,4.212,0,0,0-.2.49C706.268,112.227,706.4,112.372,706.616,112.378Z" transform="translate(-698.762 -97.863)" fill="#fff"/>
            <path id="Path_401" d="M689.1,110.027c-.021-.174.115-.292.2-.419.323-.458.638-.923.99-1.359.318-.393.671-.76,1.025-1.123a13.6,13.6,0,0,1,2.538-2.031,14.569,14.569,0,0,1,2.394-1.186,13.176,13.176,0,0,1,1.748-.562,4.853,4.853,0,0,0,.87-.384.2.2,0,0,0,.075-.089,11.316,11.316,0,0,0,.837-1.842,3.975,3.975,0,0,1,1.071-1.737,7.094,7.094,0,0,1,1.6-1.145,1.927,1.927,0,0,1,1.216-.267,4.511,4.511,0,0,1,.953.261,1.834,1.834,0,0,1,.5.4,2.139,2.139,0,0,1,.6.81,1.1,1.1,0,0,1-.044.955c-.074.132-.126.159-.266.131a.636.636,0,0,0-.512.132c-.039.028-.054.089-.08.135a.415.415,0,0,0,.167.021c.1-.03.189-.09.287-.127a.2.2,0,0,1,.288.1,1.276,1.276,0,0,0,.238.245c-.022.023-.031.041-.046.046a1.192,1.192,0,0,0-.39.23.345.345,0,0,1-.377,0c-.02-.01-.037-.033-.056-.035-.056,0-.114,0-.171,0,.029.042.049.1.088.122.379.179.762.35,1.142.524a1.665,1.665,0,0,1,.345.2c-.162-.025-.325-.04-.484-.077-.309-.07-.614-.152-.921-.23a.3.3,0,0,1-.257-.233.186.186,0,0,0-.048-.092.552.552,0,0,1-.158-.494.073.073,0,0,0-.011-.037c0-.007-.013-.011-.02-.017a.318.318,0,0,0-.086.395c.076.149.153.3.228.446a.3.3,0,0,0,.377.156.3.3,0,0,1,.311.051,6.029,6.029,0,0,0-.256.893c-.054.4-.042.807-.056,1.212,0,.119,0,.238,0,.357.008.741.032,1.482.022,2.223-.009.6-.075,1.189-.087,1.784a18.9,18.9,0,0,1-.412,2.691,8.773,8.773,0,0,1-.455,1.67,4.523,4.523,0,0,1-.444.857c-.39.6-.781,1.21-1.213,1.784a7.562,7.562,0,0,1-1.778,1.747,9.145,9.145,0,0,1-1.051.588c-.3.149-.616.262-.926.391a1.622,1.622,0,0,1-.836.071c-.322-.04-.64-.116-.962-.164-.169-.025-.342-.023-.514-.033-.121-.007-.605-.015-.687-.028-.3-.048-.591-.1-.887-.151a.988.988,0,0,0-.21-.019,2.642,2.642,0,0,1-1.275-.235c-.067-.031-.148-.031-.215-.061a9.319,9.319,0,0,1-.935-.429c-.307-.179-.583-.409-.872-.618-.009-.007-.01-.023-.02-.047a1.454,1.454,0,0,1,.595-.233c.517-.091,1.036-.165,1.556-.238a3.816,3.816,0,0,0,.979-.265c.26-.11.516-.228.773-.343a.362.362,0,0,1,.059-.03,2.343,2.343,0,0,0,.962-.633c.241-.213.471-.44.7-.671a6.42,6.42,0,0,0,1.6-2.6c.151-.488.272-.986.408-1.479.128-.463.258-.925.387-1.388a.193.193,0,0,0,.017-.063.828.828,0,0,0-.025-.109c-.036.018-.091.028-.1.057a3.669,3.669,0,0,0-.27.6c-.2.7-.368,1.4-.557,2.1a5.323,5.323,0,0,1-1.152,2.166c-.352.4-.705.8-1.087,1.174a5.461,5.461,0,0,1-.769.563.261.261,0,0,1-.413-.126,1.368,1.368,0,0,1-.07-.817.338.338,0,0,1,.09-.144c.42-.517.847-1.028,1.259-1.552a3.287,3.287,0,0,0,.277-.505c.009-.017,0-.041-.024-.085a.883.883,0,0,0-.123.113c-.323.436-.635.88-.967,1.308a2.813,2.813,0,0,1-.966.831,1.454,1.454,0,0,1-1.095.084.505.505,0,0,1-.351-.723,1.516,1.516,0,0,1,.324-.444c.408-.409.813-.822,1.2-1.247a1.61,1.61,0,0,0,.233-.426c.016-.035-.017-.093-.028-.14-.039.026-.1.043-.115.079a3.11,3.11,0,0,1-.852,1.068c-.287.273-.586.534-.885.8a1.711,1.711,0,0,1-.864.371.462.462,0,0,1-.509-.26.641.641,0,0,1,.037-.778,4.444,4.444,0,0,1,.864-.791,3.125,3.125,0,0,0,1.05-1.367.829.829,0,0,0,.011-.212c-.078.056-.155.082-.177.133a5.179,5.179,0,0,1-1.768,1.932,1.061,1.061,0,0,1-.993.195.514.514,0,0,1-.259-.814,3.372,3.372,0,0,1,.708-.591,2.826,2.826,0,0,0,.444-.394c.21-.242.4-.5.59-.762a.894.894,0,0,0,.121-.277c.012-.039-.023-.092-.037-.139-.039.017-.094.023-.115.053a3.9,3.9,0,0,0-.31.477,2.3,2.3,0,0,1-.737.817c-.256.187-.53.351-.8.518a.566.566,0,0,1-.773-.293A4.533,4.533,0,0,1,689.1,110.027Zm8.306,4.045c-.076.053-.154.1-.228.162a.085.085,0,0,0-.015.068.065.065,0,0,0,.054.016C697.293,114.257,697.417,114.09,697.4,114.072Zm.223.6c-.121.085-.235.131-.273.276A.311.311,0,0,0,697.624,114.675Zm6.839-7.877c.005-.027-.031-.061-.048-.092a.361.361,0,0,0-.06.1c-.045.251-.086.5-.127.753a1.229,1.229,0,0,0-.006.142c.032-.011.048-.011.055-.019a.129.129,0,0,0,.037-.054C704.366,107.352,704.418,107.075,704.463,106.8Zm.044-3.6.043,0,.075-.66A.73.73,0,0,0,704.507,103.2Zm-.2,1.931a.88.88,0,0,0,.164-.775Zm-1.658,3.255-.044-.018a.607.607,0,0,0-.158.558Zm.9.308-.187.778A.867.867,0,0,0,703.556,108.692Zm.622-5.233a4.536,4.536,0,0,0-.1.813l.068.011.1-.814Zm-.18.156.192-.785A.907.907,0,0,0,704,103.615Zm-.311,3.353a1.187,1.187,0,0,0-.168.892Zm-.5-1.047a1.648,1.648,0,0,0,.431-.991Zm-.034-1.338a2.81,2.81,0,0,0,.264-.787A1.388,1.388,0,0,0,703.152,104.583Zm-.512-4.054a.462.462,0,0,0,.372.375c.186,0,.467-.151.46-.386a.452.452,0,0,0-.391-.484A.55.55,0,0,0,702.64,100.529Zm-.263,3.119.037.029a2.309,2.309,0,0,0,.55-.667l-.046-.038Zm-.523,11.145a.807.807,0,0,0,.391-.629Zm-.83-8.495a.6.6,0,0,0,.321-.575Zm-.593,10.015.361-.422C700.642,115.885,700.417,116.158,700.431,116.313Zm-1.57-4.277a.958.958,0,0,0,.316-.813Zm.32.092-.511.675A.921.921,0,0,0,699.181,112.128Zm.791-8.462-.513.367C699.593,104.094,699.958,103.846,699.972,103.666Zm.659.829-.769.938C700.11,105.358,700.665,104.681,700.631,104.495Zm-.279-1.466a.383.383,0,0,0,.223-.4l-.043-.018Zm-.9.422c.171.008.642-.474.67-.712Zm-.992.326c.027.017.033.024.041.025a.085.085,0,0,0,.039,0,1.241,1.241,0,0,0,.6-.433c.015-.018,0-.06,0-.091-.035.019-.084.029-.1.059a1,1,0,0,1-.465.374A1.022,1.022,0,0,0,698.458,103.777Zm-.973,7.473.041.019.389-.808-.035-.017A2.613,2.613,0,0,0,697.485,111.25Zm-1.529-1.994-.229.278.058.047.226-.28Zm-.436-1.726.038.024a1.3,1.3,0,0,0,.32-.52l-.029-.018Zm-.326,4.615a1.571,1.571,0,0,0,.7-.761Zm-1.3-1.11a.911.911,0,0,0,.361-.461A.9.9,0,0,0,693.893,111.035Zm-1.767-.537.047.046.326-.325A1.553,1.553,0,0,0,692.126,110.5Zm-.083-2.412.038.044a1.312,1.312,0,0,0,.246-.283Z" transform="translate(-680.176 -97.863)" fill="#fff"/>
            <path id="Path_402" d="M708.173,116.3a2.721,2.721,0,0,0,.515-.169,14.387,14.387,0,0,0,1.513-.727,7.563,7.563,0,0,0,1.252-.858c.024-.022.044-.047.077-.084-.367-.1-.706-.221-.848-.645-.087.088-.153.153-.218.221a2.45,2.45,0,0,1-.171.181c-.741.627-1.485,1.251-2.225,1.879a.5.5,0,0,0-.085.147C708.047,116.265,708.118,116.314,708.173,116.3Z" transform="translate(-704.265 -97.863)" fill="#fff"/>
            <path id="Path_403" d="M706.546,114.149a.89.89,0,0,0,.506.039c.208-.017.384-.144.61-.123a1.7,1.7,0,0,0,.9-.253.141.141,0,0,0,.071-.108,3.067,3.067,0,0,0-.06-.353c0-.008-.041-.006-.062-.011-.2-.042-.4-.073-.593-.129a.431.431,0,0,1-.3-.5c-.031-.064-.045-.164-.094-.185a.214.214,0,0,0-.3.074c-.107.16-.248.3-.37.447-.175.215-.346.433-.517.651a.221.221,0,0,0,.023.321A.738.738,0,0,0,706.546,114.149Z" transform="translate(-699.676 -97.863)" fill="#fff"/>
            <path id="Path_404" d="M694.013,118.381c-.217.057-.243.043-.216.187.037.2.068.4.114.6a.493.493,0,0,1-.183.518c-.07.06-.152.106-.224.164a1.8,1.8,0,0,0-.149.151,1.391,1.391,0,0,0,.159.047c.13.019.261.04.393.049a.459.459,0,0,0,.226-.025,1.494,1.494,0,0,1,1.106-.124,5.235,5.235,0,0,0,1.259.13,2.46,2.46,0,0,1,.563.052.625.625,0,0,0,.52-.113.75.75,0,0,0-.7-.437c-.458.016-.917.03-1.374.059a1.245,1.245,0,0,1-.917-.271,1.111,1.111,0,0,1-.474-.861C694.116,118.446,694.121,118.353,694.013,118.381Z" transform="translate(-675.688 -97.863)" fill="#fff"/>
            <path id="Path_405" d="M692.421,100.7c-.1-.232-.09-.268.172-.413a.174.174,0,0,0-.243-.045.263.263,0,0,0-.1.313C692.284,100.664,692.332,100.7,692.421,100.7Z" transform="translate(-669.579 -97.863)" fill="#fff"/>
            <path id="Path_406" d="M690.2,102.189l.028-.05a.971.971,0,0,0-.086-.114c-.315-.307-.629-.616-.951-.916a.2.2,0,0,0-.179-.021c-.194.084-.381.185-.61.3C689.045,101.6,689.574,102,690.2,102.189Z" transform="translate(-663.374 -97.863)" fill="#fff"/>
            <path id="Path_407" d="M706.491,118.368c.1.051.2.087.29.126a4.685,4.685,0,0,0,1.021-.293c.336-.156.679-.3,1.022-.438.6-.248,1.217-.474,1.812-.741a7.814,7.814,0,0,1,1.31-.5,3.165,3.165,0,0,0,.544-.205c.365-.167.723-.349,1.087-.517.236-.109.236-.1.222-.355,0-.082-.038-.106-.113-.108a3.276,3.276,0,0,1-.409-.019.7.7,0,0,0-.467.108c-.834.479-1.68.939-2.518,1.41a8.31,8.31,0,0,1-2.73.971.689.689,0,0,1-.551-.126.133.133,0,0,0-.122-.011,1.346,1.346,0,0,0-.446.5A.131.131,0,0,0,706.491,118.368Z" transform="translate(-704.974 -97.863)" fill="#fff"/>
            <path id="Path_408" d="M697.939,119.862a.848.848,0,0,1-.281-.548c-.042-.269-.1-.536-.155-.8a.324.324,0,0,0-.235-.231,1.539,1.539,0,0,0-.287-.052.621.621,0,0,0,.012.075c.139.375.274.752.422,1.123.089.224.1.288-.145.5a2.1,2.1,0,0,1-.812.371,1.191,1.191,0,0,0-.661.479.886.886,0,0,0-.083.245.937.937,0,0,0,.242-.065,2.509,2.509,0,0,1,1.645-.373l.76.1c.14.019.28.039.42.051.325.028.651.049.976.075.2.016.4.042.593.049.056,0,.114-.05.17-.077-.027-.052-.041-.128-.084-.153a1.447,1.447,0,0,0-.425-.2c-.375-.075-.756-.129-1.137-.175A1.717,1.717,0,0,1,697.939,119.862Z" transform="translate(-680.986 -97.863)" fill="#fff"/>
            <path id="Path_409" d="M707.619,117.551a2.164,2.164,0,0,0,.7,0,4.54,4.54,0,0,0,.784-.315c.594-.259,1.2-.5,1.776-.79.555-.278,1.084-.607,1.624-.916.174-.1.347-.2.513-.3l-.478-.408c-.36.2-.764.4-1.146.63a12.1,12.1,0,0,1-2,.954.792.792,0,0,1-.632.038.162.162,0,0,0-.132.028c-.135.1-.267.2-.4.31-.208.177-.414.358-.618.539C707.5,117.421,707.5,117.538,707.619,117.551Z" transform="translate(-705.296 -97.863)" fill="#fff"/>
            <path id="Path_410" d="M706.214,115.736a1.054,1.054,0,0,1-.519-.667c0-.019-.061-.042-.091-.039a.671.671,0,0,0-.136.048,1.05,1.05,0,0,1-1.181-.133c-.256.117-.5.234-.752.339-.125.052-.264.073-.391.122-.043.017-.1.085-.1.115.032.128.031.28.169.358a.972.972,0,0,0,.214.1,3.1,3.1,0,0,0,1.077.068,8.543,8.543,0,0,0,.93-.109C705.687,115.895,705.931,115.812,706.214,115.736Z" transform="translate(-694.01 -97.863)" fill="#fff"/>
            <path id="Path_411" d="M704.772,113.33a1.8,1.8,0,0,1-.171.12,2.57,2.57,0,0,1-.293.145.993.993,0,0,1-.612-.013.223.223,0,0,0-.165.026c-.166.13-.329.266-.482.412a2.785,2.785,0,0,0-.371.4.39.39,0,0,0,.28.586,1.285,1.285,0,0,0,.549-.01,2.584,2.584,0,0,0,1.36-.867.154.154,0,0,0,.031-.128A1.186,1.186,0,0,1,704.772,113.33Z" transform="translate(-692.269 -97.863)" fill="#fff"/>
            <path id="Path_412" d="M705.081,114.6a.438.438,0,0,0,.251.391,1.65,1.65,0,0,0,.787.2c.053,0,.106,0,.159.006a3.3,3.3,0,0,0,1.3-.336c.237-.1.232-.1.222-.357,0-.1-.046-.127-.133-.1a.788.788,0,0,1-.908-.318.147.147,0,0,0-.131-.034,5.721,5.721,0,0,1-1.413.383C705.113,114.447,705.077,114.508,705.081,114.6Z" transform="translate(-697.632 -97.863)" fill="#fff"/>
            <path id="Path_413" d="M714.277,116.092a.55.55,0,0,0-.283.03c-.357.127-.708.267-1.062.4-.634.242-1.27.479-1.9.727-.336.132-.663.289-1,.422s-.66.249-.993.366c-.44.154-.881.308-1.326.45a1.854,1.854,0,0,0-.785.466c-.3.3-.626.569-.931.863-.235.225-.456.466-.679.7-.03.032-.065.106-.051.121a.206.206,0,0,0,.134.063.662.662,0,0,0,.248-.023c.336-.12.669-.249,1-.378.1-.037.183-.088.278-.124.416-.157.836-.3,1.249-.47.307-.123.6-.276.906-.4.451-.19.911-.358,1.358-.557.338-.15.66-.335.991-.5.516-.259,1.047-.493,1.548-.779a14.949,14.949,0,0,1,1.787-.857c.166-.067.321-.159.481-.239l-.012-.037C714.917,116.253,714.6,116.163,714.277,116.092Z" transform="translate(-705.263 -97.863)" fill="#fff"/>
            <path id="Path_414" d="M705.967,112.573a.118.118,0,0,0-.085-.076c-.21-.015-.421-.011-.63-.032a.291.291,0,0,0-.239.075c-.173.15-.346.3-.531.435a.7.7,0,0,0-.142,1.076.513.513,0,0,0,.364.24,1.142,1.142,0,0,0,.712-.147,2.037,2.037,0,0,0,.687-.648.127.127,0,0,0,.009-.114.72.72,0,0,1-.139-.585A1.392,1.392,0,0,0,705.967,112.573Z" transform="translate(-695.025 -97.863)" fill="#fff"/>
            <path id="Path_415" d="M706.837,111.437a1.853,1.853,0,0,0-.387-.12c-.009,0-.027.018-.039.031-.184.189-.369.378-.552.568a1.6,1.6,0,0,0-.474.64.3.3,0,0,0,0,.2.7.7,0,0,0,1.024.3,3.236,3.236,0,0,0,.334-.236c.126-.1.244-.216.363-.327.074-.069.079-.132-.009-.206a.7.7,0,0,1-.229-.617s0-.009,0-.013C706.862,111.58,706.876,111.458,706.837,111.437Z" transform="translate(-697.285 -97.863)" fill="#fff"/>
            <path id="Path_416" d="M700.538,115.112a.868.868,0,0,0,.388.417,1.748,1.748,0,0,0,1.484.026,9.393,9.393,0,0,0,.892-.366.549.549,0,0,0,.067-.046,1.177,1.177,0,0,1-.392-1.023c-.168.078-.3.144-.44.2a1.045,1.045,0,0,1-1.036-.067c-.1-.069-.147-.036-.22.029-.213.189-.432.374-.652.555A.216.216,0,0,0,700.538,115.112Z" transform="translate(-688.639 -97.863)" fill="#fff"/>
        </g>
        <g id="Group_11792" transform="translate(498.851 36.803)">
            <path id="Path_417" d="M587.687,47.409c-.223.355-.512.669-.769,1a15.455,15.455,0,0,1-1.889,2.392c-.044.039-.027.147-.038.223.062-.01.145,0,.184-.034.288-.266.585-.526.845-.818.387-.435.761-.884,1.113-1.348a18.038,18.038,0,0,0,1.124-1.6,1.9,1.9,0,0,1,.614-.694c.26-.164.42-.1.481.2a2.764,2.764,0,0,1-.079,1.355c-.149.5-.326.987-.49,1.481a10.924,10.924,0,0,1-2.034,3.756c-.651.756-1.324,1.493-1.987,2.239-.051.057-.093.123-.14.184l.046.051a.933.933,0,0,0,.165-.115c.255-.272.5-.55.758-.822.437-.467.9-.915,1.311-1.4a12.142,12.142,0,0,0,1.687-2.738.934.934,0,0,1,.433-.531c.1-.048.162-.051.234.025a.9.9,0,0,1,.227.72A6.342,6.342,0,0,1,588.5,53.8a12.729,12.729,0,0,1-1.974,2.565,9.426,9.426,0,0,1-2.208,1.711.706.706,0,0,0-.108.091l.05.064a7.974,7.974,0,0,0,2.531-1.849,15.657,15.657,0,0,0,1.974-2.537,2.3,2.3,0,0,1-.041,1.266,6.512,6.512,0,0,1-2.183,3.039c-.56.478-1.175.891-1.753,1.349a6.793,6.793,0,0,1-1.416.907.882.882,0,0,0-.166.123l.034.08a1.547,1.547,0,0,0,.3-.08c.29-.141.576-.292.862-.444.487-.259.991-.492,1.454-.791a11.017,11.017,0,0,0,2.136-1.922c.059-.064.112-.133.168-.2l.056.017a1.011,1.011,0,0,1-.007.276,5.152,5.152,0,0,1-.3.848,10.227,10.227,0,0,1-2.919,3.364,3.947,3.947,0,0,1-.668.348c-.294.145-.591.283-.887.426-.006,0,0,.025-.006.07a.613.613,0,0,0,.19.007,5.731,5.731,0,0,0,.863-.271,6.31,6.31,0,0,0,1.928-1.447c.114-.123.241-.234.4-.388a1.063,1.063,0,0,1,0,.25,2.922,2.922,0,0,1-.586,1.131,14.558,14.558,0,0,1-2.579,2.257,2.319,2.319,0,0,1-1.77.481.688.688,0,0,0-.2.021l0,.056a.936.936,0,0,0,.181.086,1.886,1.886,0,0,0,1.241-.043,5.572,5.572,0,0,0,1.719-1.086c.117-.118.193-.079.259.048a.621.621,0,0,1-.053.641,2.263,2.263,0,0,1-1.031.873,14.077,14.077,0,0,1-1.544.618,5.242,5.242,0,0,1-1.032.187c-.76.089-1.522.158-2.284.238a1.2,1.2,0,0,0-.183.046.142.142,0,0,0,.125.061c.294-.023.588-.066.882-.069s.572.062.856.052a7.506,7.506,0,0,0,2.617-.6.779.779,0,0,1,.2-.028.8.8,0,0,1,.007.218.967.967,0,0,1-.506.617c-.1.054-.192.118-.293.166a3.671,3.671,0,0,1-.8.361,13.322,13.322,0,0,1-1.666.217,6.334,6.334,0,0,1-1.722-.045,9.944,9.944,0,0,0-1.174-.11.862.862,0,0,0-.175.026.7.7,0,0,0,.61.322,10.458,10.458,0,0,0,3.359-.041c.247-.045.488-.107.589.221,0,0,.012.006.022.011l.188-.1a.765.765,0,0,1-.06.22,2.232,2.232,0,0,1-.5.585,3.251,3.251,0,0,1-1.6.532c-.526.012-1.055.005-1.579-.034a8.343,8.343,0,0,1-2.606-.654,1.025,1.025,0,0,0-.2-.042.177.177,0,0,0,.1.125c.385.173.769.347,1.157.513a2.786,2.786,0,0,0,.8.309c.571.048,1.15.008,1.725.017.4.006.8.016,1.2.057.243.025.294.2.17.418a.884.884,0,0,1-.678.376,5.112,5.112,0,0,1-3.709-.532,1.158,1.158,0,0,0-.163-.066l-.035.063c.059.044.116.091.177.133a4.4,4.4,0,0,0,2.584.768c.409,0,.639.279.885.535a.288.288,0,0,1,.041.16.591.591,0,0,1-.515.606c-.527.112-1.064.172-1.6.24a.329.329,0,0,1-.216-.1c-.2-.189-.375-.4-.577-.582-.909-.828-1.8-1.677-2.746-2.463a11.026,11.026,0,0,0-1.909-1.3A11.716,11.716,0,0,0,568.35,66.2c-.257-.036-.517-.05-.777-.061-.18-.007-.194.157-.227.278a.4.4,0,0,0,.206.1c.357.019.714.025,1.072.033a7.168,7.168,0,0,1,1.791.368,8.1,8.1,0,0,1,2.207.975,14.085,14.085,0,0,1,3.024,2.641c.574.664,1.171,1.311,1.716,2a31.453,31.453,0,0,0,3.2,2.844,6.6,6.6,0,0,0,2.078.72,12.312,12.312,0,0,1,2.765.836,22.334,22.334,0,0,0,2.388.948,13.551,13.551,0,0,1,3.472,1.833.405.405,0,0,1,.149.144.652.652,0,0,1,.008.23c-.067,0-.152.024-.2-.007a13.586,13.586,0,0,0-2.813-1.284,13.159,13.159,0,0,1-3.495-1.749,1.446,1.446,0,0,0-.246-.122l-.056.068a1.539,1.539,0,0,0,.215.239,12.974,12.974,0,0,0,2.822,1.543A19.79,19.79,0,0,1,591.1,80.38a2.356,2.356,0,0,1,.939,1.015,2.188,2.188,0,0,1,.275,1.091c-.02.227-.1.261-.279.123-.279-.213-.531-.466-.823-.658-.88-.579-1.753-1.174-2.668-1.693a23.293,23.293,0,0,1-2.784-1.806,7.847,7.847,0,0,0-1.036-.722,10.259,10.259,0,0,0-2.854-.936.713.713,0,0,0-.166.005l-.01.061c.061.023.12.048.182.068.549.174,1.1.343,1.648.522a6.018,6.018,0,0,1,2.323,1.371,4.956,4.956,0,0,0,.679.567c.475.314.971.594,1.453.895.882.552,1.755,1.117,2.643,1.658a5.183,5.183,0,0,1,1.146.814,1.244,1.244,0,0,1,.439.879,4.878,4.878,0,0,1-.019.568.77.77,0,0,1-.538.646c-.256.1-.334-.152-.469-.273a17.7,17.7,0,0,0-1.505-1.349c-.882-.624-1.834-1.149-2.736-1.746-.807-.535-1.618-1.073-2.368-1.681a8.341,8.341,0,0,0-2.646-1.586c-.8-.255-1.628-.433-2.445-.642-.03-.008-.069.016-.1.025a.59.59,0,0,0,.267.164c.619.183,1.247.343,1.859.549a5.419,5.419,0,0,1,1.273.545c.859.571,1.663,1.226,2.513,1.812,1.082.745,2.175,1.475,3.286,2.176a11.886,11.886,0,0,1,2.519,2,1.46,1.46,0,0,1,.46,1.528,7.237,7.237,0,0,1-.274.812c-.148.314-.3.336-.583.14a1.955,1.955,0,0,1-.279-.224c-.288-.289-.568-.584-.853-.876a14.69,14.69,0,0,0-2.322-2.013,18.093,18.093,0,0,1-2.986-2.624,8.832,8.832,0,0,0-2.783-1.911,1.948,1.948,0,0,0-.256-.079l-.026.06c.058.043.114.09.176.127.432.26.885.492,1.294.786A13.677,13.677,0,0,1,584,81.656c.525.487.988,1.042,1.526,1.513.946.829,1.934,1.609,2.892,2.423a13.041,13.041,0,0,1,1.871,1.754.79.79,0,0,1,.207.884.71.71,0,0,1-.443.467c-.14.045-.283.082-.424.125a.509.509,0,0,1-.5-.082,5.231,5.231,0,0,1-.747-.7c-.736-.948-1.432-1.928-2.169-2.876a17.515,17.515,0,0,0-1.545-1.891,28.677,28.677,0,0,0-2.711-2.071c-.356-.271-.753-.488-1.118-.748-.423-.3-.819-.643-1.25-.931a4.914,4.914,0,0,0-.817-.382c-.046-.019-.114.013-.172.022a.627.627,0,0,0,.1.163c.066.062.155.1.224.157a9.964,9.964,0,0,0,1.872,1.286,19.118,19.118,0,0,1,3.675,2.809,19.57,19.57,0,0,1,2.729,3.368c.417.581.766,1.21,1.152,1.813a.452.452,0,0,1-.033.612.39.39,0,0,1-.514-.088,11.569,11.569,0,0,1-.763-.891c-.15-.193-.246-.427-.389-.626-.325-.45-.656-.9-1-1.333-.6-.775-1.2-1.564-1.84-2.3a14.914,14.914,0,0,0-2.589-2.218,8.642,8.642,0,0,0-1.776-1.174c-.441-.177-.845-.446-1.279-.642-.913-.413-1.835-.806-2.756-1.2-.057-.025-.138.006-.207.011.042.061.07.149.129.178.54.27,1.086.529,1.63.792l.911.446a7.768,7.768,0,0,0-1.949-.112c-.662.072-1.331.09-2,.114-.751.028-1.5.037-2.253.048a.338.338,0,0,1-.231-.068c-.145-.162-.261-.106-.4.007a1.444,1.444,0,0,1-.769.364.613.613,0,0,1-.169-.032c.041-.048.08-.1.122-.144.008-.009.031-.006.038-.015.042-.061.081-.124.122-.186-.07-.03-.139-.086-.208-.085a2.446,2.446,0,0,0-.308.064c-.2.028-.4.047-.6.07l-.012-.067a.382.382,0,0,0,.067-.073c.035-.066.062-.135.093-.2-.1-.008-.216-.053-.29-.014-.2.1-.366.252-.559.361-.173.1-.265.181-.119.382a.386.386,0,0,1,.024.3c-.01.034-.16.033-.247.038-.244.013-.489.012-.732.035-.19.019-.249.156-.244.333a.9.9,0,0,0,.58.82.7.7,0,0,1,.444.489,6.737,6.737,0,0,1-.9.012,1.033,1.033,0,0,1-.57-.222,5.79,5.79,0,0,1-.629-.784.6.6,0,0,1,.376-1.024c.37-.066.752-.057,1.127-.1a1.44,1.44,0,0,0,.466-.112.361.361,0,0,0,.2-.544.462.462,0,0,0-.092-.1c-.034.037-.088.071-.1.114a.243.243,0,0,1-.253.206,3.623,3.623,0,0,1-2.152-.459c-.287-.16-.568-.332-.855-.493-.521-.291-1.053-.563-1.565-.869s-1.033-.631-1.522-.984a11.063,11.063,0,0,1-1.439-1.16,17.048,17.048,0,0,1-1.8-2.114,14.9,14.9,0,0,1-2.117-4.1c-.208-.656-.469-1.3-.731-1.933-.216-.524-.465-1.035-.706-1.549-.283-.6-.534-1.226-.867-1.8a8.156,8.156,0,0,0-2.505-2.722,4.145,4.145,0,0,0-3.306-.591c-.842.178-1.663.46-2.494.695-.067.019-.138.027-.261.051a4.389,4.389,0,0,1,1.053-1.19,14.413,14.413,0,0,1,1.294-.78l.006-.039-.562.005-.028-.056a1.617,1.617,0,0,0,.585-.929,3.427,3.427,0,0,1,2.788-2.195,6.675,6.675,0,0,1,3.6.427,14.937,14.937,0,0,1,3.262,1.835c.318.23.634.466.931.723.424.366.824.762,1.247,1.132a8.763,8.763,0,0,0,2.02,1.362c.693.326,1.386.653,2.088.958.34.147.7.247,1.055.361.1.031.209.035.221-.111a.189.189,0,0,0-.182-.234,1.013,1.013,0,0,1-.228-.035c-.492-.163-.995-.3-1.469-.507a8.736,8.736,0,0,1-1.354-.721,9.49,9.49,0,0,1-1.715-1.321.407.407,0,0,1-.121-.311A19.592,19.592,0,0,0,560,58.158a53.563,53.563,0,0,0-1.591-6.856c-.505-1.815-1.039-3.622-1.511-5.446-.306-1.183-.519-2.39-.783-3.585-.333-1.5-.682-3-1.009-4.507a3.709,3.709,0,0,1-.055-1.488c.029-.15.1-.28.264-.283a1.19,1.19,0,0,1,1.054.416c.212.271.429.541.665.79a6.609,6.609,0,0,1,1.387,2.413,23.441,23.441,0,0,1,.817,3.008,25.649,25.649,0,0,1,.36,2.713,14.973,14.973,0,0,1,.053,3.973c-.011.066.046.144.071.216a.711.711,0,0,0,.118-.19,13.266,13.266,0,0,0,.143-3.508,27.2,27.2,0,0,0-.365-3.137,13.792,13.792,0,0,0-1.007-3.519,2.129,2.129,0,0,1-.316-.86c-.012-.745-.062-1.489-.088-2.233a7.076,7.076,0,0,1,.013-.862.327.327,0,0,1,.39-.293,1.124,1.124,0,0,1,.5.237,4.51,4.51,0,0,1,.618.745,13.7,13.7,0,0,1,1.855,4.59,24.679,24.679,0,0,1,.378,2.668,13.992,13.992,0,0,1-.065,3.175,18.97,18.97,0,0,1-1.042,4.077c-.1.279-.228.545-.332.821-.02.052.009.123.016.186.053-.023.121-.032.157-.071a.964.964,0,0,0,.22-.3c.27-.775.567-1.544.779-2.336a16.4,16.4,0,0,0,.453-3.4,15.381,15.381,0,0,0-.072-2.988c-.1-.722-.222-1.443-.28-2.169a12.549,12.549,0,0,1,.2-2.748c.053-.374.367-.472.622-.192a2.748,2.748,0,0,1,.495.749,13.71,13.71,0,0,1,1.049,4.688,15.648,15.648,0,0,1-.3,3.733c-.155.821-.348,1.636-.552,2.446-.16.633-.339,1.262-.554,1.877-.159.452-.391.877-.588,1.316-.005.012.013.035.034.088a.882.882,0,0,0,.167-.158,3.156,3.156,0,0,0,.269-.476,20.754,20.754,0,0,0,1.344-4.428,20.11,20.11,0,0,0,.257-5.562,2.258,2.258,0,0,1,.008-.933,5.483,5.483,0,0,1,.536-1.455c.237-.367.431-.357.681,0a6.6,6.6,0,0,1,.676,1.6,7.019,7.019,0,0,1,.335,3.225,19.367,19.367,0,0,1-.978,4.629,16.288,16.288,0,0,1-1.283,2.793c-.051.085-.093.177-.139.265.06.014.089.007.1-.012.347-.561.737-1.1,1.026-1.691a13.945,13.945,0,0,0,1.026-3.2,20.384,20.384,0,0,0,.438-3.065c.031-.473.037-.948.081-1.42a2.107,2.107,0,0,1,.167-.586c.091-.223.221-.228.366-.04a2.824,2.824,0,0,1,.488,1.134,8.743,8.743,0,0,1,.109,2.681,13.483,13.483,0,0,1-.557,3.084,13.092,13.092,0,0,1-1.927,3.822.45.45,0,0,0-.039.086l.046.043a4.451,4.451,0,0,0,.562-.525,9.357,9.357,0,0,0,1.083-2,14.617,14.617,0,0,0,.98-4.13c.03-.243.043-.49.1-.728a4.17,4.17,0,0,1,.2-.511c.063-.171.1-.35.175-.518.114-.272.313-.31.55-.127a1.158,1.158,0,0,1,.405.674,6.437,6.437,0,0,1,.11,2.117,18.672,18.672,0,0,1-.784,4.049,12.936,12.936,0,0,1-1.27,2.911c-.308.49-.676.942-1.021,1.417.123.208.184.212.328.009.032-.046.065-.091.1-.136a12.585,12.585,0,0,0,1.466-2.552c.187-.416.314-.858.494-1.278a16.923,16.923,0,0,0,1-3.412.527.527,0,0,1,.07-.193c.109-.155.227-.3.345-.452a1.616,1.616,0,0,1,.691-.567.267.267,0,0,1,.36.114.924.924,0,0,1,.1.695A14.921,14.921,0,0,1,570.3,51.25a13.013,13.013,0,0,1-1.515,2.543c-.365.471-.714.955-1.073,1.431-.068.089-.155.164-.22.254-.021.029-.008.088,0,.13a.12.12,0,0,0,.093,0,2.519,2.519,0,0,0,.571-.4,12.936,12.936,0,0,0,1-1.329c.288-.447.513-.935.768-1.4a14.938,14.938,0,0,0,.932-2.117,5.487,5.487,0,0,1,.777-1.738c.175-.213.316-.277.553-.136a.47.47,0,0,1,.083.064,1.707,1.707,0,0,1,.361,1.583,11.436,11.436,0,0,1-.577,1.189c-.62,1.079-1.26,2.145-1.889,3.218-.125.212-.24.431-.36.647l.058.042a1.815,1.815,0,0,0,.147-.183q1.368-2.175,2.733-4.354c.1-.161.21-.182.324-.023a1.626,1.626,0,0,1,.2.413,3.42,3.42,0,0,1,.05,1.606,4.351,4.351,0,0,1-1.416,2.726,8.669,8.669,0,0,0-1.5,1.505c-.073.111-.139.226-.209.34.066.018.094.01.107-.009a7.017,7.017,0,0,1,1.382-1.409,4.461,4.461,0,0,0,1.005-.881,5.809,5.809,0,0,1,.513-.639c.325-.355.607-.319.829.013a2.6,2.6,0,0,1,.525,1.841,2.839,2.839,0,0,1-.725,1.552c-.271.292-.6.525-.891.8a20.538,20.538,0,0,1-2.92,2.245c-.834.56-1.69,1.086-2.532,1.634-.6.39-1.19.8-1.793,1.184a5.712,5.712,0,0,1-.55.252c-.413.207-.82.428-1.236.629-.395.192-.8.365-1.2.546l.012.059a1.876,1.876,0,0,0,.428.017,4.323,4.323,0,0,0,1.5-.542q.771-.477,1.545-.947c.769-.466,1.557-.9,2.3-1.4.912-.607,1.782-1.278,2.689-1.893a22.594,22.594,0,0,0,3.553-3c.587-.6,1.164-1.22,1.741-1.835a14.218,14.218,0,0,0,1.692-2.307c.382-.622.711-1.277,1.084-1.9.3-.506.652-.982.948-1.49a15.478,15.478,0,0,0,1.414-2.939c.432-1.314.924-2.609,1.374-3.918.339-.991.646-1.993.981-2.984a1.978,1.978,0,0,1,.621-.962c.232-.182.387-.15.513.117a.815.815,0,0,1,.073.282c.029.364.057.729.07,1.094a9.056,9.056,0,0,1-.245,2.719,20.52,20.52,0,0,1-.721,1.978A12.331,12.331,0,0,1,583.08,47.5c-.616.931-1.218,1.871-1.823,2.808a.555.555,0,0,0-.043.15l.052.024c.061-.074.123-.147.182-.222.491-.631,1.034-1.229,1.46-1.9a21.245,21.245,0,0,0,2.027-4.141,22.769,22.769,0,0,1,1.729-4.128c.042-.069.124-.17.177-.164s.144.1.182.171a3.669,3.669,0,0,1,.349,1.614,12.954,12.954,0,0,1-.98,4.762,9.007,9.007,0,0,1-1.1,2.146c-.555.794-1.085,1.607-1.657,2.389-.363.5-.783.955-1.175,1.432a.352.352,0,0,0-.043.119.333.333,0,0,0,.205-.107c.179-.189.358-.377.529-.573A23.046,23.046,0,0,0,584.769,50a17.7,17.7,0,0,0,2.012-4,6.7,6.7,0,0,1,.625-1.53c.289-.422.52-.883.788-1.32a2.028,2.028,0,0,1,.312-.369c.123-.123.252-.1.318.056a1.883,1.883,0,0,1,.115.425,5.137,5.137,0,0,1-.337,2.5A8.59,8.59,0,0,1,587.687,47.409ZM550.466,58.472a.8.8,0,0,0-.493.793.922.922,0,0,0,.965.515.6.6,0,0,0,.5-.755A.878.878,0,0,0,550.466,58.472Z" transform="translate(-545.587 -34.912)" fill="#fff"/>
            <path id="Path_418" d="M565.741,82.27a1.9,1.9,0,0,0-.14-.481.42.42,0,0,1,.249-.58,1.309,1.309,0,0,1,.244-.064c.416-.067.832-.133,1.249-.191a2.374,2.374,0,0,0,.995-.375.714.714,0,0,1,.716.072,1.3,1.3,0,0,1-.147.077c-.487.194-.976.382-1.461.583a.191.191,0,0,0-.067.174c.014.057.087.1.141.144a1.784,1.784,0,0,0,.886.215,1.19,1.19,0,0,1,.938.625,2.058,2.058,0,0,1-.448-.05,9.251,9.251,0,0,1-1.1-.463c-.54-.29-.927.015-1.232.356a.442.442,0,0,0-.029.386.953.953,0,0,0,.751.625,1.533,1.533,0,0,1,.857.544.418.418,0,0,1,.052.144c-.058.01-.122.042-.172.026-.106-.033-.2-.1-.307-.135-.291-.093-.585-.178-.879-.263-.329-.094-.665-.168-.987-.283a.467.467,0,0,1-.189-.694A.6.6,0,0,0,565.741,82.27Z" transform="translate(-542.587 -34.912)" fill="#fff"/>
            <path id="Path_419" d="M568.018,83.243c-.306-.17-.606-.35-.906-.53a.63.63,0,0,1-.1-.115c.04-.045.071-.105.119-.127s.155-.056.2-.028c.249.156.494.323.727.5a.426.426,0,0,1,.1.231C568.153,83.189,568.044,83.258,568.018,83.243Z" transform="translate(-542.838 -34.912)" fill="#fff"/>
            <path id="Path_420" d="M586.813,58.824c.213-.165.369-.177.514-.058s.154.33.017.59A.628.628,0,0,0,586.813,58.824Z" transform="translate(-581.93 -34.912)" fill="#fff"/>
        </g>
        <g id="Group_11793" transform="translate(628.645 120.878)">
            <path id="Path_421" d="M439.442,133.925c-.168.026-.262-.079-.376-.164a5.427,5.427,0,0,1-1.022-.928.231.231,0,0,1-.037-.3,1.2,1.2,0,0,0,.205-.753.394.394,0,0,1,.025-.11.811.811,0,0,1,.1.054,4.179,4.179,0,0,1,1.08,1.176,5.008,5.008,0,0,1,.311.553A.326.326,0,0,1,439.442,133.925Z" transform="translate(-415.206 -118.987)" fill="#fff"/>
            <path id="Path_422" d="M461.669,132.313a.682.682,0,0,1-.877.469c-.348-.158-.7-.311-1.034-.495a2.756,2.756,0,0,1-1.006-.859,4.547,4.547,0,0,0-.442-.521c-.03-.033-.1-.031-.146-.045-.01.058-.043.126-.023.171a1.06,1.06,0,0,0,.188.312c.266.28.533.56.821.817a3.351,3.351,0,0,0,.59.4,4.04,4.04,0,0,1,.936.6.618.618,0,0,1-.183,1.01,1.277,1.277,0,0,1-1.214-.079,6.245,6.245,0,0,1-2.407-2.03c-.035-.057-.13-.076-.232-.131a1.007,1.007,0,0,0,.046.251,3.748,3.748,0,0,0,1.464,1.467,5.349,5.349,0,0,1,1.153.81.77.77,0,0,1,.164.922.555.555,0,0,1-.566.389,2.059,2.059,0,0,1-1.089-.309c-.4-.265-.793-.529-1.178-.811a3.722,3.722,0,0,1-1.181-1.142c-.022-.04-.1-.051-.149-.076-.006.058-.037.132-.012.171a1.935,1.935,0,0,0,.344.473c.531.446,1.078.875,1.628,1.3a1.82,1.82,0,0,1,.454.48.606.606,0,0,1-.306.916,1.749,1.749,0,0,1-1.319.07,3.38,3.38,0,0,1-1.28-.841c-.463-.46-.9-.941-1.356-1.41a1.076,1.076,0,0,0-.164-.116c-.025.056-.028.086-.015.1a3.876,3.876,0,0,0,.409.559c.571.561,1.16,1.1,1.741,1.656a.416.416,0,0,1,.13.157,1.652,1.652,0,0,1,.042.986.314.314,0,0,1-.473.213,6.444,6.444,0,0,1-1-.551c-.513-.383-1-.808-1.479-1.231a6.408,6.408,0,0,1-1.709-2.4c-.333-.8-.646-1.616-.988-2.416a4.426,4.426,0,0,0-.415-.672c-.022-.032-.088-.035-.134-.051a1,1,0,0,0-.013.133.24.24,0,0,0,.03.073q.339.8.676,1.6c.239.567.46,1.141.716,1.7a7.717,7.717,0,0,0,2.312,2.853c.3.24.613.475.933.692a2.818,2.818,0,0,0,1.245.606.355.355,0,0,1,.075.027c.325.1.649.2.975.289a4.649,4.649,0,0,0,1.209.164c.631.007,1.262.015,1.892.043a1.717,1.717,0,0,1,.745.186c-.008.029-.007.049-.017.058-.312.294-.606.612-.944.872a10.821,10.821,0,0,1-1.047.657c-.077.046-.173.058-.248.106a3.172,3.172,0,0,1-1.484.477,1.186,1.186,0,0,0-.248.056c-.345.1-.688.214-1.033.317-.1.028-.671.113-.816.14-.2.038-.409.063-.607.119-.376.106-.743.247-1.122.344a1.954,1.954,0,0,1-1.007.045c-.389-.106-.785-.191-1.165-.323a10.858,10.858,0,0,1-1.344-.539,9.065,9.065,0,0,1-2.39-1.807c-.605-.617-1.164-1.28-1.723-1.939a5.526,5.526,0,0,1-.663-.953,10.639,10.639,0,0,1-.8-1.921,22.509,22.509,0,0,1-.908-3.144c-.107-.708-.278-1.407-.38-2.115-.127-.881-.214-1.769-.318-2.654-.017-.142-.034-.284-.057-.425-.079-.48-.128-.969-.254-1.437a7.307,7.307,0,0,0-.444-1.024.361.361,0,0,1,.363-.11.356.356,0,0,0,.425-.243c.066-.19.136-.378.2-.568a.379.379,0,0,0-.164-.457c-.007.008-.017.014-.021.023a.089.089,0,0,0-.007.045.668.668,0,0,1-.111.614.215.215,0,0,0-.044.117.356.356,0,0,1-.27.318c-.354.14-.706.285-1.063.417-.184.068-.376.112-.565.166a2.036,2.036,0,0,1,.38-.29c.427-.267.857-.53,1.281-.8.044-.029.058-.1.086-.159-.068.01-.137.016-.2.031-.023,0-.039.035-.061.049a.415.415,0,0,1-.451.056,1.441,1.441,0,0,0-.5-.213c-.018,0-.032-.024-.062-.048a1.536,1.536,0,0,0,.245-.329.242.242,0,0,1,.329-.158c.123.029.239.086.363.107.06.011.13-.032.2-.05-.038-.051-.065-.121-.116-.15a.773.773,0,0,0-.631-.078c-.163.056-.229.031-.337-.115a1.314,1.314,0,0,1-.2-1.131,2.555,2.555,0,0,1,.6-1.059,2.17,2.17,0,0,1,.536-.556,5.313,5.313,0,0,1,1.1-.459,2.312,2.312,0,0,1,1.49.13,8.554,8.554,0,0,1,2.081,1.117,4.8,4.8,0,0,1,1.546,1.906,13.624,13.624,0,0,0,1.283,2.067.243.243,0,0,0,.1.094,5.73,5.73,0,0,0,1.1.323,15.785,15.785,0,0,1,2.172.4,17.489,17.489,0,0,1,3.038,1.043,16.391,16.391,0,0,1,3.341,2.028c.478.379.956.761,1.4,1.182.487.464.935.97,1.391,1.466.126.137.307.258.308.468A5.575,5.575,0,0,1,461.669,132.313Zm-8.972,5.346c.013.007.063-.017.063-.027a.106.106,0,0,0-.029-.079c-.1-.056-.2-.106-.3-.158C452.417,137.42,452.591,137.6,452.7,137.659Zm-.068.777c-.067-.168-.21-.2-.368-.287A.374.374,0,0,0,452.629,138.436Zm-9.435-7.654a.145.145,0,0,0,.052.059c.01.008.028.006.069.014a1.507,1.507,0,0,0-.03-.168c-.087-.293-.175-.586-.268-.878-.014-.041-.057-.073-.087-.11-.015.039-.053.085-.043.117C442.984,130.14,443.089,130.461,443.194,130.782Zm-1.16-6.017.193.775.05-.01A.877.877,0,0,0,442.034,124.765Zm.461,2.139a1.061,1.061,0,0,0,.316.9Zm3.121,5.135a.727.727,0,0,0-.275-.641l-.049.028Zm-1.011.794-.343-.9A1.045,1.045,0,0,0,444.605,132.833Zm-1.978-7.02.247.956.079-.024a5.492,5.492,0,0,0-.243-.954Zm-.029-.771.351.906A1.094,1.094,0,0,0,442.6,125.042Zm1.58,5.894a1.423,1.423,0,0,0-.34-1.037Zm-.572-3.478a1.986,1.986,0,0,0,.668,1.114Zm.065-1.384a3.378,3.378,0,0,0,.436.9A1.676,1.676,0,0,0,443.671,126.074Zm-.183-4.537a.543.543,0,0,0-.392.638c.028.281.386.416.608.389a.557.557,0,0,0,.386-.506A.662.662,0,0,0,443.488,121.537Zm.649,3.478-.05.052a2.8,2.8,0,0,0,.76.71l.039-.039Zm2.535,13.24c-.034.187.367.676.564.689Zm-.233-10.2a.714.714,0,0,0,.472.637Zm2.234,12.038.5.448C449.16,140.35,448.85,140.058,448.673,140.089Zm1.2-5.816a1.149,1.149,0,0,0,.5.921Zm.849,1.806-.714-.726A1.107,1.107,0,0,0,450.724,136.079Zm-2.3-10.334-.669-.359C447.8,125.6,448.275,125.837,448.426,125.745Zm-.264,1.731-1.063-1C447.087,126.7,447.854,127.425,448.162,127.476Zm-1.236-3.261-.049.028a.462.462,0,0,0,.328.443Zm.511.089c.07.279.706.781.909.745Zm2,.917a1.206,1.206,0,0,1-.613-.374c-.028-.032-.087-.037-.132-.055,0,.038-.007.09.013.11a1.484,1.484,0,0,0,.783.423.091.091,0,0,0,.046,0c.009,0,.016-.012.045-.037A1.231,1.231,0,0,0,449.437,125.221Zm1.864,7.923-.039.025.588.9.047-.029A3.131,3.131,0,0,0,451.3,133.144Zm2.051-1.653.313.3.062-.064-.316-.3Zm-.161-2.75-.032.027a1.6,1.6,0,0,0,.463.571l.042-.035Zm.621,5.217a1.9,1.9,0,0,0,.954.8Zm1.832-1.22a1.1,1.1,0,0,0,.5.493A1.08,1.08,0,0,0,455.644,132.738Zm2.038-.7.439.337.049-.063A1.845,1.845,0,0,0,457.682,132.043Zm-.163-2.855a1.606,1.606,0,0,0,.338.3l.038-.059Z" transform="translate(-439.109 -118.987)" fill="#fff"/>
            <path id="Path_423" d="M437.049,137.99a3.365,3.365,0,0,1-.64-.122,17.265,17.265,0,0,1-1.917-.633,8.979,8.979,0,0,1-1.625-.829c-.032-.022-.06-.049-.106-.088.423-.181.809-.373.912-.9.117.092.207.16.294.23a2.965,2.965,0,0,0,.232.19c.981.633,1.964,1.262,2.944,1.9.054.034.083.107.124.162C437.194,137.929,437.117,138,437.049,137.99Z" transform="translate(-407.501 -118.987)" fill="#fff"/>
            <path id="Path_424" d="M439.143,135.884a1.069,1.069,0,0,1-.6.125c-.251.011-.48-.113-.746-.053a2.05,2.05,0,0,1-1.118-.162.173.173,0,0,1-.1-.117,3.44,3.44,0,0,1,.017-.43c0-.009.048-.014.073-.023.229-.08.464-.149.686-.245a.521.521,0,0,0,.279-.645c.026-.081.028-.2.083-.234a.257.257,0,0,1,.366.041c.153.174.342.316.511.477.242.229.48.462.717.7a.263.263,0,0,1,.022.385A.886.886,0,0,1,439.143,135.884Z" transform="translate(-413.46 -118.987)" fill="#fff"/>
            <path id="Path_425" d="M452.812,142.7c.267.034.3.013.286.189-.014.244-.019.488-.043.73a.592.592,0,0,0,.3.59c.093.06.2.1.293.161a2.52,2.52,0,0,1,.2.157,1.68,1.68,0,0,1-.183.08c-.152.043-.305.089-.46.119a.532.532,0,0,1-.274.006,1.8,1.8,0,0,0-1.338.023,6.265,6.265,0,0,1-1.48.35,2.908,2.908,0,0,0-.664.149.743.743,0,0,1-.637-.054.9.9,0,0,1,.767-.63c.549-.052,1.1-.105,1.648-.142a1.5,1.5,0,0,0,1.051-.465,1.334,1.334,0,0,0,.432-1.1C452.7,142.8,452.678,142.687,452.812,142.7Z" transform="translate(-440.131 -118.987)" fill="#fff"/>
            <path id="Path_426" d="M458.052,122.32c.088-.293.065-.334-.27-.466a.21.21,0,0,1,.284-.091.317.317,0,0,1,.168.358C458.209,122.257,458.159,122.312,458.052,122.32Z" transform="translate(-453.495 -118.987)" fill="#fff"/>
            <path id="Path_427" d="M460.507,124.713l-.042-.056a1.273,1.273,0,0,1,.086-.148c.328-.416.655-.833.992-1.241a.247.247,0,0,1,.209-.052c.245.071.484.161.775.262C461.788,123.832,461.218,124.389,460.507,124.713Z" transform="translate(-460.465 -118.987)" fill="#fff"/>
            <path id="Path_428" d="M438.9,140.085c-.106.076-.225.135-.326.195a5.653,5.653,0,0,1-1.263-.191c-.425-.134-.856-.249-1.286-.364-.758-.2-1.525-.377-2.276-.6a9.423,9.423,0,0,0-1.638-.388,3.729,3.729,0,0,1-.68-.159c-.461-.142-.916-.3-1.377-.449-.3-.093-.3-.086-.319-.389-.008-.1.029-.132.118-.145a4.334,4.334,0,0,0,.484-.086.836.836,0,0,1,.574.056c1.069.442,2.148.859,3.221,1.291a9.967,9.967,0,0,0,3.4.734.819.819,0,0,0,.637-.235.16.16,0,0,1,.144-.031,1.616,1.616,0,0,1,.61.524A.158.158,0,0,1,438.9,140.085Z" transform="translate(-406.183 -118.987)" fill="#fff"/>
            <path id="Path_429" d="M448.085,144.257a1.021,1.021,0,0,0,.25-.7c.008-.328.038-.655.061-.982a.387.387,0,0,1,.243-.312,1.968,1.968,0,0,1,.334-.105.444.444,0,0,1,0,.09c-.108.469-.21.939-.329,1.4-.071.281-.079.359.25.572a2.54,2.54,0,0,0,1.026.317,1.435,1.435,0,0,1,.863.469,1.08,1.08,0,0,1,.136.279,1.16,1.16,0,0,1-.3-.039,3.011,3.011,0,0,0-2.019-.191c-.3.08-.593.161-.89.24-.164.043-.328.09-.493.126-.383.083-.768.159-1.152.24-.233.05-.465.111-.7.15-.066.01-.143-.042-.215-.065.025-.067.029-.16.077-.2a1.79,1.79,0,0,1,.476-.3c.437-.147.882-.27,1.329-.384A2.067,2.067,0,0,0,448.085,144.257Z" transform="translate(-433.539 -118.987)" fill="#fff"/>
            <path id="Path_430" d="M437.594,139.236a2.609,2.609,0,0,1-.835.11,5.672,5.672,0,0,1-.984-.254c-.748-.217-1.5-.412-2.239-.668-.7-.245-1.387-.556-2.078-.84-.224-.092-.445-.189-.659-.28l.507-.56c.46.178.972.352,1.464.573a14.578,14.578,0,0,0,2.537.828.955.955,0,0,0,.759-.053.194.194,0,0,1,.162.013c.177.1.35.2.519.309q.414.269.821.547C437.718,139.062,437.734,139.2,437.594,139.236Z" transform="translate(-405.962 -118.987)" fill="#fff"/>
            <path id="Path_431" d="M439.213,138.6a1.269,1.269,0,0,0,.515-.876c0-.022.066-.06.1-.061a.811.811,0,0,1,.17.037,1.262,1.262,0,0,0,1.388-.341c.323.1.633.2.948.287.158.042.326.046.486.085.054.013.138.085.134.122-.018.158.006.338-.145.453a1.154,1.154,0,0,1-.241.153,3.723,3.723,0,0,1-1.272.249,10.6,10.6,0,0,1-1.127.014C439.865,138.71,439.561,138.648,439.213,138.6Z" transform="translate(-419.642 -118.987)" fill="#fff"/>
            <path id="Path_432" d="M440.959,135.779a2.226,2.226,0,0,0,.222.117,2.978,2.978,0,0,0,.373.127,1.19,1.19,0,0,0,.727-.109.259.259,0,0,1,.2.005c.218.129.433.266.639.416a3.5,3.5,0,0,1,.505.425.471.471,0,0,1-.243.743,1.555,1.555,0,0,1-.657.073,3.106,3.106,0,0,1-1.756-.823c-.035-.035-.071-.111-.056-.148A1.428,1.428,0,0,0,440.959,135.779Z" transform="translate(-422.119 -118.987)" fill="#fff"/>
            <path id="Path_433" d="M440.715,136.513a.528.528,0,0,1-.24.505,1.972,1.972,0,0,1-.907.362c-.063.01-.125.023-.188.031a3.974,3.974,0,0,1-1.6-.2c-.3-.081-.292-.086-.32-.391-.011-.12.035-.159.143-.141a.947.947,0,0,0,1.033-.52.177.177,0,0,1,.152-.061,6.884,6.884,0,0,0,1.743.238C440.652,136.333,440.7,136.4,440.715,136.513Z" transform="translate(-415.651 -118.987)" fill="#fff"/>
            <path id="Path_434" d="M428.763,138.533a.65.65,0,0,1,.342-.009c.445.1.886.209,1.328.315.794.19,1.589.374,2.381.572.421.105.835.242,1.256.349s.826.2,1.241.282c.549.116,1.1.232,1.65.332a2.23,2.23,0,0,1,1.009.433c.4.314.835.583,1.244.885.315.233.615.486.918.734.04.034.093.116.08.137a.248.248,0,0,1-.151.1.817.817,0,0,1-.3.011c-.419-.091-.836-.194-1.253-.3-.118-.028-.232-.076-.35-.1-.521-.124-1.045-.233-1.563-.367-.384-.1-.759-.236-1.142-.342-.567-.156-1.142-.286-1.706-.453-.426-.127-.839-.3-1.259-.444-.656-.229-1.325-.426-1.966-.689a17.953,17.953,0,0,0-2.264-.746c-.208-.054-.407-.139-.611-.21l.009-.047C428.025,138.823,428.39,138.667,428.763,138.533Z" transform="translate(-405.335 -118.987)" fill="#fff"/>
            <path id="Path_435" d="M439.676,134.635a.147.147,0,0,1,.09-.1c.248-.05.5-.079.746-.135a.347.347,0,0,1,.3.052c.23.152.46.306.7.437a.839.839,0,0,1,.336,1.261.62.62,0,0,1-.4.342,1.374,1.374,0,0,1-.872-.065,2.472,2.472,0,0,1-.92-.666.153.153,0,0,1-.028-.134.864.864,0,0,0,.076-.72A1.638,1.638,0,0,1,439.676,134.635Z" transform="translate(-419.092 -118.987)" fill="#fff"/>
            <path id="Path_436" d="M438.762,133.066a2.2,2.2,0,0,1,.442-.2c.011-.005.036.018.052.031q.374.3.746.592a1.928,1.928,0,0,1,.665.69.363.363,0,0,1,.027.236.837.837,0,0,1-1.174.518,3.826,3.826,0,0,1-.434-.23c-.167-.1-.325-.22-.484-.334-.1-.071-.114-.145-.022-.247a.836.836,0,0,0,.178-.771.123.123,0,0,1,0-.016C438.754,133.24,438.718,133.1,438.762,133.066Z" transform="translate(-416.696 -118.987)" fill="#fff"/>
            <path id="Path_437" d="M446.05,137.81a1.044,1.044,0,0,1-.4.558,2.1,2.1,0,0,1-1.766.261,11.333,11.333,0,0,1-1.119-.3.533.533,0,0,1-.088-.044,1.415,1.415,0,0,0,.309-1.28c.213.066.383.124.556.172a1.257,1.257,0,0,0,1.225-.241c.113-.1.17-.065.267,0,.284.193.572.379.863.561C446.02,137.574,446.091,137.66,446.05,137.81Z" transform="translate(-426.214 -118.987)" fill="#fff"/>
        </g>
        <g id="Group_11794" transform="translate(584.178 107.933)">
            <path id="Path_438" d="M484.195,121.689c-.169.021-.259-.087-.37-.176a5.506,5.506,0,0,1-.989-.964.231.231,0,0,1-.026-.3,1.213,1.213,0,0,0,.232-.746.369.369,0,0,1,.028-.108.82.82,0,0,1,.1.057,4.183,4.183,0,0,1,1.038,1.213,5.014,5.014,0,0,1,.291.564A.325.325,0,0,1,484.195,121.689Z" transform="translate(-460.301 -106.042)" fill="#fff"/>
            <path id="Path_439" d="M506.1,120.019a.684.684,0,0,1-.893.439c-.342-.171-.688-.336-1.016-.531a2.757,2.757,0,0,1-.975-.894,4.628,4.628,0,0,0-.424-.537c-.029-.033-.1-.034-.144-.05-.012.058-.047.125-.029.171a1.1,1.1,0,0,0,.177.318c.256.289.513.579.792.845a3.357,3.357,0,0,0,.575.421,4.013,4.013,0,0,1,.915.629.618.618,0,0,1-.219,1,1.274,1.274,0,0,1-1.21-.121,6.245,6.245,0,0,1-2.334-2.114c-.033-.058-.128-.081-.227-.14a1.013,1.013,0,0,0,.036.253,3.761,3.761,0,0,0,1.412,1.518,5.347,5.347,0,0,1,1.123.85.77.77,0,0,1,.132.927.555.555,0,0,1-.579.369,2.057,2.057,0,0,1-1.077-.347c-.387-.279-.775-.557-1.149-.852a3.733,3.733,0,0,1-1.14-1.183c-.021-.041-.1-.055-.147-.081-.007.057-.041.13-.018.17a1.939,1.939,0,0,0,.327.485c.516.465,1.047.913,1.581,1.356a1.8,1.8,0,0,1,.438.5.607.607,0,0,1-.338.9,1.747,1.747,0,0,1-1.321.023,3.371,3.371,0,0,1-1.25-.885c-.446-.476-.869-.972-1.3-1.457a1.023,1.023,0,0,0-.16-.122c-.027.056-.031.086-.019.1a4.006,4.006,0,0,0,.389.573c.551.581,1.121,1.144,1.682,1.716a.412.412,0,0,1,.124.162,1.65,1.65,0,0,1,.008.986.314.314,0,0,1-.481.2,6.628,6.628,0,0,1-.983-.586c-.5-.4-.967-.843-1.434-1.283a6.414,6.414,0,0,1-1.624-2.464c-.3-.815-.588-1.638-.9-2.449a4.443,4.443,0,0,0-.391-.685c-.021-.034-.087-.039-.132-.057a1.014,1.014,0,0,0-.018.133.249.249,0,0,0,.028.074c.206.539.414,1.078.619,1.618.219.575.42,1.157.656,1.725a7.728,7.728,0,0,0,2.21,2.933c.3.25.6.5.908.724a2.811,2.811,0,0,0,1.223.649.425.425,0,0,1,.074.03c.321.108.641.221.964.323a4.668,4.668,0,0,0,1.2.207c.63.029,1.261.059,1.889.109a1.752,1.752,0,0,1,.739.212c-.009.03-.009.049-.019.058-.322.283-.627.59-.974.838a10.894,10.894,0,0,1-1.07.619c-.078.044-.175.053-.252.1a3.165,3.165,0,0,1-1.5.424,1.2,1.2,0,0,0-.249.048c-.348.092-.7.189-1.044.28-.1.025-.675.089-.82.111-.2.031-.411.049-.611.1-.38.093-.752.22-1.133.3a1.95,1.95,0,0,1-1.009.009c-.385-.119-.777-.218-1.153-.363a10.938,10.938,0,0,1-1.324-.586,9.083,9.083,0,0,1-2.325-1.891c-.582-.638-1.118-1.319-1.653-2a5.46,5.46,0,0,1-.629-.975,10.648,10.648,0,0,1-.732-1.948,22.581,22.581,0,0,1-.8-3.175c-.081-.711-.227-1.415-.3-2.127-.1-.885-.151-1.775-.225-2.663-.011-.142-.023-.285-.041-.427-.062-.483-.094-.973-.2-1.445a7.326,7.326,0,0,0-.408-1.039.358.358,0,0,1,.366-.1.357.357,0,0,0,.434-.228c.073-.187.149-.373.222-.56a.379.379,0,0,0-.147-.463c-.007.007-.018.013-.021.022a.081.081,0,0,0-.009.045.674.674,0,0,1-.133.61.2.2,0,0,0-.048.115.354.354,0,0,1-.281.308c-.359.128-.716.261-1.077.38-.186.061-.38.1-.571.146a1.994,1.994,0,0,1,.39-.276c.437-.252.875-.5,1.309-.757.045-.027.061-.1.091-.156-.068.007-.137.011-.2.023-.023,0-.04.034-.063.048a.412.412,0,0,1-.452.04,1.426,1.426,0,0,0-.493-.231c-.017,0-.031-.025-.059-.05a1.531,1.531,0,0,0,.256-.32.241.241,0,0,1,.334-.146c.122.033.236.094.359.12a.526.526,0,0,0,.2-.044c-.036-.052-.061-.123-.111-.153a.764.764,0,0,0-.627-.1c-.165.05-.23.023-.334-.127a1.32,1.32,0,0,1-.16-1.138,2.579,2.579,0,0,1,.631-1.037,2.188,2.188,0,0,1,.556-.536,5.327,5.327,0,0,1,1.112-.421,2.317,2.317,0,0,1,1.485.183,8.551,8.551,0,0,1,2.04,1.19,4.794,4.794,0,0,1,1.478,1.959,13.655,13.655,0,0,0,1.209,2.111.25.25,0,0,0,.1.1,5.81,5.81,0,0,0,1.083.361,15.837,15.837,0,0,1,2.157.476,17.462,17.462,0,0,1,3,1.15,16.327,16.327,0,0,1,3.267,2.144c.465.395.929.794,1.354,1.23.471.481.9,1,1.339,1.515.12.141.3.268.291.478A5.526,5.526,0,0,1,506.1,120.019Zm-9.155,5.027a.078.078,0,0,0,.064-.024c0-.027-.007-.068-.026-.08-.1-.06-.194-.113-.292-.168C496.671,124.8,496.838,124.982,496.942,125.046Zm-.1.774c-.061-.17-.2-.211-.358-.3A.373.373,0,0,0,496.847,125.82Zm-9.16-7.981a.142.142,0,0,0,.05.06c.009.009.028.008.068.017a1.693,1.693,0,0,0-.023-.169c-.077-.3-.155-.592-.238-.886-.012-.043-.054-.076-.082-.113-.017.038-.056.083-.048.115C487.5,117.19,487.593,117.515,487.687,117.839Zm-.947-6.054.165.782.051-.009A.881.881,0,0,0,486.74,111.785Zm.385,2.153a1.058,1.058,0,0,0,.284.909Zm2.938,5.243a.726.726,0,0,0-.252-.651l-.05.026Zm-1.038.757-.311-.91A1.045,1.045,0,0,0,489.025,119.938Zm-1.73-7.085.213.964.08-.021a5.338,5.338,0,0,0-.209-.962Zm0-.771.318.918A1.091,1.091,0,0,0,487.294,112.082Zm1.371,5.945a1.426,1.426,0,0,0-.3-1.048Zm-.449-3.5a1.978,1.978,0,0,0,.629,1.136Zm.114-1.381a3.357,3.357,0,0,0,.4.912A1.682,1.682,0,0,0,488.33,113.151Zm-.024-4.541a.544.544,0,0,0-.414.624c.018.281.372.429.6.41a.557.557,0,0,0,.4-.492A.662.662,0,0,0,488.306,108.61Zm.526,3.5-.051.05a2.792,2.792,0,0,0,.734.736l.041-.038ZM490.9,125.43c-.041.185.343.688.539.709Zm.126-10.206a.717.717,0,0,0,.449.653Zm1.808,12.109.48.465C493.313,127.611,493.013,127.309,492.834,127.333Zm1.407-5.77a1.151,1.151,0,0,0,.47.938Zm.785,1.834-.688-.75A1.109,1.109,0,0,0,495.026,123.4Zm-1.933-10.408-.656-.382C492.475,112.82,492.939,113.076,493.093,112.989Zm-.325,1.721-1.027-1.036C491.722,113.9,492.462,114.648,492.768,114.71Zm-1.12-3.3-.05.027a.463.463,0,0,0,.312.454Zm.507.107c.061.282.679.806.883.777Zm1.967.988a1.213,1.213,0,0,1-.6-.4c-.026-.033-.085-.04-.13-.059,0,.037-.01.089.01.109a1.484,1.484,0,0,0,.767.451.094.094,0,0,0,.047,0c.009,0,.016-.012.046-.035A1.021,1.021,0,0,0,494.122,112.5Zm1.584,7.983-.04.024.556.923.048-.027A3.164,3.164,0,0,0,495.706,120.485Zm2.108-1.58.3.31.064-.062-.3-.308Zm-.064-2.753-.033.025a1.6,1.6,0,0,0,.442.587l.044-.034Zm.437,5.235a1.9,1.9,0,0,0,.925.831Zm1.873-1.155a1.1,1.1,0,0,0,.485.51A1.078,1.078,0,0,0,500.06,120.232Zm2.062-.623.426.352.052-.061A1.9,1.9,0,0,0,502.122,119.609Zm-.062-2.859a1.571,1.571,0,0,0,.327.311l.04-.057Z" transform="translate(-483.821 -106.042)" fill="#fff"/>
            <path id="Path_440" d="M481.94,125.939a3.358,3.358,0,0,1-.635-.144,17.486,17.486,0,0,1-1.893-.7,9.034,9.034,0,0,1-1.6-.886c-.031-.023-.058-.052-.1-.091.429-.167.821-.345.943-.869.114.1.2.167.286.24a3,3,0,0,0,.225.2q1.437,1,2.876,2a.608.608,0,0,1,.117.167C482.087,125.883,482.008,125.949,481.94,125.939Z" transform="translate(-452.881 -106.042)" fill="#fff"/>
            <path id="Path_441" d="M484,123.7a1.06,1.06,0,0,1-.6.1c-.251,0-.476-.13-.744-.079a2.051,2.051,0,0,1-1.111-.2.173.173,0,0,1-.1-.12,3.435,3.435,0,0,1,.032-.43c0-.009.048-.012.073-.02.233-.072.469-.133.695-.221a.52.52,0,0,0,.3-.634c.029-.08.036-.2.091-.232a.257.257,0,0,1,.365.055c.147.179.331.327.494.494q.35.357.692.721a.265.265,0,0,1,.009.386A.906.906,0,0,1,484,123.7Z" transform="translate(-458.727 -106.042)" fill="#fff"/>
            <path id="Path_442" d="M498.074,130.056c.266.043.3.024.279.2-.022.242-.036.486-.069.728a.592.592,0,0,0,.277.6c.091.064.2.11.287.171a2.327,2.327,0,0,1,.2.165,1.758,1.758,0,0,1-.185.073c-.154.038-.309.078-.465.1a.535.535,0,0,1-.273,0,1.806,1.806,0,0,0-1.338-.024,6.267,6.267,0,0,1-1.493.3,2.94,2.94,0,0,0-.668.125.743.743,0,0,1-.635-.076.9.9,0,0,1,.789-.6c.551-.033,1.1-.067,1.652-.084a1.5,1.5,0,0,0,1.067-.428,1.334,1.334,0,0,0,.47-1.084C497.957,130.146,497.941,130.035,498.074,130.056Z" transform="translate(-486.037 -106.042)" fill="#fff"/>
            <path id="Path_443" d="M502.414,109.4c.1-.289.077-.331-.254-.475a.212.212,0,0,1,.287-.082.319.319,0,0,1,.156.364C502.573,109.341,502.521,109.395,502.414,109.4Z" transform="translate(-497.778 -106.042)" fill="#fff"/>
            <path id="Path_444" d="M504.932,111.632l-.039-.058a1.175,1.175,0,0,1,.09-.145c.343-.4.684-.809,1.036-1.205a.247.247,0,0,1,.211-.045c.242.079.477.178.764.289C506.244,110.8,505.655,111.333,504.932,111.632Z" transform="translate(-504.893 -106.042)" fill="#fff"/>
            <path id="Path_445" d="M483.841,128.145c-.109.072-.229.127-.333.183a5.575,5.575,0,0,1-1.255-.236c-.42-.148-.847-.278-1.273-.408-.751-.229-1.51-.43-2.253-.683a9.341,9.341,0,0,0-1.624-.445,3.886,3.886,0,0,1-.674-.183c-.456-.159-.9-.337-1.36-.5-.294-.1-.293-.1-.305-.4,0-.1.034-.132.123-.142a3.963,3.963,0,0,0,.487-.069.841.841,0,0,1,.572.077c1.053.479,2.116.934,3.173,1.4a9.989,9.989,0,0,0,3.378.853.822.822,0,0,0,.644-.212.16.16,0,0,1,.145-.026,1.6,1.6,0,0,1,.591.545A.159.159,0,0,1,483.841,128.145Z" transform="translate(-451.686 -106.042)" fill="#fff"/>
            <path id="Path_446" d="M493.341,131.674a1.019,1.019,0,0,0,.274-.688c.02-.327.062-.653.1-.979a.39.39,0,0,1,.254-.3,1.967,1.967,0,0,1,.338-.094.527.527,0,0,1-.006.091c-.124.464-.243.931-.378,1.392-.081.278-.092.356.23.581a2.522,2.522,0,0,0,1.014.352,1.433,1.433,0,0,1,.845.5,1.071,1.071,0,0,1,.127.283,1.106,1.106,0,0,1-.3-.05,3.018,3.018,0,0,0-2.011-.262c-.3.071-.6.14-.9.209-.165.038-.33.078-.5.108-.386.07-.773.132-1.159.2-.235.041-.469.095-.7.125-.067.008-.142-.046-.213-.072.027-.066.035-.159.084-.193a1.759,1.759,0,0,1,.486-.283c.442-.133.892-.239,1.342-.338A2.058,2.058,0,0,0,493.341,131.674Z" transform="translate(-479.495 -106.042)" fill="#fff"/>
            <path id="Path_447" d="M482.518,127.258a2.6,2.6,0,0,1-.838.08,5.533,5.533,0,0,1-.974-.288c-.74-.244-1.489-.465-2.215-.746-.7-.271-1.366-.605-2.047-.913-.22-.1-.438-.2-.648-.3l.526-.542c.453.194.959.386,1.443.625a14.6,14.6,0,0,0,2.506.916.957.957,0,0,0,.761-.026.194.194,0,0,1,.161.018c.173.1.343.212.508.328.269.188.535.381.8.575C482.648,127.088,482.66,127.229,482.518,127.258Z" transform="translate(-451.42 -106.042)" fill="#fff"/>
            <path id="Path_448" d="M484.16,126.2a1.268,1.268,0,0,0,.545-.857c0-.023.069-.058.1-.058a.8.8,0,0,1,.168.043,1.263,1.263,0,0,0,1.4-.292c.32.11.626.223.938.32.156.048.324.058.482.1.054.015.135.09.13.126-.024.158-.005.339-.161.449a1.218,1.218,0,0,1-.246.144,3.743,3.743,0,0,1-1.28.2,10.839,10.839,0,0,1-1.126-.026C484.808,126.33,484.506,126.258,484.16,126.2Z" transform="translate(-465.093 -106.042)" fill="#fff"/>
            <path id="Path_449" d="M485.906,123.353c.1.058.156.1.218.125a3.272,3.272,0,0,0,.368.14,1.2,1.2,0,0,0,.73-.084.263.263,0,0,1,.2.012c.214.137.424.281.624.438a3.441,3.441,0,0,1,.49.443.471.471,0,0,1-.269.734,1.572,1.572,0,0,1-.659.05,3.109,3.109,0,0,1-1.726-.885.187.187,0,0,1-.052-.149A1.42,1.42,0,0,0,485.906,123.353Z" transform="translate(-467.47 -106.042)" fill="#fff"/>
            <path id="Path_450" d="M485.625,124.305a.528.528,0,0,1-.257.5,1.973,1.973,0,0,1-.92.329c-.063.008-.125.018-.189.025a3.977,3.977,0,0,1-1.59-.256c-.294-.091-.288-.1-.3-.4-.007-.12.04-.157.148-.135a.947.947,0,0,0,1.05-.484.178.178,0,0,1,.154-.055,6.9,6.9,0,0,0,1.734.3C485.568,124.124,485.618,124.193,485.625,124.305Z" transform="translate(-460.995 -106.042)" fill="#fff"/>
            <path id="Path_451" d="M473.9,126.266a.655.655,0,0,1,.343,0c.44.112.877.24,1.315.361.787.218,1.575.43,2.359.656.418.12.827.271,1.244.393s.818.223,1.23.325c.544.136,1.089.27,1.638.39a2.221,2.221,0,0,1,.992.469c.389.327.814.611,1.212.928.307.243.6.507.892.766.039.034.089.119.075.139a.243.243,0,0,1-.154.089.8.8,0,0,1-.3,0c-.415-.106-.828-.223-1.241-.339-.117-.033-.229-.085-.347-.117-.515-.142-1.035-.27-1.548-.422-.381-.113-.751-.262-1.13-.381-.561-.177-1.131-.327-1.688-.514-.422-.142-.829-.326-1.243-.488-.648-.252-1.309-.472-1.941-.758a18.053,18.053,0,0,0-2.236-.825c-.206-.061-.4-.153-.6-.231l.011-.047C473.152,126.531,473.522,126.388,473.9,126.266Z" transform="translate(-450.975 -106.042)" fill="#fff"/>
            <path id="Path_452" d="M484.578,122.271a.143.143,0,0,1,.094-.1c.249-.041.5-.061.75-.109a.349.349,0,0,1,.294.063c.225.159.449.322.686.461a.839.839,0,0,1,.291,1.272.624.624,0,0,1-.409.328,1.377,1.377,0,0,1-.87-.1,2.474,2.474,0,0,1-.9-.7c-.026-.033-.043-.109-.023-.135a.864.864,0,0,0,.1-.717A1.728,1.728,0,0,1,484.578,122.271Z" transform="translate(-464.359 -106.042)" fill="#fff"/>
            <path id="Path_453" d="M483.626,120.755a2.229,2.229,0,0,1,.449-.188c.012-.005.035.019.051.032.242.206.484.411.725.618a1.924,1.924,0,0,1,.64.713.363.363,0,0,1,.019.237.838.838,0,0,1-1.192.477,4.093,4.093,0,0,1-.426-.246c-.162-.109-.316-.231-.471-.35-.1-.075-.109-.149-.013-.248a.841.841,0,0,0,.2-.765.085.085,0,0,1,0-.015C483.613,120.928,483.582,120.784,483.626,120.755Z" transform="translate(-461.871 -106.042)" fill="#fff"/>
            <path id="Path_454" d="M491.006,125.418a1.042,1.042,0,0,1-.417.543,2.106,2.106,0,0,1-1.774.2,11.31,11.31,0,0,1-1.109-.338.61.61,0,0,1-.086-.048,1.412,1.412,0,0,0,.354-1.268c.211.074.378.138.549.191a1.257,1.257,0,0,0,1.233-.2c.117-.094.172-.06.267.009.277.2.559.4.843.592A.258.258,0,0,1,491.006,125.418Z" transform="translate(-471.646 -106.042)" fill="#fff"/>
        </g>
    </g>
</svg>
