<svg xmlns="http://www.w3.org/2000/svg" width="80" height="79.999" viewBox="0 0 80 79.999">
    <g id="_btn" transform="translate(0 0)">
        <g id="rhombus" transform="translate(0 79.999) rotate(-90)">
            <path id="Path_557" d="M40,80a16.6,16.6,0,0,1-10.242-3.385A166.868,166.868,0,0,1,3.413,50.279a17.188,17.188,0,0,1-.032-20.518A166.841,166.841,0,0,1,29.721,3.413a17.187,17.187,0,0,1,20.517-.032A166.772,166.772,0,0,1,76.584,29.723a17.178,17.178,0,0,1,.031,20.517A166.664,166.664,0,0,1,50.278,76.585,16.687,16.687,0,0,1,40,80Z" transform="translate(0 0)" fill="#fff"/>
            <path id="Path_558" d="M38.051,76.1a14.676,14.676,0,0,1-9.057-2.97,164.415,164.415,0,0,1-26-26A14.716,14.716,0,0,1,0,38.051,14.676,14.676,0,0,1,2.968,29a164.426,164.426,0,0,1,26-26A14.732,14.732,0,0,1,38.051,0a14.682,14.682,0,0,1,9.06,2.97,164.7,164.7,0,0,1,26,26A14.725,14.725,0,0,1,76.1,38.051a14.687,14.687,0,0,1-2.968,9.057,164.6,164.6,0,0,1-25.994,26A14.739,14.739,0,0,1,38.051,76.1Z" transform="translate(1.948 1.949)" fill="#b1b1b1"/>
            <path id="Path_559" d="M34.145,68.288a10.652,10.652,0,0,1-6.451-2.043,162.146,162.146,0,0,1-25.6-25.59v0a11.19,11.19,0,0,1-.031-12.98h0A162.4,162.4,0,0,1,27.637,2.089a11.207,11.207,0,0,1,12.951-.057A162.27,162.27,0,0,1,66.2,27.634a11.193,11.193,0,0,1,.049,12.959l.006-.006-.006.006a.061.061,0,0,1-.017.02A161.983,161.983,0,0,1,40.658,66.2a10.693,10.693,0,0,1-6.513,2.091Z" transform="translate(5.854 5.856)" fill="#fff"/>
            <path id="Path_560" d="M32.1,32.1a8.864,8.864,0,0,1-5.281-1.633A159.527,159.527,0,0,1,1.669,5.331V5.325h0A8.927,8.927,0,0,1,0,0H64.192a8.94,8.94,0,0,1-1.63,5.28A159.393,159.393,0,0,1,37.43,30.421,8.9,8.9,0,0,1,32.1,32.1Z" transform="translate(7.903 40)" fill="#002677"/>
        </g>
        <g id="open_close" transform="translate(60.253 34.056) rotate(90)">
            <path id="Path_976" d="M11.488,2.341l-3.6,3.6,3.6,3.6a1.372,1.372,0,0,1-1.942,1.94l-3.6-3.6-3.6,3.6A1.372,1.372,0,0,1,.4,9.541l3.6-3.6-3.6-3.6A1.371,1.371,0,0,1,2.343.4L5.947,4,9.548.4a1.371,1.371,0,0,1,1.94,1.938Z" transform="translate(0 0)" fill="#fff"/>
        </g>
    </g>
</svg>
