<svg id="wing-top-mobile" xmlns="http://www.w3.org/2000/svg" xmlns:xlink="http://www.w3.org/1999/xlink" width="375" height="812" viewBox="0 0 375 812">
    <defs>
        <clipPath id="clip-path">
            <rect id="Rectangle_1450" width="375" height="812" transform="translate(1219 114)" fill="#fff" stroke="#707070" stroke-width="1"/>
        </clipPath>
    </defs>
    <g id="wing-top-mobile-2" transform="translate(-1219 -114)" clip-path="url(#clip-path)">
        <g id="right" transform="translate(-490.502 20.123)">
            <path id="Path_1747" d="M634.74,787.754l-.093.082.093-.082" transform="translate(1434.215 -629.669)" fill="#fff" fill-rule="evenodd"/>
            <path id="Path_1748" d="M635.2,787.534q-.264.271-.509.483c.165-.141.331-.3.509-.483" transform="translate(1434.266 -629.933)" fill="#fff" fill-rule="evenodd"/>
            <path id="Path_1749" d="M751.613,1026.09c-.62-.851-1.211-1.725-1.866-2.549-4.369-5.487-8.255-11.479-13.259-16.307-5.807-5.6-8.711-12.313-10.447-19.785-.756-3.259-.929-6.654-1.471-10.789-.666,1.286-1.381,2.022-1.37,2.746.064,4.056.267,8.114.5,12.167.11,1.934.39,3.86.618,6.043-.787-.2-1.418-.2-1.484-.395-1.751-5.064-5.342-8.861-8.732-12.8-2.022-2.344-4.007-4.722-6.109-6.991-11.175-12.079-22.553-23.971-33.527-36.226-10.22-11.413-20-23.217-30.016-34.813-6.885-7.975-13.919-15.822-20.753-23.841-21.728-25.493-42.986-51.362-63.311-78a191.57,191.57,0,0,1-28.869-53.169c-5.242-14.975-10.979-29.815-13.638-45.566-.113-.666-.205-1.336-.333-2.175,3.456,4.537,6.627,8.987,10.094,13.193,7.737,9.386,16.925,16.92,28.633,20.8a62.643,62.643,0,0,0,11.486,2.442c2.922.386,4.612,1.281,5.851,4.307a235.581,235.581,0,0,0,19.238,37c6.045,9.516,12.851,18.44,19.7,27.378,25.358,33.086,52.591,64.593,80.208,95.78,22.67,25.605,46.191,50.416,70.069,74.9,21.834,22.394,45.072,43.255,68.468,63.96,3.361,2.975,7.1,5.525,10.674,8.266a11.48,11.48,0,0,1,4.656,8.187c.307,2.893-.97,4.347-3.253,5.088a14.478,14.478,0,0,1-5.586.176c-4.451-.525-9.011-.937-13.255-2.263-21.77-6.8-42.309-16.1-60.089-30.737a7.566,7.566,0,0,1-2.32-2.843c-2.457-6.427-4.857-12.88-7.077-19.39-3.059-8.97-3.961-18.019.013-27.085-.258-.126-.514-.247-.77-.37a17.415,17.415,0,0,0-2.108,3.174c-2.245,5.8-3.877,11.773-3.136,18.071.637,5.439,1.533,10.851,2.355,16.267.293,1.919.71,3.82,1.07,5.727l-.849.417" transform="translate(1293.051 -731.063)" fill="#fff"/>
            <path id="Path_1750" d="M601.158,675.409c-2.691-1.01-4.923-1.846-7.155-2.682-.17.335-.342.668-.514,1a59.888,59.888,0,0,0,6.416,4.459,3.984,3.984,0,0,1,2.313,3.584c.984,8.939,2,17.875,3.123,26.8a413.972,413.972,0,0,0,9.666,52.163,62.491,62.491,0,0,1,.225,29.579c-1.815,8.2-5.095,15.5-10.683,21.618C592.333,825.3,574.555,828.755,558.3,819A66.555,66.555,0,0,1,539,801.623c-8.685-11.609-15.451-24.209-18.881-38.333-1.383-5.692-1.533-11.68-2.287-17.529-.988-7.648-2.023-15.295-3.026-22.941-.348-2.642-.717-5.282-.968-7.933-.382-4.056-.792-8.114-.968-12.183q-.973-22.327-1.78-44.664c-.185-5.051-.161-10.11-.258-15.165a9.1,9.1,0,0,1,1.978-6.237,79.722,79.722,0,0,0,4.481-6.8c9.234,13.391,18.3,27.036,35.715,31.774.227,1.773.512,3.549.673,5.337,1.251,14.139,2.4,28.289,3.754,42.422.547,5.728,1.5,11.418,2.294,17.121s1.8,11.382,2.424,17.105c.7,6.473,2.481,12.655,4.263,18.876A355.84,355.84,0,0,0,585.382,812.5c.487,1.067,1.162,2.051,1.749,3.074.324-.091.651-.179.977-.269a31.149,31.149,0,0,0-.54-4.717c-1.089-4.069-2.2-8.147-3.593-12.117-8.511-24.18-15.654-48.716-19.209-74.164-.935-6.676-1.361-13.424-1.949-20.147q-1.677-19.115-3.257-38.233a21.682,21.682,0,0,1,.132-2.737c3.815-.446,7.529-1.008,11.268-1.284a24.035,24.035,0,0,0,13.1-5.161c5.891-4.468,10.61-9.933,15.295-16.929.633,12.467,1.209,23.878,1.8,35.6" transform="translate(1284.96 -820.024)" fill="#fff"/>
            <path id="Path_1751" d="M569.212,867.568a15.144,15.144,0,0,0,2.748,8.131c3.346,4.993,7.962,8.676,12.465,12.512,2.993,2.545,5.939,5.169,8.7,7.962,4.8,4.863,6.438,11.193,7.053,17.666a47.908,47.908,0,0,1-4.583,24.63c-2.018,4.391-5.271,8.31-8.42,12.059-6.054,7.2-12.364,14.17-16.9,22.65a12.037,12.037,0,0,1,.534-1.919c5.26-11.349,3.93-22.114-2.744-32.468a114.036,114.036,0,0,0-6.846-10.2,32.737,32.737,0,0,0,1.149,4.124,70.464,70.464,0,0,0,3.388,7.245c4.757,8.559,4.029,17.321,1.07,26.143a42.7,42.7,0,0,1-13.18,19.209c-10.4,8.828-20.51,18.052-31.355,26.3-11.175,8.5-22.831,16.457-35.92,21.931-1.145.476-2.342.816-3.826,1.328-1.314-5.11.467-10.363-1.217-15.142-.291,0-.584.009-.878.009-.168,1.024-.419,2.038-.49,3.068-.1,1.4-.015,2.814-.084,4.219-.384,7.776-3.432,10.99-11.093,11.142a29.83,29.83,0,0,1-9.108-1.1c-3.943-1.187-5.853-5.315-1.085-8.467,2.466-1.63,5.011-3.13,7.492-4.733a501.98,501.98,0,0,0,55.476-41.323,110.339,110.339,0,0,0,35.108-54.567,152.63,152.63,0,0,0,5.685-48.819c-.408-8.842-.487-17.747-1.632-26.505-2.038-15.6-4.662-31.136-7.247-46.665s-5.439-31.006-8.14-46.508c-1.063-6.089-2.1-12.187-2.991-18.3a39.736,39.736,0,0,1-.04-5.7c17.518-3.085,32.982-14.225,40.494-36.222.933,3.983,1.645,7.254,2.466,10.493q3.414,13.487,6.9,26.95c6.513,25.332,12.747,50.731,15.61,76.793,1.306,11.876,2.082,23.814,3.116,35.719.278,3.189.626,6.374.992,10.068-1.22-.419-1.921-.7-2.644-.9-4.857-1.363-9.656-2.982-14.587-3.983-4.283-.873-8.48-1.731-12.174-4.272,1.9,3.207,4.962,4.66,8.314,5.6,3.52.988,7.09,1.789,10.613,2.761a26.605,26.605,0,0,1,4.744,1.7c4.133,2.06,6.347,5.11,5.869,10.112-.878,9.227-1.341,18.5-2.018,27.747-.119,1.656-.43,3.3-.748,5.659a8.888,8.888,0,0,1-1.092-1.9c-1.09-6.032-4.954-10.081-9.971-12.882a151.687,151.687,0,0,0-15.974-7.547c-5.474-2.274-8.674-6.484-11.107-11.545-.395-.827-.7-1.694-1.05-2.541l-.84.28" transform="translate(1218.589 -736.349)" fill="#fff"/>
            <path id="Path_1752" d="M470.183,633.917c1.25-1.037,2.324-1.925,3.531-2.927,9.055,11.268,21.057,17.4,35.21,20.235a39.085,39.085,0,0,1,.242,5.106c-.911,10.7-.287,21.335.832,31.988.891,8.526,1.173,17.118,2.106,25.638,1.826,16.616,3.773,33.214,7.94,49.479,1.672,6.517,2.545,13.239,3.74,19.878,1.187,6.574,3.844,12.619,6.619,18.625a12.545,12.545,0,0,0,1.5,1.822c.417-3.279-.324-5.639-.887-8-1.592-6.7-3.513-13.339-4.757-20.1-1.449-7.867-2.327-15.839-3.434-23.766-.838-5.983-1.864-11.951-2.435-17.961-1.209-12.591-2.124-25.21-3.255-37.808a318.623,318.623,0,0,1-1.647-35.382c.1-4.534,1.943-6.572,6.652-7.265,5.128-.754,10.249-1.557,15.368-2.371,5.619-.893,10.935-2.576,15.531-6.1.748-.571,1.615-.986,2.812-1.707a40.269,40.269,0,0,1,.516,4.025c.232,12.659.459,25.318.562,37.98a13.211,13.211,0,0,1-1.125,4.42c-1.44,3.957-3.024,7.862-4.453,11.823a15.682,15.682,0,0,0-.344,3.3c3.69-2.43,3.8-6.621,6.729-9.821.487,5.249.856,9.83,1.345,14.4,1.019,9.5,1.985,19,3.185,28.47,1.27,10.03,2.728,19.973,2.206,30.2-.69,13.425-5.9,24.8-15.339,33.717-14.443,13.627-34.42,15.912-51.058,2.774-5.9-4.656-10.562-10.5-15.026-16.488a14.013,14.013,0,0,1-1.63-2.947c-5.333-12.626-9.351-25.623-10.593-39.341-.84-9.236-1.954-18.479-2.128-27.736-.262-14.024.086-28.062.362-42.091.247-12.653.743-25.3,1.123-37.947.042-1.4,0-2.8,0-4.113" transform="translate(1234.058 -818.637)" fill="#fff"/>
            <path id="Path_1753" d="M545.179,733.043c11.8-5.132,22.028-11.607,28.457-23.45.86,1.451,1.363,2.2,1.771,3,1.153,2.252,2.223,4.55,3.4,6.788,6.03,11.437,11.784,23.034,18.228,34.233,5.183,9.009,10.906,17.747,16.942,26.212,7.671,10.749,15.879,21.117,23.9,31.619q6.52,8.538,13.188,16.964c1.833,2.3,3.93,4.391,5.873,6.607.6.686,1.085,1.473,1.9,2.594-8.193,2.256-16.741.82-24.01,5.61,1.381-.134,2.779-.174,4.142-.417a52.393,52.393,0,0,1,22.581.754,9.234,9.234,0,0,1,3.915,2.1,91.593,91.593,0,0,1,6.592,7.095c7.92,9.318,15.722,18.733,23.677,28.022q23.736,27.732,47.571,55.385c1.919,2.241,3.635,4.658,5.372,7.046a25.555,25.555,0,0,1,1.61,3.3c-7.644-3.913-14.6-7.08-22.82-7.377.9,2.283,2.79,2.576,4.378,3.2,4.442,1.747,8.961,3.313,13.358,5.163,3.553,1.5,6.239,4.06,8.756,7.055,10.719,12.752,19.739,26.695,28.508,40.772,7.732,12.414,14.781,25.25,22.1,37.916.679,1.171,2.5,4.146,2.1,4.512-.525.479-2.172-.935-2.73-1.392-6.3-5.161-12.745-10.161-18.812-15.586q-14.47-12.942-28.5-26.384c-5.381-5.145-10.35-10.721-15.535-16.075-4.892-5.053-9.9-9.991-14.71-15.123-3.838-4.1-7.388-8.467-11.179-12.613-1.6-1.753-3.606-3.134-5.222-4.872q-10.632-11.433-21.139-22.978c-10.352-11.307-20.819-22.513-30.982-33.986-7.552-8.524-14.684-17.419-22.037-26.119-3.628-4.292-7.39-8.473-10.99-12.789-3.149-3.776-6.118-7.7-9.225-11.506-5.6-6.866-11.281-13.674-16.874-20.548q-18.115-22.271-34.12-46.107a227.417,227.417,0,0,1-17.8-32.535,37.145,37.145,0,0,1-1.632-6.094" transform="translate(1326.367 -723.887)" fill="#fff"/>
            <path id="Path_1754" d="M599.462,661.857c2.757-.344,5.145-.494,7.465-.975a28.7,28.7,0,0,0,6.821-2.013,94.356,94.356,0,0,0,19.8-12.772c.6-.514,1.312-.909,2.415-1.656.348,2.735.631,5.035.942,7.331,1.91,14.2,3.972,28.377,5.7,42.6,1.614,13.228,4.6,26.313,4.01,39.788-.238,5.454.324,10.939.229,16.406-.192,11.005-4.925,20.359-11.153,29.068-2.19,3.061-4.093,6.343-7.479,8.46-15.218,9.53-30.965,9.783-45.679-.915a31.926,31.926,0,0,1-13.409-22.509c-.532-4.177-1.473-8.3-2.2-12.452q-2-11.413-3.959-22.835c-.9-5.266-1.925-10.518-2.589-15.817-1.773-14.212-3.679-28.415-4.962-42.675-.955-10.617-1-21.318-1.5-31.979-.112-2.373-.556-4.733-.642-7.1a19.584,19.584,0,0,1,.651-5.416,81.631,81.631,0,0,0,15.323,23.082c6.636,6.93,15.566,9.144,24.238,11.815.443,5.37.745,10.544,1.317,15.687,2.013,18.151,3.258,36.445,6.462,54.386a227.041,227.041,0,0,0,11.814,43.008q2.339,5.971,4.707,11.931c.271-.062.54-.121.812-.181a6.049,6.049,0,0,0,.227-1.817c-1.55-8.273-2.849-16.565-5.218-24.708a285.776,285.776,0,0,1-9.971-52.09c-1.242-12.721-2.81-25.409-4.135-38.121-.245-2.34-.035-4.728-.035-7.525" transform="translate(1336.109 -824.184)" fill="#fff"/>
            <path id="Path_1755" d="M543.4,805.806c-2.711,2.993-4.645,5.871-7.273,7.818-2.532,1.881-5.787,2.788-8.714,4.142a14.9,14.9,0,0,0-7.349,7.258c-.461.948-1.063,1.831-1.751,3.006-.335-.708-.644-1.067-.653-1.429-.1-5.328-.093-10.661-.262-15.985a23.511,23.511,0,0,1,1.93-10.266c.593-1.376,1.149-2.763,1.722-4.146.351-.845.188-1.76-.719-.457-1.341,1.928-2.8,3.771-4.122,5.556-2.439-13.8-5.434-27.456-8.586-41.09-3.983-17.238-7.653-34.555-11.446-51.839a7.4,7.4,0,0,1-.057-3.013c9.865,12.492,21.845,21.166,38.308,22.345,1.032,5.474,2.044,10.551,2.951,15.648,3.732,21.016,7.267,42.069,11.208,63.049,2.984,15.9,5.017,31.91,6.427,48.019,1.169,13.363.342,26.651-.6,39.985a128.2,128.2,0,0,1-4.885,26.878,98.427,98.427,0,0,1-17.595,33.785c-9.569,12.119-20.861,22.37-33.143,31.641-7.847,5.926-15.385,12.273-23.32,18.078-5.086,3.718-10.639,6.8-16.014,10.121a12.72,12.72,0,0,1-2.715.832,9.175,9.175,0,0,1,.278-2.625,67.077,67.077,0,0,1,9.737-15.687c8.312-9.539,16.724-19.066,24.121-29.3,14.525-20.1,25.757-40.736,30.993-68.309a121.492,121.492,0,0,0,1.667-32.305c-.8-10.231-1.467-20.469-2.177-30.7-.626-9.062,2.909-15.4,11.676-18.784,5.712-2.205,8.343-5.606,10.365-12.222" transform="translate(1219.753 -728.987)" fill="#fff"/>
            <path id="Path_1756" d="M598.129,712.3c1.083,3.125,1.819,6,3.046,8.658,4.83,10.447,9.68,20.892,14.772,31.216,9.223,18.687,22.321,34.7,35.313,50.791,9.532,11.806,19.8,22.992,28.514,35.508a168.537,168.537,0,0,1,14.417,24.22,44.335,44.335,0,0,1,3.2,10.421c.995,5.128-3.39,12.167-8.347,13.819a9.267,9.267,0,0,1-9.164-1.546,91.63,91.63,0,0,1-9.739-9.283c-9.32-10.5-18.605-21.044-27.625-31.8-18.435-21.993-36.05-44.625-51.653-68.737-4.722-7.3-8.7-15.076-12.851-22.727-4.759-8.769-9.161-17.732-14.038-26.432-3.138-5.6-4.671-11.164-2.772-17.52.992-3.326,1.458-6.808,2.2-10.381,4.259,2.779,8.467,5.211,12.317,8.121,5.192,3.923,11.109,5.211,17.352,5.661,1.533.106,3.083.013,5.059.013" transform="translate(1344.681 -737.25)" fill="#fff"/>
            <path id="Path_1757" d="M579.338,722.364c20.524-2.488,31.829-14.651,38.957-32.34a18.063,18.063,0,0,1,.9,2.808,133.325,133.325,0,0,0,12.589,40.512c3.615,7.128,8.094,13.824,12.255,20.671,3.868,6.367,7.743,12.734,11.77,19s7.955,12.615,12.443,18.537A129.129,129.129,0,0,1,683.395,817.3c3.321,7.481,4.076,15.442,3.873,23.5a53.2,53.2,0,0,1-6.764,25.422c-1.072,1.888-1.573,4.1-2.6,6.894-2.508-4.124-4.839-7.6-6.81-11.27a150.67,150.67,0,0,0-15.381-22.652c-14.249-17.789-28.346-35.7-42.47-53.583-8.685-11-14.973-23.437-21.4-35.785-2.4-4.614-4.826-9.223-6.991-13.947-1.914-4.173-3.487-8.5-5.511-13.506" transform="translate(1367.543 -747.476)" fill="#fff"/>
            <path id="Path_1758" d="M593.708,638.177a36.707,36.707,0,0,1,3.273,2.591,34.181,34.181,0,0,0,19.586,9.927,39.733,39.733,0,0,1,5.582,1.722c.477,5.752.73,11.221,1.434,16.631,1.14,8.78,2.786,17.5,3.853,26.287,1.83,15.063,3.379,30.161,5.053,45.245.057.547.207,1.083.47,2.43a12.472,12.472,0,0,0,1.193-2.492,78.012,78.012,0,0,0,.271-20.189c-.995-9.924-1.6-19.893-2.722-29.8-.986-8.652-2.591-17.233-3.663-25.876-.479-3.886-.3-7.854-.465-11.781-.075-1.819.734-2.7,2.461-3.361,4.442-1.714,9.018-3.3,13.091-5.7,3.443-2.029,6.361-5.015,9.307-7.789a86.089,86.089,0,0,0,5.708-6.592,36,36,0,0,1,.4,3.606c-.009,8.158-.3,16.325-.046,24.474.4,12.78,1.173,25.548,1.76,38.324.289,6.314.668,12.631.728,18.947.071,7.825-2.053,15.319-4.358,22.687-.649,2.071-2.693,3.954-4.528,5.359-5.774,4.413-12.037,7.715-19.62,7.77a27.077,27.077,0,0,1-19.558-7.527c-3.09-2.966-5.45-6.771-7.761-10.436-.977-1.557-1.185-3.7-1.409-5.62-1.028-8.784-1.892-17.588-2.9-26.375-2.084-18.142-6.519-35.971-7.269-54.293-.1-2.435-1.334-4.861.128-8.162" transform="translate(1384.01 -820.525)" fill="#fff"/>
            <path id="Path_1759" d="M526.111,737.44c2.044,3.167,4.175,6.279,6.111,9.51,6.533,10.888,14.278,20.879,22.332,30.662,6.885,8.359,13.46,16.971,20.363,25.314,7.525,9.093,24.127,29.2,31.818,38.159,4.3,5.011,8.753,9.887,13.047,14.9a16.3,16.3,0,0,1,2.633,4.27c.946,2.276-1.122,6.471-3.546,6.228-39.16-15.438-65.283-5.4-89.113,20.546-.776.6-2.53,1.25-2.781.962a4.83,4.83,0,0,1-1.248-3.255c.426-4.049,1.264-8.052,1.753-12.1,1.367-11.31,5.639-37.309,5.353-48.731-.324-12.783-.454-25.583-1.31-38.333-.694-10.359-2.258-20.661-3.59-30.969-.732-5.661-1.778-11.281-2.682-16.92.287-.082.573-.165.86-.249" transform="translate(1302.345 -690.319)" fill="#fff"/>
            <path id="Path_1760" d="M641.618,752.436c1.3-2.587.176-4.179-.454-5.783-4.016-10.2-8.25-20.317-12.059-30.594-2.675-7.216-4.784-14.64-7.258-22.315,1.4,0,2.32-.026,3.24,0,7.657.249,14.814-1.089,20.775-6.383a7.072,7.072,0,0,1,1.842-.99,16.607,16.607,0,0,1,1.634-.531c1.125,5.053,2.269,9.911,3.275,14.8,2.133,10.361,5.807,20.235,9.28,30.184,2.45,7.02,4.731,14.113,6.685,21.283.71,2.607.419,5.54.3,8.312A72,72,0,0,1,665.8,779.9c-1.619,4.929-3.151,9.907-5.159,14.682-2.172,5.172-9.067,5.968-12.756,1.8a131.917,131.917,0,0,1-15.282-21.132c-4.662-8.015-9.726-15.8-14.4-23.8a138.75,138.75,0,0,1-16.971-45.139c-1.345-7.313-2.181-14.723-3.125-22.1a19.235,19.235,0,0,1,.463-4.265,8.1,8.1,0,0,1,1.339,1.039,29.673,29.673,0,0,0,15.028,10.379,4.08,4.08,0,0,1,3.169,3.346c4.481,19,12.039,36.822,21.02,54.08a40.1,40.1,0,0,0,2.492,3.654" transform="translate(1390.124 -759.633)" fill="#fff"/>
            <path id="Path_1761" d="M481.715,743.22s-6.7,11.665-15.61,12.066a195.965,195.965,0,0,0-6.506,19.92c-1.515,5.939-4.662,17.238,2.212,20.5,6.561,3.114,12.58-4.195,16.772-9.552,3.948-5.044,9.417-14.505,11.627-23.5,0,0-10.346-7.809-8.5-19.43" transform="translate(1220.736 -683.351)" fill="#fff" fill-rule="evenodd"/>
            <path id="Path_1762" d="M490.709,749.069c-3.681,3.769-8.469,7.58-12.913,7.779,0,0-1.806,5.787-3.745,15.343-1.18,5.809-4.817,24.974,3.745,27.471,7.32,2.137,11.775-6.246,14.095-10.705.776-1.493,1.711-3.134,2.724-4.942-.613-11.528-2.13-23.4-3.906-34.945" transform="translate(1238.48 -676.301)" fill="#fff" fill-rule="evenodd"/>
            <path id="Path_1763" d="M469.7,739.8s-7.84,11.137-16.739,10.838a102.325,102.325,0,0,0-6.762,17.485c-1.2,4.466-5.509,18.77,2.327,21.58,6.173,2.212,14.366-7.734,18.288-13.369a65.244,65.244,0,0,0,8.817-19.318s-9.708-5.944-5.93-17.215" transform="translate(1204.32 -687.478)" fill="#fff" fill-rule="evenodd"/>
            <path id="Path_1764" d="M458.694,735.7s-9.377,10.055-18.142,8.639a78.032,78.032,0,0,0-4.982,8.978c-4.036,8.555-9.274,27.83-.933,29.29,9.424,1.65,19.114-10.956,27.429-29.081,0,0-7.838-9.022-3.372-17.827" transform="translate(1187.765 -692.415)" fill="#fff" fill-rule="evenodd"/>
            <path id="Path_1765" d="M427.308,718.928s-13.422,9.419-20.391,5.514c0,0-18.457,23.625-10.227,30.2,6.27,5.013,18.848-3.873,29.182-18.446,0,0-4.287-6.863,1.436-17.271" transform="translate(1144.825 -712.634)" fill="#fff" fill-rule="evenodd"/>
            <path id="Path_1766" d="M436.759,726.214s-9.9,9.281-18.31,5.758c0,0-19.19,26.939-10.315,32.614,8.123,5.19,22.531-7.4,31.915-22.61,0,0-8.339-5.011-3.291-15.762" transform="translate(1158.344 -703.851)" fill="#fff" fill-rule="evenodd"/>
            <path id="Path_1767" d="M446.423,731.866s-8.687,8.434-16.369,5.341c0,0-19.291,30.708-9.907,36.295,6.316,3.758,21.11-9.252,29.8-25.607,0,0-6.6-5.231-3.524-16.029" transform="translate(1172.547 -697.038)" fill="#fff" fill-rule="evenodd"/>
            <path id="Path_1768" d="M405.215,706.3s-7.505,5-14.386,2.512c0,0-25.115,21.205-14.9,27.85,0,0,14.642,5.65,30.426-15.129,0,0-4.089-8.722-1.138-15.233" transform="translate(1119.4 -727.856)" fill="#fff" fill-rule="evenodd"/>
            <path id="Path_1769" d="M414.833,713.165s-9.069,5.39-15.584,3.29c0,0-23.741,21.514-13.526,28.159,0,0,15.114,4.2,30.894-16.58,0,0-5.6-6.892-1.784-14.869" transform="translate(1131.076 -719.58)" fill="#fff" fill-rule="evenodd"/>
            <path id="Path_1770" d="M397.624,697.779s-8.034,4.733-14.527,1.513c0,0-24.822,19.906-16.089,26.922,3.617,2.9,17.513.551,29.421-12.47,0,0-4.578-6.951,1.2-15.965" transform="translate(1109.348 -738.128)" fill="#fff" fill-rule="evenodd"/>
            <path id="Path_1771" d="M390.667,690.376s-8.91,4.131-15.432,1.015a52.86,52.86,0,0,0-11.62,11.574c-3.4,4.971-7.04,11.336-4.689,14.448,3.831,5.064,18.876-.525,29.837-12.836,0,0-4.131-7.92,1.9-14.2" transform="translate(1100.95 -747.052)" fill="#fff" fill-rule="evenodd"/>
            <path id="Path_1772" d="M383.936,682.987s-8.756,3.709-14.657.487c0,0-11.294,8.3-15.33,14.7-6.1,9.671-2.025,12.6,1.385,12.917,3.685.346,13.958-2.512,25.665-13.383,0,0-3.463-9.214,2.938-14.721" transform="translate(1092.062 -755.958)" fill="#fff" fill-rule="evenodd"/>
            <path id="Path_1773" d="M379.214,675.012s-8.947,3.215-14.662-.329c0,0-14.946,10.408-19.132,16.708-4.942,7.441.942,10.516,3.149,10.741,5.492.558,14.6-2.382,26.893-12.584,0,0-2.944-9.393,3.751-14.536" transform="translate(1083.252 -765.968)" fill="#fff" fill-rule="evenodd"/>
            <path id="Path_1774" d="M474.825,728.726s-6.991,9.194-14.56,9.547c0,0-7.858,24.979,4.285,27.462,0,0,12.214,2.016,17.317-22.736,0,0-8.1-5.064-7.042-14.274" transform="translate(1220.994 -700.823)" fill="#fff" fill-rule="evenodd"/>
            <path id="Path_1775" d="M483.473,731.086s-3.754,8.877-11.135,10.586c0,0-3.185,13.081-1.01,21.5,2.858,11.056,12.8,9.6,15.9,4.883a27.621,27.621,0,0,0,3.52-9.739q-.824-4.9-1.634-9.644c-.307-1.8-.99-4.784-1.872-8.376a12.009,12.009,0,0,1-3.771-9.206" transform="translate(1236.429 -697.978)" fill="#fff" fill-rule="evenodd"/>
            <path id="Path_1776" d="M466.1,725.507s-7.382,9.084-14.909,8.389c0,0-13.795,23.715-.882,28.2,0,0,11.8,2.214,20.7-21.627,0,0-8.193-7.225-4.914-14.959" transform="translate(1205.354 -704.703)" fill="#fff" fill-rule="evenodd"/>
            <path id="Path_1777" d="M457.742,721.081s-7.933,8.729-15.39,7.684c0,0-17.809,23.444-4.918,27.74,6.356,2.119,17.286-7.7,23.256-20.3,0,0-6.709-7.545-2.949-15.125" transform="translate(1190.843 -710.039)" fill="#fff" fill-rule="evenodd"/>
            <path id="Path_1778" d="M445.877,715.92s-8.1,8.778-15.515,7.743c0,0-15.95,23.783-2.761,26.344,6.883,1.337,13.687-5.838,20.877-18.918,0,0-5.3-4.717-2.6-15.169" transform="translate(1178.338 -716.26)" fill="#fff" fill-rule="evenodd"/>
            <path id="Path_1779" d="M435.71,710.381s-8.52,8.458-15.862,7.126c0,0-15.787,21.441-4.843,27.116,6.268,3.251,15.392-2.8,23.034-17.392a15.358,15.358,0,0,1-2.329-16.85" transform="translate(1164.795 -722.937)" fill="#fff" fill-rule="evenodd"/>
            <path id="Path_1780" d="M425.668,704.391s-9.342,7.933-16.441,6.1c0,0-13.336,15.416-8.48,23.483,2.362,3.921,13.255,5.844,26.015-12.842,0,0-5.67-7.027-1.094-16.746" transform="translate(1150.98 -730.157)" fill="#fff" fill-rule="evenodd"/>
            <path id="Path_1781" d="M418.051,698.8s-8.476,6.332-15.928,2.554c0,0-20.356,19.633-9.611,26.9,0,0,8.707,6.6,24.972-14.774,0,0-5.086-7.829.567-14.677" transform="translate(1138.563 -736.895)" fill="#fff" fill-rule="evenodd"/>
            <path id="Path_1782" d="M411.033,691.319s-9.508,5.882-16.329,3.332c0,0-21.256,18.638-10.718,26.2,0,0,8.517,6.844,25.382-14.069,0,0-4.175-8.778,1.665-15.465" transform="translate(1128.525 -745.915)" fill="#fff" fill-rule="evenodd"/>
            <path id="Path_1783" d="M402.309,684.894s-8.678,4.036-14.289.655c0,0-20.983,16.916-12.256,24.35,0,0,7.754,6.458,24.507-11.382,0,0-3.723-7.948,2.038-13.623" transform="translate(1119.588 -753.659)" fill="#fff" fill-rule="evenodd"/>
            <path id="Path_1784" d="M395.7,678.129s-6.416,2.062-12.167-.842c0,0-23.708,17.147-15.251,24.886,0,0,8.268,7.227,25.645-10.006,0,0-3.121-8.837,1.773-14.038" transform="translate(1110.926 -762.83)" fill="#fff" fill-rule="evenodd"/>
            <path id="Path_1785" d="M472.575,716.177s-5.666,8.451-12.231,8.447c0,0-10.143,19.8,1.387,22.652,0,0,9.607,2.863,15.407-18.475,0,0-6.784-5.672-4.563-12.624" transform="translate(1219.133 -715.95)" fill="#fff" fill-rule="evenodd"/>
            <path id="Path_1786" d="M481.619,719.158c-1.994,2.589-5.9,6.786-10.414,6.991,0,0-9.212,20.255,2.437,22.562,0,0,7.346,1.822,12.423-11.859-1.985-7.582-3.8-14.505-4.4-17.452Z" transform="translate(1233.028 -712.356)" fill="#fff" fill-rule="evenodd"/>
            <path id="Path_1787" d="M463.56,712.284s-6.041,8.277-12.586,8.065c0,0-11.04,19.509.322,22.736,0,0,8.91,4.539,15.687-16.664,0,0-5.966-7.238-3.423-14.137" transform="translate(1207.007 -720.643)" fill="#fff" fill-rule="evenodd"/>
            <path id="Path_1788" d="M455.142,708.282s-6.93,7.728-13.383,6.925c0,0-11.987,17.2-3.412,22.374,4.863,2.933,12.456-.988,19.247-16.155,0,0-5.758-6.48-2.452-13.145" transform="translate(1193.862 -725.467)" fill="#fff" fill-rule="evenodd"/>
            <path id="Path_1789" d="M444.946,703.461s-8.392,7.188-14.788,6.087c0,0-12,17.533-2.748,22.568,4.984,2.713,10.813-1.548,19.249-15.385,0,0-5.377-6.753-1.714-13.27" transform="translate(1180.18 -731.279)" fill="#fff" fill-rule="evenodd"/>
            <path id="Path_1790" d="M436.608,697.986s-8.8,6.193-14.993,4.671c0,0-15.136,17.9-5.174,23.375,0,0,8.44,5.99,20.74-13.638,0,0-4.9-8.083-.573-14.408" transform="translate(1167.09 -737.878)" fill="#fff" fill-rule="evenodd"/>
            <path id="Path_1791" d="M428.507,692.359s-7.423,6.065-15.008,2.874c0,0-16.713,17.732-7.088,23.6,0,0,8.535,6.162,21.776-13.061,0,0-4.3-7.236.32-13.411" transform="translate(1155.49 -744.661)" fill="#fff" fill-rule="evenodd"/>
            <path id="Path_1792" d="M421.9,686.34s-9.777,5.586-15.678,3.295c0,0-17.231,15.37-8.158,22.063,0,0,7.318,6.041,22.211-11.936,0,0-3.524-7.679,1.625-13.422" transform="translate(1145.846 -751.916)" fill="#fff" fill-rule="evenodd"/>
            <path id="Path_1793" d="M414.519,679.418s-8.017,4.067-13.81,1.511c0,0-19.911,15.645-11.148,22.745,0,0,7.373,6.96,23.062-10.324,0,0-3.509-8.425,1.9-13.932" transform="translate(1136.092 -760.261)" fill="#fff" fill-rule="evenodd"/>
            <path id="Path_1794" d="M408.956,672.744s-7.393,3.5-12.99.536c0,0-21.863,14.188-13.625,21.889,0,0,7.551,7.234,24.427-8.894,0,0-3.595-8.42,2.188-13.53" transform="translate(1127.84 -768.306)" fill="#fff" fill-rule="evenodd"/>
            <path id="Path_1795" d="M470.513,704.9s-4.947,7.468-10.628,7.565c0,0-8.9,17.458,1.052,19.783,0,0,8.273,2.373,13.433-16.378,0,0-5.822-4.859-3.857-10.97" transform="translate(1219.139 -729.54)" fill="#fff" fill-rule="evenodd"/>
            <path id="Path_1796" d="M478.9,707.68s-4.559,7.71-10.229,8.1c0,0-7.99,17.888,2.066,19.7,0,0,6.947,1.612,11.356-12.43-.556-2.735-1.054-5.2-1.5-7.509a9.319,9.319,0,0,1-1.7-7.86" transform="translate(1230.515 -726.192)" fill="#fff" fill-rule="evenodd"/>
            <path id="Path_1797" d="M463.836,701.545s-7.573,6.352-13.193,5.683c0,0-9.728,16.525-.243,20.173,0,0,7.823,3.476,15.645-14.445,0,0-5.037-5.611-2.21-11.411" transform="translate(1207.11 -733.588)" fill="#fff" fill-rule="evenodd"/>
            <path id="Path_1798" d="M455.918,696.753s-8.228,6.782-14.282,5.714c0,0-12.516,17.328-2.53,21.88,0,0,8.551,4.832,18.576-14.377,0,0-5.337-7.011-1.764-13.217" transform="translate(1193.843 -739.365)" fill="#fff" fill-rule="evenodd"/>
            <path id="Path_1799" d="M447.584,692.1s-9.353,7.2-14.924,5.668c0,0-13.535,15.1-4.6,20.274,0,0,8.22,5.344,19.6-11.973,0,0-4.076-8.409-.079-13.969" transform="translate(1181.509 -744.967)" fill="#fff" fill-rule="evenodd"/>
            <path id="Path_1800" d="M438.554,687.364s-7.88,5.368-13.122,3.654c0,0-14.968,13.854-6.762,19.24,0,0,7.518,5.6,19.564-10.681a13.153,13.153,0,0,1,.32-12.214" transform="translate(1170.905 -750.682)" fill="#fff" fill-rule="evenodd"/>
            <path id="Path_1801" d="M430.568,682.406s-7.889,4.345-12.613,2.153c0,0-14.8,11.733-7.688,17.692,0,0,5.964,5.778,19.024-8.112,0,0-3.218-7.32,1.277-11.733" transform="translate(1161.411 -756.659)" fill="#fff" fill-rule="evenodd"/>
            <path id="Path_1802" d="M424.979,675.952s-8.67,4.151-13.775,1.78c0,0-16.34,12.789-8.654,19.229,0,0,6.347,6.407,20.466-8.612,0,0-2.9-7.62,1.963-12.4" transform="translate(1151.958 -764.438)" fill="#fff" fill-rule="evenodd"/>
            <path id="Path_1803" d="M470.535,695.4s-5.8,5.481-10.789,5.033c0,0-8.923,15.217-.441,18.2,0,0,7.02,2.871,13.477-13.189,0,0-4.607-4.834-2.247-10.048" transform="translate(1218.441 -740.999)" fill="#fff" fill-rule="evenodd"/>
            <path id="Path_1804" d="M476.1,697.911c-1.1,1.6-4.459,5.983-8.359,6.213,0,0-7.009,15.123,1.427,16.739,0,0,5.73,1.4,9.658-10.154q-.126-1.208-.238-2.461a30.8,30.8,0,0,0-.62-3.965,8.323,8.323,0,0,1-1.7-5.878Z" transform="translate(1229.725 -737.968)" fill="#fff" fill-rule="evenodd"/>
            <path id="Path_1805" d="M464.471,690.693s-7.688,7.715-12.851,6.707c0,0-10.579,13.9-2.093,17.961,0,0,7.73,4.325,16.62-11.973,0,0-5.031-4.629-1.676-12.694" transform="translate(1207.091 -746.669)" fill="#fff" fill-rule="evenodd"/>
            <path id="Path_1806" d="M455.553,687.034s-6.574,5.723-11.7,4.457c0,0-12.968,14.013-4.687,18.519,0,0,7.313,4.534,17.273-11.552,0,0-4.4-6.246-.887-11.424" transform="translate(1195.244 -751.08)" fill="#fff" fill-rule="evenodd"/>
            <path id="Path_1807" d="M447.66,683.182s-6.843,4.68-11.541,2.918c0,0-13.8,11.8-6.48,16.977,0,0,5.924,4.675,17.127-9.419,0,0-2.993-5.97.893-10.476" transform="translate(1184.512 -755.724)" fill="#fff" fill-rule="evenodd"/>
            <path id="Path_1808" d="M441.959,678.4s-7.675,4.228-12.443,1.9c0,0-15.716,11.014-8.542,17.2,0,0,5.758,5.525,18.978-8.169,0,0-2.541-6.586,2.007-10.932" transform="translate(1174.385 -761.488)" fill="#fff" fill-rule="evenodd"/>
            <path id="Path_1809" d="M464.021,681.57s-5.847,5.628-10.8,4.658c0,0-12.223,14.6-4.065,18.5,0,0,7.591,2.684,15.945-12.8,0,0-4.058-5.353-1.083-10.354" transform="translate(1207.238 -757.667)" fill="#fff" fill-rule="evenodd"/>
            <path id="Path_1810" d="M457.519,677.874s-6.641,4.728-11.415,3.03c0,0-13.828,12.9-6.3,17.979,0,0,6.674,3.59,17.264-10.56,0,0-3.24-5.919.454-10.449" transform="translate(1196.637 -762.122)" fill="#fff" fill-rule="evenodd"/>
            <path id="Path_1811" d="M450.866,673.754s-7.86,5.43-12.333,2.318c0,0-13.691,12.708-6.385,18.038,0,0,7.437,3.542,18.493-10.156,0,0-3.615-5.827.225-10.2" transform="translate(1187.528 -767.088)" fill="#fff" fill-rule="evenodd"/>
            <path id="Path_1812" d="M470.005,685.469s-4.5,5.547-9.369,5.084c0,0-9.629,14.258-1.389,17.238,0,0,6.813,2.856,13.389-12.875,0,0-4.294-3.88-2.631-9.446" transform="translate(1218.763 -752.966)" fill="#fff" fill-rule="evenodd"/>
            <path id="Path_1813" d="M470.331,675.315s-5.1,5.985-9.969,5.522c0,0-9.627,14.258-1.387,17.238,0,0,6.813,2.856,13.389-12.878,0,0-4.422-4.775-2.033-9.883" transform="translate(1218.435 -765.206)" fill="#fff" fill-rule="evenodd"/>
            <path id="Path_1814" d="M464.316,672.168s-5.869,5.65-10.84,4.673c0,0-11.384,13.711-3.2,17.628,0,0,6.729,3.641,15.12-11.9,0,0-4.071-5.375-1.085-10.4" transform="translate(1208.401 -769)" fill="#fff" fill-rule="evenodd"/>
            <path id="Path_1815" d="M469.319,679.937a5.988,5.988,0,0,1-.842.026s-9.589,16.281-1.2,18.823a7.278,7.278,0,0,0,4.437-1.451c-.858-4.8-1.674-10.507-2.391-17.4" transform="translate(1228.311 -759.635)" fill="#fff" fill-rule="evenodd"/>
            <path id="Path_1816" d="M472.211,689.514a8.653,8.653,0,0,1-4.872,1.992s-7.887,15.184.6,17.187c0,0,3.948,1.145,7.907-5.1a128.921,128.921,0,0,1-3.635-14.077" transform="translate(1228.518 -748.091)" fill="#fff" fill-rule="evenodd"/>
            <path id="Path_1817" d="M633.565,750.782c7.132,9.9,20.061,30.83,8.149,38.507,0,0-5.383,1.363-12.84-2.993,2.913-9.492,6.195-23.6,4.691-35.514" transform="translate(1427.256 -674.236)" fill="#fff" fill-rule="evenodd"/>
            <path id="Path_1818" d="M631.9,738.069s10.994,12.119,21.086,8.041c0,0,25.224,31.041,10.127,39.984,0,0-13.425,5.992-32.495-27.575,0,0,7.973-9.64,1.281-20.451" transform="translate(1429.36 -689.56)" fill="#fff" fill-rule="evenodd"/>
            <path id="Path_1819" d="M642.171,730.932s12.121,9.051,21.258,5.963c0,0,19.565,20.952,18.795,33.935-.309,5.251-5.077,9.06-13.16,6.594-6.33-1.932-15.511-8.118-26.578-24.807,0,0,6.023-12.084-.315-21.686" transform="translate(1443.285 -698.163)" fill="#fff" fill-rule="evenodd"/>
            <path id="Path_1820" d="M652.732,723.349s12.119,11.867,23.345,7.529c0,0,2.748,2.614,6.067,6.508,5.677,6.66,12.911,17.033,11.168,24.553-.8,3.478-4.819,6.107-10.7,4.9-6.274-1.286-16.08-6.894-28.536-23.7,0,0,6.3-10.229-1.343-19.794" transform="translate(1456.015 -707.305)" fill="#fff" fill-rule="evenodd"/>
            <path id="Path_1821" d="M663.28,715.054s9.569,6.394,17.5,2.181c0,0,6.925,7.686,9.845,11.329,5.571,6.952,12.441,15.506,11.259,22.451-.549,3.209-4.221,6.2-10.092,4.881-5.7-1.279-12.45-5.648-26.284-18.649,0,0,6.188-12.955-2.227-22.193" transform="translate(1468.731 -717.303)" fill="#fff" fill-rule="evenodd"/>
            <path id="Path_1822" d="M671.609,706.333s6.12,4.283,13.709-.37c0,0,12.341,9.691,15.579,13.133,5.549,5.891,10.635,12.531,9.009,18.34-.884,3.18-4.221,5.02-9.708,4.175-5.849-.9-16.772-6.268-26.262-15.8a16.707,16.707,0,0,0-2.327-19.478" transform="translate(1478.771 -728.262)" fill="#fff" fill-rule="evenodd"/>
            <path id="Path_1823" d="M677.969,697.554s7.2,2.424,13.118-2.139c0,0,28.329,20.142,23.761,30.4-2.94,6.6-15.376,6.217-33.845-10.769,0,0,3.1-8.079-3.035-17.489" transform="translate(1486.437 -740.977)" fill="#fff" fill-rule="evenodd"/>
            <path id="Path_1824" d="M682.824,688.055s7.426,2.6,13.568-2.11c0,0,15.445,9.527,20.155,18.462.8,1.52,3.112,6.815.785,9.631-2.274,2.759-7.057,2.161-11.27.92-4.371-1.284-10.862-5.251-19.143-12.055a17.827,17.827,0,0,0-4.1-14.847" transform="translate(1492.29 -752.393)" fill="#fff" fill-rule="evenodd"/>
            <path id="Path_1825" d="M688.247,678.727s7.67,1.808,12.681-2.753c0,0,12.551,6.927,18.962,14.271,1.679,1.925,4.766,7.227,2.512,10.778-1.667,2.627-6.48,2.865-9.916,2.322-4.722-.743-11.263-3.277-19.964-9.633,0,0,1.78-8.941-4.276-14.986" transform="translate(1498.827 -764.411)" fill="#fff" fill-rule="evenodd"/>
            <path id="Path_1826" d="M630.574,734.716c3.679,7.265,6.544,16.3,1.261,20.775-2.655-4.312-5.432-8.411-6.232-11.241a4.649,4.649,0,0,1,.752-4.111c.858-1.1,2.441-2.834,4.219-5.423" transform="translate(1423.091 -693.602)" fill="#fff" fill-rule="evenodd"/>
            <path id="Path_1827" d="M635.337,723.092a11.321,11.321,0,0,0,6.268.214s21.626,24.286,9.153,32.354c0,0-7.918,5.789-21.6-12.174a50.232,50.232,0,0,0,3.765-10.183c.776-3.043,1.643-6.6,2.413-10.211" transform="translate(1427.601 -707.614)" fill="#fff" fill-rule="evenodd"/>
            <path id="Path_1828" d="M637.231,712.776s11.148,9.532,18.9,6.936c0,0,22.423,23.6,10.306,32.122,0,0-9.832,7.8-27.941-19.659,0,0,5.026-10.586-1.268-19.4" transform="translate(1437.33 -720.05)" fill="#fff" fill-rule="evenodd"/>
            <path id="Path_1829" d="M648.326,706.516s8.729,5.811,15.3,2.86a178.787,178.787,0,0,1,12.774,16.2c5.15,7.673,6.616,16.045,2.128,18.744-2.571,1.544-6.206,2.743-14.728-2.966-4.929-3.3-9.938-8.354-15.7-17.785,0,0,6-8.332.225-17.055" transform="translate(1450.433 -727.596)" fill="#fff" fill-rule="evenodd"/>
            <path id="Path_1830" d="M656.96,699.524s7.816,3.932,13.548-.82a59.044,59.044,0,0,1,10.621,11.043c5.692,7.618,10.147,17.926,5.813,21.7-3.2,2.792-13.31,4.457-29.716-16.947,0,0,3.26-8.076-.267-14.975" transform="translate(1461.112 -737.013)" fill="#fff" fill-rule="evenodd"/>
            <path id="Path_1831" d="M661.536,689.159s10.125,3.637,16.168.7c0,0,9.832,7.92,15.3,15.985,6.46,9.532,3.679,19.167-5.491,16.671-4.245-1.156-11.087-5.048-20.965-16.706,0,0,1.4-9.58-5.013-16.647" transform="translate(1466.628 -748.519)" fill="#fff" fill-rule="evenodd"/>
            <path id="Path_1832" d="M667.773,681.819s9.98,2.849,15.778-.677c0,0,8.8,7.626,13.555,14.809.79,1.2,6.581,9.719,3.29,13.455-2.3,2.607-8.321,1.583-11.568.192-3.9-1.663-9.214-5.414-16.259-13.149a17.427,17.427,0,0,0-4.8-14.631" transform="translate(1474.147 -758.182)" fill="#fff" fill-rule="evenodd"/>
            <path id="Path_1833" d="M673.68,672.884s8.685,3.727,13.885.1c0,0,11.748,7.871,16.1,14.759,5.145,8.136.942,11.823-2.062,12.231-4.195.569-11.195-.064-23.477-11.389,0,0,2.214-9.982-4.451-15.705" transform="translate(1481.267 -768.137)" fill="#fff" fill-rule="evenodd"/>
            <path id="Path_1834" d="M631.054,707.435c.117-.022.236-.046.353-.075,0,0,17.851,21.479,7.016,27.808a5.9,5.9,0,0,1-4.144.481,58.958,58.958,0,0,0,.935-9.419c-.033-6.824-1.7-11.742-4.159-18.795" transform="translate(1429.884 -726.578)" fill="#fff" fill-rule="evenodd"/>
            <path id="Path_1835" d="M634.978,698.5s7.329,5.725,13.824,3.56c0,0,19.463,20.493,10.767,28.552,0,0-6.109,7.071-25.184-13,0,0,8.072-7.366.593-19.11" transform="translate(1433.899 -737.255)" fill="#fff" fill-rule="evenodd"/>
            <path id="Path_1836" d="M641.684,690.714s9.785,5.615,16.02,2.891c0,0,21.47,20.74,12.161,28.834,0,0-7.979,7.267-25.759-15.191,0,0,2.642-9.991-2.422-16.534" transform="translate(1442.697 -746.644)" fill="#fff" fill-rule="evenodd"/>
            <path id="Path_1837" d="M648.008,683.177s9.142,6.005,15.288,3.077c0,0,21.232,20.647,14.108,28.088,0,0-6.956,7.487-25.252-14.459,0,0,2.13-9.7-4.144-16.706" transform="translate(1450.321 -755.729)" fill="#fff" fill-rule="evenodd"/>
            <path id="Path_1838" d="M654.311,675.34s8.493,4.539,13.493.7c0,0,21.682,18.94,14.3,27.16,0,0-5.847,7.342-23.686-11.316,0,0,1.943-9.561-4.1-16.543" transform="translate(1457.919 -765.177)" fill="#fff" fill-rule="evenodd"/>
            <path id="Path_1839" d="M626.675,692.942a8.785,8.785,0,0,0,3.443-.274s19.536,19.849,10.763,26.007a12.4,12.4,0,0,1-6.773,0c-1.3-3.906-2.715-8.491-4.171-14.139-1.041-4.038-2.157-7.915-3.262-11.592" transform="translate(1424.605 -744.287)" fill="#fff" fill-rule="evenodd"/>
            <path id="Path_1840" d="M630.857,685.864s6.074,3.319,11.614,1.259c0,0,15.689,17.313,10.193,24.064-3.288,4.038-13.3-1.034-20.259-10.632,0,0,3.515-8.2-1.548-14.69" transform="translate(1429.647 -752.49)" fill="#fff" fill-rule="evenodd"/>
            <path id="Path_1841" d="M635.855,678.211s8.61,3.6,13.919.973c0,0,17.939,17.549,12.5,24.161-3.948,4.8-14.41-1.595-23.214-10.3,0,0,2.309-8.822-3.2-14.836" transform="translate(1435.671 -761.716)" fill="#fff" fill-rule="evenodd"/>
            <path id="Path_1842" d="M641.355,670.022s9.291,5.67,14.468,2.763c0,0,19.922,16,12.463,23.861,0,0-6.532,5.7-23.3-12.386,0,0,2.1-8.489-3.626-14.238" transform="translate(1442.301 -771.587)" fill="#fff" fill-rule="evenodd"/>
            <path id="Path_1843" d="M623.422,681.191a5.691,5.691,0,0,0,1.595-.386s19.487,16.911,12.357,22.919a16.324,16.324,0,0,1-8.034-.607c-2.772-9-5.242-16.563-5.917-21.926" transform="translate(1420.684 -758.589)" fill="#fff" fill-rule="evenodd"/>
            <path id="Path_1844" d="M626.162,674.779c2.508.882,5.683,1.5,7.9.194,0,0,7.43,4.671,11.025,10.579,2.157,3.544,2.647,8.621.13,10.352-2.812,1.934-8,.7-19.909-11.3a14.992,14.992,0,0,0-.121-6.255c.34-1.078.668-2.265.977-3.566" transform="translate(1422.809 -765.853)" fill="#fff" fill-rule="evenodd"/>
        </g>
    </g>
</svg>
