<svg id="wing-bottom-mobile" xmlns="http://www.w3.org/2000/svg" xmlns:xlink="http://www.w3.org/1999/xlink" width="375" height="812" viewBox="0 0 375 812">
    <defs>
        <clipPath id="clip-path">
            <rect id="Rectangle_1485" width="375" height="812" fill="#fff" stroke="#707070" stroke-width="1"/>
        </clipPath>
    </defs>
    <g id="wing-bottom-mobile-2" clip-path="url(#clip-path)">
        <g id="left" transform="translate(-2052.588 -813.897)">
            <path id="Path_4425" d="M516.417,1334.026a292.792,292.792,0,0,1,17.662-58.133c9.98-23.5,21.226-46.237,36.937-66.709,28.877-37.625,59.113-74.113,89.979-110.1.781-.911,1.36-2,2.669-3.959l3.932,11.711c.506-1.657.865-2.207.8-2.688-1.464-10.1,3.545-17.757,9.714-24.76,13.425-15.248,27.18-30.208,40.539-45.513,5.347-6.125,10.117-12.767,14.911-19.349,1.6-2.2,2.43-4.952,3.679-7.415a5.587,5.587,0,0,1,2.585-2.628c-.343,3.088-.653,6.179-1.037,9.262a23.309,23.309,0,0,0,2.963,15.528c3.467,5.709,5.192,12.07,6.674,18.508.291,1.273.721,2.514,1.091,3.768l1.059-.049a22.193,22.193,0,0,0,.362-4.8c-.732-5.306-1.08-10.775-2.688-15.83-4.7-14.769-.933-27.6,8.843-38.659,10.1-11.431,21.019-22.146,31.563-33.187a340.95,340.95,0,0,1,43.519-37.843,78.958,78.958,0,0,1,6.786-4.827c20.1-11.855,40.967-22.042,63.8-27.5a52.205,52.205,0,0,1,14.421-1.385c7.164.34,9.142,3.942,6.081,10.47a18.342,18.342,0,0,1-5.08,6.4c-32.088,25.321-61.858,53.238-90.577,82.216-25.542,25.767-50.373,52.261-74.913,78.986q-60.789,66.2-116.372,136.88c-.732.936-1.573,1.785-3.066,3.464-.683-12.054-4.375-22.548-6.783-33.359l-1.246.229c.5,3.344.933,6.694,1.507,10.021a58,58,0,0,0,1.807,8.655c2.549,7.575.193,14.764-1.48,21.988-.327,1.415-1.613,2.62-2.492,3.9-7.17,10.44-14.56,20.737-21.436,31.367-3.562,5.507-6.226,11.6-9.278,17.441s-6.13,11.667-9.1,17.553a4.853,4.853,0,0,1-4.4,3.077c-11.284.485-21.395,4.683-30.475,10.917a108.306,108.306,0,0,0-17.683,15.24c-5.175,5.537-9.227,12.119-13.768,18.247-.5.677-.969,1.385-2.008,2.87" transform="translate(1625.954 372.77)" fill="#fff"/>
            <path id="Path_4426" d="M518.46,1277.025c-2.5-3.693-4.811-6.735-6.685-10.019a11.984,11.984,0,0,1-1.7-5.815c.356-21.688.484-43.4,1.532-65.052.628-12.938,2.773-25.808,4.242-38.708,1.273-11.194,2.8-22.367,3.774-33.587a93.069,93.069,0,0,1,10.2-34.714A167.024,167.024,0,0,1,545.49,1064c5.113-6.685,11.058-13.221,17.915-17.988,13.9-9.665,29.016-13.17,45.663-5.79,13.629,6.038,22.513,15.855,26.962,29.775,5.271,16.513,6.03,33.125,1.382,50.1a333.548,333.548,0,0,0-9.575,51.072c-1.518,13.613-3.428,27.183-5,40.79-.283,2.492-1,4.008-3.393,5.186-2.7,1.331-5.009,3.434-7.491,5.2.234.425.463.846.691,1.268l8.786-3.287c-.7,14.266-1.382,28.33-2.114,43.306-1.181-1.417-1.943-2.193-2.541-3.085a74.47,74.47,0,0,0-18.143-18.491,25.546,25.546,0,0,0-12.946-4.9c-4.974-.484-9.929-1.121-15.471-1.758,0-1.38-.093-2.7.016-4q1.253-15.305,2.571-30.6c1.847-21.43,2.993-42.98,7.684-64.029,3.279-14.72,7.491-29.239,11.64-43.75,2.381-8.329,5.526-16.442,8.217-24.687q2.339-7.167,4.294-14.456a47.434,47.434,0,0,0,.805-6.272c-2.65.09-2.732,2.019-3.273,3.246-7.847,17.774-15.441,35.618-21.245,54.234a239.314,239.314,0,0,0-9.477,45.206c-1.627,14.816-4.016,29.547-5.67,44.365-1.233,11.028-1.826,22.129-2.713,33.2-.25,3.091-.549,6.182-.83,9.346a39.9,39.9,0,0,1-4.114,1.513c-7.695,1.9-13.909,6.326-19.245,11.882-7.676,7.989-15.792,15.689-20.41,26.434" transform="translate(1615.033 628.931)" fill="#fff"/>
            <path id="Path_4427" d="M610.8,1317.726c-7.912-23.98-25.139-37.606-49.537-43.965.844-4.77,1.812-9.8,2.607-14.851,2.079-13.188,3.85-26.428,6.158-39.576,3.866-22.034,8.141-43.995,12.084-66.016a337.294,337.294,0,0,0,4.514-74.679,171.983,171.983,0,0,0-8.772-46.9,134,134,0,0,0-39.258-59.156,569.572,569.572,0,0,0-75.218-55.752,42.42,42.42,0,0,1-5.964-4.163c-2.841-2.541-2.811-5.964.509-7.8,2.925-1.619,6.5-2.947,9.749-2.87a67.078,67.078,0,0,1,15.844,2.443c10.968,2.985,20.921,8.375,30.488,14.4,6.457,4.065,12.587,8.647,18.97,12.827a15.947,15.947,0,0,1,7.02,9.3c.648,2.28,1.7,4.443,2.743,7.11,2.482-2.639-.24-5.257.988-7.788,1.494,1.118,2.909,2.076,4.209,3.167q13.95,11.726,27.862,23.509c11,9.349,16.3,21.289,16.035,35.715a103.413,103.413,0,0,1-3.581,26.184,6.5,6.5,0,0,0-.207,3.107,79.686,79.686,0,0,0,7.5-15.289c2.171-5.578,3.741-11.335,3.379-17.218-.291-4.724-1.36-9.4-1.886-14.266a11.232,11.232,0,0,1-.253-3.322c.22-1.148,1.015,1.1,1.325,1.747a85.154,85.154,0,0,0,15.7,21.912c10.454,10.821,13.893,27.794,7.706,41.522-1.964,4.367-5.017,8.31-7.948,12.16-4.623,6.068-9.657,11.817-14.307,17.86-1.744,2.264-2.906,4.974-4.332,7.48l.792.647a5.2,5.2,0,0,0,1.23-1.02c5.466-8.838,12.65-15.885,21.06-22.037,9.809-7.17,15.746-16.919,16.035-29.531a10.729,10.729,0,0,1,1.556-5.118,23.986,23.986,0,0,1,1.012,3.153c1.475,8.155,3.929,16.152,3.262,24.638a24.667,24.667,0,0,1-3.328,10.769c-4.933,8.522-12.062,14.685-20.287,19.771-7.578,4.683-14.737,9.842-19.836,17.349-2.329,3.426-4.517,6.911-4.911,11.888,3.4-4.726,6.266-8.955,9.4-12.979,4.47-5.744,10.538-9.491,16.891-12.786,3.537-1.837,7.156-3.51,10.756-5.224a35.694,35.694,0,0,0,14.6-12.209c.356-.533.814-1,1.975-2.4.626,7.417,1.238,13.749,1.665,20.1.258,3.807.174,7.638.327,11.453.511,12.508-4.778,22.119-14.7,29.378-5.037,3.687-10,7.417-13.259,13.039,4.824-3.4,9.773-6.634,14.437-10.242,4.59-3.556,8.892-7.483,13.066-11.031,0,5.431.46,11.442-.087,17.362-1.744,18.821-3.431,37.669-5.953,56.394a404.364,404.364,0,0,1-13.169,59.882c-6,20.445-11.12,41.149-16.674,61.926" transform="translate(1520.865 397.863)" fill="#fff"/>
            <path id="Path_4428" d="M477.087,1265.465c-3.464-1.545-4.56-3.964-4.656-7.746-.512-20.464-1.562-40.915-2.033-61.376-.229-10.046.4-20.108.639-30.162,0-.174.035-.345.035-.519.008-5.581-.182-11.17.063-16.742.487-10.881-2.536-21.191-4.911-32.76,2.631,2.432,4.7,4.242,6.642,6.174a87.875,87.875,0,0,1,6.046,6.411,41,41,0,0,0,12.609,9.9,27.3,27.3,0,0,0,3.113,1.1c-5.322-6.31-9.719-12.076-14.7-17.278-4.144-4.324-5.047-8.753-3.986-14.587,2.133-11.738,6.751-22.57,10.968-33.574,10.546-15.237,22.168-29.212,41.767-32.809,8.892-1.633,17.613-.683,25.729,3.741a26.8,26.8,0,0,0,3.254,1.616,35.167,35.167,0,0,1,16.252,12.53,115.053,115.053,0,0,0,7.551,9.26,20.061,20.061,0,0,1,4.634,9.73,125.284,125.284,0,0,1,2.272,39.837c-1.516,13.425-3.515,26.8-5.211,40.2-.629,4.982-1.028,10-1.483,15a475.534,475.534,0,0,0-2.3,49.38c.117,9-.416,18-.664,27.522a13.185,13.185,0,0,1-2.822-1.162c-8.081-6.536-17.8-8.182-27.677-9.428-4.457-.563-8.919-1.121-13.333-1.918-3.575-.645-6.4-4.348-6.435-8.005a373.759,373.759,0,0,1,1.76-41.07c1.526-15.362,2.473-30.782,3.771-46.166.394-4.661,1.1-9.3,1.69-13.945,1.393-10.832,2.424-21.729,4.315-32.477,1.828-10.405,4.563-20.652,6.87-30.976.852-3.818,1.627-7.649,2.438-11.474-.384-.141-.77-.28-1.156-.422a21.659,21.659,0,0,0-1.858,2.645c-4.822,9.542-7.426,19.771-9.39,30.214-2.019,10.729-4.443,21.386-6.247,32.151-2.065,12.3-3.9,24.657-5.352,37.04-1.456,12.4-2.479,24.853-3.4,37.3-.8,10.889-1.252,21.805-1.722,32.719-.12,2.759.316,5.537.408,8.31.076,2.217.016,4.443.016,6.963-17.5,3.57-32.415,10.957-43.508,24.845" transform="translate(1539.577 636.645)" fill="#fff"/>
            <path id="Path_4429" d="M657.986,1240.519c-14.677-11.629-28.355-24.067-48.373-24.455a95.087,95.087,0,0,1,.043-9.515c1.627-15.687,3.178-31.389,5.2-47.029,1.622-12.536,3.423-25.082,5.964-37.457,2.822-13.738,6.723-27.253,9.855-40.931a94.691,94.691,0,0,0,2.2-18.622,6.992,6.992,0,0,0-1.4,1.66c-6.721,16.756-12.712,33.732-16.149,51.529-1.211,6.277-3.333,12.391-4.367,18.69-1.57,9.573-2.674,19.226-3.755,28.867-1.45,12.922-2.753,25.857-3.992,38.8-.457,4.8-.555,9.638-.846,15.039-25.234,3.741-39.168,20.475-48.61,43.04-1.257-2.93-1.662-5.161-1.045-7.782a42.111,42.111,0,0,0,.7-7.744c.65-14.892.871-29.813,1.995-44.667.9-11.912,2.759-23.759,4.427-35.6,2.18-15.45,4.343-30.907,6.979-46.283,2.253-13.131,4-26.464,9.107-38.9,3.888-9.464,9.145-17.961,19.9-21.221a79.318,79.318,0,0,0,8.146-3.41c12.076-5.2,23.493-3.257,34.991,2.375,13.839,6.781,19.9,19.052,24.6,32.526,4.832,13.844,4.707,28.328,5.017,42.667.46,21.351-1.246,42.627-3.923,63.809-1.7,13.4-3.6,26.766-5.456,40.142a40.085,40.085,0,0,1-1.206,4.47" transform="translate(1687.92 655.142)" fill="#fff"/>
            <path id="Path_4430" d="M808.137,932.675a53.468,53.468,0,0,1-25.272,22.453c4.449.278,8.321-1.374,12.677-2.617-1.935,2.511-3.755,5.118-5.817,7.518q-18.334,21.325-36.757,42.572c-12.919,14.965-26,29.794-38.662,44.977-8.242,9.891-17.629,18.132-29.353,23.517a34.041,34.041,0,0,1-7.866,2.588c-8.174,1.537-16.4,2.789-24.592,4.212-2.476.43-4.919,1.069-7.379,1.614.068.335.133.667.2,1,2.772-.166,5.542-.389,8.32-.487,6.919-.242,13.858-.169,20.75-.746,3.548-.3,7.053-1.559,10.486-2.669,2.6-.838,5.018-2.373,8.457-1.208-1.072,1.007-1.9,1.755-2.7,2.538-3.692,3.652-7.733,7.023-11,11.025-10.078,12.364-19.61,25.177-29.813,37.429-12.359,14.834-23.153,30.788-33.887,46.743-7.434,11.055-13.5,23.035-20.04,34.676-5.409,9.632-10.62,19.379-16.3,29.77-8.146-14.206-20.576-22.693-35.206-28.652,2.819-5.736,5.2-11.137,8.051-16.279,5.709-10.31,11.148-20.831,17.664-30.621,8.448-12.7,17.833-24.766,26.828-37.1,17.9-24.556,38.082-47.268,57.448-70.641,9.956-12.021,19.751-24.192,30.061-35.911,12.486-14.193,25.427-27.985,38.191-41.935,8.666-9.472,17.441-18.845,26.01-28.4a12.526,12.526,0,0,1,9.656-4.193c2.427-.052,4.868-.117,7.289.022,14.68.83,28.154-3.028,40.776-10.3.571-.327,1.175-.6,1.769-.893" transform="translate(1674.1 450.661)" fill="#fff"/>
            <path id="Path_4431" d="M503.606,973.784c2.166-.441,4-.819,5.828-1.189.057-.316.117-.626.174-.936-1.834-.321-3.66-.786-5.5-.931a6.919,6.919,0,0,1-5.113-2.993c-10.323-12.622-20.668-25.229-31.255-37.628-5.042-5.9-8.481-12.565-11.523-20.143-1.154-2.87,2.691-.34,3.377.057a143.771,143.771,0,0,1,12.824,7.869c11.341,8.264,22.529,16.728,33.723,25.193,10.511,7.951,20.807,16.162,30.026,25.629,13.923,14.3,25.751,30.047,32.575,49,4.288,11.912,7.551,24.135,8.217,36.9.618,11.765,1.488,23.526,1.878,35.3a132.929,132.929,0,0,1-.707,18.083c-1.537,14.829-3.077,29.672-5.221,44.422-1.671,11.477-4.31,22.81-6.411,34.227-2.721,14.821-5.213,29.683-8.032,44.485-2,10.519-4.386,20.968-6.693,31.873-20.1,1.834-35.193,12.021-47.611,27.356a16.666,16.666,0,0,1,.2-2.256c2.876-12.495,5.679-25.008,8.7-37.467,5.1-21.049,11.36-41.834,14.149-63.4a25.767,25.767,0,0,1,.522-3.069c.335-1.287.8-2.544,1.371-4.329,5.967,3.76,9.863,8.892,13.684,15.041.819-4.465-1.725-6.911-3.358-9.61-1.426-2.362-3.243-4.479-4.813-6.759-3.26-4.734-3.366-10.144-2.789-15.507,1.409-13.08,3.167-26.121,4.6-39.2,1.888-17.248,3.975-34.5,3.263-51.9a146.882,146.882,0,0,0-5.379-32.755,188.435,188.435,0,0,0-24.853-55.281c-2.1-3.145-3.812-6.549-5.85-10.089" transform="translate(1521.977 409.249)" fill="#fff"/>
            <path id="Path_4432" d="M606.438,1184.453c-16.59.612-19.556,1.684-42.931,17.526-.941-4.7-1.864-9.221-2.74-13.755a15.086,15.086,0,0,0-.253-2.576c-1.959-4.892-.849-9.3,1.543-13.774,8.019-14.976,15.18-30.455,23.942-44.974,17.221-28.54,37.165-55.249,57.981-81.245,14.726-18.391,30.306-36.1,45.568-54.062a137.062,137.062,0,0,1,9.9-10.663,64.4,64.4,0,0,1,8.965-6.966c7.839-5.172,16.084-3.7,20.407,6.881a15.97,15.97,0,0,1,.52,11.656c-3.886,11.257-9.662,21.564-16.293,31.294a294.49,294.49,0,0,1-21.983,28.994c-14.138,16.059-26.1,33.726-39.048,50.659a354.059,354.059,0,0,0-34.431,53.787c-3.616,7.067-6.218,14.653-9.246,22.016-.716,1.744-1.3,3.548-1.9,5.2" transform="translate(1700.113 516.743)" fill="#fff"/>
            <path id="Path_4433" d="M578.9,1165.176c1.633-8.079,5.866-15.444,9.567-23.055,15.523-31.963,37.32-59.64,59.355-87.165,4.99-6.234,9.9-12.546,15.09-18.609,13.148-15.335,24.956-31.585,34.561-49.391.795-1.472,1.837-2.813,3.238-4.936,3.687,9.172,7.385,17.5,10.312,26.088,1.184,3.5,1.037,7.578.882,11.365-.425,9.991.226,20.122-3.763,29.71-1.347,3.251-3.151,5.741-6.5,6.927-3.423,1.217-6.873,2.37-10.315,3.543a11.322,11.322,0,0,0-3.186,1.445c5.031,1.6,9.657-.765,15.545-1.657-2.373,3.994-4.136,7.412-6.378,10.478-.77,1.053-2.7,1.377-4.171,1.772-3.211.863-6.465,1.559-9.7,2.321.052.365.1.729.15,1.091h9.934c-1.067,1.788-1.643,2.881-2.34,3.891-11.523,16.707-23.5,33.114-34.439,50.191-8.114,12.679-15.7,25.773-20.864,40.1a175.753,175.753,0,0,0-8.65,32.635c-.2,1.285-.629,2.531-1.048,4.19-3.877-6.6-7.346-12.7-11.006-18.679-3.883-6.334-8.873-11.667-15.811-14.6-6.506-2.74-13.224-4.979-20.461-7.665" transform="translate(1733.491 535.582)" fill="#fff"/>
            <path id="Path_4434" d="M671.013,1219.234c-8.794-13.537-21.332-21.656-37.258-25.7.3-7.211.171-14.149.971-20.981,1.448-12.391,3.994-24.671,5.094-37.081,1.418-16.043,3.85-32.063,2.694-48.256a23.578,23.578,0,0,0-1.638-7.284c-4.732,36.711-9.466,73.419-14.312,111.031a18.057,18.057,0,0,1-4.685,1.8A44.566,44.566,0,0,0,596.47,1204.8a11.74,11.74,0,0,1-2.117,1.064c.185-2.827.242-5.145.5-7.439,1.665-15.333,3.281-30.673,5.1-45.989,1.978-16.72,3.622-33.451,3.086-50.324a9.481,9.481,0,0,1,.286-3.094c4.552-14.364,14.919-26.929,32.091-28.921,13.218-1.529,23.933,4.142,32.951,13.406a7.467,7.467,0,0,1,1.7,3.165c2.6,9.545,5.026,19.145,5.132,29.114.046,4.49-.307,8.982-.539,13.471-.99,19.041-2.1,38.077-2.963,57.124-.259,5.706.163,11.439.212,17.161.046,4.987.008,9.975.008,14.962Z" transform="translate(1760.078 686.729)" fill="#fff"/>
            <path id="Path_4435" d="M530.862,1185.976c-2.558-14.328-.917-28.466-1.565-42.482a52.72,52.72,0,0,0-.947-5.929c-3.431.955-3.33,3.219-3.434,5.208-.512,9.523-1.029,19.049-1.347,28.581-.144,4.327.136,8.672.283,13.009.019.579.016,1.118-.016,1.613H470.123c-.022-.247-.038-.506-.049-.773-.283-7.1-.269-14.247-1.039-21.3a26.632,26.632,0,0,1,6.065-20.845c10.53-12.6,22.668-22.886,39.592-25.721,13.074-2.2,26.164-2.933,39.07.718,11.583,3.276,20.181,10.584,25.8,21.182a47.923,47.923,0,0,1,5.33,20.519c.354,8.688.19,17.4.128,26.221Z" transform="translate(1544.068 765.294)" fill="#fff"/>
            <path id="Path_4436" d="M662.085,1160.421c-9.668-7.624-20.236-12.225-33.021-9.727,2.811-12.865,7.042-24.709,11.575-36.444,3.752-9.708,7.825-19.294,11.675-28.964.8-2.008,1.238-4.157,1.975-6.691-3.175.207-3.665,2.291-4.362,3.828-5.856,12.952-12.027,25.786-17.251,38.991-3.619,9.148-5.836,18.845-8.824,28.251a4.844,4.844,0,0,1-2.471,2.9,44.565,44.565,0,0,0-22.927,16.326c-.288-2.62-.922-5.251-.808-7.853.313-6.92.267-13.953,1.573-20.707,3.763-19.471,9.365-38.389,19.672-55.591,6.5-10.86,12.889-21.787,19.544-32.553,4.179-6.778,8.522-13.48,13.237-19.9a57.618,57.618,0,0,1,9.355-9.657c2.9-2.438,6.669-2.713,10.4-2.062,2.5.435,3.913,2.177,4.765,4.359,1.937,5,3.861,10.018,5.613,15.09,3.6,10.41,4.955,21.3,5.328,32.178.174,5.02-1.611,10.25-3.208,15.155-3.692,11.376-7.923,22.575-11.719,33.916a218.156,218.156,0,0,0-8.914,37.351c-.041.3-.362.566-1.211,1.8" transform="translate(1765.724 601.403)" fill="#fff"/>
            <path id="Path_4437" d="M524.888,1128.471a26.254,26.254,0,0,1,.247-2.822,507.786,507.786,0,0,0,8.579-75.373c.713-18.192,1.371-36.458-.852-54.626-1.222-9.98-3.853-28.113-5.148-38.082a3.653,3.653,0,0,1-.12-1.537c.392-1.083.716-2.6,1.532-3,.765-.375,2.359.155,3.181.8,11.529,17.771,29.549,32.5,72.508,32.54,13.254-.277,23.9-5.521,32.491-7.9,1.35-.112,3.529.269,3.959,1.11.5.985-.106,3.056-.936,4.089-4.345,5.406-16.6,19.281-21.055,24.6-12.247,14.641-24.538,29.242-36.668,43.976-9.706,11.79-19.24,23.727-28.782,35.653a358.459,358.459,0,0,0-25.65,37.3c-.762,1.251-1.7,2.392-2.555,3.583l-.732-.31" transform="translate(1640.532 485.475)" fill="#fff"/>
            <path id="Path_4438" d="M516.705,1193.221c0-1.385.008-2.737.049-4.089.326-10.944.261-21.863-2.531-32.546a7.746,7.746,0,0,1,.792-6.416c7.959-13.3,18.132-24.733,31.155-32.986a37.01,37.01,0,0,1,26.962-5.24,2.52,2.52,0,0,0,.5.12c8.9-.286,15.436,4.4,21.337,10.277,6.6,6.568,11.912,13.948,14.252,23.185a61.11,61.11,0,0,0,3.121,9.308c2.141,4.933,2.269,10.108,2.288,15.3.019,5.028-.014,10.068-.321,15.085-.163,2.688-.436,5.371-.729,8H562.377a12.14,12.14,0,0,1-.093-1.573c.231-17.164.672-34.319,1.1-51.478a45.131,45.131,0,0,1,.678-4.623c.231-1.815.166-3.747-1.964-4.22s-3.154,1.113-3.466,2.99a102.356,102.356,0,0,0-1.771,12.329c-.634,15.248-1.01,30.5-1.464,45.755-.008.272-.014.547-.019.819Z" transform="translate(1621.579 758.048)" fill="#fff"/>
            <path id="Path_4439" d="M609.886,1119c-4.335,22.945-3.29,46.395-5.573,69.955h-51.1c.971-6.941.147-13.917.193-20.88a22.1,22.1,0,0,1,1.412-8.019,114.545,114.545,0,0,1,17.474-30.026c7.616-9.246,17.539-13.866,29.1-15.417a122.173,122.173,0,0,1,12.342-.829c7.069-.226,12.448,4.1,18.034,7.4,8.873,5.235,17,11.417,21.1,21.517a72.71,72.71,0,0,1,4.919,26.426,5.846,5.846,0,0,1-1.638,3.545c-1.989,2.168-4.247,4.092-6.361,6.147-1.078,1.053-2.084,2.176-3.6,3.771,5.265.969,7.7-2.716,11.374-4.919a40.114,40.114,0,0,1-.234,11.289H611.062c.125-16.309.378-32.621.6-48.933.087-6.078.264-12.152.324-18.228a13.022,13.022,0,0,0-.574-2.8c-.509,0-1.021,0-1.529,0" transform="translate(1689.285 762.318)" fill="#fff"/>
            <path id="Path_4440" d="M628.108,1183.243c.022-13.417-.34-26.567-3.918-39.459-2.09,7.567-1.29,15.308-1.85,22.93-.4,5.445-.658,10.9-.931,16.53h-25.1a129.317,129.317,0,0,0-1.214-33.633,45.733,45.733,0,0,0-1.755-7.581c-.887-2.6-.245-4.571,1.184-6.775,10.642-16.418,29.362-21.365,45.919-16.219,12.661,3.935,21.969,11.749,28.8,22.519a34.413,34.413,0,0,1,5.151,15.063c.7,8.824.356,17.735.245,26.627Z" transform="translate(1757.641 768.027)" fill="#fff"/>
            <path id="Path_4441" d="M733.337,897.647c-2,3.627-3.929,7.3-6.01,10.878-11.322,19.488-22,39.359-35.283,57.662C682.411,979.461,669.7,989.1,655.27,996.1q-14.7,7.126-32.749,5.9c2.03-2.441,3.622-4.612,5.464-6.539q11.693-12.212,23.517-24.3c8.829-9.066,17.433-18.372,26.605-27.076,12.954-12.291,26.254-24.222,39.584-36.1,4.593-4.092,9.73-7.575,14.62-11.338.343.332.683.664,1.026,1" transform="translate(1808.553 388.662)" fill="#fff"/>
        </g>
    </g>
</svg>
