<svg xmlns="http://www.w3.org/2000/svg" width="247.027" height="166.315" viewBox="0 0 247.027 166.315">
    <g id="are-you-a-true-local-logo" transform="translate(-518.967 -258.614)">
        <path id="Path_643" d="M663.106,425.976a22.965,22.965,0,0,0,10.329-2.172c9.624-5.693,14.467-11.683,18.995-18.349.577-1.955,1.136-3.83,1.633-5.493-5.925,8.939-10.444,16.629-22.639,23.843a26.057,26.057,0,0,1-8.318,2.172m4.716-8.467c-.895-1.056-2.076-3.426,2.249-5.91h-2.01c-4.985,2.863-2.656,5.575-1.882,6.3A6.806,6.806,0,0,0,667.822,417.509Zm44.989-32.049-2.029.039c-4.989,10.812-10.181,27.678-11.937,39.066h2.01C702.615,413.164,707.817,396.27,712.811,385.46Z" transform="translate(-80.267 -70.637)" fill="#6bc4e8" fill-rule="evenodd"/>
        <path id="Path_644" d="M779.643,440.99c.046.012.093.025.141.035l-.141.022Zm2.031-9.326a8.3,8.3,0,0,0-4.048,6.234,3.38,3.38,0,0,0,.934,2.51,8.535,8.535,0,0,1-1.6.3,3.184,3.184,0,0,1-1.345-2.813,8.706,8.706,0,0,1,6.058-7.2Zm2.509-1.131c-.246.078-.507.169-.777.275v-.6c.481-.1.777-.126.777-.126Zm5.087-5.224v-2.886a12.953,12.953,0,0,0-2-.083v1.444h-.008v1.525l-.024.4h1.328c10.715,0,6.528,19.181-8.935,20.1.148.011.3.022.448.031,16.734.328,21.565-20.136,10.5-20.136h-1.328Z" transform="translate(-142.918 -91.172)" fill="#6bc4e8" fill-rule="evenodd"/>
        <path id="Path_645" d="M770.847,431.81v-1.726s-7.636.719-8.568,7.812c0,0-.373,5.08,6.379,2.492,0,0,4.981-2.4,5.075-6.134,0,0-.28-2.732-1.77-2.445Zm3.076-6.5v-2.886s-12.192-1.813-17.539,10.94c0,0-5.021,11.746,8.345,12.484,16.734.329,21.565-20.135,10.5-20.135H773.9Z" transform="translate(-131.696 -91.171)" fill="#002677" fill-rule="evenodd"/>
        <path id="Path_646" d="M920.154,445.2h2.011l9.818-22.682h-2.011Zm-7.946-.246q.407-.177.819-.4l-.078-1.332a10.359,10.359,0,0,1-1.924,1.328h1.183Zm-5.34.942c.194.044.391.085.6.117a12.121,12.121,0,0,0,3.089-.471l-.043-.731A12.943,12.943,0,0,1,906.868,445.9Zm7.717-17.73c-4.781,1.75-8.88,9.207-6.255,11.15.243-.034.5-.082.774-.147a4.46,4.46,0,0,0,.816-.285c-1.622-2.392,2.019-8.778,6.377-10.6a1.177,1.177,0,0,0,.322-.339A13.991,13.991,0,0,0,914.585,428.17Zm3.8-5.859a18.312,18.312,0,0,0-1.9.27c1.089,2.567,1.918,3.771,2.044,4.371.361-.846.674-1.62.93-2.277C919.151,424.043,918.785,423.266,918.387,422.311Z" transform="translate(-216.011 -91.158)" fill="#6bc4e8" fill-rule="evenodd"/>
        <path id="Path_647" d="M902.793,422.311c-15.747,1.386-22,21.98-10.922,23.705a12.284,12.284,0,0,0,7.495-2.789l.116,1.976h7.088l9.819-22.682h-7.2s-5.286,15.651-11.155,17.046c-8.653,2.044-1.842-11.263,4.648-11.853,3.63-.33,2.388.061.116-5.4" transform="translate(-204.541 -91.158)" fill="#002677" fill-rule="evenodd"/>
        <path id="Path_648" d="M693.024,385.46l-14,.273s-20.739,35.83-30.4,32.349c0,0-4.158-3.139,1.665-6.484H640.32c-8.988,0-7.941,21.16,13.327,12.206,14.64-8.659,18.217-18.006,26.446-29.376h.365c-1.518,5.049-8.417,27.787-8.4,30.138h9.008c1.758-11.4,6.961-28.3,11.955-39.106" transform="translate(-64.604 -70.637)" fill="#002677" fill-rule="evenodd"/>
        <path id="Path_649" d="M869.5,484.869l.328-.43-2.332.431Z" transform="translate(-194.088 -125.756)" fill="#82a6ad" fill-rule="evenodd"/>
        <path id="Path_650" d="M844.508,405.26l2.015-.018-1.266,4.964-2.609,2.345Zm.947,14.3-3.148,2.192a32.866,32.866,0,0,0-1.009,4.454h-2.01a32.658,32.658,0,0,1,1.009-4.454l4.556-3.171A8.787,8.787,0,0,1,845.455,419.562ZM860.97,430l-7.185,1.323-.058-.36L858.96,430c-2-5.972-3.245-11.067-6.956-16.674L873.859,390.9l-2.288-1.72-.007,0-.076-.057v0l-1.079-.836.915.012H872.4v0l3.465,2.6-21.854,22.425C857.725,418.933,858.968,424.028,860.97,430Z" transform="translate(-178.368 -72.208)" fill="#6bc4e8" fill-rule="evenodd"/>
        <path id="Path_651" d="M844.38,430.438l-7.186,1.323-.228-1.411c-3.627-13.671-5.482-12.172-5.482-12.172l-5.767,4.014a32.8,32.8,0,0,0-1.009,4.454h-7.822l6.055-20.9,6.992-.062-2.624,10.283,28.306-26.895,3.465,2.6-21.655,22.091c3.71,5.607,4.955,10.7,6.955,16.674" transform="translate(-165.903 -72.646)" fill="#002677" fill-rule="evenodd"/>
        <path id="Path_652" d="M962.492,406.787a20.713,20.713,0,0,0-3.428-1.437,3.311,3.311,0,0,0-2.15,1.767c-.639,1.128-13.28,22.329-13.28,22.329l6.856,2.468L962.028,412.5s1.162-1.207,1.22,1.056l.058,2.264v12.514h7.321V395.668c.294-6.07-9.433-2.661-13.422-2.042v3.6s7.031-3.814,6.915,1.827a44.949,44.949,0,0,1-.582,7.691Z" transform="translate(-236.485 -74.342)" fill="#002677" fill-rule="evenodd"/>
        <path id="Path_653" d="M972.643,397.218a13.176,13.176,0,0,1,1.6-.7,2.2,2.2,0,0,0-.553-.287,11.957,11.957,0,0,0-2.987.988Zm11.391,31.116h2.01V395.669c.152-3.129-2.36-3.74-5.376-3.511,2.036.2,3.482,1.115,3.366,3.511Zm-20.12,3.569,1.995.011,8.3-13.961V415.82l-.031-1.2Zm10.73-26.529a.865.865,0,0,0-.137-.024h-1.718c.482.208,1.156.518,1.753.8C974.571,405.945,974.606,405.689,974.643,405.374Z" transform="translate(-247.778 -74.342)" fill="#6bc4e8" fill-rule="evenodd"/>
        <path id="Path_654" d="M804.115,406.49h2.011l4.946-7.1h-2.011Z" transform="translate(-158.791 -78.395)" fill="#6bc4e8" fill-rule="evenodd"/>
        <path id="Path_655" d="M795.555,406.489l4.947-7.1h-5.729l-2.232,7.1Z" transform="translate(-152.345 -78.394)" fill="#002677" fill-rule="evenodd"/>
        <path id="Path_656" d="M570.824,388.4v9.646h-1.111V388.4Zm4.693-2.863h1.11v2.446h-1.11Z" transform="translate(-28.259 -70.678)" fill="#6bc4e8" fill-rule="evenodd"/>
        <path id="Path_657" d="M544.509,385.533h16.232v2.446h-5.8v10.063h-4.624V387.979h-5.8Z" transform="translate(-14.224 -70.678)" fill="#002677" fill-rule="evenodd"/>
        <path id="Path_658" d="M685.758,385.533h1.111l2.848,4.03-.537.811Zm6.018,7.4v5.1h-1.11v-5.1h.04l4.927-7.4h1.11l-4.925,7.4h-.041Z" transform="translate(-92.881 -70.678)" fill="#6bc4e8" fill-rule="evenodd"/>
        <path id="Path_659" d="M683.29,392.938v5.1h-4.48v-5.1h-.04l-4.926-7.4h4.539l4.041,5.718,3.8-5.718h2.036l-4.927,7.4h-.04Z" transform="translate(-86.246 -70.678)" fill="#002677" fill-rule="evenodd"/>
        <path id="Path_660" d="M600.365,393.117V388.5c-.4.009-.777.03-1.11.046v4.525c.334.016.712.036,1.11.046m.018,3.213V398.2h-1.11v-1.873Zm6.834-10.611a5.09,5.09,0,1,1-.007,10.18,6.371,6.371,0,0,0,1.346-.714,4.9,4.9,0,0,0,0-8.751A6.4,6.4,0,0,0,607.218,385.718Z" transform="translate(-44.71 -70.781)" fill="#6bc4e8" fill-rule="evenodd"/>
        <path id="Path_661" d="M598.8,390.789c0,3.389-4.77,2.654-6.65,2.654v-5.309c1.88,0,6.65-.735,6.65,2.655m-10.973-5.1H598.72v0a5.118,5.118,0,1,1-.134,10.206c-.089,0-.176,0-.265-.005v.005h-6.153v2.291h-4.341Z" transform="translate(-38.347 -70.762)" fill="#002677" fill-rule="evenodd"/>
        <path id="Path_662" d="M647.093,395.3a3.8,3.8,0,0,1,0-7.02,4.308,4.308,0,0,0-1.984.538,3.732,3.732,0,0,0,0,5.944,4.307,4.307,0,0,0,1.982.538m3.561-9.962c4.322.551,7.6,3.229,7.6,6.451s-3.28,5.9-7.6,6.453a11.624,11.624,0,0,0,3.182-1.426l0,0a5.469,5.469,0,0,0,0-10.046l0,0A11.616,11.616,0,0,0,650.653,385.338Z" transform="translate(-69.424 -70.569)" fill="#6bc4e8" fill-rule="evenodd"/>
        <path id="Path_663" d="M639.96,387.733a3.941,3.941,0,1,1-4.262,3.927,4.1,4.1,0,0,1,4.262-3.927m0-2.628c5.108,0,9.249,2.935,9.249,6.555s-4.141,6.556-9.249,6.556-9.247-2.935-9.247-6.556S634.853,385.105,639.96,385.105Z" transform="translate(-62.228 -70.439)" fill="#002677" fill-rule="evenodd"/>
        <path id="Path_664" d="M752.238,348.124a.907.907,0,0,0,.123.57,1.237,1.237,0,0,0,.542.561,3.146,3.146,0,0,0,1.694.021c.124-.016.274.12.176.245a3.944,3.944,0,0,0-.334.384c-.135.269-.176.571.115.75a1.359,1.359,0,0,0,.512.138,10.165,10.165,0,0,0,1.038.036.163.163,0,0,1,.031.319,3.264,3.264,0,0,1-1.125.035,12.733,12.733,0,0,1-1.155,1.469c-.338.408-.509.674-.81,1.108.375.01.684.016.847.017,1.408.01,5.416.07,5.923.057a11.15,11.15,0,0,0,5.46-1.82,10.241,10.241,0,0,0,3.708-8.022,37.541,37.541,0,0,0-.236-4.811.476.476,0,0,1,.361-.406c.574-.018.8.591,1.11.9.248.252.243.418.415.476.085.029.283.037.18-.757a8.82,8.82,0,0,0-1.438-3.733,3.618,3.618,0,0,0-2.8-1.174,2.842,2.842,0,0,0-2.557,2.67c-.267,1.531-.561,3.122-1.63,4.111a51.991,51.991,0,0,1-4.454,3.521,2.977,2.977,0,0,0,.172.776,2.868,2.868,0,0,0,1.312,1.3.156.156,0,0,1-.049.278.805.805,0,0,0-.313,1.338,2.533,2.533,0,0,0,.595.439.165.165,0,0,1-.048.3c-.569.111-.71.472-.479,1.06a2.1,2.1,0,0,0,.543.743c.153.143-.081.354-.234.218a2.2,2.2,0,0,1-.792-1.569.815.815,0,0,1,.564-.657,1.38,1.38,0,0,1-.683-1.038,1.113,1.113,0,0,1,.514-.992,2.794,2.794,0,0,1-1.1-1.122,2.522,2.522,0,0,1-.209-.928c-.386.267-.757.517-1.112.736,0,.094-.015.187-.021.283-.05.8.367,1.183.967,1.64.1.077.1.28-.05.3-1.157.17-.222,1.284.281,1.467a.175.175,0,0,1-.06.34.235.235,0,0,0-.251.152c-.048.121.085.386.085.386.055.1.113.206.172.309a7.354,7.354,0,0,0,.437.648c.129.176-.121.411-.25.234-.355-.479-1.177-1.531-.616-1.935-.708-.485-1.006-1.439-.178-1.825a1.963,1.963,0,0,1-.773-1.042,2.3,2.3,0,0,1-.015-.793l-.217.128c-1.6.93-2.93,1.616-3.889,2.158" transform="translate(-129.896 -42.25)" fill="#002677" fill-rule="evenodd"/>
        <path id="Path_665" d="M749.475,373.464c-.107.118-.213.246-.317.369.517,0,1.005,0,1.43,0a14.444,14.444,0,0,1,.973-1.318c.424-.5,1.027-.919,1.407-1.457a1.263,1.263,0,0,1-.506-.262.692.692,0,0,1-.265-.5,22.757,22.757,0,0,1-1.567,1.882c-.38.433-.771.857-1.154,1.287" transform="translate(-128.187 -62.192)" fill="#002677" fill-rule="evenodd"/>
        <path id="Path_666" d="M749.066,368.865c-1.318,1.32-2.475,2.822-3.773,4.169.369,0,.743-.01,1.111-.012.176-.2.375-.388.555-.58.365-.39.726-.784,1.091-1.177a30.154,30.154,0,0,0,2.084-2.193l0,0c.037-.078.076-.159.119-.238a2.227,2.227,0,0,1-1.189.031" transform="translate(-126.035 -61.378)" fill="#002677" fill-rule="evenodd"/>
        <path id="Path_667" d="M742.063,370.215c-.66.625-1.276,1.321-1.946,1.954.439-.011.984-.02,1.576-.031a38.467,38.467,0,0,1,4.342-4.23,1.438,1.438,0,0,1-.3-.163,1.516,1.516,0,0,1-.467-.538c0,.005,0,.009-.008.011-1.046,1.02-2.133,1.994-3.193,3" transform="translate(-123.152 -60.471)" fill="#002677" fill-rule="evenodd"/>
        <path id="Path_668" d="M735.082,371.036c.075.181.843.314,1.186.293l.294-.008c1.873-1.758,3.731-3.512,5.762-5.1a.1.1,0,0,1,.06-.018,4.524,4.524,0,0,1-.2-.555l-.382.233c-.951.6-6,4.2-6.295,4.4s-.5.569-.425.751" transform="translate(-120.339 -59.605)" fill="#002677" fill-rule="evenodd"/>
        <path id="Path_669" d="M554.143,477.391l.04.1c0,.006.031.051.038.058,1.515,1.414.562-1.255,1.186-2.1,8.161,1.384,7.716-5.968,5.326-6.783-2.638,1.558-1.929,5.5-4.675,5.87,1.345-3.755,2.773-5.682,2.775-9.952,0-1.26-.405-1.93-.331-3.314,1.348,1.616,4.109,6.255,6.435,4.979,2.256-1.238,3.828-4.682.515-4.831-3.393,1.144-4.909-.44-8.331-3.948-1.445-1.482-4.583-5.56-5.975-6.5,4.807,2.808,8.969-4.523.634-3.953-2.89.2-3.068.32-6.368-.986-2.185-.864-4.782-1.724-6.563-1.318a.241.241,0,0,1,.057-.124.513.513,0,0,0,.059-.121c.245-.525.24-.673-.18-1.142-2.5,1.839-6.76,2.783-9.766,4.347-2.792,1.454-12.779,7.227-9.34,9.8,1.367.924,3.1.409,3.866-1.393.653-1.534.154-3.349,1.464-4.335,3.153-2.371,5.645,2.545,8.818,1.836,1.711-1.608.669-3.69-1.45-4-1.629-.238-3.456.468-4.908.3,1.932-1.427,4.3-2.348,6.689-1.66,2.825.815,4.29,5.551,6.234,4.846,1-.158,1.277-1.523,1.292-2.261.063-2.926-4.315-4.453-6.414-4.487,1.435-.4,2.814-.92,4.45-.388,7.026,2.287,1.158,10.683,6.282,12.245a6.686,6.686,0,0,0,2.121-6.292c-.562-2.233-2.505-4.056-4.609-5.631,3.46.31,6.827,4.687,6.479,7.963-.329,3.113-3.909,9.119-2.01,10.269,1.324.8,2.556-1.321,2.921-2.312,1.109-3.012.743-6.818-.116-9.833l-.191-.984a21.736,21.736,0,0,1,7.2,10.954,9.816,9.816,0,0,1-.016,5.816,42.483,42.483,0,0,1-2.544,6.2c-3.219-2.814,1.769-4.652.327-7.144-2.085-3.607-5.056,1.613-2.537,5.8.472.783,1.358,1.429,1.75,2.229-.97,1.456-2.011.476-1.962,1.382.355.76-.054-.012.315.266.015.01.068.045.08.055l.208.166c-.841.974-3.086,3.775-4.146,4.064-2.2.6-2.418-2.318-4.038-2.867-3.113-1.054-3.439,4.27.293,4.044l2.239-.241c-1.146,1.141-3.738,1.937-4.2,2.831,1.252.7,3.369-1.344,4.7-1.975-.482,1.818-1.954,2.267-2.054,5.116-.09,2.6,3.039,1.269,3.186-.792.125-1.723-1.175-2.891.115-4.977.7-1.128,3.422-3.366,4.636-4.891" transform="translate(0 -102.859)" fill="#002677" fill-rule="evenodd"/>
        <g id="Group_11861" transform="translate(710.402 383.141)">
            <path id="Path_670" d="M972.644,545.088s-1.437.7-4.371-.645l-8-3.789a4.294,4.294,0,0,1,1.661-1.021c.641-.062,9.16,3.939,9.16,3.939s1.359.71,1.552,1.516" transform="translate(-956.152 -539.632)" fill="#002677" fill-rule="evenodd"/>
            <path id="Path_671" d="M966.311,564.79a4.1,4.1,0,0,0-1.517-3.089c-1.535-1.152-7.666-6.023-11.6-6.924s12.061,9.722,12.061,9.722a1.457,1.457,0,0,0,1.057.292" transform="translate(-951.863 -548.036)" fill="#002677" fill-rule="evenodd"/>
            <path id="Path_672" d="M959.292,578.215s.609-1.744-4.846-7.959c0,0-3.721-5.154-3.456-2.7s5.909,10.678,8.3,10.66" transform="translate(-950.976 -554.813)" fill="#002677" fill-rule="evenodd"/>
        </g>
        <g id="Group_11862" transform="translate(634.336 258.614)">
            <path id="Path_673" d="M779.319,298.457s1.453-.663,4.354.751l7.907,3.983a4.29,4.29,0,0,1-1.685.98c-.643.047-9.061-4.16-9.061-4.16s-1.341-.743-1.515-1.554" transform="translate(-779.319 -280.715)" fill="#002677" fill-rule="evenodd"/>
            <path id="Path_674" d="M784.549,273.242a4.1,4.1,0,0,0,1.441,3.125c1.506,1.189,7.517,6.208,11.428,7.2S785.6,273.559,785.6,273.559a1.457,1.457,0,0,0-1.049-.317" transform="translate(-782.231 -266.746)" fill="#002677" fill-rule="evenodd"/>
            <path id="Path_675" d="M798.715,258.614s-.651,1.729,4.652,8.074c0,0,3.594,5.243,3.389,2.785s-5.648-10.819-8.041-10.859" transform="translate(-790.106 -258.614)" fill="#002677" fill-rule="evenodd"/>
        </g>
        <g id="Group_11863" transform="translate(738.673 347.639)">
            <path id="Path_676" d="M1022.849,475.039c-1.044,2.618-4.021,6.091-7.169,4.835-.623-.249-1.115-.554-.817-1.3.41-1.028,2.329-1.671,2.933-2.732-1.172-1.045-1.889-1.693-.882-4.218.933-2.337,2.079-2.675,4.323-1.779C1024.011,470.95,1023.907,472.39,1022.849,475.039Zm4.173-10.728c-.883,2.214-2,2.489-4.124,1.642-2.4-.957-2.9-1.879-1.917-4.341.858-2.151,2.061-2.539,4.274-1.655C1027.5,460.852,1027.918,462.067,1027.022,464.311Z" transform="translate(-1014.774 -459.515)" fill="#002677"/>
        </g>
        <g id="Group_11864" transform="translate(698.049 366.502)">
            <path id="Path_677" d="M930.832,526.061c-.075,2.76-1,4.034-3.967,3.954-2.435-.067-3.838-.754-3.764-3.474.076-2.8.882-4.038,3.845-3.957C929.259,522.648,930.9,523.464,930.832,526.061Zm.689-19.315a39.145,39.145,0,0,1-1.129,7.159c-.369,1.615-.882,5.54-3.2,5.478-3.775-.1-3.822-10.3-3.749-12.978a6.707,6.707,0,0,1,.7-3.393,5.036,5.036,0,0,1,3.315-.925,7.809,7.809,0,0,1,3.147.777A6.8,6.8,0,0,1,931.52,506.746Z" transform="translate(-923.098 -502.082)" fill="#002677"/>
        </g>
        <g id="Group_11867" transform="translate(564.027 359.441)">
            <path id="Path_678" d="M631.732,531.7q.6-.923,1.375-.774t1.5.324a.7.7,0,0,1,.307.269,1.188,1.188,0,0,1,.2.422,2.032,2.032,0,0,1,.126,1.2,62.867,62.867,0,0,0-.8,7.227,6.653,6.653,0,0,0,.193,1.647,2.872,2.872,0,0,0,.619,1.345,5.187,5.187,0,0,0,1.621-2.306q.389-.98.727-1.964t.728-2.015a4.052,4.052,0,0,1,.3-.644c.127-.223.245-.419.353-.591q.808-1.022,1.717.147-.391,1.034-.73,2.119t-.784,2.17q-.223.568-.584,1.471a11.181,11.181,0,0,1-.85,1.7,4.683,4.683,0,0,1-1.153,1.3,1.517,1.517,0,0,1-1.492.224q-.415-.114-.855-.23a6.98,6.98,0,0,1-.853-.282,4.685,4.685,0,0,1-2.689-3.039,1.253,1.253,0,0,1-.12-.394.825.825,0,0,0-.122-.342.837.837,0,0,0-.2-.161,1.292,1.292,0,0,0-.139.362,1.359,1.359,0,0,1-.139.361q-.439.824-.823,1.622a15.452,15.452,0,0,1-.872,1.568,3.335,3.335,0,0,1-2.024,1.723,5.866,5.866,0,0,1-2.6-.273,3.4,3.4,0,0,1-1.818-1.323,6.337,6.337,0,0,1-.912-2.134,10.381,10.381,0,0,1,.854-7.122,11.745,11.745,0,0,1,1.466-2.362,8.045,8.045,0,0,1,2.079-1.826,4.248,4.248,0,0,1,1.474-.563,6.175,6.175,0,0,1,1.7-.089,6.771,6.771,0,0,1,1.711.382A5.224,5.224,0,0,1,631.732,531.7Zm-6.252,12.463a.3.3,0,0,1,.206.109,3.466,3.466,0,0,0,.319-.227,1.34,1.34,0,0,0,.267-.28q.487-.718.974-1.41a13.326,13.326,0,0,0,.869-1.412q.6-1.288,1.133-2.579t1.134-2.631a.2.2,0,0,0-.131.022.108.108,0,0,1-.079.024l-.434-1.418c-.064-.245-.136-.481-.217-.709a5.277,5.277,0,0,0-.321-.712.616.616,0,0,0-.383-.322.441.441,0,0,0-.448.2q-.593.716-1.13,1.432a3.6,3.6,0,0,0-.669,1.756,9.783,9.783,0,0,1-.211,1.168q-.146.6-.264,1.166a13.249,13.249,0,0,0-.475,2.335q-.135,1.2-.216,2.393c0,.174,0,.356.012.547A4.94,4.94,0,0,0,625.48,544.159Z" transform="translate(-620.653 -510.816)" fill="#002677"/>
            <path id="Path_679" d="M699.607,541a1.536,1.536,0,0,0,1.437-.41,15.86,15.86,0,0,0,1.872-2.334,12.292,12.292,0,0,0,1.308-2.95.774.774,0,0,1,.538-.513,1.581,1.581,0,0,1,.8,0,.209.209,0,0,0,.051.154c.034.035.034.086,0,.153q-.205.616-.538,1.488a17.24,17.24,0,0,1-.769,1.718q-.437.846-.872,1.642a5.538,5.538,0,0,1-.9,1.257,3.345,3.345,0,0,1-2.616,1.129H699.3a.737.737,0,0,0-.385.179,2.057,2.057,0,0,0-.282.385q-.1.154-.333.462a8.185,8.185,0,0,1-.539.641l-.615.667a2.708,2.708,0,0,1-.565.487,2.821,2.821,0,0,1-1.437.564,4.511,4.511,0,0,1-1.487-.154l-.616-.2-.616-.205a4.343,4.343,0,0,1-2.205-1.641,7.845,7.845,0,0,1-1.129-2.719,7.617,7.617,0,0,1-.128-1.642c.018-.546.059-1.11.128-1.693A10.259,10.259,0,0,1,690.142,534a10.134,10.134,0,0,1,2.129-2.744,1.859,1.859,0,0,1,2.257-.462,3.033,3.033,0,0,1,.666.333,2.269,2.269,0,0,1,.513.539,1.143,1.143,0,0,1,.026,1.359q-.437.642-.846,1.257-.565.873-1.026,1.769a5.316,5.316,0,0,0-.565,1.924,16.637,16.637,0,0,0-.1,1.847q0,.923.051,1.8a2.266,2.266,0,0,0,.257,1.025,1.451,1.451,0,0,0,2.052,1.026,3.478,3.478,0,0,0,1.026-.718,13.713,13.713,0,0,0,.923-1.026q-.257-.256-.385-.411a1.039,1.039,0,0,0-.333-.256,4.257,4.257,0,0,1-1.949-3.95,5.53,5.53,0,0,1,.513-2.154,3.4,3.4,0,0,1,1.487-1.539,3.064,3.064,0,0,1,1.257-.359,4.539,4.539,0,0,1,1.359.1,1.919,1.919,0,0,1,.974.974,2.541,2.541,0,0,1,.359,1.385,15.107,15.107,0,0,1-.923,4.309Zm-.821-6.053q-.154-.1-.436.205a3.2,3.2,0,0,0-.513.795,7.408,7.408,0,0,0-.41,1.1,2.96,2.96,0,0,0-.129,1.129,2.18,2.18,0,0,0,.975,1.949,9.7,9.7,0,0,1,.41-1.257,9.782,9.782,0,0,0,.41-1.257,4.537,4.537,0,0,0,.129-1.282A3.049,3.049,0,0,0,698.786,534.945Z" transform="translate(-658.69 -510.896)" fill="#002677"/>
            <path id="Path_680" d="M663.16,529.388a.763.763,0,0,1,.5-.469,1.513,1.513,0,0,1,.726-.146c.1,0,.363,0,.784-.016s.93-.021,1.529-.032l1.893-.032c1.472-.024,3.382-.554,4.246.8a4.045,4.045,0,0,1,.408,2.42q-.255,5.71-1.011,11.4a1.087,1.087,0,0,1-.159.51c-.336.466-1.157.36-1.772.195a1.059,1.059,0,0,1-.484-.222c-.2-.208-.126-.514-.047-.775a24.669,24.669,0,0,0,.758-6.826l.1-5.78a.261.261,0,0,0-.071-.224.385.385,0,0,0-.225-.053c-1.876-.05-4.6-.047-4.813,1.729a56.547,56.547,0,0,0-.068,6.031c-.018,1.562-.522,3.743.31,5.2a.319.319,0,0,1,.038.16q.152.744-.058.986a1.591,1.591,0,0,1-1.013.307,2.641,2.641,0,0,1-1.414-.372,1.288,1.288,0,0,1-.765-1.051.992.992,0,0,0-.038-.323,4.395,4.395,0,0,1-.153-1.455q0-1.1.057-2.554t.172-3.071q.115-1.616.229-2.991t.21-2.312A8.81,8.81,0,0,1,663.16,529.388Z" transform="translate(-643.877 -509.773)" fill="#002677"/>
            <path id="Path_681" d="M702.175,513.494q-.368.89-.663,1.673t-.611,1.547c-.039.142-.078.262-.113.361a1.965,1.965,0,0,1-.154.316q-.309.675-.622.783a1.57,1.57,0,0,1-.99-.159,2.663,2.663,0,0,1-1.164-1.084,1.876,1.876,0,0,1-.25-1.672q.225-.725.488-1.359a5.582,5.582,0,0,1,.7-1.214c.162-.249.3-.384.42-.4a.919.919,0,0,1,.551.213,2.7,2.7,0,0,0,.588.3q.3.108.638.219.3.11.593.239C701.78,513.343,701.978,513.423,702.175,513.494Z" transform="translate(-663.454 -500.699)" fill="#002677"/>
            <path id="Path_682" d="M827.477,513.494q-.368.89-.664,1.673t-.611,1.547c-.039.142-.078.262-.113.361a1.935,1.935,0,0,1-.154.316q-.31.675-.622.783a1.571,1.571,0,0,1-.99-.159,2.662,2.662,0,0,1-1.163-1.084,1.876,1.876,0,0,1-.25-1.672q.225-.725.489-1.359a5.6,5.6,0,0,1,.7-1.214c.162-.249.3-.384.421-.4a.918.918,0,0,1,.55.213,2.7,2.7,0,0,0,.588.3c.2.072.41.145.638.219.2.073.4.152.593.239S827.279,513.423,827.477,513.494Z" transform="translate(-733.23 -500.699)" fill="#002677"/>
            <path id="Path_683" d="M775.589,542.012a1.193,1.193,0,0,0,1.267-.707,12.915,12.915,0,0,0,.612-1.673,1.607,1.607,0,0,1,1.267-1.116c1.047-.046.062,1.563-.106,1.989s-.368.875-.586,1.312q-.235.516-.515,1.031a6.71,6.71,0,0,1-.656.985,2.118,2.118,0,0,1-1.031.749,2.98,2.98,0,0,1-2.226.07,3.412,3.412,0,0,1-1.663-1.476,7.434,7.434,0,0,1-.914-2.179,19.776,19.776,0,0,1,.066-7.324,30.3,30.3,0,0,1,.673-3.225c.331-1.247.309-1.22,1.488-.955a2.548,2.548,0,0,1,.8.328c1.4.869.849,2.545.79,3.972l-.214,5.15a5.56,5.56,0,0,0,.259,2.387A1.09,1.09,0,0,0,775.589,542.012Z" transform="translate(-704.219 -510.203)" fill="#002677"/>
            <path id="Path_684" d="M752.032,527.3c-.124.061-.311.173-.311.173s-1.427,2.779-1.047,3.927c.4,1.213,2.214,2.692,3.517,1.942-1.785-.591-4.014,1.387-4.737,2.851-.891,1.805.171,5.822.171,5.822l2.249.938c2.777-.314,5.389-.8,7.279-2.976a1.449,1.449,0,0,0,.267-1.783c-1.607.572-3.723,1.773-5.476,1.578-.994-.11-1.967-1.155-1.524-2.051a2.239,2.239,0,0,1,.612-.678l2.18-1.831a2.2,2.2,0,0,0,.951-1.355c.12-1.357-2.1-1.866-2.273-3.216a2.04,2.04,0,0,1,1.1-1.8c.661-.434,3.09-1.661,1.488-2.436C755.674,526.013,753.126,526.761,752.032,527.3Z" transform="translate(-692.18 -508.504)" fill="#002677"/>
            <path id="Path_685" d="M815.715,529.582c-.125.059-.313.168-.313.168s-1.447,2.669-1.071,3.767c.4,1.16,2.207,2.567,3.518,1.842-1.787-.557-4.035,1.35-4.767,2.756-.9,1.734.14,5.576.14,5.576l2.252.886c2.788-.315,5.411-.8,7.319-2.889a1.347,1.347,0,0,0,.277-1.709c-1.615.556-3.745,1.717-5.5,1.54-1-.1-1.967-1.1-1.518-1.957a2.209,2.209,0,0,1,.618-.653l2.2-1.766a2.147,2.147,0,0,0,.962-1.3c.127-1.3-2.093-1.776-2.264-3.069a1.971,1.971,0,0,1,1.113-1.731c.665-.42,3.108-1.608,1.506-2.342C819.375,528.33,816.814,529.061,815.715,529.582Z" transform="translate(-727.605 -509.788)" fill="#002677"/>
            <g id="Group_11865" transform="translate(71.031 16.68)">
                <path id="Path_686" d="M794.938,540.869a4.11,4.11,0,0,1,.351,1.375q.057.731.117,1.434a.414.414,0,0,1-.029.175.4.4,0,0,0-.029.176v.673a4.2,4.2,0,0,1-.059.673.664.664,0,0,1-.029.205.633.633,0,0,0-.029.2,20.089,20.089,0,0,1-1.112,4.654,22.287,22.287,0,0,1-2.283,4.42,2.3,2.3,0,0,1-.234.2,2.116,2.116,0,0,0-.234.2,8.825,8.825,0,0,1-.7.585,5.571,5.571,0,0,1-1.492.761,9.44,9.44,0,0,1-2.429.468,12.361,12.361,0,0,1-3.571-.351l-.175-.088c-.04-.02-.079-.088-.117-.2,0-.039-.1-.117-.293-.234a1.89,1.89,0,0,1-.644-.585c-.156-.234-.312-.489-.468-.761a2.817,2.817,0,0,1-.322-.878c-.059-.313-.126-.625-.205-.937q0-.118.088-.761t.176-1.375q.088-.733.2-1.434t.176-1a6.441,6.441,0,0,1,.527-1.434,11.335,11.335,0,0,1,1.318-2.136,10.458,10.458,0,0,1,2.107-2.049,6.254,6.254,0,0,1,2.9-1.171q1.054-.117,1.171.2a.96.96,0,0,1-.205.82,4.822,4.822,0,0,1-.849.966,6.279,6.279,0,0,1-.819.644c-.2.156-.381.312-.556.468s-.362.312-.556.468a7.278,7.278,0,0,0-.849.878,8.682,8.682,0,0,0-1.258,1.961,8.234,8.234,0,0,0-.761,2.634,4.455,4.455,0,0,0,.644,2.84c.078.077.117.107.117.088s.059-.011.175.029q.995.292,1.405-.059t.7-.644a6.038,6.038,0,0,0,.556-.644c.175-.234.341-.449.5-.644.078-.117.156-.225.234-.322a2.205,2.205,0,0,0,.234-.38,6.609,6.609,0,0,1,.7-1.2,10.6,10.6,0,0,0,.761-1.2q.468-.82.907-1.7a11.357,11.357,0,0,0,.732-1.873q.233-.7.439-1.434t.381-1.493a2.917,2.917,0,0,0-.205-1.727q-.381-.966-.731-1.668a4.855,4.855,0,0,0-.41-.7.989.989,0,0,0-.644-.41q-.411-.058-.819-.146t-.82-.146a1.957,1.957,0,0,0-.468-.059,1.036,1.036,0,0,0-.468.117,1.705,1.705,0,0,1-1.171.059,1.968,1.968,0,0,1-.7-.351,5.361,5.361,0,0,0-.585-.409,1.958,1.958,0,0,1-.761-1.288,1.9,1.9,0,0,1,0-1.142,3.639,3.639,0,0,1,.527-.966l1.932-2.634a2.427,2.427,0,0,0,.439-.79,1.826,1.826,0,0,1,.439-.732,7.3,7.3,0,0,0,1.346-2.634,4.962,4.962,0,0,0,.117-.819.255.255,0,0,0-.058-.351c-.078-.078-.176-.058-.293.059a5.277,5.277,0,0,0-1.522,1.4,3.962,3.962,0,0,1-.234.409q-.294.411-.556.849a3.236,3.236,0,0,1-.673.79,4.267,4.267,0,0,0-.322.5,4.746,4.746,0,0,0-.264.556c-.039.156-.078.292-.117.409a3.189,3.189,0,0,1-.175.41,1.35,1.35,0,0,1-.293.176,1.289,1.289,0,0,1-.41.058,1.932,1.932,0,0,1-.468.058.393.393,0,0,1-.351-.175.474.474,0,0,1-.117-.352,1.3,1.3,0,0,1,.058-.41c.039-.117.078-.253.117-.409a.738.738,0,0,1,.176-.351.238.238,0,0,0,.058-.175,1.311,1.311,0,0,0,.234-.468.17.17,0,0,0,.059-.117,5.824,5.824,0,0,1,.644-1.17q.292-.468.5-.878a6.092,6.092,0,0,1,.5-.819,5.51,5.51,0,0,1,.819-.966,6.107,6.107,0,0,1,.937-.732,1.092,1.092,0,0,1,1.054-.059q.292.059.527.117l.468.117a2.432,2.432,0,0,1,.292.117.945.945,0,0,1,.234.175q.409.294.82.585a2.669,2.669,0,0,1,.7.761,3.521,3.521,0,0,1,.468,1.522.1.1,0,0,1,.029.117.2.2,0,0,0,.029.176,1.514,1.514,0,0,1,.117.82,6.25,6.25,0,0,1-.176.819c-.039.2-.079.39-.117.585a3.315,3.315,0,0,1-.175.585v.176q-.235.585-.439,1.142a11.35,11.35,0,0,1-.5,1.141q-.176.294-.38.615a7.387,7.387,0,0,0-.381.673,4.05,4.05,0,0,1-.409.82,8.523,8.523,0,0,1-.527.7c-.156.234-.117.371.117.41q.468.118.936.2t.937.205a2.323,2.323,0,0,1,.937.439,9.477,9.477,0,0,1,.82.732,3.96,3.96,0,0,0,.38.439,4.258,4.258,0,0,1,.381.439,3.906,3.906,0,0,1,.761,1.084Q794.7,540.224,794.938,540.869Z" transform="translate(-780.947 -523.789)" fill="#002677"/>
            </g>
            <path id="Path_687" d="M869.056,534.179a12.807,12.807,0,0,1,.59,1.839,5.8,5.8,0,0,1-1.184,1.964,13.416,13.416,0,0,1-.924,1.239,6.23,6.23,0,0,1-.5.609,6.13,6.13,0,0,0-.5.609.645.645,0,0,1-.252.21,2.24,2.24,0,0,1-.294.126,3.483,3.483,0,0,1-2.563-.609,4.05,4.05,0,0,1-1.26-2.122,5.306,5.306,0,0,1-.084-1.2q0-.9.021-2.143t.084-2.647q.063-1.407.126-2.647t.1-2.206c.03-.7.2-1.2-.533-1.322-.643-.109-2.136.765-2.769.991l-.386-1.418c-.037-.137-.068-.3.032-.406a.414.414,0,0,1,.208-.093c.817-.2,11.517-4.357,11.683-3,.027.225.063.477.1.756a5.177,5.177,0,0,1,.063.754c0,.976-.617.465-1.159.512a14.583,14.583,0,0,0-3.093.963.962.962,0,0,0-.85,1.04l-.667,7.963c-.093,1.117-.335,2.677.174,3.73.736,1.521,2.06-.536,2.439-1.281A7.165,7.165,0,0,1,869.056,534.179Z" transform="translate(-753.208 -505.936)" fill="#002677"/>
            <path id="Path_688" d="M892.335,541.4a1.534,1.534,0,0,0,1.436-.41,15.811,15.811,0,0,0,1.873-2.334,12.3,12.3,0,0,0,1.308-2.949.772.772,0,0,1,.538-.513,1.57,1.57,0,0,1,.8,0,.209.209,0,0,0,.051.154c.034.034.034.085,0,.153q-.206.616-.538,1.488a17.324,17.324,0,0,1-.77,1.718q-.437.847-.872,1.642a5.516,5.516,0,0,1-.9,1.257,3.343,3.343,0,0,1-2.616,1.129h-.616a.743.743,0,0,0-.385.18,2.058,2.058,0,0,0-.282.385q-.1.154-.333.462a8.369,8.369,0,0,1-.539.641l-.616.667a2.7,2.7,0,0,1-.564.487,2.82,2.82,0,0,1-1.437.565,4.534,4.534,0,0,1-1.488-.154l-.616-.205-.616-.205a4.344,4.344,0,0,1-2.206-1.641,7.832,7.832,0,0,1-1.128-2.719,7.571,7.571,0,0,1-.128-1.642q.026-.819.128-1.693a10.247,10.247,0,0,1,1.051-3.462A10.125,10.125,0,0,1,885,531.654a1.858,1.858,0,0,1,2.257-.462,3.042,3.042,0,0,1,.667.333,2.258,2.258,0,0,1,.513.538,1.144,1.144,0,0,1,.026,1.359q-.437.642-.846,1.257-.566.873-1.026,1.769a5.311,5.311,0,0,0-.564,1.924,16.534,16.534,0,0,0-.1,1.846q0,.924.051,1.8a2.259,2.259,0,0,0,.257,1.025,1.451,1.451,0,0,0,2.052,1.026,3.5,3.5,0,0,0,1.026-.718c.307-.308.615-.649.923-1.026-.171-.17-.3-.307-.385-.41a1.033,1.033,0,0,0-.333-.256,4.257,4.257,0,0,1-1.95-3.95,5.526,5.526,0,0,1,.514-2.155,3.4,3.4,0,0,1,1.487-1.539,3.066,3.066,0,0,1,1.257-.359,4.52,4.52,0,0,1,1.359.1,1.917,1.917,0,0,1,.974.975,2.538,2.538,0,0,1,.359,1.385,15.132,15.132,0,0,1-.924,4.309Zm-.821-6.053c-.1-.068-.249,0-.436.2a3.189,3.189,0,0,0-.513.8,7.405,7.405,0,0,0-.41,1.1,2.955,2.955,0,0,0-.129,1.128,2.18,2.18,0,0,0,.975,1.95,9.729,9.729,0,0,1,.41-1.257,9.835,9.835,0,0,0,.41-1.257,4.574,4.574,0,0,0,.129-1.283A3.051,3.051,0,0,0,891.514,535.348Z" transform="translate(-766.015 -511.12)" fill="#002677"/>
            <g id="Group_11866" transform="translate(44.167)">
                <path id="Path_689" d="M740.271,486.148a4.449,4.449,0,0,1-.56,2.548,6.97,6.97,0,0,1-1.644,1.842,35.892,35.892,0,0,1-6.2,3.811c-1.624.878-2.822,1.96-2.866,3.961a14.124,14.124,0,0,0,1.137,4.712,30.066,30.066,0,0,1,.788,16.3c-.383,1.646-1.487,1.828-2.322.35l-.307.154a2.241,2.241,0,0,1-1.308.872,4.466,4.466,0,0,1-1.513.051q-.411-.051-.769-.1a10.467,10.467,0,0,1-1.59-.513,3.079,3.079,0,0,1-1.616-1.693c-1.924-4.007-2-11.725,3.654-12.662a2.4,2.4,0,0,0,1.407-.49c.565-.587.233-1.546-.086-2.3-.867-2.039-.992-4.242-1.74-6.27s-.256-2.983,1.8-3.94l13.812-6.418m-15.491,23.3q-.667-.205-.846.923a10.1,10.1,0,0,0-.026,2.615,15.511,15.511,0,0,0,.59,2.925,3.6,3.6,0,0,0,1,1.847,1.672,1.672,0,0,0,.514.256,1.656,1.656,0,0,1,.564.308,1.708,1.708,0,0,0,.462-.949,3.937,3.937,0,0,0-.026-1,9.5,9.5,0,0,0-.2-1,2.788,2.788,0,0,1-.077-1l1.539-.872a14.011,14.011,0,0,0-.538-1.436,12.065,12.065,0,0,0-.719-1.411,10.587,10.587,0,0,0-.769-1.129,2.72,2.72,0,0,0-.641-.641Z" transform="translate(-720.323 -486.148)" fill="#002677"/>
            </g>
        </g>
        <path id="Path_690" d="M623.841,581.321a896.7,896.7,0,0,1,131.267-1.55" transform="translate(-58.402 -177.9)" fill="none" stroke="#002677" stroke-miterlimit="10" stroke-width="3.621" fill-rule="evenodd"/>
        <g id="Group_11868" transform="translate(656.188 396.539)">
            <path id="Path_691" d="M837.721,582.969h0l.166-.074a.654.654,0,0,1,.124-.754,1.013,1.013,0,0,0,.176-.493,2.356,2.356,0,0,0-.92-2.175c-.115-.1-.224-.159-.339,0-.084.119-.166.225,0,.347a1.594,1.594,0,0,1,.394,2.067c-.123.318-.109.484.14.687a1.624,1.624,0,0,1,.263.389m-3.677,14.017h0a2.2,2.2,0,0,0-.8-.479,6.533,6.533,0,0,1-2.279-1.43,3.845,3.845,0,0,1-1.258-2.943c.015-.167.07-.392-.246-.531a4.492,4.492,0,0,0,.659,3.33A4.244,4.244,0,0,0,834.044,596.986Zm-1.69-24.9h0c-.024-.156-.115-.161-.177-.2-.112-.075-.27-.151-.209-.312a.381.381,0,0,1,.424-.253,1.282,1.282,0,0,1,.334.107,2.078,2.078,0,0,1,1.249,1.176,1.772,1.772,0,0,0,.263.459,3.577,3.577,0,0,1,.615,1.331c.171.686.31,1.384.527,2.056a4.157,4.157,0,0,1-.419,3.667c-.113.181-.031.264.13.288a.734.734,0,0,0,.779-.565,1.143,1.143,0,0,1,.276-.7,1.684,1.684,0,0,0,.477-1.457,10.607,10.607,0,0,0-2.189-5.928c-.137-.19-.324-.344-.473-.527a1.691,1.691,0,0,0-1.942-.573.741.741,0,0,0-.577.725c.011.332.048.663.074,1A1.385,1.385,0,0,0,832.353,572.091Zm3.1,15.758h0a12.808,12.808,0,0,0-1.654.042.385.385,0,0,0-.319.125,7.548,7.548,0,0,1-1.07.832c-.338.285-.75.538-.9.975a4.633,4.633,0,0,0,.189,3.995,3.7,3.7,0,0,0,1.867,1.715,6.556,6.556,0,0,0,2.015.439,3.512,3.512,0,0,0,2.169-.419c.392-.248.9-.329,1.13-.805.025-.051.136-.075.21-.086a.524.524,0,0,0,.364-.274,3.515,3.515,0,0,0,.678-3.125,4.945,4.945,0,0,0-2.26-2.925c-.051-.028-.112-.038-.166-.062A7.179,7.179,0,0,0,835.456,587.849Zm-1.817-3.28h0c-.148,0-.317-.049-.363.162-.01.047.007.137.035.149.14.057.253-.031.364-.1a.4.4,0,0,0,.075-.083c.171-.034.35-.167.513-.076.649.358,1.389.179,2.068.375.317.092.354-.007.337-.346-.022-.452-.314-.873-.146-1.348.026-.074-.059-.162-.135-.164-.6-.014-1.019-.5-1.594-.574a.453.453,0,0,1-.435-.335c-.1-.4-.214-.8-.351-1.186a.849.849,0,0,1,.1-.784,3.712,3.712,0,0,1,.776-.958c.136-.109.116-.236.007-.356a.212.212,0,0,0-.352.023,1.124,1.124,0,0,1-.409.389,1.73,1.73,0,0,0-.985,1.622,2.808,2.808,0,0,0,.577,1.706.788.788,0,0,0,.335.323c.625.222,1.112.756,1.816.8.018,0,.033.055.051.089a.67.67,0,0,1-.687.234,4.11,4.11,0,0,1-.869-.158c-.325-.122-.477,0-.589.273C833.734,584.353,833.686,584.46,833.639,584.569Zm1.8-3.154h0l1.316.224c.027-.453.219-.9-.335-1.218a2.892,2.892,0,0,1-.982.892c-.341-.005-.706.046-.847-.492a2.164,2.164,0,0,0-.1.9.18.18,0,0,0,.092.2c.119.058.18-.031.237-.105A.88.88,0,0,1,835.435,581.415Zm2.229-3.9a.518.518,0,0,0-.177.48.116.116,0,0,1-.006.058c-.184.424-.069.691.33.965a2.9,2.9,0,0,1,.862,3.408,2.15,2.15,0,0,1-.526.78c-.125.116-.24.267-.087.4.725.63.28,1.283.061,1.949a10.667,10.667,0,0,1,2,1.406,5.717,5.717,0,0,1,1.045,1.35,6.545,6.545,0,0,1,.791,1.442,5.937,5.937,0,0,1-.928,5.326c-.143.189-.295.371-.435.562a6.144,6.144,0,0,1-4.35,2.558,5.419,5.419,0,0,1-2.167-.11,10.162,10.162,0,0,1-2.526-.8,4.931,4.931,0,0,1-1.719-1.83,18.257,18.257,0,0,1-.853-1.879,3.827,3.827,0,0,1-.349-1.722,11.284,11.284,0,0,1,.53-2.957,1.979,1.979,0,0,1,.206-.424,9.157,9.157,0,0,1,2.107-2.457c.169-.134.3-.312.474-.443a.563.563,0,0,0,.223-.513,2.772,2.772,0,0,1,.779-2.1.327.327,0,0,0,.07-.422,3.224,3.224,0,0,0-.4-.843.98.98,0,0,1-.15-.95c.09-.345.1-.479-.064-.527l.24-.648.874-.831,1.114-.525.481-.418-.04-.27c0-.032,0-.065,0-.1a4.077,4.077,0,0,0-.164-1.013v0h0a4.7,4.7,0,0,0-.4-.947c-.035-.064-.069-.128-.1-.193l-.276-.7a6.132,6.132,0,0,0-.279-.711l-.011-.024-.015-.032-.64-1.381-.26.12a.291.291,0,0,0-.116.039c-.051.028-.1.058-.15.091l-1.012.495-1.107-.322a.273.273,0,0,0,.209-.366c-.132-.529.127-1.05.034-1.581a.488.488,0,0,1,.132-.319,1.644,1.644,0,0,1,1.356-.712,3.059,3.059,0,0,1,1.78.706.92.92,0,0,0,.529.21h0l.768,1.106.8,1.137.918,2.31.328,1.329Z" transform="translate(-828.63 -569.866)" fill="#002677"/>
            <path id="Path_692" d="M839.473,603.037l.111.128a.4.4,0,0,1-.074.083c-.111.07-.225.158-.364.1-.029-.011-.046-.1-.036-.149.046-.211.215-.167.363-.162" transform="translate(-834.465 -588.334)" fill="#8c9091"/>
            <path id="Path_693" d="M840.16,615.056h0c-.479.039-.935.042-1.379.118a1.65,1.65,0,0,0-1.291,1.555,2.2,2.2,0,0,0,2.288,1.919,8.529,8.529,0,0,0,1.376-.314,1.652,1.652,0,0,0,1.093-1.079,1.168,1.168,0,0,0-.177-1.168,3.3,3.3,0,0,0-1.91-1.031m-.7,4.534a2.5,2.5,0,0,1-1.822-1.023,5.632,5.632,0,0,0-.36-.465,2.045,2.045,0,0,1-.265-2.22,2.472,2.472,0,0,1,2.459-1.589,3.742,3.742,0,0,1,1.754.369,3.014,3.014,0,0,1,1.46,1.84,2.236,2.236,0,0,1-.81,2.313A4.6,4.6,0,0,1,839.462,619.59Z" transform="translate(-833.181 -594.606)" fill="#002677"/>
            <path id="Path_694" d="M842.177,618.635c.051.007.148.018.245.034.54.091.677.247.625.715-.056.517-.3.734-.808.7a1.48,1.48,0,0,1-.455-.091.826.826,0,0,1-.541-.875c.083-.333.42-.519.934-.486" transform="translate(-835.646 -597.022)" fill="#002677"/>
            <path id="Path_695" d="M838.629,610.418a12.81,12.81,0,0,0-1.654.042.384.384,0,0,0-.319.125c-.405.487-1.723,1.081-1.969,1.807a4.633,4.633,0,0,0,.189,3.995,4.332,4.332,0,0,0,3.881,2.154,3.511,3.511,0,0,0,2.169-.419c.392-.248.9-.329,1.13-.805.067-.136.317.031.574-.36a3.516,3.516,0,0,0,.677-3.124,4.739,4.739,0,0,0-2.427-2.986,7.184,7.184,0,0,0-2.253-.428m1.221,2.073a3.013,3.013,0,0,1,1.46,1.84,2.235,2.235,0,0,1-.81,2.313,4.6,4.6,0,0,1-2.417.774,2.5,2.5,0,0,1-1.822-1.023,5.628,5.628,0,0,0-.36-.465,2.045,2.045,0,0,1-.265-2.22,2.472,2.472,0,0,1,2.459-1.589A3.741,3.741,0,0,1,839.85,612.491Z" transform="translate(-831.803 -592.435)" fill="#6bc4e8" fill-rule="evenodd"/>
            <path id="Path_696" d="M838.913,577.313c.915,2.832-1.039,3.845-.289,3.955a.734.734,0,0,0,.779-.565c.2-1.191.8-.556.753-2.156a10.607,10.607,0,0,0-2.189-5.928c-.137-.19-.324-.344-.473-.527-.912-1.124-2.55-.7-2.52.152.011.332.048.663.074,1a1.384,1.384,0,0,0,.837-.29c-.04-.261-.49-.237-.386-.514.257-.681,1.705.19,2.007,1.029.18.5.6.668.879,1.79.171.686.31,1.384.527,2.056" transform="translate(-832.163 -570.727)" fill="#8c9091" fill-rule="evenodd"/>
            <path id="Path_697" d="M839.8,590.666c-1.814.83-.669,3.442-.073,3.652.625.221,1.112.756,1.816.8.018,0,.033.055.051.089a.67.67,0,0,1-.687.234,4.113,4.113,0,0,1-.869-.158c-.476-.178-.546.174-.727.6l.111.128c.171-.034.35-.167.513-.076.649.358,1.389.179,2.068.375.79.228-.036-1.05.191-1.694.027-.074-.058-.162-.135-.164-.6-.014-1.019-.5-1.594-.574-.543-.074-.424-.491-.786-1.521-.222-.633.5-1.439.874-1.742.264-.212-.109-.625-.346-.333a1.124,1.124,0,0,1-.409.389" transform="translate(-834.306 -581.176)" fill="#8c9091" fill-rule="evenodd"/>
            <path id="Path_698" d="M847.247,591.794a1.594,1.594,0,0,1,.394,2.067c-.123.318-.109.484.14.687a1.627,1.627,0,0,1,.263.39l.166-.074c-.259-.538.2-.585.3-1.247a2.356,2.356,0,0,0-.92-2.175c-.3-.273-.557.19-.343.351" transform="translate(-838.953 -581.834)" fill="#8c9091" fill-rule="evenodd"/>
        </g>
        <g id="Group_11869" transform="translate(651.807 269.43)">
            <path id="Path_699" d="M860.478,315.043q.5-.11,1.267-1.4t1.515-2.809q.744-1.515,1.266-2.864t.579-1.57c.183-.367.348-.551.5-.551a.356.356,0,0,1,.33.248,2.432,2.432,0,0,1,.165.551.754.754,0,0,1,0,.413q-.33.772-.689,1.6t-.688,1.6q-.277.772-.578,1.542t-.688,1.542q-.276.607-.606,1.211a7.857,7.857,0,0,1-.771,1.157,2.484,2.484,0,0,1-1.212.881,3.5,3.5,0,0,1-2.616.083,4.011,4.011,0,0,1-1.955-1.735,8.75,8.75,0,0,1-1.074-2.561,17.95,17.95,0,0,1-.413-2.727q-.111-1.322-.137-2.644a11.669,11.669,0,0,1,.247-2.644q.166-1.1.331-2.23t.385-2.231a2.861,2.861,0,0,1,.3-.633,4.815,4.815,0,0,0,.358-.689,1.985,1.985,0,0,0,.331-.027.449.449,0,0,1,.275.027,6.9,6.9,0,0,0,.936.275,3,3,0,0,1,.936.386,3.357,3.357,0,0,1,.771.661,1.471,1.471,0,0,1,.331.991v1.543q0,.772.055,1.542a3.054,3.054,0,0,0,.11.716,5.982,5.982,0,0,1,.11,1.6,17.342,17.342,0,0,0-.083,2.2q.027,1.1.028,2.2a10.542,10.542,0,0,1,.027,1.294c-.019.423-.027.853-.027,1.294.036.295.063.588.082.881s.028.588.028.881Zm1.461-24.79q-.386,1.157-.689,2.175t-.633,2.01c-.037.184-.074.34-.11.468a2.426,2.426,0,0,1-.165.413q-.33.881-.716,1.046a2,2,0,0,1-1.267-.11,3.133,3.133,0,0,1-.854-.5,3.548,3.548,0,0,1-.716-.771,3.012,3.012,0,0,1-.44-.991,2.472,2.472,0,0,1-.028-1.1q.22-.936.5-1.763a7.142,7.142,0,0,1,.771-1.6q.33-.5.523-.55a1.33,1.33,0,0,1,.744.22,3.449,3.449,0,0,0,.771.33l.771.221a7.143,7.143,0,0,1,.8.248C861.433,290.1,861.682,290.18,861.939,290.254Z" transform="translate(-838.747 -286.339)" fill="#002677"/>
            <path id="Path_700" d="M972.13,326.535q.5-.11,1.267-1.4t1.515-2.809q.743-1.515,1.266-2.864t.578-1.57q.275-.55.5-.551a.355.355,0,0,1,.33.248,2.454,2.454,0,0,1,.166.55.763.763,0,0,1,0,.413q-.33.772-.689,1.6t-.689,1.6q-.276.772-.578,1.542t-.689,1.542q-.276.607-.606,1.212a7.894,7.894,0,0,1-.771,1.157,2.484,2.484,0,0,1-1.212.88,3.5,3.5,0,0,1-2.616.083,4.012,4.012,0,0,1-1.955-1.735,8.732,8.732,0,0,1-1.075-2.561,18.011,18.011,0,0,1-.413-2.727q-.111-1.322-.137-2.644a11.657,11.657,0,0,1,.248-2.643q.165-1.1.331-2.231t.385-2.231a2.859,2.859,0,0,1,.3-.633,4.791,4.791,0,0,0,.358-.689,1.935,1.935,0,0,0,.33-.027.454.454,0,0,1,.276.027,6.955,6.955,0,0,0,.936.276,3,3,0,0,1,.936.385,3.38,3.38,0,0,1,.772.661,1.472,1.472,0,0,1,.33.991v1.542q0,.772.055,1.542a3.059,3.059,0,0,0,.11.716,5.98,5.98,0,0,1,.11,1.6,17.517,17.517,0,0,0-.083,2.2q.027,1.1.028,2.2a10.55,10.55,0,0,1,.028,1.295q-.028.633-.028,1.294.054.441.082.881t.028.881Z" transform="translate(-900.923 -298.062)" fill="#002677"/>
            <path id="Path_701" d="M930.384,311.868q.661-1.081,1.562-.931t1.742.33a.807.807,0,0,1,.361.3,1.37,1.37,0,0,1,.24.48,2.342,2.342,0,0,1,.18,1.381,72.539,72.539,0,0,0-.721,8.349,7.706,7.706,0,0,0,.27,1.892,3.307,3.307,0,0,0,.751,1.531,5.974,5.974,0,0,0,1.8-2.7q.42-1.141.781-2.283t.781-2.342a4.655,4.655,0,0,1,.33-.751q.209-.39.39-.69.9-1.2,1.982.12-.421,1.2-.781,2.462t-.842,2.523q-.241.661-.63,1.711a12.82,12.82,0,0,1-.931,1.983,5.39,5.39,0,0,1-1.291,1.531,1.748,1.748,0,0,1-1.712.3q-.481-.119-.991-.24a8,8,0,0,1-.991-.3,5.4,5.4,0,0,1-3.183-3.424,1.437,1.437,0,0,1-.15-.45.935.935,0,0,0-.151-.391.966.966,0,0,0-.24-.18,1.5,1.5,0,0,0-.15.421,1.558,1.558,0,0,1-.15.42q-.482.962-.9,1.893a17.894,17.894,0,0,1-.96,1.831,3.844,3.844,0,0,1-2.283,2.043,6.762,6.762,0,0,1-3-.24,3.926,3.926,0,0,1-2.133-1.472,7.3,7.3,0,0,1-1.111-2.433,11.961,11.961,0,0,1,.781-8.228,13.534,13.534,0,0,1,1.622-2.763A9.288,9.288,0,0,1,923,311.388a4.893,4.893,0,0,1,1.682-.69,7.11,7.11,0,0,1,1.952-.151,7.759,7.759,0,0,1,1.982.391A6.017,6.017,0,0,1,930.384,311.868ZM923.537,326.4a.35.35,0,0,1,.24.12,4,4,0,0,0,.361-.27,1.54,1.54,0,0,0,.3-.331q.541-.841,1.081-1.652a15.252,15.252,0,0,0,.961-1.652q.66-1.5,1.231-3t1.231-3.063a.236.236,0,0,0-.15.03.123.123,0,0,1-.09.03l-.541-1.621q-.121-.42-.27-.811a6.059,6.059,0,0,0-.391-.811.714.714,0,0,0-.45-.36.508.508,0,0,0-.51.24q-.663.842-1.262,1.682a4.159,4.159,0,0,0-.721,2.043,11.305,11.305,0,0,1-.21,1.351q-.152.692-.271,1.352a15.285,15.285,0,0,0-.48,2.7q-.121,1.382-.18,2.763c0,.2.009.411.03.631A5.833,5.833,0,0,0,923.537,326.4Z" transform="translate(-873.935 -298.342)" fill="#002677"/>
            <path id="Path_702" d="M824.554,300.2q1.536-.413,2.926-.739a4.133,4.133,0,0,1,2.631.207q.59.237.266.621a1.506,1.506,0,0,1-.739.5q-1.3.355-2.6.739t-2.778.857q0,.119.029.916t.059,1.862q.028,1.063.118,2.128a8.492,8.492,0,0,0,.266,1.656,2.716,2.716,0,0,0,.65,1.33,11.219,11.219,0,0,0,1.064,1.094c.118.08.345.069.68-.029a2.317,2.317,0,0,0,.8-.385,14.6,14.6,0,0,0,1.921-1.744q1.034-1.093,1.981-2.158t1.6-1.862a5.035,5.035,0,0,1,.709-.8.6.6,0,0,1,.62.088.877.877,0,0,1,.237.562,2.891,2.891,0,0,1-.059.8,2.3,2.3,0,0,1-.266.739,19.9,19.9,0,0,1-1.8,2.513,27.771,27.771,0,0,1-2.1,2.217,5.121,5.121,0,0,1-2.069,1.36,7.226,7.226,0,0,1-2.394.414,6.543,6.543,0,0,1-2.365-.443,6.241,6.241,0,0,1-2.04-1.271,7.8,7.8,0,0,1-2.246-3.517,20.173,20.173,0,0,1-.769-4.109,26.9,26.9,0,0,1,.059-5.912q.355-2.895.769-5.852.117-.827.325-2.128t.444-2.6q.235-1.3.443-2.247a2.254,2.254,0,0,1,.385-1.064,4.28,4.28,0,0,1,2.216-.887,8.43,8.43,0,0,1,2.513.148,14.606,14.606,0,0,1,2.6.8q1.3.532,2.483,1.123A2.872,2.872,0,0,1,831,287.2a2.353,2.353,0,0,1-1.773.828q-.947.12-1.892.3t-1.951.355q-.236,2.837-.414,5.675T824.554,300.2Z" transform="translate(-818.744 -283.022)" fill="#002677"/>
            <path id="Path_703" d="M897.329,312.142a.764.764,0,0,0-.537-.538,14.4,14.4,0,0,1-2.238.872,9.627,9.627,0,0,1-2.308.384c-.514.023,1.189.037.66.053-1.272-.009-2.544-.018-3.827-.056q-2.558-.071-5.016-.226t-4.685-.354a1.206,1.206,0,0,0-1.172.391,2.03,2.03,0,0,0-.465,1.334,7.277,7.277,0,0,0,.126,1.945,2.563,2.563,0,0,0,1.039,1.53l-.137.456a3.648,3.648,0,0,0-.8,1.95A9.5,9.5,0,0,0,878,322.1q.075.6.146,1.119a20.458,20.458,0,0,0,.6,2.3,4.02,4.02,0,0,0,1.791,2.284,9.443,9.443,0,0,0,3.067,1.251,12.754,12.754,0,0,0,3.341.3,5.292,5.292,0,0,0,2.557-.639,2.072,2.072,0,0,0,.661-.931,13.91,13.91,0,0,0,.657-1.718,16.038,16.038,0,0,0,.47-1.859,6.685,6.685,0,0,0,.155-1.358c-.136-1.271-1.382-4.073-.533-4.275a25.352,25.352,0,0,0,2.451-.706,10.272,10.272,0,0,0,1.929-.858,2.627,2.627,0,0,0,1.382-1.642q.27-1.029.629-2.45A2.026,2.026,0,0,0,897.329,312.142Zm-9.062,10.468a3.541,3.541,0,0,1-.554,1.239,2.011,2.011,0,0,1-1.251.611,5.418,5.418,0,0,1-3.7-.416c-.831-.462-3.576-3.908-1.479-4.361a2.091,2.091,0,0,1,.841-.006,5.363,5.363,0,0,1,.85.235,1.494,1.494,0,0,0,.844.063l.661-2.115a10.076,10.076,0,0,1,2.451,1.58,10.013,10.013,0,0,1,.985.992,2.153,2.153,0,0,1,.516.861A2.51,2.51,0,0,1,888.267,322.61Z" transform="translate(-851.589 -298.939)" fill="#002677"/>
        </g>
        <g id="Group_11870" transform="translate(735.351 270.048)">
            <path id="Path_704" d="M1007.276,284.418s2.492,11.938,7.931,16.124c0,0,7.717,8.259,8.244,10.592,0,0,.133.854-.967-.1,0,0-6.554-5.682-9.864-5.916,0,0,1.681,6.79,11.874,8.56,0,0,1.06.1,1.594,2.5s3.8,12.1,4.28,14.179c0,0,.115.817-.736-.368a42.257,42.257,0,0,0-13.262-11.874s7.217,14.442,13.448,14.294a.534.534,0,0,1,.722.459,73.4,73.4,0,0,1,2.177,17.011s-.064.795-.4-.041c-.551-1.367-5.774-10.5-10.12-11.965,0,0,2.038,10.394,9.715,13.574a1.749,1.749,0,0,1,1.086,1.508c-.029.8-.6,8.255-.733,9.072a2.588,2.588,0,0,1,1.826.248s1.3-11.855.292-20.286a2.761,2.761,0,0,1-.033-1.106,22.957,22.957,0,0,0,2.476-5.454,28.291,28.291,0,0,0,.737-12.155,34.049,34.049,0,0,0-3.417,13.6s-.127,1.512-.468.067c0,0-1.43-9-2.007-10.262,0,0,4.914-7.791,1.163-20.4,0,0-3.99,5.246-1.809,18.139,0,0,.011,1.169-.418-.113s-2.923-7.8-3.4-10.269a6.685,6.685,0,0,1,.126-2.135c.26-1.153.193-9.162-7.659-18.134,0,0-.5,3.587,4.473,13.187a17,17,0,0,1,1.112,3.521s.118,1.094-.712-.259a41.763,41.763,0,0,0-3.076-4.427s-3.96-4.095-4.784-5.326l-.508-.8s-.174-7.986-8.9-15.241" transform="translate(-1007.276 -284.418)" fill="#002675" fill-rule="evenodd"/>
            <path id="Path_705" d="M1016.963,301.944l-6.788-12.821s1.771,9.2,6.788,12.821" transform="translate(-1008.891 -287.038)" fill="#6bc4e8" fill-rule="evenodd"/>
            <path id="Path_706" d="M1021.123,332.449l9.231,6.732a13.46,13.46,0,0,1-9.231-6.732" transform="translate(-1014.987 -311.165)" fill="#6bc4e8" fill-rule="evenodd"/>
            <path id="Path_707" d="M1031.894,364.955l11.019,11.018s-3.8,1.168-11.019-11.018" transform="translate(-1020.985 -329.267)" fill="#6bc4e8" fill-rule="evenodd"/>
            <path id="Path_708" d="M1043.165,407.556l8.651,11.47s-5.659-1.332-8.651-11.47" transform="translate(-1027.262 -352.99)" fill="#6bc4e8" fill-rule="evenodd"/>
        </g>
    </g>
</svg>
