<svg xmlns="http://www.w3.org/2000/svg" width="96.159" height="73.436" viewBox="0 0 96.159 73.436">
    <g id="lkl-icon" transform="translate(-279.81 -1045.706)">
        <path id="Path_3258" d="M308.148,1080.277l-.148-1.22.8-1.1,1.291-1.054,5.477-2.549,1.756-.661,3.186-1.37,3.646-1.8.945-.866.5.874,3.97,3.882,5.537,4.941,1.675,2.349-.077,2.134-1.4,1.046-2.887,2.084-3.184,1.645-2.452,1.378-3.049,2.066-2.027,2.2-.421-.67-1.439-1.74-1.424-1.372-3.013-3.225-3.012-2.507-2.835-2.6Zm16.991,13.318-2.28.894,1.078,1.967,1.91-1.315-.312-.745Zm-2.7-25.929,1.432-.429.342.461-.026,1.269-1.827.305-.249-1.155Zm3.4,1.734.33-.676.811-.38.572-.032.664,1.262-.906.963-1.131-.542Zm-43.589,3.263,1.76-.577,2.723-.585,2.818-.372,2.068-.482,2.594-.718,1.129-.352,1.669.49,2.074.789,2.114,1.127,1.888.55,1.839.144,3.215-.908,3.3-.9,2.6-.935,2.389-.4,3.01-.9,2.094-.886,1.329-.595,1.378-.275,1.309.538.9-.012,1.564.734,1.382,1.119,2.723,2.236,2.26,1.58,2.828,1.859,2.576,1.59,3.176.649,2.63-.392,2.741-.664.991.2,2.007,1.131,2.689,1.789,2.169,1.327,2.539,1.145,2.015.53.443-.838,1.295-.854.85.1,1.03.546.724.892,3.549-1.359,1.222.261.33,1.137,3.4.544L372.155,1084l1.671,2.256-.874.915,2.2,1.333-2.217.4,3.037,1.121-3.217,1.129,2.745,1.261-2.543.979,1.123,1.817-2.187-.277-.676.973-1.022.129-.658-.568.227-1.309-.9.049-.4,1.752-1.014,1.081-.5.263-1.153-.237-.554-.37-.656-.9-.5-1.238-.073-1.159-1.135-.2-.8-.123L350.3,1096.01l-1.335.573-1.422.026-2.922-1.359-4.151-.977-1.337-2.307-1.315,0-1.4-1.886-4.356,1.671-2.747,1.216-2.9,1.906-3.043,2.088-1.246-.53-1.726.726-.518-.16-1.392-1.651.065-.7.528-.736.611.01.979.722.184.846-.633,1.088-.342.423-.19-.058-4.593-3.882-3.874-3.524-4.781-3.33-.455.457-2.161.987-1.9.989-1.127,1.263-.963.352-1.244-.073-2.986.415-1.855.33-2.816-.471-5.135-1.96-5-2.256,6.62.506-4.249-2.454,7.281.856-10.656-4.052,6.343.469-4.463-2.634,6.713.34-7.158-2.489,5.424-.577-4.069-1.687-1.738-.832Z" transform="translate(0 21.663)" fill="#52b9e4" fill-rule="evenodd"/>
        <path id="Path_3259" d="M325.99,1068.217h0l.384-.235c-.2-.062-.37-.178-.384.235m-4.016.951h0c.469-.055.892-.093,1.311-.158a.416.416,0,0,0,.287-.186,1.218,1.218,0,0,0-.061-1.129.393.393,0,0,0-.36-.127c-.451.184-.884.409-1.36.637C321.853,1068.525,321.907,1068.82,321.974,1069.168Zm4.926-.591h0a1.169,1.169,0,0,0-1.256.777.465.465,0,0,0,.192.637c.285.152.589.273.912.421.265-.283.514-.548.755-.807Zm-2.209,25.471h0c-.866-.077-1.392.476-2.11.676.392.544.579,1.125,1.1,1.465.372-.312.7-.589,1.03-.86a.641.641,0,0,0,.218-.819C324.855,1094.346,324.762,1094.188,324.691,1094.049Zm-5.264,2.685h0a1.317,1.317,0,0,0,.069-2.335c-.68-.421-.8-.382-1.111.37-.032.077-.049.16-.087.23a.522.522,0,0,0,.093.629C318.731,1096.007,319.087,1096.372,319.427,1096.734Zm5.054-26.556h0a.12.12,0,0,0-.069.034,9.591,9.591,0,0,1-4.111,2.383,20.121,20.121,0,0,0-3.035,1.3,5,5,0,0,1-1.875.753,2.06,2.06,0,0,0-.613.267c-.659.332-1.307.69-1.975,1-1.115.52-2.242,1.012-3.36,1.522a2.542,2.542,0,0,0-1.254,1.3,2.131,2.131,0,0,0,.247,2.217,24.635,24.635,0,0,0,2.128,2.381c.439.451.965.815,1.445,1.23.556.481,1.076,1.012,1.663,1.453a22.451,22.451,0,0,1,2.938,2.814c.558.6,1.1,1.21,1.683,1.791a17.266,17.266,0,0,1,2.76,3.041,1.52,1.52,0,0,0,.19.212c.067-.018.117-.016.142-.041a2.394,2.394,0,0,0,.243-.277,8.772,8.772,0,0,1,2.671-2.434c.338-.194.647-.437.981-.64.524-.319,1.06-.619,1.586-.936.558-.338,1.141-.646,1.663-1.036a12.594,12.594,0,0,1,2.9-1.592,9.756,9.756,0,0,0,1.882-1.026,16.987,16.987,0,0,0,1.815-1.485,6.108,6.108,0,0,0,.912-1.074,1,1,0,0,0,.168-.7,5.884,5.884,0,0,0-1.271-2.47,18.581,18.581,0,0,0-3.314-2.97,9.821,9.821,0,0,1-.89-.746c-.5-.451-.979-.925-1.483-1.368a21.016,21.016,0,0,1-2.183-1.884c-.5-.57-1.012-1.123-1.5-1.7C325.193,1071.08,324.845,1070.629,324.481,1070.177Zm36.233,11.417c.386.364.834.217,1.339.093-.065.247-.113.425-.2.74a2.165,2.165,0,0,0,.336-.3c.271-.429.38-.449.793-.128.063.049.123.1.221.174a.936.936,0,0,1-.894.538c-.615-.014-1.228.012-1.843.02a.9.9,0,0,1-.245-.022,13.264,13.264,0,0,1-4.435-1.606,1.085,1.085,0,0,0-.225-.105,16.018,16.018,0,0,1-3.371-2.144,22.733,22.733,0,0,0-2.426-1.457,2.786,2.786,0,0,1-.741-.427,1.312,1.312,0,0,0-1.485-.319,21.065,21.065,0,0,1-4.006.854c-.047,0-.089.065-.231.172l3.557.382a3.217,3.217,0,0,1-1.264.269c-.532-.016-1.068.012-1.594-.047a19.7,19.7,0,0,1-2-.344,21.194,21.194,0,0,1-4.629-1.908,13.92,13.92,0,0,1-1.331-.856c-.441-.279-.89-.548-1.3-.8a11.476,11.476,0,0,1-.88.985c-.275.249-.52.142-.647-.22-.136.012-.275.026-.413.036-.014,0-.028-.022-.079-.063l1.441-1.317c-.287-.229-.552-.471-.844-.67-.662-.449-1.37-.837-2-1.325-.805-.627-1.552-1.331-2.333-1.993a9.7,9.7,0,0,0-1.534-1.107c.225.328.447.656.655.959-.3.338-.577.633-.825.953-.235.3-.4.38-.692.233a6.8,6.8,0,0,1-1.066-.6,2.242,2.242,0,0,1-.4-.668c-.231.055-.334.192-.17.427a7.145,7.145,0,0,0,.566.734,31.611,31.611,0,0,0,4.3,4.057c.52.4.969.888,1.469,1.315.423.362.884.676,1.3,1.04.884.771,1.766,1.544,2.62,2.347a6.2,6.2,0,0,1,1.445,2.349,3.107,3.107,0,0,1-.075,2.234c-.18.5-.67.7-1.058.983-.927.676-1.873,1.325-2.826,1.964a2.941,2.941,0,0,1-.821.368,6.527,6.527,0,0,0-2.917,1.649,2.04,2.04,0,0,1-.532.409c-.554.273-1.129.5-1.681.779a6.98,6.98,0,0,0-.937.583c-.518.368-1,.787-1.534,1.131a8.314,8.314,0,0,0-2.373,2.29,1.413,1.413,0,0,0-.121.31,1.813,1.813,0,0,1,.447,1.91c.3.281.6.17.985.111l-1.135-2.05c.755-.317,1.436-.635,2.142-.888.469-.166.623-.057.866.407.132.253.259.506.427.834a12.5,12.5,0,0,0,1.034-.8.576.576,0,0,0,.036-.5,5.663,5.663,0,0,0-.437-.775c.544.144.579.765,1.111.987l-.285-.89c.413.075.471.427.609.746.945-.6,1.857-1.175,2.776-1.758a7.5,7.5,0,0,1-.526-1.184c-.109-.423.14-.819.291-1.327a.791.791,0,0,1,.045.771,1.378,1.378,0,0,0,.469,1.384c.129.142.419.138.654.2-.111-.732-.821-1.2-.562-2.007.219.376.439.752.653,1.131.063.107.093.231.154.338.079.137.162.34.36.21a.393.393,0,0,0,.091-.36c-.174-.482-.374-.955-.583-1.424-.083-.19-.184-.362.03-.579a3.09,3.09,0,0,1,.91,2.142,2.075,2.075,0,0,0,.7-.265,3.472,3.472,0,0,1,1.481-.666,9.776,9.776,0,0,0,1.916-.838,8.461,8.461,0,0,1,1.677-.595,4.479,4.479,0,0,1,3.524.487c-.208.012-.342.012-.473.027a4.022,4.022,0,0,1-.427.06c-.164,0-.33-.065-.49-.052q-.7.045-1.4.135a9.384,9.384,0,0,0-1.214.2c-.388.1-.757.273-1.182.431.156.307.257.552.394.773a1.36,1.36,0,0,0,1.25.746,16.686,16.686,0,0,0,1.718-.038,8.1,8.1,0,0,1,2.545.34.823.823,0,0,1,.435.34,12.017,12.017,0,0,0-3.314.059c.281.609.542,1.171.805,1.742,1.02.235,2.049.429,3.055.712.969.275,1.91.639,2.861.971.407.142.8.318,1.214.449a2.167,2.167,0,0,0,1.645-.144,20.4,20.4,0,0,1,2.834-.815q2.143-.6,4.279-1.2c.613-.174,1.222-.358,1.835-.532.494-.14.989-.271,1.483-.4.471-.128.943-.253,1.455-.391-.287-.285-.647-.52-.378-1.056.437.279.866.544,1.285.821a4.185,4.185,0,0,1,.641.481,1.157,1.157,0,0,0,1.2.271c.7-.18,1.39-.37,2.147-.572,0-.241.008-.518.014-.822l1.173-.316.277.777a1.436,1.436,0,0,1-1.269.631c.281.4.617.136.87.186.421.51.077.937-.113,1.451l-.716-.142c-.051-.376-.091-.694-.144-1.094-.36.265-.781.148-1.036.5a1.331,1.331,0,0,1-1.362.544c-.016-.162-.032-.338-.048-.51a2.015,2.015,0,0,1-.461-.039c-.378-.125-.738-.32-1.127-.407a2.069,2.069,0,0,0-.846.045c-1.141.255-2.288.5-3.415.811-1.447.4-2.877.864-4.317,1.281-.512.15-1.04.239-1.56.358a2.117,2.117,0,0,0-1.036.35.874.874,0,0,1-.585.131,1.432,1.432,0,0,0-1.022.368,1.223,1.223,0,0,1-1.1.21,10.856,10.856,0,0,1-1.877-.595,21.449,21.449,0,0,0-4.1-1.3c-.439-.091-.892-.124-1.339-.178a1.742,1.742,0,0,1-1.412-.969,12.5,12.5,0,0,1-.542-1.168.562.562,0,0,0-.473-.411,2.842,2.842,0,0,1-1.714-.866c-.3-.326-.54-.692-.838-1.081-.263.127-.589.3-.925.443-.3.125-.617.213-.925.324a1.124,1.124,0,0,0-.328.15,2.067,2.067,0,0,1-1.064.459,1.708,1.708,0,0,0-.382.17c-.356.141-.716.273-1.072.417a5.891,5.891,0,0,0-.552.247c-.469.245-.935.5-1.4.745-.071.036-.166.045-.221.1a18.953,18.953,0,0,1-2.215,1.277c-.293.212-.631.368-.937.569-.427.281-.848.575-1.264.874-.312.225-.615.463-.917.7a1.2,1.2,0,0,1-1.578.166,3.346,3.346,0,0,1-.415-.3,14.508,14.508,0,0,1-1.493.765.84.84,0,0,1-.923-.156c-.275-.273-.57-.524-.856-.787a1.71,1.71,0,0,0-.316-.291,17.177,17.177,0,0,1-2.826-2.438,25.268,25.268,0,0,0-2.725-2.27,6.837,6.837,0,0,1-1.368-1.151,11.156,11.156,0,0,0-1.841-1.544c-.623-.441-1.226-.91-1.843-1.359-.411-.3-.832-.581-1.271-.884l-.53.425c-.079.063-.164.188-.235.182-.692-.065-1.133.51-1.748.667a6.659,6.659,0,0,0-1.718.82,2.866,2.866,0,0,0-.678.755,2.612,2.612,0,0,1-2.6,1.175,6.923,6.923,0,0,0-1.171-.089,8.475,8.475,0,0,0-1.214.14c-.751.129-1.5.283-2.244.427-.04.006-.089-.01-.123.006-1.1.538-2.09,0-3.093-.316-1.04-.33-2.045-.773-3.1-1.06a21.787,21.787,0,0,1-4.249-1.819,21.917,21.917,0,0,0-2.709-1.2c-.129-.047-.253-.111-.368-.164-.024-.247.089-.342.283-.332a1.487,1.487,0,0,1,.483.081c.585.243,1.167.5,1.74.765.761.358,1.519.716,2.262,1.1a21.264,21.264,0,0,0,4.321,1.515c.372.1.724.285,1.092.413a13.3,13.3,0,0,0,1.93.605,3.813,3.813,0,0,0,1.443-.117,11.816,11.816,0,0,1,4.722-.568,2.479,2.479,0,0,0,2.312-.977.2.2,0,0,0,.069-.1c.107-.688.7-.86,1.208-1.084.674-.3,1.382-.522,2.074-.787a2.623,2.623,0,0,0,1.161-.714,1.11,1.11,0,0,0-.188-.235c-.518-.368-1.042-.724-1.562-1.089a1.147,1.147,0,0,0-.864-.224,4.974,4.974,0,0,1-.544.016,1.478,1.478,0,0,1,1.641-.271,4.338,4.338,0,0,1,.927.471c.546.33,1.08.682,1.625,1.016a3.756,3.756,0,0,1,1.016.787,4.824,4.824,0,0,0,.941.694c.583.425,1.157.86,1.744,1.277a7.158,7.158,0,0,0,.672.37,3.282,3.282,0,0,1,.273-2.068c.133.109.208.172.247.2-.055.281-.1.524-.15.767l.085.018c.073-.093.146-.186.287-.37.269.726-.077,1.42.281,2.151-.643-.261-.37-.8-.682-1.206.018.4-.071.751.067.953a1.533,1.533,0,0,0,1.062.775c.255.03.506.093.864.16l-.437.3c1.718,1.5,3.407,2.978,5.121,4.473a1.621,1.621,0,0,0,.093-.39c0-.569.425-.87.763-1.216a.465.465,0,0,1,.437-.022,7.513,7.513,0,0,1,1.123.757,1.6,1.6,0,0,1,.421.654.893.893,0,0,1-.19,1.032,10.292,10.292,0,0,0-.749.912c1.068-.145,1.459-.615,1.457-1.566a3.943,3.943,0,0,0-1.2-2.573c-.74-.852-1.586-1.613-2.385-2.416-.233-.233-.469-.463-.688-.708a30.812,30.812,0,0,0-3.791-3.7c-1.4-1.113-2.711-2.345-4.131-3.432a23.835,23.835,0,0,1-2.383-2.315,12.2,12.2,0,0,1-1-1.248c-.307-.4-.144-.85-.059-1.317.063.087.134.17.186.261.259.467.49.953.781,1.4a7.142,7.142,0,0,0,.73.828.984.984,0,0,0,.016-.684,1.444,1.444,0,0,1,.439-1.485,10.626,10.626,0,0,1,2.859-1.877c1.176-.575,2.438-.979,3.579-1.612.838-.465,1.768-.64,2.6-1.068.449-.231.868-.526,1.331-.719,1.044-.431,2.106-.815,3.16-1.22a6.066,6.066,0,0,0,2.867-1.938,3.433,3.433,0,0,0,.558-1.216c.162-.7-.184-1.09-.955-1.183a2.086,2.086,0,0,1,.366,1.226.888.888,0,0,1-.744.963c-.216.065-.435.125-.652.19a.812.812,0,0,1-1.167-.67,7.646,7.646,0,0,1-.061-1.068,26.231,26.231,0,0,1-6.628,2.144,9.459,9.459,0,0,1,.595,1.208,1.294,1.294,0,0,1-.229,1.2c-.057-.135-.125-.216-.109-.275.142-.522-.164-.953-.273-1.422-.079-.344-.39-.37-.757-.482.214.4.6.609.593,1.1-.469-.221-.637-.629-.912-1.054-.484.182-.989.4-1.513.561-.882.273-1.776.506-2.667.756-.828.233-1.657.463-2.484.7a11.24,11.24,0,0,1-3.118.652,7.874,7.874,0,0,1-3.447-.82c-.925-.441-1.865-.849-2.8-1.272a3.606,3.606,0,0,1-.492-.245,8.45,8.45,0,0,0-2.161-.694c-.113-.039-.275.052-.413.089-.833.226-1.669.451-2.5.686-.4.113-.779.281-1.18.364-1.088.224-2.177.477-3.277.607a30.1,30.1,0,0,0-5.2,1.048c-.212.063-.429.115-.66.176-.022-.154-.032-.233-.053-.372a10.924,10.924,0,0,1,1.971-.706c.71-.129,1.41-.306,2.118-.423.951-.158,1.91-.275,2.863-.423.564-.087,1.135-.162,1.689-.3,1.171-.3,2.335-.637,3.5-.963a5.627,5.627,0,0,1,.829-.235,2.174,2.174,0,0,1,.963.028c1.313.486,2.606,1.02,3.907,1.54a1.163,1.163,0,0,1,.324.176,5.978,5.978,0,0,0,3.67,1.21,8.227,8.227,0,0,0,3.229-.611,14.013,14.013,0,0,1,2.48-.7,22.933,22.933,0,0,0,2.5-.653,3.036,3.036,0,0,0,.8-.322,6.263,6.263,0,0,1,2.31-.635,14.815,14.815,0,0,0,2.563-.6c1.09-.358,2.173-.753,3.229-1.2a17.329,17.329,0,0,1,1.934-.8,2.378,2.378,0,0,1,2.4.265.267.267,0,0,0,.221.061c.469-.188.9.069,1.317.168a2.917,2.917,0,0,1,.993.587c.933.706,1.865,1.414,2.772,2.157,1.339,1.1,2.772,2.059,4.176,3.067a34.286,34.286,0,0,0,3.251,2.122c.985.55,2.043.973,3.073,1.443a1.308,1.308,0,0,0,.421.073,14.3,14.3,0,0,0,5.42-.639,6.538,6.538,0,0,1,1.263-.281,2.186,2.186,0,0,1,.953.17,15.323,15.323,0,0,1,1.77.84c.478.269.88.676,1.368.917,1.109.548,2.029,1.38,3.106,1.968a12.275,12.275,0,0,1,1.894,1.247.845.845,0,0,0,.273.135c.945.291,1.89.578,2.873.878.093-.2.158-.372.245-.528.1-.184.225-.127.34,0Z" transform="translate(0.482 21.548)" fill="#001d63"/>
        <path id="Path_3260" d="M309.767,1077.62c0-.391.208-.4.417-.431s.425-.083.637-.124a.467.467,0,0,1,.231-.022,2.348,2.348,0,0,0,2-.281,3.136,3.136,0,0,1,2.59-.374,2.942,2.942,0,0,0,.647.083l.03.141a1.388,1.388,0,0,1-.445.146,6.851,6.851,0,0,0-2.76.733,2.812,2.812,0,0,1-1.556.208,7.822,7.822,0,0,0-.977-.033c-.263-.01-.526-.03-.817-.046" transform="translate(30.651 31.241)" fill="#001d63"/>
        <path id="Path_3261" d="M313.014,1080c1.317-.3,2.622-.655,3.953-.88s2.681-.315,4.022-.467c.065.267-.087.36-.289.391-.789.122-1.576.257-2.369.34a20.369,20.369,0,0,0-4.105.712,4.842,4.842,0,0,1-.965.172c-.089.01-.19-.095-.287-.148l.04-.119" transform="translate(33.932 33.714)" fill="#001d63"/>
        <path id="Path_3262" d="M322.075,1078.517c-.1.073-.192.194-.3.213a5.737,5.737,0,0,1-1.932.087,16.659,16.659,0,0,0-3.239-.109,9.375,9.375,0,0,1-1.167-.049,1.912,1.912,0,0,1-.51-.223l.032-.141c.451-.01.9-.018,1.355-.032a21.7,21.7,0,0,1,3.986.141,9.917,9.917,0,0,0,1.712-.022l.065.135" transform="translate(35.928 33.282)" fill="#001d63"/>
        <path id="Path_3263" d="M309.3,1072.759c.486-.063.975-.1,1.453-.194a1.418,1.418,0,0,1,1.1.273c.36.239.71.494,1.08.716.241.146.508.247.763.368-.348.52-.393.55-.91.271a11.907,11.907,0,0,1-1.416-.864,1.185,1.185,0,0,0-.858-.21,3.349,3.349,0,0,1-.738,0,2.424,2.424,0,0,1-.52-.2l.044-.16" transform="translate(30.131 27.455)" fill="#001d63"/>
        <path id="Path_3264" d="M292.184,1077.186a2.759,2.759,0,0,0-1.329,1.028,3.748,3.748,0,0,1-1.849,1.066,14.654,14.654,0,0,1-1.637.334c.119-.2.156-.354.245-.4a4.092,4.092,0,0,1,.848-.346,4.537,4.537,0,0,0,2.375-1.313c.4-.437.682-.486,1.347-.368" transform="translate(7.734 32.153)" fill="#001d63"/>
        <path id="Path_3265" d="M314.551,1078.132a1.737,1.737,0,0,1,.1.516.812.812,0,0,1-.227.508,11.5,11.5,0,0,1-1.291.779.708.708,0,0,1-.7-.077c-.411-.231-.831-.439-1.246-.654l.041-.5a1.4,1.4,0,0,1,.186.057c.328.17.655.34.979.516a.692.692,0,0,0,.854-.067c.4-.338.805-.663,1.307-1.076" transform="translate(32.101 33.177)" fill="#001d63"/>
        <path id="Path_3266" d="M289.557,1071.285a3.968,3.968,0,0,1,4.589-.581c-.117.061-.213.158-.3.154a5.037,5.037,0,0,1-1.094-.1,3.452,3.452,0,0,0-2.035.216c-.378.125-.769.21-1.155.314" transform="translate(9.973 25.081)" fill="#001d63"/>
        <path id="Path_3267" d="M308.821,1074.317c.386.518.117.965.233,1.4.312-.287.348-.766.848-.987.014.2.087.392.022.484-.37.52-.33,1.3-1.044,1.7,0-.215,0-.348,0-.47-.231.237-.455.467-.68.7l-.1-.077c.152-.429.332-.848.451-1.285s.168-.874.275-1.455" transform="translate(28.94 29.274)" fill="#001d63"/>
        <path id="Path_3268" d="M314.406,1079.952c.437.827.4.921-.259,1.459a.621.621,0,0,1-.619.154c-.51-.156-1.02-.307-1.519-.492-.251-.093-.239-.124-.164-.524.4.14.791.3,1.2.417a.746.746,0,0,0,1.032-.5c.079-.172.03-.425.33-.514" transform="translate(32.729 35.039)" fill="#001d63"/>
        <path id="Path_3269" d="M294.473,1075.623a1.107,1.107,0,0,1-1.354.15c-.32-.176-.684-.467-.993-.427-.538.071-.941-.342-1.447-.257-.026,0-.063-.042-.15-.105a2.281,2.281,0,0,1,.306-.142,2.124,2.124,0,0,1,1.942.237,4.5,4.5,0,0,0,1.22.392c.125.038.251.079.475.151" transform="translate(10.968 29.68)" fill="#001d63"/>
        <path id="Path_3270" d="M296.26,1076.905c.176.206.324.3.328.4a4.2,4.2,0,0,1-.433,2.153c-.111-.119-.261-.208-.253-.277.1-.7.216-1.4.358-2.274" transform="translate(16.465 31.922)" fill="#001d63"/>
        <path id="Path_3271" d="M307.006,1069.9a4.4,4.4,0,0,0-1,.755,4.946,4.946,0,0,0-.441,1.236c-.075-.219-.162-.338-.146-.443a3.56,3.56,0,0,1,.225-1c.237-.5.662-.67,1.364-.548" transform="translate(26.199 24.716)" fill="#001d63"/>
        <path id="Path_3272" d="M289.78,1077.547a.942.942,0,0,1,.443-.7,1.45,1.45,0,0,0,.688-1.22c0-.044.059-.091.1-.144.455.714-.152,1.736-1.226,2.06" transform="translate(10.201 30.471)" fill="#001d63"/>
        <path id="Path_3273" d="M304.729,1069.635l-.459.048-.069-.148.753-.643a.963.963,0,0,1,.164.085c.148.113.441.162.332.419a1.627,1.627,0,0,1-.439.477,2.95,2.95,0,0,1-.281-.239" transform="translate(24.956 23.723)" fill="#001d63"/>
        <path id="Path_3274" d="M305.673,1071.343a1.62,1.62,0,0,1,1.074-1.07c-.051.134-.061.314-.156.392-.265.221-.421.595-.919.678" transform="translate(26.462 25.135)" fill="#001d63"/>
        <path id="Path_3275" d="M296.086,1079l.829-1.244c.069.105.214.261.188.3-.229.328-.484.638-.743.941-.032.036-.14.006-.275.006" transform="translate(16.653 32.791)" fill="#001d63"/>
        <path id="Path_3276" d="M298.278,1080.655a1.521,1.521,0,0,1,.564-1.349c.281.344-.1.469-.17.686-.077.243-.166.481-.249.72l-.146-.057" transform="translate(18.896 34.377)" fill="#001d63"/>
        <path id="Path_3277" d="M309.143,1075.972c-.162-.431,0-.706.617-1.133-.026.488-.028.49-.617,1.133" transform="translate(29.952 29.808)" fill="#001d63"/>
        <path id="Path_3278" d="M298.573,1079.273c.026.055.087.122.071.156-.178.419-.368.832-.577,1.295a1.242,1.242,0,0,1,.506-1.451" transform="translate(18.617 34.344)" fill="#001d63"/>
        <path id="Path_3279" d="M296.766,1068.805c.093.214.164.4.253.574s.184.312.281.473c-.231.219-.346.044-.451-.1-.208-.279-.411-.569-.083-.949" transform="translate(17.172 23.634)" fill="#001d63"/>
        <path id="Path_3280" d="M294.217,1072.079c-.336.4-.672.8-.987,1.174-.085-.49.251-.909.987-1.174" transform="translate(13.717 26.984)" fill="#001d63"/>
        <path id="Path_3281" d="M299.51,1068.094c.413.389.419.4.486.856-.388-.014-.5-.2-.486-.856" transform="translate(20.155 22.907)" fill="#001d63"/>
        <path id="Path_3282" d="M297.3,1070.017c-.528.046-.787-.18-.985-.868l.985.868" transform="translate(16.89 23.986)" fill="#001d63"/>
        <path id="Path_3283" d="M299.6,1067.811a1.333,1.333,0,0,1,.807,1.014,1.514,1.514,0,0,1-.807-1.014" transform="translate(20.249 22.617)" fill="#001d63"/>
        <path id="Path_3284" d="M296.518,1076.462c.109.4-.119.641-.34.892-.083-.431-.04-.55.34-.892" transform="translate(16.711 31.469)" fill="#001d63"/>
        <path id="Path_3285" d="M296.125,1076.448l-.508.38c.048-.419.206-.5.427-.516l.081.136" transform="translate(16.173 31.315)" fill="#001d63"/>
        <path id="Path_3286" d="M304.942,1061.02a20.762,20.762,0,0,0-3.429-1.436,3.3,3.3,0,0,0-2.151,1.766c-.639,1.129-13.209,22.146-13.209,22.146l3.662.755,3.741.771,10.921-18.285s1.163-1.208,1.22,1.058l.059,2.264v14.47l7.324-1.948v-28.7c.3-6.071-9.436-2.662-13.428-2.041v3.6s7.032-3.816,6.917,1.827-.581,3.712-.581,3.712Z" transform="translate(6.49 4.724)" fill="#001d63" fill-rule="evenodd"/>
        <path id="Path_3287" d="M331.14,1086.887l-6.8,1.325-2.968-5.311c-7.688-13.679-9.1-12.177-9.1-12.177l-4.578,4.014a30.426,30.426,0,0,0,.314,4.457h-7.828l-.02-20.914,6.85-.061.427,10.288,12.139-14.872,4.241,2.606-6.911,10.065c5.378,5.61,10.454,14.605,14.229,20.58" transform="translate(20.827 8.114)" fill="#001d63" fill-rule="evenodd"/>
        <path id="Path_3288" d="M320.34,1065.744c-2.349-1.18-3.781-2.375-5.58.33-.718,1.08-5.293,8.1-5.293,8.1l5.153,6.219,5.254-8.93s1.163-1.208,1.222,1.058.057,2.264.057,2.264v16.28l7.326,9.137v-50.937c.293-6.071-9.438-2.663-13.428-2.042v3.6s7.033-3.816,6.917,1.827-.583,13.053-.583,13.053Z" transform="translate(30.344 0)" fill="#001d63" fill-rule="evenodd"/>
    </g>
</svg>
