<svg xmlns="http://www.w3.org/2000/svg" width="281.063" height="81.79" viewBox="0 0 281.063 81.79">
    <g id="true-local-logo-main" transform="translate(-208.034 -1085.334)">
        <path id="Path_4380" d="M229.7,1143.839c3.252.227,7.358-.481,12.421-2.613,11.575-6.845,17.4-14.048,22.841-22.066.694-2.35,1.368-4.6,1.966-6.606-7.125,10.75-12.561,20-27.225,28.671a31.384,31.384,0,0,1-10,2.613m5.672-10.184c-1.076-1.269-2.5-4.118,2.7-7.107h-2.418c-5.993,3.444-3.193,6.7-2.263,7.571A8.2,8.2,0,0,0,235.375,1133.655Zm54.1-38.538-2.438.047c-6,13-12.243,33.282-14.355,46.977H275.1C277.214,1128.431,283.47,1108.115,289.475,1095.117Z" transform="translate(41.527 18.747)" fill="#52b9e4" fill-rule="evenodd"/>
        <path id="Path_4381" d="M255.108,1124.287l.169.044-.169.026Zm2.441-11.214a9.98,9.98,0,0,0-4.867,7.5,4.073,4.073,0,0,0,1.123,3.019,10.385,10.385,0,0,1-1.922.365,3.835,3.835,0,0,1-1.619-3.383,10.475,10.475,0,0,1,7.285-8.653Zm3.018-1.359c-.3.093-.61.2-.936.33v-.717a9.31,9.31,0,0,1,.936-.152Zm6.116-6.282v-3.471a15.648,15.648,0,0,0-2.409-.1v1.738h-.009v1.835l-.029.481h1.6c12.885,0,7.848,23.066-10.747,24.177.181.015.356.026.54.038,20.123.4,25.933-24.215,12.625-24.215h-1.6Z" transform="translate(80.922 31.658)" fill="#52b9e4" fill-rule="evenodd"/>
        <path id="Path_4382" d="M265.08,1113.248v-2.073s-9.181.863-10.3,9.394c0,0-.449,6.11,7.67,3,0,0,5.99-2.881,6.1-7.378,0,0-.335-3.284-2.126-2.94Zm3.7-7.816v-3.471s-14.661-2.181-21.089,13.153c0,0-6.04,14.124,10.035,15.014,20.12.4,25.933-24.212,12.622-24.212h-1.6Z" transform="translate(73.866 31.659)" fill="#001d63" fill-rule="evenodd"/>
        <path id="Path_4383" d="M290.218,1129.378h2.418l11.809-27.277h-2.418Zm-9.554-.294c.327-.143.656-.3.986-.478l-.093-1.6a12.472,12.472,0,0,1-2.316,1.6h1.423Zm-6.422,1.132c.233.052.472.1.717.14a14.494,14.494,0,0,0,3.715-.566l-.052-.878A15.565,15.565,0,0,1,274.242,1130.215Zm9.28-21.319c-5.748,2.1-10.677,11.071-7.521,13.407.295-.041.6-.1.93-.175a5.435,5.435,0,0,0,.983-.344c-1.951-2.876,2.426-10.558,7.667-12.745a1.417,1.417,0,0,0,.388-.408A16.416,16.416,0,0,0,283.522,1108.9Zm4.573-7.046a21.874,21.874,0,0,0-2.281.324c1.31,3.086,2.307,4.535,2.456,5.255.435-1.015.811-1.948,1.12-2.736C289.014,1103.932,288.573,1103,288.1,1101.85Z" transform="translate(126.882 31.65)" fill="#52b9e4" fill-rule="evenodd"/>
        <path id="Path_4384" d="M290.346,1101.85c-18.936,1.665-26.455,26.431-13.133,28.505a14.771,14.771,0,0,0,9.012-3.354l.14,2.377h8.525L306.7,1102.1H298.03s-6.358,18.822-13.413,20.5c-10.406,2.458-2.216-13.544,5.588-14.252,4.366-.4,2.873.073.14-6.5" transform="translate(119.671 31.65)" fill="#001d63" fill-rule="evenodd"/>
        <path id="Path_4385" d="M294.363,1095.117l-16.836.327s-24.941,43.087-36.56,38.9c0,0-5-3.777,2-7.8H230.986c-10.808,0-9.548,25.446,16.026,14.678,17.606-10.411,21.908-21.651,31.8-35.327h.44c-1.826,6.072-10.123,33.417-10.1,36.242h10.832c2.114-13.71,8.37-34.026,14.375-47.024" transform="translate(31.679 18.747)" fill="#001d63" fill-rule="evenodd"/>
        <path id="Path_4386" d="M269.459,1113.718l.394-.516-2.8.518Z" transform="translate(113.098 53.405)" fill="#68939a" fill-rule="evenodd"/>
        <path id="Path_4387" d="M268.19,1116.05l2.421-.023-1.522,5.97-3.135,2.82Zm1.137,17.2-3.786,2.633s-1.414,5.092-1.213,5.358h-2.418c-.2-.266,1.213-5.358,1.213-5.358l5.48-3.812A10.5,10.5,0,0,1,269.327,1133.248Zm18.656,12.552-8.638,1.589-.07-.432,6.294-1.158c-2.409-7.183-3.905-13.308-8.367-20.051l26.283-26.968-2.753-2.068-.006-.006-.093-.067,0,0-1.3-1.007,1.1.015h1.295v0l4.167,3.133-26.28,26.968C284.081,1132.493,285.578,1138.617,287.984,1145.8Z" transform="translate(103.213 19.734)" fill="#52b9e4" fill-rule="evenodd"/>
        <path id="Path_4388" d="M290.864,1145.524l-8.641,1.589-.274-1.7c-4.363-16.44-6.594-14.638-6.594-14.638l-6.935,4.827s-1.414,5.092-1.213,5.358H257.8l7.282-25.137,8.408-.076-3.156,12.365,34.037-32.34,4.168,3.132L282.5,1125.474c4.462,6.743,5.958,12.867,8.364,20.051" transform="translate(95.375 20.01)" fill="#001d63" fill-rule="evenodd"/>
        <path id="Path_4389" d="M303.638,1113.975s-3.494-1.752-4.124-1.726a3.966,3.966,0,0,0-2.584,2.123c-.77,1.359-15.97,26.852-15.97,26.852l8.245,2.969,13.873-23.346s1.4-1.452,1.467,1.269l.07,2.724v15.048h8.8v-39.281c.356-7.3-11.342-3.2-16.139-2.455v4.331s8.455-4.585,8.318,2.2a54.059,54.059,0,0,1-.7,9.248Z" transform="translate(139.757 21.077)" fill="#001d63" fill-rule="evenodd"/>
        <path id="Path_4390" d="M295.164,1102.471a15.86,15.86,0,0,1,1.928-.843,2.732,2.732,0,0,0-.665-.347,14.488,14.488,0,0,0-3.593,1.19Zm13.7,37.417h2.418v-39.281c.184-3.762-2.838-4.5-6.463-4.223,2.447.236,4.185,1.342,4.045,4.223Zm-24.195,4.29,2.4.015,9.974-16.79v-2.563L297,1123.4Zm12.905-31.9a.9.9,0,0,0-.166-.029h-2.068c.58.25,1.391.621,2.109.957C297.483,1112.964,297.523,1112.658,297.57,1112.279Z" transform="translate(146.857 21.076)" fill="#52b9e4" fill-rule="evenodd"/>
        <path id="Path_4391" d="M255.468,1106.2h2.418l5.948-8.535h-2.418Z" transform="translate(90.903 23.625)" fill="#52b9e4" fill-rule="evenodd"/>
        <path id="Path_4392" d="M256.979,1106.2l5.948-8.535h-6.89l-2.684,8.536Z" transform="translate(86.85 23.624)" fill="#001d63" fill-rule="evenodd"/>
        <path id="Path_4393" d="M213.975,1098.574v11.6h-1.336v-11.6Zm5.643-3.444h1.336v2.943h-1.336Z" transform="translate(8.825 18.772)" fill="#52b9e4" fill-rule="evenodd"/>
        <path id="Path_4394" d="M208.034,1095.13h19.519v2.942h-6.979v12.1h-5.56v-12.1h-6.98Z" transform="translate(0 18.772)" fill="#002677" fill-rule="evenodd"/>
        <path id="Path_4395" d="M233.842,1095.13h1.336l3.424,4.847-.644.974Zm7.236,8.9v6.139h-1.336v-6.139h.05l5.923-8.9h1.336l-5.923,8.9h-.05Z" transform="translate(49.459 18.772)" fill="#52b9e4" fill-rule="evenodd"/>
        <path id="Path_4396" d="M243.025,1104.034v6.138h-5.387v-6.138h-.049l-5.924-8.9h5.458l4.859,6.876,4.567-6.876H249l-5.924,8.9h-.049Z" transform="translate(45.287 18.772)" fill="#002677" fill-rule="evenodd"/>
        <path id="Path_4397" d="M219.37,1104.059v-5.55c-.475.011-.933.035-1.333.055V1104c.4.021.855.044,1.333.055m.023,3.864v2.252h-1.336v-2.252Zm8.219-12.759a6.121,6.121,0,1,1-.009,12.24,7.682,7.682,0,0,0,1.619-.857,5.888,5.888,0,0,0,0-10.525A7.651,7.651,0,0,0,227.612,1095.164Z" transform="translate(19.17 18.837)" fill="#52b9e4" fill-rule="evenodd"/>
        <path id="Path_4398" d="M229.143,1101.294c0,4.077-5.737,3.194-8,3.194V1098.1c2.26,0,8-.884,8,3.191m-13.194-6.136h13.1v0a6.154,6.154,0,1,1-.16,12.272c-.108,0-.213,0-.321-.006v.006h-7.4v2.753h-5.218Z" transform="translate(15.169 18.826)" fill="#002677" fill-rule="evenodd"/>
        <path id="Path_4399" d="M230.3,1107.075a4.568,4.568,0,0,1,0-8.443,5.225,5.225,0,0,0-2.386.648,4.486,4.486,0,0,0,0,7.148,5.209,5.209,0,0,0,2.383.647m4.281-11.981c5.2.662,9.143,3.885,9.143,7.76s-3.946,7.1-9.143,7.758a13.937,13.937,0,0,0,3.826-1.715l.006,0c2.429-1.447,3.975-3.616,3.975-6.04s-1.546-4.6-3.975-6.04l-.006-.006A13.976,13.976,0,0,0,234.585,1095.094Z" transform="translate(34.709 18.703)" fill="#52b9e4" fill-rule="evenodd"/>
        <path id="Path_4400" d="M234.9,1098.211a4.739,4.739,0,1,1-5.124,4.724,4.937,4.937,0,0,1,5.124-4.724m0-3.159c6.142,0,11.123,3.529,11.123,7.883s-4.981,7.883-11.123,7.883-11.12-3.529-11.12-7.883S228.762,1095.052,234.9,1095.052Z" transform="translate(30.184 18.623)" fill="#002677" fill-rule="evenodd"/>
        <path id="Path_4401" d="M246,1102.205a1.078,1.078,0,0,0,.146.686,1.474,1.474,0,0,0,.653.673,3.766,3.766,0,0,0,2.036.026c.149-.02.33.143.213.295a5.339,5.339,0,0,0-.4.461c-.163.323-.21.688.14.9a1.628,1.628,0,0,0,.615.166c.414.05.831.035,1.248.044a.2.2,0,0,1,.035.382,3.931,3.931,0,0,1-1.353.044,15.392,15.392,0,0,1-1.388,1.768c-.405.49-.612.811-.974,1.33.452.012.822.021,1.018.023,1.694.011,6.515.082,7.122.067a13.421,13.421,0,0,0,6.568-2.19,12.32,12.32,0,0,0,4.459-9.647,44.821,44.821,0,0,0-.286-5.783.573.573,0,0,1,.435-.49c.691-.021.962.712,1.336,1.085.3.3.292.5.5.572.1.035.341.044.216-.91-.064-.5-.61-3.243-1.729-4.491a4.349,4.349,0,0,0-3.368-1.408c-1.476.1-2.709,1.131-3.074,3.208-.321,1.843-.677,3.756-1.96,4.946a63.363,63.363,0,0,1-5.357,4.235,3.515,3.515,0,0,0,.207.93,3.462,3.462,0,0,0,1.578,1.566.187.187,0,0,1-.058.332.97.97,0,0,0-.379,1.61,3.115,3.115,0,0,0,.717.528.2.2,0,0,1-.058.356c-.685.134-.854.568-.577,1.274a2.546,2.546,0,0,0,.653.9c.187.172-.1.426-.28.263a2.644,2.644,0,0,1-.954-1.887.978.978,0,0,1,.68-.79,1.658,1.658,0,0,1-.822-1.248,1.336,1.336,0,0,1,.618-1.193,3.357,3.357,0,0,1-1.318-1.35,2.968,2.968,0,0,1-.251-1.114c-.464.321-.913.621-1.339.884-.006.114-.018.224-.023.341-.061.959.44,1.423,1.164,1.971.12.093.122.338-.061.365-1.391.2-.268,1.546.338,1.764a.21.21,0,0,1-.073.408.281.281,0,0,0-.3.184c-.058.146.1.464.1.464.067.125.137.248.21.373a8.041,8.041,0,0,0,.525.779c.155.213-.146.493-.3.283-.429-.577-1.414-1.843-.741-2.327-.852-.583-1.21-1.732-.213-2.2a2.35,2.35,0,0,1-.93-1.251,2.756,2.756,0,0,1-.018-.954l-.262.152c-1.925,1.117-3.523,1.942-4.675,2.6" transform="translate(72.734 0.898)" fill="#002677" fill-rule="evenodd"/>
        <path id="Path_4402" d="M245.808,1096.158c-.128.14-.257.295-.382.44.621,0,1.21,0,1.721.006a17.4,17.4,0,0,1,1.169-1.587c.51-.607,1.237-1.1,1.691-1.75a1.538,1.538,0,0,1-.609-.315.85.85,0,0,1-.318-.607,27.236,27.236,0,0,1-1.884,2.263c-.458.519-.927,1.03-1.388,1.549" transform="translate(71.659 13.437)" fill="#002677" fill-rule="evenodd"/>
        <path id="Path_4403" d="M249.258,1092.114c-1.587,1.59-2.978,3.395-4.538,5.016.443-.006.892-.012,1.336-.015.213-.242.452-.467.668-.7.438-.469.872-.945,1.312-1.414.825-.878,1.773-1.683,2.505-2.637v0c.047-.1.093-.193.146-.286a2.675,2.675,0,0,1-1.429.035" transform="translate(70.306 12.925)" fill="#002677" fill-rule="evenodd"/>
        <path id="Path_4404" d="M246.116,1095.4c-.8.753-1.537,1.59-2.342,2.351.528-.015,1.184-.026,1.9-.038a45.993,45.993,0,0,1,5.22-5.086,1.953,1.953,0,0,1-.365-.2,1.829,1.829,0,0,1-.563-.648l-.009.015c-1.257,1.225-2.566,2.4-3.838,3.6" transform="translate(68.493 12.354)" fill="#002677" fill-rule="evenodd"/>
        <path id="Path_4405" d="M242.871,1097.975c.09.216,1.012.376,1.426.353.041,0,.166-.006.353-.012,2.252-2.114,4.488-4.223,6.929-6.13a.131.131,0,0,1,.073-.021,5.478,5.478,0,0,1-.242-.668l-.458.28c-1.143.726-7.209,5.054-7.571,5.293s-.6.685-.51.9" transform="translate(66.725 11.81)" fill="#002677" fill-rule="evenodd"/>
        <path id="Path_4406" d="M340.466,1125.784l.111.105a.957.957,0,0,0,.088.052c2.855.968-.009-2,.315-3.494,11.663-3.054,6.667-12.544,3-12.194-2.566,3.646.735,8.458-2.686,10.59-.464-5.789.277-9.2-2.281-14.871-.752-1.674-1.691-2.319-2.424-4.2,2.756,1.336,9.2,5.842,11.526,2.753,2.251-2.992,2.275-8.507-2.211-6.719-3.82,3.549-6.781,2.356-13.424-.251-2.806-1.1-9.414-4.634-11.826-5.051,8.064.849,9.2-11.377-1.525-5.626-3.718,1.992-3.882,2.263-9.044,2.508-3.418.161-7.379.575-9.5,2.182a.353.353,0,0,1,0-.2.772.772,0,0,0,.006-.2c.012-.843-.085-1.038-.925-1.409-2.219,3.94-7.3,7.743-10.356,11.622-2.835,3.6-12.634,17.248-6.527,18.6,2.368.408,4.357-1.312,4.3-4.165-.05-2.426-1.8-4.538-.653-6.632,2.765-5.034,9.018,0,12.806-2.844,1.307-3.158-1.324-5.3-4.319-4.439-2.307.659-4.307,2.692-6.334,3.339,1.709-3.053,4.3-5.7,7.883-6.212,4.238-.61,9.018,4.8,11.176,2.7,1.231-.808.785-2.785.362-3.777-1.671-3.92-8.4-3.325-11.2-2.112,1.665-1.391,3.185-2.907,5.672-3.182,10.7-1.172,7.939,13.486,15.676,12.488,1.686-3.205.677-7.568-.954-9.621-2.085-2.628-5.757-3.885-9.49-4.713,4.777-1.662,11.867,2.132,13.369,6.688,1.429,4.328.274,14.445,3.485,14.833,2.24.274,2.6-3.284,2.494-4.818-.333-4.663-3.1-9.5-6.046-12.981l-.843-1.193a31.655,31.655,0,0,1,16.113,10.228,14.289,14.289,0,0,1,3.462,7.729,61.954,61.954,0,0,1,.338,9.752c-5.961-1.808-.44-7.236-3.847-9.679-4.929-3.538-5.745,5.171.108,9.222,1.1.758,2.66,1.085,3.657,1.91-.414,2.514-2.383,1.837-1.776,3.01.927.8-.079.018.58.166.023,0,.117.017.137.023l.376.1c-.531,1.8-1.835,6.859-3.068,7.877-2.561,2.117-4.6-1.627-7.075-1.385-4.765.467-2.006,7.729,2.811,5.194l2.826-1.663c-.837,2.2-3.8,4.812-3.882,6.276,2.082.181,3.669-3.8,5.051-5.436.449,2.7-1.234,4.179.341,8.02,1.435,3.5,4.792-.134,3.753-2.96-.866-2.363-3.293-3.132-2.829-6.673.251-1.917,2.526-6.519,3.223-9.272" transform="translate(139.489)" fill="#002677" fill-rule="evenodd"/>
    </g>
</svg>
