<svg xmlns="http://www.w3.org/2000/svg" xmlns:xlink="http://www.w3.org/1999/xlink" width="88.1" height="107.101" viewBox="0 0 88.1 107.101">
    <defs>
        <filter id="Path_554" x="0" y="19" width="88.1" height="88.101" filterUnits="userSpaceOnUse">
            <feOffset />
            <feGaussianBlur stdDeviation="3" result="blur"/>
            <feFlood flood-opacity="0.29"/>
            <feComposite operator="in" in2="blur"/>
            <feComposite in="SourceGraphic"/>
        </filter>
    </defs>
    <g id="Group_12140" transform="translate(-107.488 -936.881)">
        <g id="Group_12139" transform="translate(-14.349 -153.05)">
            <text id="Δώρα" transform="translate(165.836 1106.931)" fill="#002677" font-size="16" font-family="SegoeUI, Segoe UI"><tspan x="-21.223" y="0">Δώρα</tspan></text>
        </g>
        <g id="rhombus" transform="translate(116.488 964.881)">
            <g transform="matrix(1, 0, 0, 1, -9, -28)" filter="url(#Path_554)">
                <path id="Path_554-2" d="M145.27,149.571A14.549,14.549,0,0,1,136.3,146.6a146.217,146.217,0,0,1-23.084-23.077,15.061,15.061,0,0,1-.028-17.979,146.2,146.2,0,0,1,23.08-23.087,15.06,15.06,0,0,1,17.978-.028,146.136,146.136,0,0,1,23.086,23.082,15.053,15.053,0,0,1,.028,17.978,146.042,146.042,0,0,1-23.078,23.085,14.622,14.622,0,0,1-9.007,2.992Z" transform="translate(-101.22 -51.47)" fill="#002677"/>
            </g>
            <path id="Path_555" d="M146.912,149.505a12.86,12.86,0,0,1-7.936-2.6,144.07,144.07,0,0,1-22.783-22.78,13.4,13.4,0,0,1-.022-15.9A144.081,144.081,0,0,1,138.95,85.443a13.4,13.4,0,0,1,15.9-.02A144.316,144.316,0,0,1,177.632,108.2a13.4,13.4,0,0,1,.021,15.9,144.233,144.233,0,0,1-22.777,22.783,12.915,12.915,0,0,1-7.963,2.623Z" transform="translate(-111.863 -81.112)" fill="#fff"/>
            <path id="Path_556" d="M150.2,149.375a9.334,9.334,0,0,1-5.653-1.79,142.083,142.083,0,0,1-22.436-22.423v0a9.805,9.805,0,0,1-.028-11.374h0A142.3,142.3,0,0,1,144.5,91.367a9.82,9.82,0,0,1,11.349-.05,142.19,142.19,0,0,1,22.442,22.434,9.808,9.808,0,0,1,.043,11.355l.006-.006-.006.006a.053.053,0,0,1-.015.018,141.941,141.941,0,0,1-22.409,22.418,9.37,9.37,0,0,1-5.707,1.832Z" transform="translate(-115.155 -84.406)" fill="#fff"/>
        </g>
        <g id="gift" transform="translate(137.323 983.652)">
            <path id="Path_3965" d="M59.606,242.182l-3.091-1.126a.892.892,0,0,0-.324-.057h-19.8a.945.945,0,0,0-.954.954v13.418a2.858,2.858,0,0,0,2.862,2.862H57.374a2.858,2.858,0,0,0,2.862-2.862V243.078A.946.946,0,0,0,59.606,242.182Z" transform="translate(-35.247 -225.673)" fill="#00195a"/>
            <path id="Path_3966" d="M242.835,243.078v12.292a2.858,2.858,0,0,1-2.862,2.862h-9.539V241h8.356a.891.891,0,0,1,.324.057l3.091,1.126A.946.946,0,0,1,242.835,243.078Z" transform="translate(-217.847 -225.673)" fill="#00195a"/>
            <path id="Path_3967" d="M174.551,6.219a3.862,3.862,0,0,0-2.614-2.766,3.8,3.8,0,0,0-3.7.8L166.023,6.2l-.439-2.919a3.865,3.865,0,0,0-2.346-3,3.622,3.622,0,0,0-.744-.21,3.794,3.794,0,0,0-3.014.668,3.852,3.852,0,0,0,.954,6.753l2.06.744,2.537.935h.019l4.407,1.622a4.093,4.093,0,0,0,1.335.229,3.887,3.887,0,0,0,3.758-4.808Z" transform="translate(-149.906 0)" fill="#52b9e4"/>
            <path id="Path_3968" d="M60.733,62.1l-1.3,3.587a.966.966,0,0,1-.9.61.892.892,0,0,1-.324-.057l-9.863-3.587-.9-2.957-2.385.534-2.1.477-9.863-3.587a.971.971,0,0,1-.572-1.221l1.316-3.586a2.844,2.844,0,0,1,3.663-1.717l7.555,2.747.515.191s2.06,3.739,2.118,3.739c.038,0,.858-.458,1.66-.9s1.6-.9,1.6-.9l8.051,2.938A2.892,2.892,0,0,1,60.638,59.9,2.824,2.824,0,0,1,60.733,62.1Z" transform="translate(-32.482 -47.211)" fill="#00195a"/>
            <path id="Path_3969" d="M246.1,105.156l-1.3,3.587a.966.966,0,0,1-.9.61.892.892,0,0,1-.324-.057l-9.863-3.587-.9-2.957-2.385.534V96.4l.515.191s2.06,3.739,2.118,3.739c.038,0,.858-.458,1.66-.9s1.6-.9,1.6-.9l8.051,2.938A2.892,2.892,0,0,1,246,102.962,2.824,2.824,0,0,1,246.1,105.156Z" transform="translate(-217.847 -90.269)" fill="#00195a"/>
            <g id="Group_12107" transform="translate(9.727 6.321)">
                <path id="Path_3970" d="M185.435,241v17.233h5.723V241Z" transform="translate(-185.435 -231.994)" fill="#52b9e4"/>
                <path id="Path_3971" d="M200.049,99.4l-.515,1.412-2.1,5.761,2.1.763,2.385.858.9.324,2.614-7.173Z" transform="translate(-196.672 -99.398)" fill="#52b9e4"/>
            </g>
        </g>
    </g>
</svg>
