<svg xmlns="http://www.w3.org/2000/svg" width="87.847" height="87.848" viewBox="0 0 87.847 87.848">
  <g id="Group_12137" transform="translate(-20.617 -955.157)">
    <g id="rhombus" transform="translate(20.617 955.157)">
      <path id="Path_551" d="M154.144,167.318A18.232,18.232,0,0,1,142.9,163.6a183.236,183.236,0,0,1-28.928-28.92,18.875,18.875,0,0,1-.035-22.531,183.209,183.209,0,0,1,28.923-28.932,18.873,18.873,0,0,1,22.53-.035,183.134,183.134,0,0,1,28.931,28.926,18.863,18.863,0,0,1,.034,22.53,183.015,183.015,0,0,1-28.921,28.93,18.324,18.324,0,0,1-11.287,3.75Z" transform="translate(-110.221 -79.47)" fill="#fff"/>
      <path id="Path_552" d="M155.354,166.388a16.116,16.116,0,0,1-9.945-3.261,180.544,180.544,0,0,1-28.55-28.547,16.788,16.788,0,0,1-.028-19.92,180.556,180.556,0,0,1,28.546-28.553,16.8,16.8,0,0,1,19.927-.026,180.852,180.852,0,0,1,28.549,28.546,16.8,16.8,0,0,1,.026,19.922A180.749,180.749,0,0,1,165.333,163.1a16.185,16.185,0,0,1-9.979,3.287Z" transform="translate(-111.431 -80.68)" fill="#b1b1b1"/>
      <path id="Path_553" d="M159.4,169.05a12.069,12.069,0,0,1-7.39-2.379,187.3,187.3,0,0,1-29.33-29.8v0a13.2,13.2,0,0,1-.036-15.114h0a187.6,187.6,0,0,1,29.3-29.789,12.669,12.669,0,0,1,14.836-.066,187.446,187.446,0,0,1,29.338,29.811,13.209,13.209,0,0,1,.056,15.089l.007-.007-.007.007a.07.07,0,0,1-.019.024,187.115,187.115,0,0,1-29.295,29.789,12.117,12.117,0,0,1-7.46,2.434Z" transform="translate(-115.476 -85.37)" fill="#fff"/>
    </g>
    <g id="true-local-logo" transform="translate(31.763 955.571)">
      <g id="Group_11806" transform="translate(0 22.518)">
        <path id="Path_455" d="M869.173,369.561a6.1,6.1,0,0,0,2.741-.576,14.656,14.656,0,0,0,5.041-4.869c.153-.519.3-1.016.433-1.458-1.573,2.372-2.772,4.413-6.008,6.327a6.917,6.917,0,0,1-2.208.576m1.251-2.247c-.237-.28-.551-.909.6-1.569h-.533c-1.323.76-.7,1.48-.5,1.671A1.807,1.807,0,0,0,870.424,367.314Zm11.939-8.505-.538.01a45.431,45.431,0,0,0-3.168,10.367h.533A45.439,45.439,0,0,1,882.364,358.809Z" transform="translate(-852.223 -343.892)" fill="#6bc4e8" fill-rule="evenodd"/>
        <path id="Path_456" d="M995.034,404.662l.037.009-.037.006Zm.539-2.475a2.2,2.2,0,0,0-1.074,1.654.9.9,0,0,0,.248.666,2.268,2.268,0,0,1-.424.08.845.845,0,0,1-.357-.747,2.311,2.311,0,0,1,1.608-1.91Zm.666-.3c-.065.021-.135.045-.206.073V401.8c.128-.026.206-.034.206-.034Zm1.35-1.386v-.766a3.444,3.444,0,0,0-.531-.022v.383h0v.4l-.007.107h.353c2.844,0,1.732,5.09-2.371,5.335l.119.008c4.441.087,5.723-5.344,2.786-5.344h-.352Z" transform="translate(-963.784 -380.458)" fill="#6bc4e8" fill-rule="evenodd"/>
        <path id="Path_457" d="M975.7,402.224v-.458a2.543,2.543,0,0,0-2.273,2.073s-.1,1.348,1.693.661c0,0,1.322-.636,1.347-1.628,0,0-.074-.725-.469-.649Zm.816-1.725v-.766a4.478,4.478,0,0,0-4.654,2.9,2.243,2.243,0,0,0,2.215,3.313c4.441.087,5.723-5.343,2.786-5.343h-.353Z" transform="translate(-943.802 -380.457)" fill="#002677" fill-rule="evenodd"/>
        <path id="Path_458" d="M1143.081,405.759h.534l2.605-6.019h-.534Zm-2.109-.065c.072-.031.145-.067.217-.106l-.021-.354a2.741,2.741,0,0,1-.511.352h.314Zm-1.417.25c.051.012.1.023.158.031a3.213,3.213,0,0,0,.82-.125l-.011-.194A3.439,3.439,0,0,1,1139.555,405.944Zm2.048-4.705c-1.269.464-2.356,2.443-1.66,2.959.065-.009.133-.022.205-.039a1.191,1.191,0,0,0,.217-.076c-.431-.635.536-2.33,1.692-2.813a.316.316,0,0,0,.086-.09A3.7,3.7,0,0,0,1141.6,401.239Zm1.009-1.555a4.863,4.863,0,0,0-.5.072c.289.681.509,1,.542,1.16.1-.224.179-.43.247-.6C1142.815,400.144,1142.718,399.938,1142.612,399.684Z" transform="translate(-1093.939 -380.434)" fill="#6bc4e8" fill-rule="evenodd"/>
        <path id="Path_459" d="M1121.094,399.684c-4.179.368-5.838,5.833-2.9,6.291a3.259,3.259,0,0,0,1.989-.74l.031.524h1.881l2.606-6.019h-1.912s-1.4,4.153-2.96,4.524c-2.3.542-.489-2.989,1.234-3.145.963-.088.633.016.031-1.434" transform="translate(-1073.516 -380.434)" fill="#002677" fill-rule="evenodd"/>
        <path id="Path_460" d="M853.38,358.809l-3.716.072s-5.5,9.508-8.068,8.585c0,0-1.1-.833.442-1.721h-2.644c-2.385,0-2.107,5.615,3.537,3.239,3.885-2.3,4.834-4.778,7.018-7.8h.1c-.4,1.34-2.234,7.374-2.229,8h2.391a45.424,45.424,0,0,1,3.173-10.378" transform="translate(-824.333 -343.892)" fill="#002677" fill-rule="evenodd"/>
        <path id="Path_461" d="M1096.419,468.711l.087-.114-.619.114Z" transform="translate(-1054.901 -442.041)" fill="#82a6ad" fill-rule="evenodd"/>
        <path id="Path_462" d="M1065.965,366.445l.535,0-.336,1.317-.692.622Zm.251,3.8-.836.582a8.746,8.746,0,0,0-.268,1.182h-.533a8.673,8.673,0,0,1,.268-1.182l1.209-.841A2.34,2.34,0,0,1,1066.217,370.24Zm4.117,2.77-1.907.351-.015-.1,1.389-.255a16.9,16.9,0,0,0-1.846-4.425l5.8-5.951-.607-.457h0l-.02-.015h0l-.286-.222.243,0h.286l.919.691-5.8,5.951A16.915,16.915,0,0,1,1070.334,373.01Z" transform="translate(-1026.909 -346.691)" fill="#6bc4e8" fill-rule="evenodd"/>
        <path id="Path_463" d="M1047.042,373.789l-1.907.351-.061-.375c-.963-3.628-1.455-3.23-1.455-3.23l-1.53,1.065a8.69,8.69,0,0,0-.268,1.182h-2.076l1.607-5.547,1.856-.016-.7,2.729,7.512-7.137.92.691-5.747,5.863a16.89,16.89,0,0,1,1.846,4.425" transform="translate(-1004.712 -347.469)" fill="#002677" fill-rule="evenodd"/>
        <path id="Path_464" d="M1185.341,370.084a5.506,5.506,0,0,0-.91-.381.878.878,0,0,0-.57.469c-.17.3-3.524,5.926-3.524,5.926l1.819.655,3.062-5.152s.308-.32.324.28l.015.6V375.8h1.943v-8.669c.078-1.611-2.5-.706-3.562-.542v.956s1.866-1.012,1.835.485a11.934,11.934,0,0,1-.154,2.041Z" transform="translate(-1130.398 -350.491)" fill="#002677" fill-rule="evenodd"/>
        <path id="Path_465" d="M1205.146,367.544a3.508,3.508,0,0,1,.426-.186.58.58,0,0,0-.147-.076,3.179,3.179,0,0,0-.793.262Zm3.023,8.258h.533v-8.669c.04-.831-.626-.993-1.427-.932.54.052.924.3.893.932Zm-5.339.947.529,0,2.2-3.7v-.566l-.008-.318Zm2.847-7.04a.213.213,0,0,0-.036-.006h-.456c.128.055.307.137.465.211C1205.658,369.86,1205.668,369.792,1205.677,369.709Z" transform="translate(-1150.506 -350.491)" fill="#6bc4e8" fill-rule="evenodd"/>
        <path id="Path_466" d="M1025.58,376.146h.534l1.313-1.884h-.534Z" transform="translate(-992.048 -357.707)" fill="#6bc4e8" fill-rule="evenodd"/>
        <path id="Path_467" d="M1013.542,376.144l1.313-1.884h-1.521l-.592,1.884Z" transform="translate(-980.57 -357.706)" fill="#002677" fill-rule="evenodd"/>
        <path id="Path_468" d="M765.877,359.65v2.56h-.295v-2.56Zm1.245-.76h.295v.649h-.295Z" transform="translate(-759.614 -343.965)" fill="#6bc4e8" fill-rule="evenodd"/>
        <path id="Path_469" d="M737.626,358.89h4.308v.649h-1.54v2.671h-1.227v-2.671h-1.54Z" transform="translate(-734.622 -343.965)" fill="#002677" fill-rule="evenodd"/>
        <path id="Path_470" d="M894.3,358.89h.295l.756,1.069-.143.215Zm1.6,1.965v1.355H895.6v-1.355h.011l1.307-1.965h.295l-1.307,1.965H895.9Z" transform="translate(-874.685 -343.965)" fill="#6bc4e8" fill-rule="evenodd"/>
        <path id="Path_471" d="M883.59,360.855v1.355H882.4v-1.355h-.011l-1.307-1.965h1.2l1.072,1.517,1.008-1.517h.54l-1.307,1.965h-.011Z" transform="translate(-862.87 -343.965)" fill="#002677" fill-rule="evenodd"/>
        <path id="Path_472" d="M798.644,361.058v-1.225c-.105,0-.206.008-.295.012v1.2c.089,0,.189.01.295.012m0,.853v.5h-.295v-.5Zm1.814-2.816a1.351,1.351,0,1,1,0,2.7,1.692,1.692,0,0,0,.357-.19,1.3,1.3,0,0,0,0-2.322A1.691,1.691,0,0,0,800.463,359.1Z" transform="translate(-788.908 -344.148)" fill="#6bc4e8" fill-rule="evenodd"/>
        <path id="Path_473" d="M788.587,360.414c0,.9-1.266.7-1.764.7v-1.409c.5,0,1.764-.195,1.764.7m-2.912-1.355h2.891a1.358,1.358,0,1,1-.036,2.708h-1.7v.608h-1.152Z" transform="translate(-777.577 -344.116)" fill="#002677" fill-rule="evenodd"/>
        <path id="Path_474" d="M848.494,361.317a1.008,1.008,0,0,1,0-1.863,1.146,1.146,0,0,0-.527.143.991.991,0,0,0,0,1.577,1.146,1.146,0,0,0,.526.143m.945-2.644c1.147.146,2.017.857,2.017,1.712s-.87,1.566-2.017,1.712a3.084,3.084,0,0,0,.844-.379h0a1.451,1.451,0,0,0,0-2.666h0A3.087,3.087,0,0,0,849.438,358.673Z" transform="translate(-832.915 -343.771)" fill="#6bc4e8" fill-rule="evenodd"/>
        <path id="Path_475" d="M835.7,359.112a1.046,1.046,0,1,1-1.131,1.042,1.089,1.089,0,0,1,1.131-1.042m0-.7c1.355,0,2.454.779,2.454,1.74s-1.1,1.74-2.454,1.74-2.454-.779-2.454-1.74S834.342,358.415,835.7,358.415Z" transform="translate(-820.102 -343.54)" fill="#002677" fill-rule="evenodd"/>
        <path id="Path_476" d="M968.029,305.886a.241.241,0,0,0,.033.152.328.328,0,0,0,.144.149.837.837,0,0,0,.449.006c.033,0,.073.032.047.065a1.028,1.028,0,0,0-.089.1c-.036.071-.047.152.031.2a.36.36,0,0,0,.136.037,2.723,2.723,0,0,0,.275.01.043.043,0,0,1,.008.085.865.865,0,0,1-.3.009,3.376,3.376,0,0,1-.307.39c-.09.108-.135.179-.215.294l.225,0c.374,0,1.437.019,1.572.015a2.959,2.959,0,0,0,1.449-.483,2.718,2.718,0,0,0,.984-2.129,9.933,9.933,0,0,0-.063-1.277.126.126,0,0,1,.1-.108c.152,0,.212.157.294.239.066.067.064.111.11.126.022.008.075.01.048-.2a2.338,2.338,0,0,0-.382-.991.959.959,0,0,0-.743-.311.754.754,0,0,0-.679.709,1.873,1.873,0,0,1-.433,1.091,13.769,13.769,0,0,1-1.182.934.8.8,0,0,0,.046.206.762.762,0,0,0,.348.345.041.041,0,0,1-.013.074.214.214,0,0,0-.083.355.668.668,0,0,0,.158.116.044.044,0,0,1-.013.079c-.151.029-.189.125-.127.281a.556.556,0,0,0,.144.2c.041.038-.021.094-.062.058a.586.586,0,0,1-.21-.416.216.216,0,0,1,.15-.174.367.367,0,0,1-.181-.276.3.3,0,0,1,.136-.263.741.741,0,0,1-.291-.3.669.669,0,0,1-.056-.246c-.1.071-.2.137-.3.2,0,.025,0,.05-.005.075-.013.212.1.314.257.435.027.02.027.074-.013.081-.307.045-.059.341.075.389a.046.046,0,0,1-.016.09.062.062,0,0,0-.067.041c-.013.032.022.1.022.1.015.028.03.055.046.082a1.942,1.942,0,0,0,.116.172c.034.047-.032.109-.066.062-.094-.127-.312-.406-.163-.513-.188-.129-.267-.382-.047-.484a.521.521,0,0,1-.2-.277.609.609,0,0,1,0-.211l-.057.034c-.425.247-.777.429-1.032.572" transform="translate(-940.596 -293.344)" fill="#002677" fill-rule="evenodd"/>
        <path id="Path_477" d="M964.706,342.829c-.028.031-.056.065-.084.1H965a3.822,3.822,0,0,1,.258-.35c.112-.134.273-.244.373-.387a.336.336,0,0,1-.134-.069.184.184,0,0,1-.07-.134,6.073,6.073,0,0,1-.416.5c-.1.115-.2.227-.306.341" transform="translate(-937.552 -328.855)" fill="#002677" fill-rule="evenodd"/>
        <path id="Path_478" d="M961.336,340.375c-.35.35-.657.749-1,1.107l.295,0c.047-.054.1-.1.147-.154l.29-.312c.182-.194.391-.371.553-.582h0c.01-.021.02-.042.032-.063a.59.59,0,0,1-.316.008" transform="translate(-933.72 -327.405)" fill="#002677" fill-rule="evenodd"/>
        <path id="Path_479" d="M955.111,339.36c-.175.166-.339.351-.516.519l.418-.008a10.236,10.236,0,0,1,1.152-1.123.372.372,0,0,1-.081-.043.4.4,0,0,1-.124-.143l0,0c-.278.271-.566.529-.847.8" transform="translate(-928.588 -325.791)" fill="#002677" fill-rule="evenodd"/>
        <path id="Path_480" d="M949,338.265c.02.048.224.083.315.078l.078,0c.5-.467.99-.932,1.529-1.353a.026.026,0,0,1,.016,0,1.215,1.215,0,0,1-.053-.147l-.1.062c-.252.16-1.591,1.115-1.67,1.168s-.133.151-.113.2" transform="translate(-923.579 -324.249)" fill="#002677" fill-rule="evenodd"/>
        <path id="Path_481" d="M718.628,432.031l.011.026.01.015c.4.375.149-.333.315-.557,2.166.367,2.048-1.584,1.413-1.8-.7.413-.512,1.46-1.241,1.558a6.665,6.665,0,0,0,.737-2.641c0-.334-.108-.512-.088-.879.358.429,1.091,1.66,1.708,1.321.6-.328,1.016-1.242.137-1.282-.9.3-1.3-.117-2.211-1.048a21.191,21.191,0,0,0-1.586-1.726c1.276.745,2.38-1.2.168-1.049a2.639,2.639,0,0,1-1.69-.262,3.444,3.444,0,0,0-1.742-.35.067.067,0,0,1,.015-.033.14.14,0,0,0,.016-.032c.065-.139.064-.179-.048-.3a22.2,22.2,0,0,1-2.592,1.154c-.741.386-3.391,1.918-2.479,2.6a.676.676,0,0,0,1.026-.37c.173-.407.041-.889.388-1.15.837-.629,1.5.676,2.34.487.454-.427.178-.979-.385-1.061-.432-.063-.917.124-1.3.08a2.05,2.05,0,0,1,1.775-.441c.75.216,1.138,1.473,1.654,1.286.265-.042.339-.4.343-.6.017-.776-1.145-1.182-1.7-1.191a1.912,1.912,0,0,1,1.181-.1c1.865.607.307,2.835,1.667,3.249a1.775,1.775,0,0,0,.563-1.67,2.982,2.982,0,0,0-1.223-1.494,2.172,2.172,0,0,1,1.72,2.113c-.087.826-1.037,2.42-.533,2.725.352.213.678-.351.775-.614a4.443,4.443,0,0,0-.031-2.609l-.051-.261a5.769,5.769,0,0,1,1.91,2.907,2.606,2.606,0,0,1,0,1.544,11.291,11.291,0,0,1-.675,1.645c-.854-.747.469-1.235.087-1.9-.554-.957-1.342.428-.673,1.54.125.208.36.379.464.592-.258.386-.534.126-.521.367.094.2-.014,0,.084.071l.021.014.055.044c-.223.259-.819,1-1.1,1.078-.584.159-.642-.615-1.072-.761-.826-.28-.913,1.133.078,1.073l.594-.064c-.3.3-.992.514-1.115.751.332.186.894-.357,1.247-.524-.128.483-.518.6-.545,1.358-.024.689.806.337.846-.21.033-.457-.312-.767.031-1.321.185-.3.908-.893,1.23-1.3" transform="translate(-709.293 -401.269)" fill="#002677" fill-rule="evenodd"/>
        <g id="Group_11796" transform="translate(50.803 33.047)">
          <path id="Path_482" d="M1202.073,531.265a1.465,1.465,0,0,1-1.16-.171l-2.123-1.006a1.139,1.139,0,0,1,.441-.271c.17-.016,2.431,1.045,2.431,1.045s.361.188.412.4" transform="translate(-1197.697 -529.817)" fill="#002677" fill-rule="evenodd"/>
          <path id="Path_483" d="M1193.894,549.227a1.089,1.089,0,0,0-.4-.82,11.119,11.119,0,0,0-3.079-1.838c-1.046-.24,3.2,2.58,3.2,2.58a.386.386,0,0,0,.28.077" transform="translate(-1190.06 -544.78)" fill="#002677" fill-rule="evenodd"/>
          <path id="Path_484" d="M1190.686,563.059s.161-.463-1.286-2.112c0,0-.987-1.368-.917-.717s1.568,2.834,2.2,2.829" transform="translate(-1188.479 -556.849)" fill="#002677" fill-rule="evenodd"/>
        </g>
        <g id="Group_11797" transform="translate(30.616 0)">
          <path id="Path_485" d="M998.077,262.173a1.465,1.465,0,0,1,1.156.2l2.1,1.057a1.138,1.138,0,0,1-.447.26c-.17.012-2.4-1.1-2.4-1.1s-.356-.2-.4-.412" transform="translate(-998.077 -257.465)" fill="#002677" fill-rule="evenodd"/>
          <path id="Path_486" d="M1003.878,234.315a1.088,1.088,0,0,0,.383.829,11.108,11.108,0,0,0,3.033,1.912c1.04.265-3.137-2.657-3.137-2.657s-.155-.12-.278-.084" transform="translate(-1003.263 -232.591)" fill="#002677" fill-rule="evenodd"/>
          <path id="Path_487" d="M1019.57,218.111s-.173.459,1.234,2.143c0,0,.954,1.391.9.739s-1.5-2.871-2.134-2.882" transform="translate(-1017.286 -218.111)" fill="#002677" fill-rule="evenodd"/>
        </g>
        <g id="Group_11798" transform="translate(58.306 23.626)">
          <path id="Path_488" d="M1261.4,445.075c-.277.695-1.067,1.617-1.9,1.283-.165-.066-.3-.147-.217-.345.109-.273.618-.444.778-.725-.311-.278-.5-.449-.234-1.119.248-.62.552-.71,1.147-.472C1261.707,443.99,1261.679,444.371,1261.4,445.075Zm1.107-2.847c-.234.587-.532.66-1.094.436-.637-.254-.769-.5-.509-1.152.228-.571.547-.673,1.134-.439S1262.744,441.632,1262.506,442.228Z" transform="translate(-1259.256 -440.955)" fill="#002677"/>
        </g>
        <g id="Group_11799" transform="translate(47.524 28.631)">
          <path id="Path_489" d="M1159.6,494.527c-.02.732-.266,1.071-1.053,1.049-.646-.018-1.019-.2-1-.922.02-.743.234-1.072,1.02-1.05C1159.185,493.621,1159.621,493.837,1159.6,494.527Zm.183-5.126a10.4,10.4,0,0,1-.3,1.9c-.1.429-.234,1.47-.848,1.454-1-.027-1.014-2.733-.995-3.444a1.782,1.782,0,0,1,.186-.9,1.336,1.336,0,0,1,.88-.245,2.07,2.07,0,0,1,.835.206A1.8,1.8,0,0,1,1159.785,489.4Z" transform="translate(-1157.55 -488.163)" fill="#002677"/>
        </g>
        <g id="Group_11802" transform="translate(11.958 26.757)">
          <path id="Path_490" d="M825.025,519.96q.158-.245.365-.205t.4.086a.186.186,0,0,1,.081.071.315.315,0,0,1,.053.112.539.539,0,0,1,.034.319,16.683,16.683,0,0,0-.214,1.918,1.777,1.777,0,0,0,.051.437.76.76,0,0,0,.164.357,1.376,1.376,0,0,0,.43-.612q.1-.26.193-.521t.193-.535a1.081,1.081,0,0,1,.08-.171c.034-.059.065-.111.094-.157q.214-.271.456.039-.1.274-.194.563t-.208.576q-.059.151-.155.391a2.954,2.954,0,0,1-.226.451,1.244,1.244,0,0,1-.306.345.4.4,0,0,1-.4.059l-.227-.061a1.839,1.839,0,0,1-.227-.075,1.244,1.244,0,0,1-.713-.806.331.331,0,0,1-.032-.1.216.216,0,0,0-.033-.091.22.22,0,0,0-.054-.043.348.348,0,0,0-.037.1.361.361,0,0,1-.037.1q-.116.219-.218.431a4.068,4.068,0,0,1-.232.416.885.885,0,0,1-.537.457,1.556,1.556,0,0,1-.69-.072.905.905,0,0,1-.483-.351,1.69,1.69,0,0,1-.242-.566,2.755,2.755,0,0,1,.227-1.89,3.117,3.117,0,0,1,.389-.627,2.139,2.139,0,0,1,.552-.484,1.125,1.125,0,0,1,.391-.149,1.633,1.633,0,0,1,.45-.023,1.784,1.784,0,0,1,.454.1A1.382,1.382,0,0,1,825.025,519.96Zm-1.659,3.307a.08.08,0,0,1,.055.029.926.926,0,0,0,.085-.06.348.348,0,0,0,.071-.074q.13-.19.258-.374a3.519,3.519,0,0,0,.231-.375q.16-.342.3-.684t.3-.7a.055.055,0,0,0-.035.006.027.027,0,0,1-.021.006l-.115-.376c-.017-.065-.036-.128-.058-.188a1.384,1.384,0,0,0-.085-.189.164.164,0,0,0-.1-.085.117.117,0,0,0-.119.052q-.157.19-.3.38a.956.956,0,0,0-.177.466,2.636,2.636,0,0,1-.056.31q-.039.158-.07.31a3.51,3.51,0,0,0-.126.62q-.036.318-.057.635c0,.046,0,.095,0,.145A1.327,1.327,0,0,0,823.365,523.267Z" transform="translate(-822.084 -514.419)" fill="#002677"/>
          <path id="Path_491" d="M900.675,522.549a.407.407,0,0,0,.381-.109,4.2,4.2,0,0,0,.5-.619,3.269,3.269,0,0,0,.347-.783.205.205,0,0,1,.143-.136.419.419,0,0,1,.211,0,.056.056,0,0,0,.014.041c.009.009.009.023,0,.041q-.054.164-.143.395a4.635,4.635,0,0,1-.2.456q-.116.225-.232.436a1.462,1.462,0,0,1-.238.334.888.888,0,0,1-.694.3h-.163a.2.2,0,0,0-.1.048.544.544,0,0,0-.075.1q-.027.041-.088.122a2.213,2.213,0,0,1-.143.17l-.163.177a.722.722,0,0,1-.15.129.749.749,0,0,1-.381.15,1.2,1.2,0,0,1-.395-.041l-.163-.054-.164-.054a1.154,1.154,0,0,1-.585-.435,2.085,2.085,0,0,1-.3-.722,2.017,2.017,0,0,1-.034-.436q.007-.217.034-.449a2.722,2.722,0,0,1,.279-.919,2.688,2.688,0,0,1,.565-.728.493.493,0,0,1,.6-.123.805.805,0,0,1,.177.088.6.6,0,0,1,.136.143.3.3,0,0,1,.007.361q-.116.17-.225.333-.15.232-.272.47a1.414,1.414,0,0,0-.15.511,4.4,4.4,0,0,0-.027.49q0,.245.013.477a.6.6,0,0,0,.068.272.385.385,0,0,0,.545.272.925.925,0,0,0,.272-.191,3.647,3.647,0,0,0,.245-.272q-.068-.068-.1-.109a.275.275,0,0,0-.089-.068,1.129,1.129,0,0,1-.517-1.048,1.463,1.463,0,0,1,.136-.572.9.9,0,0,1,.395-.408.816.816,0,0,1,.333-.1,1.205,1.205,0,0,1,.361.027.51.51,0,0,1,.259.259.674.674,0,0,1,.1.367,4.01,4.01,0,0,1-.245,1.144Zm-.218-1.606c-.027-.018-.066,0-.116.054a.85.85,0,0,0-.136.211,1.95,1.95,0,0,0-.109.293.785.785,0,0,0-.034.3.579.579,0,0,0,.259.517,2.583,2.583,0,0,1,.109-.334,2.584,2.584,0,0,0,.109-.334,1.209,1.209,0,0,0,.034-.34A.808.808,0,0,0,900.458,520.943Z" transform="translate(-889.817 -514.561)" fill="#002677"/>
          <path id="Path_492" d="M868.555,517.766a.2.2,0,0,1,.132-.124.4.4,0,0,1,.193-.039l.208,0,.406-.009.5-.009c.391-.006.9-.147,1.127.214a1.074,1.074,0,0,1,.108.642q-.068,1.515-.268,3.024a.286.286,0,0,1-.042.135c-.089.124-.307.1-.47.052a.279.279,0,0,1-.129-.059c-.054-.055-.034-.136-.012-.206a6.545,6.545,0,0,0,.2-1.811l.026-1.534a.07.07,0,0,0-.019-.059.1.1,0,0,0-.06-.014c-.5-.013-1.221-.012-1.277.459a15.031,15.031,0,0,0-.018,1.6,2.857,2.857,0,0,0,.082,1.38.083.083,0,0,1,.01.042q.04.2-.015.262a.423.423,0,0,1-.269.082.7.7,0,0,1-.375-.1.342.342,0,0,1-.2-.279.261.261,0,0,0-.01-.086,1.167,1.167,0,0,1-.041-.386q0-.292.015-.678t.046-.815q.03-.429.061-.794t.056-.613A2.324,2.324,0,0,1,868.555,517.766Z" transform="translate(-863.438 -512.56)" fill="#002677"/>
          <path id="Path_493" d="M908.574,499.8q-.1.236-.176.444t-.162.41c-.01.038-.02.07-.03.1a.527.527,0,0,1-.041.084q-.082.179-.165.208a.417.417,0,0,1-.263-.042.707.707,0,0,1-.309-.288.5.5,0,0,1-.066-.444q.06-.192.13-.36a1.477,1.477,0,0,1,.185-.322c.043-.066.08-.1.112-.108a.245.245,0,0,1,.146.057.715.715,0,0,0,.156.081c.053.019.109.038.169.058s.1.04.157.063S908.522,499.78,908.574,499.8Z" transform="translate(-898.298 -496.403)" fill="#002677"/>
          <path id="Path_494" d="M1047.559,499.8q-.1.236-.176.444t-.162.41c-.01.038-.021.07-.03.1a.5.5,0,0,1-.041.084c-.055.119-.11.189-.165.208a.417.417,0,0,1-.263-.042.707.707,0,0,1-.309-.288.5.5,0,0,1-.066-.444c.04-.128.083-.248.13-.36a1.479,1.479,0,0,1,.185-.322c.043-.066.08-.1.112-.108a.246.246,0,0,1,.146.057.709.709,0,0,0,.156.081c.053.019.109.038.169.058s.1.04.157.063S1047.506,499.78,1047.559,499.8Z" transform="translate(-1022.548 -496.403)" fill="#002677"/>
          <path id="Path_495" d="M989.829,521.768a.317.317,0,0,0,.336-.188,3.425,3.425,0,0,0,.162-.444.427.427,0,0,1,.336-.3c.278-.012.016.415-.028.528s-.1.232-.156.348q-.062.137-.137.274a1.767,1.767,0,0,1-.174.261.56.56,0,0,1-.274.2.79.79,0,0,1-.591.019.906.906,0,0,1-.441-.392,1.969,1.969,0,0,1-.242-.578,5.246,5.246,0,0,1,.017-1.944,8.1,8.1,0,0,1,.179-.856c.088-.331.082-.324.395-.254a.679.679,0,0,1,.211.087c.37.231.225.675.21,1.054l-.057,1.367a1.479,1.479,0,0,0,.069.633A.29.29,0,0,0,989.829,521.768Z" transform="translate(-970.889 -513.326)" fill="#002677"/>
          <path id="Path_496" d="M965.334,515.289c-.033.016-.083.046-.083.046s-.379.737-.278,1.042c.107.322.588.714.933.515-.474-.157-1.065.368-1.257.756a3.064,3.064,0,0,0,.045,1.545l.6.249a2.761,2.761,0,0,0,1.932-.79.384.384,0,0,0,.071-.473,3.739,3.739,0,0,1-1.453.419c-.264-.029-.522-.307-.4-.544a.594.594,0,0,1,.163-.18l.579-.486a.585.585,0,0,0,.252-.36c.032-.36-.556-.495-.6-.853a.542.542,0,0,1,.292-.478c.175-.115.82-.441.395-.646A2.168,2.168,0,0,0,965.334,515.289Z" transform="translate(-949.451 -510.301)" fill="#002677"/>
          <path id="Path_497" d="M1035.915,517.84c-.033.016-.083.045-.083.045s-.384.708-.284,1c.106.308.586.681.934.489-.474-.148-1.071.358-1.265.731a2.8,2.8,0,0,0,.037,1.48l.6.235a2.869,2.869,0,0,0,1.942-.767.358.358,0,0,0,.073-.454,3.918,3.918,0,0,1-1.46.409c-.264-.027-.522-.291-.4-.519a.59.59,0,0,1,.164-.173l.583-.469a.569.569,0,0,0,.255-.346c.034-.345-.555-.471-.6-.815a.523.523,0,0,1,.3-.459c.177-.111.825-.427.4-.621A2.277,2.277,0,0,0,1035.915,517.84Z" transform="translate(-1012.532 -512.587)" fill="#002677"/>
          <g id="Group_11800" transform="translate(18.85 4.427)">
            <path id="Path_498" d="M1003.6,516.777a1.084,1.084,0,0,1,.093.365q.015.194.031.381a.109.109,0,0,1-.008.047.1.1,0,0,0-.008.047v.179a1.092,1.092,0,0,1-.016.179.171.171,0,0,1-.008.054.165.165,0,0,0-.008.054,5.318,5.318,0,0,1-.3,1.235,5.914,5.914,0,0,1-.606,1.173.62.62,0,0,1-.062.054.554.554,0,0,0-.062.054,2.332,2.332,0,0,1-.187.155,1.472,1.472,0,0,1-.4.2,2.505,2.505,0,0,1-.644.124,3.286,3.286,0,0,1-.948-.093l-.046-.023c-.01-.005-.021-.023-.031-.054,0-.01-.026-.031-.078-.062a.5.5,0,0,1-.171-.155q-.062-.093-.124-.2a.748.748,0,0,1-.085-.233q-.023-.125-.054-.248c0-.021.008-.088.023-.2s.031-.236.046-.365.034-.256.054-.381.036-.212.047-.264a1.711,1.711,0,0,1,.14-.381,3.014,3.014,0,0,1,.349-.567,2.778,2.778,0,0,1,.559-.544,1.657,1.657,0,0,1,.769-.311q.28-.031.311.054a.254.254,0,0,1-.054.217,1.283,1.283,0,0,1-.225.256,1.658,1.658,0,0,1-.218.171c-.052.041-.1.083-.148.124s-.1.083-.147.124a1.92,1.92,0,0,0-.225.233,2.3,2.3,0,0,0-.334.52,2.185,2.185,0,0,0-.2.7,1.182,1.182,0,0,0,.171.753c.021.021.031.029.031.023s.016,0,.047.008q.264.078.373-.015t.186-.171a1.621,1.621,0,0,0,.148-.171q.07-.093.132-.171c.021-.031.041-.06.062-.085a.622.622,0,0,0,.062-.1,1.754,1.754,0,0,1,.186-.318,2.814,2.814,0,0,0,.2-.318q.124-.218.241-.45a3.011,3.011,0,0,0,.194-.5q.062-.186.117-.38t.1-.4a.773.773,0,0,0-.054-.458q-.1-.256-.194-.443a1.284,1.284,0,0,0-.109-.186.262.262,0,0,0-.171-.109q-.109-.015-.217-.039t-.218-.039a.512.512,0,0,0-.124-.016.276.276,0,0,0-.124.031.451.451,0,0,1-.311.016.525.525,0,0,1-.186-.093,1.48,1.48,0,0,0-.155-.109.519.519,0,0,1-.2-.342.5.5,0,0,1,0-.3.967.967,0,0,1,.14-.256l.513-.7a.647.647,0,0,0,.117-.21.488.488,0,0,1,.116-.194,1.936,1.936,0,0,0,.357-.7,1.307,1.307,0,0,0,.031-.218.068.068,0,0,0-.016-.093c-.021-.021-.047-.016-.078.016a1.4,1.4,0,0,0-.4.373,1.026,1.026,0,0,1-.062.109q-.078.109-.148.225a.854.854,0,0,1-.179.21,1.161,1.161,0,0,0-.085.132,1.257,1.257,0,0,0-.07.148q-.016.062-.031.109a.9.9,0,0,1-.047.109.367.367,0,0,1-.078.047.345.345,0,0,1-.109.015.5.5,0,0,1-.124.016.1.1,0,0,1-.093-.047.125.125,0,0,1-.031-.093.342.342,0,0,1,.016-.109c.01-.031.021-.067.031-.109a.2.2,0,0,1,.047-.093.064.064,0,0,0,.016-.047.349.349,0,0,0,.062-.124.045.045,0,0,0,.016-.031,1.548,1.548,0,0,1,.171-.311q.078-.124.132-.233a1.617,1.617,0,0,1,.132-.218,1.452,1.452,0,0,1,.218-.256,1.612,1.612,0,0,1,.249-.194.291.291,0,0,1,.28-.016c.052.01.1.021.14.031l.124.031a.632.632,0,0,1,.078.031.253.253,0,0,1,.062.047l.217.155a.71.71,0,0,1,.186.2.933.933,0,0,1,.124.4.026.026,0,0,1,.008.031c-.005.01,0,.026.008.047a.4.4,0,0,1,.031.217,1.626,1.626,0,0,1-.047.217l-.031.155a.907.907,0,0,1-.047.155v.046q-.062.156-.116.3a3.018,3.018,0,0,1-.132.3q-.047.078-.1.163a1.988,1.988,0,0,0-.1.179,1.071,1.071,0,0,1-.109.217,2.246,2.246,0,0,1-.14.187q-.062.093.031.109.124.031.249.054t.249.054a.617.617,0,0,1,.248.116,2.52,2.52,0,0,1,.217.194,1.047,1.047,0,0,0,.1.116,1.158,1.158,0,0,1,.1.117,1.035,1.035,0,0,1,.2.287Q1003.533,516.606,1003.6,516.777Z" transform="translate(-999.883 -512.245)" fill="#002677"/>
          </g>
          <path id="Path_499" d="M1088.865,513.223a3.382,3.382,0,0,1,.157.488,1.538,1.538,0,0,1-.314.521,3.532,3.532,0,0,1-.245.329,1.647,1.647,0,0,1-.134.162,1.665,1.665,0,0,0-.134.162.17.17,0,0,1-.067.056.589.589,0,0,1-.078.033.924.924,0,0,1-.68-.162,1.075,1.075,0,0,1-.334-.563,1.392,1.392,0,0,1-.022-.318q0-.24.006-.569t.022-.7q.017-.373.034-.7t.028-.586c.008-.187.052-.318-.141-.351-.171-.029-.567.2-.735.263l-.1-.376c-.01-.037-.018-.081.009-.108a.11.11,0,0,1,.055-.025c.217-.052,3.057-1.156,3.1-.8q.011.089.028.2a1.379,1.379,0,0,1,.017.2c0,.259-.164.123-.308.136a3.865,3.865,0,0,0-.821.256.255.255,0,0,0-.225.276l-.177,2.113a2.069,2.069,0,0,0,.046.99c.2.4.547-.142.647-.34A1.907,1.907,0,0,1,1088.865,513.223Z" transform="translate(-1058.122 -505.728)" fill="#002677"/>
          <path id="Path_500" d="M1114.449,523a.407.407,0,0,0,.381-.109,4.2,4.2,0,0,0,.5-.619,3.264,3.264,0,0,0,.347-.783.2.2,0,0,1,.143-.136.419.419,0,0,1,.211,0,.055.055,0,0,0,.014.041c.009.009.009.023,0,.041q-.055.164-.143.395a4.6,4.6,0,0,1-.2.456q-.116.224-.232.436a1.465,1.465,0,0,1-.238.333.887.887,0,0,1-.694.3h-.163a.2.2,0,0,0-.1.048.538.538,0,0,0-.075.1c-.018.027-.047.068-.088.122a2.175,2.175,0,0,1-.143.17l-.163.177a.731.731,0,0,1-.15.129.75.75,0,0,1-.381.15,1.2,1.2,0,0,1-.395-.041l-.163-.054-.163-.054a1.153,1.153,0,0,1-.585-.436,2.082,2.082,0,0,1-.3-.722,2.007,2.007,0,0,1-.034-.436c0-.145.015-.295.034-.449a2.722,2.722,0,0,1,.279-.919,2.688,2.688,0,0,1,.565-.728.493.493,0,0,1,.6-.123.818.818,0,0,1,.177.088.6.6,0,0,1,.136.143.3.3,0,0,1,.007.361q-.116.17-.224.334-.15.232-.272.47a1.413,1.413,0,0,0-.15.511,4.367,4.367,0,0,0-.027.49q0,.245.014.477a.6.6,0,0,0,.068.272.385.385,0,0,0,.545.272.931.931,0,0,0,.272-.191,3.65,3.65,0,0,0,.245-.272c-.045-.045-.08-.082-.1-.109a.279.279,0,0,0-.088-.068,1.129,1.129,0,0,1-.517-1.048,1.47,1.47,0,0,1,.136-.572.9.9,0,0,1,.395-.408.812.812,0,0,1,.334-.1,1.2,1.2,0,0,1,.361.027.51.51,0,0,1,.259.259.675.675,0,0,1,.1.368,4.018,4.018,0,0,1-.245,1.144Zm-.218-1.606q-.041-.027-.116.054a.85.85,0,0,0-.136.211,1.973,1.973,0,0,0-.109.293.787.787,0,0,0-.034.3.578.578,0,0,0,.259.517,2.553,2.553,0,0,1,.109-.334,2.618,2.618,0,0,0,.109-.333,1.21,1.21,0,0,0,.034-.34A.808.808,0,0,0,1114.232,521.389Z" transform="translate(-1080.927 -514.96)" fill="#002677"/>
          <g id="Group_11801" transform="translate(11.721)">
            <path id="Path_501" d="M937.933,470.492a1.181,1.181,0,0,1-.149.676,1.853,1.853,0,0,1-.436.489,9.517,9.517,0,0,1-1.644,1.011,1.187,1.187,0,0,0-.76,1.051,3.746,3.746,0,0,0,.3,1.25,7.979,7.979,0,0,1,.209,4.326c-.1.437-.395.485-.616.093l-.082.041a.594.594,0,0,1-.347.231,1.184,1.184,0,0,1-.4.014l-.2-.027a2.8,2.8,0,0,1-.422-.136.817.817,0,0,1-.429-.449c-.511-1.063-.531-3.112.97-3.36a.639.639,0,0,0,.373-.13c.15-.156.062-.41-.023-.609-.23-.541-.263-1.126-.462-1.664s-.068-.792.479-1.046l3.665-1.7m-4.111,6.184q-.177-.055-.225.245a2.687,2.687,0,0,0-.007.694,4.11,4.11,0,0,0,.157.776.955.955,0,0,0,.265.49.444.444,0,0,0,.136.068.437.437,0,0,1,.15.082.451.451,0,0,0,.123-.252,1.052,1.052,0,0,0-.007-.266,2.5,2.5,0,0,0-.054-.265.74.74,0,0,1-.02-.265l.408-.232a3.7,3.7,0,0,0-.143-.381,3.215,3.215,0,0,0-.191-.374,2.77,2.77,0,0,0-.2-.3.721.721,0,0,0-.17-.17Z" transform="translate(-932.639 -470.492)" fill="#002677"/>
          </g>
        </g>
        <path id="Path_502" d="M825.62,573.323a237.961,237.961,0,0,1,34.835-.411" transform="translate(-813.287 -534.894)" fill="none" stroke="#002677" stroke-miterlimit="10" stroke-width="1" fill-rule="evenodd"/>
        <g id="Group_11803" transform="translate(36.415 36.602)">
          <path id="Path_503" d="M1055.186,566.83h0l.044-.02a.174.174,0,0,1,.033-.2.271.271,0,0,0,.047-.131.625.625,0,0,0-.244-.577c-.031-.028-.059-.042-.09,0s-.044.06,0,.092a.423.423,0,0,1,.1.549c-.033.084-.029.128.037.182a.443.443,0,0,1,.07.1m-.976,3.72h0a.581.581,0,0,0-.211-.127,1.735,1.735,0,0,1-.6-.38,1.02,1.02,0,0,1-.334-.781c0-.044.018-.1-.065-.141a1.192,1.192,0,0,0,.175.884A1.126,1.126,0,0,0,1054.21,570.549Zm-.449-6.607h0c-.006-.041-.03-.043-.047-.054s-.072-.04-.055-.083a.1.1,0,0,1,.112-.067.338.338,0,0,1,.089.028.551.551,0,0,1,.332.312.472.472,0,0,0,.07.122.949.949,0,0,1,.163.353c.045.182.082.367.14.546a1.1,1.1,0,0,1-.111.973c-.03.048-.008.07.035.076a.2.2,0,0,0,.207-.15.3.3,0,0,1,.073-.185.446.446,0,0,0,.127-.387,2.813,2.813,0,0,0-.581-1.573c-.036-.05-.086-.091-.125-.14a.449.449,0,0,0-.515-.152.2.2,0,0,0-.153.192c0,.088.013.176.02.265A.366.366,0,0,0,1053.761,563.943Zm.823,4.182h0a3.432,3.432,0,0,0-.439.011.1.1,0,0,0-.084.033,2.012,2.012,0,0,1-.284.221c-.09.076-.2.143-.238.259a1.229,1.229,0,0,0,.05,1.06.981.981,0,0,0,.5.455,1.745,1.745,0,0,0,.534.117.933.933,0,0,0,.576-.111c.1-.066.238-.087.3-.214.007-.014.036-.02.056-.023a.139.139,0,0,0,.1-.073.932.932,0,0,0,.18-.829,1.312,1.312,0,0,0-.6-.776c-.014-.008-.03-.01-.044-.016A1.908,1.908,0,0,0,1054.585,568.125Zm-.482-.87h0c-.039,0-.084-.013-.1.043,0,.012,0,.036.009.039.037.015.067-.008.1-.027a.1.1,0,0,0,.02-.022c.045-.009.093-.044.136-.02.172.1.369.048.549.1.084.024.094,0,.089-.092-.006-.12-.083-.232-.039-.357.007-.02-.016-.043-.036-.043-.158,0-.27-.132-.423-.152a.12.12,0,0,1-.115-.089c-.026-.106-.057-.212-.093-.315a.225.225,0,0,1,.026-.208.991.991,0,0,1,.206-.254c.036-.029.031-.063,0-.094a.057.057,0,0,0-.094.006.3.3,0,0,1-.109.1.459.459,0,0,0-.261.431.746.746,0,0,0,.153.453.212.212,0,0,0,.089.086c.166.059.3.2.482.212,0,0,.009.015.014.024a.178.178,0,0,1-.182.062,1.086,1.086,0,0,1-.23-.042c-.086-.032-.126,0-.156.072C1054.128,567.2,1054.115,567.225,1054.1,567.254Zm.477-.837h0l.349.059c.007-.12.058-.239-.089-.323a.767.767,0,0,1-.261.237c-.09,0-.187.012-.224-.131a.576.576,0,0,0-.026.238.047.047,0,0,0,.025.052c.031.015.048-.008.063-.028A.234.234,0,0,1,1054.579,566.417Zm.592-1.035a.137.137,0,0,0-.047.127.03.03,0,0,1,0,.016c-.049.112-.018.183.088.256a.77.77,0,0,1,.229.9.57.57,0,0,1-.139.207c-.033.031-.064.071-.023.107.192.167.074.341.016.517a2.829,2.829,0,0,1,.531.373,1.516,1.516,0,0,1,.277.358,1.735,1.735,0,0,1,.21.383,1.575,1.575,0,0,1-.246,1.413c-.038.05-.078.1-.115.149a1.63,1.63,0,0,1-1.154.679,1.437,1.437,0,0,1-.575-.029,2.7,2.7,0,0,1-.67-.211,1.307,1.307,0,0,1-.456-.486,4.786,4.786,0,0,1-.227-.5,1.018,1.018,0,0,1-.093-.457,3,3,0,0,1,.141-.785.533.533,0,0,1,.055-.112,2.432,2.432,0,0,1,.559-.652c.045-.036.08-.083.126-.118a.15.15,0,0,0,.059-.136.734.734,0,0,1,.207-.558.086.086,0,0,0,.018-.112.849.849,0,0,0-.107-.224.261.261,0,0,1-.04-.252c.024-.092.026-.127-.017-.14l.064-.172.232-.22.3-.139.127-.111-.01-.072c0-.008,0-.017,0-.027a1.076,1.076,0,0,0-.043-.269h0a1.231,1.231,0,0,0-.106-.251l-.027-.051-.073-.187a1.629,1.629,0,0,0-.074-.189l0-.006,0-.008-.17-.367-.069.032a.077.077,0,0,0-.031.01l-.04.024-.269.131-.294-.086a.072.072,0,0,0,.056-.1c-.035-.14.033-.279.009-.42a.129.129,0,0,1,.035-.085.436.436,0,0,1,.36-.189.811.811,0,0,1,.472.187.245.245,0,0,0,.14.056h0l.2.293.212.3.244.613.087.353Z" transform="translate(-1052.773 -563.352)" fill="#002677"/>
          <path id="Path_504" d="M1064.492,600.141l.03.034a.111.111,0,0,1-.02.022c-.03.019-.06.042-.1.027-.008,0-.012-.027-.009-.04.012-.056.057-.044.1-.043" transform="translate(-1063.163 -596.239)" fill="#8c9091"/>
          <path id="Path_505" d="M1062.73,612.834h0c-.127.01-.248.011-.366.031a.438.438,0,0,0-.343.413.583.583,0,0,0,.607.509,2.262,2.262,0,0,0,.365-.083.438.438,0,0,0,.29-.286.311.311,0,0,0-.047-.31.877.877,0,0,0-.507-.274m-.185,1.2a.664.664,0,0,1-.484-.271,1.462,1.462,0,0,0-.1-.124.543.543,0,0,1-.07-.589.656.656,0,0,1,.652-.422.992.992,0,0,1,.465.1.8.8,0,0,1,.388.488.594.594,0,0,1-.215.614A1.218,1.218,0,0,1,1062.544,614.037Z" transform="translate(-1060.878 -607.407)" fill="#002677"/>
          <path id="Path_506" d="M1067,617.443l.065.009c.143.024.18.065.166.19s-.079.195-.215.187a.389.389,0,0,1-.121-.024.219.219,0,0,1-.143-.232c.022-.089.112-.138.248-.129" transform="translate(-1065.265 -611.708)" fill="#002677"/>
          <path id="Path_507" d="M1060.235,608.313a3.423,3.423,0,0,0-.439.011.1.1,0,0,0-.084.033c-.108.129-.457.287-.522.48a1.228,1.228,0,0,0,.05,1.06,1.149,1.149,0,0,0,1.03.572.933.933,0,0,0,.576-.111c.1-.066.238-.087.3-.214.018-.036.084.008.152-.1a.932.932,0,0,0,.18-.829,1.256,1.256,0,0,0-.644-.793,1.906,1.906,0,0,0-.6-.114m.324.55a.8.8,0,0,1,.387.488.593.593,0,0,1-.215.614,1.219,1.219,0,0,1-.641.206.663.663,0,0,1-.484-.271,1.5,1.5,0,0,0-.1-.124.543.543,0,0,1-.07-.589.656.656,0,0,1,.652-.422A.994.994,0,0,1,1060.559,608.863Z" transform="translate(-1058.423 -603.54)" fill="#6bc4e8" fill-rule="evenodd"/>
          <path id="Path_508" d="M1060.856,566.633c.243.752-.276,1.02-.077,1.049a.2.2,0,0,0,.207-.15c.052-.316.213-.148.2-.572a2.815,2.815,0,0,0-.581-1.573c-.036-.05-.086-.091-.125-.14-.242-.3-.677-.186-.669.04,0,.088.013.176.02.265a.367.367,0,0,0,.222-.077c-.011-.069-.13-.063-.1-.136.068-.181.452.05.532.273.048.132.159.177.233.475.045.182.082.367.14.546" transform="translate(-1059.065 -564.885)" fill="#8c9091" fill-rule="evenodd"/>
          <path id="Path_509" d="M1064.337,586.011c-.481.22-.177.913-.019.969s.3.2.482.212c0,0,.009.015.014.024a.178.178,0,0,1-.182.062,1.091,1.091,0,0,1-.231-.042c-.126-.047-.145.046-.193.158l.03.034c.045-.009.093-.044.136-.02.172.1.369.048.549.1.209.061-.01-.279.051-.449.007-.02-.016-.043-.036-.044-.158,0-.271-.132-.423-.152s-.112-.13-.208-.4c-.059-.168.132-.382.232-.462.07-.056-.029-.166-.092-.088a.3.3,0,0,1-.109.1" transform="translate(-1062.879 -583.493)" fill="#8c9091" fill-rule="evenodd"/>
          <path id="Path_510" d="M1073.356,587.307a.423.423,0,0,1,.1.549c-.033.084-.029.128.037.182a.434.434,0,0,1,.07.1l.044-.02c-.069-.143.054-.155.079-.331a.625.625,0,0,0-.244-.577c-.08-.072-.148.051-.091.093" transform="translate(-1071.155 -584.664)" fill="#8c9091" fill-rule="evenodd"/>
        </g>
        <g id="Group_11804" transform="translate(35.253 2.87)">
          <path id="Path_511" d="M1083.194,258.708q.132-.029.336-.373t.4-.745q.2-.4.336-.76t.154-.417q.073-.146.131-.146a.094.094,0,0,1,.088.066.66.66,0,0,1,.044.146.205.205,0,0,1,0,.11q-.088.2-.183.424l-.183.424q-.073.2-.153.409t-.183.409q-.073.161-.161.322a2.133,2.133,0,0,1-.2.307.659.659,0,0,1-.322.234.929.929,0,0,1-.694.022,1.065,1.065,0,0,1-.519-.46,2.328,2.328,0,0,1-.285-.68,4.772,4.772,0,0,1-.109-.724q-.03-.351-.037-.7a3.089,3.089,0,0,1,.066-.7q.044-.292.088-.592t.1-.592a.769.769,0,0,1,.08-.168,1.276,1.276,0,0,0,.095-.183.52.52,0,0,0,.088-.007.119.119,0,0,1,.073.007,1.858,1.858,0,0,0,.248.073.8.8,0,0,1,.249.1.9.9,0,0,1,.2.175.391.391,0,0,1,.088.263v.409q0,.2.015.409a.8.8,0,0,0,.029.19,1.6,1.6,0,0,1,.029.424,4.635,4.635,0,0,0-.022.584q.008.293.008.585a2.778,2.778,0,0,1,.007.343q-.007.168-.007.344c.01.078.017.156.022.234s.007.156.007.234Zm.388-6.579q-.1.307-.183.577t-.168.534c-.01.049-.02.09-.029.124a.676.676,0,0,1-.044.11q-.088.234-.19.278a.531.531,0,0,1-.336-.029.827.827,0,0,1-.227-.132.941.941,0,0,1-.19-.2.8.8,0,0,1-.117-.263.659.659,0,0,1-.008-.292q.059-.248.132-.468a1.891,1.891,0,0,1,.2-.424q.088-.131.139-.146a.352.352,0,0,1,.2.058.913.913,0,0,0,.2.088l.2.059a1.894,1.894,0,0,1,.212.066C1083.447,252.088,1083.513,252.11,1083.582,252.129Z" transform="translate(-1077.427 -251.09)" fill="#002677"/>
          <path id="Path_512" d="M1207.039,279.521q.132-.029.336-.373t.4-.745q.2-.4.336-.76t.154-.417q.073-.146.131-.146a.094.094,0,0,1,.088.066.647.647,0,0,1,.044.146.2.2,0,0,1,0,.11l-.183.424-.183.424q-.073.2-.153.409t-.183.409q-.073.161-.161.322a2.083,2.083,0,0,1-.2.307.66.66,0,0,1-.322.234.93.93,0,0,1-.694.022,1.066,1.066,0,0,1-.519-.46,2.319,2.319,0,0,1-.285-.68,4.738,4.738,0,0,1-.11-.724q-.029-.351-.036-.7a3.1,3.1,0,0,1,.066-.7q.044-.292.088-.592t.1-.592a.763.763,0,0,1,.08-.168,1.262,1.262,0,0,0,.1-.183.515.515,0,0,0,.088-.007.121.121,0,0,1,.073.007,1.828,1.828,0,0,0,.248.073.8.8,0,0,1,.248.1.9.9,0,0,1,.2.175.391.391,0,0,1,.088.263v.409q0,.2.015.409a.812.812,0,0,0,.029.19,1.588,1.588,0,0,1,.029.424,4.612,4.612,0,0,0-.022.584q.007.293.007.585a2.779,2.779,0,0,1,.007.344c-.005.112-.007.227-.007.344.01.078.017.156.022.234s.007.156.007.234Z" transform="translate(-1188.142 -271.965)" fill="#002677"/>
          <path id="Path_513" d="M1155.066,276.055q.175-.287.414-.247t.462.088a.215.215,0,0,1,.1.08.364.364,0,0,1,.064.127.622.622,0,0,1,.048.367,19.233,19.233,0,0,0-.191,2.216,2.039,2.039,0,0,0,.072.5.879.879,0,0,0,.2.406,1.584,1.584,0,0,0,.478-.717q.112-.3.207-.606t.207-.622a1.217,1.217,0,0,1,.088-.2c.037-.069.072-.13.1-.183q.239-.319.526.032-.112.319-.207.653t-.223.67q-.064.176-.167.454a3.42,3.42,0,0,1-.247.526,1.433,1.433,0,0,1-.343.406.464.464,0,0,1-.454.08l-.263-.064a2.113,2.113,0,0,1-.263-.08,1.432,1.432,0,0,1-.845-.909.38.38,0,0,1-.04-.12.251.251,0,0,0-.04-.1.257.257,0,0,0-.064-.048.407.407,0,0,0-.04.112.416.416,0,0,1-.04.111q-.128.255-.239.5a4.751,4.751,0,0,1-.255.486,1.02,1.02,0,0,1-.606.542,1.793,1.793,0,0,1-.8-.064,1.042,1.042,0,0,1-.566-.391,1.941,1.941,0,0,1-.3-.646,3.176,3.176,0,0,1,.207-2.184,3.6,3.6,0,0,1,.43-.733,2.464,2.464,0,0,1,.622-.574,1.3,1.3,0,0,1,.447-.183,1.886,1.886,0,0,1,.518-.04,2.056,2.056,0,0,1,.526.1A1.594,1.594,0,0,1,1155.066,276.055Zm-1.817,3.858a.093.093,0,0,1,.064.032,1.083,1.083,0,0,0,.1-.072.4.4,0,0,0,.08-.088q.144-.223.287-.438a4.057,4.057,0,0,0,.255-.438q.175-.4.327-.8t.327-.813a.064.064,0,0,0-.04.008.032.032,0,0,1-.024.008l-.144-.43c-.021-.074-.045-.146-.072-.215a1.6,1.6,0,0,0-.1-.215.189.189,0,0,0-.119-.1.135.135,0,0,0-.135.064q-.176.223-.335.446a1.1,1.1,0,0,0-.191.542,3,3,0,0,1-.056.359q-.04.183-.072.359a4.038,4.038,0,0,0-.127.717q-.032.367-.048.733c0,.053,0,.109.008.167A1.593,1.593,0,0,0,1153.249,279.912Z" transform="translate(-1140.086 -272.465)" fill="#002677"/>
          <path id="Path_514" d="M1043.349,249.744q.407-.109.776-.2a1.1,1.1,0,0,1,.7.055q.157.063.071.165a.4.4,0,0,1-.2.133q-.345.094-.69.2t-.737.227c0,.021,0,.1.008.243s.01.306.016.494.016.376.031.565a2.251,2.251,0,0,0,.071.439.72.72,0,0,0,.172.353,3,3,0,0,0,.282.29q.047.032.181-.008a.616.616,0,0,0,.212-.1,3.882,3.882,0,0,0,.51-.463q.274-.29.526-.573t.423-.494a1.332,1.332,0,0,1,.188-.212.158.158,0,0,1,.165.023.232.232,0,0,1,.063.149.77.77,0,0,1-.016.212.615.615,0,0,1-.07.2,5.3,5.3,0,0,1-.479.667,7.375,7.375,0,0,1-.557.588,1.36,1.36,0,0,1-.549.361,1.919,1.919,0,0,1-.635.11,1.734,1.734,0,0,1-.627-.118,1.652,1.652,0,0,1-.541-.337,2.069,2.069,0,0,1-.6-.933,5.355,5.355,0,0,1-.2-1.09,7.129,7.129,0,0,1,.016-1.569q.094-.768.2-1.553.031-.219.086-.565t.118-.69q.062-.345.118-.6a.6.6,0,0,1,.1-.282,1.137,1.137,0,0,1,.588-.235,2.235,2.235,0,0,1,.667.039,3.875,3.875,0,0,1,.69.212q.345.141.659.3a.761.761,0,0,1-.031.549.625.625,0,0,1-.471.22c-.167.021-.335.047-.5.079l-.518.094q-.063.753-.11,1.506T1043.349,249.744Z" transform="translate(-1041.807 -245.184)" fill="#002677"/>
          <path id="Path_515" d="M1112.432,277.031a.2.2,0,0,0-.142-.143,3.843,3.843,0,0,1-.594.231,2.557,2.557,0,0,1-.612.1c-.137.006.316.01.175.014-.338,0-.675,0-1.016-.015q-.679-.019-1.331-.06t-1.243-.094a.32.32,0,0,0-.311.1.538.538,0,0,0-.123.354,1.923,1.923,0,0,0,.033.516.681.681,0,0,0,.276.406l-.036.121a.968.968,0,0,0-.213.517,2.51,2.51,0,0,0,.009.587q.02.159.039.3a5.407,5.407,0,0,0,.16.61,1.066,1.066,0,0,0,.475.606,2.506,2.506,0,0,0,.814.332,3.391,3.391,0,0,0,.886.08,1.4,1.4,0,0,0,.678-.17.55.55,0,0,0,.176-.247,3.679,3.679,0,0,0,.174-.456,4.217,4.217,0,0,0,.125-.493,1.756,1.756,0,0,0,.041-.36c-.036-.337-.367-1.081-.141-1.135a6.743,6.743,0,0,0,.65-.187,2.724,2.724,0,0,0,.512-.228.7.7,0,0,0,.367-.436q.072-.273.167-.65A.534.534,0,0,0,1112.432,277.031Zm-2.405,2.778a.936.936,0,0,1-.147.329.534.534,0,0,1-.332.162,1.438,1.438,0,0,1-.981-.11c-.22-.123-.949-1.037-.392-1.157a.555.555,0,0,1,.223,0,1.434,1.434,0,0,1,.226.062.4.4,0,0,0,.224.017l.176-.561a2.678,2.678,0,0,1,.651.419,2.675,2.675,0,0,1,.261.263.574.574,0,0,1,.137.228A.668.668,0,0,1,1110.027,279.809Z" transform="translate(-1100.294 -273.527)" fill="#002677"/>
        </g>
        <g id="Group_11805" transform="translate(57.423 3.034)">
          <path id="Path_516" d="M1250.928,246.733s.661,3.168,2.1,4.279a15.483,15.483,0,0,1,2.188,2.811s.035.227-.257-.026c0,0-1.739-1.508-2.618-1.57,0,0,.446,1.8,3.151,2.272,0,0,.281.026.423.664s1.008,3.21,1.136,3.763c0,0,.031.217-.2-.1a11.215,11.215,0,0,0-3.519-3.151s1.915,3.833,3.569,3.793a.142.142,0,0,1,.192.122,19.479,19.479,0,0,1,.578,4.514s-.017.211-.106-.011c-.146-.363-1.532-2.787-2.686-3.175,0,0,.541,2.758,2.578,3.6a.465.465,0,0,1,.288.4c-.008.212-.159,2.191-.194,2.407a.687.687,0,0,1,.485.066,29.318,29.318,0,0,0,.078-5.383.734.734,0,0,1-.009-.293,6.1,6.1,0,0,0,.657-1.447,7.507,7.507,0,0,0,.2-3.226,9.033,9.033,0,0,0-.907,3.608s-.034.4-.124.018c0,0-.38-2.39-.533-2.723a6.9,6.9,0,0,0,.309-5.414s-1.059,1.392-.48,4.814c0,0,0,.31-.111-.03s-.776-2.07-.9-2.725a1.773,1.773,0,0,1,.033-.566c.069-.306.051-2.431-2.032-4.812,0,0-.132.952,1.187,3.5a4.513,4.513,0,0,1,.3.934s.031.29-.189-.069a11.1,11.1,0,0,0-.816-1.175s-1.051-1.087-1.27-1.413l-.135-.213a5.935,5.935,0,0,0-2.362-4.045" transform="translate(-1250.928 -246.733)" fill="#002675" fill-rule="evenodd"/>
          <path id="Path_517" d="M1255.945,255.354l-1.8-3.4s.47,2.442,1.8,3.4" transform="translate(-1253.803 -251.399)" fill="#6bc4e8" fill-rule="evenodd"/>
          <path id="Path_518" d="M1266.287,300.009l2.45,1.787a3.571,3.571,0,0,1-2.45-1.787" transform="translate(-1264.659 -294.361)" fill="#6bc4e8" fill-rule="evenodd"/>
          <path id="Path_519" d="M1278.234,336.065l2.924,2.924s-1.008.31-2.924-2.924" transform="translate(-1275.339 -326.594)" fill="#6bc4e8" fill-rule="evenodd"/>
          <path id="Path_520" d="M1290.735,383.317l2.3,3.044s-1.5-.354-2.3-3.044" transform="translate(-1286.515 -368.836)" fill="#6bc4e8" fill-rule="evenodd"/>
        </g>
      </g>
      <g id="Group_11807" transform="translate(0.56 0)">
        <path id="Path_521" d="M857.735,207.831c-.079,1.145-.161,2.212-.2,3.35-.033.937.047,1.051-.844,1.65-1.024.687-1.4-.342-1.231-1.176.007-.035.018-2.131-.018-2.263a7.516,7.516,0,0,1,.66-3.053c.2-.326.305-.259.752-.378a6.317,6.317,0,0,1,1.722-.207,16.25,16.25,0,0,1,1.852-.377c.525.015,1.155.458,1.5-.125.22-.373.114-.464.6-.882.36-.312.893-1.139,1.284-1.334a2.156,2.156,0,0,1,.725-.311c.669-.149,1.183-.538,1.861-.285a2.522,2.522,0,0,0,1.494-.494c.135-.206.325-.209.486-.724a4.759,4.759,0,0,1,.644-1.767,7.508,7.508,0,0,1,.78-1.264c.174-.192.595-.713.843-.8a4.643,4.643,0,0,1,.814-.355,1.064,1.064,0,0,1,1.5.987c.1.721-1.875,1.022-1.655,2.165a21.123,21.123,0,0,1-.454,3.7c-.208.7.054.594.505,1.132a7.046,7.046,0,0,1,1.037,3.136c-.086,1.556-.1,2.363-1.114,3.617a2.28,2.28,0,0,1-1.537.763c-.294.062-1.034-.565-1.141-.965-.28-1.047-.265-1.649-1.607-1.376a17.151,17.151,0,0,0-2.6,1.017c-.035.016-.7.274-.658.193.465-.913,1.548-1.047,1.537-1.553-.013-.637-.509-.952-1.042-1.286-.9-.563-2.909.086-3.872.24a4.242,4.242,0,0,1-2.748-.93c-.037-.023.136-.05.136-.047" transform="translate(-840.312 -192.864)" fill="#6bc4e8" fill-rule="evenodd"/>
        <path id="Path_522" d="M800.311,228.786a26.817,26.817,0,0,0,.7,3.2c.123.569-.438,1.775-.892,1.577a3.318,3.318,0,0,1-1.458-2.012,19.405,19.405,0,0,0-1.08-2.111c-.461-1.137-.74-2.646-1.185-3.7-.15-.355-.283-1.393.06-1.728.618-.6.527-.808,1.43-1.049,1.19-.319.781-.018,1.509-.1.456-.053,1.468-.47,1.977-.49.444-.017.422-.144.921.047.662.252,1.2.827,1.713.924a4.305,4.305,0,0,0,1.464-.435,8.9,8.9,0,0,1,2.722-.865c.775-.119.9.889,1.169,1.349.2.345.272,1.988-.082,2.2a11.447,11.447,0,0,1-1.268.508c-.494.347.545.655-.82.529a16.155,16.155,0,0,0-3.1.732c-.625.132-1.131-.021-1.72.782-.138.188-1.711.269-1.808.384,0,0-.258.2-.251.26" transform="translate(-794.833 -212.128)" fill="#6bc4e8" fill-rule="evenodd"/>
        <path id="Path_523" d="M935.062,224.99h0c.112,1.379.566,1.124.566,1.124.282-.1.565.157.542.31s.593.9.593.9l1.129.194.473-.447c.181-.2.14-.685.266-.931a5.715,5.715,0,0,0,.512-1.363,2.64,2.64,0,0,0-.875-2.136,1.88,1.88,0,0,0-1.665-.388c-1.033.188-1.652,1.353-1.543,2.731m.735-1.109c.491-1.079,1.13-.84,1.13-.84,1.267,1.8.944.863.944.863-.538-1.067-.173-.954-.173-.954s.66.064.844,1.39a1.87,1.87,0,0,1,0,.608c-.023.093-.339.884-.339.884a1.117,1.117,0,0,1-.474,1.047l-.775-.187a4.951,4.951,0,0,0-.623-1A1.533,1.533,0,0,1,935.8,223.881Z" transform="translate(-901.508 -212.269)" fill="#002675" fill-rule="evenodd"/>
        <path id="Path_524" d="M933.682,259.161h0s-.208,1.485,1.08,1.608,1.306-2.575,1.306-2.575a1,1,0,0,0-1.05-1.057c-1.312-.081-1.337,2.023-1.337,2.023m.683-.99c.166-.184,1.219-.8,1.2.292l-.127,1.319a.53.53,0,0,1-.344.446.8.8,0,0,1-.917-.56A2.864,2.864,0,0,1,934.365,258.171Z" transform="translate(-900.447 -239.103)" fill="#002675" fill-rule="evenodd"/>
        <path id="Path_525" d="M863.906,191.132a1.838,1.838,0,0,1-.141,1.465l-1.125,2.725s-.337-.323-.368-.535,1.156-3.113,1.156-3.113.213-.464.478-.542" transform="translate(-845.578 -188.379)" fill="#002675" fill-rule="evenodd"/>
        <path id="Path_526" d="M859.1,181.246a1.525,1.525,0,0,1,.354,1.137,14.368,14.368,0,0,1-1.1,4.407c-.7,1.124.569-5.23.569-5.23s.038-.247.178-.314" transform="translate(-842.402 -180.782)" fill="#002675" fill-rule="evenodd"/>
        <path id="Path_527" d="M852.953,179.242s.486.378.084,3.1c0,0-.109,2.114-.478,1.381s-.278-4.055.394-4.483" transform="translate(-837.948 -179.242)" fill="#002675" fill-rule="evenodd"/>
        <path id="Path_528" d="M907.85,229.031l-.463.287c-.012.119.106.324.25.278s.213-.565.213-.565" transform="translate(-880.249 -217.505)" fill="#fff" fill-rule="evenodd"/>
        <path id="Path_529" d="M889.687,251.1s.51.471.658-.5c0,0-.005-.246-.124-.012s-.239-.415-.4-.411c0,0-.878.224-.13.924" transform="translate(-866.414 -233.755)" fill="#fff" fill-rule="evenodd"/>
        <path id="Path_530" d="M874.261,259.138c-.023.141.069.2.165.182s.071-.03.173-.149-.016-.093-.04-.172a.836.836,0,0,1-.033-.174.018.018,0,0,1,0,.005.11.11,0,0,1-.006-.025c-.009-.043-.019-.01-.068-.006s-.016.009-.093.1-.076.1-.1.243" transform="translate(-854.789 -240.369)" fill="#fff" fill-rule="evenodd"/>
        <path id="Path_531" d="M877.31,274.624c.06.373.287.461.452.425s.222-.236.084-.41a.467.467,0,0,1-.106-.343s-.488-.047-.429.328" transform="translate(-857.131 -252.29)" fill="#fff" fill-rule="evenodd"/>
        <path id="Path_532" d="M860.959,286.45a.639.639,0,0,0,.17.595c.259.189.594.241.764-.078s.08-.243-.027-.359a.315.315,0,0,1-.063-.4c.08-.188.111-.325-.059-.345,0,0-1.064-.1-.785.586" transform="translate(-844.533 -261.177)" fill="#fff" fill-rule="evenodd"/>
        <path id="Path_533" d="M839.385,293.182c.013.131.013.137.074.218s.035.1.122.144a1.159,1.159,0,0,0,.17.067s-.007.033.113-.02.057.009.142-.066.13-.088.134-.134a.19.19,0,0,0-.017-.135c-.026-.036-.032-.01-.06-.046a.15.15,0,0,1-.036-.058l-.025-.08c-.011.039-.086.123-.1.115s-.083-.063-.142-.112a.451.451,0,0,0-.233-.09c-.037.007-.05,0-.088.047s-.068.02-.055.15" transform="translate(-827.987 -266.654)" fill="#fff" fill-rule="evenodd"/>
        <path id="Path_534" d="M828.748,282.633a.3.3,0,0,0,.088.229c.07.079.083.022.139.013s.052-.02.125-.072.044-.125.085-.2,0-.094-.02-.255-.094-.125-.122-.184a.293.293,0,0,1-.13.08c-.092.031-.065.006-.084.072s0,.044-.011.12a1.075,1.075,0,0,1-.071.193" transform="translate(-819.812 -258.341)" fill="#fff" fill-rule="evenodd"/>
        <path id="Path_535" d="M889.687,251.1s.51.471.658-.5c0,0-.005-.246-.124-.012s-.239-.415-.4-.411c0,0-.878.224-.13.924" transform="translate(-866.414 -233.755)" fill="#002675" fill-rule="evenodd"/>
        <path id="Path_536" d="M874.261,259.138c-.023.141.069.2.165.182s.071-.03.173-.149-.016-.093-.04-.172a.836.836,0,0,1-.033-.174.018.018,0,0,1,0,.005.11.11,0,0,1-.006-.025c-.009-.043-.019-.01-.068-.006s-.016.009-.093.1-.076.1-.1.243" transform="translate(-854.789 -240.369)" fill="#002675" fill-rule="evenodd"/>
        <path id="Path_537" d="M877.31,274.624c.06.373.287.461.452.425s.222-.236.084-.41a.467.467,0,0,1-.106-.343s-.488-.047-.429.328" transform="translate(-857.131 -252.29)" fill="#002675" fill-rule="evenodd"/>
        <path id="Path_538" d="M839.385,293.182c.013.131.013.137.074.218s.035.1.122.144a1.159,1.159,0,0,0,.17.067s-.007.033.113-.02.057.009.142-.066.13-.088.134-.134a.19.19,0,0,0-.017-.135c-.026-.036-.032-.01-.06-.046a.15.15,0,0,1-.036-.058l-.025-.08c-.011.039-.086.123-.1.115s-.083-.063-.142-.112a.451.451,0,0,0-.233-.09c-.037.007-.05,0-.088.047s-.068.02-.055.15" transform="translate(-827.987 -266.654)" fill="#002675" fill-rule="evenodd"/>
        <path id="Path_539" d="M828.748,282.633a.3.3,0,0,0,.088.229c.07.079.083.022.139.013s.052-.02.125-.072.044-.125.085-.2,0-.094-.02-.255-.094-.125-.122-.184a.293.293,0,0,1-.13.08c-.092.031-.065.006-.084.072s0,.044-.011.12a1.075,1.075,0,0,1-.071.193" transform="translate(-819.812 -258.341)" fill="#002675" fill-rule="evenodd"/>
        <path id="Path_540" d="M828.914,282.246c-.092.031-.065.006-.083.074s0,.043-.012.119a1.074,1.074,0,0,1-.071.193.294.294,0,0,0,.09.229c.069.081.083.023.138.013s.052-.021.125-.072.044-.125.084-.2,0-.094-.019-.255-.094-.125-.122-.185a.273.273,0,0,1-.13.08" transform="translate(-819.812 -258.339)" fill="#002675" fill-rule="evenodd"/>
        <path id="Path_541" d="M840.028,293.153l-.025-.08c-.011.039-.087.124-.1.114a1.7,1.7,0,0,1-.141-.112.478.478,0,0,0-.234-.09c-.038.008-.05,0-.089.047s-.067.019-.055.15.013.136.074.216.034.1.122.144a1.029,1.029,0,0,0,.169.068s-.005.033.113-.019.058.009.143-.067.129-.086.134-.134a.191.191,0,0,0-.018-.133c-.025-.037-.032-.011-.06-.047a.146.146,0,0,1-.035-.057" transform="translate(-827.987 -266.654)" fill="#002675" fill-rule="evenodd"/>
        <path id="Path_542" d="M822.847,186.248h0c-.637-1.113-2.322-.152-2.322-.152a9.333,9.333,0,0,0-3.25-2.085c-4.325-1.475-5.723-1.077-6.117-.446-.308.491-4.024,7.9-5.071,9.849-.518.969-.655,3.266-.732,4.763l-.974,6.151-.259,4.121s-.236,1.134.052,1.52a1.255,1.255,0,0,0,.859.413s-.043.42-.765.01a1.6,1.6,0,0,1-.693-1.35,45.1,45.1,0,0,1,.862-8.961c.926-4.115,1.207-4.75.409-7.151a20.862,20.862,0,0,0-2.525-4.786l-2.6-3.675a2.309,2.309,0,0,0-.632-1.231,2.644,2.644,0,0,0-1.643-.636,7.555,7.555,0,0,0-5.2,2.1c-1.378,1.343-2.01,2.214-2.081,3.335a4.04,4.04,0,0,0,.387,1.7s.762,9.566,4.156,13.046l7.029,9.862a6.182,6.182,0,0,0,2.792-.9,12.551,12.551,0,0,0,1.429-.918c2.028,1.486,5.619,1.55,5.619,1.55,1.1-1.335,6.631-11.526,6.631-11.526l.021.041c.534,1.1,1.311.952,1.311.952a1.7,1.7,0,0,0,1.732-.936,5.525,5.525,0,0,0,1.114-2.753c.539-1.168-.48-3.053-.48-3.053.6-1.176-.97-1.7-.97-1.7.242-1.629.454-4.9.537-4.653a.746.746,0,0,0,.168-.376c.826-.263,1.756-1.152,1.206-2.114m-30.422-1h0a7.44,7.44,0,0,1,4.451-2.153,1.929,1.929,0,0,1,1.941.742c.23.368.33,1.044-.405,2.224a7.5,7.5,0,0,1-2.306,2.54,5.659,5.659,0,0,1-3.33,1.087,2.194,2.194,0,0,1-1.765-.552C790.4,188.373,790.577,186.847,792.425,185.247Zm7.429,20.788h0a.5.5,0,0,1-.069.305,1.631,1.631,0,0,1-.373.329.763.763,0,0,1-.21.069,1.915,1.915,0,0,1-.373-.15.341.341,0,0,1-.073-.262,1.029,1.029,0,0,1,.037-.37,1.6,1.6,0,0,0,.059-.395c.013-.084,0-.1.138-.173s.1-.108.186-.115l.188-.018a1.3,1.3,0,0,1,.3.246c.035.05.118.222.118.222A.9.9,0,0,1,799.853,206.034Zm-2.689-3.062h0c.739.4,2.764,1.28,2.764,1.28s2.19,1.2,2.774.267,1.084-3.9,1.443-5.109-.56-1.389-.56-1.389-2.288-.662-2.915-.81a2.3,2.3,0,0,0-1.281.167l-.414-.524,1.254-.563s4.4-1.686,4.37-2.256a7.667,7.667,0,0,0-.59-1.822c-.058-.146-.042.143-.162.236s-.1-.086-.1-.086a.7.7,0,0,0-.764-.556c-.689-.009-2.373,1.138-2.921,1.4s-.845.375-1.919-.537a2.041,2.041,0,0,0-2.3-.17c-.92.786-1.457.428-1.457.428a1.161,1.161,0,0,0-1.821.53,1.337,1.337,0,0,1-.295.254.242.242,0,0,1-.229-.045.314.314,0,0,1-.095-.147c.9-1.9,1.993-1.468,2.261-1.331s.653.332.949,0,2.478-1,3.321-.121,1.318.616,1.318.616c.343-.134.9-.451,1.471-.753.881-.464,1.473-.807,1.958-.589.567.256.421-.012.421-.012a6.714,6.714,0,0,0-.422-.864c-1.124-2.008-3.711-5.462-3.711-5.462s-.091-.14-.087-.008a4.35,4.35,0,0,1-.189.673s-2.4,5.324-7.772,4.543c-.315-.047-.185.324-.189.357s.2,1.5.77,4.5a31.26,31.26,0,0,0,1.4,4.286c.366.951,1.83,3.263,2.346,2.891.541-.392-.691-1.78-1.168-2.981-.121-.3-.7-1.307-.13-1.3a19.5,19.5,0,0,0,2.535-.246c.344-.077,1.124-.179.578.441s-.9,3.255-.958,3.546A1.312,1.312,0,0,0,797.164,202.972Zm5.395,5.641h0s-.114,1.014-1.05.2c0,0-.838-.859.034-1.051C801.543,207.766,802.651,207.829,802.559,208.613Zm9.05-24.642h0s.053-1.219,4.306.144a12.776,12.776,0,0,1,4.243,2.2l.03.03-.038.051a4.267,4.267,0,0,0-1.31,1.835s-4.814-1.183-7.1-3.522A1.053,1.053,0,0,1,811.609,183.971Zm-3.628,23.245h0a.921.921,0,0,1-.611.893.862.862,0,0,1-.948-.328,1.029,1.029,0,0,1-.147-.989,1.206,1.206,0,0,1,.678-.577.712.712,0,0,1,.826.266A1.372,1.372,0,0,1,807.981,207.216Zm3.144-2.6h0c-.047.121-.546.175-.738.156s-.147-.05-.234-.141-.075-.146-.135-.352.021-.3.124-.524.113-.1.247-.261a.648.648,0,0,1,.784.239A.741.741,0,0,1,811.125,204.617Zm-.924-4.312h0c.114.016.128-.153.094-.22s-.073-.178-.241-.146c0,0-.982-.09-.522,1.036,0,0,.2.492.7-.324,0,0,.056-.087-.08-.144A.1.1,0,0,1,810.2,200.306Zm7.542.117h0l-1.836,3.322-2.211-1.153s-.662-.46-.412.9.848,3.729.848,3.729l-.528.905-1.219-5.22s-.2-.5.807-.981,3.391-1.7,3.391-1.7S818.3,199.316,817.743,200.423Zm-5.044-1.842h0c.038.441.23.839.708.885s1.02-.27.929-.7a1.558,1.558,0,0,0-.745-.991C813.175,197.531,812.649,198.006,812.7,198.581Zm9.125-2.384h0a5.87,5.87,0,0,0-.929-2.268,14.594,14.594,0,0,1-2.263,6.256s1.284,3,2.824-.935A5.05,5.05,0,0,0,821.823,196.2Zm-1.967-.4h0a6.833,6.833,0,0,1-2.83.743c-1.229.045-8.794-.405-8.794-.405s-.7-.119-1.086-.195l-.5,3.424c-.051.356-.137,1.458-.542,1.431-.481-.03-.3-1.034-.3-1.034.312-1.733.329-5.362,1.023-6.4.55-.819,4.378-8.267,4.378-8.267,2.014,2.452,7.279,3.742,7.279,3.742l-.781,1.673a1.5,1.5,0,0,1-.106.213c-.112.176-.684.383-.684.383l-.44.013a5.06,5.06,0,0,0-3,.759,9.158,9.158,0,0,0-2.089,2.246l-.079.092a1.491,1.491,0,0,0-.418-.115,3.056,3.056,0,0,0-2.68.594.416.416,0,0,0-.115.575c.058.084.176.088.369-.109a3.026,3.026,0,0,1,1.5-.622,1.73,1.73,0,0,1,.935.159s-.2.828.617.816.223-.967.223-.967a12.619,12.619,0,0,1,2.175-2.34,5.967,5.967,0,0,1,2.674-.689,3.508,3.508,0,0,0-1.45,1.722c-.768,2.12-.062,1.467,0,1.132a7.261,7.261,0,0,1,.613-1.4,4.438,4.438,0,0,1,.772-.916c.525-.419.976-.723.976-.723l-.158,2.177c-.019.315.064.437.209.391s.212-.565.212-.565l.365-2.576.9-1.766.038.01a2.658,2.658,0,0,0,1.875-.01C820.365,194.778,820.143,195.577,819.856,195.793Zm1.14-7.577h0c.662-.568-.539-1.536-.539-1.536a3.135,3.135,0,0,0-1.207,1.655A1.9,1.9,0,0,0,821,188.215Zm.656-.257s.208-.729-.806-1.522c0,0,1.343-.649,1.654.131S821.776,187.871,821.652,187.958Z" transform="translate(-790.161 -181.811)" fill="#002675" fill-rule="evenodd"/>
        <path id="Path_543" d="M890.346,250.6s-.007-.245-.124-.012-.239-.416-.4-.411c0,0-.878.223-.13.924,0,0,.51.471.658-.5" transform="translate(-866.416 -233.755)" fill="#002675" fill-rule="evenodd"/>
        <path id="Path_544" d="M861.737,286.121a.6.6,0,0,0-.71.516.526.526,0,0,0,.17.595c.259.189.6.241.763-.078s.151-.911-.222-1.033" transform="translate(-844.601 -261.365)" fill="#002675" fill-rule="evenodd"/>
        <path id="Path_545" d="M874.525,258.825v.005a.084.084,0,0,1-.007-.025c-.009-.043-.019-.01-.069-.006s-.014.009-.092.1-.077.1-.1.243.069.2.165.182.072-.031.173-.149-.015-.094-.04-.172a.912.912,0,0,1-.033-.175" transform="translate(-854.789 -240.369)" fill="#002675" fill-rule="evenodd"/>
        <path id="Path_546" d="M877.739,274.3s-.488-.047-.429.328.289.46.451.425.223-.237.083-.409a.469.469,0,0,1-.106-.343" transform="translate(-857.131 -252.29)" fill="#002675" fill-rule="evenodd"/>
        <path id="Path_547" d="M820.685,256.04l6.378-3.406s-.257,5.006-1.561,5.282-4.816-1.876-4.816-1.876" transform="translate(-813.619 -235.644)" fill="#002675" fill-rule="evenodd"/>
        <path id="Path_548" d="M937.034,262.091l.127-1.319c.018-1.093-1.035-.476-1.2-.292a2.863,2.863,0,0,0-.188,1.5.8.8,0,0,0,.917.56.53.53,0,0,0,.344-.446" transform="translate(-902.043 -241.412)" fill="#6bc4e8" fill-rule="evenodd"/>
        <path id="Path_549" d="M938.992,229.111l.775.187a1.117,1.117,0,0,0,.474-1.047s.316-.791.339-.884a1.872,1.872,0,0,0,0-.608c-.184-1.326-.844-1.39-.844-1.39s-.365-.113.173.954c0,0,.323.934-.944-.863,0,0-.638-.239-1.129.84a1.533,1.533,0,0,0,.532,1.815,4.953,4.953,0,0,1,.623,1" transform="translate(-903.549 -214.688)" fill="#6bc4e8" fill-rule="evenodd"/>
      </g>
    </g>
  </g>
</svg>
