<svg xmlns="http://www.w3.org/2000/svg" xmlns:xlink="http://www.w3.org/1999/xlink" width="94" height="123.011" viewBox="0 0 94 123.011">
    <defs>
        <filter id="Path_554" x="2.995" y="35" width="88.01" height="88.011" filterUnits="userSpaceOnUse">
            <feOffset />
            <feGaussianBlur stdDeviation="3" result="blur"/>
            <feFlood flood-opacity="0.29"/>
            <feComposite operator="in" in2="blur"/>
            <feComposite in="SourceGraphic"/>
        </filter>
    </defs>
    <g id="Group_12138"  transform="translate(-104.537 -920.926)">
        <g id="Group_12139"  transform="translate(-14.299 -169.005)">
            <text id="Συλλεκτικές_συσκευασίες_"  transform="translate(165.836 1106.931)" fill="#002677" font-size="16" font-family="SegoeUI, Segoe UI"><tspan x="-41.625" y="0">Συλλεκτικές</tspan><tspan x="-46.758" y="15.8">συσκευασίες </tspan></text>
        </g>
        <g id="rhombus" transform="translate(116.533 964.926)">
            <g transform="matrix(1, 0, 0, 1, -12, -44)" filter="url(#Path_554)">
                <path id="Path_554-2"  d="M145.225,149.481a14.53,14.53,0,0,1-8.963-2.962,146.03,146.03,0,0,1-23.054-23.048,15.042,15.042,0,0,1-.028-17.956,146.008,146.008,0,0,1,23.051-23.058,15.04,15.04,0,0,1,17.955-.028,145.948,145.948,0,0,1,23.056,23.053,15.033,15.033,0,0,1,.027,17.955,145.855,145.855,0,0,1-23.049,23.056,14.6,14.6,0,0,1-9,2.988Z" transform="translate(-98.23 -35.47)" fill="#002677"/>
            </g>
            <path id="Path_555"  d="M146.869,149.419a12.843,12.843,0,0,1-7.926-2.6,143.885,143.885,0,0,1-22.753-22.75,13.379,13.379,0,0,1-.022-15.875,143.9,143.9,0,0,1,22.75-22.755,13.386,13.386,0,0,1,15.881-.02,144.131,144.131,0,0,1,22.752,22.75,13.388,13.388,0,0,1,.021,15.877A144.046,144.046,0,0,1,154.822,146.8a12.9,12.9,0,0,1-7.953,2.62Z" transform="translate(-111.865 -81.115)" fill="#fff"/>
            <path id="Path_556"  d="M150.166,149.3a9.322,9.322,0,0,1-5.645-1.788,141.9,141.9,0,0,1-22.407-22.394v0a9.793,9.793,0,0,1-.027-11.359h0A142.122,142.122,0,0,1,144.47,91.365a9.808,9.808,0,0,1,11.334-.05,142.008,142.008,0,0,1,22.413,22.406,9.8,9.8,0,0,1,.043,11.341l.006-.006-.006.006a.053.053,0,0,1-.015.018,141.758,141.758,0,0,1-22.38,22.389,9.358,9.358,0,0,1-5.7,1.83Z" transform="translate(-115.161 -84.412)" fill="#002677"/>
        </g>
        <path id="close" d="M15.461,3.151,10.614,8l4.845,4.845a1.847,1.847,0,0,1-2.613,2.61L8,10.606l-4.85,4.845a1.847,1.847,0,1,1-2.613-2.61L5.391,8,.546,3.151A1.845,1.845,0,1,1,3.154.541L8,5.388,12.851.544a1.845,1.845,0,0,1,2.61,2.608Z" transform="translate(160.033 992.158) rotate(90)" fill="#fff"/>
    </g>
</svg>
