<svg xmlns="http://www.w3.org/2000/svg" xmlns:xlink="http://www.w3.org/1999/xlink" width="88.1" height="107.101" viewBox="0 0 88.1 107.101">
    <defs>
        <filter id="Path_554" x="0" y="19" width="88.1" height="88.101" filterUnits="userSpaceOnUse">
            <feOffset />
            <feGaussianBlur stdDeviation="3" result="blur"/>
            <feFlood flood-opacity="0.29"/>
            <feComposite operator="in" in2="blur"/>
            <feComposite in="SourceGraphic"/>
        </filter>
    </defs>
    <g id="Group_12140" transform="translate(-107.488 -936.881)">
        <g id="Group_12139" transform="translate(-14.349 -153.05)">
            <text id="Δώρα" transform="translate(165.836 1106.931)" fill="#002677" font-size="16" font-family="SegoeUI, Segoe UI"><tspan x="-21.223" y="0">Δώρα</tspan></text>
        </g>
        <g id="rhombus" transform="translate(116.488 964.881)">
            <g transform="matrix(1, 0, 0, 1, -9, -28)" filter="url(#Path_554)">
                <path id="Path_554-2" d="M145.27,149.571A14.549,14.549,0,0,1,136.3,146.6a146.217,146.217,0,0,1-23.084-23.077,15.061,15.061,0,0,1-.028-17.979,146.2,146.2,0,0,1,23.08-23.087,15.06,15.06,0,0,1,17.978-.028,146.136,146.136,0,0,1,23.086,23.082,15.053,15.053,0,0,1,.028,17.978,146.042,146.042,0,0,1-23.078,23.085,14.622,14.622,0,0,1-9.007,2.992Z" transform="translate(-101.22 -51.47)" fill="#002677"/>
            </g>
            <path id="Path_555" d="M146.912,149.505a12.86,12.86,0,0,1-7.936-2.6,144.07,144.07,0,0,1-22.783-22.78,13.4,13.4,0,0,1-.022-15.9A144.081,144.081,0,0,1,138.95,85.443a13.4,13.4,0,0,1,15.9-.02A144.316,144.316,0,0,1,177.632,108.2a13.4,13.4,0,0,1,.021,15.9,144.233,144.233,0,0,1-22.777,22.783,12.915,12.915,0,0,1-7.963,2.623Z" transform="translate(-111.863 -81.112)" fill="#fff"/>
            <path id="Path_556" d="M150.2,149.375a9.334,9.334,0,0,1-5.653-1.79,142.083,142.083,0,0,1-22.436-22.423v0a9.805,9.805,0,0,1-.028-11.374h0A142.3,142.3,0,0,1,144.5,91.367a9.82,9.82,0,0,1,11.349-.05,142.19,142.19,0,0,1,22.442,22.434,9.808,9.808,0,0,1,.043,11.355l.006-.006-.006.006a.053.053,0,0,1-.015.018,141.941,141.941,0,0,1-22.409,22.418,9.37,9.37,0,0,1-5.707,1.832Z" transform="translate(-115.155 -84.406)" fill="#002677"/>
        </g>
        <path id="close" d="M15.461,3.151,10.614,8l4.845,4.845a1.847,1.847,0,0,1-2.613,2.61L8,10.606l-4.85,4.845a1.847,1.847,0,1,1-2.613-2.61L5.391,8,.546,3.151A1.845,1.845,0,1,1,3.154.541L8,5.388,12.851.544a1.845,1.845,0,0,1,2.61,2.608Z" transform="translate(159.983 992.158) rotate(90)" fill="#fff"/>
    </g>
</svg>
