<svg xmlns="http://www.w3.org/2000/svg" xmlns:xlink="http://www.w3.org/1999/xlink" width="87.078" height="122.079" viewBox="0 0 87.078 122.079">
    <defs>
        <filter id="Path_554" x="0" y="35" width="87.078" height="87.079" filterUnits="userSpaceOnUse">
            <feOffset />
            <feGaussianBlur stdDeviation="3" result="blur"/>
            <feFlood flood-opacity="0.29"/>
            <feComposite operator="in" in2="blur"/>
            <feComposite in="SourceGraphic"/>
        </filter>
    </defs>
    <g id="Group_12141"  transform="translate(-107.998 -920.926)">
        <g id="Group_12139"  transform="translate(-14.299 -169.005)">
            <text id="Πάρκο_ΦΙΞ_"  transform="translate(165.836 1106.931)" fill="#002677" font-size="16" font-family="SegoeUI, Segoe UI"><tspan x="-24.184" y="0">Πάρκο</tspan><tspan x="-14.512" y="15.8">ΦΙΞ!</tspan></text>
        </g>
        <g id="rhombus" transform="translate(116.998 964.926)">
            <g transform="matrix(1, 0, 0, 1, -9, -44)" filter="url(#Path_554)">
                <path id="Path_554-2"  d="M144.76,148.549a14.337,14.337,0,0,1-8.844-2.923,144.086,144.086,0,0,1-22.747-22.741,14.842,14.842,0,0,1-.028-17.717,144.065,144.065,0,0,1,22.744-22.751A14.84,14.84,0,0,1,153.6,82.39a144,144,0,0,1,22.749,22.746,14.833,14.833,0,0,1,.027,17.716A143.914,143.914,0,0,1,153.635,145.6a14.409,14.409,0,0,1-8.876,2.948Z" transform="translate(-101.22 -35.47)" fill="#002677"/>
            </g>
            <path id="Path_555"  d="M146.426,148.533a12.673,12.673,0,0,1-7.821-2.565,141.972,141.972,0,0,1-22.451-22.448,13.2,13.2,0,0,1-.022-15.664A141.981,141.981,0,0,1,138.58,85.4a13.207,13.207,0,0,1,15.669-.02A142.214,142.214,0,0,1,176.7,107.832a13.209,13.209,0,0,1,.021,15.666,142.13,142.13,0,0,1-22.446,22.451,12.727,12.727,0,0,1-7.847,2.585Z" transform="translate(-111.888 -81.137)" fill="#fff"/>
            <path id="Path_556"  d="M149.768,148.5a9.2,9.2,0,0,1-5.57-1.764,140.012,140.012,0,0,1-22.109-22.1v0a9.662,9.662,0,0,1-.027-11.208h0a140.23,140.23,0,0,1,22.088-22.091,9.677,9.677,0,0,1,11.183-.049A140.119,140.119,0,0,1,177.446,113.4a9.665,9.665,0,0,1,.042,11.19l.006-.006-.006.006a.052.052,0,0,1-.015.018A139.871,139.871,0,0,1,155.392,146.7a9.234,9.234,0,0,1-5.624,1.805Z" transform="translate(-115.229 -84.481)" fill="#002677"/>
        </g>
        <path id="close" d="M15.461,3.151,10.614,8l4.845,4.845a1.847,1.847,0,0,1-2.613,2.61L8,10.606l-4.85,4.845a1.847,1.847,0,1,1-2.613-2.61L5.391,8,.546,3.151A1.845,1.845,0,1,1,3.154.541L8,5.388,12.851.544a1.845,1.845,0,0,1,2.61,2.608Z" transform="translate(159.533 992.158) rotate(90)" fill="#fff"/>
    </g>
</svg>
