<svg xmlns="http://www.w3.org/2000/svg" xmlns:xlink="http://www.w3.org/1999/xlink" width="94" height="123.011" viewBox="0 0 94 123.011">
    <defs>
        <filter id="Path_554" x="2.995" y="35" width="88.01" height="88.011" filterUnits="userSpaceOnUse">
            <feOffset />
            <feGaussianBlur stdDeviation="3" result="blur"/>
            <feFlood flood-opacity="0.29"/>
            <feComposite operator="in" in2="blur"/>
            <feComposite in="SourceGraphic"/>
        </filter>
    </defs>
    <g id="Group_12138"  transform="translate(-104.537 -920.926)">
        <g id="Group_12139"  transform="translate(-14.299 -169.005)">
            <text id="Συλλεκτικές_συσκευασίες_"   transform="translate(165.836 1106.931)" fill="#002677" font-size="16" font-family="SegoeUI, Segoe UI"><tspan x="-41.625" y="0">Συλλεκτικές</tspan><tspan x="-46.758" y="15.8">συσκευασίες </tspan></text>
        </g>
        <g id="rhombus" transform="translate(116.533 964.926)">
            <g transform="matrix(1, 0, 0, 1, -12, -44)" filter="url(#Path_554)">
                <path id="Path_554-2"  d="M145.225,149.481a14.53,14.53,0,0,1-8.963-2.962,146.03,146.03,0,0,1-23.054-23.048,15.042,15.042,0,0,1-.028-17.956,146.008,146.008,0,0,1,23.051-23.058,15.04,15.04,0,0,1,17.955-.028,145.948,145.948,0,0,1,23.056,23.053,15.033,15.033,0,0,1,.027,17.955,145.855,145.855,0,0,1-23.049,23.056,14.6,14.6,0,0,1-9,2.988Z" transform="translate(-98.23 -35.47)" fill="#002677"/>
            </g>
            <path id="Path_555"  d="M146.869,149.419a12.843,12.843,0,0,1-7.926-2.6,143.885,143.885,0,0,1-22.753-22.75,13.379,13.379,0,0,1-.022-15.875,143.9,143.9,0,0,1,22.75-22.755,13.386,13.386,0,0,1,15.881-.02,144.131,144.131,0,0,1,22.752,22.75,13.388,13.388,0,0,1,.021,15.877A144.046,144.046,0,0,1,154.822,146.8a12.9,12.9,0,0,1-7.953,2.62Z" transform="translate(-111.865 -81.115)" fill="#fff"/>
            <path id="Path_556"  d="M150.166,149.3a9.322,9.322,0,0,1-5.645-1.788,141.9,141.9,0,0,1-22.407-22.394v0a9.793,9.793,0,0,1-.027-11.359h0A142.122,142.122,0,0,1,144.47,91.365a9.808,9.808,0,0,1,11.334-.05,142.008,142.008,0,0,1,22.413,22.406,9.8,9.8,0,0,1,.043,11.341l.006-.006-.006.006a.053.053,0,0,1-.015.018,141.758,141.758,0,0,1-22.38,22.389,9.358,9.358,0,0,1-5.7,1.83Z" transform="translate(-115.161 -84.412)" fill="#fff"/>
        </g>
        <g id="beer" transform="translate(134.943 980.054)">
            <path id="Path_835"  d="M30.389,16.9a4.086,4.086,0,0,1-1.481,1.7,15.268,15.268,0,0,1-3.131,1.479c-1.016.367-2.05.691-3.079,1.018q-2.218.7-4.44,1.382c-2.345.721-4.69,1.445-7.044,2.139a11.252,11.252,0,0,1-2.339.514c-.44.032-.9-.3-1.359-.448a3.8,3.8,0,0,0-.942-.226c-1.306-.08-2.562-.1-3.464-1.378a20.932,20.932,0,0,1-2.244-4.9A15.934,15.934,0,0,1,0,12.574a7.023,7.023,0,0,1,.687-2.5,1.178,1.178,0,0,1,.738-.628C2.038,9.393,2.263,9,2.5,8.552c.434-.8.855-1.618,1.351-2.383A2.617,2.617,0,0,1,5.407,5.094c2.242-.676,4.438-1.506,6.673-2.208a31.644,31.644,0,0,1,3.5-.807c1.84-.354,3.354-.969,5.057-1.33,1.479-.314,4.21-.967,5.141-.676a13.24,13.24,0,0,0,1.865.715,2.7,2.7,0,0,0,1.2-.162c.554-.222,1.485.309,1.917.6a6.286,6.286,0,0,1,2.177,3.4c.657,2.023,1.688,4.927,1.45,6.679a6.167,6.167,0,0,1-.837,2.76c-.312.373-2.68,1.629-3.161,2.839m-7.457,2.954q1.976-.7,3.911-1.511A4.346,4.346,0,0,0,28.7,17.324a24.079,24.079,0,0,0,1.818-3.353.716.716,0,0,0-.006-.459c-.466-1.618-.876-3.256-1.431-4.844-.719-2.048-1.549-4.06-2.35-6.081A2.151,2.151,0,0,0,24.247,1.2c-1.785.379-3.559.817-5.331,1.247-.655.16-1.308.341-1.943.56-.194.065-.542.181-.6.464s.335.59.529.715c.325.206,5.095,3.108,6.427,3.809,1.389.727,1.9,1.553,1.85,2.155a7.937,7.937,0,0,1-1.545,3.418c-.731,1.014-1.694,2.465-2.647,3.565a2.127,2.127,0,0,0-.546,1.787c.04.3.1.6.166.921a1.155,1.155,0,0,0,.236.556C21.008,20.544,22.515,20.006,22.932,19.857Zm.919-10.593C22.017,8.128,20.1,7.128,18.193,6.116a2.343,2.343,0,0,0-2.967.661c-1,1.528-1.951,3.087-2.847,4.674a1.805,1.805,0,0,0,.209,2.187c1.785,2.116,4.219,2.9,6.823,3.291.261.038.662-.267.86-.52,1.047-1.336,2.092-2.681,3.055-4.077C23.756,11.709,24.7,9.793,23.852,9.264ZM7.564,23.234c.4.226.855.485,1.321.721s.735-.063.853-.476a11.577,11.577,0,0,0-.221-6.454c-.495-1.728-1.277-3.377-1.768-5.1A8.227,8.227,0,0,0,5.405,7.989a1.159,1.159,0,0,0-1.6.086c-.362.571-.712,1.15-1.06,1.719a8.268,8.268,0,0,1,.738,1.075A33.966,33.966,0,0,1,7.01,21.2c.061.443.07.892.091,1.408a.991.991,0,0,0,.067.407C7.208,23.089,7.407,23.144,7.564,23.234ZM1.951,11.285a1.481,1.481,0,0,1,.442.54c.4.925.792,1.86,1.1,2.817.512,1.576,1,3.159,1.414,4.764.278,1.081.388,2.2.607,3.3.029.15.063.381.354.4.265-.01.255-.333.232-.474a37.28,37.28,0,0,0-.79-4.3c-.55-1.915-1.281-3.78-1.958-5.658-.3-.845-.638-1.688-1.559-1.924a.584.584,0,0,0-.417,0,.385.385,0,0,0-.185.213c-1.348,3.091.967,10.07,3.352,11.739.173.118.405.293.48.245.044-.029-.044-.236-.087-.375-.371-1.252-.662-2.761-1.131-4.263-1.032-3.3-2.229-6.547-2.137-6.863C1.692,11.367,1.789,11.213,1.951,11.285ZM29.318,1.5c2.2,3.388,3.049,6.907,3.774,10.826a6.143,6.143,0,0,0,.2-2.206,17.488,17.488,0,0,0-2.64-7.571A3.909,3.909,0,0,0,29.318,1.5Z" transform="matrix(0.259, -0.966, 0.966, 0.259, 0, 33.25)" fill="#001d63" fill-rule="evenodd"/>
        </g>
        <g id="Group_12188"  transform="translate(-14.299 -169.005)">
            <text id="Συλλεκτικές_συσκευασίες_2"   transform="translate(165.836 1106.931)" fill="#002677" font-size="16" font-family="SegoeUI, Segoe UI"><tspan x="-41.625" y="0">Συλλεκτικές</tspan><tspan x="-46.758" y="15.8">συσκευασίες </tspan></text>
        </g>
    </g>
</svg>
