<svg xmlns="http://www.w3.org/2000/svg" width="87.847" height="87.848" viewBox="0 0 87.847 87.848">
    <g id="Group_12137" transform="translate(-20.617 -955.157)">
        <g id="rhombus" transform="translate(20.617 955.157)">
            <path id="Path_551" d="M154.144,167.318A18.232,18.232,0,0,1,142.9,163.6a183.236,183.236,0,0,1-28.928-28.92,18.875,18.875,0,0,1-.035-22.531,183.209,183.209,0,0,1,28.923-28.932,18.873,18.873,0,0,1,22.53-.035,183.134,183.134,0,0,1,28.931,28.926,18.863,18.863,0,0,1,.034,22.53,183.015,183.015,0,0,1-28.921,28.93,18.324,18.324,0,0,1-11.287,3.75Z" transform="translate(-110.221 -79.47)" fill="#002677"/>
            <path id="Path_552" d="M155.354,166.388a16.116,16.116,0,0,1-9.945-3.261,180.544,180.544,0,0,1-28.55-28.547,16.788,16.788,0,0,1-.028-19.92,180.556,180.556,0,0,1,28.546-28.553,16.8,16.8,0,0,1,19.927-.026,180.852,180.852,0,0,1,28.549,28.546,16.8,16.8,0,0,1,.026,19.922A180.749,180.749,0,0,1,165.333,163.1a16.185,16.185,0,0,1-9.979,3.287Z" transform="translate(-111.431 -80.68)" fill="#fff"/>
            <path id="Path_553" d="M159.4,169.05a12.069,12.069,0,0,1-7.39-2.379,187.3,187.3,0,0,1-29.33-29.8v0a13.2,13.2,0,0,1-.036-15.114h0a187.6,187.6,0,0,1,29.3-29.789,12.669,12.669,0,0,1,14.836-.066,187.446,187.446,0,0,1,29.338,29.811,13.209,13.209,0,0,1,.056,15.089l.007-.007-.007.007a.07.07,0,0,1-.019.024,187.115,187.115,0,0,1-29.295,29.789,12.117,12.117,0,0,1-7.46,2.434Z" transform="translate(-115.476 -85.37)" fill="#002677"/>
            <path id="close" d="M15.461,3.151,10.614,8l4.845,4.845a1.847,1.847,0,0,1-2.613,2.61L8,10.606l-4.85,4.845a1.847,1.847,0,1,1-2.613-2.61L5.391,8,.546,3.151A1.845,1.845,0,1,1,3.154.541L8,5.388,12.851.544a1.845,1.845,0,0,1,2.61,2.608Z" transform="translate(51.919 35.924) rotate(90)" fill="#fff"/>
        </g>
    </g>
</svg>
