<svg id="Group_82" data-name="Group 82" xmlns="http://www.w3.org/2000/svg" width="159.148" height="134.004" viewBox="0 0 159.148 134.004">
    <path id="Path_355"  d="M297.023,40.121v97.722a9.284,9.284,0,0,1-9.263,9.3H236.983c.011.115.038.224.038.343v5.883c0,2.188,4.457,5.974,5.768,7.907a1.615,1.615,0,0,1,.664,1.286v.612a1.671,1.671,0,0,1-1.674,1.667H192.01a1.668,1.668,0,0,1-1.671-1.667v-.612a1.634,1.634,0,0,1,.65-1.279c1.314-1.933,5.775-5.726,5.775-7.914V147.48a2.78,2.78,0,0,1,.035-.343H147.117a9.277,9.277,0,0,1-9.242-9.3V40.121a9.253,9.253,0,0,1,9.242-9.288H287.759A9.26,9.26,0,0,1,297.023,40.121Zm-77.884-5.167a1.69,1.69,0,1,0-1.685,1.681A1.695,1.695,0,0,0,219.139,34.954Z" transform="translate(-137.875 -30.833)" fill="#f2f2f2"/>
    <rect id="Rectangle_775" width="143.576" height="99.722" transform="translate(7.786 8.292)" fill="#002677"/>
</svg>
