<svg xmlns="http://www.w3.org/2000/svg" width="54.267" height="101.335" viewBox="0 0 54.267 101.335">
    <g id="Group_725" transform="translate(-52.686 -3)">
        <g id="Group_85" transform="translate(52.686 3)">
            <path id="Path_358" d="M70.863,142.628a5.809,5.809,0,0,1-5.812,5.8H22.395a5.8,5.8,0,0,1-5.8-5.8V52.9a5.8,5.8,0,0,1,5.8-5.8H65.05a5.809,5.809,0,0,1,5.812,5.8Zm-23.676-.7a3.3,3.3,0,1,0-3.3,3.306A3.3,3.3,0,0,0,47.187,141.925Zm1.648-85.3a.982.982,0,0,0-.982-.973H39.593a.974.974,0,0,0-.973.973h0a.977.977,0,0,0,.973.973h8.259a.985.985,0,0,0,.982-.973Z" transform="translate(-16.596 -47.096)" fill="#f2f2f2"/>
            <rect id="Rectangle_777" width="49.399" height="73.717" transform="translate(2.59 13.813)" fill="#002677"/>
        </g>
    </g>
</svg>
