<svg xmlns="http://www.w3.org/2000/svg" width="79.999" height="79.999" viewBox="0 0 79.999 79.999">
    <g id="_btn" transform="translate(0 0)">
        <g id="rhombus" transform="translate(0 79.999) rotate(-90)">
            <path id="Path_557" d="M40,80a16.6,16.6,0,0,1-10.242-3.385A166.866,166.866,0,0,1,3.413,50.278a17.188,17.188,0,0,1-.032-20.518A166.84,166.84,0,0,1,29.721,3.413a17.187,17.187,0,0,1,20.517-.032A166.77,166.77,0,0,1,76.584,29.723a17.178,17.178,0,0,1,.031,20.517A166.664,166.664,0,0,1,50.278,76.584,16.687,16.687,0,0,1,40,80Z" transform="translate(0 0)" fill="#fff"/>
            <path id="Path_558" d="M38.113,76.227a14.7,14.7,0,0,1-9.072-2.975A164.685,164.685,0,0,1,3,47.213a14.74,14.74,0,0,1-3-9.1,14.7,14.7,0,0,1,2.973-9.071A164.7,164.7,0,0,1,29.012,3a14.756,14.756,0,0,1,9.1-3,14.707,14.707,0,0,1,9.075,2.975A164.966,164.966,0,0,1,73.229,29.013a14.749,14.749,0,0,1,3,9.1,14.711,14.711,0,0,1-2.973,9.072A164.869,164.869,0,0,1,47.216,73.229a14.763,14.763,0,0,1-9.1,3Z" transform="translate(1.886 1.886)" fill="#b1b1b1"/>
            <path id="Path_559" d="M34.333,68.663a10.711,10.711,0,0,1-6.486-2.054A163.036,163.036,0,0,1,2.1,40.878v0A11.251,11.251,0,0,1,2.07,27.825h0A163.291,163.291,0,0,1,27.788,2.1a11.269,11.269,0,0,1,13.022-.057A163.161,163.161,0,0,1,66.563,27.786a11.255,11.255,0,0,1,.049,13.03l.006-.006-.006.006a.061.061,0,0,1-.017.02A162.872,162.872,0,0,1,40.881,66.56a10.752,10.752,0,0,1-6.548,2.1Z" transform="translate(5.666 5.668)" fill="#fff"/>
        </g>
        <g id="open_close" transform="translate(25.208 31.865) rotate(45)">
            <path id="Path_976" d="M11.12,2.267,7.634,5.751l3.484,3.484a1.328,1.328,0,0,1-1.879,1.877L5.756,7.628,2.268,11.113A1.328,1.328,0,0,1,.389,9.235L3.877,5.751.393,2.267A1.327,1.327,0,0,1,2.268.389L5.756,3.875,9.243.391A1.327,1.327,0,0,1,11.12,2.267Z" transform="translate(0 0)" fill="#002677"/>
        </g>
    </g>
</svg>
