<svg xmlns="http://www.w3.org/2000/svg" width="79.09" height="97.134" viewBox="0 0 79.09 97.134">
    <g id="icon" transform="translate(0 0)">
        <g id="antenna" transform="translate(0.979 19.027)">
            <g id="Group_12136" transform="translate(0.001 0.006)">
                <path id="Path_4407" d="M1.638,73.771a1.627,1.627,0,0,1-.807-3.043l11.39-6.508a1.631,1.631,0,0,1,1.627,2.828L2.458,73.556A1.627,1.627,0,0,1,1.638,73.771Z" transform="translate(-0.006 -54.246)" fill="#455a64"/>
                <path id="Path_4408" d="M86.971,116.437a1.627,1.627,0,0,1-.807-3.043l11.39-6.509a1.631,1.631,0,1,1,1.627,2.828l-11.39,6.509A1.627,1.627,0,0,1,86.971,116.437Z" transform="translate(-72.322 -90.404)" fill="#455a64"/>
                <path id="Path_4409" d="M257.665,201.809a1.627,1.627,0,0,1-.729-3.082l13.017-6.509a1.628,1.628,0,1,1,1.455,2.913l-13.017,6.509A1.627,1.627,0,0,1,257.665,201.809Z" transform="translate(-216.982 -162.758)" fill="#455a64"/>
                <path id="Path_4410" d="M343,244.476a1.627,1.627,0,0,1-.729-3.082l13.017-6.509a1.628,1.628,0,1,1,1.455,2.913l-13.017,6.508A1.627,1.627,0,0,1,343,244.476Z" transform="translate(-289.298 -198.916)" fill="#455a64"/>
                <path id="Path_4411" d="M129.665,8.182a1.627,1.627,0,0,1-.729-3.082L138.7.219a1.628,1.628,0,0,1,1.455,2.913h0l-9.763,4.881A1.631,1.631,0,0,1,129.665,8.182Z" transform="translate(-108.507 -0.047)" fill="#455a64"/>
                <path id="Path_4412" d="M215,50.848a1.627,1.627,0,0,1-.729-3.082l9.763-4.881a1.628,1.628,0,0,1,1.455,2.913l-9.763,4.881A1.627,1.627,0,0,1,215,50.848Z" transform="translate(-180.823 -36.205)" fill="#455a64"/>
                <path id="Path_4413" d="M300.331,93.515a1.627,1.627,0,0,1-.729-3.082l9.763-4.881a1.628,1.628,0,0,1,1.455,2.913h0l-9.763,4.881A1.628,1.628,0,0,1,300.331,93.515Z" transform="translate(-253.139 -72.363)" fill="#455a64"/>
                <path id="Path_4414" d="M385.665,136.182a1.627,1.627,0,0,1-.729-3.082l9.763-4.881a1.628,1.628,0,0,1,1.455,2.913l-9.763,4.881A1.631,1.631,0,0,1,385.665,136.182Z" transform="translate(-325.456 -108.522)" fill="#455a64"/>
            </g>
            <path id="Path_4415" d="M77.2,32.717,8.859.175a1.627,1.627,0,0,0-1.425,0L.925,3.429A1.627,1.627,0,0,0,.955,6.358L29.312,19.866V76.491a1.627,1.627,0,0,0,1.627,1.627h6.509a1.627,1.627,0,0,0,1.627-1.627V24.52L69.292,38.907a1.627,1.627,0,0,0,1.425,0l6.509-3.254a1.627,1.627,0,0,0-.029-2.929Z" transform="translate(-0.018 -0.01)" fill="#6bc4e8"/>
            <path id="Path_4416" d="M1.638,73.771a1.627,1.627,0,0,1-.807-3.043l11.39-6.508a1.631,1.631,0,0,1,1.627,2.828L2.458,73.556A1.627,1.627,0,0,1,1.638,73.771Z" transform="translate(-0.005 -54.241)" fill="#002677"/>
            <path id="Path_4417" d="M86.971,116.437a1.627,1.627,0,0,1-.807-3.043l11.39-6.509a1.631,1.631,0,1,1,1.627,2.828l-11.39,6.509A1.627,1.627,0,0,1,86.971,116.437Z" transform="translate(-72.321 -90.398)" fill="#002677"/>
            <path id="Path_4418" d="M257.665,201.809a1.627,1.627,0,0,1-.729-3.082l13.017-6.509a1.628,1.628,0,1,1,1.455,2.913l-13.017,6.509A1.627,1.627,0,0,1,257.665,201.809Z" transform="translate(-216.981 -162.752)" fill="#002677"/>
            <path id="Path_4419" d="M343,244.476a1.627,1.627,0,0,1-.729-3.082l13.017-6.509a1.628,1.628,0,1,1,1.455,2.913l-13.017,6.508A1.627,1.627,0,0,1,343,244.476Z" transform="translate(-289.297 -198.911)" fill="#002677"/>
            <path id="Path_4420" d="M37.43,78.153H30.921a1.627,1.627,0,0,1-1.627-1.627V19.9L.933,6.4A1.627,1.627,0,0,1,.9,3.471L7.413.217a1.627,1.627,0,0,1,1.425,0l68.34,32.543a1.627,1.627,0,0,1,.029,2.929L70.7,38.943a1.608,1.608,0,0,1-1.425,0L39.057,24.555V76.526A1.627,1.627,0,0,1,37.43,78.153ZM32.549,74.9H35.8V21.978A1.627,1.627,0,0,1,38.13,20.51L69.957,35.662l2.815-1.409L8.142,3.491,5.327,4.9,31.621,17.412a1.627,1.627,0,0,1,.927,1.468V74.9Z" transform="translate(0 -0.046)" fill="#002677"/>
            <path id="Path_4421" d="M129.665,8.182a1.627,1.627,0,0,1-.729-3.082L138.7.219a1.628,1.628,0,0,1,1.455,2.913h0l-9.763,4.881A1.631,1.631,0,0,1,129.665,8.182Z" transform="translate(-108.507 -0.042)" fill="#002677"/>
            <path id="Path_4422" d="M215,50.848a1.627,1.627,0,0,1-.729-3.082l9.763-4.881a1.628,1.628,0,0,1,1.455,2.913l-9.763,4.881A1.627,1.627,0,0,1,215,50.848Z" transform="translate(-180.822 -36.199)" fill="#002677"/>
            <path id="Path_4423" d="M300.331,93.515a1.627,1.627,0,0,1-.729-3.082l9.763-4.881a1.628,1.628,0,0,1,1.455,2.913h0l-9.763,4.881A1.628,1.628,0,0,1,300.331,93.515Z" transform="translate(-253.138 -72.358)" fill="#002677"/>
            <path id="Path_4424" d="M385.665,136.182a1.627,1.627,0,0,1-.729-3.082l9.763-4.881a1.628,1.628,0,0,1,1.455,2.913l-9.763,4.881A1.631,1.631,0,0,1,385.665,136.182Z" transform="translate(-325.455 -108.516)" fill="#002677"/>
        </g>
        <path id="Path_2276" d="M148.186,752.8l2.1-.559,2.42,1.692,2.783,1.667.764.371,5.018,3.763-.121,1.361-1.767-.106-1.668-.083-1.662-.067-1.556-.007-6.862-2.329Z" transform="translate(-139.408 -743.126)" fill="#52b9e4" fill-rule="evenodd"/>
        <path id="Path_2277" d="M158.368,760.417h0c-.058-.038-.124-.081-.186-.12a2.045,2.045,0,0,1-.039.7,1.724,1.724,0,0,1-.719.9c.723.371.429,1.211-.217,1.617.487.375-.275,1.288-.6,1.7-.12.151-.336-.066-.217-.216.147-.182.282-.368.41-.561.054-.089.108-.182.162-.271,0,0,.128-.232.085-.337a.21.21,0,0,0-.217-.147.154.154,0,0,1-.043-.3c.449-.147,1.315-1.11.3-1.3-.139-.023-.132-.2-.039-.271.549-.387.932-.719.913-1.423l-.012-.251c-.306-.209-.631-.441-.963-.693a2.223,2.223,0,0,1-.217.816,2.424,2.424,0,0,1-1.01.963.981.981,0,0,1,.426.9,1.234,1.234,0,0,1-.634.9.73.73,0,0,1,.48.6,1.98,1.98,0,0,1-.754,1.369c-.139.116-.344-.081-.2-.2a1.861,1.861,0,0,0,.507-.642c.221-.515.108-.839-.395-.955a.148.148,0,0,1-.031-.267,2.219,2.219,0,0,0,.538-.372.716.716,0,0,0-.232-1.2.137.137,0,0,1-.035-.247,2.553,2.553,0,0,0,1.2-1.114,2.491,2.491,0,0,0,.178-.681,46.391,46.391,0,0,1-3.845-3.272,5.35,5.35,0,0,1-1.242-3.737c-.023-1.381-1.733-2.367-2.267-2.414a3.215,3.215,0,0,0-2.522.955,7.926,7.926,0,0,0-1.4,3.265c-.073.364.058.681.139.681s.2-.155.383-.406a2.983,2.983,0,0,1,1.025-.677.3.3,0,0,1,.2.286c-.008.144-.012,1.223-.271,4.263a9.769,9.769,0,0,0,3.044,7.241,19.257,19.257,0,0,0,4.793,1.787c.449.027.611.263.681.762a1.093,1.093,0,0,1-.607.994,7.207,7.207,0,0,1-1.683.027,1.138,1.138,0,0,0-.952.429c-.205.194.012.368.193.36a5.461,5.461,0,0,0,.94-.271,12.771,12.771,0,0,1,2.008-.015c.348.008.611.313.712.313s.178-.174.329-.394a8.067,8.067,0,0,0,.565-1.5c.1-.372.062-.514.348-.646s1.911.348,2.851.259c.147-.012.4-.016.739-.012a14.069,14.069,0,0,0-.8-1.165,11.757,11.757,0,0,1-.979-1.342,2.917,2.917,0,0,1-1-.066.145.145,0,0,1,.039-.282c.306,0,.615.023.924,0a1.113,1.113,0,0,0,.456-.108c.263-.147.24-.422.124-.662a2.427,2.427,0,0,0-.282-.348c-.085-.116.054-.236.166-.216a2.782,2.782,0,0,0,1.5.039,1.113,1.113,0,0,0,.5-.483.782.782,0,0,0,.128-.5c-.836-.515-1.992-1.165-3.388-2.039m-9.663-8.5a.554.554,0,0,1-.565.368.441.441,0,0,1-.367-.522.34.34,0,0,1,.116-.213.45.45,0,0,1,.518-.2A.466.466,0,0,1,148.7,751.914Z" transform="translate(-145.511 -749.885)" fill="#001d63" fill-rule="evenodd"/>
        <path id="Path_2278" d="M152.156,756.534c.093.108.178.224.271.336-.46-.015-.894-.031-1.273-.038a11.8,11.8,0,0,0-.824-1.207c-.36-.456-.878-.843-1.2-1.335a1.021,1.021,0,0,0,.456-.22.6.6,0,0,0,.255-.437,19.831,19.831,0,0,0,1.331,1.722c.325.394.658.785.986,1.18" transform="translate(-135.141 -739.136)" fill="#001d63" fill-rule="evenodd"/>
        <path id="Path_2279" d="M150.327,753.545c1.126,1.214,2.1,2.584,3.218,3.822l-.99-.042c-.147-.186-.317-.356-.472-.53-.313-.364-.623-.723-.932-1.079-.584-.669-1.265-1.3-1.783-2.015v0a2.148,2.148,0,0,0-.1-.213,1.981,1.981,0,0,0,1.06.062" transform="translate(-134.74 -739.566)" fill="#001d63" fill-rule="evenodd"/>
        <path id="Path_2280" d="M153.029,756.107c.565.576,1.095,1.214,1.667,1.8-.387-.023-.87-.054-1.4-.077a34.387,34.387,0,0,0-3.725-3.9,1.136,1.136,0,0,0,.275-.135,1.359,1.359,0,0,0,.429-.464l.008.016c.9.936,1.833,1.833,2.743,2.758" transform="translate(-133.857 -739.994)" fill="#001d63" fill-rule="evenodd"/>
        <path id="Path_2281" d="M156.11,758.183c-.073.159-.758.251-1.068.228-.031,0-.12-.012-.255-.019-1.609-1.621-3.207-3.238-4.963-4.708a.063.063,0,0,0-.05-.019,4.133,4.133,0,0,0,.193-.487c.12.073.232.151.333.22.828.565,5.191,3.919,5.454,4.1s.425.526.356.681" transform="translate(-133.286 -740.442)" fill="#001d63" fill-rule="evenodd"/>
    </g>
</svg>
